<svg xmlns="http://www.w3.org/2000/svg" width="330" height="300"><svg viewBox="0 0 992 1000" id="duckduckgo" width="24" height="24" x="3" y="3"><path d="m0 501q0-215 141-356t356-141 356 141 141 356q0 182-103 313t-280 171q-9-17-34-52t-35-56q64 26 86 26 16 0 16-50 0-93-17-93-25 0-97 55 0-14-15-12h-5q-26-69-26-123 0-15 3-30 92 45 148 45 31 0 94-18t63-39q0-13-17-13-26 0-75 7t-75 7q-27 0-60-14t-33-38q0-5 2-8t5-3 6 0 8 1 9 1q9 0 26 3t25 3q31 0 127-37t96-57q0-12-19-17t-35-5q-14 0-42 8t-61 18-44 14q4-20 4-32 0-47-25-110t-58-93q-27-24-72-33-28-36-88-66t-106-30q-9 0-28 4t-24 5l-22 31 6 1q7 0 22-2t22-2q34 0 78 14-28 14-49 19-2 1-13 3t-19 3-14 6-7 12q56-6 84-6 38 0 60 7-77 9-119 53t-42 121q0 27 4 50 19 120 73 358 33 154 37 170l1 4q-160-50-251-186t-91-308z m283-124q0 6 3 12-1-16 18-28t36-12q8 0 20 5-10-13-29-13-17 0-33 10t-16 27z m33 75q0-13 11-24t24-11 24 11 11 24-11 24-24 11-24-11-11-24z m40-11q0 8 9 8t9-8q0-9-9-9t-9 9z m168-87q8-13 37-13 13 0 33 10-10-22-35-22-31 0-35 25z m23 78q0-12 9-21t20-9q12 0 21 9t9 21q0 11-9 20t-21 9q-11 0-20-9t-9-20z m35-10q0 8 7 8 8 0 8-8 0-7-8-7-7 0-7 7z"/></svg><svg viewBox="0 0 1294 1000" id="aim" width="24" height="19" x="33" y="6"><path d="m0 418q0-105 53-188t137-132 181-74 195-25q29 0 43 1 115 6 226 41 87 28 166 75t147 109 108 147 41 176q0 13-1 19-11 152-121 256t-269 147q-107 30-229 30h-8q-201 0-315-53-6-2-7-6 0-2 3-2 1 0 4 1t4 1q50 12 89 12 24 0 47-5t44-20 21-40q0-12-6-24-9-16-59-34t-114-34-76-20q-80-26-139-66 0-1 4-10t6-15 7-12 9-6h179q9 0 17 22t21 44 36 22q18 0 31-12t13-30q0-11-84-199t-106-231q-6-15-16-15-8 0-13 9l-3 6q-8 15-52 114l-107 238-7 15q-95-109-95-234z m218 166q0-10 54-129l5-3q6 0 33 64t27 70q0 4-5 4h-108q-5 0-5-5z m307 123q0 45 47 45t47-45v-388q0-45-47-45t-47 45v388z m185 0q0 45 47 45t47-45v-181l92 185q13 29 41 29 32 0 46-29l91-185v181q0 45 47 45 48 0 48-45v-388q0-45-47-45-35 0-47 29l-138 302-133-302q-14-29-48-29-46 0-46 45v388z"/></svg><svg viewBox="0 0 1009 1000" id="delicious" width="24" height="24" x="63" y="3"><path d="m0 1000v-501h501v501h-501z m509-499v-501h500v501h-500z"/></svg><svg viewBox="0 0 974 1000" id="paypal" width="23" height="24" x="93" y="3"><path d="m0 891l194-891h438q50 0 97 18t85 56 53 95-1 135q-29 136-129 214t-234 78h-183l-63 296h-257z m100 109h257l63-295h184q134 0 233-78t129-214q28-135-43-219 33 74 12 170-29 136-129 214t-234 78h-183l-63 295h-216z m257-575h83l42-183h125q2 0 17 3-8-29-32-47t-56-18h-125z m125-1q48-2 90-37t53-84q0-2 1-6t1-6h-114z"/></svg><svg viewBox="0 0 959 1000" id="flattr" width="23" height="24" x="123" y="3"><path d="m0 887v-514q0-179 85-278t260-99h548q-5 5-53 53t-100 101-109 110-95 93-42 37q-15 0-15-16v-156h-48q-59 0-95 7t-63 26-39 57-12 96v262z m67 117q5-5 53-53t100-101 109-110 95-93 42-37q15 0 15 16v156h48q116 0 162-36t46-150v-262l224-223v514q0 179-85 278t-260 99h-548z"/></svg><svg viewBox="0 0 920 1000" id="android" width="22" height="24" x="154" y="3"><path d="m0 649v-269q0-26 19-45t44-19q26 0 45 19t19 45v269q0 26-19 45t-45 19-45-19-19-45z m173 100v-418h574v418q0 26-19 45t-45 19h-448q-26 0-45-19t-19-45z m0-465h574q0-115-85-189t-202-74-202 74-85 189z m101-316q0-8 7-8 3 0 7 2l49 89-15 8q-48-88-48-91z m15 807q0-27 19-45t47-18q25 0 44 19t19 44v202q0 28-19 46t-47 18q-26 0-45-19t-19-45v-202z m5-620q0-16 12-28t28-12 28 12 12 28q0 17-12 29t-29 12q-16 0-28-12t-12-28z m208 620q0-27 20-45t47-18q26 0 45 19t19 45v202q0 28-19 46t-47 18q-26 0-45-19t-19-45v-202z m45-620q0-16 12-28t28-12 28 12 12 28q0 17-12 29t-28 12-28-12-12-28z m36-104q2-3 14-29t24-44 19-19 7 9v2l-48 89z m211 598v-268q0-26 19-45t45-19 45 19 19 45v268q0 26-19 45t-45 19-45-19-18-45z"/></svg><svg viewBox="0 0 824 1000" id="eventful" width="20" height="24" x="185" y="3"><path d="m0 499q0-107 29-202 28-92 83-159 56-67 135-102 81-36 178-36 128 0 217 61 90 59 136 157 46 95 46 196 0 93-47 120t-132 27h-423q0 85 30 148 29 65 76 96 50 33 106 33 41 0 71-10 31-10 62-33 31-22 56-47t66-69q15-16 47-16 34 0 54 21 21 21 21 58 0 32-23 78-21 43-70 85-46 41-116 68-71 27-161 27-209 0-325-135-116-136-116-366z m222-78h392q-7-125-60-188-51-62-136-62-82 0-133 63-52 63-63 187z"/></svg><svg viewBox="0 0 1000 1000" id="smashmag" width="24" height="24" x="213" y="3"><path d="m0 238q0-25 16-46t41-27l197-47q-63 72-63 168 0 185 253 283 28 11 54 25t55 34 46 47 18 56q0 43-35 67t-80 24q-58 0-121-23t-105-61l-79 179q56 31 144 61-10 2-32 9t-39 10-32 4q-25 0-46-16t-27-41l-164-687q-2-12-2-18z m419 46q0-38 35-59t76-21q49 0 110 18t88 47l61-170q-90-48-186-63 2 0 45-12t72-18 43-6q25 0 46 16t27 41l164 687q2 12 2 18 0 25-16 46t-41 27l-145 34q47-70 47-152 0-111-71-183t-185-110q-171-58-171-140z"/></svg><svg viewBox="0 0 1184 1000" id="gplus" width="24" height="20" x="243" y="5"><path d="m0 818q0-87 89-155t215-68h54q-42-40-42-86 0-29 16-58-10 1-29 1-104 0-170-65t-66-160q0-91 82-159t187-68h310l-69 50h-98q47 18 74 68t27 111q0 93-88 162-37 29-48 46t-11 42q0 19 27 48t54 49q61 43 85 88t24 113q0 90-82 157t-222 67q-133 0-225-50t-92-132z m112-33q0 69 59 118t146 49q119 0 173-44t54-117q0-19-4-32-3-11-7-21t-12-19-14-16-20-17-21-15-25-18-26-18q-39-12-77-12-90-1-158 47t-68 114z m66-559q11 79 61 136t110 58q59 2 94-52t25-133-60-134-110-57-95 51-25 131z m555 24v-50h200v-200h50v200h201v50h-201v201h-50v-201h-200z"/></svg><svg viewBox="0 0 1106 1000" id="wikipedia" width="24" height="22" x="273" y="4"><path d="m0 173v-21l2-2h249l2 2v20q0 8-10 8l-26 1q-33 1-33 20 0 13 7 28 50 122 222 484l6 1 111-221q-13-30-22-49l-76-150-20-40q-26-51-34-61t-33-14q-14-2-14-7v-21l3-2h197l5 1v21q0 8-10 8l-15 2q-13 2-19 5t-6 12 4 18 15 31l73 150 81-162q16-32 5-43-6-8-37-11l-9-1q-4 0-7-3-3-1-3-6v-19l3-2q57-1 186 0l2 2v20q0 8-9 8-22 1-31 5t-17 16q-23 34-30 48l-105 196-3 7 128 262 8 3 202-481q12-28-3-41-13-12-39-13l-19-1q-3 0-6-3-4-2-4-6v-20l3-2h229l2 2v20q0 7-9 9-46 2-66 19-20 16-34 49l-250 567q-10 23-23 31t-24-1-23-31q-38-75-122-263-105 216-131 264-41 71-71 1-32-75-130-285t-130-287q-16-42-28-52-11-10-52-13-14-2-14-7z"/></svg><svg viewBox="0 0 940 1000" id="lanyrd" width="23" height="24" x="304" y="3"><path d="m0 111q-1-11 6-21t14-17 24-16 27-13 33-14 35-15q54-22 97-16t54 35q25 67 103 320t116 362q268-88 326-105 16-6 38-4t33 23q23 47 33 99t1 75q-19 15-60 32t-76 29-90 29-74 23q-10 3-38 13t-53 19-58 19-61 18-54 12-45 4-26-9q-18-18-32-52t-29-87-19-66q-42-125-113-339t-104-313q-6-13-7-24z"/></svg><svg viewBox="0 0 776 1000" id="calendar" width="19" height="24" x="6" y="33"><path d="m0 952v-775h92q0-29 1-39t4-32 12-30 25-17 41-8 41 8 24 16 12 31 4 32v39h55v-39t4-32 12-31 24-16 41-8q18 0 31 4t22 9 15 17 9 19 4 25 2 25v28h54v-28t2-25 4-25 9-19 15-17 22-9 31-4q24 0 41 8t24 16 12 31 4 32v39h92v775h-776z m65-177v112h139v-112h-139z m0-22h139v-119h-139v119z m0-141h139v-130h-139v130z m0-151h139v-112h-139v112z m71-203q0 33 37 33t37-33v-130q0-33-37-33t-37 33v130z m89 517v112h152v-112h-152z m0-22h152v-119h-152v119z m0-141h152v-130h-152v130z m0-151h152v-112h-152v112z m126-203q0 33 37 33 38 0 38-33v-130q0-33-38-33-37 0-37 33v130z m47 517v112h152v-112h-152z m0-22h152v-119h-152v119z m0-141h152v-130h-152v130z m0-151h152v-112h-152v112z m168-203q0 33 38 33 37 0 37-33v-130q0-33-37-33-38 0-38 33v130z m5 517v112h140v-112h-140z m0-22h140v-119h-140v119z m0-141h140v-130h-140v130z m0-151h140v-112h-140v112z"/></svg><svg viewBox="0 0 1309 1000" id="stumbleupon" width="24" height="18" x="33" y="36"><path d="m0 707v-181h224v179q0 28 20 49t49 21 50-20 21-49v-423q0-117 87-200t206-83 206 83 87 201v92l-134 40-89-42v-80q0-29-20-49t-49-20-50 20-21 49v417q0 120-86 205t-206 85q-121 0-207-86t-86-208z m724 3v-183l89 42 134-40v184q0 29 20 50t49 21 49-21 20-50v-187h224v181q0 121-86 207t-207 86-207-85-86-205z"/></svg><svg viewBox="0 0 1262 1000" id="fivehundredpx" width="24" height="19" x="63" y="35"><path d="m0 614h119q5 40 30 64t65 24q48 0 77-33t29-82q0-48-28-79t-75-31q-38 0-65 25t-51 25q-53 0-80-2 9-52 29-161t29-165h330v98h-243q-14 71-24 134h3q17-21 51-32t66-11q113 0 160 103 24-60 72-94t111-34q49 0 91 20t66 42 63 66q3 3 5 5t4 5l5 5q35-40 50-56t46-41 62-35 70-10q90 0 145 61t55 152q0 93-55 156t-147 63q-116 0-226-131-7 7-39 39t-43 40-37 26-52 23-58 6q-63 0-111-33t-74-92q-62 128-203 128-95 0-157-48t-62-139z m515-30q0 42 26 68t68 26q75 0 155-95-34-35-48-49t-48-33-64-20q-39 0-64 31t-25 71z m389 0q27 29 46 46t49 33 62 16q43 0 68-28t25-71q0-42-26-70t-68-28q-25 0-49 12t-37 22-38 36-32 33z"/></svg><svg viewBox="0 0 774 1000" id="pinterest" width="19" height="24" x="96" y="33"><path d="m0 359q0-63 27-125t76-115 130-86 179-33q159 0 261 98t102 231q0 171-87 283t-224 112q-45 0-85-21t-56-51l-40 158q-5 19-13 39t-18 38-19 34-19 30-17 24-13 17l-6 8q-3 4-8 3t-6-6q0-1-2-14t-3-28-3-38-1-45 3-48 8-48q11-47 74-313-8-16-13-39t-5-37l-1-15q0-64 33-107t79-43q37 0 58 25t21 62q0 23-9 57t-23 77-20 71q-10 45 18 78t74 33q79 0 131-90t52-217q0-97-63-159t-176-62q-126 0-205 81t-79 194q0 67 38 113 13 15 8 32-2 5-6 23t-6 23q-2 11-10 15t-18-1q-59-24-89-83t-30-137z"/></svg><svg viewBox="0 0 1001 1000" id="bitcoin" width="24" height="24" x="123" y="33"><path d="m16 379q33-132 126-228t221-133 260-4 228 126 133 221 4 260-126 228-221 133-260 4-228-126-133-221-4-260z m228 271l72 18q7 1 20 5t19 5l-23 91 55 14 22-90q6 2 21 6t23 6l-22 90 55 13 22-91q48 8 86 8t66-21 43-61q32-90-51-133 60-13 70-80 13-86-110-126l23-91-55-13-22 88q-8-2-23-6t-21-6l22-88-55-14-22 90q-15-2-35-8l-76-19-14 59 39 9q28 7 26 32l-26 103q2 0 6 2-1-1-3-1t-3-1l-36 144q-5 18-25 13l-40-10z m183-23l30-121q1 0 20 4t28 7 28 9 29 13 21 17 15 22-1 28q-3 11-9 19t-15 12-19 7-23 3-24-2-24-4-22-5-20-5-15-4z m44-176l27-110q3 1 13 3t17 4 18 5 19 7 18 9 15 11 12 14 6 17-2 20q-3 13-11 22t-19 12-23 5-27-1-24-4-23-6-17-4z"/></svg><svg viewBox="0 0 1125 1000" id="w3c" width="24" height="21" x="153" y="34"><path d="m0 203h77l107 363 72-244-35-119h77l107 363 107-363h290v36l-109 188q58 20 86 67 30 50 30 114 0 82-43 137t-112 55q-51 0-90-33-39-34-56-89l60-25q13 34 35 54 20 19 51 19t52-34q22-34 22-84 0-52-23-83-27-34-83-34h-30v-36l103-178h-124l-7 12-152 511h-7l-110-370-111 370h-7z m818 417l18 50q15 33 33 58 42 58 94 67 45 9 88-18 19-12 35-31 20-20 28-36 4-7 11-20l-11-59q-8 16-16 28t-12 17l-4 4q-34 37-61 49-33 15-68 11-27-2-60-24-36-31-43-43-13-18-32-53z m27-195q0-84 33-146 16-30 38-48t43-20q35-4 70 26 18 15 37 50l44-87 12 76-44 85q-8-16-19-30t-18-20l-8-6q-31-22-64-15-24 5-48 30t-35 59q-19 55-19 106-1 40 5 63-12-22-19-53t-7-51z"/></svg><svg viewBox="0 0 1169 1000" id="foursquare" width="24" height="21" x="183" y="35"><path d="m0 440q0-105 77-180t185-75q85 0 153 48t95 124l66-64 158 152 437-446v405l-267 206 34 36-363 353-316-307q-107-2-182-76t-75-177z m37 0q0 90 65 153t157 63q33 0 65-9l220 195 585-460 1-302-578 596-90-146q20-43 20-90 0-89-66-153t-158-64-157 64-65 153z m48 2q0-70 50-120t120-50 120 49 50 120q0 70-50 120t-120 50-120-50-50-120z"/></svg><svg viewBox="0 0 699 1000" id="html5" width="17" height="24" x="217" y="33"><path d="m0 201h699l-66 710-284 81-284-81z m65-60v-133h45v44h40v-44h44v133h-44v-44h-40v44h-45z m65 205l24 266 1-2h300l-10 113-96 27-97-28-6-68h-88l12 136 179 51 179-51 25-267h-319l-8-89h335l8-88h-439z m84-293v-45h122v45h-39v88h-44v-88h-39z m141 88v-133h47l27 46 28-46h47v133h-43v-68l-32 50v-1l-30-47v66h-44z m172 0v-133h44v88h62v45h-106z"/></svg><svg viewBox="0 0 943 1000" id="ie" width="23" height="24" x="244" y="33"><path d="m1 852q-3-36 7-60 39-140 92-239 114-216 313-352v-14q-59 25-119 66t-102 81-76 78-51 60l-17 23q-2-59 16-115t45-94 55-67 47-43l19-13q4-2 11-6t28-14 44-19 55-17 64-12 70-2 74 12q64-47 129-73t98-29l33-3q50-5 78 17t31 55-1 68-12 60l-9 24-5-5q21-57 21-94t-18-57-37-29-37-10l-16-2q-4 0-12 1t-32 5-49 13-61 25-69 41q69 11 123 42t86 71 55 85 31 89 13 78 4 56l-1 22h-557q-3 42 11 73t34 46 41 23 36 9l15 1q4 0 12-1t27-6 35-14 31-29 22-47h292q-16 59-47 107t-68 78-78 51-79 32-68 16-49 7h-19q-78 0-107-6-60 47-127 74t-104 30l-36 3q-46 0-78-24t-42-56-13-68z m76-6q-1 24 3 43t8 29l4 9q4 3 11 8t34 14 57 8 82-17 108-50q-8-2-22-6t-51-18-69-32-67-48-54-65q-22 34-33 67t-12 57z m283-424h265q1-36-12-63t-32-39-39-19-33-8l-14-1q-6 0-15 1t-33 8-42 19-33 39-14 63z"/></svg><svg viewBox="0 0 800 1000" id="call" width="19" height="24" x="275" y="33"><path d="m2 257q2-17 15-32l120-120q14-12 21 4l97 182q8 16-5 31l-44 44q-12 12-14 31 0 30 31 77t61 80l31 32q14 14 36 35t73 54 80 34q19 0 32-13l52-52q14-14 30-4l175 103q7 4 8 11t-4 12l-120 120q-15 13-32 15-49 7-111-14t-114-55-98-69-72-60l-26-25q-10-10-27-28t-58-69-71-101-52-112-15-112z"/></svg><svg viewBox="0 0 1000 1000" id="grooveshark" width="24" height="24" x="303" y="33"><path d="m0 500q0-136 67-251t182-182 251-67 251 67 182 182 67 251-67 251-182 182-251 67-251-67-182-182-67-251z m129 0q0 65 36 77 5 2 17 4 42 1 85-40 41-36 58-90 25-77 10-200-2-12-2-17-3-6 0-9 1-3 13 1 38 10 78 29 46 21 102 70 45 39 87 89 33 39 80 104 41 57 88 77 29 10 48 7t29-20 15-37 5-45q0-48-12-96-3-12-8-28-14-43-41-84-52-79-136-124t-178-45q-66 0-125 22-80 28-141 89t-89 142q-1 5-4 15t-5 14q-12 50-11 96z"/></svg><svg viewBox="0 0 1220 1000" id="ninetyninedesigns" width="24" height="20" x="3" y="65"><path d="m0 140q-1-5 3-10t9-6q11-2 31-7t28-7q0-17 1-50t1-49q2-12 13-12 14 0 14 14-2 60-2 91 11-2 35-7t35-8q18-4 55-10t56-10q402-69 794-72 6 0 10 5t3 11q0 11-2 33t-2 33q42 3 128 11 5 0 9 5t3 10q-23 137-68 412t-68 413q50 8 76 12 8 1 11 8t-1 13-10 6h-3q-13-2-39-7t-39-7q-1 12-5 31-2 9-10 11-1 1-4 1h-4q-297-75-600-117-100-2-149-2-55 0-165 2v1q1 1 1 2 1 6-4 11t-11 5q-11 0-12-11 0-5-2-16t-3-17h-13q-8 0-11-7t1-14 12-7h8l-6-54q-6-40-25-195t-36-252-43-191z m30 8q21 78 43 201-3-70-3-209-16 2-40 8z m67 91q1 193 21 424 3 40 11 109 1 9 3 19t4 22 3 19q67 3 192 13t182 13q354 20 483 35 11-160 33-455t30-411q-468 4-960 107-1 53 0 105z m92 163q0 68 43 111t109 43q69 0 109-43h2q-13 70-65 111-41 33-101 38-40 4-52 2v75q35 0 57-2 107-8 171-68 87-82 87-233 0-94-47-154t-132-60q-78 0-129 53t-51 126z m94-6q0-45 23-74t59-29h1q43 0 65 36t21 91q0 16-5 26-26 42-81 42-38 0-60-26t-22-66z m89 477l96 10 373 40q140 30 209 48l3-18q-55-9-165-25-249-35-516-55z m192-471q0 68 43 111t108 43q69 0 110-43h1q-13 70-64 111-42 33-102 38-40 4-52 2v75q35 0 57-2 107-8 171-68 87-80 87-233 0-94-47-154t-131-60q-78 0-130 53t-52 126z m94-6q0-45 23-74t58-29h1q43 0 65 36t21 91q0 16-5 26-26 42-81 42-38 0-60-26t-22-66z m357 524q28 4 43 6 20-120 65-392t69-417q-13-1-36-3t-42-4-36-3q-6 85-27 367t-31 436q0 5-4 9-1 0-1 1z"/></svg><svg viewBox="0 0 834 1000" id="forrst" width="20" height="24" x="35" y="63"><path d="m0 1000l417-1000 417 1000h-369v-135l170-85-13-55-157 79v-67l98-52-14-57-84 45v-87h-92v157l-86-59-16 64 102 70v182h-373z"/></svg><svg viewBox="0 0 1122 1000" id="digg" width="24" height="21" x="63" y="64"><path d="m0 698v-372q0-13 13-13h176v-129q0-14 13-14h98v514q0 14-12 14h-288z m109-83h67q13 0 13-14v-206h-67q-13 0-13 14v206z m225 83v-372q0-13 13-13h98v371q0 14-12 14h-99z m0-445v-69q0-14 12-14h99v69q0 14-12 14h-99z m149 445v-372q0-13 13-13h288v504q0 13-13 13h-288l1-69q0-14 12-14h176v-49h-189z m110-83h67q12 0 12-14v-206h-67q-12 0-12 14v206z m229 146q0-14 13-14h176v-49h-189v-372q0-13 13-13h287v504q0 13-12 13h-288v-69z m109-146h67q13 0 13-14v-206h-67q-13 0-13 14v206z"/></svg><svg viewBox="0 0 1000 1000" id="spotify" width="24" height="24" x="93" y="63"><path d="m0 500q0-136 67-251t182-182 251-67 251 67 182 182 67 251q0 101-38 192t-107 160q-60-73-146-114t-183-41q-107 0-199 50t-151 135q-83-71-130-170t-47-211z m164-144q0 17 12 30t30 13q6 0 9-1 144-58 298-58t298 58q1 0 4 1t5 1q17 0 30-13t13-30q0-25-23-37-159-63-326-63-170 0-329 64-20 13-20 36z m46 149l6 16q8 13 23 13 3 0 9-2 127-55 265-55 139 0 267 56 4 2 7 2 15 0 23-13l5-17q0-13-10-21-138-62-292-62-153 0-293 62-10 10-10 21z m48 144q10 25 31 16 108-51 224-51 112 0 219 48 24 13 35-12 5-13 0-23t-14-15q-106-53-240-53-128 0-244 55-19 10-11 35z m61 317q37-48 92-76t117-28q114 0 193 86-104 52-220 52-94 0-181-34z"/></svg><svg viewBox="0 0 1205 1000" id="reddit" width="24" height="20" x="123" y="65"><path d="m0 497q0-62 50-106t113-44q62 0 105 36h5q134-82 335-82l5-4 70-267 242 36q0 1 2 1 1 0 0-1 2-1 12-16t15-19q34-32 82-32 49 0 83 33t34 82-34 84-83 35q-57 0-87-39t-30-97q-2 1-98-13t-110-17h-3q-2 2-17 54t-30 109-18 64v3l5 4q72 0 148 21t131 58l3 2q1-1 2-1t2-1q25-18 36-25t30-13 43-6q68 0 116 48t48 117q0 47-27 86t-70 60q0 195-260 303-41 18-56 23-32 10-91 19t-93 9q-120 0-231-35-2-2-72-38-95-51-153-116t-58-156h-5q-33-17-59-50l-9-12q-15-27-19-46t-4-51z m34 12q0 66 57 112 5-59 48-116t101-101q-37-26-82-26-49 0-87 41t-38 91z m102 146q0 54 31 104t80 86 103 60 105 34q75 14 146 14 123 0 233-40t185-123h-3q30-38 43-69t13-73q0-54-27-103t-70-84-92-61-100-39q-85-23-181-23-74 0-152 18t-150 54-119 100-46 144z m186-73q0-37 23-60t60-23 62 23 25 60q0 36-26 60t-62 24-59-24-23-60z m36 164h44q25 45 80 69t112 24q58 0 110-24t84-69h41q-25 62-93 96t-142 34q-72 0-142-35t-94-96z m336-164q0-38 23-60t61-22q34 0 58 24t24 58-24 59-58 25q-37 0-61-24t-24-61z m255-468q0 35 25 60t60 25q36 0 59-25t23-61q0-34-24-58t-58-24-60 25-26 58z m14 281q55 36 95 93t56 120q59-43 59-96 0-58-36-100t-93-42q-45 0-82 26z"/></svg><svg viewBox="0 0 760 1000" id="guest" width="18" height="24" x="156" y="63"><path d="m0 742q0-22 12-64 23-87 87-158t148-103q-79-63-79-161 0-86 63-146t149-60 149 60 63 146q0 97-77 160 106 38 177 127t71 198q0 92-73 106-3 10-13 26-6 16-24 29t-49 21-50 12-57 9-39 5q-2 0-7 1t-7 1h-120q-51 0-129-17t-89-45q-17-17-25-42-25-5-42-21-38-15-38-84z"/></svg><svg viewBox="0 0 764 1000" id="gowalla" width="18" height="24" x="186" y="63"><path d="m0 512v-103q0-87 86-200t171-160q78-44 187-44 44 0 89 10t86 31 67 58 26 85q0 13-2 25t-7 24-9 21-14 21-14 19-18 20-17 17-19 18-18 16h168q2 72 2 108 0 253-42 326-35 61-95 108t-128 70q-39 15-56 15h-84q-3 0-48-17-120-53-120-174 0-4 1-11t1-10q-134-69-180-215-13-42-13-56z m146-130q0 40 10 81t29 79 53 62 77 24q12 0 40-15t50-15q14 0 51 11t37 20q0 21-26 21-130 0-130 76 0 58 42 88t103 30q47 0 92-17t73-50q42-50 42-164 0-19-1-56t-1-55q0-48 5-80h-193q-1 8-1 23 0 11 1 34t1 35q0 35-8 56-5 1-17 1-48 0-80-33t-44-75-12-89q0-45 12-91t43-84 78-38q10 0 21 3-4 22-4 34 0 35 19 58t53 23 57-23 23-58q0-41-31-70t-70-40-79-11q-135 0-223 85t-88 219z"/></svg><svg viewBox="0 0 860 1000" id="appstore" width="21" height="24" x="215" y="63"><path d="m1 499q-1 18-1 36 0 68 20 144 26 97 83 184 89 136 172 137 30 0 78-21t95-21h4q46 0 91 20 47 22 76 22 49-1 91-41t85-104q31-48 65-121-50-19-85-57t-48-85q-10-35-9-70v-24q4-48 34-92t79-71q-38-48-89-75t-103-27q-48 0-106 22t-86 22q-30 0-91-22t-102-22q-58 0-115 34t-96 93q-37 56-44 139z m415-258q-3-15-3-30 0-65 53-129 27-33 70-56t83-26q2 15 2 30 0 69-50 132-28 36-70 58-41 22-80 21h-4z"/></svg><svg viewBox="0 0 996 1000" id="blogger" width="24" height="24" x="243" y="63"><path d="m0 685v-369q0-130 93-223t223-93h221q65 8 139 57t105 115q1 2 5 10t5 10 4 10 4 13 4 16 4 22 4 29q9 70 26 85 14 13 71 15t65 8l14 11 8 17 3 14-2 256q-1 130-93 223t-222 93h-363q-130 0-223-93t-93-223z m259-5q0 25 18 43t43 18h356q25 0 43-18t18-43-18-43-43-18h-356q-25 0-43 18t-18 43z m0-362q0 25 18 43t43 18h175q25 0 43-18t18-43-18-43-43-18h-175q-25 0-43 18t-18 43z"/></svg><svg viewBox="0 0 1000 1000" id="cc" width="24" height="24" x="273" y="63"><path d="m0 500q0-98 38-191 37-90 110-163 144-146 351-146 209 0 357 146 71 71 107 162 37 89 37 192 0 104-36 192-36 89-107 159-74 72-166 111-94 38-192 38-97 0-190-38-89-37-162-110t-110-162-37-190z m90 0q0 79 32 155 31 75 91 133 60 60 133 89 72 31 155 31 81 0 156-31 74-31 136-90 117-114 117-287 0-85-31-157-30-76-88-132-120-121-290-121-171 0-288 120-59 59-91 134-32 76-32 156z m125 0q0-71 42-113 41-42 105-42 92 0 133 72l-67 35q-11-24-27-31-15-9-29-9-67 0-67 88 0 39 17 64 18 24 50 24 44 0 62-42l62 31q-21 36-55 57-35 21-77 21-67 0-108-41t-41-114z m289 0q0-71 42-113t105-42q93 0 132 72l-66 35q-11-23-26-31-17-9-30-9-67 0-67 88 0 41 17 64 17 24 50 24 43 0 61-42l63 31q-22 37-56 57-35 21-75 21-69 0-109-41-41-41-41-114z"/></svg><svg viewBox="0 0 1000 1000" id="dribbble" width="24" height="24" x="303" y="63"><path d="m0 500q0-136 67-251t182-182 251-67 251 67 182 182 67 251-67 251-182 182-251 67-251-67-182-182-67-251z m83 0q0 156 105 275 48-94 152-179t203-107q-15-35-29-63-172 55-372 55-39 0-58-1 0 4-1 10t-1 10z m13-103q22 2 65 2 167 0 317-45-76-135-167-225-79 40-136 111t-80 157z m149 432q113 88 255 88 74 0 147-28-20-171-78-331-92 20-186 101t-139 170z m153-732q88 91 163 227 136-57 205-145-116-96-266-96-51 0-102 14z m199 298q15 32 34 81 74-7 161-7 62 0 123 3-8-136-98-242-65 97-220 165z m59 151q51 148 69 304 79-51 129-131t60-173q-73-5-133-5-55 0-125 5z"/></svg><svg viewBox="0 0 837 1000" id="evernote" width="20" height="24" x="5" y="93"><path d="m0 309q0-40 15-58 9-14 26-21 18-9 47-9h94q15 0 26-11t11-26q0-21-1-44v-59q0-25 12-44 15-21 50-31 11-6 53-6h19q59 2 98 17 38 16 45 62 26-1 48-1 53 0 89 5 97 12 129 24 42 13 53 67 10 55 18 210 5 89 5 147 0 44-3 71-16 172-43 254-14 42-28 69t-28 43-37 23-43 9-59 2q-108 0-146-26t-38-107q0-45 10-72t33-38 47-13q15-1 40-1h28q4 0 6 2t1 5-3 8-3 11-2 13q0 9 2 19t1 12-7 3h-20t-10 1-10 2-9 3-8 4-6 6-4 9-1 12q0 14 4 23t8 14 18 7 22 2h33q57 0 73-14t16-64q0-76-19-103t-57-32q-88-9-119-20-53-20-53-119 0-2-3-2t-3 2q0 67-18 120l-8 24q-11 25-37 26h-6q-24 0-54-8-127-16-198-47-24-11-37-40-17-35-36-129t-24-134q-4-33-4-51z m6-119v-2l183-180q0-1 1-1l-3 6q-11 20-11 48 0 22 1 103 0 10-10 10h-93q-34 0-59 11-5 3-9 5z m568 290q21-3 46-3 45 1 81 18 0-85-61-87h-3q-30 0-44 20-15 21-19 52z"/></svg><svg viewBox="0 0 1052 1000" id="flickr" width="24" height="23" x="33" y="94"><path d="m0 500q0-104 73-177t177-73 177 73 73 177-73 177-177 73-177-73-73-177z m552 0q0-104 73-177t177-73 177 73 73 177-73 177-177 73-177-73-73-177z"/></svg><svg viewBox="0 0 646 1000" id="google" width="16" height="24" x="67" y="93"><path d="m0 818q0-87 89-155t215-68h54q-42-40-42-86 0-29 16-58-10 1-29 1-104 0-170-65t-66-160q0-91 82-159t187-68h310l-69 50h-98q47 18 74 68t27 111q0 93-88 162-37 29-48 46t-11 42q0 19 27 48t54 49q61 43 85 88t24 113q0 90-82 157t-222 67q-133 0-225-50t-92-132z m112-33q0 69 59 118t146 49q119 0 173-44t54-117q0-19-4-32-3-11-7-21t-12-19-14-16-20-17-21-15-25-18-26-18q-39-12-77-12h-4q-87 0-153 47-68 48-68 114z m66-559q11 79 61 136t110 58h4q56 0 90-52 27-42 27-99 0-16-2-34-10-79-60-134t-110-57h-4q-57 0-91 51-27 41-27 98 0 16 2 33z"/></svg><svg viewBox="0 0 879 1000" id="viadeo" width="21" height="24" x="94" y="93"><path d="m0 633q0 147 101 257t260 110q158 0 259-110 101-108 101-257 0-78-27-146-40 25-85 34 22 51 22 114 0 76-36 142-37 66-99 101-62 36-135 36-75 0-136-36-63-37-98-101-37-65-37-142 0-117 80-202 80-83 191-83 51 0 98 19 4-39 27-86-57-21-125-21-160 0-266 118-95 107-95 253z m280 253l56 4q74-47 125-109t73-124 31-126q6-41 6-80 0-21-2-40-5-55-13-99t-16-69l-9-25q-22-68-44-119t-32-67l-11-17q39 20 63 48 23 29 28 53 4 20 4 39v7q-1 22-6 35l-5 13q4 58 5 112 0 52-5 102-9 100-31 167t-50 122-58 86-55 52-41 29z m275-637q4-40 23-64l18-25q12-14 39-27t48-19l21-6q36-8 67-35t44-51l13-23q41 57 49 129 4 32 3 57 0 34-6 59l-11 45q-12 33-34 60t-37 37l-15 11q-34 20-67 20l-109-53q58-32 101-65t64-58 33-45 15-31l2-10q-18 40-49 73t-62 52-61 33-47 19l-18 5q-25-44-25-79 0-5 1-10z"/></svg><svg viewBox="0 0 489 1000" id="instapaper" width="12" height="24" x="129" y="93"><path d="m0 967q102-6 130-27 30-21 30-107v-666q0-82-30-106-28-23-130-28v-28h489v28q-102 4-131 28-30 24-30 106v666q0 86 30 107t131 27v28h-489v-28z"/></svg><svg viewBox="0 0 1235 1000" id="weibo" width="24" height="19" x="153" y="95"><path d="m0 672q0-161 184-347 117-116 236-162 56-23 97-23 45 0 72 27 26 26 26 72 0 31-12 72-4 14 3 18t16 1l10-4q96-40 170-40t106 42q15 22 15 52 0 31-16 71-7 10-3 17t8 9 15 5q62 19 106 62t44 107q0 59-41 121t-112 113-178 84-229 33q-131 0-248-39t-194-115-77-175z m125 48q10 101 125 161 92 49 209 49 29 0 60-3 153-15 255-97 92-75 92-165 0-9-1-18-10-100-125-160-93-49-210-49-29 0-59 3-101 10-183 51t-126 101q-38 53-38 109 0 9 1 18z m160 62q-13-29-13-59 0-35 18-70 31-64 104-96 45-20 91-20 27 0 54 7 76 20 109 82 17 32 17 66 0 32-15 65-31 71-109 104-44 19-88 19-34 0-67-11-73-23-101-87z m56-19q6 25 30 35 13 6 27 6 12 0 24-4 28-9 43-33 10-16 10-32 0-7-3-15-6-24-30-34-13-5-26-5-12 0-25 4-27 9-41 32-11 16-11 33 0 7 2 13z m141-79q3 9 13 13 5 2 10 2t10-2q11-4 16-13t2-18-12-13q-9-3-20 1t-16 13q-3 6-3 12v6z m321-621q-1-5-1-10 0-13 8-25 10-16 29-21 34-7 68-7 51 0 100 15 83 27 143 93t78 153q7 35 7 68 0 51-16 98v1q-6 18-23 27-11 5-22 5-7 0-15-2-19-6-27-23-5-11-5-21 0-8 2-15v-1q11-34 11-70 0-23-4-48-13-62-56-109t-102-66q-35-10-70-10-24 0-49 5-5 1-10 1-14 0-26-8-16-11-20-30z m40 157q-1-5-1-10 0-10 6-21 9-14 26-18 19-4 37-4 67 0 115 53 29 33 38 75 3 17 3 33 0 24-8 48-5 16-20 23-9 5-18 5-7 0-13-2-16-5-24-20-4-9-4-18 0-7 2-13 4-14 4-26 0-28-21-50-22-26-54-26-10 0-20 2-5 1-9 1-11 0-21-7-14-9-18-25z"/></svg><svg viewBox="0 0 1086 1000" id="klout" width="24" height="22" x="183" y="94"><path d="m0 1000v-1000h257v371h229q85-123 257-371h286l-328 477q0 12 97 143t193 256l96 124h-343q-47-66-143-200t-143-201h-200v400h-257z"/></svg><svg viewBox="0 0 1036 1000" id="linkedin" width="24" height="23" x="213" y="93"><path d="m0 120q0-50 35-83t91-33q55 0 89 32 35 33 35 86 0 48-34 80-35 33-92 33h-1q-55 0-89-33t-34-83z m13 875v-668h222v668h-222z m345 0h222v-373q0-35 8-54 14-34 43-58t72-24q112 0 112 151v357h222v-383q0-148-70-225t-185-77q-129 0-201 111v2h-1l1-2v-95h-222q2 32 2 199t-2 469z"/></svg><svg viewBox="0 0 1341 1000" id="meetup" width="24" height="18" x="243" y="96"><path d="m0 460q0-35 2-105 24-8 48-8h18q17 23 40 70t31 61q2-7 8-37t10-43 11-37 16-41 20-31q28 5 46 5 6 0 11-1 24 54 46 163t39 155q-1 0-4-1l-3-1q-9 0-26 6t-22 7q-40-101-62-203-15 26-15 89t-11 88l-5-2q-8 0-22 2t-21 2h-18q-27-48-57-89-3 6-3 15t3 26 3 25l-1 12q-30 15-52 15-7 0-10-1-17-56-17-142z m355 76q0-27 8-58t28-57 47-27q10 0 28 5t23 6q9 40 9 81 0 28-6 55-12-4-38-5t-37-4q-5 20-5 37 0 21 10 37t30 16q9 0 26-5t26-5q17 0 23 14-42 16-82 16-46 0-68-30t-22-78z m58-28l8-1q3 0 8 2t7 2l7-3q2-14 2-22 0-18-5-40-22 25-27 62z m110 54q0-123 78-182 32 3 60 23-1 17-8 67-5 39-5 65v14q-20 2-29 2-8 0-43-5-5 12-5 23 0 22 17 38t39 16q26 0 41-23 18 6 21 17-22 21-63 21-37 0-70-20t-33-55z m56-43q4 6 14 6h9q9-19 9-49 0-13-6-39-3 8-10 25t-12 31-5 27z m99-19q-2-26 23-26 6 0 18 1t17 1q3-15 3-31 0-29-8-87t-8-87q0-43 10-72 5 3 27 6t41 25q-6 26-6 67 0 20 4 81 2 35 2 61 0 20-1 34h6q7 0 9-6t2-13 4-7q8 0 19 9t23 22 15 16q-9 7-41 9t-39 4q-1 12-1 36 0 16 1 33t2 38 1 33q-8 1-23 2t-22 2v-20q0-21-3-57-4-44-4-61-6-2-32-4t-38-10z m215-8q0-20 2-58 11 1 20 5t21 11 18 10l-1 27q0 59 9 116 19-7 31-23t17-42 6-42 2-45v-11q3 1 9 1 20 2 49 25 0 3 1 10t1 10q0 15-4 30t-8 22-15 25-14 23q-15 12-34 42-21 7-38 7-71 0-71-142z m200 108q7-6 24-10 0-3 1-9 4-35 7-57t13-59 22-60 36-40 53-18q34 0 76 24 17 37 17 75 0 66-47 119t-113 68q-2 32-2 48 0 73 18 117-8-2-37-2-15 0-22-2-9-21-17-96t-30-100z m90-25q39-10 66-48t27-79q0-30-15-56-23 21-40 56t-23 60-15 68z"/></svg><svg viewBox="0 0 1220 1000" id="vk" width="24" height="20" x="273" y="95"><path d="m0 196q10-8 25-12 14-4 25-4h9q10 0 24 1 22 1 32 1 6 0 38-2 16-1 29-1t23 1q20 2 32 8 6 3 13 13t12 19 12 26 10 22q38 82 94 163 2 3 7 11t9 13 9 12 11 11 11 9 12 6 12 0q28-5 31-117 1-19 1-35 0-74-15-102-6-11-16-18t-25-12-23-11q14-28 50-37t97-9h53t26 1 27 3l22 6t20 9 13 14q9 18 11 42 0 7 1 14 0 20-3 52-4 42-4 52-3 23-3 46 0 18 2 38 4 44 30 61 9-1 17-4t16-11 11-12 13-17 11-14q47-62 94-163l9-23t12-27 12-20 16-14q16-7 38-7h9q20 0 46 2 32 2 47 2 9 0 28-1t33-2 30 1 26 6 14 13q3 6 3 13 0 29-35 87-17 29-35 53t-46 58-37 47q-2 2-14 18t-18 24-12 23-5 27q0 8 3 15t10 15 10 12 14 13 12 11q71 65 112 117 40 52 40 75 0 33-51 41-26 4-53 4-21 0-43-3-20-2-37-2-26 0-45 5h-6q-66-11-139-94-4-4-17-21t-22-26-23-17-27-6q-23 4-31 29t-9 60-10 49q-13 24-79 24-28 0-66-4-78-8-142-40t-101-68-81-93q-104-133-197-322-3-6-11-23t-12-26-10-24-8-28-3-27z"/></svg><svg viewBox="0 0 1050 1000" id="plancast" width="24" height="23" x="303" y="94"><path d="m0 613q10-139 168-173 12-89 43-192t72-146q48-49 120-76t146-27q86 0 164 39t117 110q19 36 42 131t31 155q15 6 34 6 30 0 30-29 0-11-6-34t-5-36v-4h1q27 0 61 51 34 52 34 81 0 20-10 36t-19 25-33 18-33 11l-36 8q-5 1-8 2v26q0 173-77 253l25 25q4 2 25 12t36 19 19 18q-65 51-132 51-34 0-75-17-88 37-180 37-118 0-234-61-36 8-55 19-7 4-27 18t-37 24-28 10q-3-18-3-37 0-79 53-126-60-99-62-257l-7-1h-3q-30-1-76 17-48 18-64 19-4 0-10-2z m232 93q0 13 7 27 27 96 89 138 43 29 106 47t117 18q66 0 146-28t120-72q68-73 68-257 0-226-92-379-12-20-18-28t-19-16-33-8q-50 0-107 61-76-47-140-47-59 0-105 43t-71 105-42 141-22 141-5 115z m181-407q0-22 16-38t37-16q22 0 38 16t16 38-16 37-38 15q-21 0-37-15t-16-37z m56-18q0 12 12 12 5 0 9-4t4-9-4-9-9-4q-12 0-12 13z m94 60l2-2-1 3z m5-5l52-52 51 52q-22 7-50 7-29 0-53-7z m2 22q27 5 50 5 22 0 49-5l-49 49z m105-16v-3l1 2z m27-43q0-22 16-38t38-16 38 16 16 38-16 37-38 15-38-15-16-37z m56-18q0 5 4 9t8 4q5 0 9-4t4-9q0-13-13-13-5 0-9 4t-4 9z"/></svg><svg viewBox="0 0 863 1000" id="disqus" width="21" height="24" x="5" y="123"><path d="m0 982v-957q121-21 297-21 140 0 236 24t166 77q165 125 165 370 0 260-161 395-148 126-451 126-143 0-251-14z m220-162q19 4 77 4h4q153 0 240-85 89-86 89-256 0-154-82-232t-229-78q-66 0-100 9v638z"/></svg><svg viewBox="0 0 1000 1000" id="rss" width="24" height="24" x="33" y="123"><path d="m0 866q0-55 39-94t94-39 94 39 39 94q0 56-39 95t-94 39-94-39-39-94z m0-335v-191q179 0 331 89t241 241 89 331h-192q0-194-137-331-138-138-331-138z m0-339v-192q203 0 388 80t319 214 214 319 80 388h-192q0-164-64-314t-173-258-258-172-314-64z"/></svg><svg viewBox="0 0 986 1000" id="skype" width="24" height="24" x="63" y="123"><path d="m0 273q0-113 80-193t193-80q78 0 145 42 36-7 80-7 195 0 333 138t138 332q0 49-11 101 28 59 28 121 0 113-80 193t-193 80q-68 0-129-32-45 8-86 8-194 0-332-138t-138-333q0-47 9-94-37-65-37-138z m221 366q0 41 30 85 71 104 246 104 50 0 97-11t88-34 66-64 25-95q0-58-30-98t-74-58-96-33-96-23-74-26-30-45q0-33 37-49t75-16q40 0 66 13t38 30 21 35 25 30 40 13q27 0 48-19t21-46-15-54q-30-55-95-80t-138-25q-46 0-89 9t-83 29-65 57-25 87q0 66 40 107t97 57 115 29 98 34 40 59q0 29-23 49t-51 27-57 7q-38 0-65-11t-39-27-23-35-18-35-23-27-37-11q-28 0-49 17t-21 45z"/></svg><svg viewBox="0 0 1230 1000" id="twitter" width="24" height="20" x="93" y="125"><path d="m0 887q30 3 60 3 176 0 314-108-82-1-147-50t-89-125q20 4 47 4 35 0 67-9-88-17-146-87t-58-161v-3q53 30 115 31-52-34-83-90t-31-121q0-68 35-127 94 117 230 187t291 78q-7-33-7-58 0-104 74-178t179-74q109 0 184 80 87-18 160-62-28 91-110 140 73-9 144-40-48 75-125 131v33q0 101-30 203t-90 194-145 165-202 115-253 43q-209 0-387-113z"/></svg><svg viewBox="0 0 863 1000" id="youtube" width="21" height="24" x="125" y="123"><path d="m0 727q0-54 6-162 4-53 38-87t87-37q100-5 301-5t301 5q53 3 87 37t38 87q5 90 5 162t-5 162q-4 53-38 87t-87 37q-100 5-301 5t-301-5q-53-3-87-37t-38-87q-6-108-6-162z m67-141h61v326h59v-326h61v-55h-181v55z m65-603h60l38 152h4l36-152h60l-46 148q-23 73-23 75v158h-59v-151q-2-14-6-26t-9-27-9-25z m116 885q0 48 36 48 32 0 61-35v31h52v-281h-52v214q-21 21-31 21-14 0-14-19v-216h-52v237z m79-575v-146q0-34 22-53t56-19q33 0 54 20t21 53v145q0 36-20 57t-56 21q-35 0-56-22t-21-57z m54 7q0 23 22 23 23 0 23-25v-153q0-9-7-15t-16-6-16 6-7 15v156z m67 612h53v-21q20 25 50 25 47 0 47-62v-156q0-71-51-71-25 0-46 27v-123h-53v381z m53-53v-176q11-11 22-11 22 0 22 28v148q0 24-19 24-14 0-25-13z m23-539v-237h52v215q0 19 14 19 13 0 31-21v-213h52v281h-52v-31q-29 35-61 35-36 0-36-48z m114 513q0 38 19 63t57 25q78 0 78-87v-21h-54q0 2 1 14t-1 17-3 14-7 12-14 4q-23 0-23-40v-53h100v-72q0-38-19-60t-57-22q-36 0-58 23t-22 59v127z m54-99v-30q0-31 23-31t23 31v30h-46z"/></svg><svg viewBox="0 0 1146 1000" id="vimeo" width="24" height="21" x="153" y="125"><path d="m0 272q55-65 110-116t96-78 73-43 48-22l17-4q12-2 24-2 19 0 35 6 26 10 43 35t29 55 22 72 15 78 14 80 15 71q32 125 52 178t42 53q24 0 67-56t94-152q26-48 26-91 0-13-2-23-9-52-51-65-11-4-24-4-35 0-83 26 22-130 134-209 85-60 174-60 12 0 24 1 102 8 139 90 18 38 18 88 0 29-6 61-18 102-70 208t-113 188-133 155-124 117-91 69q-42 24-79 24t-70-21-56-48-38-57q-18-38-98-299t-97-281q-1-2-4-4t-14-5-24 0-37 14-50 33z"/></svg><svg viewBox="0 0 1233 1000" id="windows" width="24" height="19" x="183" y="125"><path d="m0 893l105-371q35-20 86-31t84-13l34-1q50 0 104 10 101 20 144 61l-104 370q-36-28-80-46t-69-21l-26-4q-34-3-65-3-16 0-43 2t-84 14-87 33z m126-477l105-371q35-20 86-32t84-13l33-1q51 0 104 10 101 20 144 61l-104 371q-36-28-80-46t-69-21l-26-4q-35-3-64-3-16 0-43 2t-84 13-88 33z m431 513l104-371q37 28 81 46t69 21l25 4q34 3 65 3 16 0 43-2t84-13 87-33l-104 371q-35 20-86 31t-84 12l-33 2q-51 0-104-10-101-20-145-61z m120-475l104-370q37 28 81 46t69 21l25 4q34 3 65 3 16 0 43-2t84-13 87-33l-104 370q-35 20-86 32t-85 13l-33 2q-52 0-103-11-101-19-145-61z"/></svg><svg viewBox="0 0 940 1000" id="xing" width="23" height="24" x="214" y="123"><path d="m0 698h219l173-286-130-229h-219l130 229z m362-90l346-608h232l-345 608 222 392h-232z"/></svg><svg viewBox="0 0 1375 1000" id="yahoo" width="24" height="17" x="243" y="126"><path d="m0 209l6 19q4 6 8 10t6 5l2 2 19 10h111l287 344q11 12 11 25v192q0 8-3 12t-6 5h-3q-112 0-142 3-10 0-10 9v55h516v-57q0-3-3-5t-5-2h-146q-9 0-9-15v-202q-1-3 2-7t6-7l3-3q11-11 264-249h133q9 0 18-7l17-19q6-7 6-18v-14q-1-3-3-5t-3-2h-438l-7 6q-1 6 2 13t6 10l2 4 23 23 18 7h115l-207 195-228-291h41q13 1 22-4l68-21q1 0 3-1t5-5 3-9v-14q0-3-2-5t-4-2h-492q-8 1-10 7v8z m1190-109l185 7-83 567-61-3z m13 763l4-110 110 4-4 110z"/></svg><svg viewBox="0 0 998 1000" id="chrome" width="24" height="24" x="273" y="123"><path d="m0 523q0-75 23-156t62-145q62-104 183-164t249-60q130 0 250 82t183 202q50 86 50 214 0 150-71 266t-192 177-270 60q20-36 61-110t74-131 65-108l1-2q3-5 12-19t13-20 10-17 10-21 6-21q6-24 6-48 0-80-48-142l275-81q-285 0-428 1-7-1-22-1-99 0-166 74t-56 173q-2-9-2-28 0-44 15-77l-204-201 198 341q19 72 80 118t135 46q17 0 33-3l-66 276q-115 0-223-71t-175-176q-66-102-66-230z m312-19q0 77 55 132t131 55 131-55 55-132q0-76-54-131t-131-55-131 55-54 131z"/></svg><svg viewBox="0 0 1037 1000" id="email" width="24" height="23" x="303" y="123"><path d="m0 788v-576q0-1 3-19l339 290-338 325q-4-14-4-20z m45-635q7-3 17-3h913q9 0 18 3l-340 291-45 36-89 73-89-73-45-36z m1 694l341-327 132 107 132-107 341 327q-8 3-17 3h-913q-8 0-16-3z m650-364l338-290q3 9 3 19v576q0 9-3 20z"/></svg><svg viewBox="0 0 1106 1000" id="macstore" width="24" height="22" x="3" y="154"><path d="m0 613v-151q0-10 7-18t18-8h265l-115 201h-150q-11 0-18-7t-7-18z m122 244l66 38z m10-44q-3-11 2-20l304-528q5-9 15-12t19 3l65 37q10 5 13 16t-3 20l-303 528q-5 9-16 12t-20-3l-65-38q-9-4-12-15z m308-176l115-201h67l94 201h-276z m78-625q1-9 6-12 10-5 36 31t72 116 62 105q28 44 76 131t91 169 44 84q11 19-2 36t-31 24q-18 8-24 9t-30-7q-30-15-190-393-5-11-14-31t-17-38-19-42-19-44-17-42-14-39-8-33-2-24z m328 424h235q10 0 18 8t8 18v151q0 10-8 18t-18 8h-133q-4-16-8-23l-24-46q-64-121-70-132z m13 317q3-11 13-16l37-19q10-5 21-2t16 14l31 60q12 24-10 39l-27 16q-10 5-21 3t-17-13l-40-62q-6-10-3-21z m77 145q1-16 4-21t13-14l24-9q61-12 72 70 3 32-1 76-4-12-44-30t-55-39q-13-18-13-34z"/></svg><svg viewBox="0 0 1086 1000" id="myspace" width="24" height="22" x="33" y="154"><path d="m0 675v-350h140v207h805v-207h141v350h-1086z"/></svg><svg viewBox="0 0 1000 1000" id="podcast" width="24" height="24" x="63" y="153"><path d="m0 519q0-141 67-261t182-189 251-70 251 70 182 189 67 261q0 4-1 10t-1 10q-8-208-153-353t-347-145-347 145-153 353q0-4-1-10t-1-10z m183-1q0-136 93-233t224-97 224 97 93 233q0 3-1 10t-1 10q-8-129-99-219t-217-90-217 90-99 219q0-3-1-10t-1-10z m166 195q0-33 5-59t11-43 19-29 23-18 29-10 31-4 35-1 35 1 31 4 29 10 23 18 19 29 11 43 5 59q0 118-45 203t-107 85-107-85-45-203z m47-280q0-44 31-76t74-32 74 32 31 76-31 76-74 32-74-32-31-76z"/></svg><svg viewBox="0 0 1100 1000" id="amazon" width="24" height="22" x="93" y="154"><path d="m2 776q5-8 16-1 250 145 544 145 196 0 387-73 5-2 15-6t14-6q15-6 24 6t-6 22q-18 13-46 30-86 51-192 79t-207 28q-156 0-295-55t-249-154q-6-5-6-10 0-3 2-6z m301-285q0-69 34-118t93-74q54-23 133-33 27-3 88-8v-17q0-64-14-86-21-30-66-30h-8q-33 3-57 21t-31 50q-4 20-20 23l-115-14q-17-4-17-18 0-3 1-7 17-89 84-132t156-48h25q114 0 178 59 10 10 19 22t14 21 9 26 6 24 3 28 1 26v242q0 26 8 48t15 31 23 31q6 9 6 16 0 8-8 14-83 72-90 78-12 9-29 2-14-12-25-23t-15-16-15-20-14-20q-56 61-110 76-34 10-84 10-77 0-127-48t-50-135z m172-20q0 39 20 63t53 24q3 0 9-1t8-1q42-11 65-54 11-19 17-42t6-37 1-46v-25q-58 0-88 8-88 25-88 111z m420 322q2-4 6-8 25-17 48-23 38-10 74-11 10-1 19 1 45 4 54 15 4 6 4 18v7q0 35-19 83t-53 77q-5 4-9 4-2 0-4-1-6-3-3-11 37-87 37-121 0-11-4-16-10-12-56-12-17 0-40 2-25 3-46 6-6 0-8-2t-1-4q0-1 1-3z"/></svg><svg viewBox="0 0 1312 1000" id="steam" width="24" height="18" x="123" y="156"><path d="m0 380q0-55 39-94t94-39q47 0 84 30t47 75l502 202q32-19 68-19 2 0 7 1t8 1l110-159q1-73 53-125t125-52q74 0 126 52t52 126-52 126-126 52l-170 124q-5 51-43 86t-89 35q-48 0-84-30t-46-75l-502-201q-32 19-68 19-55 0-94-39t-39-94z m35 0q0 40 29 69t69 29q9 0 21-2l-41-16v-1q-28-13-40-42-6-14-6-28 0-15 6-30 12-30 40-42 15-7 31-6 13 0 27 5v-1l49 20q-29-52-87-52-40 0-69 29t-29 70z m710 333q29 52 87 52 40 0 69-29t29-70q0-40-29-69t-70-29q-14 0-21 2l40 16q30 12 43 42 7 15 7 30 0 14-6 29-12 31-42 43-15 6-30 6-14 0-29-6-8-3-25-10t-25-10z m270-335q0 49 35 84t84 35q50 0 85-35t35-84-35-84-85-35q-49 0-84 35t-35 84z m25-1q0 40 28 68t68 28q39 0 67-28t28-68q0-39-28-67t-67-28q-40 0-68 28t-28 67z"/></svg><svg viewBox="0 0 1108 1000" id="cloudapp" width="24" height="22" x="153" y="154"><path d="m0 648q0-104 74-178t177-74l1 1q0-3-1-7t-1-6q0-118 83-201t200-83q103 0 181 66t96 166h17q117 0 200 83t83 201-83 201-200 83q-8 0-12-1v1h-578v-1q-99-5-168-78t-69-173z"/></svg><svg viewBox="0 0 1024 1000" id="dropbox" width="24" height="23" x="183" y="153"><path d="m0 539l214-163-214-162 311-203 203 174 208-174 302 193-198 165 198 170-307 185-203-156-203 156z m213 251v-57l94 55 203-155 1 1v355z m5-416l294 185 296-196-294-169z m293 615l1-355 2-1 202 155 100-60v63z"/></svg><svg viewBox="0 0 1395 1000" id="ebay" width="24" height="17" x="213" y="156"><path d="m0 565q0-31 5-54t22-47 47-39 84-24 129-10q88 0 148 13 39 8 58 18v161h-293q0 21 2 34t9 31 27 27 50 9q85 0 85-61h121v89q-27 13-56 19-68 15-150 15-92 0-151-13t-87-39-38-56-10-75z m198-34h178q0-18-2-27t-9-24-28-22-54-7q-31 0-51 8t-27 23-9 24-2 25z m293 182v-89h78q-1 51-74 87-2 2-4 2z m0 0q2 0 4-2 73-36 74-87h-78v-39h81q1-12 1-23 0-45-13-76-16-39-69-62v-183h107v203h2q31-44 88-44 43 0 69 26-40 29-40 102 0 104 76 122-1 31-6 54t-16 47-33 37-54 13q-64 0-91-50h-1v42h-103v-79z m0-128v-161q53 23 69 62 13 31 13 76 0 11-1 23h-81z m107 11q0 77 9 108t36 31q28 0 37-31t9-108v-5q0-35-1-52t-5-37-14-29-27-8q-16 0-26 9t-13 30-5 38-1 54z m119-68q0-73 40-102 17 18 26 53t10 56 0 64v52q-76-18-76-122z m8-159q0-69 40-94 34-26 101-26 4 0 49 3l107 218v102q0 14 2 39t2 34h-100l-5-52h-2q-33 58-100 58-18 0-26-1v-52q0-43-1-64t-10-56-26-53q38-29 135-29h24v-31q0-29-9-43t-36-14q-26 0-33 16t-7 45h-107z m97 154q0 62 41 62 13 0 23-5t16-14 10-18 5-24 2-24 0-24-1-20q-4 0-17 1t-17 1l-14 2t-14 3-11 5-10 8-7 11-5 16-1 20z m67-323h154l100 232 109-232h143l-189 359v190h-141v-190l-43-89v-91q0-55-22-87t-86-41z m26 52q64 9 86 41t22 87v91z"/></svg><svg viewBox="0 0 538 1000" id="facebook" width="13" height="24" x="249" y="153"><path d="m0 537v-191h154v-96q0-104 68-177t164-73h153v191h-153q-15 0-27 17t-12 41v98h192v191h-192v463h-192v-463h-154z"/></svg><svg viewBox="0 0 939 1000" id="github" width="23" height="24" x="274" y="153"><path d="m0 847q0 63 62 108t150 45 151-45 63-108q0-64-63-109t-151-45q-1 0-3 1t-3 1q-24-22-24-48t24-54q71-4 120-55t49-121q0-28-7-50 28-5 44-14v-115q-48 32-109 32h-7q-46-31-101-31-75 0-128 52t-53 126q0 47 24 87t64 64q-28 36-28 74 0 36 26 75-46 21-73 55t-27 75z m121-432q0-33 22-57t51-24q30 0 51 24t21 57-21 57-51 24q-29 0-51-24t-22-57z m3 432q0-27 26-46t63-19 63 19 26 46q0 26-26 45t-63 19-63-19-26-45z m331-766q0-34 24-58t58-24 58 24 24 58-24 58-58 24-58-24-24-58z m19 647v-479h134v479h-134z m181-377h55v285q4 30 20 52t35 32 38 16 31 7h20q27 0 48-8 23-8 30-16l7-9 2-99q-42 13-65 13-5 0-9-1-23-3-27-16l-4-13q0-3-1-4v-238h91v-102h-91v-93h-123v93h-55v102z"/></svg><svg viewBox="0 0 998 1000" id="github-circled" width="24" height="24" x="303" y="153"><path d="m0 499q0-102 40-194 79-186 265-265 92-40 194-40t194 40q184 78 265 265 40 95 40 194t-40 194q-81 188-265 267-92 40-194 40t-194-40q-186-80-265-267-40-92-40-194z m78 0q0 141 84 252 83 109 217 155v-80q0-60 40-87-20-1-47-7-51-9-87-32-91-55-91-199 0-75 50-128-23-59 5-128h20q10 0 25 5 39 12 87 44 61-16 120-16t121 16q39-26 73-40 32-12 46-10l12 1q27 69 5 128 50 53 50 128 0 112-55 169-30 32-79 50-41 15-91 19 41 29 41 87v80q129-46 213-157 82-110 82-250 0-85-33-164-32-76-90-134-56-56-134-89-80-34-163-34-82 0-164 34-75 32-134 89-56 58-90 134-33 79-33 164z"/></svg><svg viewBox="0 0 866 1000" id="googleplay" width="21" height="24" x="5" y="183"><path d="m0 996v-992l501 496z m0 0l501-496 134 133-202 117-433 250v-4z m0-992v-4l433 250 202 117-134 133z m501 496l134-133 231 133-231 133z"/></svg><svg viewBox="0 0 1000 1000" id="itunes" width="24" height="24" x="33" y="183"><path d="m0 500q0-136 67-251t182-182 251-67 251 67 182 182 67 251-67 251-182 182-251 67-251-67-182-182-67-251z m100 0q0 166 117 283t283 117 283-117 117-283-117-283-283-117-283 117-117 283z m183 176q0 31 22 53t53 22q33 0 57-24t24-57v-269l200-37v208q-15-5-28-5-33 0-57 24t-24 57q0 31 21 53t52 22 56-23 26-54v-394l-290 50v300q-15-5-28-5-34 0-58 24t-24 57z"/></svg><svg viewBox="0 0 764 1000" id="plurk" width="18" height="24" x="66" y="183"><path d="m0 1000v-1000h764v817l-571-3v186h-193z m191-359h399v-450h-399v450z"/></svg><svg viewBox="0 0 1000 1000" id="songkick" width="24" height="24" x="93" y="183"><path d="m0 567v-134t3-59 7-62 14-53 24-56 36-47 51-48q146-110 356-110h16v777h124v-208q7 11 39 64t51 80q29 40 64 53t92 13h36v-118q-45 0-63-7t-42-41q-14-18-37-57t-26-44l171-238h-148l-136 189v-453q135 22 238 100 29 22 51 48t36 47 24 56 14 53 7 62 3 59v134t-3 59-7 62-14 53-24 56-36 47-51 48q-146 110-367 110t-367-110q-29-22-51-48t-36-47-24-56-14-53-7-62-3-59z m81 149q66 67 192 67 80 0 138-41t58-118q0-51-18-85t-45-46-59-20-59-9-45-12-18-30q0-47 70-46 57 0 87 29l78-78q-60-60-170-60-78 0-132 42t-54 118q0 51 21 84t52 45 63 17 60 9 37 14q10 11 10 30 0 46-72 46-77 0-113-36z"/></svg><svg viewBox="0 0 1329 1000" id="lastfm" width="24" height="18" x="123" y="186"><path d="m0 500q0-164 116-280t280-116q124 0 220 64t147 181q15 36 129 300 21 48 38 74t49 45 80 22h7q67 0 111-36 46-38 47-96 0-27-8-45t-30-32-41-22-59-21q-125-41-180-90t-55-136q0-91 58-146t157-55q127 0 191 115l-84 43q-45-62-112-62-46 0-77 29t-31 73q0 13 2 25t9 21 12 16 18 15 20 12 25 11 27 10 32 10 33 10q108 36 155 84t47 140q0 100-76 166-75 65-186 65h-3q-100 0-161-47t-103-141l-14-33-127-288q-33-77-105-124t-159-47q-119 0-204 85t-85 204 85 204 204 85q82 0 150-43t105-113l51 118q-55 68-135 107t-171 39q-164 0-280-116t-116-280z"/></svg><svg viewBox="0 0 1202 1000" id="gmail" width="24" height="20" x="153" y="185"><path d="m0 947v-897h185l9 8h825l9-8h174v900h-171v-7h-855v4h-176z m176-132v80h855v-74l-345-259-79 65-86-70z m0-60l307-229-307-252v481z m83-641l348 298 347-298h-695z m465 417l307 230v-484z"/></svg><svg viewBox="0 0 1000 1000" id="pinboard" width="24" height="24" x="183" y="183"><path d="m0 323l316-323v123l301 277 187-46-195 208 391 438-444-392-188 192 30-169-255-316z"/></svg><svg viewBox="0 0 1083 1000" id="openid" width="24" height="22" x="213" y="184"><path d="m0 647q-1-63 25-117t67-89 92-63 101-43 93-26 68-13l26-3v123q-57 4-105 20t-78 37-53 46-35 48-19 43-8 31l-2 12q-3 15-3 30 0 22 7 42 12 34 38 58t59 45 68 33 64 22 47 13l19 3v103q-97-10-176-35t-127-57-83-68-51-71-25-62-10-45z m510 353v-902l142-98v922z m176-591h5q38 1 77 15 42 16 64 31l21 16-83 34 313 78v-245l-107 61q-40-43-113-69t-126-31l-52-5v115z"/></svg><svg viewBox="0 0 889 1000" id="quora" width="21" height="24" x="244" y="183"><path d="m0 451q0-122 60-226t162-165 223-61q184 0 315 132t131 319q0 119-57 221t-154 163q1 2 4 7t12 16 21 22 33 22 45 17v76q-36 7-67 7-50 0-85-18-56-29-91-94-48 13-105 13-120 0-223-61t-162-164-60-226z m221 59q0 116 67 199t161 83q26 0 52-8-2-3-6-9t-15-19-24-24-31-20-37-10v-88q10-1 20-1 119 0 203 90 63-81 63-194v-116q0-116-67-199t-161-83-161 83-67 199v116z"/></svg><svg viewBox="0 0 1152 1000" id="soundcloud" width="24" height="21" x="273" y="185"><path d="m0 629q0-16 4-44t10-31q6 3 11 33t5 43q0 14-5 43t-11 32q-13-7-13-74z m64 0q0-25 5-74t6-61q0-6 6-6 4 0 6 6 12 129 12 135 0 24-6 71t-7 59q-2 7-6 7-6 0-6-7-1-11-6-59t-5-72z m81 0q0-24 5-74t5-55q0-9 7-9 8 0 8 9 11 113 11 128t-11 136q0 8-8 8-7 0-7-8 0-7-5-59t-5-78z m92 0q0-38 2-81t4-95 4-82q0-10 9-10 10 0 10 10 1 16 6 112t5 146q0 26-5 77t-5 58q0 10-10 10-9 0-9-10-9-132-9-135z m94 0q0-55 3-160t4-129q2-12 12-12t12 12q1 32 5 133t4 155q0 25-4 72t-5 61q-2 12-12 12t-12-12q0-11-4-59t-4-74z m95 0q0-40 1-85t3-100 3-85q2-15 14-15t14 15q1 30 3 85t3 100 1 85q0 2-6 131v-1q-2 15-14 15t-14-14q-6-129-6-131z m95 1q0-3 6-351 2-18 16-18t16 18q6 348 6 351 0 1-6 127-2 17-16 17t-16-17q-6-126-6-127z m80-213q0-83 1-156-1-10 13-18t33-12 35-6 25-2q97 0 169 73t80 179q28-13 55-13 58 0 100 46t42 111-42 111-100 46h-393q-6 0-11-6t-5-13q0-55-1-156t-1-183z"/></svg><svg viewBox="0 0 616 1000" id="tumblr" width="15" height="24" x="308" y="183"><path d="m0 410v-142q60-20 101-55 41-33 67-86 26-51 35-127h143v253h237v157h-237v256q0 86 9 112 9 24 34 39 34 20 76 20 77 0 151-49v157q-63 31-116 43-52 12-112 12-68 0-122-17-55-19-89-50-36-31-52-68-14-34-14-105v-350h-111z"/></svg><svg viewBox="0 0 1011 1000" id="eventasaurus" width="24" height="24" x="3" y="213"><path d="m0 841v-678q0-66 43-115t108-49h697q70 0 117 38t47 107v59q-74-14-111-20-53-7-54-7-10-3-30-10t-34-11-33-4q-62 0-132 47-34 3-96 7t-112 9-96 14h-2l-1 1h-4l-1 1h-1q-72 14-87 26-18 15-20 71v165l-3 18 526 13 80-27q-44 79-70 132l-106 47-406 7q-3 3-10 4t-11 5q4 26 7 39 12 52 112 59 206 13 335 13 38 0 120-20t127-20q65 0 111 29v54q0 155-154 155h-723q-61 0-98-48t-37-111z m690-546q0-14 10-25t24-11 25 11 11 25-11 24-25 10-24-10-10-24z"/></svg><svg viewBox="0 0 1000 1000" id="wordpress" width="24" height="24" x="33" y="213"><path d="m0 500q0-136 67-251t182-182 251-67 251 67 182 182 67 251-67 251-182 182-251 67-251-67-182-182-67-251z m39 0q0 135 72 247t189 168l-220-603q-40 89-40 188z m75-253h30q48 0 123-6 12-1 18 8t2 19-16 11l-53 5 168 499 101-302-72-197q-24-3-48-5-12-1-16-11t2-19 18-8l121 6q49 0 123-6 12-1 18 8t2 19-16 11l-52 5 166 496 46-154q36-117 36-149 0-64-39-128-2-3-13-21t-14-24-9-19-8-24-2-21q0-33 23-58t56-25q1 0 3 1t3 1q-131-121-312-121-119 0-221 56t-165 152z m256 696q62 18 130 18 80 0 153-26l-3-6-142-389z m362-44q105-61 167-168t62-232q0-120-56-221 3 21 3 47 0 63-35 165z"/></svg><svg viewBox="0 0 741 1000" id="yelp" width="18" height="24" x="66" y="213"><path d="m0 588v13q0 43 6 69 5 18 19 26t29 3l204-63q22-7 31-26 5-10 5-20t-5-19q-9-19-32-26l-204-82q-14-3-28 8t-17 31q-8 36-9 88z m87-477q-5-8-5-16 0-9 6-18 12-17 38-27 81-31 171-46h5q45 0 49 38 25 313 25 393 0 33-27 40-6 2-12 2-21 0-37-25-148-232-213-341z m69 765l139-166q19-21 38-21 8 0 16 3 25 11 25 45 0 5-1 10v221q-2 14-17 22-9 5-18 5-8 0-16-3-36-6-85-26t-73-38q-18-14-18-30 0-11 10-23z m294-337q-6-12-6-23 0-17 15-33l130-179q7-8 20-8 3 0 7 1 17 2 29 18 25 26 53 71t37 74q3 8 3 15 0 9-4 16-8 13-23 16l-209 53q-8 2-16 2-23 0-36-22z m12 125q-9 12-9 24 0 16 13 32l114 190q7 9 24 9h3q19-1 33-15 27-24 56-63t42-70q4-11 4-21 0-7-3-13-5-14-19-19l-205-70q-10-4-19-4-21 0-33 19z"/></svg><svg viewBox="0 0 1286 1000" id="intensedebate" width="24" height="19" x="93" y="216"><path d="m0 341q174-33 208-71 27-30 45-91 18 23 23 49t1 40l-5 13q-6 13-11 21t-8 14-10 11-10 9-16 11-21 14q-35 27-34 63t31 55q26 16 51-6t53-78q12-25 19-66t20-73 47-59q20-16 46-19t50-1 52 0 60-24 67-65q5-6 14-16t38-29 59-28 74 1 86 45q-48-21-90-21t-68 15-44 33-26 33l-7 15q-15 37-29 62t-24 39-25 23-24 12-32 9-38 10q-43 13-50 54-6 36 22 53 32 18 82-14 37-24 60-50t31-44 28-40 52-37q43-21 82-29t83-8 67-4q197-32 246-114 48-79 49-130 17 58 12 104t-27 81-44 57-41 34l-18 11q-77 40-129 56t-84 21-62 22q-103 55-52 155 21 41 62 45t78-30q6-5 14-14t23-39 16-61q20 56 16 97t-21 64l-15 22q-36 38-61 54t-63 19-90-15q-86-21-120-21t-62 18q-28 16-43 43t-2 49q14 25 34 28t64-22q39-23 66-30t68-9q87-2 139 38 37 24 74 57-40-24-79-31t-66 1-49 18-32 22l-10 10q-45 51-76 72t-53 21-59-15q-10-4-40-17t-42-16v-110q0-121-92-186-59-40-134-40-76 0-134 39-20-29-51-33v-75q0-31-22-53t-53-22h-18z m127 564v-162q0-65 19-99 40-71 134-71 69 0 111 44t42 110v135h-202v67q0 48 50 48 45 0 50-49h102q0 62-41 105-43 43-111 43-94 0-134-71-19-34-19-99z m103-121h100v-56q0-56-50-56t-50 56v56z m262 199q11-36 11-71 0-11-3-20 24 4 34 5 62 6 85 46 2 3 5 9t7 23-1 31q-31-24-66-30t-54 1z"/></svg><svg viewBox="0 0 851 1000" id="eventbrite" width="20" height="24" x="125" y="213"><path d="m1 877q3-31 12-66 11-45 72-351t71-350q12-52 24-73t39-30 87-9h241q59 0 135 1t116 1q41 0 50 45 10 48-23 92-30 40-81 40h-401l-50 233 352 3q44 0 54 45t-21 84q-27 33-70 33h-360l-48 248h432q64 0 77 44t-17 88-68 44h-553q-30 0-48-17t-22-46-1-60z"/></svg><svg viewBox="0 0 861 1000" id="scribd" width="21" height="24" x="155" y="213"><path d="m0 712q0-44 32-76t77-32q44 0 76 32t32 76q0 46-34 78 65 74 163 74 69 0 116-41 47-42 47-106 0-39-25-77-23-38-60-64-34-23-115-57-75-30-122-59-42-27-73-64-30-36-46-74-14-39-14-79 0-101 81-172 82-71 197-71 77 0 155 33 66 28 113 80 37 32 37 80 0 45-32 77t-76 32q-45 0-77-32t-32-77q0-21 10-44-32-16-88-16-69 0-112 31t-43 80q0 43 38 76 40 33 128 71 92 40 141 73 51 34 82 74 33 41 48 85 0 1 1 3t1 3q-75 62-75 158 0 53 28 104-11 13-24 27-87 82-206 82t-208-64-139-194l3-1q-5-15-5-29z m613 75q0 52 36 89t88 37 88-37 36-89q0-51-36-88t-88-37-88 37-36 88z"/></svg><svg viewBox="0 0 664 1000" id="posterous" width="16" height="24" x="187" y="213"><path d="m0 15h100l8 121h10l5-3q79-133 246-133 130 0 213 99t83 254q0 93-27 167t-73 118-101 67-117 23q-69 0-126-29t-87-80l-2-3h-11l-3 7v378h-113v-761q0-88-6-224z m119 413q0 31 6 55 19 70 74 113t126 43q101 0 162-77t61-205q0-119-61-194t-157-75q-72 0-128 46t-74 118q-9 33-9 53v123z"/></svg><svg viewBox="0 0 668 1000" id="stripe" width="16" height="24" x="217" y="213"><path d="m1 338q-11-151 126-252 63-47 145-70 78-23 175-11t181 59q-2 40 0 76 6 119-10 153-9-1-52-14-36-11-66-16-31-6-61-8-70-6-99 38 8 44 38 66 30 21 82 37 49 14 69 26 113 70 139 219v85q0 81-45 143t-119 93q-105 44-245 39t-240-60q3-41 0-79-3-42-2-81 2-43 12-69 18 3 48 11 53 15 74 19 165 36 177-40 3-22-11-41t-35-30q-28-14-48-22-29-12-37-17-44-23-59-32-57-34-80-68-54-77-60-154z"/></svg><svg viewBox="0 0 1273 1000" id="opentable" width="24" height="19" x="243" y="216"><path d="m0 466v-51q0-38 87-65t211-27 211 27 87 65v51q-1 38-88 65t-210 27-210-27-88-65z m287-243v-27q2-19 64-33t149-14 149 14 64 33h1v27h-1q-2 20-64 34t-149 14-149-14-64-34z m211 494v-64q4-56 117-95t271-39 271 39 117 95v64q-3 55-116 94t-271 39-271-39-117-95z m228-341v-42q2-29 76-49t176-20 176 20 76 49v42q0 29-74 50t-178 21-178-21-74-50z"/></svg><svg viewBox="0 0 1120 1000" id="cart" width="24" height="21" x="273" y="214"><path d="m0 146q0-20 13-33t33-13h235q16 0 29 10t17 26l24 98h674l7-21q10-32 43-32 9 0 13 2 15 4 24 16t9 27q0 5-2 13l-118 393q-4 15-16 24t-27 9h-559q-16 0-29-10t-17-25l-108-438h-199q-19 0-33-13t-14-32z m372 178l62 248h489l2-9 72-239h-625z m42 484q0-38 28-65t66-27 65 27 27 65-27 65-65 27-66-27-28-65z m65-406h166v92h-146z m245 92l1-92h162l-24 92h-139z m37 314q0-38 28-65t66-27 65 27 27 65-27 65-65 27-66-27-28-65z"/></svg><svg viewBox="0 0 924 1000" id="print" width="22" height="24" x="304" y="213"><path d="m0 900v-333l116-129h85v64h-56l-80 89v245h795v-245l-80-89h-56v-64h85l115 129v333h-924z m201-319v-330l151-151h372v481h-523z m60-61h403v-360h-252v151h-151v209z"/></svg><svg viewBox="0 0 716 1000" id="angellist" width="17" height="24" x="6" y="243"><path d="m0 714q0-63 28-98 23-31 74-45-16-40-16-59 0-33 35-70 37-35 69-35 17 0 40 9-48-137-69-208-24-81-24-115 0-48 24-75 25-28 67-28 72 0 173 295l17 49q6-15 12-33 100-292 180-292 40 0 63 27 24 27 24 70 0 28-24 113-21 73-66 200 57 14 82 54 27 43 27 133 0 178-106 291-108 113-274 113-66 0-127-24-59-21-107-66-51-48-76-99-26-54-26-107z m65-5q0 25 14 59 13 32 39 67 41 53 97 81 57 28 129 28 129 0 217-97 87-96 87-243 0-46-6-71-5-22-19-34-27-23-106-40-79-18-168-18-22 0-28 6-7 3-7 20 0 41 46 58 50 21 165 21h28q16 0 23 11 8 8 11 31-17 17-55 31-36 13-53 26-40 29-64 69-23 39-23 74 0 21 10 51 11 33 11 43v6l-4 15q-44-3-64-41-17-32-19-82-3 1-12 1h-11q1 5 1 12 0 30-23 51t-54 21q-47 0-95-45-48-46-48-90 0-8 3-16 1-7 16-22 25 31 34 43 42 59 76 59 9 0 17-6 6-6 6-10 0-8-12-29-8-15-37-53-28-36-45-50-15-14-22-14-19 0-37 22t-18 55z m90-191q0 13 16 45 14 27 45 68 31 40 56 62 24 20 36 20 7 0 14-7 7-8 7-16 0-12-18-58-21-51-46-92-22-35-39-49-16-15-31-15-11 0-25 15-15 15-15 27z m45-432q0 34 24 107 22 71 66 190 10-6 28-6 1 0 7 1t11 1q4 0 26 2l-69-200q-28-80-44-104-13-21-26-21-9 0-15 8-7 9-7 23z m166 510q9 23 19 50 20-23 40-38-5-1-15-3t-15-3q-20-4-29-7z m105-204l67 12q45-124 69-199 25-81 25-96 0-16-7-25-4-7-15-7-14 0-31 27-19 29-43 101z"/></svg><svg viewBox="0 0 1000 1000" id="instagram" width="24" height="24" x="33" y="243"><path d="m0 900v-800q0-41 30-71t71-30h800q41 0 71 30t30 71v800q0 41-30 71t-71 30h-800q-41 0-71-30t-30-71z m200-400q0 124 88 212t212 88 212-88 88-212-88-212-212-88-212 88-88 212z m100 0q0-82 59-141t141-59 141 59 59 141-59 141-141 59-141-59-59-141z"/></svg><svg viewBox="0 0 617 1000" id="dwolla" width="15" height="24" x="68" y="243"><path d="m0 846q0-76 57-112 29-19 54-29 114-49 122-54-21-31-54-68-51-60-60-71-109-132-94-247 7-55 42-91 13-14 42-32 37-21 45-25 5-2 23-10t30-13l47-21 69-30q58-25 86-40 20-11 25 6 0 11-27 25-61 40-64 114-1 29 5 58t13 47 26 46 27 38 35 40 32 36q6 7 29 33t33 38 28 38 26 46 16 49 8 59q0 38-13 68-12 32-29 52t-48 40q-35 21-53 30-23 12-61 27-16 6-36 15t-23 10l-89 39-36 18q-32 16-50 21-85 21-133-24t-48-123z"/></svg><svg viewBox="0 0 1126 1000" id="appnet" width="24" height="21" x="93" y="244"><path d="m2 436q10-159 75-266 49-80 96-114t139-50q30-5 57-6t51 4 44 12 39 20 34 26 30 32 27 35 24 39 21 40 21 41q7 14 14 30t15 36 13 31q8-48 57-188t68-145q91-21 145 0 4 2 9 8t7 8q-1 18-6 39t-9 33-13 37-12 31l-160 439q-7 34 19 90t68 93 74 22q10-5 18-21t14-21q18-15 71-16t67 19q16 29 11 63t-31 66-60 57-74 37-74 5q-29-6-54-19t-41-26-34-37-28-39-27-45-26-44q-4 2-6 4-24 58-81 107t-127 75-150 20-145-54q-85-62-131-204t-37-300z m153-13q-13 108 9 211t73 141q28 21 56 31t52 12 49-10 43-21 41-35 36-40 33-46 28-43 25-42q5-9 8-14-38-161-64-223-73-173-202-155-56 8-81 22t-50 49q-41 55-54 163z"/></svg><svg viewBox="0 0 1078 1000" id="statusnet" width="24" height="22" x="123" y="244"><path d="m0 418q0-122 93-210 58-55 134-75t153 2 138 85q44 46 63 107t15 116-24 103q-19 41-3 93t40 89 51 69 27 33l-11-9q-10-10-22-21t-31-26-38-27-43-25-45-19-45-8-43 7q-47 19-104 20t-117-22-103-69q-86-91-86-213z m132-20q-9 69 34 125t112 65 124-34 64-112-33-124-111-64-125 33-65 111z m478-294q21-59 74-88t113-9q58 18 87 72t9 116q-24 72-114 104-31 11-56 34t-35 38-23 41q22-94-24-159-55-80-31-149z m38 495q2-92 63-155t152-63q89 0 152 62t63 157q0 110-110 195-38 29-62 71t-31 68-13 67q-4-40-10-67t-30-70-65-74q-111-83-110-191z m38-472q-11 27 1 55t39 39 54 0 38-38q11-28 0-55t-38-38-55 0-39 38z m67 515q19 46 66 66 46 19 92-1t65-66 0-92-65-66q-46-19-92 0t-65 65q-19 47-1 93z"/></svg><svg viewBox="0 0 999 1000" id="acrobat" width="24" height="24" x="153" y="243"><path d="m0 958q0-51 61-107t123-89l15 22q-44 32-91 83t-59 90q87-27 265-379 65-131 103-261-33-107-33-202 0-115 47-115 23 0 34 2t21 13 10 34q0 15-3 28l-27-1q-2-26-17-41-12 20-12 69 0 38 9 94 3-18 9-54t10-54l26 3q-2 152-14 218 36 107 87 174t143 119q68-7 116-7 178 0 178 70 0 11-5 24l-3-1q-5 42-67 42-104 0-240-72-220 22-389 82-147 257-235 257-7 0-14-2t-13-5-14-7-12-7q-8-8-8-22z m318-255q134-54 298-85-103-73-164-209-36 121-134 294z m486-50q90 35 142 35 15 0 22-3 0-32-145-32h-19z"/></svg><svg viewBox="0 0 875 1000" id="drupal" width="21" height="24" x="185" y="243"><path d="m0 568q0-70 21-133t49-103 65-75 57-48 38-24q10-5 30-15t31-16 29-17 35-25q42-34 50-113 73 88 106 110 25 17 74 39t74 37q19 11 36 24t54 49 63 76 47 105 21 137q0 186-128 305t-307 119q-116 0-217-56t-163-156-62-221z m190 151q-2 63 42 93 31 21 94 21 41 0 98-30t105-59 71-28q23 1 78 56t71 56q20 1 34-9t32-36q33-49 33-117 0-29-15-55t-47-26q-22 0-92 47t-94 48q-22 0-61-28t-89-56-99-28q-65 1-112 45t-48 102z m205 180q-12 10 0 20 46 42 165 31 23-2 48-12t37-18 17-12 4-16q-3-12-14-3-41 32-124 32-75 0-110-28-3-2-8-2t-14 7z m90-52q7 8 28-11 2-1 8-6t8-7 8-5 10-5 12-2 16-1q16 0 26 5t13 8 8 13q5 10 8 12t8-1q12-7 7-20-9-26-22-34-12-9-43-9-26 0-41 6-17 7-44 32-15 12-7 25z"/></svg><svg viewBox="0 0 979 1000" id="buffer" width="23" height="24" x="213" y="243"><path d="m0 762q11-15 32-26t49-20 41-16q19 0 34 5t34 15 25 13q47 21 260 119 19 4 36 0t40-18 24-15q20-9 77-35t88-40q4-2 42-21t61-24q13-2 28 1t24 8 23 13 18 11 16 6 19 8 11 11q3 4 4 14-10 13-31 24t-51 22-40 16q-43 20-129 62t-129 62q-7 3-21 12t-24 13-26 11-28 7-30-2l-264-123q-6-3-32-14t-52-22-54-24-47-24-22-17q-4-4-4-13z m0-268q11-15 32-25t50-20 42-15q19 0 34 5t35 15 26 14q42 19 127 58t128 59q19 5 37 1t39-17 25-15q68-32 160-72 11-5 32-17t39-20 36-11q16-3 32 1t38 17 23 13q5 3 16 7t18 8 12 11q3 5 4 14-10 14-32 26t-53 23-41 16q-48 23-136 65t-123 59q-7 3-26 14t-29 15-33 10-36 0q-214-101-260-122-6-3-44-19t-70-30-62-30-34-23q-4-4-4-14z m0-267q10-15 32-27t53-23 41-16l348-162q30 0 54 7t57 26 40 22q39 18 117 55t117 55q4 2 37 15t55 24 27 20q3 4 4 13-9 13-26 23t-44 19-35 14q-47 22-140 67t-139 67q-6 3-20 11t-23 13-25 11-27 6-28-1q-245-114-256-119-4-2-63-28t-102-47-48-30q-4-4-4-13z"/></svg><svg viewBox="0 0 1136 1000" id="pocket" width="24" height="21" x="243" y="244"><path d="m2 330q-8-215 12-270 4-9 10-16t14-13 14-10 18-10 17-9q136 0 386-2t329-2h94t55 1 57 3 45 6 33 10q16 9 27 24t17 30 8 40 2 42-1 50-1 50q0 207-23 327t-96 213q-70 88-165 140t-193 63-200-11-187-74-151-133-96-182q-15-52-23-267z m232-2q-26 28 15 90t104 124q2 2 40 40t54 52 47 36 57 29q11 3 23 3t20-1 20-7 16-8 16-12 12-11 12-11l3-3q9-9 61-56t86-81 68-79 35-76q-15-40-38-56t-51-9-56 26-59 48-56 56-50 51-37 33q-27-16-73-60t-82-82-74-64-55-15q-25 15-56 41z"/></svg><svg viewBox="0 0 866 1000" id="bitbucket" width="21" height="24" x="275" y="243"><path d="m0 144q0-60 127-102t306-42q180 0 307 42t127 102q0 12-72 440-9 46-111 89t-250 43-250-43-110-89q-73-414-73-440z m107 581v-4q0-17 15-17 6 0 12 5 47 37 122 58t126 23l51 3q8 0 22-1t53-5 75-13 79-25 73-41l11-5q16 0 16 17 0 2-1 4-22 121-30 161-11 49-96 82t-200 33-200-33-95-82q-19-95-31-161z m49-596q0 24 82 42t196 18q115 0 197-17t82-41q0-25-82-43t-197-18-196 17-81 42z m139 353q0 57 41 98t98 41 98-41 41-98-41-98-98-41-98 41-41 98z m69 0q0 28 20 49t49 21 49-21 20-49-20-49-49-21-49 21-20 49z"/></svg><svg viewBox="0 0 1265 1000" id="lego" width="24" height="19" x="303" y="246"><path d="m0 709h24q-7-14-7-34 0-65 46-186t88-184q32-49 84-49 45 0 45 34 0 52-72 199h82q20-62 53-126 34-68 73-91t116-23q29 0 57 14t28 40-13 42-38 23-44 9-46 2h-9q-15 22-28 58 18-3 37-3 64 0 64 38 0 9-3 18-16 59-88 59-23 0-50-5-16 48-21 73 52-10 77-10t43 12 18 36q0 34-24 57t-54 31-64 8q-65 0-96-41-20-24-20-62 0-23 3-45 8-50 28-112h-82q-9 19-26 56t-25 55h-1l-7 14q22-2 34-2 59 0 59 40 0 51-39 74t-93 23q-65 0-85-39h-24z m538-78q0-38 16-95t34-99q19-45 36-74t43-57 61-41 81-14q50 0 87 20t37 65q0 38-21 69t-57 31q-52 0-52-33 0-6 4-18t4-19q0-13-22-13-17 0-33 14t-29 44-18 41-15 39q-32 84-32 119 0 29 28 29 25 0 44-25t26-53q-42-2-42-35 0-37 28-54t66-17q52 0 65 35 4 11 4 26 0 50-29 106t-69 87q-53 41-120 41-68 0-100-41-24-29-24-78z m329 78h42q-18-26-18-66 0-79 49-204 19-47 33-74t37-56 57-42 79-13q120 0 120 115 0 50-22 120-15 51-41 110-37 77-73 109-46 41-119 41-72 0-101-41h-42z m144-109h3q-6 35 22 35 23 0 43-38h-2q17-36 45-116t28-103q0-24-21-24-20 0-33 16-18 26-52 119-25 67-33 110z"/></svg><svg viewBox="0 0 1000 1000" id="login" width="24" height="24" x="3" y="273"><path d="m0 500q0-136 67-251t182-182 251-67 251 67 182 182 67 251-67 251-182 182-251 67-251-67-182-182-67-251z m208 319q0 26 26 26h176q28 0 28-26v-48q0-26-28-26h-29v-460h29q28 0 28-26v-48q0-26-28-26h-176q-26 0-26 26v48q0 26 26 26h31v460h-31q-26 0-26 26v48z m277 4q0 24 24 24h59q22 0 22-24v-257q0-103 79-103 42 0 42 51v309q0 24 22 24h61q21 0 21-24v-333q0-122-110-122-67 0-122 64l-7-36q-4-22-24-22h-43q-24 0-24 25v424z"/></svg><svg viewBox="0 0 784 1000" id="stackoverflow" width="19" height="24" x="36" y="273"><path d="m0 1000v-417l76 1-3 335h501v-334h79v415h-653z m123-219h392v83h-392v-83z m1-65l8-85 393 38-8 85z m21-173l23-82 380 107-24 82z m71-201l44-73 338 204-45 73z m167-205l69-50 230 321-70 50z m252-123l84-14 65 389-84 14z"/></svg><svg viewBox="0 0 917 1000" id="hackernews" width="22" height="24" x="64" y="273"><path d="m0 0h161l197 301q49 75 102 170 48-85 109-177l194-294h154l-399 576v424h-133v-424z"/></svg><svg viewBox="0 0 1199 1000" id="lkdto" width="24" height="20" x="93" y="275"><path d="m0 515v-34q0-113 84-197t215-84q136 0 247 112 21 20 54 62l96 126q39 52 52 65 74 74 147 74 59 0 96-40 33-33 38-85 1-5 1-14 0-22-6-41-9-31-33-57 0-1-1-1-38-40-95-40-78 0-147 74l-85-111q-6-8-10-13 55-60 113-86t134-26q124 0 214 84h1l1 1q83 83 83 215 0 30-5 63-16 89-79 153-61 62-150 79-33 5-62 5-140 0-248-109-23-23-56-67l-96-124q-39-52-52-65-74-74-149-74-22 0-40 6-29 8-55 34-29 32-36 71-3 14-3 28 0 57 37 97l2 2q39 40 97 40 79 0 147-75l84 110 9 12q-57 61-115 87t-130 26q-131 0-216-83v-1q-63-63-78-153-5-25-5-47z"/></svg></svg>