<svg xmlns="http://www.w3.org/2000/svg"><defs><symbol id="account-login" viewBox="0 0 8 8"><path d="M3 0v1h4v5H3v1h5V0H3zm1 2v1H0v1h4v1l2-1.5L4 2z"/></symbol><symbol id="account-logout" viewBox="0 0 8 8"><path d="M3 0v1h4v5H3v1h5V0H3zM2 2L0 3.5 2 5V4h4V3H2V2z"/></symbol><symbol id="action-redo" viewBox="0 0 8 8"><path d="M3.5 1C1.57 1 0 2.57 0 4.5 0 3.12 1.12 2 2.5 2S5 3.12 5 4.5V5H4l2 2 2-2H7v-.5C7 2.57 5.43 1 3.5 1z"/></symbol><symbol id="action-undo" viewBox="0 0 8 8"><path d="M4.5 1C2.57 1 1 2.57 1 4.5V5H0l2 2 2-2H3v-.5C3 3.12 4.12 2 5.5 2S8 3.12 8 4.5C8 2.57 6.43 1 4.5 1z"/></symbol><symbol id="align-center" viewBox="0 0 8 8"><path d="M0 0v1h8V0H0zm1 2v1h6V2H1zM0 4v1h8V4H0zm1 2v1h6V6H1z"/></symbol><symbol id="align-left" viewBox="0 0 8 8"><path d="M0 0v1h8V0H0zm0 2v1h6V2H0zm0 2v1h8V4H0zm0 2v1h6V6H0z"/></symbol><symbol id="align-right" viewBox="0 0 8 8"><path d="M0 0v1h8V0H0zm2 2v1h6V2H2zM0 4v1h8V4H0zm2 2v1h6V6H2z"/></symbol><symbol id="aperture" viewBox="0 0 8 8"><path d="M4 0c-.69 0-1.336.19-1.906.5l3.22 2.344.718-2.25C5.442.234 4.752 0 4.002 0zM1.25 1.125C.49 1.855 0 2.86 0 4c0 .25.022.49.063.72L3.157 2.5 1.25 1.125zm5.625.125L5.655 5h2.22c.08-.32.125-.65.125-1 0-1.07-.435-2.03-1.125-2.75zm-4.72 3.188l-1.75 1.28c.55 1.13 1.596 1.99 2.876 2.22l-1.124-3.5zM3.72 6l.624 1.97c1.33-.11 2.454-.88 3.094-1.97h-3.72z"/></symbol><symbol id="arrow-bottom" viewBox="0 0 8 8"><path d="M3 0v5H1l2.53 3L6 5H4V0H3z"/></symbol><symbol id="arrow-circle-bottom" viewBox="0 0 8 8"><path d="M4 0C1.79 0 0 1.79 0 4s1.79 4 4 4 4-1.79 4-4-1.79-4-4-4zM3 1h2v3h2L4 7 1 4h2V1z"/></symbol><symbol id="arrow-circle-left" viewBox="0 0 8 8"><path d="M4 0C1.79 0 0 1.79 0 4s1.79 4 4 4 4-1.79 4-4-1.79-4-4-4zm0 1v2h3v2H4v2L1 4l3-3z"/></symbol><symbol id="arrow-circle-right" viewBox="0 0 8 8"><path d="M4 0C1.79 0 0 1.79 0 4s1.79 4 4 4 4-1.79 4-4-1.79-4-4-4zm0 1l3 3-3 3V5H1V3h3V1z"/></symbol><symbol id="arrow-circle-top" viewBox="0 0 8 8"><path d="M4 0C1.79 0 0 1.79 0 4s1.79 4 4 4 4-1.79 4-4-1.79-4-4-4zm0 1l3 3H5v3H3V4H1l3-3z"/></symbol><symbol id="arrow-left" viewBox="0 0 8 8"><path d="M3 1L0 3.53 3 6V4h5V3H3V1z"/></symbol><symbol id="arrow-right" viewBox="0 0 8 8"><path d="M5 1v2H0v1h5v2l3-2.53L5 1z"/></symbol><symbol id="arrow-thick-bottom" viewBox="0 0 8 8"><path d="M3 0v5H1l3.03 3L7 5H5V0H3z"/></symbol><symbol id="arrow-thick-left" viewBox="0 0 8 8"><path d="M3 1L0 4.03 3 7V5h5V3H3V1z"/></symbol><symbol id="arrow-thick-right" viewBox="0 0 8 8"><path d="M5 1v2H0v2h5v2l3-3.03L5 1z"/></symbol><symbol id="arrow-thick-top" viewBox="0 0 8 8"><path d="M3.97 0L1 3h2v5h2V3h2L3.97 0z"/></symbol><symbol id="arrow-top" viewBox="0 0 8 8"><path d="M3.47 0L1 3h2v5h1V3h2L3.47 0z"/></symbol><symbol id="audio-spectrum" viewBox="0 0 8 8"><path d="M4 0v8h1V0H4zM2 1v6h1V1H2zm4 1v4h1V2H6zM0 3v2h1V3H0z"/></symbol><symbol id="audio" viewBox="0 0 8 8"><path d="M1.188 1C.454 1.722 0 2.748 0 3.844c0 1.095.454 2.09 1.188 2.813l.688-.72C1.33 5.4 1 4.67 1 3.845s.33-1.587.876-2.125L1.188 1zm5.625 0l-.688.72C6.677 2.27 7 3.007 7 3.843c0 .836-.327 1.554-.875 2.094l.688.72C7.545 5.937 8 4.947 8 3.843S7.543 1.73 6.814 1zm-4.22 1.406c-.36.362-.593.89-.593 1.438 0 .548.232 1.045.594 1.406l.688-.72c-.178-.177-.28-.415-.28-.687 0-.272.102-.54.28-.72l-.688-.718zm2.814 0l-.688.72c.182.182.28.433.28.718s-.1.505-.28.688l.687.72C5.764 4.893 6 4.4 6 3.844s-.235-1.08-.593-1.438z"/></symbol><symbol id="badge" viewBox="0 0 8 8"><path d="M4 0C2.895 0 2 .895 2 2s.895 2 2 2 2-.895 2-2-.895-2-2-2zM3 4.813V8l1-1 1 1V4.814C4.69 4.923 4.35 5 4 5s-.69-.076-1-.187z"/></symbol><symbol id="ban" viewBox="0 0 8 8"><path d="M4 0C1.797 0 0 1.797 0 4c0 2.203 1.797 4 4 4 2.203 0 4-1.797 4-4 0-2.203-1.797-4-4-4zm0 1c.655 0 1.258.21 1.75.563L1.562 5.75C1.21 5.26 1 4.657 1 4 1 2.34 2.335 1 4 1zm2.438 1.25C6.79 2.742 7 3.345 7 4c0 1.663-1.336 3-3 3-.654 0-1.257-.21-1.75-.563L6.44 2.25z"/></symbol><symbol id="bar-chart" viewBox="0 0 8 8"><path d="M0 0v7h8V6H1V0H0zm5 0v5h2V0H5zM2 2v3h2V2H2z"/></symbol><symbol id="basket" viewBox="0 0 8 8"><path d="M3.97 0c-.128.01-.26.083-.345.188L1.28 3H0v1h1v3.657c0 .18.164.344.344.344h5.313C6.837 8 7 7.838 7 7.658V4h1V3H6.72C6.446 2.673 4.333.136 4.314.127 4.21.036 4.098-.01 3.97 0zM4 1.28L5.438 3H2.563L4 1.28zM2.5 5c.28 0 .5.22.5.5v1c0 .28-.22.5-.5.5S2 6.78 2 6.5v-1c0-.28.22-.5.5-.5zm3 0c.28 0 .5.22.5.5v1c0 .28-.22.5-.5.5S5 6.78 5 6.5v-1c0-.28.22-.5.5-.5z"/></symbol><symbol id="battery-empty" viewBox="0 0 8 8"><path d="M.094 1C.034 1 0 1.034 0 1.094v5.813C0 6.967.034 7 .094 7h6.813C6.967 7 7 6.968 7 6.908V5h1V3H7V1.096C7 1.035 6.968 1 6.908 1H.094zM1 2h5v4H1V2z"/></symbol><symbol id="battery-full" viewBox="0 0 8 8"><path d="M.094 1C.034 1 0 1.034 0 1.094v5.813C0 6.967.034 7 .094 7h6.813C6.967 7 7 6.968 7 6.908V5h1V3H7V1.096C7 1.035 6.968 1 6.908 1H.094z"/></symbol><symbol id="beaker" viewBox="0 0 8 8"><path d="M1.344 0A.502.502 0 0 0 1.5 1H2v1.406C1.912 2.578.806 4.72.344 5.5.19 5.768 0 6.112 0 6.563c0 .383.14.764.406 1.03.26.26.643.407 1.03.407h5.126c.383 0 .764-.14 1.03-.406.26-.26.407-.643.407-1.03 0-.453-.195-.802-.345-1.064C7.192 4.72 6.087 2.578 6 2.406V1h.5a.5.5 0 1 0 0-1h-5a.5.5 0 0 0-.095 0 .502.502 0 0 0-.063 0zM3 1h2v1.625l.063.094S5.715 3.95 6.283 5H1.718c.566-1.05 1.218-2.28 1.218-2.28L3 2.624V1z"/></symbol><symbol id="bell" viewBox="0 0 8 8"><path d="M4 0C2.9 0 2 .9 2 2 2 3.04 1.476 3.976.656 4.656.236 4.996 0 5.48 0 6h8c0-.52-.236-1.004-.656-1.344C6.524 3.976 6 3.04 6 2c0-1.1-.9-2-2-2zM3 7c0 .55.45 1 1 1s1-.45 1-1H3z"/></symbol><symbol id="bluetooth" viewBox="0 0 8 8"><path d="M2.5 0v2.5l-.75-.75L1 2.5 2.5 4 1 5.5l.75.75.75-.75V8H3l3.5-2.5-2.25-1.53L6.5 2.5 3 0h-.5zm1 1.5l1.5 1-1.5 1v-2zm0 3l1.5 1-1.5 1v-2z"/></symbol><symbol id="bold" viewBox="0 0 8 8"><path d="M0 0v1c.55 0 1 .45 1 1v4c0 .55-.45 1-1 1v1h5.5C6.88 8 8 6.88 8 5.5c0-1-.588-1.85-1.438-2.25C6.832 2.91 7 2.47 7 2c0-1.1-.9-2-2-2H0zm3 1h1c.55 0 1 .45 1 1s-.45 1-1 1H3V1zm0 3h1.5C5.33 4 6 4.67 6 5.5S5.33 7 4.5 7H3V4z"/></symbol><symbol id="bolt" viewBox="0 0 8 8"><path d="M4 0L1 5h2v3l3-5H4V0z"/></symbol><symbol id="book" viewBox="0 0 8 8"><path d="M1 0C.93 0 .873 0 .812.03c-.39.08-.7.392-.78.782C0 .872 0 .93 0 1v5.5C0 7.33.67 8 1.5 8H7V7H1.5c-.28 0-.5-.22-.5-.5s.22-.5.5-.5H7V.5c0-.28-.22-.5-.5-.5H6v3L5 2 4 3V0H1z"/></symbol><symbol id="bookmark" viewBox="0 0 8 8"><path d="M2 0v8l2-2 2 2V0H2z"/></symbol><symbol id="box" viewBox="0 0 8 8"><path d="M0 0v1h8V0H0zm0 2v5.906C0 7.966.034 8 .094 8h7.813C7.967 8 8 7.966 8 7.906V2H5.033v1.03h-2.03V2H0z"/></symbol><symbol id="briefcase" viewBox="0 0 8 8"><path d="M3 0c-.554 0-1 .458-1 1v1H.094C.034 2 0 2.034 0 2.094V4.5c0 .28.22.5.5.5h7c.28 0 .5-.22.5-.5V2.094C8 2.034 7.966 2 7.906 2H6V1c0-.542-.446-1-1-1H3zm0 1h2v1H3V1zM0 5.906v2C0 7.966.034 8 .094 8h7.813C7.967 8 8 7.966 8 7.906v-2c-.16.05-.32.094-.5.094h-7c-.18 0-.34-.044-.5-.094z"/></symbol><symbol id="british-pound" viewBox="0 0 8 8"><path d="M4 0c-.62 0-1.16.262-1.5.688-.34.426-.5.986-.5 1.563 0 .693.165 1.246.25 1.75H1v1h1.22c-.113.45-.37.965-1.064 1.657L1 6.782v1.22h6V7H2.094c.64-.73.982-1.398 1.125-2H5V4H3.28C3.204 3.317 3 2.758 3 2.25c0-.395.115-.732.28-.94C3.448 1.107 3.65 1 4 1c.394 0 .61.11.75.25S5 1.606 5 2h1C6 1.424 5.835.898 5.47.53 5.102.166 4.575 0 4 0z"/></symbol><symbol id="browser" viewBox="0 0 8 8"><path d="M.344 0A.5.5 0 0 0 0 .5v7a.5.5 0 0 0 .5.5h7a.5.5 0 0 0 .5-.5v-7a.5.5 0 0 0-.5-.5h-7a.5.5 0 0 0-.094 0 .5.5 0 0 0-.063 0zM1.5 1c.28 0 .5.22.5.5s-.22.5-.5.5-.5-.22-.5-.5.22-.5.5-.5zm2 0h3c.28 0 .5.22.5.5s-.22.5-.5.5h-3c-.28 0-.5-.22-.5-.5s.22-.5.5-.5zM1 3h6v4H1V3z"/></symbol><symbol id="brush" viewBox="0 0 8 8"><path d="M7.438.03c-.03 0-.037.017-.063.032l-3.75 2.656c-.04.03-.095.106-.125.156l-.125.25c.72.23 1.27.78 1.5 1.5l.25-.125c.05-.02.126-.076.156-.126L7.938.624c.03-.04.04-.116 0-.156L7.53.062c-.02-.02-.064-.03-.093-.03zM2.658 4c-.73 0-1.314.614-1.314 1.344 0 .99-.544 1.82-1.344 2.28.4.23.864.376 1.344.376C2.824 8 4 6.824 4 5.344 4 4.614 3.396 4 2.656 4z"/></symbol><symbol id="bug" viewBox="0 0 8 8"><path d="M3.5 0C2.31 0 1.522 1.69 2.312 2.5c-.09.07-.196.137-.28.22L.717 2.062A.5.5 0 0 0 .374 2a.5.5 0 0 0-.094.938l1.156.563c-.09.157-.186.33-.25.5H.498a.5.5 0 0 0-.094 0 .502.502 0 1 0 .094 1h.5c0 .228.023.446.063.657l-.78.406a.5.5 0 1 0 .438.875l.656-.344c.245.46.59.844 1 1.094.35-.19.625-.44.625-.72V5.532a.5.5 0 0 0 0-.093v-.813a.5.5 0 0 0 0-.22c.044-.23.253-.405.5-.405.28 0 .5.22.5.5v.874a.5.5 0 0 0 0 .094v.063a.5.5 0 0 0 0 .095V6.97c0 .27.274.496.624.687.41-.245.755-.604 1-1.063l.656.344a.5.5 0 1 0 .438-.875l-.78-.406C5.977 5.447 6 5.227 6 5h.5a.5.5 0 1 0 0-1h-.688c-.064-.17-.16-.343-.25-.5l1.156-.562A.5.5 0 0 0 6.405 2a.5.5 0 0 0-.125.063l-1.313.656c-.086-.083-.19-.15-.28-.22.78-.83.002-2.5-1.19-2.5z"/></symbol><symbol id="bullhorn" viewBox="0 0 8 8"><path d="M6.094 0c-.03 0-.06.022-.094.03V6c.033.007.065 0 .094 0h.813C6.967 6 7 5.966 7 5.906V.093C7 .033 6.968 0 6.908 0h-.813zM5 .5L2.094 1.97c-.05.02-.127.03-.188.03H.093C.033 2 0 2.034 0 2.094v1.813C0 3.967.032 4 .092 4H1l1.03 2.72c.11.25.406.36.656.25.25-.11.36-.406.25-.656l-.72-1.78c.034-.137.137-.25.282-.25V4.25l2.5 1.25v-5z"/></symbol><symbol id="calculator" viewBox="0 0 8 8"><path d="M.094 0C.034 0 0 .034 0 .094v7.813C0 7.967.034 8 .094 8h6.813C6.967 8 7 7.968 7 7.908V.094C7 .034 6.968 0 6.908 0H.094zM1 1h5v2H1V1zm0 3h1v1H1V4zm2 0h1v1H3V4zm2 0h1v3H5V4zM1 6h1v1H1V6zm2 0h1v1H3V6z"/></symbol><symbol id="calendar" viewBox="0 0 8 8"><path d="M0 0v2h7V0H0zm0 3v4.906C0 7.966.034 8 .094 8h6.813C6.967 8 7 7.966 7 7.906V3H0zm1 1h1v1H1V4zm2 0h1v1H3V4zm2 0h1v1H5V4zM1 6h1v1H1V6zm2 0h1v1H3V6z"/></symbol><symbol id="camera-slr" viewBox="0 0 8 8"><path d="M4.094 0c-.06 0-.105.044-.125.094l-.94 1.813c-.02.05-.064.094-.124.094H1.5C.67 2 0 2.67 0 3.5v4.407C0 7.967.034 8 .094 8h7.813C7.967 8 8 7.968 8 7.908V2.094C8 2.034 7.968 2 7.908 2h-.813c-.06 0-.105-.044-.125-.094L6.03.093C6.01.043 5.967 0 5.907 0H4.093zM1.5 3c.28 0 .5.22.5.5s-.22.5-.5.5-.5-.22-.5-.5.22-.5.5-.5zM5 3c1.1 0 2 .9 2 2s-.9 2-2 2-2-.9-2-2 .9-2 2-2zm0 1c-.55 0-1 .45-1 1s.45 1 1 1 1-.45 1-1-.45-1-1-1z"/></symbol><symbol id="caret-bottom" viewBox="0 0 8 8"><path d="M0 2l4 4 4-4H0z"/></symbol><symbol id="caret-left" viewBox="0 0 8 8"><path d="M6 0L2 4l4 4V0z"/></symbol><symbol id="caret-right" viewBox="0 0 8 8"><path d="M2 0v8l4-4-4-4z"/></symbol><symbol id="caret-top" viewBox="0 0 8 8"><path d="M4 2L0 6h8L4 2z"/></symbol><symbol id="cart" viewBox="0 0 8 8"><path d="M.344 1A.506.506 0 0 0 .5 2H2l.094.25L2.5 3.5l.406 1.25c.04.13.204.25.344.25h3.5c.14 0 .304-.12.344-.25l.813-2.53C7.947 2.1 7.89 2 7.75 2H3.314l-.375-.72A.5.5 0 0 0 2.5 1h-2a.5.5 0 0 0-.094 0 .502.502 0 0 0-.063 0zM3.5 6c-.276 0-.5.224-.5.5s.224.5.5.5.5-.224.5-.5-.224-.5-.5-.5zm3 0c-.276 0-.5.224-.5.5s.224.5.5.5.5-.224.5-.5-.224-.5-.5-.5z"/></symbol><symbol id="chat" viewBox="0 0 8 8"><path d="M0 0v5l1-1h1V1h3V0H0zm3 2v4h4l1 1V2H3z"/></symbol><symbol id="check" viewBox="0 0 8 8"><path d="M6.406 1l-.72.688-2.78 2.78-.78-.78L1.405 3 0 4.406l.688.72 1.5 1.5.72.687.718-.688 3.5-3.5.688-.72L6.408 1z"/></symbol><symbol id="chevron-bottom" viewBox="0 0 8 8"><path d="M1.5 1L0 2.5l4 4 4-4L6.5 1 4 3.5 1.5 1z"/></symbol><symbol id="chevron-left" viewBox="0 0 8 8"><path d="M5 0L1 4l4 4 1.5-1.5L4 4l2.5-2.5L5 0z"/></symbol><symbol id="chevron-right" viewBox="0 0 8 8"><path d="M2.5 0L1 1.5 3.5 4 1 6.5 2.5 8l4-4-4-4z"/></symbol><symbol id="chevron-top" viewBox="0 0 8 8"><path d="M4 1L0 5l1.5 1.5L4 4l2.5 2.5L8 5 4 1z"/></symbol><symbol id="circle-check" viewBox="0 0 8 8"><path d="M4 0C1.79 0 0 1.79 0 4s1.79 4 4 4 4-1.79 4-4-1.79-4-4-4zm2 1.78l.72.72L3.5 5.72 1.78 4l.72-.72 1 1L6 1.78z"/></symbol><symbol id="circle-x" viewBox="0 0 8 8"><path d="M4 0C1.79 0 0 1.79 0 4s1.79 4 4 4 4-1.79 4-4-1.79-4-4-4zM2.5 1.78L4 3.28l1.5-1.5.72.72L4.72 4l1.5 1.5-.72.72L4 4.72l-1.5 1.5-.72-.72L3.28 4l-1.5-1.5.72-.72z"/></symbol><symbol id="clipboard" viewBox="0 0 8 8"><path d="M3.5 0c-.28 0-.5.22-.5.5V1h-.75c-.14 0-.25.11-.25.25V2h3v-.75C5 1.11 4.89 1 4.75 1H4V.5c0-.28-.22-.5-.5-.5zM.25 1C.11 1 0 1.11 0 1.25v6.5c0 .14.11.25.25.25h6.5c.14 0 .25-.11.25-.25v-6.5C7 1.11 6.89 1 6.75 1H6v2H1V1H.25z"/></symbol><symbol id="clock" viewBox="0 0 8 8"><path d="M4 0C1.797 0 0 1.797 0 4c0 2.203 1.797 4 4 4 2.203 0 4-1.797 4-4 0-2.203-1.797-4-4-4zm0 1c1.663 0 3 1.337 3 3S5.663 7 4 7 1 5.663 1 4s1.337-3 3-3zm-.5 1v2.22l.156.124.5.5.344.375.72-.72-.376-.344-.344-.344V2h-1z"/></symbol><symbol id="cloud-download" viewBox="0 0 8 8"><path d="M4.5 0C3.29 0 2.23.86 2 2 .9 2 0 2.9 0 4c0 .37.11.7.28 1H3v-.5C3 3.67 3.67 3 4.5 3S6 3.67 6 4.5V5h1.906c.05-.16.094-.32.094-.5 0-.65-.42-1.29-1-1.5v-.5C7 1.12 5.88 0 4.5 0zm-.156 4A.5.5 0 0 0 4 4.5V6H2.5l2 2 2-2H5V4.5a.5.5 0 0 0-.594-.5.5.5 0 0 0-.063 0z"/></symbol><symbol id="cloud-upload" viewBox="0 0 8 8"><path d="M4.5 0C3.29 0 2.23.86 2 2 .9 2 0 2.9 0 4c0 .37.11.7.28 1H2.5l2-2 2 2h1.406c.05-.16.094-.32.094-.5 0-.65-.42-1.29-1-1.5v-.5C7 1.12 5.88 0 4.5 0zm0 4.5L2 7h2v.5a.5.5 0 1 0 1 0V7h2L4.5 4.5z"/></symbol><symbol id="cloud" viewBox="0 0 8 8"><path d="M4.5 1C3.29 1 2.23 1.86 2 3 .9 3 0 3.9 0 5s.9 2 2 2h4.5C7.33 7 8 6.33 8 5.5c0-.65-.42-1.29-1-1.5v-.5C7 2.12 5.88 1 4.5 1z"/></symbol><symbol id="cloudy" viewBox="0 0 8 8"><path d="M2.5 0C1.12 0 0 1.12 0 2.5c0 .39.09.743.25 1.063.3-.21.63-.38 1-.47C1.8 1.844 3.07 1.01 4.5 1c-.46-.6-1.18-1-2-1zm2 2C3.29 2 2.23 2.86 2 4 .9 4 0 4.9 0 6s.9 2 2 2h4.5C7.33 8 8 7.33 8 6.5c0-.65-.42-1.29-1-1.5v-.5C7 3.12 5.88 2 4.5 2z"/></symbol><symbol id="code" viewBox="0 0 8 8"><path d="M5 1L2 7h1l3-6H5zM1 2L0 4l1 2h1L1 4l1-2H1zm5 0l1 2-1 2h1l1-2-1-2H6z"/></symbol><symbol id="cog" viewBox="0 0 8 8"><path d="M3.5 0L3 1.188c-.1.04-.19.085-.28.125l-1.19-.5-.718.72.5 1.187c-.05.1-.095.18-.125.28L0 3.5v1l1.187.5c.03.1.075.214.125.314l-.5 1.156.72.72 1.187-.5c.1.05.18.084.28.124l.5 1.188h1L5 6.814c.1-.03.19-.085.28-.125l1.19.5.718-.72-.5-1.188c.04-.09.085-.18.125-.28L8 4.5v-1L6.814 3c-.03-.09-.075-.192-.125-.282l.47-1.188-.69-.72-1.187.5c-.09-.04-.18-.094-.28-.124L4.5 0h-1zM4 2.5c.83 0 1.5.67 1.5 1.5S4.83 5.5 4 5.5 2.5 4.83 2.5 4 3.17 2.5 4 2.5z"/></symbol><symbol id="collapse-down" viewBox="0 0 8 8"><path d="M0 0v2h8V0H0zm2 3l2 2 2-2H2zM0 7v1h8V7H0z"/></symbol><symbol id="collapse-left" viewBox="0 0 8 8"><path d="M0 0v8h1V0H0zm6 0v8h2V0H6zM5 2L3 4l2 2V2z"/></symbol><symbol id="collapse-right" viewBox="0 0 8 8"><path d="M0 0v8h2V0H0zm7 0v8h1V0H7zM3 2v4l2-2-2-2z"/></symbol><symbol id="collapse-up" viewBox="0 0 8 8"><path d="M0 0v1h8V0H0zm4 3L2 5h4L4 3zM0 6v2h8V6H0z"/></symbol><symbol id="command" viewBox="0 0 8 8"><path d="M1.5 0C.67 0 0 .67 0 1.5S.67 3 1.5 3H2v1h-.5C.67 4 0 4.67 0 5.5S.67 7 1.5 7 3 6.33 3 5.5V5h1v.5C4 6.33 4.67 7 5.5 7S7 6.33 7 5.5 6.33 4 5.5 4H5V3h.5C6.33 3 7 2.33 7 1.5S6.33 0 5.5 0 4 .67 4 1.5V2H3v-.5C3 .67 2.33 0 1.5 0zm0 1c.28 0 .5.22.5.5V2h-.5c-.28 0-.5-.22-.5-.5s.22-.5.5-.5zm4 0c.28 0 .5.22.5.5s-.22.5-.5.5H5v-.5c0-.28.22-.5.5-.5zM3 3h1v1H3V3zM1.5 5H2v.5c0 .28-.22.5-.5.5S1 5.78 1 5.5s.22-.5.5-.5zM5 5h.5c.28 0 .5.22.5.5s-.22.5-.5.5-.5-.22-.5-.5V5z"/></symbol><symbol id="comment-square" viewBox="0 0 8 8"><path d="M.094 0C.034 0 0 .034 0 .094v5.813C0 5.967.034 6 .094 6H6l2 2V.096C8 .035 7.966 0 7.906 0H.093z"/></symbol><symbol id="compass" viewBox="0 0 8 8"><path d="M4 0C1.797 0 0 1.797 0 4c0 2.203 1.797 4 4 4 2.203 0 4-1.797 4-4 0-2.203-1.797-4-4-4zm0 1c1.663 0 3 1.337 3 3S5.663 7 4 7 1 5.663 1 4s1.337-3 3-3zm2 1L3 3 2 6l3-1 1-3zM4 3.5c.28 0 .5.22.5.5s-.22.5-.5.5-.5-.22-.5-.5.22-.5.5-.5z"/></symbol><symbol id="contrast" viewBox="0 0 8 8"><path d="M4 0C1.797 0 0 1.797 0 4c0 2.203 1.797 4 4 4 2.203 0 4-1.797 4-4 0-2.203-1.797-4-4-4zm0 1c1.663 0 3 1.337 3 3S5.663 7 4 7V1z"/></symbol><symbol id="copywriting" viewBox="0 0 8 8"><path d="M0 0v1h8V0H0zm0 2v1h5V2H0zm0 3v1h8V5H0zm0 2v1h6V7H0zm7.5 0c-.276 0-.5.224-.5.5s.224.5.5.5.5-.224.5-.5-.224-.5-.5-.5z"/></symbol><symbol id="credit-card" viewBox="0 0 8 8"><path d="M.25 1C.11 1 0 1.11 0 1.25V2h8v-.75C8 1.11 7.89 1 7.75 1H.25zM0 3v3.75c0 .14.11.25.25.25h7.5c.14 0 .25-.11.25-.25V3H0zm1 2h1v1H1V5zm2 0h1v1H3V5z"/></symbol><symbol id="crop" viewBox="0 0 8 8"><path d="M1 0v1H0v1h1v5h5v1h1V7h1V6H7V1.5l1-1-.5-.5-1 1H2V0H1zm1 2h3.5L2 5.5V2zm4 .5V6H2.5L6 2.5z"/></symbol><symbol id="dashboard" viewBox="0 0 8 8"><path d="M4 0C1.797 0 0 1.797 0 4c0 2.203 1.797 4 4 4 2.203 0 4-1.797 4-4 0-2.203-1.797-4-4-4zm0 1c1.663 0 3 1.337 3 3S5.663 7 4 7 1 5.663 1 4s1.337-3 3-3zm0 1c-.276 0-.5.224-.5.5s.224.5.5.5.5-.224.5-.5S4.276 2 4 2zM2.344 3a.5.5 0 0 0-.188.844l.906.906C3.04 4.835 3 4.908 3 5c0 .552.447 1 1 1s1-.448 1-1-.45-1-1-1c-.093 0-.166.04-.25.063l-.907-.906A.5.5 0 0 0 2.405 3a.5.5 0 0 0-.063 0zM5.5 3c-.276 0-.5.224-.5.5s.224.5.5.5.5-.224.5-.5-.224-.5-.5-.5z"/></symbol><symbol id="data-transfer-download" viewBox="0 0 8 8"><path d="M3 0v3H1l3 3 3-3H5V0H3zM0 7v1h8V7H0z"/></symbol><symbol id="data-transfer-upload" viewBox="0 0 8 8"><path d="M0 0v1h8V0H0zm4 2L1 5h2v3h2V5h2L4 2z"/></symbol><symbol id="delete" viewBox="0 0 8 8"><path d="M2 1L0 4l2 3h6V1H2zm1.5.78L5 3.28l1.5-1.5.72.72L5.72 4l1.5 1.5-.72.72L5 4.72l-1.5 1.5-.72-.72L4.28 4l-1.5-1.5.72-.72z"/></symbol><symbol id="dial" viewBox="0 0 8 8"><path d="M4 1C1.8 1 0 2.8 0 5h1c0-1.66 1.34-3 3-3s3 1.34 3 3h1c0-2.2-1.8-4-4-4zm-.594 2.094C2.586 3.344 2 4.1 2 5c0 1.1.9 2 2 2s2-.9 2-2c0-.9-.586-1.656-1.406-1.906L4 3.97l-.594-.876z"/></symbol><symbol id="document" viewBox="0 0 8 8"><path d="M0 0v8h7V4H3V0H0zm4 0v3h3L4 0zM1 2h1v1H1V2zm0 2h1v1H1V4zm0 2h4v1H1V6z"/></symbol><symbol id="dollar" viewBox="0 0 8 8"><path d="M3 0v1h-.75C1.564 1 1 1.564 1 2.25v.5c0 .678.437 1.242 1.094 1.406l2.563.656c.143.036.344.296.344.438v.5c0 .134-.115.25-.25.25h-2.5c-.115 0-.21-.037-.25-.063V5H1v1c0 .34.204.626.44.78.233.155.517.22.812.22h.75v1h1V7h.75c.686 0 1.25-.565 1.25-1.25v-.5c0-.68-.437-1.243-1.094-1.407l-2.563-.656C2.202 3.15 2 2.89 2 2.75v-.5c0-.135.117-.25.25-.25h2.5c.117 0 .213.036.25.062V3h1V2c0-.342-.202-.627-.437-.78C5.33 1.063 5.045 1 4.75 1H4V0H3z"/></symbol><symbol id="double-quote-sans-left" viewBox="0 0 8 8"><path d="M0 1v6l3-3V1H0zm5 0v6l3-3V1H5z"/></symbol><symbol id="double-quote-sans-right" viewBox="0 0 8 8"><path d="M3 1L0 4v3h3V1zm5 0L5 4v3h3V1z"/></symbol><symbol id="double-quote-serif-left" viewBox="0 0 8 8"><path d="M3 1C1.35 1 0 2.35 0 4v3h3V4H1c0-1.11.89-2 2-2V1zm5 0C6.35 1 5 2.35 5 4v3h3V4H6c0-1.11.89-2 2-2V1z"/></symbol><symbol id="double-quote-serif-right" viewBox="0 0 8 8"><path d="M0 1v3h2c0 1.11-.89 2-2 2v1c1.65 0 3-1.35 3-3V1H0zm5 0v3h2c0 1.11-.89 2-2 2v1c1.65 0 3-1.35 3-3V1H5z"/></symbol><symbol id="droplet" viewBox="0 0 8 8"><path d="M4 0l-.344.344C3.546.454 1 3.03 1 5.22c0 1.65 1.35 3 3 3s3-1.35 3-3C7 3.03 4.454.453 4.344.343L4 0zM2.5 4.72c.28 0 .5.22.5.5 0 .55.45 1 1 1 .28 0 .5.22.5.5s-.22.5-.5.5c-1.1 0-2-.9-2-2 0-.28.22-.5.5-.5z"/></symbol><symbol id="eject" viewBox="0 0 8 8"><path d="M4 0L0 5h8L4 0zM0 6v2h8V6H0z"/></symbol><symbol id="elevator" viewBox="0 0 8 8"><path d="M4 0L1 3h6L4 0zM1 5l3 3 3-3H1z"/></symbol><symbol id="ellipses" viewBox="0 0 8 8"><path d="M0 3v2h2V3H0zm3 0v2h2V3H3zm3 0v2h2V3H6z"/></symbol><symbol id="envelope-closed" viewBox="0 0 8 8"><path d="M0 1v1l4 2 4-2V1H0zm0 2v4h8V3L4 5 0 3z"/></symbol><symbol id="envelope-open" viewBox="0 0 8 8"><path d="M4 0L0 2v6h8V2L4 0zm0 1.125l3 1.5V4.5L4 6 1 4.5V2.625l3-1.5zM2 3v1l2 1 2-1V3H2z"/></symbol><symbol id="euro" viewBox="0 0 8 8"><path d="M5 0C3.142 0 1.602 1.278 1.156 3H-.75L-1 4h2c0 .345.073.68.156 1h-1.97L-1 6H1.56C2.258 7.185 3.532 8 5 8c.734 0 1.407-.215 2-.563v-1.22C6.47 6.698 5.775 7 5 7c-.888 0-1.67-.393-2.22-1H5l.156-1h-2.97C2.075 4.68 2 4.355 2 4h3.343L5.5 3H2.185C2.6 1.84 3.693 1 5 1c.654 0 1.257.208 1.75.562L6.904.5C6.335.185 5.692 0 5 0z"/></symbol><symbol id="excerpt" viewBox="0 0 8 8"><path d="M0 0v1h7V0H0zm0 2v1h5V2H0zm0 2v1h8V4H0zm0 2v1h1V6H0zm2 0v1h1V6H2zm2 0v1h1V6H4z"/></symbol><symbol id="expand-down" viewBox="0 0 8 8"><path d="M0 0v1h8V0H0zm2 2l2 2 2-2H2zM0 6v2h8V6H0z"/></symbol><symbol id="expand-left" viewBox="0 0 8 8"><path d="M0 0v8h1V0H0zm6 0v8h2V0H6zM2 2v4l2-2-2-2z"/></symbol><symbol id="expand-right" viewBox="0 0 8 8"><path d="M0 0v8h2V0H0zm7 0v8h1V0H7zM6 2L4 4l2 2V2z"/></symbol><symbol id="expand-up" viewBox="0 0 8 8"><path d="M0 0v2h8V0H0zm4 4L2 6h4L4 4zM0 7v1h8V7H0z"/></symbol><symbol id="external-link" viewBox="0 0 8 8"><path d="M0 0v8h8V6H7v1H1V1h1V0H0zm4 0l1.5 1.5L3 4l1 1 2.5-2.5L8 4V0H4z"/></symbol><symbol id="eye" viewBox="0 0 8 8"><path d="M4.03 1C1.5 1 0 4 0 4s1.5 3 4.03 3C6.5 7 8 4 8 4S6.5 1 4.03 1zM4 2c1.1 0 2 .9 2 2s-.9 2-2 2-2-.9-2-2 .9-2 2-2zm0 1c-.55 0-1 .45-1 1s.45 1 1 1 1-.45 1-1c0-.1-.032-.19-.063-.28-.08.16-.237.28-.438.28-.28 0-.5-.22-.5-.5 0-.2.12-.357.28-.438C4.19 3.032 4.1 3 4 3z"/></symbol><symbol id="eyedropper" viewBox="0 0 8 8"><path d="M3.313 0a.5.5 0 0 0-.188.844l.625.625L.156 5.124 0 5.28V8h2.72l.124-.156L6.5 4.188l.625.656a.5.5 0 1 0 .72-.688l-.94-.938.657-.656c.59-.58.59-1.545 0-2.125-.56-.57-1.555-.57-2.125 0l-.656.656-.937-.938A.5.5 0 0 0 3.373 0a.5.5 0 0 0-.062 0zM4.47 2.188L5.78 3.5 2.626 6.658l-1.28-1.313L4.47 2.188z"/></symbol><symbol id="file" viewBox="0 0 8 8"><path d="M0 0v8h7V4H3V0H0zm4 0v3h3L4 0z"/></symbol><symbol id="fire" viewBox="0 0 8 8"><path d="M2 0c1 2-2 3-2 5s2 3 2 3c-.98-1.98 2-3 2-5S2 0 2 0zm3 3c1 2-2 3-2 5h3c.4 0 1-.5 1-2 0-2-2-3-2-3z"/></symbol><symbol id="flag" viewBox="0 0 8 8"><path d="M0 0v8h1V0H0zm2 0v4h2v1h4L6 3.03 8 1H5V0H2z"/></symbol><symbol id="flash" viewBox="0 0 8 8"><path d="M3.5 0L2 3h2l-.656 2H2l1 3 3-3H4.5L6 2H4l1-2H3.5z"/></symbol><symbol id="folder" viewBox="0 0 8 8"><path d="M0 0v2h8V1H3V0H0zm0 3v4.5c0 .28.22.5.5.5h7c.28 0 .5-.22.5-.5V3H0z"/></symbol><symbol id="fork" viewBox="0 0 8 8"><path d="M1.5 0C.672 0 0 .672 0 1.5c0 .656.414 1.202 1 1.406v2.188c-.586.204-1 .75-1 1.406C0 7.328.672 8 1.5 8S3 7.328 3 6.5c0-.595-.34-1.1-.844-1.344.09-.09.205-.156.344-.156h2C5.323 5 6 4.323 6 3.5v-.594c.586-.204 1-.75 1-1.406C7 .672 6.328 0 5.5 0S4 .672 4 1.5c0 .656.414 1.202 1 1.406V3.5c0 .277-.223.5-.5.5h-2c-.17 0-.346.04-.5.094V2.906c.586-.204 1-.75 1-1.406C3 .672 2.328 0 1.5 0z"/></symbol><symbol id="fullscreen-enter" viewBox="0 0 8 8"><path d="M0 0v4l1.5-1.5L3 4l1-1-1.5-1.5L4 0H0zm5 4L4 5l1.5 1.5L4 8h4V4L6.5 5.5 5 4z"/></symbol><symbol id="fullscreen-exit" viewBox="0 0 8 8"><path d="M1 0L0 1l1.5 1.5L0 4h4V0L2.5 1.5 1 0zm3 4v4l1.5-1.5L7 8l1-1-1.5-1.5L8 4H4z"/></symbol><symbol id="globe" viewBox="0 0 8 8"><path d="M4 0C1.79 0 0 1.79 0 4s1.79 4 4 4 4-1.79 4-4-1.79-4-4-4zm0 1c.333 0 .637.086.938.188-.214.197-.45.383-.406.563.04.18.688.13.688.5 0 .27-.425.347-.125.657.35.35-.636.978-.656 1.438-.03.83.84.97 1.53.97.424 0 .503.194.47.437C5.892 6.51 5 7.002 4 7.002c-.377 0-.728-.09-1.062-.22.224-.44-.313-1.343-.78-1.624-.227-.226-.69-.114-.97-.22-.092-.27-.178-.544-.188-.843.03-.05.08-.094.156-.094.19 0 .454.375.594.345.18-.04-.742-1.313-.313-1.563.2-.12.61.394.47-.156-.12-.51.365-.276.655-.406.26-.11.455-.414.125-.594-.057-.03-.133-.104-.22-.188C2.918 1.168 3.44 1 4 1zm2.313 1.094c.184.222.323.48.438.75-.042.065-.082.114-.187.22-.29.27-.327-.213-.438-.314-.13-.11-.638.025-.688-.125-.077-.18.5-.418.875-.53z"/></symbol><symbol id="graph" viewBox="0 0 8 8"><path d="M7.03 0L4 3 3 2 0 5.03l1 1L3 4l1 1 4-4-.97-1zM0 7v1h8V7H0z"/></symbol><symbol id="grid-four-up" viewBox="0 0 8 8"><path d="M0 0v1h1V0H0zm2 0v1h1V0H2zm2 0v1h1V0H4zm2 0v1h1V0H6zM0 2v1h1V2H0zm2 0v1h1V2H2zm2 0v1h1V2H4zm2 0v1h1V2H6zM0 4v1h1V4H0zm2 0v1h1V4H2zm2 0v1h1V4H4zm2 0v1h1V4H6zM0 6v1h1V6H0zm2 0v1h1V6H2zm2 0v1h1V6H4zm2 0v1h1V6H6z"/></symbol><symbol id="grid-three-up" viewBox="0 0 8 8"><path d="M0 0v2h2V0H0zm3 0v2h2V0H3zm3 0v2h2V0H6zM0 3v2h2V3H0zm3 0v2h2V3H3zm3 0v2h2V3H6zM0 6v2h2V6H0zm3 0v2h2V6H3zm3 0v2h2V6H6z"/></symbol><symbol id="grid-two-up" viewBox="0 0 8 8"><path d="M0 0v3h3V0H0zm5 0v3h3V0H5zM0 5v3h3V5H0zm5 0v3h3V5H5z"/></symbol><symbol id="hard-drive" viewBox="0 0 8 8"><path d="M.188 0C.078 0 0 .077 0 .188V3.5c0 .28.22.5.5.5h6c.28 0 .5-.22.5-.5V.19C7 .078 6.923 0 6.812 0H.187zM0 4.906v2.906C0 7.922.077 8 .188 8h6.625C6.923 8 7 7.923 7 7.812V4.906c-.16.05-.32.094-.5.094h-6c-.18 0-.34-.044-.5-.094zM5.5 6c.28 0 .5.22.5.5s-.22.5-.5.5-.5-.22-.5-.5.22-.5.5-.5z"/></symbol><symbol id="header" viewBox="0 0 8 8"><path d="M0 0v1h.5c.28 0 .5.22.5.5v4c0 .28-.22.5-.5.5H0v1h3V6h-.5c-.28 0-.5-.22-.5-.5V4h3v1.5c0 .28-.22.5-.5.5H4v1h3V6h-.5c-.28 0-.5-.22-.5-.5v-4c0-.28.22-.5.5-.5H7V0H4v1h.5c.28 0 .5.22.5.5V3H2V1.5c0-.28.22-.5.5-.5H3V0H0z"/></symbol><symbol id="headphones" viewBox="0 0 8 8"><path d="M4 0C2.35 0 1 1.35 1 3v1H.5a.5.5 0 0 0-.5.5v2a.5.5 0 0 0 .5.5h1a.5.5 0 0 0 .5-.5V3c0-1.11.89-2 2-2s2 .89 2 2v3.5a.5.5 0 0 0 .5.5h1a.5.5 0 0 0 .5-.5v-2a.5.5 0 0 0-.5-.5H7V3c0-1.65-1.35-3-3-3z"/></symbol><symbol id="heart" viewBox="0 0 8 8"><path d="M2 1c-.55 0-1.046.224-1.406.594C.224 1.954 0 2.45 0 3c0 .55.224 1.046.594 1.406L4 7.844l3.406-3.438C7.776 4.036 8 3.55 8 3c0-.55-.224-1.046-.594-1.406C7.046 1.224 6.55 1 6 1c-.55 0-1.046.224-1.406.594C4.224 1.954 4 2.45 4 3c0-.55-.224-1.046-.594-1.406C3.046 1.224 2.55 1 2 1z"/></symbol><symbol id="home" viewBox="0 0 8 8"><path d="M4 0L0 3h1v4h2V5h2v2h2V2.97L8 3 4 0z"/></symbol><symbol id="image" viewBox="0 0 8 8"><path d="M0 0v8h8V0H0zm1 1h6v3L6 3 5 4l2 2v1H6L2 3 1 4V1z"/></symbol><symbol id="inbox" viewBox="0 0 8 8"><path d="M.188 0C.078 0 0 .077 0 .188v7.625C0 7.923.077 8 .188 8h7.625C7.923 8 8 7.925 8 7.814V.188C8 .078 7.925 0 7.814 0H.188zM1 2h6v3H6L5 6H3L2 5H1V2z"/></symbol><symbol id="infinity" viewBox="0 0 8 8"><path d="M2 2C.69 2 0 3.01 0 4s.69 2 2 2c.79 0 1.42-.56 2-1.22C4.58 5.44 5.19 6 6 6c1.31 0 2-1.01 2-2s-.69-2-2-2c-.81 0-1.42.56-2 1.22C3.43 2.56 2.79 2 2 2zm0 1c.42 0 .884.47 1.344 1-.46.53-.924 1-1.344 1-.74 0-1-.54-1-1 0-.46.26-1 1-1zm4 0c.74 0 1 .54 1 1 0 .46-.26 1-1 1-.43 0-.894-.47-1.344-1 .45-.53.914-1 1.344-1z"/></symbol><symbol id="info" viewBox="0 0 8 8"><path d="M5 0c-.552 0-1 .448-1 1s.448 1 1 1 1-.448 1-1-.448-1-1-1zM3.5 2.5C2.67 2.5 2 3.17 2 4h1c0-.28.22-.5.5-.5s.5.22.5.5-1 1.64-1 2.5C3 7.36 3.67 8 4.5 8S6 7.33 6 6.5H5c0 .28-.22.5-.5.5S4 6.78 4 6.5C4 6.14 5 4.66 5 4c0-.81-.67-1.5-1.5-1.5z"/></symbol><symbol id="italic" viewBox="0 0 8 8"><path d="M2 0v1h1.625l-.063.125-2 5L1.218 7h-1.22v1h5V7H3.375l.063-.125 2-5L5.78 1H7V0H2z"/></symbol><symbol id="justify-center" viewBox="0 0 8 8"><path d="M0 0v1h8V0H0zm0 2v1h8V2H0zm0 2v1h8V4H0zm1 2v1h6V6H1z"/></symbol><symbol id="justify-left" viewBox="0 0 8 8"><path d="M0 0v1h8V0H0zm0 2v1h8V2H0zm0 2v1h8V4H0zm0 2v1h6V6H0z"/></symbol><symbol id="justify-right" viewBox="0 0 8 8"><path d="M0 0v1h8V0H0zm0 2v1h8V2H0zm0 2v1h8V4H0zm2 2v1h6V6H2z"/></symbol><symbol id="key" viewBox="0 0 8 8"><path d="M5.5 0C4.12 0 3 1.12 3 2.5c0 .16.033.297.063.438L0 6v2h3V6h2V5l.063-.062c.14.03.277.063.438.063C6.88 5 8 3.88 8 2.5S6.88 0 5.5 0zM6 1c.55 0 1 .45 1 1s-.45 1-1 1-1-.45-1-1 .45-1 1-1z"/></symbol><symbol id="laptop" viewBox="0 0 8 8"><path d="M1.344 1A.5.5 0 0 0 1 1.5V5H0v1.5c0 .28.22.5.5.5h7c.28 0 .5-.22.5-.5V5H7V1.5a.5.5 0 0 0-.5-.5h-5a.5.5 0 0 0-.094 0 .5.5 0 0 0-.063 0zM2 2h4v3H5v1H3V5H2V2z"/></symbol><symbol id="layers" viewBox="0 0 8 8"><path d="M0 0v4h4V0H0zm5 2v3H2v1h4V2H5zm2 2v3H4v1h4V4H7z"/></symbol><symbol id="lightbulb" viewBox="0 0 8 8"><path d="M4.406 0a.5.5 0 0 0-.125.063l-3 1.5a.5.5 0 1 0 .44.875l3-1.5A.5.5 0 0 0 4.405 0zm1 1.5a.5.5 0 0 0-.125.063l-4 2a.5.5 0 1 0 .44.875l4-2a.5.5 0 0 0-.314-.938zm0 2a.5.5 0 0 0-.125.063l-3 1.5A.5.5 0 0 0 2.5 6h2a.506.506 0 0 0 .156-1L5.72 4.44a.5.5 0 0 0-.314-.938zM2.843 7A.506.506 0 0 0 3 8h1a.5.5 0 1 0 0-1H3a.5.5 0 0 0-.095 0 .502.502 0 0 0-.063 0z"/></symbol><symbol id="link-broken" viewBox="0 0 8 8"><path d="M2 0v1H1v1h2V0H2zm3.875.03c-.184.01-.354.03-.53.095-.27.095-.532.25-.75.47l-.44.437a.5.5 0 1 0 .69.688l.437-.438c.1-.1.245-.173.375-.22.352-.125.78-.063 1.063.22.395.39.4 1.037 0 1.438l-1.5 1.5a.5.5 0 1 0 .688.688l1.5-1.5c.78-.78.785-2.04 0-2.813-.28-.28-.606-.452-.97-.53-.18-.04-.378-.042-.562-.032zM2.28 2.938a.5.5 0 0 0-.187.156l-1.5 1.5c-.78.78-.785 2.04 0 2.813.557.557 1.355.722 2.063.47.27-.096.53-.25.75-.47l.438-.438a.5.5 0 1 0-.688-.688l-.438.438c-.1.1-.245.173-.375.22-.352.125-.78.063-1.063-.22-.395-.39-.4-1.037 0-1.438l1.5-1.5a.5.5 0 0 0-.438-.844.5.5 0 0 0-.063 0zM5 6v2h1V7h1V6H5z"/></symbol><symbol id="link-intact" viewBox="0 0 8 8"><path d="M5.875.03c-.184.01-.354.03-.53.095-.27.095-.532.25-.75.47a.5.5 0 1 0 .687.687c.1-.1.245-.173.375-.22.352-.125.78-.063 1.063.22.395.39.4 1.037 0 1.438l-1.5 1.5c-.434.434-.8.483-1.063.47-.264-.016-.406-.126-.406-.126a.504.504 0 1 0-.5.875s.34.22.845.25c.504.027 1.197-.166 1.813-.782l1.5-1.5c.78-.78.785-2.04 0-2.813-.28-.28-.606-.452-.97-.53-.18-.04-.378-.042-.562-.032zm-2 2.314c-.5-.02-1.186.155-1.78.75l-1.5 1.5c-.78.78-.786 2.04 0 2.813.556.557 1.354.722 2.062.47.27-.096.53-.25.75-.47a.5.5 0 1 0-.688-.688c-.102.1-.246.172-.376.218-.352.126-.78.064-1.063-.22-.394-.388-.4-1.036 0-1.437l1.5-1.5c.406-.404.753-.447 1.032-.437.28.01.47.094.47.094a.5.5 0 1 0 .437-.875s-.344-.2-.845-.22z"/></symbol><symbol id="list-rich" viewBox="0 0 8 8"><path d="M0 0v3h3V0H0zm4 0v1h4V0H4zm0 2v1h3V2H4zM0 4v3h3V4H0zm4 0v1h4V4H4zm0 2v1h3V6H4z"/></symbol><symbol id="list" viewBox="0 0 8 8"><path d="M.5 0C.224 0 0 .224 0 .5s.224.5.5.5.5-.224.5-.5S.776 0 .5 0zM2 0v1h6V0H2zM.5 2c-.276 0-.5.224-.5.5s.224.5.5.5.5-.224.5-.5S.776 2 .5 2zM2 2v1h6V2H2zM.5 4c-.276 0-.5.224-.5.5s.224.5.5.5.5-.224.5-.5S.776 4 .5 4zM2 4v1h6V4H2zM.5 6c-.276 0-.5.224-.5.5s.224.5.5.5.5-.224.5-.5S.776 6 .5 6zM2 6v1h6V6H2z"/></symbol><symbol id="location" viewBox="0 0 8 8"><path d="M8 0L0 4l3 1 1 3 4-8z"/></symbol><symbol id="lock-locked" viewBox="0 0 8 8"><path d="M4 0C2.9 0 2 .9 2 2v1H1v4h6V3H6V2c0-1.1-.9-2-2-2zm0 1c.56 0 1 .44 1 1v1H3V2c0-.56.44-1 1-1z"/></symbol><symbol id="lock-unlocked" viewBox="0 0 8 8"><path d="M4 0C2.9 0 2 .9 2 2h1c0-.56.44-1 1-1s1 .44 1 1v2H1v4h6V4H6V2c0-1.1-.9-2-2-2z"/></symbol><symbol id="loop-circular" viewBox="0 0 8 8"><path d="M4 1C2.35 1 1 2.35 1 4H0l1.5 2L3 4H2c0-1.11.89-2 2-2V1zm2.5 1L5 4h1c0 1.11-.89 2-2 2v1c1.65 0 3-1.35 3-3h1L6.5 2z"/></symbol><symbol id="loop-square" viewBox="0 0 8 8"><path d="M1 0v2h1V1h4v2H5l1.5 2.5L8 3H7V0H1zm.5 2.5L0 5h1v3h6V6H6v1H2V5h1L1.5 2.5z"/></symbol><symbol id="loop" viewBox="0 0 8 8"><path d="M6 0v1H1c-.554 0-1 .446-1 1v1h1V2h5v1l2-1.5L6 0zM2 4L0 5.5 2 7V6h5c.542 0 1-.458 1-1V4H7v1H2V4z"/></symbol><symbol id="magnifying-glass" viewBox="0 0 8 8"><path d="M3.5 0C1.573 0 0 1.573 0 3.5S1.573 7 3.5 7c.592 0 1.166-.145 1.656-.406a1 1 0 0 0 .125.125l1 1a1.016 1.016 0 1 0 1.44-1.44l-1-1a1 1 0 0 0-.157-.124C6.83 4.663 7 4.096 7 3.5 7 1.573 5.43 0 3.5 0zm0 1C4.887 1 6 2.113 6 3.5c0 .66-.24 1.273-.656 1.72l-.03.03a1 1 0 0 0-.126.125C4.746 5.772 4.145 6 3.5 6 2.113 6 1 4.887 1 3.5S2.113 1 3.5 1z"/></symbol><symbol id="map-marker" viewBox="0 0 8 8"><path d="M4 0C2.34 0 1 1.34 1 3c0 2 3 5 3 5s3-3 3-5c0-1.66-1.34-3-3-3zm0 1c1.1 0 2 .9 2 2s-.9 2-2 2-2-.9-2-2 .9-2 2-2z"/></symbol><symbol id="map" viewBox="0 0 8 8"><path d="M0 0v8h8V5.625a.5.5 0 0 0 0-.22V0H0zm1 1h6v4H5.5a.5.5 0 0 0-.094 0A.502.502 0 1 0 5.5 6H7v1H1V1zm2.5 1C2.67 2 2 2.67 2 3.5 2 4.5 3.5 6 3.5 6S5 4.5 5 3.5C5 2.67 4.33 2 3.5 2zm0 1c.28 0 .5.22.5.5s-.22.5-.5.5-.5-.22-.5-.5.22-.5.5-.5z"/></symbol><symbol id="media-pause" viewBox="0 0 8 8"><path d="M1 1v6h2V1H1zm4 0v6h2V1H5z"/></symbol><symbol id="media-play" viewBox="0 0 8 8"><path d="M1 1v6l6-3-6-3z"/></symbol><symbol id="media-record" viewBox="0 0 8 8"><path d="M4 1C2.343 1 1 2.343 1 4s1.343 3 3 3 3-1.343 3-3-1.343-3-3-3z"/></symbol><symbol id="media-skip-backward" viewBox="0 0 8 8"><path d="M4 1L0 4l4 3V1zm0 3l4 3V1L4 4z"/></symbol><symbol id="media-skip-forward" viewBox="0 0 8 8"><path d="M0 1v6l4-3-4-3zm4 3v3l4-3-4-3v3z"/></symbol><symbol id="media-step-backward" viewBox="0 0 8 8"><path d="M0 1v6h2V1H0zm2 3l5 3V1L2 4z"/></symbol><symbol id="media-step-forward" viewBox="0 0 8 8"><path d="M0 1v6l5-3-5-3zm5 3v3h2V1H5v3z"/></symbol><symbol id="media-stop" viewBox="0 0 8 8"><path d="M1 1v6h6V1H1z"/></symbol><symbol id="medical-cross" viewBox="0 0 8 8"><path d="M2 0v2H0v4h2v2h4V6h2V2H6V0H2z"/></symbol><symbol id="menu" viewBox="0 0 8 8"><path d="M0 1v1h8V1H0zm0 2.97v1h8v-1H0zm0 3v1h8v-1H0z"/></symbol><symbol id="microphone" viewBox="0 0 8 8"><path d="M3.906-.03A1 1 0 0 0 3.78 0 1 1 0 0 0 3 1v2a1 1 0 1 0 2 0V1A1 1 0 0 0 3.906-.03zM1.343 2A.5.5 0 0 0 1 2.5V3c0 1.476 1.09 2.693 2.5 2.938V7H3c-.55 0-1 .45-1 1h4c0-.55-.45-1-1-1h-.5V5.94C5.907 5.694 7 4.478 7 3v-.5a.5.5 0 1 0-1 0V3c0 1.11-.892 2-2 2s-2-.89-2-2v-.5a.5.5 0 0 0-.595-.5.5.5 0 0 0-.063 0z"/></symbol><symbol id="minus" viewBox="0 0 8 8"><path d="M0 3v2h8V3H0z"/></symbol><symbol id="monitor" viewBox="0 0 8 8"><path d="M.344 0A.5.5 0 0 0 0 .5v5a.5.5 0 0 0 .5.5H3v1H2c-.55 0-1 .45-1 1h6c0-.55-.45-1-1-1H5V6h2.5a.5.5 0 0 0 .5-.5v-5a.5.5 0 0 0-.5-.5h-7a.5.5 0 0 0-.094 0 .5.5 0 0 0-.063 0zM1 1h6v4H1V1z"/></symbol><symbol id="moon" viewBox="0 0 8 8"><path d="M2.72 0C1.14.53 0 2.02 0 3.78c0 2.21 1.79 4 4 4 1.76 0 3.25-1.17 3.78-2.75-.4.14-.83.25-1.28.25-2.21 0-4-1.79-4-4 0-.44.08-.88.22-1.28z"/></symbol><symbol id="move" viewBox="0 0 8 8"><path d="M3.5 0L2 1.5h1V3H1.5V2L0 3.5 1.5 5V4H3v1.5H2L3.5 7 5 5.5H4V4h1.5v1L7 3.5 5.5 2v1H4V1.5h1L3.5 0z"/></symbol><symbol id="musical-note" viewBox="0 0 8 8"><path d="M8 0C3 0 2 1 2 1v4.094C1.846 5.04 1.673 5 1.5 5 .672 5 0 5.672 0 6.5S.672 8 1.5 8 3 7.328 3 6.5V2.53c.732-.225 1.99-.437 4-.5v2.064C6.846 4.04 6.673 4 6.5 4 5.672 4 5 4.672 5 5.5S5.672 7 6.5 7 8 6.328 8 5.5V0z"/></symbol><symbol id="paperclip" viewBox="0 0 8 8"><path d="M5 0c-.514 0-1.02.2-1.406.594l-2.78 2.72c-1.07 1.07-1.07 2.804 0 3.874 1.07 1.07 2.804 1.07 3.874 0l1.25-1.25-.688-.688-.906.875L4 6.5c-.69.69-1.81.69-2.5 0-.682-.682-.668-1.778 0-2.47l2.78-2.718v-.03c.39-.396 1.038-.4 1.44 0 .387.38.377 1.005 0 1.405l-2.5 2.47c-.096.094-.28.094-.376 0-.095-.096-.095-.28 0-.376l.375-.343.593-.625-.688-.688L2.25 4l-.094.093c-.485.485-.485 1.265 0 1.75.485.485 1.265.485 1.75 0l2.5-2.438c.78-.78.785-2.04 0-2.813C6.016.202 5.513-.002 5-.002z"/></symbol><symbol id="pencil" viewBox="0 0 8 8"><path d="M6 0L5 1l2 2 1-1-2-2zM4 2L0 6v2h2l4-4-2-2z"/></symbol><symbol id="people" viewBox="0 0 8 8"><path d="M5.5 0c-.51 0-.95.355-1.22.875C4.73 1.415 5 2.15 5 3c0 .29-.034.574-.094.844.18.11.374.156.594.156C6.33 4 7 3.1 7 2s-.67-2-1.5-2zm-3 1C1.672 1 1 1.895 1 3s.672 2 1.5 2S4 4.105 4 3s-.672-2-1.5-2zm4.75 3.156c-.43.51-1.018.824-1.688.844.27.38.438.844.438 1.344V7h2V5.344c0-.52-.31-.968-.75-1.188zm-6.5 1c-.44.22-.75.668-.75 1.188V8h5V6.344c0-.52-.31-.968-.75-1.188C3.81 5.686 3.19 6 2.5 6S1.19 5.686.75 5.156z"/></symbol><symbol id="person" viewBox="0 0 8 8"><path d="M4 0C2.895 0 2 1.12 2 2.5S2.895 5 4 5s2-1.12 2-2.5S5.105 0 4 0zM1.906 5C.836 5.04 0 5.92 0 7v1h8V7c0-1.08-.836-1.96-1.906-2C5.554 5.61 4.81 6 4 6c-.81 0-1.554-.39-2.094-1z"/></symbol><symbol id="phone" viewBox="0 0 8 8"><path d="M1.188 0C1.078 0 1 .077 1 .188v7.625c0 .11.077.188.188.188h4.625C5.923 8 6 7.925 6 7.814V.188C6 .078 5.925 0 5.814 0H1.188zM2 1h3v5H2V1zm1.5 5.5c.28 0 .5.22.5.5s-.22.5-.5.5S3 7.28 3 7s.22-.5.5-.5z"/></symbol><symbol id="pie-chart" viewBox="0 0 8 8"><path d="M3.5 0c-.97 0-1.84.39-2.47 1.03L4 4V.03C3.84 0 3.67 0 3.5 0zM5 1.063V4.47L2.28 7.187c.6.5 1.37.813 2.22.813C6.43 8 8 6.43 8 4.5c0-1.76-1.31-3.196-3-3.437zM.906 2.376C.356 2.916 0 3.66 0 4.5c0 .95.435 1.805 1.125 2.345L3.28 4.72.907 2.376z"/></symbol><symbol id="pin" viewBox="0 0 8 8"><path d="M1.344 0A.502.502 0 0 0 1.5 1H2v2H1c-.55 0-1 .45-1 1h3v3l.438 1L4 7V4h3c0-.55-.45-1-1-1H5V1h.5a.5.5 0 1 0 0-1h-4a.5.5 0 0 0-.093 0 .502.502 0 0 0-.063 0z"/></symbol><symbol id="play-circle" viewBox="0 0 8 8"><path d="M4 0C1.79 0 0 1.79 0 4s1.79 4 4 4 4-1.79 4-4-1.79-4-4-4zM3 2l3 2-3 2V2z"/></symbol><symbol id="plus" viewBox="0 0 8 8"><path d="M3 0v3H0v2h3v3h2V5h3V3H5V0H3z"/></symbol><symbol id="power-standby" viewBox="0 0 8 8"><path d="M3 0v4h1V0H3zM1.72 1.438l-.376.313C.54 2.39 0 3.386 0 4.5 0 6.43 1.57 8 3.5 8S7 6.43 7 4.5c0-1.115-.53-2.11-1.344-2.75L5.28 1.44l-.624.78.375.314c.586.46.97 1.165.97 1.97C6 5.89 4.89 7 3.5 7S1 5.89 1 4.5c0-.805.36-1.51.938-1.97l.406-.313-.625-.782z"/></symbol><symbol id="print" viewBox="0 0 8 8"><path d="M2 0v2h4V0H2zM.094 3C.034 3 0 3.034 0 3.094v2.813C0 5.967.034 6 .094 6H1V4h6v2h.906C7.966 6 8 5.968 8 5.908V3.094C8 3.034 7.966 3 7.906 3H.093zM2 5v3h4V5H2z"/></symbol><symbol id="project" viewBox="0 0 8 8"><path d="M0 0v7h1V0H0zm7 0v7h1V0H7zM2 1v1h2V1H2zm1 2v1h2V3H3zm1 2v1h2V5H4z"/></symbol><symbol id="pulse" viewBox="0 0 8 8"><path d="M3.25 0l-.47 1.53L2 4.095l-.03-.063-.095-.343H0v1h1.156l.375 1.156.47 1.47.47-1.47.78-2.5.78 2.5.407 1.313.53-1.28.595-1.47.125.28H8v-1H6.312l-.375-.718-.5-1-.406 1.03-.468 1.19-.844-2.657L3.248 0z"/></symbol><symbol id="puzzle-piece" viewBox="0 0 8 8"><path d="M3 0c-.28 0-.54.1-.72.28C2.1.46 2 .72 2 1c0 .28.18.48.28.72.03.06.064.16.064.28H0v6h2.344c0-.12-.01-.22-.03-.28C2.203 7.48 2 7.28 2 7c0-.28.1-.54.28-.72C2.46 6.1 2.72 6 3 6c.28 0 .54.1.72.28.18.18.28.44.28.72 0 .28-.18.48-.28.72-.03.06-.064.16-.064.28H6V5.656c.12 0 .22.01.28.03.24.11.44.314.72.314.28 0 .54-.1.72-.28C7.9 5.54 8 5.28 8 5c0-.28-.1-.54-.28-.72C7.54 4.1 7.28 4 7 4c-.28 0-.48.18-.72.28-.06.03-.16.064-.28.064V2H3.656c0-.12.01-.22.03-.28C3.797 1.48 4 1.28 4 1c0-.28-.1-.54-.28-.72C3.54.1 3.28 0 3 0z"/></symbol><symbol id="question-mark" viewBox="0 0 8 8"><path d="M4.47 0c-.855 0-1.48.256-1.876.656s-.54.9-.594 1.28l1 .126c.036-.26.125-.497.313-.688C3.5 1.184 3.803 1 4.47 1c.663 0 1.018.162 1.218.343.2.18.28.405.28.656 0 .832-.312 1.062-.812 1.5-.5.437-1.188 1.082-1.188 2.25V6h1v-.25c0-.834.344-1.064.844-1.5.5-.44 1.156-1.084 1.156-2.25 0-.48-.168-1.02-.594-1.407C5.948.206 5.304 0 4.468 0zm-.5 7v1h1V7h-1z"/></symbol><symbol id="rain" viewBox="0 0 8 8"><path d="M4.5 0C3.29 0 2.23.86 2 2 .9 2 0 2.9 0 4c0 .52.2 1.015.53 1.375.26-.22.6-.375.97-.375.2 0 .393.055.563.125C2.233 4.485 2.81 4 3.5 4s1.27.485 1.44 1.125C5.11 5.055 5.3 5 5.5 5c.63 0 1.155.388 1.375.938.64-.17 1.125-.747 1.125-1.438 0-.65-.42-1.29-1-1.5v-.5c0-1.38-1.12-2.5-2.5-2.5zM3.344 5A.5.5 0 0 0 3 5.5v2a.5.5 0 1 0 1 0v-2a.5.5 0 0 0-.594-.5.5.5 0 0 0-.063 0zm-2 1A.5.5 0 0 0 1 6.5v1a.5.5 0 1 0 1 0v-1a.5.5 0 0 0-.594-.5.5.5 0 0 0-.063 0zm4 0A.5.5 0 0 0 5 6.5v1a.5.5 0 1 0 1 0v-1a.5.5 0 0 0-.594-.5.5.5 0 0 0-.063 0z"/></symbol><symbol id="random" viewBox="0 0 8 8"><path d="M6 0v1h-.5c-.354 0-.6.116-.813.375L3.28 3.125l-1.5-1.75v-.03C1.57 1.107 1.355 1 1 1H0v1h1c-.037 0 .008-.01.03 0v.03l1.626 1.907-1.625 2.03c.017-.02.02.023 0 .032-.018.008-.067 0-.03 0H0v1h1c.354 0 .6-.117.813-.376l1.53-1.906L4.97 6.624v.03c.21.237.426.345.78.345H6v1l2-1.5L6 5v1h-.25c.037 0-.008.01-.03 0v-.032L3.97 3.905l1.5-1.875V2c.018-.01.067 0 .03 0H6v1l2-1.5L6 0z"/></symbol><symbol id="reload" viewBox="0 0 8 8"><path d="M4 0C1.8 0 0 1.8 0 4s1.8 4 4 4c1.104 0 2.092-.456 2.813-1.188l-.688-.688C5.585 6.672 4.835 7 4 7 2.34 7 1 5.657 1 4s1.34-3 3-3c.834 0 1.545.353 2.094.905L5 3h3V0L6.812 1.186C6.082.467 5.092 0 4 0z"/></symbol><symbol id="resize-both" viewBox="0 0 8 8"><path d="M4 0l1.656 1.656-4 4L0 4v4h4L2.344 6.344l4-4L8 4V0H4z"/></symbol><symbol id="resize-height" viewBox="0 0 8 8"><path d="M3.5 0L1 3h2v2H1l2.5 3L6 5H4V3h2L3.5 0z"/></symbol><symbol id="resize-width" viewBox="0 0 8 8"><path d="M3 1L0 3.5 3 6V4h2v2l3-2.5L5 1v2H3V1z"/></symbol><symbol id="rss-alt" viewBox="0 0 8 8"><path d="M0 0v2c3.33 0 6 2.67 6 6h2c0-4.41-3.59-8-8-8zm0 3v2c1.67 0 3 1.33 3 3h2c0-2.75-2.25-5-5-5zm0 3v2h2c0-1.11-.89-2-2-2z"/></symbol><symbol id="rss" viewBox="0 0 8 8"><path d="M1 0v1c3.32 0 6 2.68 6 6h1c0-3.86-3.14-7-7-7zm0 2v1c2.22 0 4 1.78 4 4h1c0-2.76-2.24-5-5-5zm0 2v1c1.11 0 2 .89 2 2h1c0-1.65-1.35-3-3-3zm0 2c-.552 0-1 .448-1 1s.448 1 1 1 1-.448 1-1-.448-1-1-1z"/></symbol><symbol id="script" viewBox="0 0 8 8"><path d="M3 0c-.55 0-1 .45-1 1v5.5c0 .28-.22.5-.5.5S1 6.78 1 6.5V5H0v2c0 .55.45 1 1 1h5c.55 0 1-.45 1-1V4H3V1.5c0-.28.22-.5.5-.5s.5.22.5.5V3h4V1c0-.55-.45-1-1-1H3z"/></symbol><symbol id="share-boxed" viewBox="0 0 8 8"><path d="M.75 0C.348 0 0 .348 0 .75v5.5c0 .402.348.75.75.75h4.5c.402 0 .75-.348.75-.75V5H5v1H1V1h2V0H.75zM6 0v1C3.95 1 2.296 2.544 2.062 4.53 2.275 3.657 3.062 3 4 3h2v1l2-2-2-2z"/></symbol><symbol id="share" viewBox="0 0 8 8"><path d="M5 0v2C1 2 0 4.05 0 7c.52-1.98 2-3 4-3h1v2l3-3.156L5 0z"/></symbol><symbol id="shield" viewBox="0 0 8 8"><path d="M4 0l-.188.094-3.5 1.47L0 1.687V2C0 3.66.664 5.124 1.467 6.19c.4.532.828.968 1.25 1.28.422.313.826.53 1.28.53.456 0 .86-.218 1.282-.53.422-.313.85-.75 1.25-1.28C7.333 5.123 8 3.66 8 2V1.69l-.314-.125-3.5-1.47L3.998 0zm0 1.094V7c-.045 0-.328-.07-.656-.313s-.714-.63-1.063-1.094c-.64-.85-1.136-2.025-1.218-3.28L4 1.092z"/></symbol><symbol id="signal" viewBox="0 0 8 8"><path d="M6 0v8h1V0H6zM4 1v7h1V1H4zM2 3v5h1V3H2zM0 5v3h1V5H0z"/></symbol><symbol id="signpost" viewBox="0 0 8 8"><path d="M3 0v1H1L0 2l1 1h2v5h1V4h2l1-1-1-1H4V0H3z"/></symbol><symbol id="sort-ascending" viewBox="0 0 8 8"><path d="M2 0v6H0l2.5 2L5 6H3V0H2zm2 0v1h2V0H4zm0 2v1h3V2H4zm0 2v1h4V4H4z"/></symbol><symbol id="sort-descending" viewBox="0 0 8 8"><path d="M2 0v6H0l2.5 2L5 6H3V0H2zm2 0v1h4V0H4zm0 2v1h3V2H4zm0 2v1h2V4H4z"/></symbol><symbol id="spreadsheet" viewBox="0 0 8 8"><path d="M.75 0C.348 0 0 .348 0 .75v5.5c0 .402.348.75.75.75h6.5c.402 0 .75-.348.75-.75V.75C8 .348 7.652 0 7.25 0H.75zM1 1h1v1H1V1zm2 0h4v1H3V1zM1 3h1v1H1V3zm2 0h4v1H3V3zM1 5h1v1H1V5zm2 0h4v1H3V5z"/></symbol><symbol id="star" viewBox="0 0 8 8"><path d="M4 0L3 3H0l2.5 2-1 3L4 6l2.5 2-1-3L8 3H5L4 0z"/></symbol><symbol id="sun" viewBox="0 0 8 8"><path d="M4 0c-.276 0-.5.224-.5.5s.224.5.5.5.5-.224.5-.5S4.276 0 4 0zM1.5 1c-.276 0-.5.224-.5.5s.224.5.5.5.5-.224.5-.5-.224-.5-.5-.5zm5 0c-.276 0-.5.224-.5.5s.224.5.5.5.5-.224.5-.5-.224-.5-.5-.5zM4 2c-1.105 0-2 .895-2 2s.895 2 2 2 2-.895 2-2-.895-2-2-2zM.5 3.5c-.276 0-.5.224-.5.5s.224.5.5.5.5-.224.5-.5-.224-.5-.5-.5zm7 0c-.276 0-.5.224-.5.5s.224.5.5.5.5-.224.5-.5-.224-.5-.5-.5zM1.5 6c-.276 0-.5.224-.5.5s.224.5.5.5.5-.224.5-.5-.224-.5-.5-.5zm5 0c-.276 0-.5.224-.5.5s.224.5.5.5.5-.224.5-.5-.224-.5-.5-.5zM4 7c-.276 0-.5.224-.5.5s.224.5.5.5.5-.224.5-.5S4.276 7 4 7z"/></symbol><symbol id="tablet" viewBox="0 0 8 8"><path d="M.344 0C.164 0 0 .164 0 .344v7.313C0 7.837.164 8 .344 8h6.313C6.837 8 7 7.838 7 7.658V.344C7 .164 6.838 0 6.658 0H.344zM1 1h5v5H1V1zm2.5 5.5c.28 0 .5.22.5.5s-.22.5-.5.5S3 7.28 3 7s.22-.5.5-.5z"/></symbol><symbol id="tag" viewBox="0 0 8 8"><path d="M0 0v3l5 5 3-3-5-5H0zm2 1c.55 0 1 .45 1 1s-.45 1-1 1-1-.45-1-1 .45-1 1-1z"/></symbol><symbol id="tags" viewBox="0 0 8 8"><path d="M0 1v2l3 3 1.5-1.5L5 4 3 2 2 1H0zm3.406 0l3 3-1.188 1.22.78.78 2-2-3-3H3.406zM1.5 2c.28 0 .5.22.5.5s-.22.5-.5.5-.5-.22-.5-.5.22-.5.5-.5z"/></symbol><symbol id="target" viewBox="0 0 8 8"><path d="M4 0C1.797 0 0 1.797 0 4c0 2.203 1.797 4 4 4 2.203 0 4-1.797 4-4 0-2.203-1.797-4-4-4zm0 1c1.663 0 3 1.337 3 3S5.663 7 4 7 1 5.663 1 4s1.337-3 3-3zm0 1c-1.1 0-2 .9-2 2s.9 2 2 2 2-.9 2-2-.9-2-2-2zm0 1c.558 0 1 .442 1 1s-.442 1-1 1-1-.442-1-1 .442-1 1-1z"/></symbol><symbol id="task" viewBox="0 0 8 8"><path d="M0 0v7h7V3.406l-1 1V6H1V1h3.594l1-1H0zm7 0L4 3 3 2 2 3l2 2 4-4-1-1z"/></symbol><symbol id="terminal" viewBox="0 0 8 8"><path d="M.094 0C.034 0 0 .034 0 .094v7.813C0 7.967.034 8 .094 8h7.813C7.967 8 8 7.968 8 7.908V.094C8 .034 7.968 0 7.908 0H.094zM1.5.78L3.22 2.5 1.5 4.22.78 3.5l1-1-1-1L1.5.78zM4 3h3v1H4V3z"/></symbol><symbol id="text" viewBox="0 0 8 8"><path d="M0 0v2h.5c0-.55.45-1 1-1H3v5.5c0 .28-.22.5-.5.5H2v1h4V7h-.5c-.28 0-.5-.22-.5-.5V1h1.5c.55 0 1 .45 1 1H8V0H0z"/></symbol><symbol id="thumb-down" viewBox="0 0 8 8"><path d="M0 0v4h1V0H0zm2 0v4c.28 0 .53.102.72.282.18.19 1.15 2.115 1.28 2.375.13.26.386.393.656.313.26-.08.393-.355.313-.625-.08-.26-.47-1.594-.47-1.844S4.72 4 5 4h1.5c.28 0 .5-.22.5-.5S5.97.314 5.97.314C5.89.133 5.71 0 5.5 0H2z"/></symbol><symbol id="thumb-up" viewBox="0 0 8 8"><path d="M4.438 0c-.19.02-.34.15-.438.344-.13.26-1.1 2.185-1.28 2.375C2.53 2.9 2.28 3 2 3v4h3.5c.21 0 .39-.132.47-.312C5.97 6.688 7 3.78 7 3.5c0-.28-.22-.5-.5-.5H5c-.28 0-.5-.25-.5-.5S4.89.926 4.97.656C5.05.386 4.915.11 4.655.03 4.59.01 4.5-.006 4.436 0zM0 3v4h1V3H0z"/></symbol><symbol id="timer" viewBox="0 0 8 8"><path d="M2 0v1h1v.03C1.303 1.273 0 2.74 0 4.5 0 6.43 1.57 8 3.5 8S7 6.43 7 4.5c0-.45-.086-.874-.22-1.25l-.937.344C5.95 3.898 6 4.19 6 4.5 6 5.89 4.89 7 3.5 7S1 5.89 1 4.5 2.107 2 3.5 2c.297 0 .584.05.874.156l.344-.938c-.22-.08-.47-.12-.72-.156V1h1V0H2zm5 1.125s-3.675 2.8-3.875 3c-.2.2-.2.52 0 .72.2.2.52.2.72 0C4.044 4.654 7 1.124 7 1.124z"/></symbol><symbol id="transfer" viewBox="0 0 8 8"><path d="M6 0v1H0v1h6v1l2-1.5L6 0zM2 4L0 5.5 2 7V6h6V5H2V4z"/></symbol><symbol id="trash" viewBox="0 0 8 8"><path d="M3 0c-.55 0-1 .45-1 1H1c-.55 0-1 .45-1 1h7c0-.55-.45-1-1-1H5c0-.55-.45-1-1-1H3zM1 3v4.813c0 .11.077.188.188.188h4.625C5.923 8 6 7.925 6 7.814V3H5v3.5c0 .28-.22.5-.5.5S4 6.78 4 6.5V3H3v3.5c0 .28-.22.5-.5.5S2 6.78 2 6.5V3H1z"/></symbol><symbol id="underline" viewBox="0 0 8 8"><path d="M1 0v4c0 1.1 1.12 2 2.5 2H4c1.1 0 2-.9 2-2V0H5v4c0 .55-.45 1-1 1s-1-.45-1-1V0H1zM0 7v1h7V7H0z"/></symbol><symbol id="vertical-align-bottom" viewBox="0 0 8 8"><path d="M.094 0C.034 0 0 .034 0 .094v4.813C0 4.967.034 5 .094 5h1.813C1.967 5 2 4.968 2 4.908V.094C2 .034 1.968 0 1.908 0H.094zm6 0C6.034 0 6 .034 6 .094v4.813c0 .06.034.094.094.094h1.813C7.967 5 8 4.968 8 4.908V.094C8 .034 7.968 0 7.908 0H6.094zm-3 2C3.034 2 3 2.034 3 2.094v2.813c0 .06.034.094.094.094h1.813C4.967 5 5 4.968 5 4.908V2.094C5 2.034 4.968 2 4.908 2H3.094zM0 6v1h8V6H0z"/></symbol><symbol id="vertical-align-center" viewBox="0 0 8 8"><path d="M.094 0C.034 0 0 .034 0 .094V2h2V.094C2 .034 1.966 0 1.906 0H.093zm6 0C6.034 0 6 .034 6 .094V2h2V.094C8 .034 7.966 0 7.906 0H6.093zm-3 1C3.034 1 3 1.034 3 1.094V2h2v-.906C5 1.034 4.966 1 4.906 1H3.093zM0 3v1h8V3H0zm0 2v1.906C0 6.966.034 7 .094 7h1.813C1.967 7 2 6.966 2 6.906V5H0zm3 0v.906c0 .06.034.094.094.094h1.813C4.967 6 5 5.966 5 5.906V5H3zm3 0v1.906c0 .06.034.094.094.094h1.813C7.967 7 8 6.966 8 6.906V5H6z"/></symbol><symbol id="vertical-align-top" viewBox="0 0 8 8"><path d="M0 0v1h8V0H0zm.094 2C.034 2 0 2.034 0 2.094v4.813C0 6.967.034 7 .094 7h1.813C1.967 7 2 6.968 2 6.908V2.094C2 2.034 1.968 2 1.908 2H.094zm3 0C3.034 2 3 2.034 3 2.094v2.813c0 .06.034.094.094.094h1.813C4.967 5 5 4.968 5 4.908V2.094C5 2.034 4.968 2 4.908 2H3.094zm3 0C6.034 2 6 2.034 6 2.094v4.813c0 .06.034.094.094.094h1.813C7.967 7 8 6.968 8 6.908V2.094C8 2.034 7.968 2 7.908 2H6.094z"/></symbol><symbol id="video" viewBox="0 0 8 8"><path d="M.5 1c-.28 0-.5.22-.5.5v4c0 .28.22.5.5.5h5c.28 0 .5-.22.5-.5V4l1 1h1V2H7L6 3V1.5c0-.28-.22-.5-.5-.5h-5z"/></symbol><symbol id="volume-high" viewBox="0 0 8 8"><path d="M3.344 0L2 2H0v4h2l1.344 2H4V0h-.656zM5 1v1c.152 0 .313.026.47.063h.03C6.36 2.278 7 3.058 7 4s-.64 1.723-1.5 1.94C5.334 5.98 5.162 6 5 6v1c.258 0 .516-.035.75-.094C7.05 6.583 8 5.4 8 4.002c0-1.398-.95-2.58-2.25-2.906-.234-.06-.492-.094-.75-.094zm0 2v2c.04 0 .134-.002.25-.03C5.683 4.85 6 4.46 6 4c0-.446-.325-.82-.75-.938v-.03c-.005-.002-.025 0-.03 0C5.175 3.02 5.107 3 5 3z"/></symbol><symbol id="volume-low" viewBox="0 0 8 8"><path d="M4.344 0L3 2H1v4h2l1.344 2H5V0h-.656zM6 3v2c.04 0 .134-.002.25-.03C6.683 4.85 7 4.46 7 4c0-.446-.325-.82-.75-.938v-.03c-.005-.002-.025 0-.03 0C6.175 3.02 6.107 3 6 3z"/></symbol><symbol id="volume-off" viewBox="0 0 8 8"><path d="M5.344 0L4 2H2v4h2l1.344 2H6V0h-.656z"/></symbol><symbol id="warning" viewBox="0 0 8 8"><path d="M3.094 0c-.06 0-.105.044-.125.094L.03 6.907c-.02.05-.03.128-.03.188v.813c0 .06.034.094.094.094h6.813c.06 0 .094-.034.094-.094v-.813c0-.06-.01-.128-.03-.188L4.032.094C4.012.044 3.967 0 3.907 0h-.813zM3 3h1v2H3V3zm0 3h1v1H3V6z"/></symbol><symbol id="wifi" viewBox="0 0 8 8"><path d="M3.75 0C2.376 0 1.09.372 0 1.063l.53.875C1.46 1.348 2.565 1 3.75 1c1.2 0 2.323.31 3.25.906l.53-.813C6.44.39 5.13 0 3.75 0zm.03 3c-.794 0-1.53.227-2.155.625l.53.844C2.632 4.166 3.176 4 3.782 4c.594 0 1.13.177 1.595.47l.53-.845C5.29 3.237 4.57 3 3.782 3zm-.03 3c-.552 0-1 .448-1 1s.448 1 1 1 1-.448 1-1-.448-1-1-1z"/></symbol><symbol id="wrench" viewBox="0 0 8 8"><path d="M5.5 0C4.12 0 3 1.12 3 2.5c0 .32.078.626.188.906L.282 6.28c-.39.39-.39 1.017 0 1.407.2.2.46.313.72.313.26 0 .518-.09.718-.28l2.875-2.876c.28.1.586.156.906.156C6.88 5 8 3.88 8 2.5c0-.16-.03-.297-.062-.438L7 3H5V1l.938-.938C5.798.032 5.66 0 5.5 0zM1 6.5c.28 0 .5.22.5.5s-.22.5-.5.5S.5 7.28.5 7s.22-.5.5-.5z"/></symbol><symbol id="x" viewBox="0 0 8 8"><path d="M1.406 0L0 1.406l.688.72 1.78 1.78-1.78 1.78-.688.72 1.406 1.406.72-.688 1.78-1.78 1.78 1.78.72.688 1.406-1.406-.688-.72-1.78-1.78 1.78-1.78.688-.72L6.406 0l-.72.688-1.78 1.78L2.126.69 1.405 0z"/></symbol><symbol id="yen" viewBox="0 0 8 8"><path d="M0 0l2.25 3H0v1h3v1H0v1h3v2h1V6h3V5H4V4h3V3H4.75L7 0H6L3.687 3h-.375L1 0H0z"/></symbol><symbol id="zoom-in" viewBox="0 0 8 8"><path d="M3.5 0C1.573 0 0 1.573 0 3.5S1.573 7 3.5 7c.592 0 1.166-.145 1.656-.406a1 1 0 0 0 .094.094l1.03 1.03a1.016 1.016 0 1 0 1.44-1.437L6.687 5.25a1 1 0 0 0-.125-.094C6.83 4.663 7 4.096 7 3.5 7 1.573 5.43 0 3.5 0zm0 1C4.887 1 6 2.113 6 3.5c0 .587-.196 1.137-.53 1.563-.01.012-.023.02-.032.03a1 1 0 0 0-.063.032 1 1 0 0 0-.28.28 1 1 0 0 0-.064.064C4.61 5.794 4.08 6 3.5 6 2.113 6 1 4.887 1 3.5S2.113 1 3.5 1zM3 2v1H2v1h1v1h1V4h1V3H4V2H3z"/></symbol><symbol id="zoom-out" viewBox="0 0 8 8"><path d="M3.5 0C1.573 0 0 1.573 0 3.5S1.573 7 3.5 7c.592 0 1.166-.145 1.656-.406a1 1 0 0 0 .094.094l1.03 1.03a1.016 1.016 0 1 0 1.44-1.437L6.687 5.25a1 1 0 0 0-.125-.094C6.83 4.663 7 4.096 7 3.5 7 1.573 5.43 0 3.5 0zm0 1C4.887 1 6 2.113 6 3.5c0 .587-.196 1.137-.53 1.563-.01.012-.023.02-.032.03a1 1 0 0 0-.063.032 1 1 0 0 0-.28.28 1 1 0 0 0-.064.064C4.61 5.794 4.08 6 3.5 6 2.113 6 1 4.887 1 3.5S2.113 1 3.5 1zM2 3v1h3V3H2z"/></symbol></defs></svg>