<svg xmlns="http://www.w3.org/2000/svg"><defs><symbol id="apml" viewBox="0 0 1024 1196.0048"><path d="M271 225q-73 1-121 49.5T100 395v459q2 73 50 121t121 50h458q73-2 121-50t50-121V395q-2-72-50-120.5T729 225H271zm231 335q30 1 50.5 21t20.5 50.5-20.5 50.5-50.5 20-50.5-20-20.5-50.5 20.5-50.5 50.5-21z"/></symbol><symbol id="open-share" viewBox="0 0 1024 1196.0048"><path d="M271 227q-73 2-121 50t-50 121v459q2 72 50 120t121 50h458q73-2 121-50t50-120V398q-2-73-50-121t-121-50H271zm229 161q74 1 132 39 17 11 18 33 0 17-11 27.5T612 499q-12 0-22-7-39-26-90-27-58 1-100.5 35T343 588l-1 4q-4 11-13.5 18.5T305 619H176v-77h100q27-69 86.5-111T500 388zm0 146q39 1 65 27t26 65-26 65.5-65 26.5-65.5-26.5T408 626t26.5-65 65.5-27zm195 100h129v77H723q-26 68-85.5 110T500 865q-74-2-132-40-16-11-17-32 0-16 11-27t27-12q13 1 22 7 39 26 89 27 58-1 100.5-35t56.5-88l1-4q3-11 13-19t24-8z"/></symbol><symbol id="open-share-simple" viewBox="0 0 1024 1196.0048"><path d="M500 292q-120 1-212 66T155 529H0v119h200q20-1 35-12.5t21-28.5l1-7q22-83 87.5-135.5T500 410q39 0 74.5 11.5T640 453q14 10 33 10 25-1 42-17.5t17-42.5q0-16-7.5-29T703 353q-44-29-95-45t-108-16zm0 225q-61 2-101 42t-42 101q2 60 42 100t101 42q61-2 101-42t42-100q-2-61-42-101t-101-42zm301 154q-21 1-36.5 13T744 713l-1 6q-22 83-87.5 135.5T500 909q-38 0-73-11t-64-30q-15-10-34-10-25 0-42 17t-17 42q0 15 7 28t19 21q44 29 95.5 45t108.5 16q120-1 212-66t133-171h155V671H801z"/></symbol><symbol id="share" viewBox="0 0 1024 1196.0048"><path d="M271 226q-73 2-121 50t-50 121v458q2 73 50 121t121 50h458q73-2 121-50t50-121V397q-2-73-50-121t-121-50H271zm401 125q41 1 68.5 28t27.5 68-27.5 68.5T672 544q-36-1-62-23l-186 95v8q0 8-1 15l184 94q27-24 65-25 41 1 68.5 28.5T768 805t-27.5 68-68.5 27-68-27-28-68v-6l-191-97q-25 18-57 19-41-1-68.5-28.5T232 624t27.5-68 68.5-28q36 1 62 23l186-95v-9q1-41 28-68t68-28z"/></symbol><symbol id="share-simple" viewBox="0 0 1024 1196.0048"><path d="M751 226q-60 2-99.5 41.5T610 367l1 12-271 138q-18-16-41-24.5t-50-8.5q-59 1-98.5 40.5T109 624q2 60 41.5 99.5T249 764q48 0 84-27l277 141v8q2 60 41.5 99.5T751 1026q59-1 98.5-40.5T891 886q-2-60-41.5-99.5T751 746q-28 0-52 9.5T656 782L388 646q2-11 2-22l-1-12 271-138q18 15 41.5 24t49.5 9q59-1 98.5-41t41.5-99q-2-60-41.5-99.5T751 226z"/></symbol><symbol id="feed" viewBox="0 0 1024 1196.0048"><path d="M258 175q-78 2-129.5 53.5T75 358v484q2 78 53.5 129.5T258 1025h484q78-2 129.5-53.5T925 842V358q-2-78-53.5-129.5T742 175H258zm-37 126q116 0 222.5 44.5t188 126 126 188.5T802 882H686q0-92-35.5-177.5t-101-151T399 453t-178-36V301zm0 196q77 0 147.5 29.5T493 610t83.5 125T606 882H493q0-54-20.5-104t-59-88-88.5-59-104-21V497zm78 226h2q34 1 56.5 23.5t22.5 56-22.5 56T301 881t-56.5-22.5-22.5-56 22-55.5 55-24z"/></symbol><symbol id="feed-simple" viewBox="0 0 1024 1196.0048"><path d="M75 175v170q67 0 132.5 13.5t127.5 39T452.5 460t103 84.5 85 103 63 117.5T742 892.5t13 132.5h170q0-83-16.5-165.5T860 700t-78.5-146.5-105.5-129-128.5-106-147-78.5T241 191.5 75 175zm0 287v165q79 0 152 30.5T356 744t86.5 129 30.5 152h165q0-112-43-215.5T473 627 290.5 505 75 462zm117 330q-50 2-83 34.5T75 909q1 49 34 82t83 34q49-1 82-34t34-82q-1-50-34-82.5T192 792z"/></symbol><symbol id="ostatus" viewBox="0 0 1024 1196.0048"><path d="M164 238q-22 1-36.5 15T113 289v673q0 22 14.5 36t36.5 15h672q22-1 36.5-15t15.5-36V289q-1-22-15.5-36T836 238H164zm319 83q122 3 204 84.5T772 610v290l-289-1q-123-3-204.5-84.5T194 610q3-123 84.5-204.5T483 321zm0 127q-69 2-115 47.5T320 610q2 70 48 116t115 47q69-1 114.5-47T645 610q-2-69-47.5-114.5T483 448z"/></symbol><symbol id="ostatus-simple" viewBox="0 0 1024 1196.0048"><path d="M500 227q-170 4-283 117T100 627q4 170 117 282.5T500 1026l400 1V627q-4-170-117-283T500 227zm0 176q96 2 159 65.5T725 627q-3 96-66 159.5T500 852q-96-2-159-65.5T275 627q3-95 66-158.5T500 403z"/></symbol><symbol id="opml" viewBox="0 0 1024 1196.0048"><path d="M271 226q-73 2-121 50.5T100 397v459q2 72 50 120.5t121 49.5h458q73-1 121-49.5T900 856V397q-2-72-50-120.5T729 226H271zm231 110q123 3 205 85.5T792 627q-3 123-85 205t-205 86q-124-4-206-86t-85-205q3-123 85-205.5T502 336zm0 88q-87 2-144 59.5T298 627q3 86 60 143.5T502 830q86-2 143-59.5T705 627q-3-86-60-143.5T502 424zm0 138q30 1 50.5 21t20.5 50.5-20.5 50.5-50.5 20-50.5-20-20.5-50.5 20.5-50.5 50.5-21z"/></symbol><symbol id="activity" viewBox="0 0 1024 1196.0048"><path d="M251 226h-12l-18 3-15 4-20 8-16 9-15 10q-13 11-23 24l-4 5q-4 6-8 13l-5 9-8 21-4 14q-2 12-3 23v514l1 11 4 19q2 9 5 17l8 17q9 16 21 29l3 3q7 8 16 15l6 4q7 5 15 10l17 7 25 8 22 3h514l19-2 11-3q9-2 17-6l10-4q12-6 22-13l6-4q9-7 16-15l3-3q13-14 22-32l7-14q3-8 5-17l4-19q1-9 1-19V373q0-10-2-19l-1-8-4-14q-3-9-6-17l-7-13q-4-7-8-12l-4-6q-10-13-23-24l-6-4-15-10-13-7q-8-4-17-6l-15-4-18-3H251zm142 154q36 1 65.5 10t54.5 18q39 16 78.5 20.5T689 409q18-7 35.5-3.5t25 21.5.5 35-25 26q-35 14-65.5 20.5T603 515q-36-1-66-13l-54-21q-39-16-76-18.5T316 489q-18 9-36 7.5t-27.5-19-4-35.5 22.5-28q35-19 65.5-26.5T393 380zm-6 180h3q35 1 64.5 10t54.5 18q40 17 80 21t101-22q18-8 35.5-5t25.5 21 1.5 35.5T728 664q-38 17-70 24t-59 6q-37-1-66-12l-55-21q-38-16-74.5-19T313 667q-18 10-35.5 8t-27-19.5-4-35.5 22.5-27q34-18 63-25.5t55-7.5zm-3 178q35 1 64 10t54 19q41 17 82.5 20.5T689 763q18-9 35.5-6t26 20.5 2 34.5-23.5 26q-41 19-74.5 26.5T592 872q-36-1-66-13l-54-21q-37-15-72.5-18.5T312 842q-18 9-35.5 6.5t-26.5-20-3-34.5 23-27q31-15 58.5-22t50.5-7h5z"/></symbol><symbol id="activity-simple" viewBox="0 0 1024 1196.0048"><path d="M326 226q-42 0-91.5 12.5T127 282q-28 16-36.5 45.5t7 57.5 44.5 30.5 58-12.5q89-47 149-43t123 30l89 35q48 19 107 21 42 0 91.5-10.5T866 401q30-13 41-41t-1.5-57.5-40.5-35-58 6.5q-94 39-158 32t-128-33q-40-16-88-31t-107-16zm-5 293q-42-1-91 11t-105 42q-29 16-37.5 45t6.5 57.5 44 31.5 58-13q87-45 146.5-40.5T465 683q40 16 88.5 34.5T660 738q45 0 97-11t114-38q29-14 40-42.5t-2.5-57.5-42-34.5T809 563q-98 42-164 35.5T514 565q-40-16-87.5-30.5T321 519zm-11 290q-40 0-85.5 10.5T126 857q-28 15-37.5 43t5 56.5 43.5 32 58-11.5q83-41 141.5-35.5T454 971l89 35q48 19 107 20 46 1 101.5-11.5T872 972q29-15 39.5-42.5T908 873t-42.5-33.5T807 849q-102 46-169.5 40T503 855q-40-15-87.5-30T310 809z"/></symbol><symbol id="microformats" viewBox="0 0 1024 1196.0048"><path d="M605 227q-12 0-20 8t-9 21v271q1 12 9 20.5t20 8.5h277q12 0 20-8.5t9-20.5V256q-1-13-9-21t-20-8H605zm-177 30q-43 2-70.5 30.5T329 358v318q1 43 29.5 71.5T430 777h318q43-1 71.5-29.5T849 676v-77H605q-30 0-50.5-20.5T533 527V257H428zM212 362q-52 1-86.5 35.5T89 484v420q2 52 36.5 86.5T212 1027h421q52-2 86.5-36.5T756 904v-84H430q-61-1-102-42t-42-102V362h-74z"/></symbol><symbol id="geo" viewBox="0 0 1024 1196.0048"><path d="M256 226q-66 2-110 46t-46 110v488q2 66 46 110t110 46h488q66-2 110-46t46-110V382q-2-66-46-110t-110-46H256zm367 86q15 0 26 10l150 151q11 11 11 27t-10.5 26.5T773 537t-27-11l-17-17-116 115q13 43 3.5 86T574 787L336 548q33-32 76-42t86 3l116-115-18-19q-10-10-10-25.5t10.5-26.5 26.5-11zM188 612q55-1 107 17.5t96 54.5L261 815q-10 10-10 25.5t11 26.5 26.5 11 25.5-10l129-129q35 48 50 104t9 112H293q-51-1-84.5-34.5T174 837V612h14z"/></symbol><symbol id="opensearch" viewBox="0 0 1024 1196.0048"><path d="M272 226q-73 2-121.5 50.5T100 398v456q2 73 50.5 121.5T272 1026h456q73-2 121.5-50.5T900 854V398q-2-73-50.5-121.5T728 226H272zm142 63q62 0 117 30h1q61 33 95.5 91.5T662 538v1q1 70-35 128l211 210-87 87-210-210q-30 18-65 27h-2q-45 12-90.5 6T297 760q-30-15-55-38t-43-53l-1-1q-43-74-34-156.5T231 367l1-1q36-39 83.5-58t98.5-19zm0 75q-36 0-69.5 13.5T286 417l-1 1q-39 43-45.5 102T263 629v1q25 41 69 64 29 15 61 19t63-5h1q56-15 93-62.5T588 539v-1q-1-47-25.5-88.5T496 385l-1-1q-37-20-81-20z"/></symbol><symbol id="oauth" viewBox="0 0 1024 1196.0048"><path d="M504 228q-16 0-33 1-35 3-70 11.5T341 260q-19 8-39 19.5T264 304q-44 32-78 75.5T131 475q-10 22-17 45-13 47-13 97.5t9 93.5q24 105 82 171.5T331 990q75 39 171 38t178-41q47-24 85-59.5t67-79 48-100T899 624q-1-63-20.5-119T832 408q-47-76-128-127t-200-53zm-34 190h54q16 0 29 9.5t18 24.5l106 320q7 20-2 38t-29 25q-8 2-16 2-16 0-28.5-9T583 803l-23-73H440l-23 73q-5 15-17.5 24.5T370 837q-8 0-15-2-20-7-29-24.5t-4-37.5l101-320q6-16 18.5-25.5T470 418z"/></symbol><symbol id="openid" viewBox="0 0 1024 1196.0048"><path d="M585 286l-121 60v606q-106-15-173.5-65T221 768q2-66 63-114.5T442 588v-77q-149 19-244 89t-98 168q3 101 104.5 172.5T464 1027l121-57V286zm21 225v77q72 12 125 43l-65 37 234 51-17-173-62 35q-44-27-98.5-45T606 511z"/></symbol><symbol id="semantic-web" viewBox="0 0 1024 1196.0048"><path d="M820 224q4 16-54.5 84T536 313l-25-12-8-4-334 137 335 163 18-7q18-8 49-24 150-86 201.5-208T820 224zm-317 73h1-1zM153 507v348l312 169V666zm694 0L535 666v358l312-169V507z"/></symbol><symbol id="rdf" viewBox="0 0 1024 1196.0048"><path d="M704 227q-40 0-74 20t-54 57q-23 45-15 92l-2-2q4 0-6.5 25.5T479 487q-67 38-98.5 34.5T349 515l3 3-8-4q-55-28-111-11t-86 71q-28 56-11 111.5t71 86.5q41 21 83.5 16.5T367 757l-1 2q-1-3 28-7t98 30q54 31 70.5 56.5T578 875q-1 42 19 78t59 57q55 27 111 10t86-71q28-55 11-111t-71-86q-8-4-15-7l3-1q-2 3-16.5-20T746 625q0-76 14.5-100.5T777 503h-5q39-20 62-62 28-55 11-111t-71-86q-34-18-70-17zm2 23q38 0 66 25-15-13-44-10t-59 22q7 8 8 20t-7.5 21-21.5 10h-8l-2-1q-8-2-13.5 1.5T617 345q-16 30-16 57t15 42q-31-31-30.5-74t32.5-80q19-19 41.5-29.5T706 250zM605 491q15 1 18 3l14 8q13 7 27 11 9 7 19.5 33.5t12 83.5-10 84-21.5 34q-20 9-36 23-8 4-36 1t-81-31q-56-31-73-54t-17-32q2-19-1-37v1q-3-1 8-24t74-65q39-23 64.5-31t38.5-8zm-326 34q37 0 66 25h-1q-15-13-43.5-10T242 562q7 8 7.5 20t-7.5 21-21 10h-8l-2-1q-9-2-14.5 1.5T189 620q-15 30-15.5 57t14.5 42q-30-31-29.5-74t32.5-80q18-19 41-29.5t47-10.5zm452 233q38 0 66 25-15-13-44-10t-59 22q7 8 8 20t-7.5 21-21.5 10q-4 0-8-1h-2q-8-2-13.5 1.5T642 853q-16 30-16 57t15 42q-31-31-30-74t32-80q19-20 41.5-30t46.5-10z"/></symbol><symbol id="rdfa" viewBox="0 0 1024 1196.0048"><path d="M704 227q-40 0-74 20t-54 57q-23 45-15 92l-2-2q4 0-6.5 25.5T479 487q-67 38-98.5 34.5T349 515l3 3-8-4q-55-28-111-11t-86 71q-28 56-11 111.5t71 86.5q41 21 83.5 16.5T367 757l-1 2q-1-3 28-7t98 30q54 31 70.5 56.5T578 875q-1 42 19 78t59 57q55 27 111 10t86-71q28-55 11-111t-71-86q-8-4-15-7l3-1q-2 3-16.5-20T746 625q0-76 14.5-100.5T777 503h-5q39-20 62-62 28-55 11-111t-71-86q-34-18-70-17zm2 23q38 0 66 25-15-13-44-10t-59 22q7 8 8 20t-7.5 21-21.5 10h-8l-2-1q-8-2-13.5 1.5T617 345q-16 30-16 57t15 42q-31-31-30.5-74t32.5-80q19-19 41.5-29.5T706 250zM605 491q15 1 18 3l14 8q13 7 27 11 9 7 19.5 33.5t12 83.5-10 84-21.5 34q-20 9-36 23-8 4-36 1t-81-31q-56-31-73-54t-17-32q2-19-1-37v1q-3-1 8-24t74-65q39-23 64.5-31t38.5-8zm-326 34q37 0 66 25h-1q-15-13-43.5-10T242 562q7 8 7.5 20t-7.5 21-21 10h-8l-2-1q-9-2-14.5 1.5T189 620q-15 30-15.5 57t14.5 42q-30-31-29.5-74t32.5-80q18-19 41-29.5t47-10.5zm452 233q38 0 66 25-15-13-44-10t-59 22q7 8 8 20t-7.5 21-21.5 10q-4 0-8-1h-2q-8-2-13.5 1.5T642 853q-16 30-16 57t15 42q-31-31-30-74t32-80q19-20 41.5-30t46.5-10z"/></symbol><symbol id="owl" viewBox="0 0 1024 1196.0048"><path d="M704 227q-40 0-74 20t-54 57q-23 45-15 92l-2-2q4 0-6.5 25.5T479 487q-67 38-98.5 34.5T349 515l3 3-8-4q-55-28-111-11t-86 71q-28 56-11 111.5t71 86.5q41 21 83.5 16.5T367 757l-1 2q-1-3 28-7t98 30q54 31 70.5 56.5T578 875q-1 42 19 78t59 57q55 27 111 10t86-71q28-55 11-111t-71-86q-8-4-15-7l3-1q-2 3-16.5-20T746 625q0-76 14.5-100.5T777 503h-5q39-20 62-62 28-55 11-111t-71-86q-34-18-70-17zm2 23q38 0 66 25-15-13-44-10t-59 22q7 8 8 20t-7.5 21-21.5 10h-8l-2-1q-8-2-13.5 1.5T617 345q-16 30-16 57t15 42q-31-31-30.5-74t32.5-80q19-19 41.5-29.5T706 250zM605 491q15 1 18 3l14 8q13 7 27 11 9 7 19.5 33.5t12 83.5-10 84-21.5 34q-20 9-36 23-8 4-36 1t-81-31q-56-31-73-54t-17-32q2-19-1-37v1q-3-1 8-24t74-65q39-23 64.5-31t38.5-8zm-326 34q37 0 66 25h-1q-15-13-43.5-10T242 562q7 8 7.5 20t-7.5 21-21 10h-8l-2-1q-9-2-14.5 1.5T189 620q-15 30-15.5 57t14.5 42q-30-31-29.5-74t32.5-80q18-19 41-29.5t47-10.5zm452 233q38 0 66 25-15-13-44-10t-59 22q7 8 8 20t-7.5 21-21.5 10q-4 0-8-1h-2q-8-2-13.5 1.5T642 853q-16 30-16 57t15 42q-31-31-30-74t32-80q19-20 41.5-30t46.5-10z"/></symbol><symbol id="dataportability" viewBox="0 0 1024 1196.0048"><path d="M521 226q-46 1-90.5 12T345 269q-66 34-115.5 88.5T153 481q27-8 55.5-5t54.5 16q28-55 76-94 37-30 81.5-47t92.5-19q56-2 108.5 16t95.5 55q35 30 59 69.5t35 84.5q26 8 41.5 29.5T865 635q-3 22-17.5 38.5T812 695q-11 41-32 78-32 56-83.5 93T583 916q-43 8-85.5 4T415 900q-49-20-88.5-56T263 761q-26 13-54 16t-56-5q33 84 98 145.5t151 89.5q68 22 139.5 19t137-30.5 118-75.5T881 808q30-59 39.5-124.5t-2.5-130-43-121-79-99.5q-42-40-94.5-65.5T592 232q-36-6-71-6zM192 508q-14 1-27 3-24 6-44 21.5T89 570q-10 18-12.5 38.5T77 649q5 27 21 48.5t41 34.5q37 19 78.5 10t67.5-42q17-21 23-47t0-53q-6-28-25.5-50.5T236 516q-22-8-44-8zm259 38q-11 0-22 3-21 7-36.5 23T372 610q-5 20 0 39t17.5 34.5 31 23T459 712q38-3 60.5-33t14.5-66q-6-30-29.5-48.5T451 546zm189 17q-8 0-15 1-23 6-37 24t-14 40.5 13 40.5 35 24q14 5 29.5 2.5T680 684t20.5-24 7.5-31q0-21-11.5-37.5T666 567q-12-5-26-4zm154 22q-8 0-15 2-14 6-22 18-10 16-6.5 34t19 27.5 32 7 27.5-16 9.5-32-15-30T794 585zm77 385l-13 53h8l7-29v-3l2 3 16 30 16-30 1-3 7 32h9l-14-53-19 39zm-57 2v7h15v44h9v-44h15v-7h-39z"/></symbol><symbol id="federated" viewBox="0 0 1024 1196.0048"><path d="M455 226q-21 0-40 8-27 10-40.5 33T360 320q0 25 9 52t27 55l1 1q-22-47-13.5-85t45.5-54q44-15 96.5 9.5T616 376q27 41 30.5 79.5T630 520q38-26 39.5-77T633 334q-35-50-83-78.5T455 226zm50 142q-18 0-35 12t-22.5 31.5T449 450l-104 76q6 6 11.5 13.5T365 554l104-76q17 12 36.5 12.5T543 479q21-16 24.5-40T557 393q-9-12-22-18.5t-27-6.5h-3zm315 13q-24 0-46.5 12T731 425.5 695 476q31-41 68.5-51t68.5 15q34 32 37 90t-26 116q-14 26-32 44l1 2q11 8 18 19 33-24 57-69 35-68 31.5-135.5T875 402q-25-21-55-21zm-522 35q-47 0-100 32-64 40-95.5 100T87 661q9 27 31 42t52 17q25 1 53-6.5t56-24.5l1-1q-48 19-85.5 9T143 650q-13-45 13.5-96.5T238 467q43-26 81.5-27.5T383 459q-12-20-33.5-31T301 416h-3zm227 96q-17 4-34 0v87q-10 3-19 9-21 16-25 40t11 46q13 17 32 23t38-1l67 92q-8 9-11 21l-1 4-1 15 2 16q3 9 9 18 16 20 40.5 24t45.5-11.5 25-39.5-11-46q-9-12-22-18.5t-27-6.5q-11 0-21 3l-67-91q13-17 13.5-37t-12-37-32.5-23v-87zm200 14q-19 1-35 12-13 9-19.5 22.5T665 589l-84 27q9 16 11 33l52-17 32-8q16 21 40.5 25t45.5-11.5 25-40-11-45.5q-9-13-22-19.5t-27-6.5h-2zm-438 1q-19 1-35 12-21 16-24.5 40.5T239 625t39.5 25 45.5-11.5 25-39.5-11-46q-9-12-22-18.5t-27-7.5h-2zm441 162q-7 1-15 1-24 4-50 16.5T612 742q43-28 82-25t59 37q22 42 5.5 97.5T694 952q-37 33-74.5 41.5T553 986q32 34 82.5 28T738 963q55-52 74.5-117T806 733q-12-22-32.5-33T728 689zm-283 26l-38 54q16 7 28 20l39-54q-16-7-29-20zm-179 19h-5q-10 1-19 2-30 5-50.5 22T164 803q-10 54 27 110.5t105 90.5q62 29 112.5 20.5T479 974q-23 24-61.5 26T334 981q-58-29-90-78t-22-95q10-38 46.5-52t85.5 1l-1-1q-46-22-87-22zm105 51q-18 0-34 11-21 16-25 40.5t11.5 45.5 39.5 25 46-11q17-13 23-32h129l-2-22q0-6 1-13H432q-3-10-9-19l-2-2-11-11-17-9q-10-3-19-3h-3z"/></symbol><symbol id="web-intents" viewBox="0 0 1024 1196.0048"><path d="M198 429q-12 0-20 6.5t-9 22.5v136H29q-15 1-22 9t-7 20v21q0 12 6.5 20t22.5 9h140v135q1 9 7 15.5t15 6.5h107q3 0 7.5-3t4.5-10v-49h-54q-12 0-16.5-6.5T236 743V516q-1-13 3.5-19t16.5-6h54v-50q0-6-4.5-9t-7.5-3H198zm504 0q-3 0-7.5 3t-4.5 9v50h54q12 0 16.5 6t3.5 19v227q1 12-3.5 18.5T744 768h-54v49q0 7 4.5 10t7.5 3h107q9 0 15-6.5t7-15.5V673h140q16-1 22.5-9t6.5-20v-21q0-12-7-20t-22-9H831V458q-1-16-9-22.5t-20-6.5H702zm-422 95q-10 1-11 12v191q1 11 11 12h220v-54l-54-54 54-53v-54H280zm253 0v54l-54 53 54 54v54h187q10-1 11-12V536q-1-11-11-12H533zm-151 70q15 1 25 10.5t10 24.5-10 25-25 10-25-10-10-25 10-24.5 25-10.5zm236 0q15 1 25 10.5t10 24.5-10 25-25 10-25-10-10-25 10-24.5 25-10.5z"/></symbol><symbol id="open-web" viewBox="0 0 1024 1196.0048"><path d="M635 241q-4 0-23.5 8.5t-45 21-53 27.5-43.5 26q-25 19-37.5 20T387 332q-19-7-34-11t-18-2.5-4.5 9.5-2 18-3.5 31.5-7.5 44T300 480t-28.5 69.5-28 63-16 41.5-5 32.5-.5 44.5q2 29 7.5 49.5T247 825q10 19 26 41t31 37 33.5 30.5 32.5 25 35.5 22 41.5 23 35 17 19 6.5 20.5-7.5 38-18.5 47.5-27.5 43.5-30.5 36.5-32.5 30.5-33.5 22-30.5 15-25 10-28T773 755q5-25 5-45t-5-48q-4-23-15.5-55.5T729 537q-15-34-31.5-74t-25-68-16-59-9.5-51q-3-26-7-38 6 0 4-3-1 0-5 1-2-4-4-4z"/></symbol><symbol id="xmpp" viewBox="0 0 1024 1196.0048"><path d="M0 291q9 183 133 350.5T439 916q-82 64-181 91l-1 14q43-5 83-16l5-1q78-18 155-55 25 13 51 24 95 44 204 54v-15q-53-13-100.5-38T565 915q181-106 303.5-273T1000 291l-130 50-45 15-130 39q1 11 1 22-1 110-51.5 227.5T503 858q-88-95-137-211t-50-224q0-11 1-23l-130-38-42-15z"/></symbol><symbol id="html5" viewBox="0 0 1024 1196.0048"><path d="M148 226l64 720 288 80 288-79 65-721H148zm131 148h442l-8 88H375l8 90h322l-24 271-181 51-181-51-13-141h89l7 73 98 27 98-27 11-114H303z"/></symbol><symbol id="css3" viewBox="0 0 1024 1196.0048"><path d="M190 226l-30 149h604l-19 96H141l-30 148h604l-33 169-244 81-211-81 15-73H93L58 893l349 133 402-133 133-667H190z"/></symbol><symbol id="connectivity" viewBox="0 0 1066 1196.0048"><path d="M0 226l132 132h274l96 97-141 141-97-96v-75H132v130l229 229-93 93 149 149h649L934 895H472L362 784l47-46 91 91h188L503 644l47-48 185 185V594l-91-91 46-47-229-230H0zm785 135l-94 94 110 110v263h133V511z"/></symbol><symbol id="semantics" viewBox="0 0 1024 1196.0048"><path d="M500 227L100 429v133l400-202 400 202V429zm0 232L100 661v133l400-202 400 202V661zm0 232L100 893v133l400-202 400 202V893z"/></symbol><symbol id="3deffects" viewBox="0 0 1024 1196.0048"><path d="M537 227l-227 73 492 160v314L474 880l-277-90V483l268 86 227-73-493-160-141 46v510l416 135 468-151V358z"/></symbol><symbol id="device-access" viewBox="0 0 1024 1196.0048"><path d="M137 221l172 172H76v628h307l117-117 117 117h307V393H691l172-172H679L501 400 322 221H137zm70 303h587v367H672L500 720 329 891H207V524z"/></symbol><symbol id="multimedia" viewBox="0 0 1046 1196.0048"><path d="M97 229L0 325v704h1044V391H881v475H163V393l164-164H97zm358 0L292 391h231l163-162H455zm358 0L650 391h231l163-162H813z"/></symbol><symbol id="offline-storage" viewBox="0 0 1024 1196.0048"><path d="M441 226q-170 4-283 117T41 626q4 170 117 283t283 117q123-1 222-67.5T810 780h149V473H810q-48-112-147-178.5T441 226zm0 119q73 1 134.5 35T677 473H441q-65 2-108.5 45T288 626q1 65 44.5 108.5T441 780h236q-40 59-101.5 93T441 908q-120-4-199-83t-82-199q3-119 82-198.5T441 345zm0 246h399v70H441q-15-1-24.5-10.5T407 626t9.5-24.5T441 591z"/></symbol><symbol id="perfintegration" viewBox="0 0 1024 1196.0048"><path d="M495 226q-27 0-54 4l-7 2-49 116-117-48q-53 38-90 89l-4 5 48 117-117 48q-10 64-1 126l2 7 116 49-48 116q17 24 36 45l13 12q21 20 45 38l117-49 48 117 7 1q62 10 126 0l49-118 117 49 5-4q51-37 89-90l-49-117 117-48 1-7q10-63 0-126l-117-49 48-116q-19-26-41-49l-7-7q-22-21-47-39l-116 49-48-117q-36-6-72-6zm5 99q11 0 22 1l51 123 124-51 15 15q8 8 15 16l-51 123 1 1 123 51q2 22 0 44l-123 51 51 124q-15 16-31 31l-123-51h-1l-51 123q-22 1-44 0l-51-123v-1l-124 52-4-4-23-23-4-4 51-123v-1l-123-51q-1-22 0-44l123-51-51-124q15-16 31-31l123 51h1l51-123q11-1 22-1zm0 125q-6 0-13 1l-29 72-73-30q-9 8-18 18l30 72-72 30v25l72 30-30 73q9 9 19 18l71-30 30 72q13 1 26 0l30-72 72 30q10-9 18-18l-30-72 72-30 1-13-1-13-72-30 30-72q-8-9-18-18l-72 30-30-72zm0 127q21 1 34.5 14.5T548 626t-13.5 34.5T500 674t-34.5-13.5T452 626t13.5-34.5T500 577z"/></symbol><symbol id="git" viewBox="0 0 1024 1196.0048"><path d="M499 228q-20 0-36 15l-73 73 92 92q17-6 33.5-2.5T545 422t16.5 30-1.5 34l88 88q17-5 34-1.5t30 16.5q18 19 18 43.5T711.5 675t-43 18-43.5-17q-14-14-17-32t4-35l-83-83v218q9 4 16 11 18 19 18 43.5t-18.5 43-43 18.5-42.5-18.5-18-43 18-43.5q8-8 20-13V522q-12-4-20-13-14-14-17.5-32t3.5-35l-90-91-240 240q-15 16-15 36.5t15 36.5l349 349q16 15 36.5 15t36.5-15l348-348q15-16 15-36.5T885 592L536 243q-16-15-37-15z"/></symbol><symbol id="webhooks" viewBox="0 0 1024 1196.0048"><path d="M482 226q-6 1-11 2-34 4-64.5 18.5T351 285q-41 38-57 91-9 31-8 63t12 63q17 45 52 78l13 12-83 135q-24-1-45 7-29 13-45 40-7 15-9 31t2 32q8 30 33 48 15 11 32.5 15t36 1.5 35-12T347 864q12-17 14.5-38.5T356 784q-4-11-10-20l79-129q18-28 35-56 6-10 12-21-12-3-23-7-24-10-42-27t-28-40q-17-36-9-75 4-23 17-43t32-34q36-27 81-27 27-1 52.5 9.5T597 345q17 17 26.5 39t10.5 45q0 22-6 42l70 19 8 1q13-42 7-86-4-33-19.5-63T654 288q-21-21-47.5-35T551 232q-16-4-32-6h-37zm18 124q-17 0-34 7t-30.5 20.5T416 409q-8 21-4 44 3 18 14 33.5t28 25.5q26 15 56 13 3 4 5 8l110 188q3 7 8 12 25-25 58-35t65.5-4 59.5 26q30 24 42 61t1 74q-8 28-28.5 50T782 938q-32 13-67 8.5T652 922q-10-7-18-16-9 8-17 16l-41 40q23 23 52 38.5t61 21.5l22 4h39l28-5q31-6 59-21.5t50.5-38 37-51T944 851q5-36-2-71t-26-66q-17-29-43-50.5T816 629q-34-14-70-16t-72 7l-17 5-26-42-47-82q-4-6-8-13 12-16 16-37 5-32-13-60-17-25-44-35-17-6-35-6zM218 614q-57 13-100 53-23 21-38.5 48T57 772l-4 24v37q2 15 6 31 7 32 24.5 59.5t42.5 48 54 33 61 16.5q38 4 75.5-4.5T387 988q25-17 45-40t33-51q9-22 14-45 9-1 18 0l111 2q17 0 34 1 9 18 24 30t32.5 17 35.5 4q28-3 50-20 26-22 32-54 2-17-1.5-33T801 769q-16-22-41-32-17-7-35.5-6.5T689 738q-27 12-43 37l-3 6q-35 0-69-1l-86-1-74-2h-19l3 17q4 21 .5 41.5T385 875q-15 27-40.5 44.5T288 942q-36 6-70-7.5T161 892q-13-17-20-37t-7-42q1-38 23-69 13-19 32-32t41-19l9-3q-10-38-21-76z"/></symbol><symbol id="osi" viewBox="0 0 1056 1196.0048"><path d="M500 227q-176 4-292.5 120.5T87 640q2 135 75 238t193 149l95-254q-41-16-66-51.5T358 640q2-60 42-100.5T500 498q60 1 100.5 41.5T642 640q-1 46-26 81.5T550 773l95 254q120-46 193-149t75-238q-4-176-120.5-292.5T500 227zm463 682l-23 92h15l12-50v-5l2 5 29 54 26-47 3-6 1-6 2 12 11 43h15l-24-92-30 58q-3 6-4 10l-3-8zm-101 4v12h27v76h16v-76h26v-12h-69z"/></symbol><symbol id="opensource" viewBox="0 0 1056 1196.0048"><path d="M500 227q-176 4-292.5 120.5T87 640q2 135 75 238t193 149l95-254q-41-16-66-51.5T358 640q2-60 42-100.5T500 498q60 1 100.5 41.5T642 640q-1 46-26 81.5T550 773l95 254q120-46 193-149t75-238q-4-176-120.5-292.5T500 227zm463 682l-23 92h15l12-50v-5l2 5 29 54 26-47 3-6 1-6 2 12 11 43h15l-24-92-30 58q-3 6-4 10l-3-8zm-101 4v12h27v76h16v-76h26v-12h-69z"/></symbol><symbol id="opengraph" viewBox="0 0 1024 1196.0048"><path d="M499 245q-3 1-49 27L178 429l-17-10q-24-13-29.5-19.5T127 376q-1-13-3-20.5t-8-15.5q-20-26-52.5-26T12 339Q-3 360 .5 386T24 428q13 10 33 12t34-5q8-4 14.5-2.5T132 446l29 17v368l339 196 11-6q85-50 192-110.5T822 844q2 0 10 4t18 10l23 13v20q0 27 15 44.5t41 21.5q34 3 55-21.5t14-57.5q-9-30-35.5-42.5T908 835q-7 4-13.5 2.5T868 825l-28-16V439l-170-98-120-68q-48-28-51-28zm-19 69v192h-8q-39-3-64.5-7t-26.5-7q1-6 12-33t20-45 27.5-46 30.5-43zm46 10q6 1 27.5 34t44.5 80.5 21 55.5q-1 1-8 2l-16 3-23 3-51 5v-95q-1-46 0-67t5-21zm64 16l25 15q58 32 107 61t52 32q-1 1-10 5t-22 9q-38 14-60 19.5t-24 1.5q-16-47-27.5-72.5T602 360zm-183 4l-3 5-6 10q-12 19-26 48t-22 53l-11 28-30-9q-29-8-54.5-18T227 448q1-1 26.5-16.5T317 394l62-35q25-15 28-15zm-342 9q15 1 22 16 3 9-1 19t-12 13q-22 9-33-12-3-7-3.5-11t2.5-10q9-15 25-15zm136 131q2 1 11 4l20 7q12 5 29.5 11t32.5 10l35 11-1 9-10 81h-58q-24 0-41-1t-19-2q-3-11-2.5-66.5T201 484zm594 1q3-1 4 11.5t1 53.5v67h-59q-24 0-41-1t-18.5-2-2.5-6.5-1-13-1-19.5-3-23l-5-26 18-5q9-2 25-7zm-165 49l4 24 3 22 2 18 1 17-75 2-6-11q-5-9-17-20.5T524 573q-3-2-3-15v-15h24q11 0 26.5-1.5T600 538zm-255 3q9 0 31 2 14 2 29 3t24 1h21v14q0 8-2.5 12.5T466 579q-6 4-12.5 10.5T444 602l-8 15h-78l3-25q2-21 5-36.5t5-18.5h4zm125 72q9 0 16 5.5t8.5 14-2.5 17-12 11.5-11 3q-24-7-23.5-27.5T500 609zm-182 44l2 16 6 45q3 21 1 28t-11 7q-3 0-15 3l-27 9-33 11-24 9-20 8 2-134zm482 0v68l-1 48v20l-11-5q-11-6-46-18t-56-17l-16-4 6-43 4-47zm-417 0h53l8 13q3 6 9.5 12.5T466 689q9 6 11.5 10.5T480 712v14l-39 2-33 3q-15 1-22 3-13 4-16.5-1.5T362 697t-2-37.5 23-6.5zm182 0h36q16 0 26.5 1t11.5 2.5.5 10.5-1.5 21l-4 24q-1 11-3 15l-2 9-31-4q-14-2-29-3.5t-25-1.5h-23v-14q-1-9 2-13.5t12-10.5q6-4 12.5-10.5T557 666zm-85 111v162q-1 27-1 28-6-3-28-36t-36-59q-15-29-25-54t-8-29q3-2 25.5-5t49.5-5zm41 0l23 2q22 2 46.5 5t28.5 5q1 6-14.5 41T576 877q-8 14-18.5 29.5T539 932l-18 24V764zm-181 18l8 25q17 50 44 94l10 18q4 7 4 8-12-5-89.5-50.5T228 823q0-4 26.5-14t59.5-19zm323 2q5 0 22 5 26 8 56 19t33 14q0 1-7 6l-16 9-90 52q-28 17-47 27t-20 10q1-4 8-14 13-20 29.5-57t26.5-67q0-4 5-4zm272 82q17 2 23.5 17t-4.5 27q-13 11-28 5t-16-22q0-9 8.5-17.5T935 866z"/></symbol><symbol id="epub" viewBox="0 0 1024 1196.0048"><path d="M500 227q-18 0-32 13L113 594q-13 14-13 32.5t13 32.5l355 354q14 14 32 14t32-14l355-354q13-14 13-32.5T887 594l-52-51-335 335-251-251 251-252 84 84-168 168 84 83 251-251-219-219q-14-13-32-13z"/></symbol><symbol id="qr" viewBox="0 0 1024 1196.0048"><path d="M100 226v374h373V226H100zm427 0v374h373V226H527zm-374 54h267v266H153V280zm427 0h267v266H580V280zm-373 53v160h160V333H207zm426 0v160h160V333H633zM100 653v373h373V653H100zm587 0v107h106v-54h-53v-53h-53zm0 107H527v106h53v54h-53v53h53v53h107V866h-54v-53h54v-53zm-534-54h267v267H153V706zm54 54v160h160V760H207zm640 0v53h-54v160h-53v53h107v-53h53V760h-53z"/></symbol><symbol id="foaf" viewBox="0 0 1024 1196.0048"><path d="M315 189q-121 3-201.5 83.5T30 474q3 118 80 197.5T304 758q22 100 98 163.5T584 987q121-3 201-83t83-201q-2-119-79.5-198.5T594 418q-21-100-97.5-163.5T315 189zm0 50q99 3 165 69t69 166q-3 99-69 165t-165 69q-100-3-166-69T80 474q3-100 69-166t166-69zm-88 149q-24 1-40.5 17T170 445.5t16.5 40.5 40.5 16 40.5-16 16.5-40.5-16.5-40.5-40.5-17zm175 0q-25 1-41 17t-16 40.5 16 40.5 40.5 16 40.5-16 16-40.5-16-40.5-40-17zm197 81q94 8 155.5 73T818 703q-3 99-69 165t-165 69q-85-2-147-52t-82-130q57-8 104-36 16 13 37 13 24-1 40.5-17t16.5-40q0-18-9-32 26-36 40.5-79t14.5-90v-5zm72 149q-25 0-41 16t-16 40.5 16 40.5 40.5 16 40.5-16 16-40.5-16-40.5-40-16z"/></symbol><symbol id="info-card" viewBox="0 0 1024 1196.0048"><path d="M121 292q-51 1-85.5 33.5T0 406v437q1 48 35.5 80.5T121 957h758q51-1 85.5-33.5T1000 843V406q-1-48-35.5-80.5T879 292H121zm-1 100h760q7 0 11.5 4t4.5 11v436q0 7-4.5 11t-11.5 4H419q-7 0-11.5-4t-4.5-11V665q-1-39-28.5-66.5T306 570h-48q-18 0-29 12.5t-11 29 11 27 29 11.5h48q7 0 11.5 4.5T322 665v178q0 7-4.5 11t-11.5 4H120q-7 0-11.5-4t-4.5-11V407q0-7 4.5-11t11.5-4zm233 42q-23 1-38.5 15.5T299 486t15.5 38.5T353 541t38.5-16.5T407 486t-15.5-36.5T353 434z"/></symbol><symbol id="browserid" viewBox="0 0 1024 1196.0048"><path d="M37 259q-16 1-26.5 11T0 296v694q0 15 10.5 25.5T37 1026h623q4 0 11-11v11l329-383-329-384v12q-7-11-11-12H37zm73 116h137v524H110V375zm237 0h185q28 0 60.5 5.5T657 408q44 30 65 85t21 135q0 61-12.5 113.5T683 836q-24 30-58.5 46.5T537 899H347V375zm135 111v301h45q29 4 48-27t20-137q-1-88-21-114t-51-23h-41z"/></symbol><symbol id="remote-storage" viewBox="0 0 1024 1196.0048"><path d="M500 104l8 437 392-206zm0 0L100 335l392 206zM100 335v462l374-226zm0 462l400 231-18-442zm400 231l400-231-383-211zm400-231V335L526 571z"/></symbol><symbol id="persona" viewBox="0 0 1024 1196.0048"><path d="M37 260q-16 0-26.5 10.5T0 297v694q0 15 10.5 25.5T37 1027h634l329-383-329-384H37zm374 135q41 0 69.5 31.5T513 511q7 12 8 26-1 21-17 38-13 44-42 70v33l1 1q14 8 31.5 12t58.5 19q42 24 54 81.5t11 64.5q2 1-45.5 4t-162 3-161.5-3-46-4q-1-7 11.5-64.5T268 710q41-15 59-19t31-12l2-1v-33q-29-26-43-70-16-17-16-38 0-14 8-26 3-53 31.5-84.5T411 395z"/></symbol><symbol id="odata" viewBox="0 0 1024 1196.0048"><path d="M242 226q-55 10-93.5 49T100 369v515q10 54 48 92t91 49l4 1h515l3-1q54-11 91.5-49.5T900 883V368q-10-54-49-93t-94-49H242zm560 99v76q-142 1-284 0l1-75zm-321 1q1 38 1 75H200v-75h281zm179 112h142v76H518v-76h142zm-178 0v76l-282-1v-74zm72 112q124 1 248 1l-1 76-283 1v-78h36zm-72 0v78H200v-77zm36 115h283q1 37 0 75H519zm-207 35q25 0 48 10t40 30q33 41 23.5 93T367 910.5t-94.5 8T206 851q-17-47 6-90.5t71-56.5q14-4 28-4z"/></symbol><symbol id="markdown" viewBox="0 0 1024 1196.0048"><path d="M922 319q-2 0-3 1H73q-19 0-34.5 8.5T14 351q-17 26-13 57-1 230 0 460v1q2 19 11.5 33T36 924q27 14 55 10v1q421 0 842-1h1q19-1 33-11t22-24q14-26 10-55h1q0-228-1-457v-2q-1-18-11-32.5T964 330q-20-10-42-11zm-4 48h2q12 1 21.5 5.5T951 388q1 228 1 456v3q1 8-.5 15.5T947 876q-5 10-16 10-420 1-840 1h-3q-7 1-15-.5T60 882q-10-5-11-16V408l-1-4q-1-6 .5-13.5T54 378q6-11 18-10h837zm-773 97v327h96V603l96 120 96-120v188h96V464h-96l-96 120-96-120h-96zm552 0v168h-96l144 159 144-159h-96V464h-96z"/></symbol><symbol id="tosdr" viewBox="0 0 1024 1196.0048"><path d="M132 177q-37 1-60.5 24.5t-23.5 60T71.5 322t60.5 25h736q37-1 60.5-25t23.5-60.5-23.5-60T868 177H132zm0 226q-37 1-60.5 25T48 488.5t23.5 60T132 573h628q36-1 60-24.5t24-60-24-60.5-60-25H132zm-3 227q-35 2-58 25.5T48 715t23.5 60 60.5 25h700q36-1 60-25t24-60-24-60-60-25H129zm3 227q-37 1-60.5 24.5t-23.5 60 23.5 60.5 60.5 25h374q36-1 60-25t24-60.5-24-60-60-24.5H132z"/></symbol><symbol id="pub" viewBox="0 0 1024 1196.0048"><path d="M75 176v850h850V176H75z"/></symbol><symbol id="sub" viewBox="0 0 1024 1196.0048"><path d="M500 177q-180 5-300 125T76 602q4 180 124 300t300 124q180-4 300-124t125-300q-5-180-125-300T500 177z"/></symbol><symbol id="hubbub" viewBox="0 0 1024 1196.0048"><path d="M75 176v850h850V176H75z"/></symbol><symbol id="pubsubhubbub" viewBox="0 0 1024 1196.0048"><path d="M1 472v306h304V472H1zm694 1v306h305V473H695zm-193 7q-65 1-107.5 44T351 631q1 64 43.5 107T502 783q64-2 106.5-45T652 631q-1-64-43.5-107T502 480z"/></symbol><symbol id="cc" viewBox="0 0 1024 1196.0048"><path d="M499 226q-166 0-280 117-58 58-88.5 131T100 626.5t30 152 87.5 130 130 87.5 152 30T653 995.5 786 907q56-55 85-126.5T900 627t-29.5-154.5T785 344Q667 226 499 226zm2 73q135 0 232 96 46 46 70.5 105.5T828 626q0 138-94 230-48 47-108.5 72t-125 25-124-24.5T270 857t-72.5-106.5T172 626t25.5-124.5T270 394q94-95 231-95zM389 502q-50 0-83.5 33.5T272 627t33 91 86 33q34 0 62-17t43-46l-49-25q-14 34-49 34-27 0-40.5-19T344 626q0-70 54-70 11 0 23.5 7t20.5 25l54-28q-32-58-107-58zm232 0q-51 0-84 33.5T504 627t32.5 91 86.5 33q33 0 60.5-17t44.5-46l-50-25q-14 34-49 34-27 0-40.5-19T575 626q0-70 54-70 11 0 23.5 7t21.5 25l52-28q-31-58-105-58z"/></symbol><symbol id="cc-by" viewBox="0 0 1024 1196.0048"><path d="M499 228q-165 0-281 116-118 120-118 284t118.5 282T499 1028q165 0 287-119 114-112 114-280.5T784 344 499 228zm2 72q135 0 231 96t96 233.5T734 857q-100 98-234 98t-231-97-97-229.5T270 396q94-96 231-96zm-1 70q-56 0-56 56t56 56 56-56-56-56zm-82 133q-11 0-18.5 7.5T392 529v163h46v195h124V692h46V529q0-11-8-18.5t-18-7.5H418z"/></symbol><symbol id="cc-nc" viewBox="0 0 1024 1196.0048"><path d="M499 228q-165 0-281 116-118 120-118 284t118 282 282 118 286-119q114-112 114-280.5T784 344 499 228zm2 72q136 0 231 96 96 94 96 232 0 44-10 86L463 555q-4-5-4-10 0-17 15-24t33-7q35 0 69 23l52-53q-45-34-100-37v-62h-47v62q-37 2-64.5 21T379 518l-153-68q20-30 44-54 94-96 231-96zM190 520l204 92 64 28 47 21 39 16q10 10 10 25 0 21-14.5 30.5T504 742q-50 0-89-37l-55 56q55 47 121 48v61h47v-61q41-4 71.5-28t38.5-61l151 67q-20 36-55 70-98 98-232.5 98t-232-97T172 628q0-58 18-108z"/></symbol><symbol id="cc-nc-eu" viewBox="0 0 1024 1196.0048"><path d="M500 228q-167 0-282 116-118 120-118 284t118 282 282.5 118T786 909q114-113 114-281T784 344 500 228zm1 72q136 0 231.5 95.5T828 628q0 45-10 85l-220-97h6v-48H491l-46-20q6-14 14-23 16-19 37-27.5t44.5-8.5 42.5 5 33 11l18-77q-18-8-43.5-13.5T534 408q-48 1-87 18.5T379 477q-12 15-22 32l-132-58q19-29 45-55 94-96 231-96zM190 522l106 46h-8v48h38l-1 31h-37v48h44q9 53 37 87 29 37 71.5 56.5T532 858q33 0 60-7.5t45-17.5l-16-74q-11 6-32 11.5t-45.5 5.5-47-8-38-25.5T436 695h146l206 92q-21 38-54 70-99 98-233.5 98T269 858t-97-230q0-56 18-106zm283 125h1-1z"/></symbol><symbol id="cc-nc-jp" viewBox="0 0 1024 1196.0048"><path d="M499 228q-166 0-281 116-118 120-118 284t118 282 282.5 118T786 909q114-113 114-281T784 344 499 228zm2 72q136 0 231.5 95.5T828 628q0 51-13 95l-163-72v-29h-62l102-187H585l-69 155-38-17-63-138H308l44 82-132-58q21-33 50-63 94-96 231-96zM187 531l204 91h-45v63h94l9 19v30H346v62h103v90h100v-90h103v-58l131 59q-20 32-49 60-99 98-233.5 98T269 858t-97-230q0-51 15-97zm367 163l88 40h-93v-30z"/></symbol><symbol id="cc-sa" viewBox="0 0 1024 1196.0048"><path d="M499 228q-165 0-281 117-118 120-118 284t118.5 281.5T499 1028q166 0 287-118 114-114 114-281.5t-116.5-284T499 228zm2 72q136 0 231 97 96 94 96 231.5T734 858q-100 98-234 98t-231-97-97-230 98-232q94-96 231-97zm-3 118q-69 0-116.5 40T322 572h-31l79 79 79-79h-29q10-71 90-71 44 0 67.5 33.5T601 631q0 61-25.5 97.5T508 765q-84 0-88-73H319q10 75 59.5 115.5T496 848q92 0 150-61t58-153q0-95-56-155.5T498 418z"/></symbol><symbol id="cc-nd" viewBox="0 0 1024 1196.0048"><path d="M499 227q-165 0-281 117-118 120-118 284t118.5 281.5T499 1027q166 0 287-118 114-114 114-281.5t-116.5-284T499 227zm2 73q136 0 231 96 96 94 96 231.5T734 857q-100 98-234 98t-231-97-97-230 98-232q94-96 231-96zM361 533v69h290v-69H361zm0 129v68h290v-68H361z"/></symbol><symbol id="cc-public" viewBox="0 0 1024 1196.0048"><path d="M500 227q-170 4-283 117T100 627q4 170 117 283t283 117q170-4 283-117t117-283q-4-170-117-283T500 227zm0 75q138 4 230 95.5T825 627q0 44-11 84l-1-1-361-161q10-18 26-29.5t39-12.5q27 2 43 14 7 5 12 10l66-67q-34-27-67.5-36t-58.5-8q-58 0-98.5 22.5T349 503l-121-54q45-67 115.5-106.5T500 302zM193 520l127 57q-5 25-5 53 5 117 69 162t125 42q33 0 61.5-9.5T622 799q8-6 15-12l-58-71-5 5q-18 16-33.5 19.5T520 743q-45-3-66-39t-20-77l350 156h1q-43 77-117.5 122.5T500 952q-138-3-229.5-95T175 627q0-56 18-107z"/></symbol><symbol id="cc-zero" viewBox="0 0 1024 1196.0048"><path d="M486 228q-166 0-280 116-58 58-88.5 131.5T87 628.5 117 780t87.5 129.5 130 88 152 30.5T640 997t133-88q56-55 85-127t29-154-29-154.5T772 345Q654 228 486 228zm2 72q136 0 232 96 47 47 71 106.5T815 628q0 138-94 229-48 47-108.5 72t-125 25-124-24.5T257 858t-72.5-106.5-25.5-124 25.5-124T257 396q94-96 231-96zm-1 98q-97 4-132 75t-33 155q-2 84 33 155t132 75q97-4 132.5-75T653 628q2-84-33.5-155T487 398zm0 87q8 0 15 2 8 6 10 14.5t-5 20.5l-88 161q-3-31-3-55-2-39 10-89t61-54zm66 74q3 19 4 37t1 32q2 40-10 89.5T487 771q-8 0-15-1l-6-2q-12-5-16.5-14.5T455 729z"/></symbol><symbol id="cc-share" viewBox="0 0 1024 1196.0048"><path d="M499 228q-165 0-281 116-118 120-118 284t118.5 282T499 1028q166 0 287-119 114-113 114-281T783.5 344 499 228zm2 72q136 0 231 97 96 94 96 231.5T734 857q-100 98-234 98t-231-96.5T172 629t98-232q94-97 231-97zM334 404q-8 2-14 8t-6 15v294q0 9 6.5 15.5T336 743h88v87q0 9 6 15.5t16 6.5h218q9 0 15.5-6.5T686 830V536q0-9-6.5-15.5T664 514h-88v-87q0-10-6-16.5t-16-6.5H334zm24 45h175v65h-90q-8 1-13.5 7t-5.5 15v163h-66V449zm109 108h175v251H467V557z"/></symbol><symbol id="cc-remix" viewBox="0 0 1024 1196.0048"><path d="M499 228q-165 0-281 116-118 120-118 284t118.5 282T499 1028q166 0 287-119 114-113 114-281T783.5 344 499 228zm2 72q136 0 231 97 96 94 96 231.5T734 857q-100 98-234 98t-231-96.5T172 629t98-232q94-97 231-97zm-64 102l-108 47v114l-95 40v103l102 44 103-43 217 90 5 1 4-1 97-42 7-3V639l-87-37v-99zm27 216l183 75v3h1v71l-1-1v1l-183-76v-73zm201 4l59 25-64 27-58-25zm79 44v69l-71 31v-70z"/></symbol><symbol id="hatom" viewBox="0 0 1024 1196.0048"><path d="M160 324q-67 0-113.5 47T0 484v287q0 66 46.5 113T160 931h680q67 0 113.5-47t46.5-113V484q0-66-46.5-113T840 324H160zm160 81q80 0 80 85 0 17-19.5 72T361 627q0 27 24.5 48t54.5 31 54.5 22.5T519 754v53H124v-53q0-14 24.5-27.5t53.5-24 54-30 25-44.5q0-6-20-62.5T241 490q0-47 21-66t58-19zm289 77q118 0 202.5 84.5T896 771h-55q0-97-68-165.5T609 537v-55zm0 98q78 0 133.5 55.5T798 770h-55q0-55-39.5-95T609 635v-55zm38 113q16 0 27 11.5t11 27.5-11 27-27 11-27-11-11-27 11-27.5 27-11.5z"/></symbol><symbol id="hresume" viewBox="0 0 1024 1196.0048"><path d="M160 324q-67 0-113.5 46.5T0 484v286q0 66 46.5 113T160 930h680q67 0 113.5-47t46.5-113V484q0-67-46.5-113.5T840 324H160zm160 81q33 0 51 13 4 2 6 4 23 20 23 67 0 16-12 52-2 4-4.5 11.5T380 561q-19 55-19 65v8q1 4 1 7 2 6 6 13 6 11 17 21h1q10 9 25 17 12 6 29 13l43 17q21 10 29 18l3 2v1l4 6v58H124v-54q0-16 36-33 3-1 9-4 3-1 4-2 66-27 83-42 5-4 10-9l2-3q1 0 1.5-.5t.5-1.5l1-2h1l7-15 1-7q1-3 1-7.5t-7-23.5l-9-27q-8-20-11-32-6-17-7-21-3-10-4-19l-2-7v-8q0-12 2-23v-1q2-10 4-17 6-16 17-26 2-2 6-4 14-10 34-13h16zm423 93q35 0 65 17t49 45l35-34v108H783l34-34q-10-21-30-34t-44-13q-34 0-58 24t-24 57.5 24 57.5 59 24 60-28h64q-17 37-50.5 59.5T743 770q-57 0-96.5-39.5t-39.5-96 39.5-96.5 96.5-40z"/></symbol><symbol id="hcard-add" viewBox="0 0 1024 1196.0048"><path d="M160 325q-67 0-113.5 46.5T0 484v287q0 66 46.5 113T160 931h680q67 0 113.5-47t46.5-113V484q0-66-46.5-112.5T840 325H160zm160 80q80 0 80 85 0 17-19.5 72T361 627q0 28 24.5 48.5T440 706t54.5 22.5T519 754v53H124v-53q0-14 24.5-27.5T202 703t54-30 25-45q0-6-20-62t-20-76q0-47 21-66t58-19zm397 87h51v114h110v50H768v115h-51V656H607v-50h110V492z"/></symbol><symbol id="hcard-download" viewBox="0 0 1024 1196.0048"><path d="M160 323q-67 0-113.5 46.5T0 482v287q0 66 46.5 113T160 929h680q67 0 113.5-47t46.5-113V482q0-66-46.5-112.5T840 323H160zm160 81q33 0 51 13 4 2 6 4 23 20 23 67 0 15-12 52-2 4-4.5 11.5T380 560q-19 55-19 65v8q1 4 1 7 2 6 6 13 6 11 17 21h1q10 9 25 17 12 6 29 13l43 17q21 9 29 17l3 3v1l4 6v58H124v-54q0-16 36-33 3-1 9-4 3-1 4-2 66-28 83-42 5-4 10-9l2-3q1 0 2-1l1-3h1l7-15 1-7q1-3 1-8t-7-23q-2-7-9.5-27T254 543q-6-16-7-21-3-10-4-19l-2-7v-8q0-12 2-23v-1q2-11 4-17 6-16 17-26 2-2 6-4 14-10 34-13h16zm362 94h119v131h76L742 770 606 629h76V498z"/></symbol><symbol id="indieweb" viewBox="0 0 1024 1196.0048"><path d="M100 226v174h101q4-10 12.5-16t19.5-6 20 6.5 12 16.5q43 5 71 36t29 75q-1 47-33 78.5T253 624H100v402h800V226H100zm0 200v171h153q36-1 60.5-25t24.5-60q0-33-20.5-56.5T265 427q-5 9-13 15t-19 6-19.5-6-12.5-16H100z"/></symbol><symbol id="indiewebcamp" viewBox="0 0 1024 1196.0048"><path d="M100 226v174h101q4-10 12.5-16t19.5-6 20 6.5 12 16.5q43 5 71 36t29 75q-1 47-33 78.5T253 624H100v402h800V226H100zm0 200v171h153q36-1 60.5-25t24.5-60q0-33-20.5-56.5T265 427q-5 9-13 15t-19 6-19.5-6-12.5-16H100z"/></symbol><symbol id="webfinger" viewBox="0 0 1024 1196.0048"><path d="M442 176q-20 1-35 14.5T389 224q-2 28 9 53 4 9 8 19t3 21q-1 33-3 66.5t-8 67.5q-15-24-28-48.5T340 356q-8-11-19-18.5t-25-9.5q-20-2-36.5 10.5T240 371q-1 12 3 24t9 23q14 34 25.5 69.5T306 557l16 30q8 15 11 32 7 32 11 64l10 64 5 31q3 15 9 30t15.5 28.5T399 866q7 20 11 42 12 59 25 118l281-53q21-5 42-12-4-42-15.5-83.5T732 794q1-25 8.5-48t12.5-47l6-22q2-11 1-23-5-18-16-32.5T724 591q-5-10-5-21v-22q1-69 9-138t2-138q-2-13-4-25.5t-8-24.5q-10-19-30-26-14-4-28.5-1.5T634 207t-17 23-9 27q-7 31-11 63t-10 63q-14-29-27-59-10-29-13.5-60.5T530 203q-7-14-21-20t-30-6q-18 0-37-1zm1 23h2l47 3 5 1q12 3 19 13l3 5 4 11q2 8 4 15 2 11 3 22 3 19 6 37.5t10 36.5l12 26q7 17 15 33l15 25 12 18q3-15 4-29 4-43 10-86l6-42q2-21 10-40 3-9 9-17l2-2 7-6 7-3q5-2 10-2l3-1q5 0 10 1l10 3q10 3 17 11l3 5 3 5 3 5q5 12 6 24l1 6 1 43q0 21-1 42l-9 119q-2 45-3 90v5l1 13q2 8 6 16 6 11 14.5 21.5T743 650q2 3 2 7l1 5v12q-1 15-4 29l-6 25-12 49q-4 15-3 30 0 20 4 39l15 66q2 9 3 19l1 9q1 10 0 20l-8-15-4-7-14-68-6-30-4-30-28 7q10-11 18-22l8-12q4-6 6-13 5-15 8-29l10-40 2-16 1-15-2-9-3-11q-6-12-14-22l-18-24q-16-18-34-35l-11-10q-10-7-22-11-8-2-17-3-26-3-52-2 0 9-1 19l-3 12-3 6q-2 2-4 4.5t-5 4.5l-6 3q-8 4-16 6l-10 1-25 2-19 1q4 5 10 10l5 4q14 10 29 17l13 5 19 6q10 3 20 4l10 1h5l10-2 4-1q12-4 23-9.5t23-9.5l-5 6q-10 11-23 19l-11 6-14 8 9 19 8 12 10 10 10 5 8 3q8 2 17 2h4l35-5-9 7q-7 5-15 8l-5 2q-4 1-9 1h-3q-4 1-7 0l-8-1q-7-2-14-5l-11-4-7-2-11-1q-9 3-17 8.5T556 737q-5 4-10 7 4-10 9-19l13-23v-4q1-6-2-12l-6-10-3-5-6-5q-13-7-26.5-9.5T498 649q-6-2-12-5-13-7-23-19l-3-4-4-9-3-8q-1-5-1-10v-14l2-14 4-13 6-12 4-4 2-2q2-1 5.5-2t7.5-1h9l17 1 22 1q26-2 52-2h12l28 3 8 1 11 3 7 3 10 6 18 16 17 15q2-14 3-29l2-58 6-93 5-106q0-16-3-31l-2-7q-2-8-8-16-2-3-5-5l-5-4q-4-2-8.5-2.5t-8.5-.5q-16 0-26 14l-4 10q-2 5-4 11-4 18-6 37-8 70-13 141l-1 47q10 2 19.5 4t19.5 4q-6 3-12 5l-8 2-13 3q-9 1-17 2l-18 1 15-19-16-35-14-26q-8-12-14-25-9-21-19-42-3 33-2 66l-1 35v39l25 10q-10 4-21 8l-10 2-5 1-10-1-8-2-8-4-11-6 30-3q4-35 1-69-16-5-32.5-10T455 413l16 1 16 2 33 5q1-9 2-19l1-10v-19q0-15-1-29-17-4-33-6l-33-5q16-8 33.5-8t34.5 3q-2-28-6-55l-3-18-3-18q-2-9-7-17l-3-4-5-3-7-3-5-1q-6 0-11 2l-2 1q-2 2-4 3l-3 3-5 7q-3 6-5 12l-5 15q-5 24-6 49l-5 46q-2 16-4 33l-5 114-1 34 27-5-11 13q-6 7-13.5 11.5t-16.5 7-18 4.5l15-20-32-60q-20-40-43-79l-12-19-11-14q-5-6-12-7l-2-1q-3 0-6 1l-4 1-9 3-4 3-4 3-2 4-1.5 4 .5 5 1 11 3 10q2 8 4 15l18 44 18 51 10 26 7 16 12 24q12 23 23 46l10 1q15 0 30 2l-19 8q-9 4-19 7 3 27 8 53l7 53q2 14 4.5 28t9.5 27l7 12 8 10 6 5q10 7 20 12l21 11-28 1 5 29 19 87q1 4 2 9v13l-2 14q-13-37-19-77l-6-29-5-19-3-9-7-18q-3-7-7-13l-13-19q-6-10-11-20-2-5-4-11-3-11-4-23l-9-63q-3-26-8-52l-6-25-3-9q-3-9-7-17l-5-12-9-16-11-24-7-16-27-75-17-40-6-18-3-14q-1-7 0-13l1-3 2-6 8-8 6-4 7-3q4-1 8.5-2t9.5 0h5q8 2 14 7l4 5 8 10 37 62 26 49q10 21 23 42 2-40 3-80l1-27 6-85v-12l-1-4-2-11-8-21q-3-8-5-17-2-7-3-13l-1-9q-1-7 0-14l1-6 5-10 5-6 8-6 9-4zm10 8q-11 0-21 5t-13 16q-3 15 1.5 30t11.5 28l10-40q5-20 14-39h-3zm193 128h6l14 1 13 3q6 2 13 4l6 3q-9 2-19 3l-5 1q-7 0-13-1.5t-11-3.5l-16-9zm-300 88l-4 6q-3 5-7 9l-2 3-6 4-6 4-7 3-14 3 4-5 8-8 14-10q10-6 20-9zm312 5h4l5 1q10 2 19 8l6 4q-15 1-31-2-9-1-19-4l-11-4 19-2zm-281 57q-1 2-2 3l-9 8-9 7q-14 9-30 16 10-16 26-27 5-3 12-4zm95 58q-6 20-11 41l36 3h9l9-1 9-1 9-3q5-1 8-5l1-2q3-4 4-9l5-16q-30-4-59-6z"/></symbol><symbol id="bitcoin" viewBox="0 0 1024 1196.0048"><path d="M497 177q-146 3-258 89.5T88 499q-40 176 47.5 321.5T397 1014q176 39 321.5-48T912 705q40-177-47.5-322T603 190q-54-14-106-13zm-14 148l46 12-19 75 38 8 18-74 47 11-19 77q45 15 71.5 40t21.5 67q-5 31-20.5 47.5T628 610q32 16 44.5 43t-1.5 70q-20 52-62.5 63.5T506 786l-19 77-47-12 19-76-37-9-19 76-47-11 20-78-94-24 23-53 17 5q15 3 17 3 10 2 15-2t6-9l31-122 5 1-5-1 21-88q1-7-3.5-15T391 436q-2 0-17-4l-17-4 12-50 65 16h-1l30 8zm15 142l-23 93q23 8 64.5 12.5T595 540q6-40-33.5-55T498 467zm-35 140l-26 102q28 10 78 16t66-34q5-44-42-61.5T463 607z"/></symbol><symbol id="bitcoin-simple" viewBox="0 0 1024 1196.0048"><path d="M351 177v129H193v84l29-1q25 0 28 1 23 0 33 10.5t12 23.5v147h8-8v206q-1 8-7 16.5t-22 9.5h-57l-16 93h102l56 1v130h78V898q33 1 63 1v128h78V897q101-4 163.5-39T806 732q6-73-25-111t-88-51q35-17 53.5-49t14.5-83q-9-68-61-97.5T570 306V177h-78v125q-31 0-63 1V177h-78zm120 217q48-2 94 12.5t50 67.5q-8 63-75.5 72T431 552V395zm8 236q57-2 112.5 13.5T651 717q-9 69-90 79.5T431 803V631z"/></symbol><symbol id="svg" viewBox="0 0 1024 1196.0048"><path d="M500 176q-39 1-69.5 21T385 253q-10 23-10 48-17-18-40-27-36-15-72-7.5t-63.5 35T165 365t7 72q10 23 28 40-25 0-48 9-36 16-56.5 46.5t-20.5 69 20.5 69T152 716q23 10 47 10-17 17-27 40-14 36-7 72t34.5 63.5 63.5 35 72-7.5q23-10 40-27 0 25 10 48 15 35 45.5 55.5T500 1026t69.5-20.5T615 950q10-23 10-48 17 17 40 27 36 15 72 7.5t63.5-35T835 838t-7-72q-10-23-27-40 24 0 47-10 36-15 56.5-45.5t20.5-69-20.5-69T848 486q-23-9-47-9 17-17 27-40 14-36 7-72t-34.5-63.5-63.5-35-72 7.5q-23 10-41 27 1-25-9-48-15-36-45.5-56T500 176zm0 57q20 1 37 12t25 30 4 39-18 34v138l97-97q0-20 11.5-37t30.5-25 39-4 34 18.5 18 34.5-3.5 38.5-24.5 30-37 11.5l-98 98h138q14-15 34-18.5t39 4 30.5 24.5 11.5 37.5-11.5 37.5-30.5 24.5-39 3.5-34-18H615l98 98q20 0 37 11t24.5 30 3.5 39-18 34.5-34 18.5-39-4-30.5-25-11.5-37l-97-98v138q14 15 18 35t-4 38.5-25 30-37 11.5-37-11.5-25-30-4-38.5 18-35V716l-97 98q0 20-11.5 37T313 876t-39 4-34-18.5-18-34.5 3.5-39 24.5-30 37-11l98-98H247q-14 14-34 18t-39-3.5-30.5-24.5-11.5-37.5 11.5-37.5 30.5-24.5 39-4 34 18.5h138l-98-98q-20 0-37-11.5t-24.5-30T222 376t18-34.5 34-18.5 39 4 30.5 25 11.5 37l97 97V348q-14-14-18-34t4-39 25-30 37-12z"/></symbol><symbol id="json-ld" viewBox="0 0 1024 1196.0048"><path d="M278 256q-95 0-127.5 28T118 397v92q0 57-20 79t-74 22H0v55h24q53 0 73.5 22t20.5 80v92q0 84 32.5 112.5T278 980h25v-55h-27q-54 0-70-16.5T190 837v-95q0-60-17.5-87T113 618q42-10 59.5-37t17.5-87v-95q0-55 16-71.5t70-16.5h27v-55h-25zm419 0v55h27q53 0 69.5 16.5T810 399v95q0 60 17 87t60 37q-43 10-60 37t-17 87v95q0 55-16.5 71.5T724 925h-27v55h24q96 0 127.5-28.5T881 839v-92q0-58 20.5-80t74.5-22h24v-55h-24q-54 0-74.5-22T881 489v-92q-1-85-32.5-113T721 256h-24zm-80 85q-27 0-50.5 14T529 394q-16 32-11 64l-1-2q2 1-5 18.5T461 521q-46 27-68 24.5t-21-5.5l2 3-6-3q-38-19-77-7.5T232 582t-8 77 49 60q28 14 57.5 11t53.5-22l-1 2q0-3 20-5.5t68 21.5q37 21 48.5 38.5T530 791q0 28 13.5 53t40.5 40q39 19 77.5 7t58.5-50 8.5-76.5T679 705q-5-3-10-5h2q-1 1-11.5-14.5T647 617q0-53 10-70t11-15h-3q27-14 43-43 19-38 7.5-76.5T666 352q-24-12-49-11zm2 16q26 0 46 17-11-9-31-7t-41 15q6 6 6 14.5t-5.5 14.5-14.5 7q-3 0-6-1h-1q-6-1-10 1.5t-5 4.5q-10 19-11 36.5t8 29.5q-19-22-18-51t22-53q13-14 29-21t32-7zm-69 167q9 1 11 2l10 5q9 5 19 8 6 5 13.5 23.5t8.5 58-7 58-15 23.5q-14 6-25 16-6 3-25 1t-56-21q-39-22-51-38t-11-22q1-13-2-26l1 1q-3-1 5-17t51-45q26-15 43-21t27-6h3zm-227 24q26-1 46 17h-1q-10-9-30-7t-41 15q5 6 5.5 14.5T297 602t-15 7q-3 0-5-1h-2q-6-2-9.5.5T260 614q-10 19-10.5 36.5T258 679q-20-21-19-50t23-53q12-14 28-21t33-7zm314 161q26 0 46 17h-1q-10-8-30-6.5T611 735q5 5 5.5 13.5t-5.5 15-15 6.5h-5l-2-1q-6-1-9.5 1.5T574 775q-10 19-10.5 37t8.5 29q-20-21-19-50t23-54q12-14 28-21t33-7z"/></symbol><symbol id="tent" viewBox="0 0 1024 1196.0048"><path d="M471 258L0 960h471V258zm58 0v18q-9 233 53.5 451T881 960h119z"/></symbol><symbol id="copyleft" viewBox="0 0 1024 1196.0048"><path d="M500 177q-180 5-300 125T75 602q5 180 125 300t300 125q180-5 300-125t125-300q-5-180-125-300T500 177zm-4 87h4q144 3 239.5 98.5T838 602q-3 144-98.5 239.5T500 940q-144-3-239.5-98.5T162 602q3-143 97-238t237-100zm1 99q-87 2-149.5 53T265 548h114q16-34 47-55t71-21q55 1 91.5 38t38.5 92q-2 55-38.5 92T497 732q-40 0-71-21t-47-54H265q20 80 82.5 131T497 841q101-3 168.5-70.5T735 602q-2-101-69.5-168.5T497 363z"/></symbol><symbol id="gnu" viewBox="0 0 1024 1196.0048"><path d="M268 178q-24 0-49.5 5T166 202t-45.5 31.5T87 280t-19 56-2 62 12.5 62 33 55 46.5 41 59 18q1 15 .5 22.5t-9.5 18-7.5 19.5-15.5 20-18 30q-1 10 4.5 13t13-2 14.5-5 13 2q3 2 9 .5t9.5-8 8.5-9 10-2.5q-2 34-1 66t14 67 38 65.5 70 64.5q-35-34-59.5-64t-37-70.5-13-69.5 1.5-65q15-2 26.5-6.5T314 647l5 33q1 9 .5 18t1.5 14.5 5.5 4.5 5.5 5 3 18 2.5 17.5 3 5 4 0 6.5.5 7 3 3 8.5 3.5 8.5 9 3 7.5 2q3 4-1 7l-4 2q-2 2-3 4-1 7 1 16t9 15q4 2 9.5 2.5t8.5 3 2.5 6.5 2 6 7 1.5 7.5 1 5.5 3 1.5 5-5.5 8-6.5 7.5q-4 7-2.5 12t8.5 13 16 14l18 12q6 4 7 9.5t-5 9.5q-3 3-8 4.5t-7 4.5q-4 6-2 13t7 12q2 3 5.5 6t6.5 4l-10-14q-3-7 1-13 2-2 5.5-2t7.5-2q6-2 10-7 2-3 3.5-6.5t.5-9-5-13.5l-8-15q8 6 15 13 3 4 5 9t5 9q7 7 15 14l-8 11q-4 5-7 12t-1.5 14.5 6.5 11.5 13 11q-7-10-10-19-1-7 3.5-11t9.5-7l-1 6q-1 3 0 6.5t5 8.5l7 8q8 8 16.5 14.5t16 7.5 15.5 1q-8-3-15-8-4-5-7-12 7 5 14.5 9t17.5 6q14 3 30 4-13-5-19.5-11.5T582 1003q8 4 15 9t14 7 13 2.5 14-.5q16-2 23-7-13 3-31 0l7-4q3-1 12-9t15-16 8-13q-12 13-31 18l8-8q3-4 4-10-11 5-19.5 1.5t-16-11.5-9.5-15q0-5 2-7l6-4q4-3 9.5-6t9.5-7q6-7 8-15t0-16q-2-4-4.5-8.5t-4-8-1.5-6 1-5.5q4-7 11-15l17-3q6-1 13.5-1t12-2.5 7-8.5 2.5-10q2-9 1.5-16.5T697 791l15-7q8-3 13-10.5t4.5-13.5-5.5-10q-2-3-6-5.5t-7-5.5q-4-5-6-9 9-6 16.5-12.5t13-11.5 8-8.5 4.5-8.5q3-10 3-23 0-7-1.5-15t-3.5-13-4-7l-5-3q-5-4-10.5-5t-11.5 2l-9 1q-5 1-8.5 0t-4.5-3l-4-4-2-12q-1-6-2.5-14.5T679 576l5 2q2 1 6 4l21 14q11 7 24 9 8 2 14.5 6t14 5.5T780 618h17q14 0 22.5-4.5T830 601t-1-11q-6-4-9-2-6 2-9.5-2t-5-10-2.5-14q41-6 72-35 17-16 32-41t21-46q7-27 6.5-60t-6.5-60q-5-19-12.5-35T896 254q-11-13-24-25.5t-27.5-21-33-14.5-34.5-8q-21-2-43-1t-41 8q-8 4-15 8l-28 18q-8 5-16.5 4.5T619 216q1 9 3 15t9 12q11 10 30.5 10t33.5-1q11-1 21.5-3.5t22-2.5 24 4.5T782 259q12 6 22.5 16.5T823 297q9 15 13.5 32.5t4 33.5-3 30.5T823 423t-30 11q-17-6-29-19t-22-27q-12-18-27.5-38.5T680 312q-11-9-26.5-16t-30.5-9q-23-2-38.5 3T549 310q-6 4-10.5 9t-10.5 9q-12-8-23-17.5T479 295t-24.5-8-28-1.5-36.5 6-35 19.5q-21 19-57 61t-50 53q-9 7-15 10t-18 2.5-26.5-15.5-17-38.5 1-40.5 20.5-44.5 44-39.5 48-15 38 1.5 39.5 5T404 244t19-34q-8 7-24 7-9-1-21-8l-27-17q-15-8-33-11t-43-3h-7zm0 8h6q21 0 38.5 2.5t32.5 10 28 15.5 22.5 9 14 0 6.5-3q-5 14-20.5 18.5t-33.5 4-35-5-41.5-2T233 251t-46 43-21.5 47.5T163 383q3 27 19.5 44.5T215 446q14 0 21-3t18-11q14-12 49-53.5t56-61.5q19-16 35.5-20t32.5-4.5 26.5 1.5 24 8 22.5 14 19 17l7 8q6-2 13-2t12.5 5 10 12 3.5 13.5 0 13.5q2 4 5 5l6 3q4 2 4 7 3-4 0-8l-6-4q-3-2-3-6 0-7 1-12.5t-2.5-14.5-11-14.5T543 329q7 1 15 5 12 5 26 14t19 21q4 9 2 15.5t-8 12.5q-4 4-11.5 9t-10 11 1.5 12q2 3 6 5t5 5q2 6-2 10.5t-9 4.5q7-5 5-13-2-4-6-7.5t-8-6.5q-8-4-16-5.5t-18-9.5q-6-4-8.5-8.5t-4-11-2-15 .5-15.5 3-15q-3 2-4 4l-2 4-27-24q-11-11-32-15t-39 0-37 15q-27 16-44 35l-37 43q-17 19-31 29t-37 21l-17 17-13-16-23 3-4-23-21-6 4-30-15-10 11-19-11-21 14-24-5-23 17-14 2-24 23-8 10-22h26l13-16 18 1 20-2 11-7 17 10 19-10 40 14-26-21-26-4-21-4-27 8-24-6-24 13-24-1-12 20-25 2-13 23-16 7-4 29-13 12 6 25-16 18 15 21-17 12 21 17-21 20 26 8-17 21 21 4-14 23h24l-12 18 25-3-6 25 20-15 6 31 14-22 7 27 16-20v29l18-26-10 45q-36-5-59.5-18T117 509.5 86.5 458t-13-60.5 1.5-60 19-54 34-45 45-31 50-17.5 45-4zm471 4q25 0 51 4.5t48 17.5q15 9 27.5 21t23.5 25q12 17 19.5 31t13.5 34q5 24 5 56.5t-6 56.5q-5 20-20 44.5t-30.5 40-32 22.5-37.5 10q-6-10-8-21l-4-22 16 25v-28l14 20 7-27 11 22 6-30 17 15-5-24 22 2-10-17 20 1-12-23 18-3-14-20 22-8-18-19 18-16-14-12 13-19-14-18 5-24-12-11-3-27-14-7-12-22-21-2-11-19-21 1-21-12-21 5-24-7-17 4-24 4-22 19 34-13 18 9 14-9 10 7 17 2 16-1 11 15h23l9 21 20 7 2 24 15 12-5 22 13 23-10 20 10 18-13 10 3 29-18 5-4 22-20-3-12 15-15-15-14-7q-7-3-14-9-15-12-31-32-9-11-19-25t-19-23.5-17-15.5-16-11q-15-9-28.5-13t-28.5-1q-12 3-24 8 10 7 21 15.5t18 19.5 4 22.5-12 18.5q17-1 31 2l3 11 3 13q1 6 5 10l9 8q5 4 9 13 1 4 1.5 13t-.5 13q-3 7-9 14h-14q-14 1-27 7-1-8 1-14 1-2 3-3t3-3q2-5 4-12 5-1 9.5-1t7.5 1.5 7 5.5q-4-9-10-10t-13-1q1-7 6-12l4-3q2-1 3-4 1-7-5-9t-12 .5-10 8.5-6 13q-4 17-2 35 1 11 4 18 23 30 43 62 5 10 9.5 20.5T673 615q11 15 22 20 5 2 9 1l8-1q3-1 6-2.5t6-.5q8 1 14 9 2 5 2.5 12t.5 13q0 12-5.5 21.5t-13 16.5-16.5 12q-11 8-24 13l-24 9q16 0 38-4 4 6 9 11 3 3 6.5 4.5t6.5 4.5q3 6 0 11.5t-11.5 8.5-13.5 2q-15-1-27.5-1t-24.5 3q-17 4-33.5 7.5T574 787l-12-1q-8-2-13-4-14-6-24.5-21.5T506 732q2-12 4.5-21.5T522 691q-11 7-13.5 14.5T503 726l-10-17q-6-11-12-15-4-2-9-2h-9q9 2 16 7 3 2 4 5l6 10 10 19q5 12 10 21 3 5 11.5 16t19.5 18q10 6 23 8.5t25 2 25-4 25-5.5q25 0 50 3 2 9 2.5 17t-2.5 17l-2 6q0 2-4.5 3t-11 .5T658 834q-27 1-53 5-16 3-33.5 6t-24.5 8q9 1 18 3 5 2 8.5 5t9 3 11.5-4 11-4.5 10 .5l9 2q0 5-1.5 9.5t.5 8.5l6 9q3 4 5 8 2 8-.5 14t-8.5 11l-11 9q0-10-1-11-5 11-19 19l5-12q2-7 2-13l-1-9-3-8v10q0 6-2 10.5t-5 8-8.5 8-15 9T551 947q-10 9-9 19 0 5 3 10l6 10q-9-5-14.5-12t-6-16-.5-19l-6-3q-3-1-7-4-10-5-17-15t-6-20q1-5 4-9l6-7q-9 4-17.5 4t-9-5 .5-11.5 0-14.5q-5 6-11 12-4 3-9.5 5t-8 8-1 12.5T451 906q-4-4-6-4.5t-8.5-7-5-11.5 4.5-9q4-7 4.5-14.5t-4-15T422 831q-5-2-10.5-2.5T402 826q-10-3-14.5-9.5T387 803q2-4 4.5-6.5t3.5-5.5q2-9-4-13-4-2-8.5-2t-8-1.5-3-6-.5-6.5q-3-5-8-9-4-2-9-1.5t-7.5-5-2-14.5-1-14.5-5.5-6-6-6 0-14.5-1-18q-5-18-3-36 18-14 26-23.5t20-28.5l8 21q3 7 9 15l11 15-10-19q-10-22-9-40.5t4-34.5 3-25-1-14q-4 33-14.5 58t-30 46.5T307 639t-29.5 13-24.5 5.5-22 10.5q-14 14-19 12l-9-2q-7 0-14 3t-12 7q0-12 3-15l9-9q6-6 9.5-7t6-6 5-17 10-18.5 7.5-16V577q12-45 29-79t33-47q10-9 25-17.5t28-13.5q8-3 17-3t13-1q18-6 34.5-10t30.5-1q7 2 13.5 2.5T470 405q6-1 12-4.5t13-6.5q11-3 20-3 2 10 4.5 16t12 12.5T549 428t17 5.5 10 9.5-3 8-10 2q11 10 25 2 6-3 7-10.5t-3.5-10.5-8.5-7.5-1.5-8 6.5-6.5l13-12q6-5 10.5-10.5T616 377q-1-10-4.5-16.5T600 347q-15-14-34-22-8-4-16-6 19-16 33.5-22t39.5-4q15 2 28.5 8t24.5 16q18 16 33 35.5t28 39.5q8 11 24.5 28t30.5 21q23 2 35-12t16-33q4-16 4-33.5t-4.5-35.5-13.5-32.5-19.5-24.5-24.5-17q-7-5-18.5-9t-27-4.5-25 2T694 245t-24 1.5-21-1.5-13-6-9-11q7 4 17 0 14-6 26.5-15t27.5-15 41-8zm-79 218q16 3 30 8.5t23 14.5 18 21 17 26q3 8 5 16.5t6 17 10 17.5l11 15q5 6 8.5 9.5t6 8.5 3 11.5T799 584q5 10 11 12t12 1q-1 6-7 9.5t-12.5 4-16.5.5-17-1-13.5-5-13.5-5.5-12-3.5l-12-5q-6-3-13-8l-11-8-17-9-8-23 9-9q-6 0-12 2.5t-11 5-13 2.5l-5-8q5 2 11 2 10-2 12-12 1-6-1-11 4 0 7 2t5.5 4.5 5.5 2.5v-6l-1-8q-4-6-7.5-8.5T662 499q7-5 11-13 1-5 .5-16t-2.5-17-7-11l-10-10q-6-7-4-15 1-4 4-6zm-212 8q-5 9-14 14-3 1-6 1.5t-5 1.5-2 2.5-3 2.5-7.5.5-8.5.5q-7 4-10.5 9.5T386 458l-1 5q0 3-3.5 4t-6.5 5q-2 2-2.5 5.5T370 484q-3 4-9 8l-10 8q13-5 24-13l11-11q2-2 4.5-2.5t4-2.5 1.5-4 1-5q4-9 8-13t11-2l-1 6v9q0 5-1 9-3 6-7 10 6-2 13-5 10-6 15-12.5t8.5-15 4-16 .5-16.5zm54 15q0 8 4 13 5 2 9 3 1 2 1.5 3.5t2.5 1.5q4 1 9 0l13 27q2 5 2 7.5t2.5 8T553 508l11 15-8-18q-2-5-3-11.5t-2.5-10.5-3-4.5-4.5-4.5q-10-19-16-41l-3 3q-2 2-5 2-8-2-17-7zm-12 35q-6 0-12.5 1.5T467 470q-16 5-29 16l16-7q8-3 16-5 4-1 12.5-2t13 2 5.5 11l1 13-12 2-15-1-14 3-13 2q-5 1-12 5-1 9 1 18 2 6 9 11.5t13 7.5q16 6 32 6.5t24-13.5q2-5 3-13l-2 7q-2 4-5 8-6 5-14 6-4 1-10 1l-11-2q-8-1-14.5-5t-10-7.5-6.5-8.5q6-6 9-7t12-1q-1 6 1 12 5 13 20 10 5 0 9.5-4t4.5-11q0-9-7-14 10-2 18 0 4 1 4 3l2 4q-1-5-3-10l-4-7-3-15q-1-6-6-13-2-4-5-5t-7-1zm144 44q-3 5-4 8t-1 9l-8-13q4-3 6-3zm-106 27q-3 11-7 19-5 6-12 10l8-2q5-1 7.5-5t2.5-10zm136 10q5 16 8.5 27t4.5 18 1 15q-7-14-14.5-27T647 554q7-1 11-3t6-4zm-108 60h-5q-13 3-22 8-15 10-15 28-1 10 4 18.5t12 14.5l-3-10v-8q3 3 7 4l2-7v-8q1-4 5-7 8-4 16-1 4 2 8 5-4-11-14.5-13t-19.5 4q-3 4-7 9-2-12 9-20 5-5 13.5-7t15-2 13 1.5 11 3.5 9.5 6l9 7 17 8q5 4 9 6l9 8 7.5 5 8.5 4q6 1 13-1-8-1-13.5-4t-11.5-9-14.5-12-19-12.5T588 612q-7-3-16-4t-16-1zm14 46q-5 0-10.5 1t-7.5 6q-3 9 4 16t17 3q4-3 3.5-7t-2.5-6q3 0 8 1 16 9 24 25 5 10 7 22 0-13-2-23-4-16-15-28-5-4-10.5-7t-13.5-3h-2zm-121 17q-5 0-8 2.5t-2 6.5v8q4-2 6-4.5t2-5.5l19-5z"/></symbol><symbol id="ofl-attribution" viewBox="0 0 1024 1196.0048"><path d="M499 228q-165 0-281 116-118 120-118 284t118.5 282T499 1028q165 0 287-119 114-112 114-280.5T784 344 499 228zm2 72q135 0 231 96t96 233.5T734 857q-100 98-234 98t-231-97-97-229.5T270 396q94-96 231-96zm-1 70q-56 0-56 56t56 56 56-56-56-56zm-82 133q-11 0-18.5 7.5T392 529v163h46v195h124V692h46V529q0-11-8-18.5t-18-7.5H418z"/></symbol><symbol id="ofl-share" viewBox="0 0 1024 1196.0048"><path d="M499 228q-165 0-281 117-118 120-118 284t118.5 281.5T499 1028q166 0 287-118 114-114 114-281.5t-116.5-284T499 228zm2 72q136 0 231 97 96 94 96 231.5T734 858q-100 98-234 98t-231-97-97-230 98-232q94-96 231-97zm-3 118q-69 0-116.5 40T322 572h-31l79 79 79-79h-29q10-71 90-71 44 0 67.5 33.5T601 631q0 61-25.5 97.5T508 765q-84 0-88-73H319q10 75 59.5 115.5T496 848q92 0 150-61t58-153q0-95-56-155.5T498 418z"/></symbol><symbol id="ofl-renaming" viewBox="0 0 1024 1196.0048"><path d="M500 227q-170 5-283 117.5T100 627q4 170 117 283t283 117q170-4 283-117t117-283q-4-170-117-282.5T500 227zm0 75q38 1 73 10 111 27 180.5 112.5T825 627q-4 138-95.5 230T500 952q-138-3-229.5-95T175 627q4-138 95.5-229.5T500 302zm-23 130v2h3v105l-17-50q3 2 4 5l-4-10h-11l2 1h-77L273 797h73l4-12-2 2 15-46h112l17 56h61l13 1-2-8q0 1-1 2l-15-47h53q56 0 84-22 10-8 17-18l2-4 1-3 1-3 3-8v-3q4-12 4-28 0-29-12.5-49.5T664 578q19-8 28.5-24t9.5-38q0-20-6-34l-1-2v-2q-9-24-36-36l-7-1 8 3q-9-3-19-6 6 1 11 3-7-3-18-4-19-4-44-4h-31zm185 13q3 1 6 3t7 5q-6-4-13-8zm-167 3h95q54-1 75.5 15t22.5 53q-1 19-8 31.5T659 566q-9 3-9 13t9 13q19 6 29.5 22.5T699 656q0 39-23 57t-74 18h-59l-48-148V448zm47 24h-2l-2 1q-1 2-1 3v69q0 3 1.5 5t3.5 2h44q20 1 32.5-10t12.5-30-12.5-30-32.5-10h-44zm10 14h34q16 0 23 6t6.5 20-7 20-22.5 6h-34v-52zm-132 72l37 125h-76zm120 50h-2l-2 2-2 4v77q0 3 2.5 5t4.5 2h50l2-1 1-1q22 0 36-9 15-13 15-34.5T630 619t-41-11h-49zm9 14h40q23 0 32.5 7t9 23.5T621 676t-30 7h-42v-61z"/></symbol><symbol id="ofl-selling" viewBox="0 0 1024 1196.0048"><path d="M500 228q-78 0-150.5 29T218 345t-88.5 132T100 627.5 129.5 778 218 910t131.5 88.5T500 1028t150.5-29.5T782 910t88.5-132T900 627.5 870.5 477 782 345t-131.5-88T500 228zm0 75q66 0 124.5 24.5t105 70.5 71 105T825 627.5 800.5 752t-71 105.5-105 70.5T500 952t-124.5-24T270 858q-95-100-95-230t95-230q47-46 105.5-70.5T500 303zm-31 103v73q-29 5-47 21-26 24-26 67 0 35 18 55t55 29l3 2 26 6q24 6 32 13l1 2q7 7 7 19t-7 19q-2 2-4 5-12 8-34 7-12 0-23.5-1.5T448 717q-24-7-50-22v63q26 10 51 16 10 2 20 3v72h62v-73q29-5 46-20 26-24 26-72 0-37-18-56-17-18-54-28l-37-9q-17-4-25-10l-3-1q-8-6-8-18 0-15 11-23l1-1q11-7 35-7 13 0 26 3l13 3q20 5 42 16v-62q-24-7-47-11l-8-1v-73h-62zm-132 43q-16 47-23.5 91t-7.5 87 7.5 86.5T337 805h31q-14-46-20.5-90.5T341 627t7-87.5 20-90.5h-31zm297 0q14 46 20.5 90.5T661 627t-6.5 87.5T634 805h31q16-48 23.5-91.5T696 627t-7.5-87-23.5-91h-31z"/></symbol><symbol id="ofl-embedding" viewBox="0 0 1024 1196.0048"><path d="M500 227q-78 0-150.5 29.5T218 345t-88.5 131.5T100 627t29.5 150.5T218 909t131.5 88.5T500 1027t150.5-29.5T782 909t88.5-131.5T900 627t-29.5-150.5T782 345t-131.5-88.5T500 227zm0 75q66 0 124.5 24.5t105 71 71 105T825 627t-24.5 124.5-71 105-105 71T500 952t-124.5-24.5T270 857q-95-100-95-230t95-230q47-46 105.5-70.5T500 302zm54 95l47 49-46-49h-1zm-238 3v454h368V536l-4-4-125-132H316zm25 25h204l5 5v109h-1v3h70l-45-2h79l6 6v283H341h317l-3-191v189H343V430h-2v-5zm204 5q2 2 3 9v-9h-3zm140 105v319h2V536zm-165 14l31 94-31-94zm-72 1l-85 253q0 1 2 1h55l-4 1h7l4-10-3 5 13-43h93l13 46q-2-2-3-6l2 10h11q-4-1-8-3h56l-6 2q9-1 9-2l-13-40 10 33-83-247h-70zm35 59l31 102h-62zm-44 151v1l21-1h-21z"/></symbol><symbol id="webmention" viewBox="0 0 1024 1196.0048"><path d="M857 216L627 430h111l-85 368h-2L531 430H387L266 792h-2L153 316H0l185 700h155l117-363h2l118 363h153l157-586h113z"/></symbol><symbol id="javascript" viewBox="0 0 1024 1196.0048"><path d="M75 177v850h850V177H75zm647 385q38 0 66 15t47 49l-62 40q-10-18-22-26t-29.5-8-27.5 9.5-10 24.5q-1 18 11 28t38 21l20 8q51 21 78.5 49t27.5 77q-1 54-38 82.5T726 960q-55-1-91.5-23.5T581 878l65-37q12 21 31 34.5t48 13.5q25 0 39.5-11t14.5-28q0-20-15.5-31T721 797l-20-9q-44-17-70-44.5T605 668q1-46 32-75.5t85-30.5zm-264 5h80v273q-1 61-33.5 90.5T418 960q-47-1-76.5-21.5T298 887l66-39q8 17 19.5 28.5t31.5 12 31-10 12-39.5V567z"/></symbol><symbol id="wtfpl" viewBox="0 0 1024 1196.0048"><path d="M359 242q-153 4-254 105.5T0 601q4 153 105 254t254 105q75-1 141-29 65 28 141 29 153-4 254-105t105-254q-4-152-105-253.5T641 242q-76 1-141 29-66-28-141-29zm-7 113q40 0 77 12.5t68 34.5q30-22 67-34.5t78-12.5q105 3 175 73t73 175q-3 106-73 176t-175 73q-41-1-78-13t-67-34q-31 22-68 34t-77 13q-106-3-176-73t-73-176q3-105 73-175t176-73zm-82 100q-54 125-29 203.5t69 97.5q42 20 95.5 16.5T497 708q32 54 86.5 63t102-13T756 653.5 726 455H606q31 75 31 146t-31 78-41.5-21.5T557 523H440q6 106-10 137t-43.5 17.5-27-71.5T388 455H270z"/></symbol><symbol id="ofl" viewBox="0 0 1024 1196.0048"><path d="M501 178q-102 0-197 46-53 27-104 79t-79 107Q52 556 86 701t160 243q37 28 85.5 49.5T425 1023q15 2 42 3t54 0q169-10 280.5-120.5T924 627q3-61-7-112t-37-105q-28-55-79-107t-104-79q-95-46-196-46zm193 126q22 0 43 8.5t37 26.5q13 9 10 55.5T759 581q-27 161-25 198t37 19q21-7 18.5 0T763 819q-62 35-75 11-8-10-4.5-51.5T707 607q24-148 25-192t-18-57q-16-15-37.5-18.5t-40 6.5-33 47-22.5 90l-4 31h52q22 0 37.5 1.5t17 4-3 9T668 542q-12 10-18.5 12t-12.5-1-16.5-5-21.5-2h-25l-12 105q-13 134-33.5 197.5T465 957q-13 14-23 24t-13 10q-9-1-8.5-9t11.5-19q30-27 46.5-86.5T510 689l16-140q0-1-7-2t-17.5-1-18.5-1.5-10-2.5q-3-6 13.5-16.5T517 514q8 0 12-8.5t9-34.5q22-117 116-159 19-8 40-8zM348 510q26 0 47.5 13t33.5 39q10 18 12 34t0 49q-4 62-32 109t-78 72q-26 14-42.5 15.5T252 833q-35-15-52.5-53T187 689q6-71 49-119 26-30 55-45t57-15zm-27 36q-71-1-88 123-4 34 6 67.5t30 50.5q48 36 87-5t41-129q0-34-11-62.5T360 553q-6-3-17-5t-22-2z"/></symbol><symbol id="wordpress" viewBox="0 0 1024 1196.0048"><path d="M500 175q-180 5-300 125T75 600q5 181 125 301t300 124q180-4 300-124t125-301q-5-180-125-300T500 175zm0 20q172 4 286.5 118.5T905 600q-4 173-118.5 287.5T500 1006q-172-4-286.5-118.5T95 600q4-172 118.5-286.5T500 195zm0 41q-97 1-176 45T195 400l24 1q31-1 63-3l34-2q15 1 16 13.5T318 426l-12 1q-12 2-29 3l132 394 80-239-57-155-38-4q-14-3-13-16t15-14l35 2q32 2 62.5 2t61.5-2l35-2q15 1 16 13.5T592 426l-13 1q-12 2-29 3l132 391 36-121q12-38 20-66.5t8-51.5q0-33-9.5-58T716 481q-14-22-24.5-42.5T680 396q1-26 17.5-45t43.5-20l5 1q-49-45-111.5-70.5T500 236zm320 190q2 17 2 37 1 28-5.5 60T795 594L683 916q83-49 131.5-131.5T865 600q-1-96-45-174zm-653 26q-31 69-32 148 2 110 57.5 196.5T341 929zm339 180L397 950q49 15 103 15 64 0 121-21l-2-5z"/></symbol><symbol id="owncloud" viewBox="0 0 1024 1196.0048"><path d="M453 320q-58 2-95.5 40T318 455q1 47 28 81 28-32 67.5-51t85.5-19 85 18q3-14 3-29-1-57-39-95t-95-40zm-176 62q-30 1-49.5 21T207 453q0 19 9 34 36-20 79-21l9 1-1-12q0-33 13-61-17-11-39-12zm332 49h-9q3 12 3 24 0 19-5 36 52 29 81 81 29-15 63-18-5-53-42-87.5T609 431zm-109 50q-80 2-133.5 55T311 669q2 80 55.5 133.5T500 858q80-2 133-55.5T688 669q-2-80-55-133t-133-55zm-205 1q-62 1-103 42.5T149 628q1 36 16 66t42 50q11-22 32-35t47-13q6 0 12 1-2-14-2-28 0-34 10.5-64.5T336 548q-23-28-30-66h-11zm458 87q-37 0-67 17 17 38 18 83-1 42-16.5 79T645 813q20 22 48 35t60 13q63-2 104-43t42-103q-1-62-42-103.5T753 569zm-623 19h-2q-55 4-91 41.5T0 722q1 58 39.5 96t95.5 39q43-1 76-24-14-21-14-48 0-14 4-26-31-23-49-56.5T134 628q0-21 5-40h-9zm796 116q-6 0-11 1v10q0 32-12 60.5T870 825q22 25 56 26 32-1 52.5-21.5t20.5-52-20.5-52.5-52.5-21zm-640 7q-32 1-52.5 22T213 785.5t20.5 52T286 859q24 0 42-13t26-34q-40-41-53-99-7-1-15-2z"/></symbol><symbol id="cccs" viewBox="0 0 1024 1196.0048"><path d="M500 177q-17 0-34 1-74 6-141.5 36.5T204 297q-62 60-96 140T75 603q-1 66 19.5 129T154 849q56 78 141 125t181 52q17 2 35 0l34-2q63-7 121-31.5T772 928q69-58 108.5-138T924 621q2-14 1-28.5t-2-28.5q-7-76-40.5-146T793 295q-59-57-135-87.5T500 177zm-1 85h5q39-1 77 9 48 12 90.5 37t76.5 61q39 41 62.5 92t29 107.5T831 680q-14 62-50 114t-88 88q-43 30-92.5 45.5t-101 15.5T399 927.5 307 883t-75.5-70.5T180 722q-21-55-22-114.5T177 492q14-42 39-79t58-66q40-36 88.5-57T463 263zm143 186q-4 0-7 1-10 3-16.5 10.5T612 478v68q0 9 2.5 17t8.5 13q14 11 30.5 5t19.5-24q1-39 1-79-1-13-10.5-21.5T642 448zm87 0h-1q-4 0-7 1-9 3-15.5 10t-5.5 16v83q0 7 5 13t12 9q14 6 27.5-1.5T760 555q1-39 0-77 0-13-9.5-21.5T729 448zm-173 0q-4 0-7 1-10 2-16.5 10t-6.5 19v74q-1 10 4.5 17.5T545 581q15 5 28-3t14-23v-80q-1-12-10-19.5t-21-7.5zm-191 0q-20 1-39.5 6T289 470q-32 21-50.5 55T220 598v25q1 13 4 26 7 29 25 53.5t44 38 55.5 14.5 57.5-9q20-8 36-22.5t30-30.5q2-5-2-9l-7-6q-11 12-24 22-18 13-41 13t-42-12q-14-10-23-24t-14-30q-9-26-10-54t1-55q2-16 7.5-31.5T335 479q9-9 22-11t23 6q7 7 7 17v18q0 11 2.5 22.5T400 550t17.5 7 18.5-1q15-3 23-15t7-26q-2-22-18.5-37.5t-38-22.5-44.5-7z"/></symbol><symbol id="barcamp" viewBox="0 0 1024 1196.0048"><path d="M657 176q-34 0-70 8 36 14 68 36 18 10 31 22.5t8 27.5q-23 34-62.5 29t-71-20.5-66.5-31-72-10.5q-37 8-58.5 42T331 347q42-14 90-11.5t74 44.5q19 36 13.5 83T464 530q-44 15-78-8l-66-46q-31-20-75-33.5T176 467q-15 32-10.5 66.5T157 600q-23 38-62 39.5T19 634q16 17 33.5 31.5t38 22.5 42.5 5q19-4 33-13t27-22.5 23.5-27.5 29.5-21q16-4 32-2t31 9q32 16 54 46.5t20 66.5q-1 19-12.5 34T344 788q-18 13-62 19 28 37 68 43.5t89 .5q39-5 80-17.5t81-5.5q41 13 36.5 45.5T604 930q-32 24-70.5 31t-78.5 4q56 28 115 45 393 45 410-362.5T657 176zm193 189q10 0 17 8 36 54 54.5 115T940 615t-19.5 128T863 860q-5 7-12.5 8t-14-3.5-8-12T831 838q35-49 52.5-106T901 615t-17-115.5T834 395q-4-7-2.5-14.5T840 368q5-3 10-3zm-71 47q10 1 16 9 29 43 44 92t15 102-16 103-46 93q-5 7-12.5 8.5t-14-3.5-8-12.5T761 790q26-39 40-83.5t14-91.5-13.5-90.5T763 443q-5-7-3-14.5t7.5-11.5 11.5-5zm-75 51q10 0 16 8 21 32 32 68.5t11 74.5q0 80-45 146-5 7-12.5 8.5t-14-3.5-8-12.5T686 738q39-56 39-123t-37-122q-4-7-3-14.5t7-11.5 12-4z"/></symbol><symbol id="indiehosters" viewBox="0 0 1024 1196.0048"><path d="M353 175q-33-1-62 17-26 22-29 54-3 26 10 52 11 22 42 25 14 1 38.5-3.5T389 308q22-20 25-47 2-13 2.5-28t-4.5-29q-9-14-26.5-20t-32.5-9zm283 2q-22 1-40 10-23 12-27 42-9 100 5 200 4 24 0 49 1 15-2 29 0 8-1.5 13.5T562 532q-16 10-35 12l-29 4q-15 3-30 1-8 0-17-1t-15-6q-3-4-3-10l1-12q0-27-2-50-5-28-38-55.5T313 397q-22 11-27 52l-7 66q-2 18-.5 50t5.5 56q7 41 10 79 1 58-5 113-4 72-12 145-4 30 7 44 12 19 39 22 15 2 40.5-1t38.5-8q23-12 27-42 8-90-2-183-3-22-3-44 0-9 .5-20.5T432 704q4-5 10-7.5t12-4.5l34-7q27-4 54 0 10 0 20 7 7 8 8 18t4 19q7 21 18 42 7 13 19 23t27 14q37 5 58-30t23-62q2-20 .5-64.5T714 581q-6-41-10-79-1-58 5-113 5-73 13-145 3-30-8-45-7-9-29.5-14.5T645 177h-9zm54 699q-17 0-41.5 4T611 891q-22 20-25.5 46.5t.5 52.5q3 29 32 32 18 0 46-4t43-13q25-22 29-55 7-23-5-49-11-21-41-25z"/></symbol><symbol id="known" viewBox="0 0 1024 1196.0048"><path d="M500 176q-181 5-300.5 125T75 601q5 181 124.5 301T500 1026q181-4 300.5-124T925 601q-5-180-124.5-300T500 176zm2 65q155 4 258 107t107 257q-4 155-107 258T502 970q-154-4-257-107T138 605q4-154 107-257t257-107zm217 121H527v67h17q15 0 18.5 2.5t3.5 7.5q0 2-2 5.5T553 457L419 597V468q0-19 3-26t11-11q5-2 25-2h13v-67H261v67h18q16 0 22 3.5t9 11 3 28.5v263q0 23-2.5 29.5t-9 10T277 778h-16v67h210v-67h-17q-18 0-23.5-3t-8.5-10-3-25v-48l65-64 75 121q10 16 10 20t-5.5 6.5T535 778h-9v67h217v-67h-8q-18 0-28-7-7-4-23-28L560 555l104-101q12-11 19.5-16.5t12.5-7 19-1.5l24-1v-66h-20z"/></symbol><symbol id="mozilla" viewBox="0 0 1024 1196.0048"><path d="M411 237q-69 5-118.5 31.5T241 299q-54 37-120 93.5T13 493q10 1 20-3.5t21-6.5l99-27q-35 28-83 68.5T0 603q25-11 63.5-29.5T128 551q-23 21-56 51.5T23 657q1 1 1 3v3q20-12 53.5-30.5T133 610q-22 24-50 59.5T44 735q20-13 54.5-31.5T154 676q-4 11-12.5 20.5T127 717q-11 16-25 33.5T85 787q33-31 73-53-9 19-21 36.5T120 810q13-13 33.5-20.5T191 776l-3 2-16 14q-14 11-27 27l10-2 13 3-32 13q74 96 173.5 136.5T531 999l-13-28q17-43 26.5-96t59.5-84q34-20 53-28.5t58-.5q25 5 64 15t66 6l35-21q15-9 33-23 23 5 34 1.5t19-16.5l14-38q9-26 19-48l1-15q-9-30-10.5-65.5T984 512q-37-39-119-63.5T727 371q7-28-5.5-51T690 280q-29-19-63-16t-64 12q-34-7-65.5-17.5T433 238q-9-1-18-1h-4zm-1 48q27 1 52.5 8.5T515 306q-2 5-6 8t-7 7l-7 11q-5 5-2 11l32-12q33-10 66.5-21t70.5-8l24 31q-39-27-79.5-8.5T527 356q-15 3-30 7.5t-29 7.5q16 12 35 15.5t40 1.5q3 16 17.5 34.5T590 445q-4-14-11.5-32t1.5-36q13-9 30-17.5t32 2.5q-10 1-18 6l-16 10q-6 5-8 14.5t-1 13.5q6 19 39 33t90 14q-7-10-24.5-28T686 396q63 55 141.5 79.5T936 523q-1 9-14 23t-10 22q-2 9 8 23.5t25 31.5q-7-63 7.5-41t.5 75l-35-8q-81-6-131.5-33.5T673 544q-26-17-51-37l-42-34-50-19q50 55 62.5 73.5T580 586l-17-31-7-55q-17 51-11 98t69 79l50 7q-18-14-30-29t-8-31q25 39 93 61t114 32q14 5 24 15-10 9-19 11.5t-22 6.5q-32-10-66-21t-49-31q-5 12-74 23.5T571 736q-37-2-72-22.5T438 663l-9-3q2 28 21 51t35 47l38 17q-14 9-28.5 18.5T471 818q-3 8-6.5 17t-.5 17q13-14 29-21.5t32-11.5l-16 25q2 21-9 49-2-5-5-10-38-15-71-39 7 22 24.5 44t37.5 38q-6 13-12 23-14-10-28.5-21T420 907q8 17 13 32.5t13 28.5q-62-4-117-23.5T229 886l60-34q-13 2-35 8l-42 11-7-8 54-27q30-15 41-33l-6 2-61 3q-5-31 11.5-53.5T246 708q-30-39-49-80.5T182 538q5 12 14 22 1-11 2.5-22.5T203 517q4 15 10.5 29.5T235 571l1-2q-14-47-2.5-95t56.5-78q-12 4-29 5.5t-35 8.5q3-5 9.5-21t18.5-28q9-7 16.5-14.5T288 333q19-16 43-28.5t59-18.5q8-1 16-1h4zm15 47q-32 1-60 12l-13 10q-10 12-19 25.5T321 409l3 4q16-17 37-28 0 18 9.5 33.5T396 443h3q-3-19-1-39.5t9-37.5q12-9 25-15.5t23-15.5q-15-4-30-3zm200 59q8 0 15 3-6 3-8 11-1 4 0 7-11-8-11-21h4zm-163 1q3 8 10 16l13 17q-31 3-60 11 7 5 14.5 9t13.5 9l-39 14q-19 7-36 21l5 3q31-6 66-5.5t68 7.5l2-2-25-46 38-8q-15-15-32.5-27.5T462 392zm200 14q8 7 15 16-11 2-22 0 5-3 7-10v-6zm-63 24q4 12 12.5 25.5T636 471q32 6 62 1-25-11-52-16.5T599 430zm-231 62q-23 18-32.5 42.5T330 587q3 20-4 41.5t6 39.5q29 32 63 55l-2-8q-15-17-27-35.5T347 641l35 12q18 7 37 10-25-32-49.5-66T357 519q2-7 7-13.5t4-13.5zm360 129q4 1 8.5 2t5.5 3q-4 2-8 6t-9 7l1-10q0-5 2-8zm40 21q6 0 10 4l-13 13 1-17h2zm30 11l10 6q-2 1-6 7t-7 7q1-3 1-11t2-9zm31 14l9 2q-3 4-6 10.5t-9 7.5l4-8q-1-13 2-12zm32 6l12 3-13 22zm35 6q3 0 12 4l-15 11q-2-16 3-15zm37 6q4 0 7 2-1 6-5 10t-7 9l1-11q1-5-1-10h5z"/></symbol><symbol id="unhosted" viewBox="0 0 1024 1196.0048"><path d="M340 221l-5 1q-9 3-12 7t-2 17l1 16-10 2q-7 2-9 1.5t-3-4.5q-9-23-13-27.5t-9 2.5-5 9 8 14l8 14-7 6q-6 7-8.5 7t-12.5-9q-16-13-21-14-1 1-1 11v10l14 8q15 8 12 11l-4 14q0 3-17.5-.5T222 316t4 14q1 4 4.5 4.5t13.5-.5l16-2 2 10q1 10-.5 12t-12.5 6l-10 4-8 4-5 3 5 4q8 6 12.5 6t14.5-7l13-8 7 7q7 6 6 9t-12 16q-7 9-8.5 13t0 5 8.5 1h11l7-14q7-14 11-14.5t2 9.5l-21 146h-14q-9 0-11.5-1t-2.5-4q-1-7-2-9t-5 .5-2 6-10 7.5q-10 4-8.5 4.5t10.5-3 11.5-1.5-7.5 4q-5 1-10.5 7t-7.5 12.5 2 4.5 2 4l-1 6 13-10v7q0 7 1 8t5 7l8 16q27 52 50 73 11 9 15.5 16t8.5 20 4 4q2-14 4.5-10.5T339 733q1 12 3 15.5t2-5.5q1-6 3-14l3-8v7q0 8 2 9.5t4-5.5l1-6 6 5q2 3 6 9.5t8 14.5q6 15 10.5 20.5t10.5 5 10 3.5 11 15.5 23.5 28.5 26.5 24q6 2 20 2t26-3q6-2 11.5-5.5T540 833q6-6 10-11t4.5-8 11-9 13.5-13 4-7q4 3 14.5 14.5t11 15 2.5-.5q4-8 6 13l2 14 1-11q3-18 7.5-18.5t17-12T663 781q3-6 5-7t8 1.5 9 2.5 10-12l8-12q1-1 5 4t12 9.5 13.5 4.5 11-3.5 8.5-8.5l10-17q4-5 7-11.5t4-11.5q3-8 4-9.5t2 2.5q4 11 10-7 4-11 8-11.5t5-4 6 .5 11 1.5 10.5-17.5 11-25 22.5-27q9-9 15.5-17t7.5-10l2-6 3 6q3 5 3.5 5t-.5-7v-8l13 13-1-8q-1-6-.5-7t3.5 0q6 2 1-5l-4-6 5 4q8 8 1-8-3-7-3-8t5 1q11 5 4-2-4-5-12-8.5t-16.5-5.5-14.5-4.5-14-2.5q-3 0-8-1.5t-9-4.5q-10-4-14-5t-10.5-11-8.5-18q-1-5 0-8t5-7l16-15q6-7 12-6.5t25 11.5q7 3 13 5.5t8 2.5 9-2l14-6q10-4 16.5-7.5T941 458q7-8 9-11t15-5q6-1 12-2.5t9-2.5q9-6 12.5-16t-1.5-17-20-17-25-13.5-36-3.5q-17-1-24 0t-14 5q-11 5-21.5 14.5T841 407q-2 5-2 7.5t2.5 7.5 1.5 6.5-4-.5-4.5-5.5-5.5-8.5l-7-12q-10-12-13-18t-2-12q0-14 15-14 8 0 13.5-5t11-16 4.5-23.5-7-21.5q-11-13-53-24-14-4-26-4.5t-32 3.5q-25 3-35.5 9.5T683 297q-3 9-2.5 19t4.5 16 15.5 12.5T727 355q6 2 12.5 5t10.5 5q10 7 20 9 25 3 41 31 7 13 7.5 19t-6.5 13q-10 11-17-5-4-9-11-17t-13-10-16-14.5-20.5-17.5-26.5-6-35 1.5-33 7.5q-11 4-17.5 12t-7.5 17q0 5-1 5-4 0-18.5-9.5T573 384q-3-3 .5-5t-.5-2 0-2.5 0-2 0-2 0-2 0-2 0-2.5 0-2 0-2-.5-2 1-2.5T571 345l-1-11-1 11q0 11-2.5 11t1 2-.5 2 0 2 0 2 0 2.5 0 2 0 2 0 2 0 2 0 2.5-.5 1.5 1 4.5-13.5 11q-13 11-17 9.5T525 381q-9-24-18.5-29t-45.5-4q-32 0-43 2.5T405 361l-3 5-8-4q-9-4-7-8t3.5-10 4.5-6l18 3q15 3 18 1t-1-11l-4-9-33 3-4-18q-2-3 14-9l12-5q5-3 7-4l5-4-8-6q-8-5-10-4l-27 16-15-15 10-12q17-20 14.5-22t-10-2-10 2-7.5 12l-8 15-10-3q-7-2-8.5-3.5t-.5-4.5l1-8zm-17 46v11q0 8-1 10.5t-4 2.5l-6 2q-2-2-5-11t-2-10.5 9-3.5zm14 1q4 0 9.5 2t5.5 3.5-4 10.5q-7 12-14 7-2-2-1.5-11t3.5-11zm-46 10q2 1 7 10 5 7 5 9t-3.5 5-4.5 3l-17-14 6-7q6-5 7-6zm73 2l7 7 7 6-9 6q-8 5-11 5.5t-5.5-2.5-2-5 6.5-9zm-40 15q4-1 5 1t-1 10l-2 11-5 2q-6 0-13.5-6t-5.5-9q5-4 11.5-6.5T324 295zm11 1q2 0 7 3t9.5 7.5 4.5 7-6 4.5q-9 3-17 1-4 0-2-10 1-13 4-13zm-64 5l10 6q10 6 9 8.5t-1 5.5-2 3l-16-3q-8-2-2-14zm110 5q4 0 6 12l1 6h-12q-9 0-11-.5t-3-4.5q-2-6 6.5-9t11.5-4h1zm-290 2q-20 0-33 5-18 7-32 21.5T5 366q-5 14-5 34t5 35q10 29 36 56 14 14 18 24t4 25q-1 12 1 13t3 11l2 10h18q15 1 18.5-1.5T108 561q0-8 3.5-8t3.5-5v-5l8 4q18 9 42.5 11t41.5-3q9-3 3-2-28 5-54 1.5T116 541l-4-4 3-14q2-8 6-14t16-18q15-14 23.5-27t14.5-29 6-35.5-5-33.5q-7-17-21-31t-32-22q-13-5-32-5zm208 3q2 0 6.5 4t5.5 6-1.5 7.5-7 8-7 2-2-11T296 313q1-2 3-2zm57 8q3 0 4 5t-1 13q-4 16-12 9-4-5-3.5-13.5T348 322zm214 0q-1 0-.5 5t1 1.5-.5-6.5zm-306 14h13q8 0 10.5.5t2.5 4.5-1.5 6-7.5 4q-9 4-11.5 3t-4.5-13zm102 0q1 0 5 1l11 2q7 3 2 14-2 3-4 3t-10.5-4.5-7.5-7 1-5.5 3-3zm-58 6q3-1 2 7-1 16-10 3-4-5-3.5-6.5t7.5-2.5zm14 0l.5 1-.5 3.5-1-.5 1-4zm7 0q1 0 2.5 1t-.5 5q-5 8-6 0 0-5 4-6zm15 9q2 0 4 2t1 4-3 1.5-3-3.5 0-4h1zm-24 2l.5 2-.5 4-1-1.5 1-4.5zm12 1q1-1 2 4 2 9-3 2-2-4 0-6h1zm462 1q4 0 7.5 1.5t-2 7-7.5 5.5-8-6.5-2.5-6 9.5-.5zm-437 0q1 0 6 4t7.5 6.5 2 4.5-4.5 6l-6 6-6-8q-5-7-5.5-10.5t2.5-6.5q2-1 3-1zm-62 0q2 1 5 3l4 4-7 9q-6 8-8 8t-7-5-5-7 9-7q7-4 9-4v-1zm470 4q4 0 7 6 5 8-1 7t-13-4.5-5.5-5 8.5-2.5zm-439 1q1 0 4 2.5t-2 2.5-5-2.5 2-2.5h1zm53 12l8 7 8 6-6 14q-6 13-7 14-2-1-9-12t-7-13.5 6-9.5zm-74 7q2 1 0 6-1 3-3 3t0-5q2-3 3-3v-1zm32 5h.5l.5 4-4 4.5V386zm-21 1l1.5 1 1.5 3.5-2 2.5-2-3.5 1-3.5zm34 9q3 1 8 16l6 13q2 6 4 6.5t7-5.5-5 15q-8 16-10 19t-2-1q-2-8-5-33.5t-3-29.5zm-35 3q1 0 1 1t-1.5 2-1.5-1 2-2zm23 0q2 0 2 2t-1 2-2-2 1-2zm-6 7q1 0 3 1.5t2 2.5-2.5 1-3-2.5.5-2.5zm436 15q4 0 10 7 6 4 0 5t-11.5 1-8-1.5 3.5-7.5q3-4 6-4zm-433 1q4-1 1 2.5t-4 3.5-.5-3 3.5-3zm7 6q2 1 3 10t0 9.5-7-4.5l-7-5 5-5q4-4 6-5zm-32 2q2 1 2.5 5.5t2 5.5-3.5 6l-5 5 1-7q1-7 1-10.5t2-4.5zm472 6q2 0 3 4t5.5 8 4.5 5.5-2.5 3.5-5.5 7l-6 11q-3 6-8.5 13.5T762 497l-17 19q-6 7-10 7.5t-13-3.5q-23-9-48 0-22 7-40 0-4-1-5-3.5t-1-9.5v-10h12q12 0 11.5-3t3.5-3.5 11.5-4T681 478l5-4h-17q-14-1-24.5-3t-7.5-4-3-2-2-2 .5-4 0-2.5-1-5-5.5-2-6.5 3-3.5-5.5q0-4 2-5.5t7.5-2.5 10 0 10.5 3l11 5 22-5q10-2 18.5-3t12.5-1q32 3 38-3 3-5 12.5-3.5t16.5.5q3-1 5-1zm-455 7l8 5q6 5 6 6t-12.5 1-13-1.5 5.5-6.5zm535 5q5 0 13.5 2.5t9 4.5 5.5 9l5 8-5 1q-4 2-7.5 1t-16.5-7.5-15-8.5 1.5-5.5 6.5-4.5h3zm70 1q10 0 11 2-1 3-10.5 10.5t-13 8-7.5 2.5 1-6q3-6 3-10t3.5-5.5 9.5-1.5h3zm-34 4q19 0 8 11-4 4-6.5 4t-5.5-5q-7-6-6-8t10-2zm-278 9q2 0 4 .5t-3.5.5-3.5-1h3zm-310 4h33l-7 6q-7 6-9 6t-9-6zm310 2q2 0 4 1t-3.5 1-3.5-1zm-316 4q3 1 8.5 5t5.5 6-9 8l-10 7 2-7q1-7 1-12.5t2-6.5zm45 0l.5.5.5 3-4.5 9-8.5 1.5q-3-1-2.5-2.5t6.5-6 8-5.5zm-23 17h2l3 2q5 3 4 7t-13.5 4-12.5-1 7.5-6.5 9.5-5.5zm-13 23q8 0 9 .5t-2 4-5 3.5-7-4l-5-4h10zm-14 8q2 0 5.5 2.5t3.5 4-3.5 5-7.5 6.5-2.5-7.5T299 515zm-218 5h32l-1 8q-2 7-2.5 8.5T102 538l-14 1q-17 0-20.5-2.5T64 525q0-3 2.5-4t14.5-1zm729 157h1l3.5 5 2.5 7-3 1-5-3-1-5q-1-2 0-3.5t2-1.5zm-8 1q1 0 .5 4t-1.5 7-3 3-1.5-4 2.5-7 3-3zm-30 21q3 0 0 14l-3 9-6 16 1-9q1-14 2.5-20.5t3-8 2.5-1.5zm-13 20l-1 7-4 15q-1 6-3 7t-9 1-14-2.5-7-4 7.5-.5 13-2 10.5-12zm-49 19l7 7q6 5 14.5 8t13 1.5 3.5 2-6.5 8-11 3.5-13.5-9q-6-6-7.5-9t-.5-6zm-120 42q5 1 19 9 5 4 11 6.5t9 3.5q13 1 3 8-15 11-36-15-7-9-7.5-10.5t1.5-1.5z"/></symbol><symbol id="diaspora" viewBox="0 0 1024 1196.0048"><path d="M502 197h-76l-21 1.5V239l-3 235q0 2-2 2l-228-74q-38-12-40-12l-9 28-44 139q-6 21-5 21l127 42q82 27 105.5 35.5T327 664q-1 3-23 36L191 864q-22 33-23 35 10 8 79.5 57t80.5 55l139-189q23-30 24-30.5t13 15.5l142 197q12 17 13 17 11-7 80-57.5t79-59.5q-1-1-22-33L688 712q-22-32-22.5-33t28.5-12l231-79q-4-12-29-94t-29-94q-2 0-38 12l-219 73q-2 5-3-20t-3-134l-3-101q-1-32-2.5-32.5T570 197h-68z"/></symbol><symbol id="indie" viewBox="0 0 1024 1196.0048"><path d="M444 25q-19 0-42 5-103 30-115 134t32 196q42 82 109 163.5T530 627q0 1-1 3-5 31-15.5 55T486 732q-15 19-39 41.5T377 837q-27 23-43.5 50.5T307 951l-10 42q-10 47-22 73t-34 46q-26 24-48.5 34t-53.5 14q-15 2-24 4.5t-17 6.5q-11 6-21 16-4 4 0 8.5t9 .5q9-9 18-13 7-4 15-6t21-4q34-4 58-15t52-37q24-21 36.5-49t23.5-76l10-41q9-34 24.5-60.5T385 847q47-41 71.5-64.5T496 740q23-30 35-63-6 34-25 71l-20 36q-19 33-24 56t0 50q5 36 2 46l-1 1q-3 5 1 9t9 0q2-2 3-6 5-14-2-52-4-24 .5-45.5T497 791l21-37q33-62 27-121 0-2-1-3 32-8 127-56.5T837 445q68-86 85.5-190T859 88q-88-48-155.5-8.5T614 129q-15-7-53-52T444 25zm20 912h-1 1z"/></symbol><symbol id="ghost" viewBox="0 0 1024 1196.0048"><path d="M75 174v170h510V174H75zm680 0v170h170V174H755zM75 514v170h850V514H75zm0 340v170h340V854H75zm510 0v170h340V854H585z"/></symbol><symbol id="apml-colored" viewBox="0 0 1024 1196.0048"><path d="M271 225q-73 1-121 49.5T100 395v459q2 73 50 121t121 50h458q73-2 121-50t50-121V395q-2-72-50-120.5T729 225H271zm231 335q30 1 50.5 21t20.5 50.5-20.5 50.5-50.5 20-50.5-20-20.5-50.5 20.5-50.5 50.5-21z"/></symbol><symbol id="open-share-colored" viewBox="0 0 1024 1196.0048"><path d="M271 227q-73 2-121 50t-50 121v459q2 72 50 120t121 50h458q73-2 121-50t50-120V398q-2-73-50-121t-121-50H271zm229 161q74 1 132 39 17 11 18 33 0 17-11 27.5T612 499q-12 0-22-7-39-26-90-27-58 1-100.5 35T343 588l-1 4q-4 11-13.5 18.5T305 619H176v-77h100q27-69 86.5-111T500 388zm0 146q39 1 65 27t26 65-26 65.5-65 26.5-65.5-26.5T408 626t26.5-65 65.5-27zm195 100h129v77H723q-26 68-85.5 110T500 865q-74-2-132-40-16-11-17-32 0-16 11-27t27-12q13 1 22 7 39 26 89 27 58-1 100.5-35t56.5-88l1-4q3-11 13-19t24-8z"/></symbol><symbol id="share-colored" viewBox="0 0 1024 1196.0048"><path d="M271 226q-73 2-121 50t-50 121v458q2 73 50 121t121 50h458q73-2 121-50t50-121V397q-2-73-50-121t-121-50H271zm401 125q41 1 68.5 28t27.5 68-27.5 68.5T672 544q-36-1-62-23l-186 95v8q0 8-1 15l184 94q27-24 65-25 41 1 68.5 28.5T768 805t-27.5 68-68.5 27-68-27-28-68v-6l-191-97q-25 18-57 19-41-1-68.5-28.5T232 624t27.5-68 68.5-28q36 1 62 23l186-95v-9q1-41 28-68t68-28z"/></symbol><symbol id="feed-colored" viewBox="0 0 1024 1196.0048"><path d="M258 175q-78 2-129.5 53.5T75 358v484q2 78 53.5 129.5T258 1025h484q78-2 129.5-53.5T925 842V358q-2-78-53.5-129.5T742 175H258zm-37 126q116 0 222.5 44.5t188 126 126 188.5T802 882H686q0-92-35.5-177.5t-101-151T399 453t-178-36V301zm0 196q77 0 147.5 29.5T493 610t83.5 125T606 882H493q0-54-20.5-104t-59-88-88.5-59-104-21V497zm78 226h2q34 1 56.5 23.5t22.5 56-22.5 56T301 881t-56.5-22.5-22.5-56 22-55.5 55-24z"/></symbol><symbol id="ostatus-colored" viewBox="0 0 1024 1196.0048"><path d="M164 238q-22 1-36.5 15T113 289v673q0 22 14.5 36t36.5 15h672q22-1 36.5-15t15.5-36V289q-1-22-15.5-36T836 238H164zm319 83q122 3 204 84.5T772 610v290l-289-1q-123-3-204.5-84.5T194 610q3-123 84.5-204.5T483 321zm0 127q-69 2-115 47.5T320 610q2 70 48 116t115 47q69-1 114.5-47T645 610q-2-69-47.5-114.5T483 448z"/></symbol><symbol id="opml-colored" viewBox="0 0 1024 1196.0048"><path d="M271 226q-73 2-121 50.5T100 397v459q2 72 50 120.5t121 49.5h458q73-1 121-49.5T900 856V397q-2-72-50-120.5T729 226H271zm231 110q123 3 205 85.5T792 627q-3 123-85 205t-205 86q-124-4-206-86t-85-205q3-123 85-205.5T502 336zm0 88q-87 2-144 59.5T298 627q3 86 60 143.5T502 830q86-2 143-59.5T705 627q-3-86-60-143.5T502 424zm0 138q30 1 50.5 21t20.5 50.5-20.5 50.5-50.5 20-50.5-20-20.5-50.5 20.5-50.5 50.5-21z"/></symbol><symbol id="activity-colored" viewBox="0 0 1024 1196.0048"><path d="M251 226h-12l-18 3-15 4-20 8-16 9-15 10q-13 11-23 24l-4 5q-4 6-8 13l-5 9-8 21-4 14q-2 12-3 23v514l1 11 4 19q2 9 5 17l8 17q9 16 21 29l3 3q7 8 16 15l6 4q7 5 15 10l17 7 25 8 22 3h514l19-2 11-3q9-2 17-6l10-4q12-6 22-13l6-4q9-7 16-15l3-3q13-14 22-32l7-14q3-8 5-17l4-19q1-9 1-19V373q0-10-2-19l-1-8-4-14q-3-9-6-17l-7-13q-4-7-8-12l-4-6q-10-13-23-24l-6-4-15-10-13-7q-8-4-17-6l-15-4-18-3H251zm142 154q36 1 65.5 10t54.5 18q39 16 78.5 20.5T689 409q18-7 35.5-3.5t25 21.5.5 35-25 26q-35 14-65.5 20.5T603 515q-36-1-66-13l-54-21q-39-16-76-18.5T316 489q-18 9-36 7.5t-27.5-19-4-35.5 22.5-28q35-19 65.5-26.5T393 380zm-6 180h3q35 1 64.5 10t54.5 18q40 17 80 21t101-22q18-8 35.5-5t25.5 21 1.5 35.5T728 664q-38 17-70 24t-59 6q-37-1-66-12l-55-21q-38-16-74.5-19T313 667q-18 10-35.5 8t-27-19.5-4-35.5 22.5-27q34-18 63-25.5t55-7.5zm-3 178q35 1 64 10t54 19q41 17 82.5 20.5T689 763q18-9 35.5-6t26 20.5 2 34.5-23.5 26q-41 19-74.5 26.5T592 872q-36-1-66-13l-54-21q-37-15-72.5-18.5T312 842q-18 9-35.5 6.5t-26.5-20-3-34.5 23-27q31-15 58.5-22t50.5-7h5z"/></symbol><symbol id="microformats-colored" viewBox="0 0 1024 1196.0048"><path d="M605 227q-12 0-20 8t-9 21v271q1 12 9 20.5t20 8.5h277q12 0 20-8.5t9-20.5V256q-1-13-9-21t-20-8H605zm-177 30q-43 2-70.5 30.5T329 358v318q1 43 29.5 71.5T430 777h318q43-1 71.5-29.5T849 676v-77H605q-30 0-50.5-20.5T533 527V257H428zM212 362q-52 1-86.5 35.5T89 484v420q2 52 36.5 86.5T212 1027h421q52-2 86.5-36.5T756 904v-84H430q-61-1-102-42t-42-102V362h-74z"/></symbol><symbol id="geo-colored" viewBox="0 0 1024 1196.0048"><path d="M256 226q-66 2-110 46t-46 110v488q2 66 46 110t110 46h488q66-2 110-46t46-110V382q-2-66-46-110t-110-46H256zm367 86q15 0 26 10l150 151q11 11 11 27t-10.5 26.5T773 537t-27-11l-17-17-116 115q13 43 3.5 86T574 787L336 548q33-32 76-42t86 3l116-115-18-19q-10-10-10-25.5t10.5-26.5 26.5-11zM188 612q55-1 107 17.5t96 54.5L261 815q-10 10-10 25.5t11 26.5 26.5 11 25.5-10l129-129q35 48 50 104t9 112H293q-51-1-84.5-34.5T174 837V612h14z"/></symbol><symbol id="opensearch-colored" viewBox="0 0 1024 1196.0048"><path d="M272 226q-73 2-121.5 50.5T100 398v456q2 73 50.5 121.5T272 1026h456q73-2 121.5-50.5T900 854V398q-2-73-50.5-121.5T728 226H272zm142 63q62 0 117 30h1q61 33 95.5 91.5T662 538v1q1 70-35 128l211 210-87 87-210-210q-30 18-65 27h-2q-45 12-90.5 6T297 760q-30-15-55-38t-43-53l-1-1q-43-74-34-156.5T231 367l1-1q36-39 83.5-58t98.5-19zm0 75q-36 0-69.5 13.5T286 417l-1 1q-39 43-45.5 102T263 629v1q25 41 69 64 29 15 61 19t63-5h1q56-15 93-62.5T588 539v-1q-1-47-25.5-88.5T496 385l-1-1q-37-20-81-20z"/></symbol><symbol id="html5-colored" viewBox="0 0 1024 1196.0048"><path d="M148 226l64 720 288 80 288-79 65-721H148zm131 148h442l-8 88H375l8 90h322l-24 271-181 51-181-51-13-141h89l7 73 98 27 98-27 11-114H303z"/></symbol><symbol id="git-colored" viewBox="0 0 1024 1196.0048"><path d="M499 228q-20 0-36 15l-73 73 92 92q17-6 33.5-2.5T545 422t16.5 30-1.5 34l88 88q17-5 34-1.5t30 16.5q18 19 18 43.5T711.5 675t-43 18-43.5-17q-14-14-17-32t4-35l-83-83v218q9 4 16 11 18 19 18 43.5t-18.5 43-43 18.5-42.5-18.5-18-43 18-43.5q8-8 20-13V522q-12-4-20-13-14-14-17.5-32t3.5-35l-90-91-240 240q-15 16-15 36.5t15 36.5l349 349q16 15 36.5 15t36.5-15l348-348q15-16 15-36.5T885 592L536 243q-16-15-37-15z"/></symbol><symbol id="osi-colored" viewBox="0 0 1056 1196.0048"><path d="M500 227q-176 4-292.5 120.5T87 640q2 135 75 238t193 149l95-254q-41-16-66-51.5T358 640q2-60 42-100.5T500 498q60 1 100.5 41.5T642 640q-1 46-26 81.5T550 773l95 254q120-46 193-149t75-238q-4-176-120.5-292.5T500 227zm463 682l-23 92h15l12-50v-5l2 5 29 54 26-47 3-6 1-6 2 12 11 43h15l-24-92-30 58q-3 6-4 10l-3-8zm-101 4v12h27v76h16v-76h26v-12h-69z"/></symbol><symbol id="opensource-colored" viewBox="0 0 1056 1196.0048"><path d="M500 227q-176 4-292.5 120.5T87 640q2 135 75 238t193 149l95-254q-41-16-66-51.5T358 640q2-60 42-100.5T500 498q60 1 100.5 41.5T642 640q-1 46-26 81.5T550 773l95 254q120-46 193-149t75-238q-4-176-120.5-292.5T500 227zm463 682l-23 92h15l12-50v-5l2 5 29 54 26-47 3-6 1-6 2 12 11 43h15l-24-92-30 58q-3 6-4 10l-3-8zm-101 4v12h27v76h16v-76h26v-12h-69z"/></symbol><symbol id="epub-colored" viewBox="0 0 1024 1196.0048"><path d="M500 227q-18 0-32 13L113 594q-13 14-13 32.5t13 32.5l355 354q14 14 32 14t32-14l355-354q13-14 13-32.5T887 594l-52-51-335 335-251-251 251-252 84 84-168 168 84 83 251-251-219-219q-14-13-32-13z"/></symbol><symbol id="info-card-colored" viewBox="0 0 1024 1196.0048"><path d="M121 292q-51 1-85.5 33.5T0 406v437q1 48 35.5 80.5T121 957h758q51-1 85.5-33.5T1000 843V406q-1-48-35.5-80.5T879 292H121zm-1 100h760q7 0 11.5 4t4.5 11v436q0 7-4.5 11t-11.5 4H419q-7 0-11.5-4t-4.5-11V665q-1-39-28.5-66.5T306 570h-48q-18 0-29 12.5t-11 29 11 27 29 11.5h48q7 0 11.5 4.5T322 665v178q0 7-4.5 11t-11.5 4H120q-7 0-11.5-4t-4.5-11V407q0-7 4.5-11t11.5-4zm233 42q-23 1-38.5 15.5T299 486t15.5 38.5T353 541t38.5-16.5T407 486t-15.5-36.5T353 434z"/></symbol><symbol id="remote-storage-colored" viewBox="0 0 1024 1196.0048"><path d="M500 104l8 437 392-206zm0 0L100 335l392 206zM100 335v462l374-226zm0 462l400 231-18-442zm400 231l400-231-383-211zm400-231V335L526 571z"/></symbol><symbol id="odata-colored" viewBox="0 0 1024 1196.0048"><path d="M242 226q-55 10-93.5 49T100 369v515q10 54 48 92t91 49l4 1h515l3-1q54-11 91.5-49.5T900 883V368q-10-54-49-93t-94-49H242zm560 99v76q-142 1-284 0l1-75zm-321 1q1 38 1 75H200v-75h281zm179 112h142v76H518v-76h142zm-178 0v76l-282-1v-74zm72 112q124 1 248 1l-1 76-283 1v-78h36zm-72 0v78H200v-77zm36 115h283q1 37 0 75H519zm-207 35q25 0 48 10t40 30q33 41 23.5 93T367 910.5t-94.5 8T206 851q-17-47 6-90.5t71-56.5q14-4 28-4z"/></symbol><symbol id="pub-colored" viewBox="0 0 1024 1196.0048"><path d="M75 176v850h850V176H75z"/></symbol><symbol id="sub-colored" viewBox="0 0 1024 1196.0048"><path d="M500 177q-180 5-300 125T76 602q4 180 124 300t300 124q180-4 300-124t125-300q-5-180-125-300T500 177z"/></symbol><symbol id="hubbub-colored" viewBox="0 0 1024 1196.0048"><path d="M75 176v850h850V176H75z"/></symbol><symbol id="javascript-colored" viewBox="0 0 1024 1196.0048"><path d="M75 177v850h850V177H75zm647 385q38 0 66 15t47 49l-62 40q-10-18-22-26t-29.5-8-27.5 9.5-10 24.5q-1 18 11 28t38 21l20 8q51 21 78.5 49t27.5 77q-1 54-38 82.5T726 960q-55-1-91.5-23.5T581 878l65-37q12 21 31 34.5t48 13.5q25 0 39.5-11t14.5-28q0-20-15.5-31T721 797l-20-9q-44-17-70-44.5T605 668q1-46 32-75.5t85-30.5zm-264 5h80v273q-1 61-33.5 90.5T418 960q-47-1-76.5-21.5T298 887l66-39q8 17 19.5 28.5t31.5 12 31-10 12-39.5V567z"/></symbol></defs></svg>