<svg xmlns="http://www.w3.org/2000/svg" width="330" height="330"><svg width="24" height="24" viewBox="0 0 24 24" id="airfield-24" x="3" y="3"><path d="M7.5 4c-.277 0-.5.223-.5.5s.223.5.5.5h4L11 8v1l-7 2v2h7v4l-2.5 1v1h8v-1L14 17v-4h7v-2l-7-2V8l-.5-3h4c.277 0 .5-.223.5-.5s-.223-.5-.5-.5z" opacity=".3" color="#000" fill="#fff" stroke="#fff" stroke-width="2" stroke-linejoin="round" overflow="visible"/><path d="M7.5 4c-.277 0-.5.223-.5.5s.223.5.5.5h4L11 8v1l-7 2v2h7v4l-2.5 1v1h8v-1L14 17v-4h7v-2l-7-2V8l-.5-3h4c.277 0 .5-.223.5-.5s-.223-.5-.5-.5z" fill="#444"/><path opacity=".5" color="#000" fill="none" overflow="visible" d="M0 0h24v24H0z"/></svg><svg width="24" height="24" viewBox="0 0 24 24" id="airport-24" x="33" y="3"><path d="M21 13v1l-7-1v4l2 2c0 .5-.5 1-1 1h-5c-.5 0-1-.5-1-1l2-2v-4l-7 1v-1l7-4V7c0-1 .5-4 1.5-4S14 6 14 7v2z" opacity=".3" color="#000" fill="none" stroke="#fff" stroke-width="2" stroke-linecap="round" stroke-linejoin="round" overflow="visible"/><path d="M21 13.5v.5l-7-1v4l2 2c0 .5-.5 1-1 1h-5c-.5 0-1-.5-1-1l2-2v-4l-7 1v-.5c0-.5.306-.638.5-.75L11 9V7c0-1 .5-4 1.5-4S14 6 14 7v2l6.5 3.75c.278.16.5.24.5.75z" fill="#444"/><path opacity=".5" color="#000" fill="none" overflow="visible" d="M0 0h24v24H0z"/></svg><svg width="24" height="24" viewBox="0 0 24 24" id="alcohol-shop-24" x="63" y="3"><g color="#000"><path d="M8 3c-.554 0-.5.627-.5 1v2.5c0 .5-.498 1.25-1 1.5-1 .5-1.5 1-1.5 2v9c0 .554.446 1 1 1h5c.554 0 1-.446 1-1v-9c0-1-.5-1.5-1.5-2-.5-.25-1-1-1-1.5V4c0-.5.054-1-.5-1zm6 7v3c0 1 1 2 2 2h1v2.5c0 .5-1 1.5-2 1.5s-1 1-1 1h7s0-1-1-1-2-1-2-1.5V15h1c1 0 2-1 2-2v-3z" opacity=".3" fill="#fff" stroke="#fff" stroke-width="2" stroke-linecap="round" stroke-linejoin="round" overflow="visible"/><path opacity=".5" fill="none" overflow="visible" d="M0 0h24v24H0z"/><path d="M8 3c-.554 0-.5.627-.5 1v2.5c0 .5-.498 1.25-1 1.5-1 .5-1.5 1-1.5 2v9c0 .554.446 1 1 1h5c.554 0 1-.446 1-1v-9c0-1-.5-1.5-1.5-2-.5-.25-1-1-1-1.5V4c0-.5.054-1-.5-1zm6 7v3c0 1 1 2 2 2h1v2.5c0 .5-1 1.5-2 1.5s-1 1-1 1h7s0-1-1-1-2-1-2-1.5V15h1c1 0 2-1 2-2v-3z" fill="#444" overflow="visible"/></g></svg><svg width="24" height="24" viewBox="0 0 24 24" id="america-football-24" x="93" y="3"><g color="#000"><path d="M12.5 5C6 5 3 11.5 3 11.5S6 18 12.5 18s9.5-6.5 9.5-6.5S19 5 12.5 5z" opacity=".3" fill="#fff" stroke="#fff" stroke-width="2" overflow="visible"/><path d="M12.5 5C6 5 3 11.5 3 11.5S6 18 12.5 18s9.5-6.5 9.5-6.5S19 5 12.5 5zm-3 5c.277 0 .5.223.5.5v.5h2v-.5c0-.277.223-.5.5-.5s.5.223.5.5v.5h2v-.5c0-.277.223-.5.5-.5s.5.223.5.5v.5h1.5c.277 0 .5.223.5.5s-.223.5-.5.5H16v.5c0 .277-.223.5-.5.5s-.5-.223-.5-.5V12h-2v.5c0 .277-.223.5-.5.5s-.5-.223-.5-.5V12h-2v.5c0 .277-.223.5-.5.5s-.5-.223-.5-.5V12H7.5c-.277 0-.5-.223-.5-.5s.223-.5.5-.5H9v-.5c0-.277.223-.5.5-.5z" fill="#444" overflow="visible"/><path opacity=".5" fill="none" overflow="visible" d="M0 0h24v24H0z"/></g></svg><svg width="24" height="24" viewBox="0 0 24 24" id="art-gallery-24" x="123" y="3"><g color="#000"><path d="M11 4c-5 0-8 4-8 6s1 3.5 3 3.5 3 .5 3 2c0 2 1.5 3.5 3.5 3.5 6.5 0 9.5-3.5 9.5-7 0-6-5-8-11-8z" opacity=".3" fill="#fff" stroke="#fff" stroke-width="2" stroke-linecap="round" stroke-linejoin="round" overflow="visible"/><path d="M11 4c-5 0-8 4-8 6s1 3.5 3 3.5 3 .5 3 2c0 2 1.5 3.5 3.5 3.5 6.5 0 9.5-3.5 9.5-7 0-6-5-8-11-8zM9.75 6c.69 0 1.25.56 1.25 1.25S10.44 8.5 9.75 8.5 8.5 7.94 8.5 7.25 9.06 6 9.75 6zm4 0c.69 0 1.25.56 1.25 1.25s-.56 1.25-1.25 1.25-1.25-.56-1.25-1.25S13.06 6 13.75 6zm4 2c.69 0 1.25.56 1.25 1.25s-.56 1.25-1.25 1.25-1.25-.56-1.25-1.25S17.06 8 17.75 8zM6.25 9c.69 0 1.25.56 1.25 1.25s-.56 1.25-1.25 1.25S5 10.94 5 10.25 5.56 9 6.25 9zm6.25 5c.828 0 1.5.672 1.5 1.5s-.672 1.5-1.5 1.5-1.5-.672-1.5-1.5.672-1.5 1.5-1.5z" fill="#444" overflow="visible"/><path opacity=".3" fill="none" overflow="visible" d="M0 0h24v24H0z"/></g></svg><svg width="24" height="24" viewBox="0 0 24 24" id="bakery-24" x="153" y="3"><path d="M12.5 6c-1.5 0-2.764.536-2.438 2l1.438 6.5c.05.23.19.5.5.5h2c.31 0 .45-.27.5-.5L15.938 8C16.264 6.536 15 6 13.5 6H13zM7 9c-1 0-1.95.6-1.5 1.5l2 4c.167.333.5.5 1 .5h1s.615.018.5-.5L9 10c-.112-.503-.5-1-1-1zm11 0c-.5 0-.888.497-1 1l-1 4.5c-.115.518.5.5.5.5h1c.5 0 .833-.167 1-.5l2-4C20.95 9.6 20 9 19 9zM4.437 12.125c-.193 0-.356.118-.437.375l-.958 2.994c-.12.375-.037.566.47.47L6 15.5c.49-.094.572-.266.438-.5L5 12.5c-.146-.253-.37-.374-.563-.375zm17.125 0c-.193 0-.416.122-.562.375L19.562 15c-.134.234-.053.406.438.5l2.454.474c.506.097.62-.094.5-.468L22 12.5c-.082-.257-.244-.376-.438-.375z" opacity=".3" color="#000" fill="none" stroke="#fff" stroke-width="2" overflow="visible"/><path d="M12.5 6c-1.5 0-2.764.536-2.438 2l1.438 6.5c.05.23.19.5.5.5h2c.31 0 .45-.27.5-.5L15.938 8C16.264 6.536 15 6 13.5 6H13zM7 9c-1 0-1.95.6-1.5 1.5l2 4c.167.333.5.5 1 .5h1s.615.018.5-.5L9 10c-.112-.503-.5-1-1-1zm11 0c-.5 0-.888.497-1 1l-1 4.5c-.115.518.5.5.5.5h1c.5 0 .833-.167 1-.5l2-4C20.95 9.6 20 9 19 9zM4.437 12.125c-.193 0-.356.118-.437.375l-.958 2.994c-.12.375-.037.566.47.47L6 15.5c.49-.094.572-.266.438-.5L5 12.5c-.146-.253-.37-.374-.563-.375zm17.125 0c-.193 0-.416.122-.562.375L19.562 15c-.134.234-.053.406.438.5l2.454.474c.506.097.62-.094.5-.468L22 12.5c-.082-.257-.244-.376-.438-.375z" color="#000" fill="#444" overflow="visible"/><path color="#000" fill="none" overflow="visible" d="M0 0h24v24H0z"/></svg><svg width="24" height="24" viewBox="0 0 24 24" id="bank-24" x="183" y="3"><g color="#000"><g fill="#444"><path d="M4 6c-.554 0-1 .446-1 1v10c0 .554.446 1 1 1h17c.554 0 1-.446 1-1V7c0-.554-.446-1-1-1zm-.5 2h18v2h-18zm.5 6h3v2H4zm9 1h7v1h-7z" opacity=".3" stroke="#fff" stroke-width="2" overflow="visible"/><path d="M4 6c-.554 0-1 .446-1 1v10c0 .554.446 1 1 1h17c.554 0 1-.446 1-1V7c0-.554-.446-1-1-1zm-.5 2h18v2h-18zm.5 6h3v2H4zm9 1h7v1h-7z" overflow="visible"/></g><path opacity=".5" fill="none" overflow="visible" d="M0 0h24v24H0z"/></g></svg><svg width="24" height="24" viewBox="0 0 24 24" id="bar-24" x="213" y="3"><g color="#000"><path d="M5 4c-.5 0-1 0-1 .25s.343.548.5.75l7.5 7.813V19l-4 1c-.5.167-1 .5-1 1h11c0-.5-.5-.833-1-1l-4-1v-6.187L20.5 5c.157-.202.5-.5.5-.75S20.5 4 20 4z" opacity=".3" fill="none" stroke="#fff" stroke-width="2" stroke-linecap="round" stroke-linejoin="round" overflow="visible"/><path d="M5 4c-.5 0-1 0-1 .25s.343.548.5.75l7.5 7.813V19l-4 1c-.5.167-1 .5-1 1h11c0-.5-.5-.833-1-1l-4-1v-6.187L20.5 5c.157-.202.5-.5.5-.75S20.5 4 20 4z" fill="#444" overflow="visible"/><path opacity=".5" fill="none" overflow="visible" d="M0 0h24v24H0z"/></g></svg><svg width="24" height="24" viewBox="0 0 24 24" id="baseball-24" x="243" y="3"><g color="#000"><path d="M6 3c-1.252 0-2 .754-2 2 0 1 2 2.5 3 3.5 2 2 5.302 3.802 8.5 7l3 3-.5.5c0 .5.5 1 1 1l1-1 1-1c0-.5-.5-1-1-1l-.5.5-3-3c-2.863-2.863-5-6.5-7-8.5C8.5 5 7 3 6 3zm3.5 10c-.828 0-1.5.672-1.5 1.5 0 .83.672 1.5 1.5 1.5s1.5-.67 1.5-1.5c0-.828-.672-1.5-1.5-1.5z" opacity=".3" fill="none" stroke="#fff" stroke-width="2" stroke-linecap="round" stroke-linejoin="round" overflow="visible"/><path d="M6 3c-1.252 0-2 .754-2 2 0 1 2 2.5 3 3.5 2 2 5.302 3.802 8.5 7l3 3-.5.5c0 .5.5 1 1 1l1-1 1-1c0-.5-.5-1-1-1l-.5.5-3-3c-2.863-2.863-5-6.5-7-8.5C8.5 5 7 3 6 3zm3.5 10c-.828 0-1.5.672-1.5 1.5 0 .83.672 1.5 1.5 1.5s1.5-.67 1.5-1.5c0-.828-.672-1.5-1.5-1.5z" fill="#444" overflow="visible"/><path opacity=".5" fill="none" overflow="visible" d="M0 0h24v24H0z"/></g></svg><svg width="24" height="24" viewBox="0 0 24 24" id="basketball-24" x="273" y="3"><g color="#000"><path d="M8.5 3L4 7v8c0 .5.5 1 1 1h3.563l1.937 3.5c.278.5.5.5 1 .5h2c.5 0 .722 0 1-.5l1.938-3.5H20c.5 0 1-.5 1-1V7l-4.5-4h-8zM8 7h9v6H8V7zm1 1v4h7V8H9zm.563 8H11v1h1v-1h1v1h1v-1h1.438l-.563 1H14v1h.344l-.344.625V18h-1v1h-1v-1h-1v.625L10.656 18H11v-1h-.875l-.563-1zM12 18h1v-1h-1v1z" opacity=".3" fill="#fff" stroke="#fff" stroke-width="2" stroke-linecap="round" stroke-linejoin="round" overflow="visible"/><path d="M8.5 3L4 7v8c0 .5.5 1 1 1h3.563l1.937 3.5c.278.5.5.5 1 .5h2c.5 0 .722 0 1-.5l1.938-3.5H20c.5 0 1-.5 1-1V7l-4.5-4h-8zM8 7h9v6H8V7zm1 1v4h7V8H9zm.563 8H11v1h1v-1h1v1h1v-1h1.438l-.563 1H14v1h.344l-.344.625V18h-1v1h-1v-1h-1v.625L10.656 18H11v-1h-.875l-.563-1zM12 18h1v-1h-1v1z" fill="#444" overflow="visible"/><path opacity=".5" fill="none" overflow="visible" d="M0 0h24v24H0z"/></g></svg><svg width="24" height="24" viewBox="0 0 24 24" id="beer-24" x="303" y="3"><g color="#000"><path d="M5 3l2 16c.063.5.5 1 1 1h9c.5 0 .938-.5 1-1l2-16zm2.25 2h10.5l-.47 4H7.72z" opacity=".3" fill="#fff" stroke="#fff" stroke-width="2" stroke-linecap="round" stroke-linejoin="round" overflow="visible"/><path d="M5 3l2 16c.063.5.5 1 1 1h9c.5 0 .938-.5 1-1l2-16zm2.25 2h10.5l-.47 4H7.72z" fill="#444" overflow="visible"/></g></svg><svg width="24" height="24" viewBox="0 0 24 24" id="bicycle-24" x="3" y="33"><g transform="translate(-84 -1386.362)" color="#000"><path d="M98.875 1390.362c-.562.076-.637 1.058-.094 1.22l2.22.874v1.906h-7v-1h1.375c.33 0 .625-.295.625-.625s-.295-.63-.625-.625H91.5c-.062-.01-.125-.01-.188 0-.327.05-.58.392-.53.72.048.326.39.58.718.53H93v1l-1.063 3.125c-.3-.072-.615-.125-.937-.125-2.21 0-4 1.79-4 4s1.79 4 4 4 4-1.79 4-4c0-.3-.062-.593-.125-.875H96c.2-.01.39-.115.5-.28l3.375-4.845H101l.688 2.03c-2.062.162-3.688 1.867-3.688 3.97 0 2.21 1.79 4 4 4s4-1.79 4-4c0-1.828-1.23-3.335-2.906-3.812l-1.094-3.188v-2.344c0-.104-.042-.21-.094-.312-.004-.01.004-.024 0-.03-.015-.033-.043-.065-.062-.095-.032-.044-.055-.085-.094-.124-.017-.016-.044-.017-.062-.03-.02-.016-.044-.02-.063-.032-.032-.02-.058-.05-.094-.062l-.03-.03-.437-.157-1.844-.75c-.066-.025-.15-.028-.22-.03-.047 0-.08-.012-.125 0zm-4.875 5h4.406l-2.72 3.875h-1.31c-.31-.494-.7-.9-1.19-1.22l.814-2.655zm-3 3.5c1.38 0 2.5 1.12 2.5 2.5s-1.12 2.5-2.5 2.5-2.5-1.12-2.5-2.5 1.12-2.5 2.5-2.5zm11 0c1.38 0 2.5 1.12 2.5 2.5s-1.12 2.5-2.5 2.5-2.5-1.12-2.5-2.5c0-.172.03-.337.063-.5.233-1.14 1.23-2 2.437-2z" opacity=".3" fill="#fff" stroke="#fff" stroke-width="2" stroke-linejoin="round" overflow="visible"/><path d="M98.875 1390.362c-.562.076-.637 1.058-.094 1.22l2.22.874v1.906h-7v-1h1.375c.33 0 .625-.295.625-.625s-.295-.63-.625-.625H91.5c-.062-.01-.125-.01-.188 0-.327.05-.58.392-.53.72.048.326.39.58.718.53H93v1l-1.063 3.125c-.3-.072-.615-.125-.937-.125-2.21 0-4 1.79-4 4s1.79 4 4 4 4-1.79 4-4c0-.3-.062-.593-.125-.875H96c.2-.01.39-.115.5-.28l3.375-4.845H101l.688 2.03c-2.062.162-3.688 1.867-3.688 3.97 0 2.21 1.79 4 4 4s4-1.79 4-4c0-1.828-1.23-3.335-2.906-3.812l-1.094-3.188v-2.344c0-.104-.042-.21-.094-.312-.004-.01.004-.024 0-.03-.015-.033-.043-.065-.062-.095-.032-.044-.055-.085-.094-.124-.017-.016-.044-.017-.062-.03-.02-.016-.044-.02-.063-.032-.032-.02-.058-.05-.094-.062l-.03-.03-.437-.157-1.844-.75c-.066-.025-.15-.028-.22-.03-.047 0-.08-.012-.125 0zm-4.875 5h4.406l-2.72 3.875h-1.31c-.31-.494-.7-.9-1.19-1.22l.814-2.655zm-3 3.5c1.38 0 2.5 1.12 2.5 2.5s-1.12 2.5-2.5 2.5-2.5-1.12-2.5-2.5 1.12-2.5 2.5-2.5zm11 0c1.38 0 2.5 1.12 2.5 2.5s-1.12 2.5-2.5 2.5-2.5-1.12-2.5-2.5c0-.172.03-.337.063-.5.233-1.14 1.23-2 2.437-2z" fill="#444" overflow="visible"/><rect width="24" height="24" x="84" y="1386.362" rx="0" ry="0" opacity=".3" fill="none" overflow="visible"/></g></svg><svg width="24" height="24" viewBox="0 0 24 24" id="building-24" x="33" y="33"><g color="#000"><path d="M11 3L3.5 9.5c-.356.31-.5.5-.5.75 0 .496.5.75 1 .75h1v8c0 .554.446 1 1 1h13c.554 0 1-.446 1-1v-8h1c.5 0 1-.254 1-.75 0-.25-.138-.448-.5-.75L14 3z" opacity=".3" fill="#fff" stroke="#fff" stroke-width="2" stroke-linejoin="round" overflow="visible"/><path opacity=".5" fill="none" overflow="visible" d="M0 0h24v24H0z"/><path d="M11 3L3.5 9.5c-.356.31-.5.5-.5.75 0 .496.5.75 1 .75h1v8c0 .554.446 1 1 1h13c.554 0 1-.446 1-1v-8h1c.5 0 1-.254 1-.75 0-.25-.138-.448-.5-.75L14 3z" fill="#444" overflow="visible"/></g></svg><svg width="24" height="24" viewBox="0 0 24 24" id="bus-24" x="63" y="33"><path d="M9 3v1H7c-.5 0-1 .5-1 1v13h1v2h2v-2h7v2h2v-2h1V5c0-.5-.5-1-1-1h-2V3H9z" opacity=".3" color="#000" fill="#fff" stroke="#fff" stroke-width="2" stroke-linejoin="round" overflow="visible"/><path d="M9 3v1H7c-.5 0-1 .5-1 1v13h1v2h2v-2h7v2h2v-2h1V5c0-.5-.5-1-1-1h-2V3zM8 6h9v5H8zm1 8c.554 0 1 .446 1 1s-.446 1-1 1-1-.446-1-1 .446-1 1-1zm7 0c.554 0 1 .446 1 1s-.446 1-1 1-1-.446-1-1 .446-1 1-1z" color="#000" fill="#444" overflow="visible"/></svg><svg width="24" height="24" viewBox="0 0 24 24" id="cafe-24" x="93" y="33"><g color="#000"><path d="M6 5c-.554 0-1 .446-1 1v9c0 .554.446 1 1 1h11c.554 0 1-.446 1-1v-1h.5c.5 0 .5-.5.5-.5V13h1c1 0 2-1 2-2V8c0-.5-.5-1-1-1h-3V6c0-.554-.446-1-1-1zm12 3h2.5c.5 0 .5.5.5.5V11c0 .5-.5 1-1 1h-2zM3 17l1 1 1 1h13l1-1 1-1z" opacity=".3" fill="#fff" stroke="#fff" stroke-width="2" stroke-linejoin="round" overflow="visible"/><path d="M6 5c-.554 0-1 .446-1 1v9c0 .554.446 1 1 1h11c.554 0 1-.446 1-1v-1h.5c.5 0 .5-.5.5-.5V13h1c1 0 2-1 2-2V8c0-.5-.5-1-1-1h-3V6c0-.554-.446-1-1-1zm12 3h2.5c.5 0 .5.5.5.5V11c0 .5-.5 1-1 1h-2zM3 17l1 1 1 1h13l1-1 1-1z" fill="#444" overflow="visible"/><path opacity=".5" fill="none" overflow="visible" d="M0 0h24v24H0z"/></g></svg><svg width="24" height="24" viewBox="-402.5 403.5 24 24" id="camera-24" x="123" y="33"><path stroke-miterlimit="10" d="M-381.5 409.5h-4v-1c0-.553-.448-1-1-1h-4c-.552 0-1 .447-1 1v1h-3c0-.553-.448-1-1-1h-1c-.552 0-1 .447-1 1h-1c-.552 0-1 .447-1 1v10c0 .553.448 1 1 1h17c.552 0 1-.447 1-1v-10c0-.553-.448-1-1-1z" opacity=".3" fill="#fff" stroke="#fff" stroke-width="2"/><g fill="#454545" transform="translate(0 -2)"><path d="M-381.5 411.5h-4v-1c0-.553-.448-1-1-1h-4c-.552 0-1 .447-1 1v1h-3c0-.553-.448-1-1-1h-1c-.552 0-1 .447-1 1h-1c-.552 0-1 .447-1 1v10c0 .553.448 1 1 1h17c.552 0 1-.447 1-1v-10c0-.553-.448-1-1-1zm-7 10c-2.21 0-4-1.79-4-4s1.79-4 4-4 4 1.79 4 4-1.79 4-4 4z"/><circle cx="-388.5" cy="417.5" r="2"/></g></svg><svg width="24" height="24" viewBox="0 0 24 24" id="campsite-24" x="153" y="33"><g color="#000"><g font-family="Sans"><path d="M12.5 4c-.5 0-.726.24-.875.5L5.405 16H4.063C3.477 16 3 16.446 3 17s.476 1 1.063 1h16.875c.586 0 1.062-.446 1.062-1s-.476-1-1.063-1h-1.343l-6.22-11.5C13.227 4.24 13 4 12.5 4zm0 5l3.5 7H9z" style="text-indent:0;text-align:start;line-height:normal;text-transform:none;block-progression:tb;-inkscape-font-specification:Sans" opacity=".3" fill="none" stroke="#fff" stroke-width="2" stroke-linecap="round" stroke-linejoin="round" overflow="visible"/><path style="text-indent:0;text-align:start;line-height:normal;text-transform:none;block-progression:tb;-inkscape-font-specification:Sans" d="M12.5 4c-.5 0-.726.24-.875.5L5.405 16H4.063C3.477 16 3 16.446 3 17s.476 1 1.063 1h16.875c.586 0 1.062-.446 1.062-1s-.476-1-1.063-1h-1.343l-6.22-11.5C13.227 4.24 13 4 12.5 4zm0 5l3.5 7H9z" fill="#444" overflow="visible"/></g><path opacity=".5" fill="none" overflow="visible" d="M0 0h24v24H0z"/></g></svg><svg width="24" height="24" viewBox="-402.5 403.5 24 24" id="car-24" x="183" y="33"><g color="#000"><path d="M-394.5 408.5c-1 0-1.313.5-1.5 1l-1.5 4c-.188.5-1 1-1 2v5h2v1c0 .5.5 1 1 1h1c.5 0 1-.5 1-1v-1h7v1c0 .5.5 1 1 1h1c.5 0 1-.5 1-1v-1h2v-5c0-1-.738-1.302-1-2l-1.5-4c-.188-.5-.5-1-1.5-1h-9zm.5 2h8l1 3h-10zm-.5 6c.554 0 1 .446 1 1s-.446 1-1 1-1-.446-1-1 .446-1 1-1zm9 0c.554 0 1 .446 1 1s-.446 1-1 1-1-.446-1-1 .446-1 1-1z" opacity=".3" fill="#fff" stroke="#fff" stroke-width="2" stroke-linejoin="round" overflow="visible"/><path d="M-394.5 408.5c-1 0-1.313.5-1.5 1l-1.5 4c-.188.5-1 1-1 2v5h2v1c0 .5.5 1 1 1h1c.5 0 1-.5 1-1v-1h7v1c0 .5.5 1 1 1h1c.5 0 1-.5 1-1v-1h2v-5c0-1-.738-1.302-1-2l-1.5-4c-.188-.5-.5-1-1.5-1h-9zm.5 2h8l1 3h-10zm-.5 6c.554 0 1 .446 1 1s-.446 1-1 1-1-.446-1-1 .446-1 1-1zm9 0c.554 0 1 .446 1 1s-.446 1-1 1-1-.446-1-1 .446-1 1-1z" fill="#444" overflow="visible"/></g></svg><svg width="24" height="24" viewBox="0 0 24 24" id="cemetery-24" x="213" y="33"><g color="#000"><path d="M12.5 4C9.426 4 8 6 8 9v9c-.5 0-1 .5-1 1v1h11v-1c0-.5-.5-1-1-1V9c0-3-1.5-5-4.5-5z" opacity=".3" fill="#fff" stroke="#fff" stroke-width="2" stroke-linejoin="round" overflow="visible"/><path d="M12.5 4C9.426 4 8 6 8 9v9c-.5 0-1 .5-1 1v1h11v-1c0-.5-.5-1-1-1V9c0-3-1.5-5-4.5-5z" fill="#444" overflow="visible"/><path opacity=".5" fill="none" overflow="visible" d="M0 0h24v24H0z"/></g></svg><svg width="24" height="24" viewBox="0 0 24 24" id="chemist-24" x="243" y="33"><path d="M9.28 3C8.57 3 8 3.446 8 4s.57 1 1.28 1H10v4L5 19l.97 1H18.97L20 19 15 9V5h.72C16.43 5 17 4.554 17 4s-.57-1-1.28-1H9.28zM12 5h1v4l3 6H9l3-6V5z" opacity=".3" fill="none" stroke="#fff" stroke-width="2" stroke-linecap="round" stroke-linejoin="round" color="#000" overflow="visible"/><path d="M9.28 3C8.57 3 8 3.446 8 4s.57 1 1.28 1H10v4L5 19l.97 1H18.97L20 19 15 9V5h.72C16.43 5 17 4.554 17 4s-.57-1-1.28-1H9.28zM12 5h1v4l3 6H9l3-6V5z" opacity=".99" fill="#454545" fill-rule="evenodd"/></svg><svg width="24" height="24" viewBox="0 0 24 24" id="cinema-24" x="273" y="33"><g color="#000"><path d="M18 3l-2.25.656 1.094 2.97L19 6zm-3.625 1.03l-2.938.845L11.5 5l.563 1.53.5 1.314L15.5 7zm-4.28 1.22L7.5 6l1.125 2.97 2.594-.75-.658-1.69zm-3.94 1.125L4 7l1 3 2.25-.656zM5 10v9c0 .554.446 1 1 1h13c.554 0 1-.446 1-1v-9zm2 2h11v3H7z" opacity=".3" fill="#fff" stroke="#fff" stroke-width="2" stroke-linecap="round" stroke-linejoin="round" overflow="visible"/><path d="M18 3l-2.25.656 1.094 2.97L19 6zm-3.625 1.03l-2.938.845L11.5 5l.563 1.53.5 1.314L15.5 7zm-4.28 1.22L7.5 6l1.125 2.97 2.594-.75-.658-1.69zm-3.94 1.125L4 7l1 3 2.25-.656zM5 10v9c0 .554.446 1 1 1h13c.554 0 1-.446 1-1v-9zm2 2h11v3H7z" fill="#444" overflow="visible"/><path opacity=".5" fill="none" overflow="visible" d="M0 0h24v24H0z"/></g></svg><svg width="24" height="24" viewBox="0 0 24 24" id="circle-24" x="303" y="33"><g color="#000"><path d="M4.006 11.496c0 4.694 3.804 8.498 8.497 8.498 4.694 0 8.498-3.804 8.498-8.498C21 6.803 17.198 3 12.504 3 7.81 3 4.006 6.802 4.006 11.495z" opacity=".3" fill="#fff" stroke="#fff" stroke-width="1.99923" overflow="visible"/><path d="M4.006 11.496c0 4.694 3.804 8.498 8.497 8.498 4.694 0 8.498-3.804 8.498-8.498C21 6.803 17.198 3 12.504 3 7.81 3 4.006 6.802 4.006 11.495z" fill="#444" overflow="visible"/><path opacity=".5" fill="none" overflow="visible" d="M0 0h24v24H0z"/></g></svg><svg width="24" height="24" viewBox="0 0 24 24" id="circle-stroked-24" x="3" y="63"><g color="#000"><path opacity=".3" fill="none" overflow="visible" d="M0 0h24v24H0z"/><path d="M12.5 3C7.806 3 4 6.806 4 11.5c0 4.695 3.806 8.5 8.5 8.5s8.5-3.805 8.5-8.5C21 6.806 17.194 3 12.5 3zm0 2c3.59 0 6.5 2.91 6.5 6.5S16.09 18 12.5 18 6 15.09 6 11.5 8.91 5 12.5 5z" opacity=".3" fill="#fff" stroke="#fff" stroke-width="2" overflow="visible"/><path d="M12.5 3C7.806 3 4 6.806 4 11.5c0 4.695 3.806 8.5 8.5 8.5s8.5-3.805 8.5-8.5C21 6.806 17.194 3 12.5 3zm0 2c3.59 0 6.5 2.91 6.5 6.5S16.09 18 12.5 18 6 15.09 6 11.5 8.91 5 12.5 5z" fill="#444" overflow="visible"/></g></svg><svg width="24" height="24" viewBox="0 0 24 24" id="city-24" x="33" y="63"><path opacity=".5" color="#000" fill="none" overflow="visible" d="M0 0h24v24H0z"/></svg><svg width="24" height="24" viewBox="0 0 24 24" id="clothing-store-24" x="63" y="63"><g fill="#444"><path d="M9.438 4c-.124-.01-.273.02-.438.094C7.982 4.537 7 5 7 5S4.178 7.604 3.125 8.657c-.183.183-.192.473 0 .718l2.5 2.47c.175.203.544.24.75.03L7 11h1v8h9v-8h1l.625.875c.206.21.575.173.75-.03l2.5-2.47c.192-.245.183-.535 0-.718C20.822 7.604 18 5 18 5s-.982-.463-2-.906c-.662-.298-.986.177-1 .438.018 1.04-1.09 2.497-2.5 2.468-1.41.03-2.518-1.43-2.5-2.468-.01-.196-.19-.512-.563-.532z" opacity=".3" stroke="#fff" stroke-width="2" stroke-linecap="round" stroke-linejoin="round"/><path d="M9.438 4c-.124-.01-.273.02-.438.094C7.982 4.537 7 5 7 5S4.178 7.604 3.125 8.657c-.183.183-.192.473 0 .718l2.5 2.47c.175.203.544.24.75.03L7 11h1v8h9v-8h1l.625.875c.206.21.575.173.75-.03l2.5-2.47c.192-.245.183-.535 0-.718C20.822 7.604 18 5 18 5s-.982-.463-2-.906c-.662-.298-.986.177-1 .438.018 1.04-1.09 2.497-2.5 2.468-1.41.03-2.518-1.43-2.5-2.468-.01-.196-.19-.512-.563-.532z"/></g></svg><svg width="24" height="24" viewBox="0 0 24 24" id="college-24" x="93" y="63"><g color="#000"><path d="M12.5 5L3 10l9.5 5 5.5-2.78V16c0 2 2 2 2 2v-1s-1-.057-1-1v-4.344L22 10zM8 14v2c0 .497.325 1.163 1 1.5l3.5 1.5 3-1.5c.675-.337 1.547-1.006 1.5-1.5v-2l-4.5 2.188z" opacity=".3" fill="none" stroke="#fff" stroke-width="2" stroke-linecap="round" stroke-linejoin="round" overflow="visible"/><path d="M12.5 5L3 10l9.5 5 5.5-2.78V16c0 2 2 2 2 2v-1s-1-.057-1-1v-4.344L22 10zM8 14v2c0 .497.325 1.163 1 1.5l3.5 1.5 3-1.5c.675-.337 1.547-1.006 1.5-1.5v-2l-4.5 2.188z" fill="#444" overflow="visible"/></g><path opacity=".5" color="#000" fill="none" overflow="visible" d="M0 0h24v24H0z"/></svg><svg width="24" height="24" viewBox="0 0 24 24" id="commercial-24" x="123" y="63"><g color="#000"><path d="M6 2c-.5 0-1 .5-1 1v18h6.5v-3h2v3H20V3c0-.5-.5-1-1-1z" opacity=".3" fill="#fff" stroke="#fff" stroke-width="2" stroke-linejoin="round" overflow="visible"/><path d="M6 2c-.5 0-1 .5-1 1v18h6v-3h3v3h6V3c0-.5-.5-1-1-1zm2 3h3v1H8zm6 0h3v1h-3zM8 8h3v1H8zm6 0h3v1h-3zm-6 3h3v1H8zm6 0h3v1h-3zm-6 3h3v1H8zm6 0h3v1h-3z" fill="#444" overflow="visible"/><path opacity=".5" fill="none" overflow="visible" d="M0 0h24v24H0z"/></g></svg><svg width="24" height="24" viewBox="0 0 24 24" id="cricket-24" x="153" y="63"><g color="#000"><path d="M5 4C4 5 4 6 4 6l10 10 1.5-.5 4 4c.316.317.506.5.906.5.125 0 .282 0 .438-.156.156-.156.156-.312.156-.437 0-.4-.218-.625-.5-.907l-4-4L17 13 7 3S6 3 5 4zm3.5 9c-.828 0-1.5.672-1.5 1.5 0 .83.672 1.5 1.5 1.5s1.5-.67 1.5-1.5c0-.828-.672-1.5-1.5-1.5z" opacity=".3" fill="none" stroke="#fff" stroke-width="2" overflow="visible"/><path d="M5 4C4 5 4 6 4 6l10 10 1.5-.5 4 4c.316.317.506.5.906.5.125 0 .282 0 .438-.156.156-.156.156-.312.156-.437 0-.4-.218-.625-.5-.907l-4-4L17 13 7 3S6 3 5 4zm3.5 9c-.828 0-1.5.672-1.5 1.5 0 .83.672 1.5 1.5 1.5s1.5-.67 1.5-1.5c0-.828-.672-1.5-1.5-1.5z" fill="#444" overflow="visible"/><path opacity=".5" fill="none" overflow="visible" d="M0 0h24v24H0z"/></g></svg><svg width="24" height="24" viewBox="0 0 24 24" id="cross-24" x="183" y="63"><g color="#000"><path d="M5.083 3C4.543 3 4 3.542 4 4.083c0 .27.088.53.305.745l6.672 6.672-6.672 6.672c-.217.217-.305.475-.305.745C4 19.457 4.542 20 5.083 20c.27 0 .542-.067.78-.304l6.637-6.64 6.638 6.64c.237.237.508.304.78.304.54 0 1.082-.542 1.082-1.083 0-.27-.088-.528-.305-.745L14.023 11.5l6.672-6.672c.217-.216.305-.475.305-.745C21 3.543 20.458 3 19.917 3c-.27 0-.542.067-.78.305L12.5 9.943 5.862 3.305C5.625 3.067 5.354 3 5.082 3z" style="text-indent:0;text-align:start;line-height:normal;text-transform:none;block-progression:tb;-inkscape-font-specification:Sans" opacity=".3" fill="#fff" stroke="#fff" stroke-width="2" stroke-linejoin="round" overflow="visible" font-family="Sans"/><path opacity=".5" fill="none" overflow="visible" d="M0 0h24v24H0z"/><path style="text-indent:0;text-align:start;line-height:normal;text-transform:none;block-progression:tb;-inkscape-font-specification:Sans" d="M5.083 3C4.543 3 4 3.542 4 4.083c0 .27.088.53.305.745l6.672 6.672-6.672 6.672c-.217.217-.305.475-.305.745C4 19.457 4.542 20 5.083 20c.27 0 .542-.067.78-.304l6.637-6.64 6.638 6.64c.237.237.508.304.78.304.54 0 1.082-.542 1.082-1.083 0-.27-.088-.528-.305-.745L14.023 11.5l6.672-6.672c.217-.216.305-.475.305-.745C21 3.543 20.458 3 19.917 3c-.27 0-.542.067-.78.305L12.5 9.943 5.862 3.305C5.625 3.067 5.354 3 5.082 3z" fill="#444" overflow="visible" font-family="Sans"/></g></svg><svg width="24" height="24" viewBox="0 0 24 24" id="dam-24" x="213" y="63"><g color="#000"><path d="M4 6v12c0 .5.5 1 1 1h5L6 5H5c-.5 0-1 .5-1 1zm8.5 6c-.106 0-.217.033-.313.062l-2.437.844.53 1.875L12.5 14l2.688.937c.103.034.207.062.312.062.105 0 .214-.033.313-.063L19 14l2 .656v-2.03l-1.688-.564c-.1-.033-.206-.062-.312-.062-.106 0-.21.03-.313.062L15.5 13l-2.688-.938c-.105-.035-.206-.062-.312-.062zm0 4c-.106 0-.217.033-.313.062l-1.374.47.53 1.874L12.5 18l2.688.937c.103.034.207.062.312.062.105 0 .214-.033.313-.063L19 18l2 .656v-2.03l-1.688-.564c-.1-.033-.206-.062-.312-.062-.106 0-.21.03-.313.062L15.5 17l-2.688-.938c-.105-.035-.206-.062-.312-.062z" opacity=".3" fill="#fff" stroke="#fff" stroke-width="2" stroke-linecap="round" stroke-linejoin="round" overflow="visible"/><path d="M4 6v12c0 .5.5 1 1 1h5L6 5H5c-.5 0-1 .5-1 1zm8.5 6c-.106 0-.217.033-.313.062l-2.437.844.53 1.875L12.5 14l2.688.937c.103.034.207.062.312.062.105 0 .214-.033.313-.063L19 14l2 .656v-2.03l-1.688-.564c-.1-.033-.206-.062-.312-.062-.106 0-.21.03-.313.062L15.5 13l-2.688-.938c-.105-.035-.206-.062-.312-.062zm0 4c-.106 0-.217.033-.313.062l-1.374.47.53 1.874L12.5 18l2.688.937c.103.034.207.062.312.062.105 0 .214-.033.313-.063L19 18l2 .656v-2.03l-1.688-.564c-.1-.033-.206-.062-.312-.062-.106 0-.21.03-.313.062L15.5 17l-2.688-.938c-.105-.035-.206-.062-.312-.062z" fill="#444" overflow="visible"/><path opacity=".5" fill="none" overflow="visible" d="M0 0h24v24H0z"/></g></svg><svg width="24" height="24" viewBox="0 0 24 24" id="danger-24" x="243" y="63"><g color="#000"><path d="M12.5 4C10 4 8 6 8 8v2c0 1 2 1 2 2v1l2.5 1 2.5-1v-1c0-1 2-1 2-2V8c0-2-2-4-4.5-4zM11 7c.552 0 1 .448 1 1s-.448 1-1 1-1-.448-1-1 .448-1 1-1zm3 0c.552 0 1 .448 1 1s-.448 1-1 1-1-.448-1-1 .448-1 1-1zm-8 6c-.5 0-1 .5-1 1v.5l5.25 2.25L5 19v.5c0 .5.5 1 1 1l14-6V14c0-.5-.5-1-1-1l-6.5 2.78L6 13zm10.5 4.5l-2.25.97L19 20.5c.5 0 1-.5 1-1V19l-3.5-1.5z" opacity=".3" fill="#fff" stroke="#fff" stroke-width="2" stroke-linecap="round" stroke-linejoin="round" overflow="visible"/><path d="M12.5 4C10 4 8 6 8 8v2c0 1 2 1 2 2v1l2.5 1 2.5-1v-1c0-1 2-1 2-2V8c0-2-2-4-4.5-4zM11 7c.552 0 1 .448 1 1s-.448 1-1 1-1-.448-1-1 .448-1 1-1zm3 0c.552 0 1 .448 1 1s-.448 1-1 1-1-.448-1-1 .448-1 1-1zm-8 6c-.5 0-1 .5-1 1v.5l5.25 2.25L5 19v.5c0 .5.5 1 1 1l14-6V14c0-.5-.5-1-1-1l-6.5 2.78L6 13zm10.5 4.5l-2.25.97L19 20.5c.5 0 1-.5 1-1V19l-3.5-1.5z" fill="#444" overflow="visible"/><path opacity=".5" fill="none" overflow="visible" d="M0 0h24v24H0z"/></g></svg><svg width="24" height="24" viewBox="0 0 24 24" id="disability-24" x="273" y="63"><path d="M11.5 2C10.12 2 9 3.12 9 4.5S10.12 7 11.5 7 14 5.88 14 4.5 12.88 2 11.5 2zM11 8c-1 0-2 1-2 2v3.5C9 15 10 16 11.5 16h5l2.625 3.5c.226.332.484.5.875.5.5 0 1-.5 1-1 0-.293-.167-.52-.28-.72L18 14.5c-.18-.314-.5-.5-1-.5h-2.5l-1-4c-.243-.97-.5-2-1.5-2zm-3 2c-2.33.823-4 3.387-4 6 0 3.314 2.686 6 6 6 2.976 0 5.433-2.158 5.906-5H14c-.538 1.73-1.843 3-3.75 3C7.903 20 6 18.097 6 15.75c0-1.517.803-2.998 2-3.75z" opacity=".3" color="#000" fill="none" stroke="#fff" stroke-width="2" stroke-linecap="round" stroke-linejoin="round" overflow="visible"/><path d="M11.5 2C10.12 2 9 3.12 9 4.5S10.12 7 11.5 7 14 5.88 14 4.5 12.88 2 11.5 2zM11 8c-1 0-2 1-2 2v3.5C9 15 10 16 11.5 16h5l2.625 3.5c.226.332.484.5.875.5.5 0 1-.5 1-1 0-.293-.167-.52-.28-.72L18 14.5c-.18-.314-.5-.5-1-.5h-2.5l-1-4c-.243-.97-.5-2-1.5-2zm-3 2c-2.33.823-4 3.387-4 6 0 3.314 2.686 6 6 6 2.976 0 5.433-2.158 5.906-5H14c-.538 1.73-1.843 3-3.75 3C7.903 20 6 18.097 6 15.75c0-1.517.803-2.998 2-3.75z" color="#000" fill="#444" overflow="visible"/><path color="#000" fill="none" overflow="visible" d="M0 0h24v24H0z"/></svg><svg width="24" height="24" viewBox="0 0 24 24" id="dog-park-24" x="303" y="63"><path opacity=".3" fill="#FFF" d="M6 3.97a1.017 1.017 0 0 0-.906.56l-1 2a1.017 1.017 0 0 0-.063.782l.876 2.625c-.68 1.012-.9 2.06-.906 2.876l-1.938 4.812A1.017 1.017 0 0 0 3 19.03h2a1.017 1.017 0 0 0 .5-.155 1.017 1.017 0 0 0 .03 0 1.017 1.017 0 0 0 .47.156h2a1.017 1.017 0 0 0 .844-1.56c-.294-.466-.254-.908 0-1.626.16-.457.43-1.047.687-1.594.156.068.193.05.5.188.37.164 1.117.228 1.72.343L11 17.75a1.017 1.017 0 0 0 1 1.28h2a1.017 1.017 0 0 0 .97-.78l.124.22a1.017 1.017 0 0 0 .906.56h2a1.017 1.017 0 0 0 .5-1.905c-.59-.34-.773-.658-.97-1.188-.177-.482-.28-1.203-.468-2l.407-2.03a1.017 1.017 0 0 0 .436-.438c.068-.138.145-.244.75-.345.606-.1 1.594-.094 2.844-.094a1.017 1.017 0 0 0 .97-.717l.5-1.5a1.017 1.017 0 0 0-.5-1.22l-3.095-1.53.344-.344A1.017 1.017 0 0 0 19 3.97h-1a1.017 1.017 0 0 0-.47.124l-2 1a1.017 1.017 0 0 0-.436.437l-1 2a1.017 1.017 0 0 0 0 .032l-1.22.407H8l-.813-1.095.72-1.406A1.017 1.017 0 0 0 7 3.97H6z"/><path fill="#444" d="M16 6l2-1h1l-1 1v.5l4 2-.5 1.5c-2.5 0-4 0-4.5 1l-2-3zM16.5 11.5l-2-3L13 9H7.5L6 7l1-2H6L5 7l1 3c-1 1-1 2-1 3l-2 5h2c-.482-1.39.753-2.384 1.5-3.5L6 18h2c-1.004-1.587.4-3.4 1-5 1 0 1.5 1 4 1l-1 4h2c-.876-1.118-.076-1.85.5-3l1.5 3h2c-1.578-.91-1.583-2.332-2-4z"/></svg><svg width="24" height="24" viewBox="0 0 24 24" id="embassy-24" x="3" y="93"><g color="#000"><path d="M10 2L8 3 6 4v15c0 .5.5 1 1 1s1-.5 1-1v-9l2-1c2-1 4.21 2.895 6 2l3-1.5v-7L16 4c-1.79.895-4-3-6-2z" opacity=".3" fill="none" stroke="#fff" stroke-width="2" stroke-linecap="round" stroke-linejoin="round" overflow="visible"/><path d="M10 2L8 3 6 4v15c0 .5.5 1 1 1s1-.5 1-1v-9l2-1c2-1 4.21 2.895 6 2l3-1.5v-7L16 4c-1.79.895-4-3-6-2z" fill="#444" overflow="visible"/><path opacity=".5" fill="none" overflow="visible" d="M0 0h24v24H0z"/></g></svg><svg width="24" height="24" viewBox="0 0 24 24" id="emergency-telephone-24" x="33" y="93"><g color="#000"><path d="M9 3.5L4.5 8H9V3.5zm7 .5c-1 0-1.326.326-2 1l-8 8c-.5.5-1 1-1 2v1.5c0 1 .5 1.5 1 2l.563.563 3.5-3.5L9.5 15c-.5-.5 0-1 0-1L15 8.5s.5-.5 1 0l.563.563 3.5-3.5L19.5 5c-.5-.5-1-1-2-1H16zm4.438 1.938l-3.5 3.5.562.562c.354.354 1.146.354 1.5 0l2-2c.354-.354.354-1.146 0-1.5l-.563-.562zm-10 10l-3.5 3.5L7.5 20c.354.354 1.146.354 1.5 0l2-2c.354-.353.354-1.146 0-1.5l-.563-.562z" fill="#444" stroke="#fff" stroke-width="2" stroke-linejoin="round" overflow="visible" opacity=".3"/><path d="M9 3.5L4.5 8H9V3.5zm7 .5c-1 0-1.326.326-2 1l-8 8c-.5.5-1 1-1 2v1.5c0 1 .5 1.5 1 2l.563.563 3.5-3.5L9.5 15c-.5-.5 0-1 0-1L15 8.5s.5-.5 1 0l.563.563 3.5-3.5L19.5 5c-.5-.5-1-1-2-1H16zm4.438 1.938l-3.5 3.5.562.562c.354.353 1.146.354 1.5 0l2-2c.354-.354.354-1.147 0-1.5l-.563-.563zm-10 10l-3.5 3.5L7.5 20c.354.354 1.146.353 1.5 0l2-2c.354-.354.354-1.147 0-1.5l-.563-.563z" fill="#444" overflow="visible"/><path fill="none" overflow="visible" d="M0 0h24v24H0z"/></g></svg><svg width="24" height="24" viewBox="0 0 24 24" id="entrance-24" x="63" y="93"><path style="text-indent:0;text-align:start;line-height:normal;text-transform:none;block-progression:tb;-inkscape-font-specification:Sans" d="M7 2c-.605 0-1.068.28-1.406.625C5.254 2.97 4.99 3.397 5 4v4c0 .524.476 1 1 1H3.5C2.127 9 1 10.13 1 11.5S2.133 14 3.5 14H6c-.524 0-1 .476-1 1v4c0 1.13.87 2 2 2h11c1.13 0 2-.87 2-2V4c0-1.13-.87-2-2-2zm9 4v3.97c-1.54-1.226-3.1-2.458-4.625-3.69-.454-.31-.875-.28-.844-.296C12.5 6 11.446 6 16 6zm0 7.03V17h-5.47c-2.81-1.517-1.794-.524 0 0 .274.008.548-.07.814-.25.02-.02.042-.04.062-.063z" color="#000" fill="#fff" overflow="visible" font-family="Sans" opacity=".3"/><path d="M10 7.5V10H3.5c-.828 0-1.5.676-1.5 1.504C2 12.33 2.672 13 3.5 13H10v2.5c.005.358.484.636.78.434l5.01-4.02c.265-.173.282-.617.033-.81L10.81 7.13c-.452-.31-.81-.005-.81.37z" fill="#444"/><path style="text-indent:0;text-align:start;line-height:normal;text-transform:none;block-progression:tb;-inkscape-font-specification:Sans" d="M7 3c-.5 0-1.008.533-1 1v4h2V5h9v13H8v-3H6v4c0 .524.476 1 1 1h11c.524 0 1-.476 1-1V4c0-.524-.476-1-1-1H7z" color="#000" fill="#444" overflow="visible" font-family="Sans"/></svg><svg width="24" height="24" viewBox="0 0 24 24" id="farm-24" x="93" y="93"><g color="#000"><path opacity=".5" fill="none" overflow="visible" d="M0 0h24v24H0z"/><path d="M17 7v10h5V7c0-1.5-.5-3-2.5-3S17 5.5 17 7zM6 7c-.5 0-1 .5-1.5 1L2 11h1v6h12v-6h1l-2.5-3c-.5-.5-1-1-1.5-1z" opacity=".3" fill="#fff" stroke="#fff" stroke-width="2" stroke-linecap="round" stroke-linejoin="round" overflow="visible"/><path d="M17 7v10h5V7c0-1.5-.5-3-2.5-3S17 5.5 17 7zM6 7c-.5 0-1 .5-1.5 1L2 11h1v6h7v-3h2v3h3v-6h1l-2.5-3c-.5-.5-1-1-1.5-1zm5 2s2 1.255 2 2v1H9v-1c0-.745 2-2 2-2z" fill="#444" overflow="visible"/></g></svg><svg width="24" height="24" viewBox="0 0 24 24" id="fast-food-24" x="123" y="93"><g color="#000"><path d="M10 5C7 5 4 6.5 4 9v2h17V9c0-2.5-3-4-6-4zm.5 1c.277 0 .5.223.5.5s-.223.5-.5.5-.5-.223-.5-.5.223-.5.5-.5zm4 0c.277 0 .5.223.5.5s-.223.5-.5.5-.5-.223-.5-.5.223-.5.5-.5zm-6 2c.277 0 .5.223.5.5s-.223.5-.5.5-.5-.223-.5-.5.223-.5.5-.5zm4 0c.277 0 .5.223.5.5s-.223.5-.5.5-.5-.223-.5-.5.223-.5.5-.5zm4 0c.277 0 .5.223.5.5s-.223.5-.5.5-.5-.223-.5-.5.223-.5.5-.5zM4 12c-.5 0-1 .5-1 1s.5 1 1 1h17c.5 0 1-.5 1-1s-.5-1-1-1zm0 3v1c0 1 1 2 2 2h13c1 0 2-1 2-2v-1z" opacity=".3" fill="none" stroke="#fff" stroke-width="2" stroke-linecap="round" stroke-linejoin="round" overflow="visible"/><path d="M10 5C7 5 4 6.5 4 9v2h17V9c0-2.5-3-4-6-4zm.5 1c.277 0 .5.223.5.5s-.223.5-.5.5-.5-.223-.5-.5.223-.5.5-.5zm4 0c.277 0 .5.223.5.5s-.223.5-.5.5-.5-.223-.5-.5.223-.5.5-.5zm-6 2c.277 0 .5.223.5.5s-.223.5-.5.5-.5-.223-.5-.5.223-.5.5-.5zm4 0c.277 0 .5.223.5.5s-.223.5-.5.5-.5-.223-.5-.5.223-.5.5-.5zm4 0c.277 0 .5.223.5.5s-.223.5-.5.5-.5-.223-.5-.5.223-.5.5-.5zM4 12c-.5 0-1 .5-1 1s.5 1 1 1h17c.5 0 1-.5 1-1s-.5-1-1-1zm0 3v1c0 1 1 2 2 2h13c1 0 2-1 2-2v-1z" fill="#444" overflow="visible"/><path opacity=".5" fill="none" overflow="visible" d="M0 0h24v24H0z"/></g></svg><svg width="24" height="24" viewBox="0 0 24 24" id="ferry-24" x="153" y="93"><g transform="translate(-84 -1338.362)" color="#000"><path d="M94 1339.362c-.554 0-1 .446-1 1h-2c-.554 0-1 .446-1 1v6.063l-2 .937 2 4v2c1.5 0 2.5 1 3.5 1s1.5-1 3-1 2 1 3 1 2-1 3.5-1v-2l2-4-2-.938v-6.062c0-.554-.446-1-1-1h-2c0-.554-.446-1-1-1h-5zm-2 3h9v4.125l-4.5-2.125-4.5 2.125v-4.125zm-2 14c-.694 0-1.34.405-2 .625v2.03s1-.654 2-.655c1 0 2 1 3.5 1s1.974-.965 3-1c1 0 1.5 1 3 1s2.5-1 3.5-1c.702 0 2 .656 2 .656v-2.03c-.642-.248-1.343-.626-2-.626-1.5 0-2.5 1-3.5 1s-1.5-1-3-1-2 1-3 1-2-1-3.5-1z" opacity=".3" fill="#fff" stroke="#fff" stroke-width="2" stroke-linejoin="round" overflow="visible"/><path d="M94 1339.362c-.554 0-1 .446-1 1h-2c-.554 0-1 .446-1 1v6.063l-2 .937 2 4v2c1.5 0 2.5 1 3.5 1s1.5-1 3-1 2 1 3 1 2-1 3.5-1v-2l2-4-2-.938v-6.062c0-.554-.446-1-1-1h-2c0-.554-.446-1-1-1h-5zm-2 3h9v4.125l-4.5-2.125-4.5 2.125v-4.125zm-2 14c-.694 0-1.34.405-2 .625v2.03s1-.654 2-.655c1 0 2 1 3.5 1s1.974-.965 3-1c1 0 1.5 1 3 1s2.5-1 3.5-1c.702 0 2 .656 2 .656v-2.03c-.642-.248-1.343-.626-2-.626-1.5 0-2.5 1-3.5 1s-1.5-1-3-1-2 1-3 1-2-1-3.5-1z" fill="#444" overflow="visible"/><rect width="24" height="24" x="84" y="1338.362" rx="0" ry="0" opacity=".3" fill="none" overflow="visible"/></g></svg><svg width="24" height="24" viewBox="0 0 24 24" id="fire-station-24" x="183" y="93"><g color="#000"><path d="M12.5 3L9 8 7 5c-.663 1.165-3 4-3 7 0 4.418 4.082 8 8.5 8s8.5-3.582 8.5-8c0-3-2.337-5.835-3-7l-2 3z" opacity=".3" fill="#fff" stroke="#fff" stroke-width="2" stroke-linecap="round" stroke-linejoin="round" overflow="visible"/><path d="M12.5 3L9 8 7 5c-.663 1.165-3 4-3 7 0 4.418 4.082 8 8.5 8s8.5-3.582 8.5-8c0-3-2.337-5.835-3-7l-2 3zm0 8s3.5 2.685 3.5 5c0 1-1.5 2-3.5 2S9 17 9 16c0-2.236 3.5-5 3.5-5z" fill="#444" overflow="visible"/><path opacity=".5" fill="none" overflow="visible" d="M0 0h24v24H0z"/></g></svg><svg width="24" height="24" viewBox="0 0 24 24" id="fuel-24" x="213" y="93"><g color="#000"><path d="M8 3c-.554 0-1 .446-1 1v16c0 .5.5 1 1 1h9c.5 0 1-.5 1-1v-5h.5c.5 0 .5.5.5.5v2c0 1 .5 1.5 1.5 1.5s1.5-.5 1.5-1.5V12c0-1-2-2-2-3V6h-1l-1-1V4c0-.554-.446-1-1-1zm1 2h7v4H9zm9 3h1v1.5c0 1 2 2 2 3v5c0 .5-.5.5-.5.5s-.5 0-.5-.5V15c0-.5-.5-1-1-1h-1z" opacity=".3" fill="#fff" stroke="#fff" stroke-width="2" stroke-linecap="round" stroke-linejoin="round" overflow="visible"/><path d="M8 3c-.554 0-1 .446-1 1v16c0 .5.5 1 1 1h9c.5 0 1-.5 1-1v-5h.5c.5 0 .5.5.5.5v2c0 1 .5 1.5 1.5 1.5s1.5-.5 1.5-1.5V12c0-1-2-2-2-3V6h-1l-1-1V4c0-.554-.446-1-1-1zm1 2h7v4H9zm9 3h1v1.5c0 1 2 2 2 3v5c0 .5-.5.5-.5.5s-.5 0-.5-.5V15c0-.5-.5-1-1-1h-1z" fill="#444" overflow="visible"/><path opacity=".5" fill="none" overflow="visible" d="M0 0h24v24H0z"/></g></svg><svg width="24" height="24" viewBox="0 0 24 24" id="garden-24" x="243" y="93"><g color="#000"><path d="M8.3 4c-.253 0-.3.56-.3 1v2c0 2.03 2 3.063 4 3v8c-1-2-4-5-7-4 0 0 2.5 6 7.5 6s7.5-6 7.5-6c-3-1-6 2-7 4v-8c2 .062 4-.97 4-3V5c0-.44-.047-1-.3-1-.193 0-.426.226-.7.5L14.5 6 13 4.313c-.157-.176-.247-.313-.5-.313s-.343.137-.5.313L10.5 6 9 4.5c-.274-.274-.507-.5-.7-.5z" opacity=".3" fill="#444" stroke="#fff" stroke-width="2" stroke-linecap="round" stroke-linejoin="round" overflow="visible"/><path d="M8.3 4c-.253 0-.3.56-.3 1v2c0 2.03 2 3.063 4 3v8c-1-2-4-5-7-4 0 0 2.5 6 7.5 6s7.5-6 7.5-6c-3-1-6 2-7 4v-8c2 .062 4-.97 4-3V5c0-.44-.047-1-.3-1-.193 0-.426.226-.7.5L14.5 6 13 4.313c-.157-.176-.247-.313-.5-.313s-.343.137-.5.313L10.5 6 9 4.5c-.274-.274-.507-.5-.7-.5z" fill="#444" overflow="visible"/><path opacity=".5" fill="none" overflow="visible" d="M0 0h24v24H0z"/></g></svg><svg width="24" height="24" viewBox="-402.5 403.5 24 24" id="gift-24" x="273" y="93"><g opacity=".3" fill="#FFF" stroke="#FFF" stroke-width="2" stroke-linejoin="round"><path d="M-387.5 407.5c-1.516 0-2.62.904-3 2.236-.382-1.332-1.45-2.236-3-2.236-1 0-2 .7-2 2s.61 2 1.91 2h6.106c1.3 0 1.985-.686 1.985-1.984 0-1.3-1-2.016-2-2.016zm0 1c1 0 1 .957 1 1s.05 1-1 1h-2c.107-.72.38-2 2-2zm-4 2h-2c-1.05 0-1-.957-1-1s-.05-1 1-1c1.62 0 1.893 1.28 2 2zM-391.5 417.5v-4h-3.5c-.83 0-1.5.672-1.5 1.5v2.5h5zM-389.5 417.5h5V415c0-.828-.67-1.5-1.5-1.5h-3.5v4zM-389.5 419.5v4h3.5c.83 0 1.5-.672 1.5-1.5v-2.5h-5zM-391.5 419.5h-5v2.5c0 .828.67 1.5 1.5 1.5h3.5v-4z"/></g><g fill="#454545"><path d="M-387.5 407.5c-1.516 0-2.62.904-3 2.236-.382-1.332-1.45-2.236-3-2.236-1 0-2 .7-2 2s.61 2 1.91 2h6.106c1.3 0 1.985-.686 1.985-1.984 0-1.3-1-2.016-2-2.016zm0 1c1 0 1 .957 1 1s.05 1-1 1h-2c.107-.72.38-2 2-2zm-4 2h-2c-1.05 0-1-.957-1-1s-.05-1 1-1c1.62 0 1.893 1.28 2 2zM-391.5 417.5v-4h-3.5c-.83 0-1.5.672-1.5 1.5v2.5h5zM-389.5 417.5h5V415c0-.828-.67-1.5-1.5-1.5h-3.5v4zM-389.5 419.5v4h3.5c.83 0 1.5-.672 1.5-1.5v-2.5h-5zM-391.5 419.5h-5v2.5c0 .828.67 1.5 1.5 1.5h3.5v-4z"/></g></svg><svg width="24" height="24" viewBox="0 0 24 24" id="golf-24" x="303" y="93"><g color="#000"><path d="M9.5 2c-.34 0-.5 0-.5.5v14.438C7 17 6 18.5 6 19.5c0 .5.5.5.5.5h12s.5 0 .5-.5c0-2.5-1.5-4.5-3-4.5-1.572 0-2.443 2.78-4 3-.683.096-1.342-.345-2-.687V8l7-3-6.498-2.785C10.125 2.055 9.75 2 9.5 2z" opacity=".3" fill="none" stroke="#fff" stroke-width="2" stroke-linecap="round" stroke-linejoin="round" overflow="visible"/><path d="M9.5 2c-.34 0-.5 0-.5.5v14.438C7 17 6 18.5 6 19.5c0 .5.5.5.5.5h12s.5 0 .5-.5c0-2.5-1.5-4.5-3-4.5-1.572 0-2.443 2.78-4 3-.683.096-1.342-.345-2-.687V8l7-3-6.498-2.785C10.125 2.055 9.75 2 9.5 2z" fill="#444" overflow="visible"/><path opacity=".5" fill="none" overflow="visible" d="M0 0h24v24H0z"/></g></svg><svg width="24" height="24" viewBox="0 0 24 24" id="grocery-24" x="3" y="123"><g color="#000"><path d="M20 4c-.583 0-1.1.163-1.47.53-.367.37-.53.887-.53 1.47H4l2 9h12v1H7c-1 0-1 1 0 1h11c.5 0 1-.5 1-1V6s.087-.65.22-.78c.13-.133.363-.22.78-.22h.4c.5 0 .6-.25.6-.5 0-.247-.1-.5-.6-.5H20zm-3.5 13c-.828 0-1.5.672-1.5 1.5s.672 1.5 1.5 1.5 1.5-.672 1.5-1.5-.672-1.5-1.5-1.5zm-8 0c-.828 0-1.5.672-1.5 1.5S7.672 20 8.5 20s1.5-.672 1.5-1.5S9.328 17 8.5 17z" opacity=".3" fill="#fff" stroke="#fff" stroke-width="2" stroke-linecap="round" stroke-linejoin="round" overflow="visible"/><path d="M20 4c-.583 0-1.1.163-1.47.53-.367.37-.53.887-.53 1.47H4l2 9h12v1H7c-1 0-1 1 0 1h11c.5 0 1-.5 1-1V6s.087-.65.22-.78c.13-.133.363-.22.78-.22h.4c.5 0 .6-.25.6-.5 0-.247-.1-.5-.6-.5H20zm-3.5 13c-.828 0-1.5.672-1.5 1.5s.672 1.5 1.5 1.5 1.5-.672 1.5-1.5-.672-1.5-1.5-1.5zm-8 0c-.828 0-1.5.672-1.5 1.5S7.672 20 8.5 20s1.5-.672 1.5-1.5S9.328 17 8.5 17z" fill="#444" overflow="visible"/><path opacity=".5" fill="none" overflow="visible" d="M0 0h24v24H0z"/></g></svg><svg width="24" height="24" viewBox="0 0 24 24" id="hairdresser-24" x="33" y="123"><g color="#000"><path d="M6 4.5c-1.657 0-3 1.343-3 3s1.343 3 3 3c.685 0 1.308-.24 1.813-.625l2.406 1.625-2.408 1.625C7.31 12.74 6.686 12.5 6 12.5c-1.657 0-3 1.343-3 3s1.343 3 3 3 3-1.343 3-3c0-.266-.06-.505-.125-.75L22.5 5.656c-.5-.333-1-.656-2-.656H19c-1 0-1.5.324-2 .656l-6 4L8.875 8.25C8.94 8.005 9 7.766 9 7.5c0-1.657-1.343-3-3-3zm9.125 7.906l-2.75 1.844L17 17.344c.5.332 1 .656 2 .656h1.5c1 0 1.5-.323 2-.656z" fill="#fff" stroke="#fff" stroke-width="2" overflow="visible" opacity=".3" stroke-linejoin="round"/><path d="M6 4.5c-1.657 0-3 1.343-3 3s1.343 3 3 3c.685 0 1.308-.24 1.813-.625l2.406 1.625-2.408 1.625C7.31 12.74 6.686 12.5 6 12.5c-1.657 0-3 1.343-3 3s1.343 3 3 3 3-1.343 3-3c0-.266-.06-.505-.125-.75L22.5 5.656c-.5-.333-1-.656-2-.656H19c-1 0-1.5.324-2 .656l-6 4L8.875 8.25C8.94 8.005 9 7.766 9 7.5c0-1.657-1.343-3-3-3zm9.125 7.906l-2.75 1.844L17 17.344c.5.332 1 .656 2 .656h1.5c1 0 1.5-.323 2-.656z" fill="#444" overflow="visible"/></g></svg><svg width="24" height="24" viewBox="0 0 24 24" id="harbor-24" x="63" y="123"><g transform="translate(-84 -1362.362)" color="#000"><path d="M101.5 1365.362c-1.933 0-3.5 1.567-3.5 3.5 0 .44.103.863.25 1.25l-8.25 8.25v-4c0-1.5 1-2 1-2l1 1v-4c0-1-.5-.5-1 0-3 3-3 2.973-3 5v7c0 .5.5 1 1 1h7c2.028 0 3.667-1.667 5-3 .5-.5 1-.987 0-1h-4l1 1s-.5 1-2 1h-4l8.25-8.25c.387.147.812.25 1.25.25 1.933 0 3.5-1.567 3.5-3.5s-1.567-3.5-3.5-3.5zm0 2c.828 0 1.5.672 1.5 1.5 0 .83-.672 1.5-1.5 1.5s-1.5-.67-1.5-1.5c0-.828.672-1.5 1.5-1.5z" opacity=".3" fill="#fff" stroke="#fff" stroke-width="2" stroke-linejoin="round" overflow="visible"/><rect ry="0" rx="0" y="1362.362" x="84" height="24" width="24" opacity=".3" fill="none" overflow="visible"/><path d="M101.5 1365.362c-1.933 0-3.5 1.567-3.5 3.5 0 .44.103.863.25 1.25l-8.25 8.25v-4c0-1.5 1-2 1-2l1 1v-4c0-1-.5-.5-1 0-3 3-3 2.973-3 5v7c0 .5.5 1 1 1h7c2.028 0 3.667-1.667 5-3 .5-.5 1-.987 0-1h-4l1 1s-.5 1-2 1h-4l8.25-8.25c.387.147.812.25 1.25.25 1.933 0 3.5-1.567 3.5-3.5s-1.567-3.5-3.5-3.5zm0 2c.828 0 1.5.672 1.5 1.5 0 .83-.672 1.5-1.5 1.5s-1.5-.67-1.5-1.5c0-.828.672-1.5 1.5-1.5z" fill="#444" overflow="visible"/></g></svg><svg width="24" height="24" viewBox="0 0 24 24" id="heart-24" x="93" y="123"><g color="#000"><path d="M7.803 5.01c-.688.048-1.368.224-1.972.533-2.418 1.238-3.795 4.493-2.035 7.894 1.69 3.263 5.924 7.4 8.016 9.302.37.347 1.01.347 1.38 0 2.09-1.903 6.325-6.04 8.015-9.303 1.76-3.4.383-6.656-2.036-7.894-2.07-1.058-4.833-.523-6.67 1.755-1.3-1.613-3.03-2.4-4.697-2.287z" style="text-indent:0;text-align:start;line-height:normal;text-transform:none;block-progression:tb;-inkscape-font-specification:Sans" opacity=".3" fill="#fff" overflow="visible" font-family="Sans"/><path d="M20.285 12.982c-1.52 2.932-5.75 7.167-7.785 9.018-2.036-1.85-6.266-6.086-7.785-9.018C1.6 6.97 9.485 2.962 12.5 8.974c3.015-6.012 10.9-2.004 7.785 4.008z" fill="#444" overflow="visible"/></g></svg><svg width="24" height="24" viewBox="0 0 24 24" id="heliport-24" x="123" y="123"><g color="#000"><path d="M12.25 18H21c.5 0 1-.5 1-1v-3c0-1-.48-1.48-1-2l-1-1c-.333-.333-1-1-2-1h-3V8h6c.554 0 1-.446 1-1s-.446-1-1-1H8c-.554 0-1 .446-1 1s.446 1 1 1h6v2H6.72C6.372 9.403 5.74 9 5 9c-1.105 0-2 .896-2 2 0 1.105.895 2 2 2 .577 0 1.072-.265 1.438-.656L10 16c1 1.026 1.75 2 2.25 2zM5 10c.552 0 1 .448 1 1s-.448 1-1 1-1-.448-1-1 .448-1 1-1z" opacity=".3" fill="#fff" stroke="#fff" stroke-width="2" stroke-linecap="round" stroke-linejoin="round" overflow="visible"/><path d="M12.25 18H21c.5 0 1-.5 1-1v-3c0-1-.48-1.48-1-2l-1-1c-.333-.333-1-1-2-1h-3V8h6c.554 0 1-.446 1-1s-.446-1-1-1H8c-.554 0-1 .446-1 1s.446 1 1 1h6v2H6.72C6.372 9.403 5.74 9 5 9c-1.105 0-2 .896-2 2 0 1.105.895 2 2 2 .577 0 1.072-.265 1.438-.656L10 16c1 1.026 1.75 2 2.25 2zM5 10c.552 0 1 .448 1 1s-.448 1-1 1-1-.448-1-1 .448-1 1-1z" fill="#444" overflow="visible"/><path opacity=".5" fill="none" overflow="visible" d="M0 0h24v24H0z"/></g></svg><svg width="24" height="24" viewBox="0 0 24 24" id="hospital-24" x="153" y="123"><g color="#000"><path d="M11 4c-.554 0-1 .446-1 1v4H6c-.554 0-1 .446-1 1v3c0 .554.446 1 1 1h4v4c0 .554.446 1 1 1h3c.554 0 1.07-.45 1-1v-4h4c.554 0 1-.446 1-1v-3c0-.554-.446-1-1-1h-4V5c0-.554-.446-1-1-1z" opacity=".3" fill="none" stroke="#fff" stroke-width="2" overflow="visible"/><path d="M11 4c-.554 0-1 .446-1 1v4H6c-.554 0-1 .446-1 1v3c0 .554.446 1 1 1h4v4c0 .554.446 1 1 1h3c.554 0 1-.446 1-1v-4h4c.554 0 1-.446 1-1v-3c0-.554-.446-1-1-1h-4V5c0-.554-.446-1-1-1z" fill="#444" overflow="visible"/><path opacity=".5" fill="none" overflow="visible" d="M0 0h24v24H0z"/></g></svg><svg width="24" height="24" viewBox="-402.5 403.5 24 24" id="ice-cream-24" x="183" y="123"><g opacity=".3" fill="#FFF" stroke="#FFF" stroke-width="2" stroke-miterlimit="10"><path d="M-386.5 415.5h-8s2.92 7.87 3 8c.17.457.625 1 1 1s.83-.543 1-1c.08-.13 3-8 3-8zM-395.907 412.274c.047.206.106.407.188.598l.002.003c.18.42.44.8.762 1.115h4.912c.644-.635 1.044-1.516 1.044-2.49 0-1.188-.595-2.233-1.5-2.866-.074-.052-.156-.093-.234-.14-.098-.058-.196-.114-.3-.162-.08-.037-.16-.07-.244-.1-.122-.047-.247-.085-.375-.117-.07-.018-.142-.038-.214-.052-.206-.037-.417-.063-.633-.063-1.933 0-3.5 1.567-3.5 3.5 0 .243.025.48.072.71.005.022.015.042.02.064zM-387.5 411.5c0 .91-.263 1.754-.69 2.49h2.146c.644-.635 1.044-1.516 1.044-2.49 0-1.933-1.567-3.5-3.5-3.5-.14 0-.276.017-.412.032.87.9 1.412 2.12 1.412 3.468z"/></g><g fill="#464545"><path d="M-395.907 412.274c.047.206.106.407.188.598l.002.003c.18.42.44.8.762 1.115h4.912c.644-.635 1.044-1.516 1.044-2.49 0-1.188-.595-2.233-1.5-2.866-.074-.052-.156-.093-.234-.14-.098-.058-.196-.114-.3-.162-.08-.037-.16-.07-.244-.1-.122-.047-.247-.085-.375-.117-.07-.018-.142-.038-.214-.052-.206-.037-.417-.063-.633-.063-1.933 0-3.5 1.567-3.5 3.5 0 .243.025.48.072.71.005.022.015.042.02.064zM-387.5 411.5c0 .91-.263 1.754-.69 2.49h2.146c.644-.635 1.044-1.516 1.044-2.49 0-1.933-1.567-3.5-3.5-3.5-.14 0-.276.017-.412.032.87.9 1.412 2.12 1.412 3.468zM-386.5 415.5h-8s2.92 7.87 3 8c.17.457.625 1 1 1s.83-.543 1-1c.08-.13 3-8 3-8z"/></g></svg><svg width="24" height="24" viewBox="0 0 24 24" id="industrial-24" x="213" y="123"><g color="#000"><path d="M16 4v4h-3V5L9 8V5L5 8c-.443.333-1 .5-1 1.5V18c0 .554.446 1 1 1h15c.554 0 1-.446 1-1V9c0-.554-.446-1-1-1h-2V4c0-.5-.53-1-1-1s-1 .5-1 1z" opacity=".3" fill="#fff" stroke="#fff" stroke-width="2" stroke-linejoin="round" overflow="visible"/><path d="M16 4v4h-3V5L9 8V5L5 8c-.443.333-1 .5-1 1.5V18c0 .554.446 1 1 1h15c.554 0 1-.446 1-1V9c0-.554-.446-1-1-1h-2V4c0-.5-.53-1-1-1s-1 .5-1 1z" fill="#444" overflow="visible"/><path opacity=".5" fill="none" overflow="visible" d="M0 0h24v24H0z"/></g></svg><svg width="24" height="24" viewBox="0 0 24 24" id="land-use-24" x="243" y="123"><g color="#000"><path d="M7.5 3c-.5 0-.783.197-1 .5L4 7h2v3h5V7h2l-2.5-3.5c-.217-.303-.5-.5-1-.5zM20 3v2h-4c-.5 0-1 .5-1 1v4h6V3zM6 12c-.5 0-1 .5-1 1v7h2v-2h1v2h4v-7c0-.5-.5-1-1-1zm12-1l-3 4h1.5L15 18h2v2h2v-2h2l-1.5-3H21z" opacity=".3" fill="#fff" stroke="#fff" stroke-width="2" stroke-linecap="round" stroke-linejoin="round" overflow="visible"/><path d="M7.5 3c-.5 0-.783.197-1 .5L4 7h2v3h5V7h2l-2.5-3.5c-.217-.303-.5-.5-1-.5h-2zM20 3v2h-4c-.5 0-1 .5-1 1v4h6V3h-1zm-2 8l-3 4h1.5L15 18h2v2h2v-2h2l-1.5-3H21l-3-4zM6 12c-.5 0-1 .5-1 1v7h2v-2h1v2h4v-7c0-.5-.5-1-1-1H6zm1 2h1v1H7v-1zm2 0h1v1H9v-1zm-2 2h1v1H7v-1zm2 0h1v1H9v-1zm0 2h1v1H9v-1z" fill="#444" overflow="visible"/><path opacity=".5" fill="none" overflow="visible" d="M0 0h24v24H0z"/></g></svg><svg width="24" height="24" viewBox="-402.5 403.5 24 24" id="laundry-24" x="273" y="123"><path d="M-390 406.5c-.484 0-1.146.646-1.5 1l-1 1c-.354.354-1 1-1.5 1h-2.5c-.5 0-1 .5-1 1v13c0 .553.448 1 1 1h13c.552 0 1-.447 1-1v-16c0-.553-.448-1-1-1zm1.5 1c.552 0 1 .448 1 1s-.448 1-1 1-1-.448-1-1 .448-1 1-1zm3 0c.552 0 1 .448 1 1s-.448 1-1 1-1-.448-1-1 .448-1 1-1zm-4.5 5c2.485 0 4.5 2.015 4.5 4.5s-2.015 4.5-4.5 4.5-4.5-2.015-4.5-4.5 2.015-4.5 4.5-4.5zm-2.5 4v.5c0 1.38 1.12 2.5 2.5 2.5s2.5-1.12 2.5-2.5v-.5z" opacity=".3" fill="none" stroke="#fff" stroke-width="2"/><path d="M-390 406.5c-.484 0-1.146.646-1.5 1l-1 1c-.354.354-1 1-1.5 1h-2.5c-.5 0-1 .5-1 1v13c0 .553.448 1 1 1h13c.552 0 1-.447 1-1v-16c0-.553-.448-1-1-1zm1.5 1c.552 0 1 .448 1 1s-.448 1-1 1-1-.448-1-1 .448-1 1-1zm3 0c.552 0 1 .448 1 1s-.448 1-1 1-1-.448-1-1 .448-1 1-1zm-4.5 5c2.485 0 4.5 2.015 4.5 4.5s-2.015 4.5-4.5 4.5-4.5-2.015-4.5-4.5 2.015-4.5 4.5-4.5zm-2.5 4v.5c0 1.38 1.12 2.5 2.5 2.5s2.5-1.12 2.5-2.5v-.5z" fill="#454545"/></svg><svg width="24" height="24" viewBox="0 0 24 24" id="library-24" x="303" y="123"><path d="M4 5v10c3 3 7 2 7 4h1v-9c0-3-5-3-8-5zm17 0c-3 2-8 2-8 5v9h1c0-2 4-1 7-4z" opacity=".3" color="#000" fill="none" stroke="#fff" stroke-width="2" stroke-linecap="round" stroke-linejoin="round" overflow="visible"/><path d="M4 5v10c3 3 7 2 7 4h1v-9c0-3-5-3-8-5zm17 0c-3 2-8 2-8 5v9h1c0-2 4-1 7-4z" color="#000" fill="#444" overflow="visible"/><path opacity=".5" color="#000" fill="none" overflow="visible" d="M0 0h24v24H0z"/></svg><svg width="24" height="24" viewBox="0 0 24 24" id="lighthouse-24" x="3" y="153"><g color="#000"><path d="M13 2l-2.5 1.5c-.514.308-.5 1-.5 1V8H9v2l1 1v1l-1 9h8l-1-9v-1l1-1V8h-1V4.5s.005-.697-.5-1z" opacity=".3" fill="#fff" stroke="#fff" stroke-width="2" overflow="visible"/><path d="M13 2l-2.5 1.5c-.514.308-.5 1-.5 1V8H9v2l1 1v1l-1 9h8l-1-9v-1l1-1V8h-1V4.5s.005-.697-.5-1zm1 4v2h-2V6s0-1 1-1 1 1 1 1z" fill="#444" overflow="visible"/></g></svg><svg width="24" height="24" viewBox="0 0 24 24" id="lodging-24" x="33" y="153"><g color="#000"><path d="M6 6c-1.105 0-2 .896-2 2 0 1.105.895 2 2 2s2-.895 2-2c0-1.104-.895-2-2-2zm3 2c0 1.657-1.343 3-3 3H4.5c-.253 0-.5 0-.5.5v1c0 .5.39.5.5.5H21v-2c0-1 0-3-5-3zm-4 6c-.5 0-1 .5-1 1v3c0 .5.5 1 1 1s1-.5 1-1v-2h13v2c0 .5.5 1 1 1s1-.5 1-1v-3c0-.5-.5-1-1-1z" opacity=".3" fill="none" stroke="#fff" stroke-width="2" stroke-linecap="round" stroke-linejoin="round" overflow="visible"/><path d="M6 6c-1.105 0-2 .896-2 2 0 1.105.895 2 2 2s2-.895 2-2c0-1.104-.895-2-2-2zm3 2c0 1.657-1.343 3-3 3H4.5c-.253 0-.5 0-.5.5v1c0 .5.39.5.5.5H21v-2c0-1 0-3-5-3zm-4 6c-.5 0-1 .5-1 1v3c0 .5.5 1 1 1s1-.5 1-1v-2h13v2c0 .5.5 1 1 1s1-.5 1-1v-3c0-.5-.5-1-1-1z" fill="#444" overflow="visible"/><path opacity=".5" fill="none" overflow="visible" d="M0 0h24v24H0z"/></g></svg><svg width="24" height="24" viewBox="0 0 24 24" id="logging-24" x="63" y="153"><path opacity=".5" color="#000" fill="none" overflow="visible" d="M0 0h24v24H0z"/></svg><svg width="24" height="24" viewBox="0 0 24 24" id="london-underground-24" x="93" y="153"><g color="#000"><path opacity=".5" fill="none" overflow="visible" d="M0 0h24v24H0z"/><path d="M12.5 4c-3.624 0-6.644 2.583-7.344 6H4c-.5 0-1 .5-1 1v1c0 .5.5 1 1 1h1.156c.7 3.418 3.72 6 7.344 6s6.644-2.582 7.344-6H21c.5 0 1-.5 1-1v-1c0-.5-.5-1-1-1h-1.156c-.7-3.417-3.72-6-7.344-6zm0 2.5c2.056 0 3.868 1.658 4.5 3.5H8c.632-1.842 2.444-3.5 4.5-3.5zM8 13h9c-.632 1.842-2.444 3.5-4.5 3.5S8.632 14.842 8 13z" opacity=".3" fill="#fff" stroke="#fff" stroke-width="2" stroke-linejoin="round" overflow="visible"/><path d="M12.5 4c-3.624 0-6.644 2.583-7.344 6H4c-.5 0-1 .5-1 1v1c0 .5.5 1 1 1h1.156c.7 3.418 3.72 6 7.344 6s6.644-2.582 7.344-6H21c.5 0 1-.5 1-1v-1c0-.5-.5-1-1-1h-1.156c-.7-3.417-3.72-6-7.344-6zm0 2.5c2.056 0 3.868 1.658 4.5 3.5H8c.632-1.842 2.444-3.5 4.5-3.5zM8 13h9c-.632 1.842-2.444 3.5-4.5 3.5S8.632 14.842 8 13z" fill="#444" overflow="visible"/></g></svg><svg width="24" height="24" viewBox="0 0 24 24" id="marker-24" x="123" y="153"><path d="M19 9.5C19 13 14 19 12.5 21 11 19 6 13 6 9.5S9.27 3 12.5 3 19 6 19 9.5z" opacity=".3" color="#000" fill="#fff" stroke="#fff" stroke-width="2" stroke-linejoin="round" overflow="visible"/><path d="M19 9.5C19 13 14 19 12.5 21 11 19 6 13 6 9.5S9.27 3 12.5 3 19 6 19 9.5z" color="#000" fill="#444" overflow="visible"/><path opacity=".5" color="#000" fill="none" overflow="visible" d="M0 0h24v24H0z"/></svg><svg width="24" height="24" viewBox="0 0 24 24" id="marker-stroked-24" x="153" y="153"><g color="#000"><path d="M12.5 3C9.27 3 6 6 6 9.5S11 19 12.5 21C14 19 19 13 19 9.5S15.73 3 12.5 3zm0 2C15.01 5 17 6.778 17 9.5s-3.333 6.945-4.5 8.5C11.333 16.445 8 12.222 8 9.5 8 6.778 9.99 5 12.5 5z" opacity=".3" fill="#fff" stroke="#fff" stroke-width="2" stroke-linejoin="round" overflow="visible"/><path d="M12.5 3C9.27 3 6 6 6 9.5S11 19 12.5 21C14 19 19 13 19 9.5S15.73 3 12.5 3zm0 2C15.01 5 17 6.778 17 9.5s-3.333 6.945-4.5 8.5C11.333 16.445 8 12.222 8 9.5 8 6.778 9.99 5 12.5 5z" fill="#444" overflow="visible"/></g><path opacity=".5" color="#000" fill="none" overflow="visible" d="M0 0h24v24H0z"/></svg><svg width="24" height="24" viewBox="0 0 24 24" id="minefield-24" x="183" y="153"><g color="#000"><path d="M11.5 4L9 11 3 7l2 6.5c.458 1.49 1 1.5 2 1.5h2v-1h5v1h2c1 0 1.506-.43 2-1.5L20 7l-6 4-2.5-7zM10 15v1c-2.216 0-4 .67-4 1.5S7.784 19 10 19h3c2.216 0 4-.67 4-1.5S15.216 16 13 16v-1h-3z" opacity=".3" fill="#fff" stroke="#fff" stroke-width="2" stroke-linecap="round" stroke-linejoin="round" overflow="visible"/><path d="M12.5 4L10 11 4 7l2 6.5c.458 1.49 1 1.5 2 1.5h2v-1h5v1h2c1 0 1.506-.43 2-1.5L21 7l-6 4-2.5-7zM11 15v1c-2.216 0-4 .67-4 1.5S8.784 19 11 19h3c2.216 0 4-.67 4-1.5S16.216 16 14 16v-1h-3z" fill="#444" overflow="visible"/><path opacity=".5" fill="none" overflow="visible" d="M0 0h24v24H0z"/></g></svg><svg width="24" height="24" viewBox="0 0 24 24" id="mobilephone-24" x="213" y="153"><path d="M7.875 1C7.387 1 7 1.387 7 1.875V3.03c-.56.06-1 .473-1 1v16.94c0 .568.504 1.03 1.125 1.03h9.75c.62 0 1.125-.462 1.125-1.03V4.03C18 3.463 17.496 3 16.875 3H9V1.875C9 1.387 8.613 1 8.125 1h-.25zM9 5h6c.532 0 1 .512 1 1v4c0 .488-.468 1-1 1H9c-.532 0-1-.512-1-1V6c0-.488.468-1 1-1z" fill="#fff" stroke="#fff" opacity=".3" color="#000" stroke-width="2" stroke-linejoin="round" overflow="visible"/><path d="M7.875 1C7.387 1 7 1.387 7 1.875V3.03c-.56.06-1 .473-1 1v16.94c0 .568.504 1.03 1.125 1.03h9.75c.62 0 1.125-.462 1.125-1.03V4.03C18 3.463 17.496 3 16.875 3H9V1.875C9 1.387 8.613 1 8.125 1h-.25zM9 5h6c.532 0 1 .512 1 1v3c0 .488-.468 1-1 1H9c-.532 0-1-.512-1-1V6c0-.488.468-1 1-1zm-1 7h2v2H8v-2zm3 .03h2V14h-2v-1.97zm3 0h2V14h-2v-1.97zM8 15h2v2H8v-2zm3 .03h2V17h-2v-1.97zm3 0h2V17h-2v-1.97zM8 18h2v2H8v-2zm3 .03h2V20h-2v-1.97zm3 0h2V20h-2v-1.97z" fill="#444"/></svg><svg width="24" height="24" viewBox="0 0 24 24" id="monument-24" x="243" y="153"><g color="#000"><path d="M12.5 2S9.91 4.004 10 5v11H8c-.554 0-1 .446-1 1v2H6c-.554 0-1 .446-1 1v1h15v-1c0-.554-.446-1-1-1h-1v-2c0-.554-.446-1-1-1h-2V5c0-1-2.5-3-2.5-3z" opacity=".3" fill="#fff" stroke="#fff" stroke-width="2" stroke-linecap="round" stroke-linejoin="round" overflow="visible"/><path d="M12.5 2S9.91 4.004 10 5v11H8c-.554 0-1 .446-1 1v2H6c-.554 0-1 .446-1 1v1h15v-1c0-.554-.446-1-1-1h-1v-2c0-.554-.446-1-1-1h-2V5c0-1-2.5-3-2.5-3z" fill="#444" overflow="visible"/><path opacity=".5" fill="none" overflow="visible" d="M0 0h24v24H0z"/></g></svg><svg width="24" height="24" viewBox="0 0 24 24" id="museum-24" x="273" y="153"><g color="#000"><path d="M12.5 3L6 8h13zM7 9c-.554 0-.922.452-1 1v7l-1.75 3c-.148.254-.25.357-.25.5 0 .5.632.5 1 .5h15c.355 0 1 0 1-.5 0-.146-.087-.22-.25-.5L19 17v-7c0-.554-.446-1-1-1z" opacity=".3" fill="#fff" stroke="#fff" stroke-width="2" stroke-linecap="round" stroke-linejoin="round" overflow="visible"/><path d="M12.5 3L6 8h13zM7 9c-.554 0-.922.452-1 1v7l-1.75 3c-.148.254-.25.357-.25.5 0 .5.632.5 1 .5h15c.355 0 1 0 1-.5 0-.146-.087-.22-.25-.5L19 17v-7c0-.554-.446-1-1-1zm2 2h1.5c.5 0 1 1 1 1l1 2.5 1-2.5c.223-.558.5-1 1-1H16c.554 0 1 .446 1 1v5c0 .5-.5 1-1 1s-1-.5-1-1v-4l-1.5 3s-.5 1-1 1-1-1-1-1L10 13v4c0 .5-.5 1-1 1s-1-.5-1-1v-5c0-.554.446-1 1-1z" fill="#444" overflow="visible"/><path opacity=".5" fill="none" overflow="visible" d="M0 0h24v24H0z"/></g></svg><svg width="24" height="24" viewBox="0 0 24 24" id="music-24" x="303" y="153"><path color="#000" fill="none" overflow="visible" d="M0 0h24v24H0z"/><path d="M10 4c-.5 0-1 .5-1 1v10H8c-1.657 0-3 1.343-3 3s1.343 3 3 3 3-1.343 3-3V9h7v6h-1c-1.657 0-3 1.343-3 3s1.343 3 3 3 3-1.343 3-3V5c0-.5-.5-1-1-1h-9z" opacity=".3" color="#000" fill="#fff" stroke="#fff" stroke-width="2" stroke-linecap="round" stroke-linejoin="round" overflow="visible"/><path d="M10 4c-.5 0-1 .5-1 1v10H8c-1.657 0-3 1.343-3 3s1.343 3 3 3 3-1.343 3-3V9h7v6h-1c-1.657 0-3 1.343-3 3s1.343 3 3 3 3-1.343 3-3V5c0-.5-.5-1-1-1h-9z" fill="#454545"/></svg><svg width="24" height="24" viewBox="0 0 24 24" id="oil-well-24" x="3" y="183"><g color="#000"><path d="M10.5 3c-.5 0-.846.5-1 1L4.156 19.97c-.038.112-.156.416-.156.53 0 .5.5.5 1 .5s.97 0 1.156-.5L7 18.25l5.5-2.75 5.5 2.75.844 2.25c.186.5.656.5 1.156.5.5 0 1 0 1-.5 0-.114-.118-.418-.156-.53L15.5 4c-.154-.5-.5-1-1-1zm4.5 7l.688 1.906L12.5 13.5l-3.188-1.594L10 10zm-6.313 3.594l1.813.906-2.625 1.313zm7.626 0l.812 2.22L14.5 14.5z" opacity=".3" fill="#fff" stroke="#fff" stroke-width="2" stroke-linecap="round" stroke-linejoin="round" overflow="visible"/><path d="M10.5 3c-.5 0-.846.5-1 1L4.156 19.97c-.038.112-.156.416-.156.53 0 .5.5.5 1 .5s.97 0 1.156-.5L7 18.25l5.5-2.75 5.5 2.75.844 2.25c.186.5.656.5 1.156.5.5 0 1 0 1-.5 0-.114-.118-.418-.156-.53L15.5 4c-.154-.5-.5-1-1-1zm4.5 7l.688 1.906L12.5 13.5l-3.188-1.594L10 10zm-6.313 3.594l1.813.906-2.625 1.313zm7.626 0l.812 2.22L14.5 14.5z" fill="#444" overflow="visible"/><path opacity=".5" fill="none" overflow="visible" d="M0 0h24v24H0z"/></g></svg><svg width="24" height="24" viewBox="0 0 24 24" id="park-24" x="33" y="183"><g color="#000"><path d="M12.5 3L7 8h3l-4 4h3l-3 4h5v4c0 .554.446 1 1 1h1c.554 0 1-.446 1-1v-4h5l-3-4h3l-4-4h3l-5.5-5z" opacity=".3" fill="none" stroke="#fff" stroke-width="2" stroke-linecap="round" stroke-linejoin="round" overflow="visible"/><path d="M12.5 3L7 8h3l-4 4h3l-3 4h5v4c0 .554.446 1 1 1h1c.554 0 1-.446 1-1v-4h5l-3-4h3l-1-1-3-3h3z" fill="#444" overflow="visible"/></g><path opacity=".5" color="#000" fill="none" overflow="visible" d="M0 0h24v24H0z"/></svg><svg width="24" height="24" viewBox="0 0 24 24" id="park2-24" x="63" y="183"><g color="#000"><path d="M19 11.5c0-1.07-.68-1.987-1.625-2.344C17.77 8.714 18 8.14 18 7.5 18 6.12 16.88 5 15.5 5c-.197 0-.38.02-.563.062C14.727 3.892 13.73 3 12.5 3c-1.23 0-2.228.893-2.438 2.063C9.88 5.02 9.697 5 9.5 5 8.12 5 7 6.12 7 7.5c0 .64.23 1.215.625 1.657C6.68 9.514 6 10.43 6 11.5 6 12.88 7 14 8.5 14H9l2 3.5V21h3v-3.5l2-3.5.72-.014C18 14 19 12.806 19 11.5zM11 14h3l-1 2h-1z" opacity=".3" fill="#fff" stroke="#fff" stroke-width="2" overflow="visible"/><path d="M19 11.5c0-1.07-.68-1.987-1.625-2.344C17.77 8.714 18 8.14 18 7.5 18 6.12 16.88 5 15.5 5c-.197 0-.38.02-.563.062C14.727 3.892 13.73 3 12.5 3c-1.23 0-2.228.893-2.438 2.063C9.88 5.02 9.697 5 9.5 5 8.12 5 7 6.12 7 7.5c0 .64.23 1.215.625 1.657C6.68 9.514 6 10.43 6 11.5 6 12.88 7 14 8.5 14H9l2 3.5V21h3v-3.5l2-3.5.72-.014C18 14 19 12.806 19 11.5zM11 14h3l-1 2h-1z" fill="#444" overflow="visible"/><path opacity=".5" fill="none" overflow="visible" d="M0 0h24v24H0z"/></g></svg><svg width="24" height="24" viewBox="0 0 24 24" id="parking-24" x="93" y="183"><path opacity=".5" color="#000" fill="none" overflow="visible" d="M0 0h24v24H0z"/><g style="text-indent:0;text-align:center;line-height:125%;text-transform:none;block-progression:tb;-inkscape-font-specification:Open Sans Bold" font-size="12" font-weight="bold" text-anchor="middle" color="#000" fill="#444" stroke-width="2" overflow="visible" font-family="Open Sans"><path d="M11.825 11.28h.797c.744 0 1.302-.147 1.67-.44.37-.295.556-.725.556-1.287 0-.568-.156-.987-.47-1.258-.306-.27-.79-.406-1.452-.406h-1.1v3.39m5.467-1.813c0 1.228-.386 2.168-1.156 2.82-.766.65-1.857.976-3.273.976h-1.04v4.06h-2.42V5.906h3.647c1.386 0 2.438.3 3.157.898.724.594 1.086 1.482 1.086 2.664" opacity=".3" fill="#fff" stroke="#fff" stroke-width="1.9994999999999998" stroke-linejoin="round" overflow="visible"/><path d="M11.825 11.28h.797c.744 0 1.302-.147 1.67-.44.37-.295.556-.725.556-1.287 0-.568-.156-.987-.47-1.258-.306-.27-.79-.406-1.452-.406h-1.1v3.39m5.467-1.813c0 1.228-.386 2.168-1.156 2.82-.766.65-1.857.976-3.273.976h-1.04v4.06h-2.42V5.906h3.647c1.386 0 2.438.3 3.157.898.724.594 1.086 1.482 1.086 2.664"/></g></svg><svg width="24" height="24" viewBox="0 0 24 24" id="parking-garage-24" x="123" y="183"><g color="#000"><g font-size="25.21" font-weight="bold" letter-spacing="0" word-spacing="0" font-family="Helvetica Neue"><path d="M12.5 4L6 6v2l6.5-2L19 8V6l-6.5-2zM9.406 8.25v11.406h2.406v-4.062h1.063c1.417 0 2.516-.318 3.28-.97.772-.65 1.126-1.582 1.126-2.81 0-1.184-.337-2.064-1.06-2.658-.72-.598-1.772-.906-3.157-.906H9.405zm2.406 1.97h1.126c.66 0 1.13.134 1.437.405.313.27.47.714.47 1.28 0 .564-.194.986-.564 1.283-.37.29-.91.437-1.655.437h-.813V10.22z" style="text-indent:0;text-align:start;line-height:125%;text-transform:none;block-progression:tb;-inkscape-font-specification:Helvetica Neue Bold" opacity=".3" fill="#fff" stroke="#fff" stroke-width="2" stroke-linejoin="round" overflow="visible"/><path style="text-indent:0;text-align:start;line-height:125%;text-transform:none;block-progression:tb;-inkscape-font-specification:Helvetica Neue Bold" d="M12.5 4L6 6v2l6.5-2L19 8V6l-6.5-2zM9.406 8.25v11.406h2.406v-4.062h1.063c1.417 0 2.516-.318 3.28-.97.772-.65 1.126-1.582 1.126-2.81 0-1.184-.337-2.064-1.06-2.658-.72-.598-1.772-.906-3.157-.906H9.405zm2.406 1.97h1.126c.66 0 1.13.134 1.437.405.313.27.47.714.47 1.28 0 .564-.194.986-.564 1.283-.37.29-.91.437-1.655.437h-.813V10.22z" fill="#444" overflow="visible"/></g><path opacity=".5" fill="none" overflow="visible" d="M0 0h24v24H0z"/></g></svg><svg width="24" height="24" viewBox="0 0 24 24" id="pharmacy-24" x="153" y="183"><g color="#000"><path d="M12.5 2C9.462 2 7 3.12 7 4.5v3C7 8.88 9.462 10 12.5 10S18 8.88 18 7.5v-3C18 3.12 15.538 2 12.5 2zM7 11v7.5c0 1.38 2.462 2.5 5.5 2.5s5.5-1.12 5.5-2.5V11c0-1-.5-1-1-.5-.84.894-2.228 1.5-4.5 1.5-2.227 0-3.635-.635-4.5-1.5-.5-.5-1-.5-1 .5z" opacity=".3" fill="#fff" stroke="#fff" stroke-width="2" stroke-linecap="round" stroke-linejoin="round" overflow="visible"/><path d="M12.5 2C9.462 2 7 3.12 7 4.5v3C7 8.88 9.462 10 12.5 10S18 8.88 18 7.5v-3C18 3.12 15.538 2 12.5 2zM7 11v7.5c0 1.38 2.462 2.5 5.5 2.5s5.5-1.12 5.5-2.5V11c0-1-.5-1-1-.5-.84.894-2.228 1.5-4.5 1.5-2.227 0-3.635-.635-4.5-1.5-.5-.5-1-.5-1 .5zm3 3c.752.176 1.597.28 2.5.28s1.748-.104 2.5-.28v4c-.752.176-1.597.28-2.5.28s-1.748-.104-2.5-.28z" fill="#444" overflow="visible"/><path opacity=".5" fill="none" overflow="visible" d="M0 0h24v24H0z"/></g></svg><svg width="24" height="24" viewBox="0 0 24 24" id="pitch-24" x="183" y="183"><g color="#000"><path d="M12 2c-1.105 0-2 .896-2 2 0 1.105.895 2 2 2s2-.895 2-2c0-1.104-.895-2-2-2zM6.25 6l.5 2C7 9 7.597 9 8.344 9H10c.594 1 .315 2.472.5 4h-.906C8.594 13 7 14 8 16l1.5 3c1 2 2.5.5 2-.5l-1.5-3c-.25-.5.264-.5.5-.5h2.468s1.184 2.628 2.578 4.43c.515.663 1.085 1.57 1.8 1.57.5 0 1.355-.773.443-1.86C16.08 17.1 15 15 15 14c0-1.163-.204-3.613-.5-5H16l1.25 2.5c.553.958 1.75.885 1.75 0 0-.12 0-.39-.14-.677L17.25 7.5c-.103-.212-.253-.5-1-.5H8.5l-.75-2.5c-.3-1-1.75-1-1.75 0 0 .5.177 1.107.25 1.5z" opacity=".3" fill="none" stroke="#fff" stroke-width="2" stroke-linejoin="round" overflow="visible"/><path d="M12 2c-1.105 0-2 .896-2 2 0 1.105.895 2 2 2s2-.895 2-2c0-1.104-.895-2-2-2zM6.25 6l.5 2C7 9 7.597 9 8.344 9H10c.594 1 .315 2.472.5 4h-.906C8.594 13 7 14 8 16l1.5 3c1 2 2.5.5 2-.5l-1.5-3c-.25-.5.264-.5.5-.5h2.468s1.184 2.628 2.578 4.43c.515.663 1.085 1.57 1.8 1.57.5 0 1.355-.773.443-1.86C16.08 17.1 15 15 15 14c0-1.163-.204-3.613-.5-5H16l1.25 2.5c.553.958 1.75.885 1.75 0 0-.12 0-.39-.14-.677L17.25 7.5c-.103-.212-.253-.5-1-.5H8.5l-.75-2.5c-.3-1-1.75-1-1.75 0 0 .5.177 1.107.25 1.5z" fill="#444" overflow="visible"/><path opacity=".5" fill="none" overflow="visible" d="M0 0h24v24H0z"/></g></svg><svg width="24" height="24" viewBox="0 0 24 24" id="place-of-worship-24" x="213" y="183"><path d="M12.5 4S10 5 10 6v2c0 1-2 1-2 2v9h9v-9c0-1-2-1-2-2.187V6c0-1-2.5-2-2.5-2zM4 12v7h2v-7c0-1-1-1-1-1s-1 0-1 1zm15 0v7h2v-7c0-1-1-1-1-1s-1 0-1 1z" opacity=".3" color="#000" fill="#fff" stroke="#fff" stroke-width="2" stroke-linejoin="round" overflow="visible"/><path opacity=".5" color="#000" fill="none" overflow="visible" d="M0 0h24v24H0z"/><path d="M12.5 4S10 5 10 6v2c0 1-2 1-2 2v9h9v-9c0-1-2-1-2-2.187V6c0-1-2.5-2-2.5-2zM4 12v7h2v-7c0-1-1-1-1-1s-1 0-1 1zm15 0v7h2v-7c0-1-1-1-1-1s-1 0-1 1z" color="#000" fill="#444" overflow="visible"/></svg><svg width="24" height="24" viewBox="0 0 24 24" id="playground-24" x="243" y="183"><g color="#000"><path d="M14.5 2c-.83 0-1.5.67-1.5 1.5S13.67 5 14.5 5 16 4.33 16 3.5 15.33 2 14.5 2zm-6 3C7.67 5 7 5.67 7 6.5S7.67 8 8.5 8 10 7.33 10 6.5 9.33 5 8.5 5zm7.375.47c-.174.054-.29.29-.375.53l-1.97 5.688-3.217 1-2.407-3.813c-.35-.566-.72-.458-.875.03l-1.968 5.44L3 15l.563 1.813 4.656-1.47-2.033 2.376c-.308.297-.206.81 0 1.03.27.288.757.407 1.125 0 0 0 4.047-4.64 3.688-4.25.01-.01-.006-.02 0-.03l1.5-.47-2.5 6h6l-2.438-6.344 1.47-.47 3.812 2.69c.375.253 1.02.123 1.156-.407.133-.518-.152-.75-.47-.97l-2.686-1.875L22 11l-.563-1.813-2.062.657c-.708-1.22-2.407-3.356-2.813-3.875-.284-.437-.513-.557-.687-.5z" fill="none" stroke="#fff" stroke-width="2" overflow="visible" opacity=".3"/><path d="M14.5 2c-.83 0-1.5.67-1.5 1.5S13.67 5 14.5 5 16 4.33 16 3.5 15.33 2 14.5 2zm-6 3C7.67 5 7 5.67 7 6.5S7.67 8 8.5 8 10 7.33 10 6.5 9.33 5 8.5 5zm7.375.47c-.174.054-.29.29-.375.53l-1.97 5.688-3.217 1-2.407-3.813c-.35-.566-.72-.458-.875.03l-1.968 5.44L3 15l.563 1.813 4.656-1.47-2.033 2.376c-.308.297-.206.81 0 1.03.27.288.757.407 1.125 0 0 0 4.047-4.64 3.688-4.25.01-.01-.006-.02 0-.03l1.5-.47-2.5 6h6l-2.438-6.344 1.47-.47 3.812 2.69c.375.253 1.02.123 1.156-.407.133-.518-.152-.75-.47-.97l-2.686-1.875L22 11l-.563-1.813-2.062.657c-.708-1.22-2.407-3.356-2.813-3.875-.284-.437-.513-.557-.687-.5z" fill="#444" overflow="visible"/></g></svg><svg width="24" height="24" viewBox="0 0 24 24" id="police-24" x="273" y="183"><g color="#000"><path d="M10 3L9 4v1h7V4l-1-1zM9 6v.5c0 1.933 1.567 3.5 3.5 3.5S16 8.433 16 6.5V6zm1.188 15H19v-6c0-1.5-.5-4-2-4H8c-1.5 0-2 2.5-2 4v6h2.688z" opacity=".3" fill="#fff" stroke="#fff" stroke-width="2" stroke-linecap="round" stroke-linejoin="round" overflow="visible"/><path d="M10 3L9 4v1h7V4l-1-1h-5zM9 6v.5c0 1.933 1.567 3.5 3.5 3.5S16 8.433 16 6.5V6H9zm-1 5c-1.5 0-2 2.5-2 4v6h2.688L15.5 11H8zm9 0l-6.813 10H19v-6c0-1.5-.5-4-2-4z" fill="#444" overflow="visible"/><path opacity=".5" fill="none" overflow="visible" d="M0 0h24v24H0z"/></g></svg><svg width="24" height="24" viewBox="0 0 24 24" id="polling-place-24" x="303" y="183"><g color="#000"><path style="text-indent:0;text-align:start;line-height:normal;text-transform:none;block-progression:tb;-inkscape-font-specification:Sans" d="M20.438 2c-.767.04-1.402.428-1.813.938h-.03L16 6V4a.993.993 0 0 0-1-1H6c-1.087 0-2 .913-2 2v13c0 1.087.913 2 2 2h13c1.087 0 2-.913 2-2v-6a.993.993 0 0 0-1-1h-1.594l4.063-4.906a1 1 0 0 0 .03-.032c.29-.406.412-.854.47-1.312.055-.458.068-.958-.22-1.47-.487-.863-1.39-1.33-2.313-1.28zm-5.25 4.97l-2.22 2.624-1.062-1.25C10.972 7.25 9.36 7.15 8.28 8.094c-.11.096-.195.233-.28.344V7h7a.993.993 0 0 0 .188-.03zM8 11.437c.05.074.097.15.156.218l3 3.53c.382.437.888.713 1.406.814H8v-4.563zm9 1.25V16h-3.406c.516-.12 1.005-.43 1.375-.875L17 12.687z" opacity=".3" fill="#fff" overflow="visible" font-family="Sans"/><path d="M6 4c-.554 0-1 .446-1 1v13c0 .554.446 1 1 1h13c.554 0 1-.446 1-1v-6h-2v5H7V6h8V4H6z" fill="#444" overflow="visible"/><path style="text-indent:0;text-align:start;line-height:normal;text-transform:none;block-progression:tb;-inkscape-font-specification:Sans" d="M19.375 3.56L13 11.185l-1.844-2.157c-.537-.628-1.61-.705-2.233-.16-.623.545-.494 1.566-.017 2.13l2.99 3.533c.57.65 1.728.634 2.28-.03l7.512-9.033c.312-.44.434-1.246.187-1.683-.294-.523-.86-.81-1.375-.784-.5.026-.883.252-1.125.56z" fill="#444" overflow="visible" font-family="Sans"/></g></svg><svg width="24" height="24" viewBox="0 0 24 24" id="post-24" x="3" y="213"><g color="#000"><path d="M4.906 6C4.506 6 4 6.5 4 7v9c0 .5.506 1 .906 1h15.188c.4 0 .906-.5.906-1V7c0-.5-.506-1-.906-1z" opacity=".3" fill="#fff" stroke="#fff" stroke-width="2" stroke-linejoin="round" overflow="visible"/><path d="M5 6c-1 0-.5.34 0 .75l7 5.75 8-5.75c.5-.41 1-.75 0-.75h-8zM4 7.5V16c0 .5.506 1 .906 1h15.188c.4 0 .906-.5.906-1V7.5L12 14z" fill="#444" overflow="visible"/><path opacity=".5" fill="none" overflow="visible" d="M0 0h24v24H0z"/></g></svg><svg width="24" height="24" viewBox="0 0 24 24" id="prison-24" x="33" y="213"><g color="#000"><path d="M5 4c-.554 0-1 .446-1 1v13c0 .554.446 1 1 1s1-.446 1-1v-2h3v2c0 .554.446 1 1 1s1-.446 1-1v-2h3v2c0 .554.446 1 1 1s1-.446 1-1v-2h3v2c0 .554.446 1 1 1s1-.446 1-1V5c0-.554-.446-1-1-1s-1 .446-1 1v2h-3V5c0-.554-.446-1-1-1s-1 .446-1 1v2h-3V5c0-.554-.446-1-1-1s-1 .446-1 1v2H6V5c0-.554-.446-1-1-1zm1 5h3v5H6zm5 0h3v5h-3zm5 0h3v5h-3z" opacity=".3" fill="none" stroke="#fff" stroke-width="2" stroke-linecap="round" stroke-linejoin="round" overflow="visible"/><path d="M5 4c-.554 0-1 .446-1 1v13c0 .554.446 1 1 1s1-.446 1-1v-2h3v2c0 .554.446 1 1 1s1-.446 1-1v-2h3v2c0 .554.446 1 1 1s1-.446 1-1v-2h3v2c0 .554.446 1 1 1s1-.446 1-1V5c0-.554-.446-1-1-1s-1 .446-1 1v2h-3V5c0-.554-.446-1-1-1s-1 .446-1 1v2h-3V5c0-.554-.446-1-1-1s-1 .446-1 1v2H6V5c0-.554-.446-1-1-1zm1 5h3v5H6zm5 0h3v5h-3zm5 0h3v5h-3z" fill="#444" overflow="visible"/><path opacity=".5" fill="none" overflow="visible" d="M0 0h24v24H0z"/></g></svg><svg width="24" height="24" viewBox="0 0 24 24" id="rail-24" x="63" y="213"><path style="text-indent:0;text-align:start;line-height:normal;text-transform:none;block-progression:tb;-inkscape-font-specification:Sans" d="M8.906 1c-.232.017-.458.118-.625.28l-4 4c-.182.19-.286.456-.28.72v10c0 1.09.91 2 2 2h.563L4.28 20.28c-.573.557-.08 1.74.72 1.72h4c.336 0 .665-.184.844-.47l2-3c.104-.165.142-.34.125-.53h1.06c-.01.19.02.368.126.53l2 3c.18.286.508.47.844.47h4c.8.02 1.293-1.163.72-1.72L18.437 18H19c1.09 0 2-.91 2-2V6c.006-.264-.098-.53-.28-.72l-4-4C16.53 1.1 16.263.995 16 1H8.906zM8 8h9v2H8V8z" color="#000" fill="#fff" overflow="visible" font-family="Sans" opacity=".3"/><path d="M9 2L5 6v10c0 .554.446 1 1 1h13c.554 0 1-.446 1-1V6l-4-4H9zm1 2h5v2h-5V4zM7 7h11v4H7V7zm1 6c.552 0 1 .448 1 1s-.448 1-1 1-1-.448-1-1 .448-1 1-1zm9 0c.552 0 1 .448 1 1s-.448 1-1 1-1-.448-1-1 .448-1 1-1z" fill="#444"/></svg><svg width="24" height="24" viewBox="0 0 24 24" id="rail-above-24" x="93" y="213"><g color="#000"><path d="M9 2L6 4v11c0 .5.5 1 1 1h11c.5 0 1-.5 1-1V4l-3-2zm3.5 15L7 20h11z" opacity=".3" fill="#fff" stroke="#fff" stroke-width="2" stroke-linejoin="round" overflow="visible"/><path d="M9 2L6 4v11c0 .5.5 1 1 1h11c.5 0 1-.5 1-1V4l-3-2zm1 2h5l2 1v3H8V5zm-1 8c.554 0 1 .446 1 1s-.446 1-1 1-1-.446-1-1 .446-1 1-1zm7 0c.554 0 1 .446 1 1s-.446 1-1 1-1-.446-1-1 .446-1 1-1zm-3.5 5L7 20h11z" fill="#444" overflow="visible"/><path opacity=".5" fill="none" overflow="visible" d="M0 0h24v24H0z"/></g></svg><svg width="24" height="24" viewBox="0 0 24 24" id="rail-light-24" x="123" y="213"><path style="text-indent:0;text-align:start;line-height:normal;text-transform:none;block-progression:tb;-inkscape-font-specification:Sans" d="M12.5 1C8.41 1 5 4.1 5 8v8c0 1.09.91 2 2 2h.563L5.28 20.28c-.573.557-.08 1.74.72 1.72h4c.336 0 .665-.184.844-.47l1.656-2.468 1.656 2.47c.18.284.508.467.844.468h4c.8.02 1.293-1.163.72-1.72L17.437 18H18c1.09 0 2-.91 2-2V8c0-3.9-3.41-7-7.5-7zM11 5.53V9H9V8c0-1.122.862-1.967 2-2.47zm3 0c1.138.503 2 1.348 2 2.47v1h-2V5.53z" color="#000" fill="#fff" overflow="visible" font-family="Sans" opacity=".3"/><path d="M12.5 2C8.91 2 6 4.686 6 8v8c0 .554.446 1 1 1h11c.554 0 1-.446 1-1V8c0-3.314-2.91-6-6.5-6zM12 4.063V10H8V8c0-2.056 1.754-3.713 4-3.938zm1 0c2.246.224 4 1.88 4 3.937v2h-4V4.062zM9 13c.552 0 1 .448 1 1s-.448 1-1 1-1-.448-1-1 .448-1 1-1zm7 0c.552 0 1 .448 1 1s-.448 1-1 1-1-.448-1-1 .448-1 1-1z" fill="#444"/></svg><svg width="24" height="24" viewBox="0 0 24 24" id="rail-metro-24" x="153" y="213"><path style="text-indent:0;text-align:start;line-height:normal;text-transform:none;block-progression:tb;-inkscape-font-specification:Sans" d="M9.813 1A1 1 0 0 0 9 2C7.355 2 6 3.355 6 5v10c0 1.224.75 2.286 1.813 2.75L5.28 20.28c-.573.557-.08 1.74.72 1.72h4c.336 0 .665-.184.844-.47l1.656-2.468 1.656 2.47c.18.284.508.467.844.468h4c.8.02 1.293-1.163.72-1.72l-2.532-2.53C18.247 17.286 19 16.224 19 15V5c0-1.645-1.355-3-3-3a1 1 0 0 0-1-1h-5a1 1 0 0 0-.094 0 1 1 0 0 0-.094 0zM11 3h3a1 1 0 0 0 .813 1h-4.626A1 1 0 0 0 11 3zM9 4h1c-1.09 0-2 .91-2 2V5c0-.57.43-1 1-1zm6 0h1c.57 0 1 .43 1 1v1c0-1.09-.91-2-2-2zm-5 2h5v2h-5V6zM8 9.188A1 1 0 0 0 9 10h7a1 1 0 0 0 1-.813V15c0 .57-.43 1-1 1H9c-.57 0-1-.43-1-1V9.187zM8 14c0 1.093.907 2 2 2s2-.907 2-2-.907-2-2-2-2 .907-2 2zm7 2c1.093 0 2-.907 2-2s-.907-2-2-2-2 .907-2 2 .907 2 2 2z" color="#000" fill="#fff" overflow="visible" font-family="Sans" opacity=".3"/><path d="M10 2v1H9c-1.108 0-2 .892-2 2v10c0 1.108.892 2 2 2h7c1.108 0 2-.892 2-2V5c0-1.108-.892-2-2-2h-1V2h-5zm0 3h5c.554 0 1 .446 1 1v3H9V6c0-.554.446-1 1-1zm0 8c.552 0 1 .448 1 1s-.448 1-1 1-1-.448-1-1 .448-1 1-1zm5 0c.552 0 1 .448 1 1s-.448 1-1 1-1-.448-1-1 .448-1 1-1z" fill="#444"/></svg><svg width="24" height="24" viewBox="0 0 24 24" id="rail-underground-24" x="183" y="213"><g color="#000"><path d="M7 2l5.5 3L18 2zm2 4L6 8v11c0 .5.5 1 1 1h11c.5 0 1-.5 1-1V8l-3-2z" opacity=".3" fill="#fff" stroke="#fff" stroke-width="2" stroke-linejoin="round" overflow="visible"/><path d="M7 2l5.5 3L18 2zm2 4L6 8v11c0 .5.5 1 1 1h11c.5 0 1-.5 1-1V8l-3-2zm1 2h5l2 1v3H8V9zm-1 8c.554 0 1 .446 1 1s-.446 1-1 1-1-.446-1-1 .446-1 1-1zm7 0c.554 0 1 .446 1 1s-.446 1-1 1-1-.446-1-1 .446-1 1-1z" fill="#444" overflow="visible"/><path opacity=".5" fill="none" overflow="visible" d="M0 0h24v24H0z"/></g></svg><svg width="24" height="24" viewBox="0 0 24 24" id="religious-christian-24" x="213" y="213"><g color="#000"><path d="M12.5 3c-.83 0-1.5.67-1.5 1.5V8H6v3h5v10h3V11h5V8h-5V4.5c0-.83-.67-1.5-1.5-1.5z" opacity=".3" fill="none" stroke="#fff" stroke-width="2" stroke-linecap="round" stroke-linejoin="round" overflow="visible"/><path d="M12.5 3c-.83 0-1.5.67-1.5 1.5V8H6v3h5v10h3V11h5V8h-5V4.5c0-.83-.67-1.5-1.5-1.5z" fill="#444" overflow="visible"/><path opacity=".5" fill="none" overflow="visible" d="M0 0h24v24H0z"/></g></svg><svg width="24" height="24" viewBox="0 0 24 24" id="religious-jewish-24" x="243" y="213"><path opacity=".5" color="#000" fill="none" overflow="visible" d="M0 0h24v24H0z"/></svg><svg width="24" height="24" viewBox="0 0 24 24" id="religious-muslim-24" x="273" y="213"><g color="#000"><path d="M12.5 3C7.806 3 4 6.806 4 11.5c0 4.695 3.806 8.5 8.5 8.5 2.625 0 4.972-1.193 6.53-3.062C18.013 17.6 16.807 18 15.5 18 11.91 18 9 15.09 9 11.5S11.91 5 15.5 5c1.306 0 2.512.4 3.53 1.063C17.473 4.193 15.126 3 12.5 3zm5 4l-1 3H13l3 2-1.5 3.5 3-2 3 2L19 12l3-2h-3.5l-1-3z" opacity=".3" fill="#fff" stroke="#fff" stroke-width="2" stroke-linejoin="round" overflow="visible"/><path d="M12.5 3C7.806 3 4 6.806 4 11.5c0 4.695 3.806 8.5 8.5 8.5 2.625 0 4.972-1.193 6.53-3.062C18.013 17.6 16.807 18 15.5 18 11.91 18 9 15.09 9 11.5S11.91 5 15.5 5c1.306 0 2.512.4 3.53 1.063C17.473 4.193 15.126 3 12.5 3zm5 4l-1 3H13l3 2-1.5 3.5 3-2 3 2L19 12l3-2h-3.5l-1-3z" fill="#444" overflow="visible"/><path opacity=".5" fill="none" overflow="visible" d="M0 0h24v24H0z"/></g></svg><svg width="24" height="24" viewBox="0 0 24 24" id="restaurant-24" x="303" y="213"><g color="#000"><path d="M7.5 2c-.5 0-.5.5-.5.5v6c0 .505.5 1 1 1.5s.526 1.006.5 1.5V13L8 19.5c-.038.498.5 1.5 1.5 1.5s1.538-1 1.5-1.5l-.5-6.5v-1.5c0-.48 0-1 .5-1.5.46-.46 1-.98 1-1.5v-6s0-.5-.5-.5-.5.5-.5.5V7s0 .5-.5.5S10 7 10 7V2.5s0-.5-.5-.5-.5.5-.5.5V7s0 .5-.5.5S8 7 8 7V2.5S8 2 7.5 2zM18 2c-1 0-2.868.235-3.5 1.5C14 4.5 14 7 14 8v5c0 .5.5 1 1 1h1v6c0 .5.5 1 1 1s1-.5 1-1z" opacity=".3" fill="#fff" stroke="#fff" stroke-width="2" stroke-linejoin="round" overflow="visible"/><path d="M7.5 2c-.5 0-.5.5-.5.5v6c0 .5.5 1 1 1.5s.5 1 .5 1.5V13c0 .5-.5 6.5-.5 6.5-.038.498.5 1.5 1.5 1.5s1.538-1 1.5-1.5c0 0-.5-6-.5-6.5v-1.5c0-.5 0-1 .5-1.5.46-.46 1-1 1-1.5v-6s0-.5-.5-.5-.5.5-.5.5V7s0 .5-.5.5S10 7 10 7V2.5s0-.5-.5-.5-.5.5-.5.5V7s0 .5-.5.5S8 7 8 7V2.5S8 2 7.5 2zM18 2c-1 0-2.868.235-3.5 1.5C14 4.5 14 7 14 8v5c0 .5.5 1 1 1h1v6c0 .5.5 1 1 1s1-.5 1-1z" fill="#444" overflow="visible"/><path opacity=".5" fill="none" overflow="visible" d="M0 0h24v24H0z"/></g></svg><svg width="24" height="24" viewBox="0 0 24 24" id="roadblock-24" x="3" y="243"><g color="#000"><path d="M12.5 2C7.806 2 4 5.806 4 10.5c0 4.695 3.806 8.5 8.5 8.5s8.5-3.805 8.5-8.5C21 5.806 17.194 2 12.5 2z" opacity=".3" fill="#fff" stroke="#fff" stroke-width="2" stroke-linejoin="round" overflow="visible"/><path d="M12.5 2C7.806 2 4 5.806 4 10.5c0 4.695 3.806 8.5 8.5 8.5s8.5-3.805 8.5-8.5C21 5.806 17.194 2 12.5 2zM7 9h11v3H7V9z" fill="#444" overflow="visible"/><path opacity=".5" fill="none" overflow="visible" d="M0 0h24v24H0z"/></g></svg><svg width="24" height="24" viewBox="0 0 24 24" id="rocket-24" x="33" y="243"><path d="M21 4h-1c-2 0-4.625.625-7.5 3.5C9.5 10.5 8 14 8 14c0 1 2 3 3 3 0 0 3.25-1.25 6.25-4.25C20.464 9.536 21 7 21 5zm-5.5 4c.828 0 1.5.672 1.5 1.5s-.672 1.5-1.5 1.5-1.5-.672-1.5-1.5.672-1.5 1.5-1.5zM6 10l-1 3h2.5l1.75-3zm9 5.75l-3 1.75V20l3-1z" fill="none" stroke="#fff" opacity=".3" color="#000" stroke-width="2" stroke-linecap="round" stroke-linejoin="round" overflow="visible"/><path d="M21 4h-1c-2 0-4.625.625-7.5 3.5C9.5 10.5 8 14 8 14c0 1 2 3 3 3 0 0 3.25-1.25 6.25-4.25C20.464 9.536 21 7 21 5zm-5.5 4c.828 0 1.5.672 1.5 1.5s-.672 1.5-1.5 1.5-1.5-.672-1.5-1.5.672-1.5 1.5-1.5zM6 10l-1 3h2.5l1.75-3zm9 5.75l-3 1.75V20l3-1z" fill="#444"/></svg><svg width="24" height="24" viewBox="0 0 24 24" id="school-24" x="63" y="243"><path d="M14.75 3C13.78 3 13 3.78 13 4.75s.78 1.75 1.75 1.75 1.75-.78 1.75-1.75S15.72 3 14.75 3zm-8 2C5.78 5 5 5.78 5 6.75S5.78 8.5 6.75 8.5 8.5 7.72 8.5 6.75 7.72 5 6.75 5zM16 7c-.373 0-.986.135-1.5.5l-3.25 2.313c-.882.627-.073 1.73.75 1.187l2.125-1.406s1.4 3.004.875 4.406c-.018.047-.033.09-.03.125l-2.19 5.813c-.25.67.233 1.07.72 1.062.32 0 .625-.193.78-.562L17 14s.5 3 2.5 3h2.75c.75 0 .75-.75.75-.75s0-.75-.75-.75H20c-1.067 0-1-1.602-1-2.5 0-1.5-1-4-1-4l3 2c.906.604 1.692-.466.813-1.125L18.5 7.5c-.604-.43-.797-.5-1.5-.5h-1zM5.5 9c-.5 0-.736.237-1 .5l-2.125 2.125C2.1 11.9 2 12.145 2 12.5c0 .5.764.736 1.188.313L5 11c1 0 1.375 2.5 1 3.5l-1.5 4c-.415 1.108 1.144 1.45 1.5.5l1.5-4S8 16 9 16h3c1 0 1-1.5 0-1.5H9.5c-.5 0-.5-1-.5-1.5 0-2-1-4-2-4z" opacity=".3" color="#000" fill="none" stroke="#fff" stroke-width="2" stroke-linecap="round" stroke-linejoin="round" overflow="visible"/><path d="M14.75 3C13.78 3 13 3.78 13 4.75s.78 1.75 1.75 1.75 1.75-.78 1.75-1.75S15.72 3 14.75 3zm-8 2C5.78 5 5 5.78 5 6.75S5.78 8.5 6.75 8.5 8.5 7.72 8.5 6.75 7.72 5 6.75 5zM16 7c-.373 0-.986.135-1.5.5l-3.25 2.313c-.882.627-.073 1.73.75 1.187l2.125-1.406s1.4 3.004.875 4.406c-.018.047-.033.09-.03.125l-2.19 5.813c-.25.67.233 1.07.72 1.062.32-.004.625-.193.78-.563L17 14s.5 3 2.5 3h2.75c.75 0 .75-.75.75-.75s0-.75-.75-.75H20c-1.067 0-1-1.603-1-2.5 0-1.5-1-4-1-4l3 2c.906.604 1.692-.466.813-1.125L18.5 7.5c-.604-.43-.797-.5-1.5-.5h-1zM5.5 9c-.5 0-.736.236-1 .5l-2.125 2.125C2.1 11.9 2 12.145 2 12.5c0 .5.764.736 1.188.313L5 11c1 0 1.375 2.5 1 3.5l-1.5 4c-.415 1.108 1.144 1.45 1.5.5l1.5-4S8 16 9 16h3c1 0 1-1.5 0-1.5H9.5c-.5 0-.5-1-.5-1.5 0-2-1-4-2-4z" color="#000" fill="#444" overflow="visible"/><path opacity=".5" color="#000" fill="none" overflow="visible" d="M0 0h24v24H0z"/></svg><svg width="24" height="24" viewBox="0 0 24 24" id="scooter-24" x="93" y="243"><g color="#000"><path d="M16 4s-.5 0-.5.5.5.5.5.5h1.5l.72 2.813-3.47 4.937C14.065 13.486 13.736 14 13 14h-2V9h1c.554 0 1-.446 1-1s-.446-1-1-1H5c-.554 0-1 .446-1 1s.446 1 1 1h.5c.277 0 .5.223.5.5s-.223.5-.5.5H5c-.5 0-1 .5-1 1v5h9c1.63 0 2.62-1.07 3.25-1.75.717-.77 1.146-1.25 1.75-1.25h4v-.5c0-.5-.813-1-1-1.5l-1-4c.554 0 1-.446 1-1V5c0-.554-.446-1-1-1zm3.5 10c-1.38 0-2.5 1.12-2.5 2.5s1.12 2.5 2.5 2.5 2.5-1.12 2.5-2.5-1.12-2.5-2.5-2.5zM5.062 17c.234 1.14 1.23 2 2.438 2 1.208 0 2.204-.86 2.438-2z" fill="none" stroke="#fff" stroke-width="2" overflow="visible" opacity=".3"/><path d="M16 4s-.5 0-.5.5.5.5.5.5h1.5l.72 2.813-3.47 4.937C14.065 13.486 13.736 14 13 14h-2V9h1c.554 0 1-.446 1-1s-.446-1-1-1H5c-.554 0-1 .446-1 1s.446 1 1 1h.5c.277 0 .5.223.5.5s-.223.5-.5.5H5c-.5 0-1 .5-1 1v5h9c1.63 0 2.62-1.07 3.25-1.75.717-.77 1.146-1.25 1.75-1.25h4v-.5c0-.5-.813-1-1-1.5l-1-4c.554 0 1-.446 1-1V5c0-.554-.446-1-1-1zm3.5 10c-1.38 0-2.5 1.12-2.5 2.5s1.12 2.5 2.5 2.5 2.5-1.12 2.5-2.5-1.12-2.5-2.5-2.5zM5.062 17c.234 1.14 1.23 2 2.438 2 1.208 0 2.204-.86 2.438-2z" fill="#444" overflow="visible"/></g></svg><svg width="24" height="24" viewBox="0 0 24 24" id="shop-24" x="123" y="243"><g color="#000"><path d="M11 3c-1 0-1.886 1.007-2 2l-.344 3H7c-.5 0-1 .5-1 1L5 19c0 .5.5 1 1 1h13c.5 0 1-.5 1-1L19 9c0-.5-.5-1-1-1h-1.656L16 5c-.114-.993-1-2-2-2zm0 1h3c.5 0 .943.503 1 1l.344 3H9.656L10 5c.057-.497.5-1 1-1z" opacity=".3" fill="none" stroke="#fff" stroke-width="2" stroke-linejoin="round" overflow="visible"/><path d="M11 3c-1 0-1.886 1.007-2 2l-.344 3H7c-.5 0-1 .5-1 1L5 19c0 .5.5 1 1 1h13c.5 0 1-.5 1-1L19 9c0-.5-.5-1-1-1h-1.656L16 5c-.114-.993-1-2-2-2zm0 1h3c.5 0 .943.503 1 1l.344 3H9.656L10 5c.057-.497.5-1 1-1z" fill="#444" overflow="visible"/><path opacity=".5" fill="none" overflow="visible" d="M0 0h24v24H0z"/></g></svg><svg width="24" height="24" viewBox="0 0 24 24" id="skiing-24" x="153" y="243"><path d="M12 4c-1 0-2 .5-2 2 0 .537.044.628.156 1.094l.688 2.844-3.72 2.28L3.75 10.25c-.112-.066-.26-.068-.438-.03-.178.036-.312.248-.312.468 0 .22.096.347.25.437l14.5 8.5c.456.263.867.37 1.25.375.268 0 .532-.035.75-.125.53-.218.862-.61 1.094-.843.116-.117.156-.258.156-.407 0-.21-.13-.436-.406-.468-.18-.02-.325.044-.438.187-.234.298-.528.52-.78.625-.254.103-.535.122-1.126-.22l-9.28-5.437 3.592-2.094c.333-.23.503-.672.407-1.063L12.56 8.5l3.576 2.105.674 2.57c.078.29.29.537.563.657l2.28 1c1.607.704 1.836-.826.814-1.27l-1.876-.81L17 6.5l-3.063-1.75C13.152 4.296 12.5 4 12 4zm8 2c-1.105 0-2 .896-2 2 0 1.105.895 2 2 2s2-.895 2-2c0-1.104-.895-2-2-2z" opacity=".3" color="#000" fill="none" stroke="#fff" stroke-width="2" stroke-linecap="round" stroke-linejoin="round" overflow="visible"/><path d="M12 4c-1 0-2 .5-2 2 0 .537.044.628.156 1.094l.688 2.844-3.72 2.28L3.75 10.25c-.112-.066-.26-.068-.438-.03-.178.036-.312.248-.312.468 0 .22.096.347.25.437l14.5 8.5c.456.263.867.37 1.25.375.268 0 .532-.035.75-.125.53-.217.862-.61 1.094-.843.116-.117.156-.258.156-.407 0-.21-.13-.436-.406-.468-.18-.02-.325.044-.438.187-.234.298-.528.52-.78.625-.254.103-.535.122-1.126-.22l-9.28-5.437 3.592-2.094c.333-.23.503-.672.407-1.063L12.56 8.5l3.576 2.105.675 2.57c.077.29.29.537.562.657l2.28 1c1.607.704 1.836-.826.814-1.27l-1.876-.81L17 6.5l-3.062-1.75C13.15 4.296 12.5 4 12 4zm8 2c-1.105 0-2 .896-2 2 0 1.105.895 2 2 2s2-.895 2-2c0-1.104-.895-2-2-2z" color="#000" fill="#444" overflow="visible"/><path opacity=".5" color="#000" fill="none" overflow="visible" d="M0 0h24v24H0z"/></svg><svg width="24" height="24" viewBox="0 0 24 24" id="slaughterhouse-24" x="183" y="243"><g color="#000"><path d="M3 5l1 1-2 2v1l3 .5c0 1.5 2.53.677 3 3.5v5h1l1-4 1 4h1v-4c2 0 3-1 4-1 0 0 .5 1.65.5 2.5 0 .85-.5 2.5-.5 2.5h1l1.5-4 1.5 4h1v-4c0-.5-1-1-1-1.5 0-1.412 1-1.5 1-2.5V7c0-.5-.5-1-1-1H7L6 5z" opacity=".3" fill="#fff" stroke="#fff" stroke-width="2" stroke-linecap="round" stroke-linejoin="round" overflow="visible"/><path d="M3 5l1 1-2 2v1l3 .5c0 1.5 2.53.677 3 3.5v5h1l1-4 1 4h1v-4c2 0 3-1 4-1 0 0 .5 1.65.5 2.5 0 .85-.5 2.5-.5 2.5h1l1.5-4 1.5 4h1v-4c0-.5-1-1-1-1.5 0-1.412 1-1.5 1-2.5V7c0-.5-.5-1-1-1H7L6 5z" fill="#444" overflow="visible"/><path opacity=".5" fill="none" overflow="visible" d="M0 0h24v24H0z"/></g></svg><svg width="24" height="24" viewBox="0 0 24 24" id="soccer-24" x="213" y="243"><g color="#000"><path d="M12.5 3C7.817 3 4 6.817 4 11.5S7.817 20 12.5 20s8.5-3.817 8.5-8.5S17.183 3 12.5 3z" opacity=".3" fill="#fff" stroke="#fff" stroke-width="2" stroke-linejoin="round" overflow="visible"/><path d="M12.5 3C7.817 3 4 6.817 4 11.5S7.817 20 12.5 20s8.5-3.817 8.5-8.5S17.183 3 12.5 3zm0 1.5c2.666 0 4.974 1.474 6.156 3.657-1.116.74-2.142 1.127-2.156 1.843-.01.5 0 .64 0 1 0 .5.26 1.144 1 1.5l1.75.844c-.2.74-.522 1.41-.938 2.03L17 14.5c-.75-.5-1.5-.833-2-.5l-1.5 1c-.693.463-.62 1-.5 1.5l.47 1.938c-.318.044-.64.062-.97.062-.693 0-1.37-.095-2-.28V16.5c0-1-.5-1.5-1-2s-1-1-2-1H5.78c-.185-.63-.28-1.306-.28-2 0-3.878 3.122-7 7-7zM9.5 8L9 10c-.142.568-.52 1.154 0 1.5l1.5 1c1 .667 1.44.28 2 0l1-.5c.745-.372 1-.5 1-1.5v-2c0-.5.008-.798-1-1L11 7c-1.047-.21-1.244-.023-1.5 1z" fill="#444" overflow="visible"/><path opacity=".5" fill="none" overflow="visible" d="M0 0h24v24H0z"/></g></svg><svg width="24" height="24" viewBox="0 0 24 24" id="square-24" x="243" y="243"><g color="#000"><g transform="translate(40 -1004.362)"><rect width="17" height="17" x="-36" y="1007.362" rx="1" ry="1" opacity=".3" fill="none" stroke="#fff" stroke-width="2" overflow="visible"/><rect ry="1" rx="1" y="1007.362" x="-36" height="17" width="17" fill="#444" overflow="visible"/></g><path opacity=".5" fill="none" overflow="visible" d="M0 0h24v24H0z"/></g></svg><svg width="24" height="24" viewBox="0 0 24 24" id="square-stroked-24" x="273" y="243"><g color="#000"><path d="M5 3c-.554 0-1 .446-1 1v15c0 .554.446 1 1 1h15c.554 0 1-.446 1-1V4c0-.554-.446-1-1-1zm1 2h13v13H6z" opacity=".3" fill="none" stroke="#fff" stroke-width="2" overflow="visible"/><path d="M5 3c-.554 0-1 .446-1 1v15c0 .554.446 1 1 1h15c.554 0 1-.446 1-1V4c0-.554-.446-1-1-1zm1 2h13v13H6z" fill="#444" overflow="visible"/><path opacity=".5" fill="none" overflow="visible" d="M0 0h24v24H0z"/></g></svg><svg width="24" height="24" viewBox="0 0 24 24" id="star-24" x="303" y="243"><path opacity=".5" color="#000" fill="none" overflow="visible" d="M0 0h24v24H0z"/></svg><svg width="24" height="24" viewBox="0 0 24 24" id="star-stroked-24" x="3" y="273"><path opacity=".5" color="#000" fill="none" overflow="visible" d="M0 0h24v24H0z"/></svg><svg width="24" height="24" viewBox="-402.5 403.5 24 24" id="suitcase-24" x="33" y="273"><path d="M-382.5 410.5h-4v-2c0-.553-.448-1-1-1h-5c-.552 0-1 .447-1 1v2h-4c-.552 0-1 .447-1 1v10c0 .553.448 1 1 1h15c.552 0 1-.447 1-1v-10c0-.553-.448-1-1-1z" stroke-miterlimit="10" opacity=".3" fill="#fff" stroke="#fff" stroke-width="2"/><path d="M-382.5 410.5h-4v-2c0-.553-.448-1-1-1h-5c-.552 0-1 .447-1 1v2h-4c-.552 0-1 .447-1 1v10c0 .553.448 1 1 1h15c.552 0 1-.447 1-1v-10c0-.553-.448-1-1-1zm-12 11h-1v-10h1zm7-11h-5v-2h5zm3 11h-1v-10h1z" fill="#454545"/></svg><svg width="24" height="24" viewBox="0 0 24 24" id="swimming-24" x="63" y="273"><path opacity=".5" color="#000" fill="none" overflow="visible" d="M0 0h24v24H0z"/><path d="M15.125 5c-.158 0-.434.093-.563.156l-4 1.938c-.532.252-.726 1.027-.374 1.5l1.218 1.656-4.72 3.656c1.13.23 1.978.938 2.814.938 1 0 1.5-1 3-1s2 1 3 1c.413 0 .833-.175 1.28-.375l-4.218-6.126 3.032-1.53c.602-.302.562-.82.5-1.126-.06-.292-.42-.688-.97-.688zM17 8c-1.105 0-2 .896-2 2 0 1.105.895 2 2 2s2-.895 2-2c0-1.104-.895-2-2-2zM6 16c-.694 0-1.34.405-2 .625v2.03s1-.654 2-.655c1 0 2 1 3.5 1s1.974-.965 3-1c1 0 1.5 1 3 1s2.5-1 3.5-1c.702 0 2 .656 2 .656v-2.03c-.642-.248-1.343-.626-2-.626-1.5 0-2.5 1-3.5 1s-1.5-1-3-1-2 1-3 1-2-1-3.5-1z" opacity=".3" color="#000" fill="none" stroke="#fff" stroke-width="2" stroke-linecap="round" stroke-linejoin="round" overflow="visible"/><path d="M15.125 5c-.158 0-.434.093-.563.156l-4 1.938c-.532.252-.726 1.027-.374 1.5l1.218 1.656-4.72 3.656c1.13.23 1.978.938 2.814.938 1 0 1.5-1 3-1s2 1 3 1c.413 0 .833-.175 1.28-.375l-4.218-6.126 3.032-1.53c.602-.302.562-.82.5-1.126-.06-.292-.42-.688-.97-.688zM17 8c-1.105 0-2 .896-2 2 0 1.105.895 2 2 2s2-.895 2-2c0-1.104-.895-2-2-2zM6 16c-.694 0-1.34.405-2 .625v2.03s1-.654 2-.655c1 0 2 1 3.5 1s1.974-.965 3-1c1 0 1.5 1 3 1s2.5-1 3.5-1c.702 0 2 .656 2 .656v-2.03c-.642-.248-1.343-.626-2-.626-1.5 0-2.5 1-3.5 1s-1.5-1-3-1-2 1-3 1-2-1-3.5-1z" color="#000" fill="#444" overflow="visible"/></svg><svg width="24" height="24" viewBox="0 0 24 24" id="telephone-24" x="93" y="273"><g color="#000"><path d="M16 4c-1 0-1.326.326-2 1l-8 8c-.5.5-1 1-1 2v1.5c0 1 .5 1.5 1 2l.563.563 3.5-3.5L9.5 15c-.5-.5 0-1 0-1L15 8.5s.5-.5 1 0l.563.563 3.5-3.5L19.5 5c-.5-.5-1-1-2-1H16zm4.438 1.938l-3.5 3.5.562.562c.354.354 1.146.354 1.5 0l2-2c.354-.354.354-1.146 0-1.5zm-10 10l-3.5 3.5L7.5 20c.354.354 1.146.354 1.5 0l2-2c.354-.353.354-1.146 0-1.5z" opacity=".3" fill="none" stroke="#fff" stroke-width="2" stroke-linecap="round" stroke-linejoin="round" overflow="visible"/><path d="M16 4c-1 0-1.326.326-2 1l-8 8c-.5.5-1 1-1 2v1.5c0 1 .5 1.5 1 2l.563.563 3.5-3.5L9.5 15c-.5-.5 0-1 0-1L15 8.5s.5-.5 1 0l.563.563 3.5-3.5L19.5 5c-.5-.5-1-1-2-1H16zm4.438 1.938l-3.5 3.5.562.562c.354.354 1.146.354 1.5 0l2-2c.354-.354.354-1.146 0-1.5zm-10 10l-3.5 3.5L7.5 20c.354.354 1.146.354 1.5 0l2-2c.354-.353.354-1.146 0-1.5z" fill="#444" overflow="visible"/><path fill="none" overflow="visible" d="M0 0h24v24H0z"/></g></svg><svg width="24" height="24" viewBox="0 0 24 24" id="tennis-24" x="123" y="273"><g color="#000"><path d="M10 3C6.686 3 4 5.686 4 9s2.686 6 6 6h5l4.5 4.5c.316.316.506.5.906.5.125 0 .282 0 .438-.156.156-.156.156-.313.156-.438 0-.4-.218-.624-.5-.906L16 14V9c0-3.314-2.686-6-6-6zm5 8v3h-3zm-9.5 4c-.828 0-1.5.672-1.5 1.5 0 .83.672 1.5 1.5 1.5S7 17.33 7 16.5c0-.828-.672-1.5-1.5-1.5z" opacity=".3" fill="#fff" stroke="#fff" stroke-width="2" overflow="visible"/><path d="M10 3C6.686 3 4 5.686 4 9s2.686 6 6 6h5l4.5 4.5c.316.316.506.5.906.5.125 0 .282 0 .438-.156.156-.156.156-.313.156-.438 0-.4-.218-.624-.5-.906L16 14V9c0-3.314-2.686-6-6-6zm5 8v3h-3zm-9.5 4c-.828 0-1.5.672-1.5 1.5 0 .83.672 1.5 1.5 1.5S7 17.33 7 16.5c0-.828-.672-1.5-1.5-1.5z" fill="#444" overflow="visible"/><path opacity=".5" fill="none" overflow="visible" d="M0 0h24v24H0z"/></g></svg><svg width="24" height="24" viewBox="0 0 24 24" id="theatre-24" x="153" y="273"><g color="#000"><path d="M5 3c-.47 0-1 .5-1 1v7c0 2.216 1 5 5 5 .36 0 .686-.017 1-.062V13H6s.5-2 3-2c.5 0 .697.075 1 .188V9c0-.916.365-1.682 1-2 1-.5 1.404-.297 2 0l1 .5V4c0-.5-.53-1-1-1-1 0-2 1-4 1S6 3 5 3zm7 5c-.47 0-1 .5-1 1v7c0 2.216 1 5 5 5s5-2.784 5-5V9c0-.5-.53-1-1-1-1 0-2 1-4 1s-3-1-4-1z" opacity=".3" fill="#fff" stroke="#fff" stroke-width="2" stroke-linecap="round" stroke-linejoin="round" overflow="visible"/><path fill="none" overflow="visible" d="M0 0h24v24H0z"/><path d="M5 3c-.47 0-1 .5-1 1v7c0 2.216 1 5 5 5 .36 0 .686-.017 1-.062V13H6s.5-2 3-2c.5 0 .697.075 1 .188V9c0-.916.365-1.682 1-2 1-.5 1.404-.297 2 0l1 .5V4c0-.5-.53-1-1-1-1 0-2 1-4 1S6 3 5 3zm1.75 3.5C7.44 6.5 8 7.06 8 7.75S7.44 9 6.75 9 5.5 8.44 5.5 7.75 6.06 6.5 6.75 6.5zM12 8c-.47 0-1 .5-1 1v7c0 2.216 1 5 5 5s5-2.784 5-5V9c0-.5-.53-1-1-1-1 0-2 1-4 1s-3-1-4-1zm1.75 3.5c.69 0 1.25.56 1.25 1.25S14.44 14 13.75 14s-1.25-.56-1.25-1.25.56-1.25 1.25-1.25zm4.5 0c.69 0 1.25.56 1.25 1.25S18.94 14 18.25 14 17 13.44 17 12.75s.56-1.25 1.25-1.25zM13 17h6s-.5 2-3 2-3-2-3-2z" fill="#444" overflow="visible"/></g></svg><svg width="24" height="24" viewBox="0 0 24 24" id="toilets-24" x="183" y="273"><g color="#000"><path d="M8.5 2C7.12 2 6 3.12 6 4.5S7.12 7 8.5 7 11 5.88 11 4.5 9.88 2 8.5 2zm8 0C15.12 2 14 3.12 14 4.5S15.12 7 16.5 7 19 5.88 19 4.5 17.88 2 16.5 2zM8 8c-1 0-2 1-2 2v2l-1.5 4.5c0 .5.5.5 1 .5H7v4h3v-4h1.5c.5 0 1 0 1-.5L11 12v-2c0-1-1-2-2-2zm6 0c-.5 0-1 .5-1 1l2 6v6h3v-6l2-6c0-.5-.5-1-1-1z" opacity=".3" fill="none" stroke="#fff" stroke-width="2" stroke-linecap="round" stroke-linejoin="round" overflow="visible"/><path d="M8.5 2C7.12 2 6 3.12 6 4.5S7.12 7 8.5 7 11 5.88 11 4.5 9.88 2 8.5 2zm8 0C15.12 2 14 3.12 14 4.5S15.12 7 16.5 7 19 5.88 19 4.5 17.88 2 16.5 2zM8 8c-1 0-2 1-2 2v2l-1.5 4.5c0 .5.5.5 1 .5H7v4h3v-4h1.5c.5 0 1 0 1-.5L11 12v-2c0-1-1-2-2-2zm6 0c-.5 0-1 .5-1 1l2 6v6h3v-6l2-6c0-.5-.5-1-1-1z" fill="#444" overflow="visible"/><path opacity=".5" fill="none" overflow="visible" d="M0 0h24v24H0z"/></g></svg><svg width="24" height="24" viewBox="0 0 24 24" id="town-24" x="213" y="273"><g color="#000"><path d="M8 6L5 7.5c-.51.256-1 1-1 1.5v8h3v-3h2v3h3V9c0-.5-.502-1.25-1-1.5L8 6zm9 2l-3 1.5c-.51.256-1 1-1 1.5v8h3v-3h2v3h3v-8c0-.5-.502-1.25-1-1.5L17 8zM5 10h2v1H5v-1zm4 0h2v1H9v-1zm-4 2h2v1H5v-1zm4 0h2v1H9v-1zm5 0h2v1h-2v-1zm4 0h2v1h-2v-1zm-4 2h2v1h-2v-1zm4 0h2v1h-2v-1z" opacity=".3" fill="#fff" stroke="#fff" stroke-width="2" stroke-linecap="round" stroke-linejoin="round" overflow="visible"/><path d="M8 6L5 7.5c-.51.256-1 1-1 1.5v8h3v-3h2v3h3V9c0-.5-.502-1.25-1-1.5L8 6zm9 2l-3 1.5c-.51.256-1 1-1 1.5v8h3v-3h2v3h3v-8c0-.5-.502-1.25-1-1.5L17 8zM5 10h2v1H5v-1zm4 0h2v1H9v-1zm-4 2h2v1H5v-1zm4 0h2v1H9v-1zm5 0h2v1h-2v-1zm4 0h2v1h-2v-1zm-4 2h2v1h-2v-1zm4 0h2v1h-2v-1z" fill="#444" overflow="visible"/><path opacity=".5" fill="none" overflow="visible" d="M0 0h24v24H0z"/></g></svg><svg width="24" height="24" viewBox="0 0 24 24" id="town-hall-24" x="243" y="273"><g color="#000"><path d="M20 8l-7.5-5L5 8v9l-1.75 3c-.148.254-.25.357-.25.5 0 .5.632.5 1 .5h17c.355 0 1 0 1-.5 0-.146-.087-.22-.25-.5L20 17v-7zM8 11c.554 0 .91.454 1 1v6H7v-6c0-.554.446-1 1-1zm4.5 0c.554 0 1.01.446 1 1v6h-2v-6c0-.554.446-1 1-1zm4.5 0c.554 0 1 .446 1 1v6h-2v-6c0-.554.446-1 1-1z" opacity=".3" fill="#fff" stroke="#fff" stroke-width="2" stroke-linecap="round" stroke-linejoin="round" overflow="visible"/><path d="M12.5 3L5 8h15zM6 9c-.554 0-1 .446-1 1v7l-1.75 3c-.148.254-.25.357-.25.5 0 .5.632.5 1 .5h17c.355 0 1 0 1-.5 0-.146-.087-.22-.25-.5L20 17v-7c0-.554-.446-1-1-1zm2 2c.554 0 .91.454 1 1v6H7v-6c0-.554.446-1 1-1zm4.5 0c.554 0 1.01.446 1 1v6h-2v-6c0-.554.446-1 1-1zm4.5 0c.554 0 1 .446 1 1v6h-2v-6c0-.554.446-1 1-1z" fill="#444" overflow="visible"/><path opacity=".5" fill="none" overflow="visible" d="M0 0h24v24H0z"/></g></svg><svg width="24" height="24" viewBox="0 0 24 24" id="triangle-24" x="273" y="273"><g color="#000"><g fill="#444" font-family="Sans"><path d="M12.5 4c-.5 0-.726.24-.875.5l-8.5 14c-.088.154-.125.328-.125.5 0 .75.5 1 1 1h17c.5 0 1-.25 1-1 0-.172-.037-.346-.125-.5l-8.5-14C13.225 4.24 13 4 12.5 4z" style="text-indent:0;text-align:start;line-height:normal;text-transform:none;block-progression:tb;-inkscape-font-specification:Sans" opacity=".3" stroke="#fff" stroke-width="2" overflow="visible"/><path style="text-indent:0;text-align:start;line-height:normal;text-transform:none;block-progression:tb;-inkscape-font-specification:Sans" d="M12.5 4c-.5 0-.726.24-.875.5l-8.5 14c-.088.154-.125.328-.125.5 0 .75.5 1 1 1h17c.5 0 1-.25 1-1 0-.172-.037-.346-.125-.5l-8.5-14C13.225 4.24 13 4 12.5 4z" overflow="visible"/></g><path opacity=".5" fill="none" overflow="visible" d="M0 0h24v24H0z"/></g></svg><svg width="24" height="24" viewBox="0 0 24 24" id="triangle-stroked-24" x="303" y="273"><g color="#000"><g fill="#444" font-family="Sans"><path style="text-indent:0;text-align:start;line-height:normal;text-transform:none;block-progression:tb;-inkscape-font-specification:Sans" d="M12.5 4c-.5 0-.726.24-.875.5l-8.5 14c-.088.154-.125.328-.125.5 0 .75.5 1 1 1h17c.5 0 1-.25 1-1 0-.172-.037-.346-.125-.5l-8.5-14C13.225 4.24 13 4 12.5 4zm0 3l6.78 11H5.72z" opacity=".3" stroke="#fff" stroke-width="2" overflow="visible"/><path d="M12.5 4c-.5 0-.726.24-.875.5l-8.5 14c-.088.154-.125.328-.125.5 0 .75.5 1 1 1h17c.5 0 1-.25 1-1 0-.172-.037-.346-.125-.5l-8.5-14C13.225 4.24 13 4 12.5 4zm0 3l6.78 11H5.72z" style="text-indent:0;text-align:start;line-height:normal;text-transform:none;block-progression:tb;-inkscape-font-specification:Sans" overflow="visible"/></g><path opacity=".5" fill="none" overflow="visible" d="M0 0h24v24H0z"/></g></svg><svg width="24" height="24" viewBox="0 0 24 24" id="village-24" x="3" y="303"><g color="#000"><path d="M8 5L3.5 9c-.5.5 0 1 .5 1h1v5h2v-3h2v3h2v-5h1c.5 0 1-.5.5-1L8 5zm9 3l-4.5 4c-.5.5 0 1 .5 1h1v5h2v-3h2v3h2v-5h1c.5 0 1-.5.5-1L17 8z" opacity=".3" fill="#fff" stroke="#fff" stroke-width="2" stroke-linecap="round" stroke-linejoin="round" overflow="visible"/><path opacity=".5" fill="none" overflow="visible" d="M0 0h24v24H0z"/><path d="M8 5L3.5 9c-.5.5 0 1 .5 1h1v5h2v-3h2v3h2v-5h1c.5 0 1-.5.5-1L8 5zm9 3l-4.5 4c-.5.5 0 1 .5 1h1v5h2v-3h2v3h2v-5h1c.5 0 1-.5.5-1L17 8z" fill="#444" overflow="visible"/></g></svg><svg width="24" height="24" viewBox="0 0 24 24" id="warehouse-24" x="33" y="303"><g color="#000"><path d="M11 3L3.5 9.5c-.362.302-.5.5-.5.75 0 .496.5.75 1 .75h1v8c0 .554.446 1 1 1h13c.554 0 1-.446 1-1v-8h1c.5 0 1-.254 1-.75 0-.25-.138-.448-.5-.75L14 3zm-2 9h7v.5H9zm0 2h7v.5H9zm0 2h7v.5H9zm0 2h7v.5H9z" opacity=".3" fill="#fff" stroke="#fff" stroke-width="2" stroke-linejoin="round" overflow="visible"/><path opacity=".5" fill="none" overflow="visible" d="M0 0h24v24H0z"/><path d="M11 3L3.5 9.5c-.362.302-.5.5-.5.75 0 .496.5.75 1 .75h1v8c0 .554.446 1 1 1h13c.554 0 1-.446 1-1v-8h1c.5 0 1-.254 1-.75 0-.25-.138-.448-.5-.75L14 3zm-2 9h7v.5H9zm0 2h7v.5H9zm0 2h7v.5H9zm0 2h7v.5H9z" fill="#444" overflow="visible"/></g></svg><svg width="24" height="24" viewBox="0 0 24 24" id="waste-basket-24" x="63" y="303"><g color="#000"><path d="M10.5 2c-.277 0-.5.223-.5.5V4H6c-.554 0-1 .446-1 1s.446 1 1 1h13c.554 0 1-.446 1-1s-.446-1-1-1h-4V2.5c0-.277-.223-.5-.5-.5zm.5 1h3v1h-3zM6 7c-.554 0-1.075.454-.984 1L7 20c.09.547.446 1 1 1h9c.554 0 .91-.453 1-1l1.984-12c.09-.546-.43-1-.984-1z" opacity=".3" fill="none" stroke="#fff" stroke-width="2" stroke-linecap="round" stroke-linejoin="round" overflow="visible"/><path d="M10.5 2c-.277 0-.5.223-.5.5V4H6c-.554 0-1 .446-1 1s.446 1 1 1h13c.554 0 1-.446 1-1s-.446-1-1-1h-4V2.5c0-.277-.223-.5-.5-.5zm.5 1h3v1h-3zM6 7c-.554 0-1.075.454-.984 1L7 20c.09.547.446 1 1 1h9c.554 0 .91-.453 1-1l1.984-12c.09-.546-.43-1-.984-1z" fill="#444" overflow="visible"/><path opacity=".5" fill="none" overflow="visible" d="M0 0h24v24H0z"/></g></svg><svg width="24" height="24" viewBox="0 0 24 24" id="water-24" x="93" y="303"><g color="#000"><path d="M19 14.5C19 11 14 5 12.5 3 11 5 6 11 6 14.5S9.27 21 12.5 21s6.5-3 6.5-6.5z" opacity=".3" fill="none" stroke="#fff" stroke-width="2" stroke-linecap="round" stroke-linejoin="round" overflow="visible"/><path opacity=".5" fill="none" overflow="visible" d="M0 0h24v24H0z"/><path d="M19 14.5C19 11 14 5 12.5 3 11 5 6 11 6 14.5S9.27 21 12.5 21s6.5-3 6.5-6.5z" fill="#444" overflow="visible"/></g></svg><svg width="24" height="24" viewBox="0 0 24 24" id="wetland-24" x="123" y="303"><g color="#000"><path opacity=".5" fill="none" overflow="visible" d="M0 0h24v24H0z"/><path d="M17 4c-2 0-3.597 2-4 4l-1.125 5.563c.187-.04.397-.062.625-.062 1.5 0 2 1 3 1 .197 0 .393-.03.594-.093.225-1.122.75-3.627.906-4.407.192-.952 1-2 2-2h1c0-.5-.5-1-1-1h-1c-.83 0-1.6.307-2.156.75L16 7c.197-.98 1-2 2-2h1c0-.5-.5-1-1-1h-1zM6 7c-.5 0-1 .5-1 1h1c1 0 1.808 1.048 2 2 .152.756.663 3.203.906 4.406.2.062.397.094.594.094.566 0 .983-.315 1.5-.593L10 9c-.2-1-1.5-2-3-2H6zm0 8c-.694 0-1.34.405-2 .625v2.03s1-.654 2-.655c1 0 2 1 3.5 1s1.974-.965 3-1c1 0 1.5 1 3 1s2.5-1 3.5-1c.702 0 2 .656 2 .656v-2.03c-.642-.248-1.343-.626-2-.626-1.5 0-2.5 1-3.5 1s-1.5-1-3-1-2 1-3 1-2-1-3.5-1z" opacity=".3" fill="none" stroke="#fff" stroke-width="2" stroke-linecap="round" stroke-linejoin="round" overflow="visible"/><path d="M17 4c-2 0-3.597 2-4 4l-1.125 5.563c.187-.04.397-.062.625-.062 1.5 0 2 1 3 1 .197 0 .393-.03.594-.093.225-1.122.75-3.627.906-4.407.192-.952 1-2 2-2h1c0-.5-.5-1-1-1h-1c-.83 0-1.6.307-2.156.75L16 7c.197-.98 1-2 2-2h1c0-.5-.5-1-1-1h-1zM6 7c-.5 0-1 .5-1 1h1c1 0 1.808 1.048 2 2 .152.756.663 3.203.906 4.406.2.062.397.094.594.094.566 0 .983-.315 1.5-.593L10 9c-.2-1-1.5-2-3-2H6zm0 8c-.694 0-1.34.405-2 .625v2.03s1-.654 2-.655c1 0 2 1 3.5 1s1.974-.965 3-1c1 0 1.5 1 3 1s2.5-1 3.5-1c.702 0 2 .656 2 .656v-2.03c-.642-.248-1.343-.626-2-.626-1.5 0-2.5 1-3.5 1s-1.5-1-3-1-2 1-3 1-2-1-3.5-1z" fill="#444" overflow="visible"/></g></svg><svg width="24" height="24" viewBox="0 0 24 24" id="zoo-24" x="153" y="303"><path d="M17 2c-2 3-3.784 5.005-6 7-2.117 1.906-6 1.252-6 4v1c0 1 1 1.952 1 3v1c0 1.5-.5 1.5-1 3h1l2-3v3h1v-6h2v6h1v-4.5l1 1.5 1 3h1l-1.53-6.28c.588-.36.53-1.026.53-1.72v-3l4-5.5 1.437.446c.3.093.563.055.563-.196 0-.5-.327-.61-.5-.75z" opacity=".3" color="#000" fill="#444" stroke="#fff" stroke-width="2" stroke-linecap="round" stroke-linejoin="round" overflow="visible"/><path d="M17 2c-2 3-3.784 5.005-6 7-2.117 1.905-6 1.25-6 4v1c0 1 1 1.952 1 3v1c0 1.5-.5 1.5-1 3h1l2-3v3h1v-6h2v6h1v-4.5l1 1.5 1 3h1l-1.53-6.28c.588-.36.53-1.026.53-1.72v-3l4-5.5 1.438.445c.3.093.562.055.562-.195 0-.5-.327-.61-.5-.75z" color="#000" fill="#444" overflow="visible"/><path opacity=".5" color="#000" fill="none" overflow="visible" d="M0 0h24v24H0z"/></svg></svg>