<svg xmlns="http://www.w3.org/2000/svg" width="330" height="330"><svg width="24" height="24" viewBox="0 0 12 12" id="airfield-12" x="3" y="3"><path d="M4.25 1.5c-.139 0-.25.112-.25.25 0 .14.112.25.25.25h2L6 3v1L2 5v1h4v2l-1 .5V9h3v-.5L7 8V6h4V5L7 4V3l-.25-1h2C8.89 2 9 1.89 9 1.75c0-.138-.112-.25-.25-.25z" opacity=".3" color="#000" fill="#fff" stroke="#fff" stroke-width="2" stroke-linejoin="round" overflow="visible"/><path d="M4.25 1.5c-.139 0-.25.112-.25.25 0 .14.112.25.25.25h2L6 3v1L2 5v1h4v2l-1 .5V9h3v-.5L7 8V6h4V5L7 4V3l-.25-1h2C8.89 2 9 1.89 9 1.75c0-.138-.112-.25-.25-.25z" fill="#444"/><path opacity=".5" color="#000" fill="none" overflow="visible" d="M0 0h12v12H0z"/></svg><svg width="24" height="24" viewBox="0 0 12 12" id="airport-12" x="33" y="3"><path d="M10 6.43V7l-3-.5v2l1 1.056V10H5v-.444L6 8.5v-2L3 7v-.57L6 5V3c0-.444.056-1 .5-1s.5.556.5 1v2z" opacity=".3" color="#000" fill="none" stroke="#fff" stroke-width="2" stroke-linecap="round" stroke-linejoin="round" overflow="visible"/><path d="M10 6.43V7l-3-.5v2l1 1.056V10H5v-.444L6 8.5v-2L3 7v-.57L6 5V3c0-.444.056-1 .5-1s.5.556.5 1v2z" fill="#444"/><path opacity=".5" color="#000" fill="none" overflow="visible" d="M0 0h12v12H0z"/></svg><svg width="24" height="24" viewBox="0 0 12 12" id="alcohol-shop-12" x="63" y="3"><path opacity=".5" color="#000" fill="none" overflow="visible" d="M0 0h12v12H0z"/></svg><svg width="24" height="24" viewBox="0 0 12 12" id="america-football-12" x="93" y="3"><g color="#000"><path d="M6.5 3C3.25 3 2 6 2 6s1.25 3 4.5 3S11 6 11 6 9.75 3 6.5 3zm-1 2.5H9c.139 0 .25.112.25.25 0 .14-.112.25-.25.25H4.25C4.11 6 4 5.89 4 5.75c0-.138.112-.25.25-.25H5z" opacity=".3" fill="#fff" stroke="#fff" stroke-width="2" stroke-linecap="round" stroke-linejoin="round" overflow="visible"/><path d="M6.5 3C3.25 3 2 6 2 6s1.25 3 4.5 3S11 6 11 6 9.75 3 6.5 3zm-1 2.5H9c.139 0 .25.112.25.25 0 .14-.112.25-.25.25H4.25C4.11 6 4 5.89 4 5.75c0-.138.112-.25.25-.25H5z" fill="#444" overflow="visible"/><path opacity=".5" fill="none" overflow="visible" d="M0 0h12v12H0z"/></g></svg><svg width="24" height="24" viewBox="0 0 12 12" id="art-gallery-12" x="123" y="3"><g color="#000"><path opacity=".3" fill="none" overflow="visible" d="M0 0h12v12H0z"/><path d="M6 2C3.5 2 2 3.5 2 5c0 1 .5 2 2 2 1 0 1 .25 1 1 0 1.5 1.5 2 2.5 2C10 10 11 7.75 11 6c0-3.5-2.515-4-5-4zm-.625 1C5.72 3 6 3.28 6 3.625s-.28.625-.625.625-.625-.28-.625-.625S5.03 3 5.375 3zm2 0C7.72 3 8 3.28 8 3.625s-.28.625-.625.625-.625-.28-.625-.625S7.03 3 7.375 3zm-3.75.75c.345 0 .625.28.625.625S3.97 5 3.625 5 3 4.72 3 4.375s.28-.625.625-.625zm5.75.25c.345 0 .625.28.625.625s-.28.625-.625.625-.625-.28-.625-.625S9.03 4 9.375 4zM7 6.5c.552 0 1 .448 1 1s-.448 1-1 1-1-.448-1-1 .448-1 1-1z" opacity=".3" fill="#fff" stroke="#fff" stroke-width="2" stroke-linecap="round" stroke-linejoin="round" overflow="visible"/><path d="M6 2C3.5 2 2 3.5 2 5c0 1 .5 2 2 2 1 0 1 .25 1 1 0 1.5 1.5 2 2.5 2C10 10 11 7.75 11 6c0-3.5-2.515-4-5-4zm-.625 1C5.72 3 6 3.28 6 3.625s-.28.625-.625.625-.625-.28-.625-.625S5.03 3 5.375 3zm2 0C7.72 3 8 3.28 8 3.625s-.28.625-.625.625-.625-.28-.625-.625S7.03 3 7.375 3zm-3.75.75c.345 0 .625.28.625.625S3.97 5 3.625 5 3 4.72 3 4.375s.28-.625.625-.625zm5.75.25c.345 0 .625.28.625.625s-.28.625-.625.625-.625-.28-.625-.625S9.03 4 9.375 4zM7 6.5c.552 0 1 .448 1 1s-.448 1-1 1-1-.448-1-1 .448-1 1-1z" fill="#444" overflow="visible"/></g></svg><svg width="24" height="24" viewBox="0 0 12 12" id="bakery-12" x="153" y="3"><path color="#000" fill="none" overflow="visible" d="M0 0h12v12H0z"/></svg><svg width="24" height="24" viewBox="0 0 12 12" id="bank-12" x="183" y="3"><g color="#000"><g fill="#444"><path d="M2.5 3c-.277 0-.5.223-.5.5v5c0 .277.223.5.5.5h8c.277 0 .5-.223.5-.5v-5c0-.277-.223-.5-.5-.5zm0 1h8v1h-8zm0 3H4v1H2.5zm4.5.5h3V8H7z" opacity=".3" stroke="#fff" stroke-width="2" overflow="visible"/><path d="M2.5 3c-.277 0-.5.223-.5.5v5c0 .277.223.5.5.5h8c.277 0 .5-.223.5-.5v-5c0-.277-.223-.5-.5-.5zm0 1h8v1h-8zm0 3H4v1H2.5zm4.5.5h3V8H7z" overflow="visible"/></g><path opacity=".5" fill="none" overflow="visible" d="M0 0h12v12H0z"/></g></svg><svg width="24" height="24" viewBox="0 0 12 12" id="bar-12" x="213" y="3"><g color="#000"><path d="M2.5 2c-.28 0-.5 0-.5.14 0 .142.193.31.28.423L6 7v2.5c-1 .5-2.5 1-2.5 1.5h6c0-.5-1.5-1-2.5-1.5V7l3.72-4.437c.087-.114.28-.28.28-.422C11 2 10.78 2 10.5 2z" opacity=".3" fill="none" stroke="#fff" stroke-width="2" stroke-linecap="round" stroke-linejoin="round" overflow="visible"/><path d="M2.5 2c-.28 0-.5 0-.5.14 0 .142.193.31.28.423L6 7v2.5c-1 .5-2.5 1-2.5 1.5h6c0-.5-1.5-1-2.5-1.5V7l3.72-4.437c.087-.114.28-.28.28-.422C11 2 10.78 2 10.5 2z" fill="#444" overflow="visible"/><path opacity=".5" fill="none" overflow="visible" d="M0 0h12v12H0z"/></g></svg><svg width="24" height="24" viewBox="0 0 12 12" id="baseball-12" x="243" y="3"><g color="#000"><path d="M2 1.5V3c1.5 2 4.587 3.588 6.5 5.5l1 1v1h1l.5-.5V9h-1L9 8C7.216 6.216 5.5 3 3.5 1.5zM4 7c-.552 0-1 .448-1 1s.448 1 1 1 1-.448 1-1-.448-1-1-1z" opacity=".3" fill="none" stroke="#fff" stroke-width="2" stroke-linecap="round" stroke-linejoin="round" overflow="visible"/><path d="M2 1.5V3c1.5 2 4.587 3.588 6.5 5.5l1 1v1h1l.5-.5V9h-1L9 8C7.216 6.216 5.5 3 3.5 1.5zM4 7c-.552 0-1 .448-1 1s.448 1 1 1 1-.448 1-1-.448-1-1-1z" fill="#444" overflow="visible"/><path opacity=".5" fill="none" overflow="visible" d="M0 0h12v12H0z"/></g></svg><svg width="24" height="24" viewBox="0 0 12 12" id="basketball-12" x="273" y="3"><g color="#000"><path d="M4 1L2 3v4.5c0 .25.25.5.5.5H4l1 1 1 1h1l1-1 1-1h1.5c.25 0 .5-.25.5-.5V3L9 1H4zm0 2h5v3H4V3zm.688.688v1.625h3.625V3.688H4.687zM5 7h1v1h1V7h1v1L7 9H6L5 8V7z" opacity=".3" fill="#fff" stroke="#fff" stroke-width="2" stroke-linecap="round" stroke-linejoin="round" overflow="visible"/><path d="M4 1L2 3v4.5c0 .25.25.5.5.5H4l1 1 1 1h1l1-1 1-1h1.5c.25 0 .5-.25.5-.5V3L9 1H4zm0 2h5v3H4V3zm.688.688v1.625h3.625V3.688H4.687zM5 7h1v1h1V7h1v1L7 9H6L5 8V7z" fill="#444" overflow="visible"/><path opacity=".5" fill="none" overflow="visible" d="M0 0h12v12H0z"/></g></svg><svg width="24" height="24" viewBox="0 0 12 12" id="beer-12" x="303" y="3"><g color="#000"><path d="M3 1l1 8.5c.036.286.214.5.5.5h4c.286 0 .45-.216.5-.5L10 1zm1.5 1h4l-.25 2h-3.5z" opacity=".3" fill="#fff" stroke="#fff" stroke-width="2" stroke-linecap="round" stroke-linejoin="round" overflow="visible"/><path d="M3 1l1 8.5c.036.286.214.5.5.5h4c.286 0 .45-.216.5-.5L10 1zm1.5 1h4l-.25 2h-3.5z" fill="#444" overflow="visible"/></g></svg><svg width="24" height="24" viewBox="0 0 12 12" id="bicycle-12" x="3" y="33"><path opacity=".3" color="#000" fill="none" overflow="visible" d="M0 0h12v12H0z"/></svg><svg width="24" height="24" viewBox="0 0 12 12" id="building-12" x="33" y="33"><path color="#000" fill="none" overflow="visible" d="M0 0h12v12H0z"/></svg><svg width="24" height="24" viewBox="0 0 12 12" id="bus-12" x="63" y="33"><g color="#000"><path d="M5 1v1H3v7h1v1h1V9h3v1h1V9h1V2H8V1zM4 3h5v3H4zm.5 4c.277 0 .5.223.5.5s-.223.5-.5.5-.5-.223-.5-.5.223-.5.5-.5zm4 0c.277 0 .5.223.5.5s-.223.5-.5.5-.5-.223-.5-.5.223-.5.5-.5z" fill="#fff" stroke="#fff" stroke-width="2" overflow="visible" opacity=".3" stroke-linecap="round" stroke-linejoin="round"/><path d="M5 1v1H3v7h1v1h1V9h3v1h1V9h1V2H8V1zM4 3h5v3H4zm.5 4c.277 0 .5.223.5.5s-.223.5-.5.5-.5-.223-.5-.5.223-.5.5-.5zm4 0c.277 0 .5.223.5.5s-.223.5-.5.5-.5-.223-.5-.5.223-.5.5-.5z" fill="#444" overflow="visible"/><path opacity=".5" fill="none" overflow="visible" d="M0 0h12v12H0z"/></g></svg><svg width="24" height="24" viewBox="0 0 12 12" id="cafe-12" x="93" y="33"><g color="#000"><path d="M3.5 2c-.277 0-.5.223-.5.5V7c0 .277.223.5.5.5h5c.277 0 .5-.223.5-.5v-.5h.25c.25 0 .25-.25.25-.25V6h.5c.5 0 1-.5 1-1V3.5c0-.25-.25-.5-.5-.5H9v-.5c0-.277-.223-.5-.5-.5zM9 3.5h1.25c.25 0 .25.25.25.25V5c0 .25-.25.5-.5.5H9zM2 8l1.5 1.5h5L10 8z" opacity=".3" fill="#fff" stroke="#fff" stroke-width="2" stroke-linejoin="round" overflow="visible"/><path d="M3.5 2c-.277 0-.5.223-.5.5V7c0 .277.223.5.5.5h5c.277 0 .5-.223.5-.5v-.5h.25c.25 0 .25-.25.25-.25V6h.5c.5 0 1-.5 1-1V3.5c0-.25-.25-.5-.5-.5H9v-.5c0-.277-.223-.5-.5-.5zM9 3.5h1.25c.25 0 .25.25.25.25V5c0 .25-.25.5-.5.5H9zM2 8l2 1h4l2-1z" fill="#444" overflow="visible"/><path opacity=".5" fill="none" overflow="visible" d="M0 0h12v12H0z"/></g></svg><svg width="24" height="24" viewBox="-402.5 403.5 12 12" id="camera-12" x="123" y="33"><g fill="#fff" stroke-width="2" stroke-linejoin="round" stroke-linecap="round" opacity=".3"><path style="text-indent:0;text-align:start;line-height:normal;text-transform:none;block-progression:tb;-inkscape-font-specification:Sans" d="M-399.594 404.5c-.49.046-.908.506-.906 1-.524 0-1 .476-1 1v6c0 .524.476 1 1 1h9c.524 0 1-.476 1-1v-6c0-.524-.476-1-1-1h-1c0-.524-.476-1-1-1h-3c-.283 0-.564.13-.75.344-.186-.214-.467-.343-.75-.344h-1.594z" color="#000" overflow="visible" font-family="Sans"/><path d="M-396.5 409.985l.5.515 1-.015.5-.5v-.97l-.5-.5-1-.015-.5.515"/></g><g fill="#454545"><path d="M-396.5 409.985l.5.515 1-.015.5-.5v-.97l-.5-.5-1-.015-.5.515"/><path d="M-393.5 406.5v-1h-3v1h-1.5v-1h-1.5v1h-1v6h9v-6zm0 4l-1 1h-2l-1-1v-2l1-1h2l1 1z"/></g></svg><svg width="24" height="24" viewBox="0 0 12 12" id="campsite-12" x="153" y="33"><g color="#000"><g font-family="Sans"><path style="text-indent:0;text-align:start;line-height:normal;text-transform:none;block-progression:tb;-inkscape-font-specification:Sans" d="M6.53 2c-.25 0-.362.12-.436.25L3.234 8H2.5c-.293 0-.5.223-.5.5s.207.5.5.5H10.47c.292 0 .53-.223.53-.5s-.238-.5-.53-.5h-.642l-2.86-5.75C6.895 2.12 6.782 2 6.532 2z" opacity=".3" fill="#fff" stroke="#fff" stroke-width="2" stroke-linecap="round" stroke-linejoin="round" overflow="visible"/><path d="M6.53 2c-.25 0-.362.12-.436.25L3.234 8H2.5c-.293 0-.5.223-.5.5s.207.5.5.5H10.47c.292 0 .53-.223.53-.5s-.238-.5-.53-.5h-.642l-2.86-5.75C6.895 2.12 6.782 2 6.532 2zm0 2.5L8.03 8h-3z" style="text-indent:0;text-align:start;line-height:normal;text-transform:none;block-progression:tb;-inkscape-font-specification:Sans" fill="#444" overflow="visible"/></g><path opacity=".5" fill="none" overflow="visible" d="M0 0h12v12H0z"/></g></svg><svg width="24" height="24" viewBox="-402.5 403.5 12 12" id="car-12" x="183" y="33"><path d="M-398.5 405.5l-1 3-1 1v3h1v1h1v-1h5v1h1v-1h1v-3l-1-1-1-3zm1 1h3l.667 2h-4.334zm-1.5 4c.276 0 .5.224.5.5s-.224.5-.5.5-.5-.224-.5-.5.224-.5.5-.5zm6 0c.276 0 .5.224.5.5s-.224.5-.5.5-.5-.224-.5-.5.224-.5.5-.5z" color="#000" fill="#fff" stroke="#fff" stroke-width="2" overflow="visible" opacity=".3" stroke-linecap="round" stroke-linejoin="round"/><path d="M-398.5 405.5l-1 3-1 1v3h1v1h1v-1h5v1h1v-1h1v-3l-1-1-1-3zm1 1h3l.667 2h-4.334zm-1.5 4c.276 0 .5.224.5.5s-.224.5-.5.5-.5-.224-.5-.5.224-.5.5-.5zm6 0c.276 0 .5.224.5.5s-.224.5-.5.5-.5-.224-.5-.5.224-.5.5-.5z" color="#000" fill="#444" overflow="visible"/></svg><svg width="24" height="24" viewBox="0 0 12 12" id="cemetery-12" x="213" y="33"><g color="#000"><path d="M6.5 2C4.635 2 4 3.286 4 4.786V8.5c-.5 0-1 .5-1 1v.5h7v-.5c0-.5-.5-1-1-1V5c0-1.714-.635-3-2.5-3z" opacity=".3" fill="#fff" stroke="#fff" stroke-width="2" stroke-linejoin="round" overflow="visible"/><path d="M6.5 2C4.635 2 4 3.286 4 4.786V8.5c-.5 0-1 .5-1 1v.5h7v-.5c0-.5-.5-1-1-1V5c0-1.714-.635-3-2.5-3z" fill="#444" overflow="visible"/><path opacity=".5" fill="none" overflow="visible" d="M0 0h12v12H0z"/></g></svg><svg width="24" height="24" viewBox="0 0 12 12" id="chemist-12" x="243" y="33"><path d="M4 1v1h1v2l-3 6h9L8 4V2h1V1H4zm2 1h1v2l1.5 3h-4L6 4V2z" opacity=".3" fill="none" stroke="#fff" stroke-width="2" stroke-linecap="round" stroke-linejoin="round" color="#000" overflow="visible"/><path d="M4 1v1h1v2l-3 6h9L8 4V2h1V1H4zm2 1h1v2l1.5 3h-4L6 4V2z" opacity=".99" fill="#454545" fill-rule="evenodd"/></svg><svg width="24" height="24" viewBox="0 0 12 12" id="cinema-12" x="273" y="33"><g color="#000"><path d="M9.5 1.5l-7 2L3 5l7-2-.5-1.5zM3 5v4.5c0 .308.192.5.5.5h6c.308 0 .5-.192.5-.5V5H3zm1 1h5v1H4V6z" opacity=".3" fill="#fff" stroke="#fff" stroke-width="2" stroke-linecap="round" stroke-linejoin="round" overflow="visible"/><path d="M9.5 1.5l-7 2L3 5l7-2-.5-1.5zM3 5v4.5c0 .308.192.5.5.5h6c.308 0 .5-.192.5-.5V5H3zm1 1h5v1H4V6z" fill="#444" overflow="visible"/><path opacity=".5" fill="none" overflow="visible" d="M0 0h12v12H0z"/></g></svg><svg width="24" height="24" viewBox="0 0 12 12" id="circle-12" x="303" y="33"><g color="#000"><path d="M2.01 5.494c0 2.483 2.013 4.497 4.496 4.497 2.483 0 4.496-2.013 4.496-4.496C11.002 3.01 8.99.998 6.506.998 4.023.998 2.01 3.01 2.01 5.494z" opacity=".3" fill="#fff" stroke="#fff" stroke-width="1.998515" overflow="visible"/><path d="M2.01 5.494c0 2.483 2.013 4.497 4.496 4.497 2.483 0 4.496-2.013 4.496-4.496C11.002 3.01 8.99.998 6.506.998 4.023.998 2.01 3.01 2.01 5.494z" fill="#444" overflow="visible"/><path opacity=".5" fill="none" overflow="visible" d="M0 0h12v12H0z"/></g></svg><svg width="24" height="24" viewBox="0 0 12 12" id="circle-stroked-12" x="3" y="63"><g color="#000"><path opacity=".5" fill="none" overflow="visible" d="M0 0h12v12H0z"/><path d="M6.5 1C8.985 1 11 3.015 11 5.5S8.985 10 6.5 10 2 7.985 2 5.5 4.015 1 6.5 1zm0 1C4.567 2 3 3.567 3 5.5S4.567 9 6.5 9 10 7.433 10 5.5 8.433 2 6.5 2z" opacity=".3" fill="#fff" stroke="#fff" stroke-width="2" overflow="visible"/><path d="M6.5 1C8.985 1 11 3.015 11 5.5S8.985 10 6.5 10 2 7.985 2 5.5 4.015 1 6.5 1zm0 1C4.567 2 3 3.567 3 5.5S4.567 9 6.5 9 10 7.433 10 5.5 8.433 2 6.5 2z" fill="#444" overflow="visible"/></g></svg><svg width="24" height="24" viewBox="0 0 12 12" id="city-12" x="33" y="63"><path opacity=".5" color="#000" fill="none" overflow="visible" d="M0 0h12v12H0z"/></svg><svg width="24" height="24" viewBox="0 0 12 12" id="clothing-store-12" x="63" y="63"><g fill="#444"><path d="M4 1L3 2 2 4v1h2v5h5V5h2V4l-1-2-1-1H8v.75C8 2.25 7.5 3 6.5 3S5 2.25 5 1.75V1z" stroke="#fff" stroke-linecap="round" stroke-linejoin="round" opacity=".3" stroke-width="2"/><path d="M4 1L3 2 2 4v1h2v5h5V5h2V4l-1-2-1-1H8v.75C8 2.25 7.5 3 6.5 3S5 2.25 5 1.75V1z"/></g></svg><svg width="24" height="24" viewBox="0 0 12 12" id="college-12" x="93" y="63"><g color="#000"><path d="M6.5 2L2 4.5 6.5 7 9 5.5v1.25L6.5 8 4 6.75V8l2.5 1.5L9 8c0 .5 1 .5 1 .5V8s-.5-.03-.5-.5v-2l1.5-1z" opacity=".3" fill="none" stroke="#fff" stroke-width="2" stroke-linecap="round" stroke-linejoin="round" overflow="visible"/><path d="M6.5 2L2 4.5 6.5 7 9 5.5v1.25L6.5 8 4 6.75V8l2.5 1.5L9 8c0 .5 1 .5 1 .5V8s-.5-.03-.5-.5v-2l1.5-1z" fill="#444" overflow="visible"/><path opacity=".5" fill="none" overflow="visible" d="M0 0h12v12H0z"/></g></svg><svg width="24" height="24" viewBox="0 0 12 12" id="commercial-12" x="123" y="63"><path color="#000" fill="none" overflow="visible" d="M0 0h12v12H0z"/></svg><svg width="24" height="24" viewBox="0 0 12 12" id="cricket-12" x="153" y="63"><g color="#000"><path d="M4 1.25S3.5 1.5 3 2s-.75 1-.75 1l5 5H8.5l2 2h.5v-.5l-2-2V6.25l-5-5zM3 6.5c-.552 0-1 .448-1 1s.448 1 1 1 1-.448 1-1-.448-1-1-1z" opacity=".3" fill="none" stroke="#fff" stroke-width="2" stroke-linecap="round" stroke-linejoin="round" overflow="visible"/><path d="M4 1.25S3.5 1.5 3 2s-.75 1-.75 1l5 5H8.5l2 2h.5v-.5l-2-2V6.25l-5-5zM3 6.5c-.552 0-1 .448-1 1s.448 1 1 1 1-.448 1-1-.448-1-1-1z" fill="#444" overflow="visible"/><path opacity=".5" fill="none" overflow="visible" d="M0 0h12v12H0z"/></g></svg><svg width="24" height="24" viewBox="0 0 12 12" id="cross-12" x="183" y="63"><g color="#000"><g font-family="Sans"><path style="text-indent:0;text-align:start;line-height:normal;text-transform:none;block-progression:tb;-inkscape-font-specification:Sans" d="M2.5 1c-.25 0-.5.25-.5.5 0 .125.04.244.14.344L5.798 5.5 2.14 9.156c-.1.1-.14.22-.14.344 0 .25.25.5.5.5.125 0 .25-.03.36-.14L6.5 6.22l3.64 3.64c.11.11.235.14.36.14.25 0 .5-.25.5-.5 0-.124-.04-.244-.14-.344L7.202 5.5l3.656-3.656c.1-.1.14-.22.14-.344 0-.25-.25-.5-.5-.5-.125 0-.25.03-.36.14L6.5 4.78 2.86 1.14C2.75 1.03 2.624 1 2.5 1z" opacity=".3" fill="#fff" stroke="#fff" stroke-width="2" stroke-linejoin="round" overflow="visible"/><path d="M2.5 1c-.25 0-.5.25-.5.5 0 .125.04.244.14.344L5.798 5.5 2.14 9.156c-.1.1-.14.22-.14.344 0 .25.25.5.5.5.125 0 .25-.03.36-.14L6.5 6.22l3.64 3.64c.11.11.235.14.36.14.25 0 .5-.25.5-.5 0-.124-.04-.244-.14-.344L7.202 5.5l3.656-3.656c.1-.1.14-.22.14-.344 0-.25-.25-.5-.5-.5-.125 0-.25.03-.36.14L6.5 4.78 2.86 1.14C2.75 1.03 2.624 1 2.5 1z" style="text-indent:0;text-align:start;line-height:normal;text-transform:none;block-progression:tb;-inkscape-font-specification:Sans" fill="#444" overflow="visible"/></g><path opacity=".5" fill="none" overflow="visible" d="M0 0h12v12H0z"/></g></svg><svg width="24" height="24" viewBox="0 0 12 12" id="dam-12" x="213" y="63"><path opacity=".5" color="#000" fill="none" overflow="visible" d="M0 0h12v12H0z"/></svg><svg width="24" height="24" viewBox="0 0 12 12" id="danger-12" x="243" y="63"><g color="#000"><path d="M5.5 1L4 2.5v2l1 1V6l1.5 1L8 6v-.5l1-1v-2L7.5 1zM5 3h1v.5H5zm2 0h1v.5H7zM2 6v1l.56.28L5 8.5 2 10v1h.5L8 8.5 11 7V6h-.5l-3 1.5L7 8H6l-.5-.5-3-1.5zm7 3l-1.5.5 3 1.5h.5v-1z" opacity=".3" fill="#fff" stroke="#fff" stroke-width="2" stroke-linecap="round" stroke-linejoin="round" overflow="visible"/><path d="M5.5 1L4 2.5v2l1 1V6l1.5 1L8 6v-.5l1-1v-2L7.5 1zM5 3h1v.5H5zm2 0h1v.5H7zM2 6v1l.56.28L5 8.5 2 10v1h.5L8 8.5 11 7V6h-.5l-3 1.5L7 8H6l-.5-.5-3-1.5zm7 3l-1.5.5 3 1.5h.5v-1z" fill="#444" overflow="visible"/><path opacity=".5" fill="none" overflow="visible" d="M0 0h12v12H0z"/></g></svg><svg width="24" height="24" viewBox="0 0 12 12" id="disability-12" x="273" y="63"><g color="#000"><path d="M5.5 1C4.672 1 4 1.672 4 2.5 4 3.33 4.672 4 5.5 4S7 3.33 7 2.5C7 1.672 6.328 1 5.5 1zM5 4.5V8h3.25L10 10h1v-.5L9 7H7.344L6.5 4.5H5zM4 5c-1.166.412-2 1.694-2 3 0 1.657 1.343 3 3 3 1.368 0 2.514-.77 2.875-2h-1.03c-.325.642-.903 1-1.72 1C3.95 10 3 9.05 3 7.875c0-.76.402-1.5 1-1.875V5z" opacity=".3" fill="none" stroke="#fff" stroke-width="2" stroke-linecap="round" stroke-linejoin="round" overflow="visible"/><path d="M5.5 1C4.672 1 4 1.672 4 2.5 4 3.33 4.672 4 5.5 4S7 3.33 7 2.5C7 1.672 6.328 1 5.5 1zM5 4.5V8h3.25L10 10h1v-.5L9 7H7.344L6.5 4.5H5zM4 5c-1.166.412-2 1.694-2 3 0 1.657 1.343 3 3 3 1.368 0 2.514-.77 2.875-2h-1.03c-.325.642-.903 1-1.72 1C3.95 10 3 9.05 3 7.875c0-.76.402-1.5 1-1.875V5z" fill="#444" overflow="visible"/><path fill="none" overflow="visible" d="M0 0h12v12H0z"/></g></svg><svg width="24" height="24" viewBox="0 0 12 12" id="dog-park-12" x="303" y="63"><path opacity=".3" fill="#FFF" d="M7.906 1.5c-.174.037-.323.174-.375.344l-.5 1.5-.468 1.437-.28-.186C6.2 4.534 6.1 4.502 6 4.5H4.5v-.313l.844-.843c.263-.277.038-.83-.344-.844H4c-.13.005-.255.062-.344.156l-1 1c-.094.09-.15.215-.156.344V7l-.97 2.844c-.096.297.157.652.47.656h1c.182-.005.358-.117.438-.28l.062-.126c.044.23.267.41.5.406h1c.233.004.456-.177.5-.406.044.23.267.41.5.406h1c.207-.003.404-.147.47-.344l.03-.062c.044.23.267.41.5.406h1c.262 0 .5-.238.5-.5V7c-.002-.16-.087-.316-.22-.406L9.126 6.5H10c.13-.005.255-.062.344-.156l1-1c.094-.09.15-.215.156-.344V4c0-.262-.238-.5-.5-.5h-.813L9.5 2.812V2c0-.262-.238-.5-.5-.5H8c-.03-.003-.063-.003-.094 0z"/></svg><svg width="24" height="24" viewBox="0 0 12 12" id="embassy-12" x="3" y="93"><path opacity=".5" color="#000" fill="none" overflow="visible" d="M0 0h12v12H0z"/></svg><svg width="24" height="24" viewBox="0 0 12 12" id="emergency-telephone-12" x="33" y="93"><path color="#000" fill="none" overflow="visible" d="M0 0h12v12H0z"/></svg><svg width="24" height="24" viewBox="0 0 12 12" id="entrance-12" x="63" y="93"><path style="text-indent:0;text-align:start;line-height:normal;text-transform:none;block-progression:tb;-inkscape-font-specification:Sans" d="M2.813 11c-.46-.088-.82-.533-.813-1V7H1c-.524 0-1-.476-1-1V5c0-.524.476-1 1-1h1V1c0-.524.476-1 1-1h7c.524 0 1 .476 1 1v9c0 .524-.476 1-1 1H2.812z" opacity=".3" color="#000" fill="#fff" overflow="visible" font-family="Sans"/></svg><svg width="24" height="24" viewBox="0 0 12 12" id="farm-12" x="93" y="93"><path opacity=".5" color="#000" fill="none" overflow="visible" d="M0 0h12v12H0z"/></svg><svg width="24" height="24" viewBox="0 0 12 12" id="fast-food-12" x="123" y="93"><g color="#000"><path d="M5.5 3c-1.42 0-3.15.872-3.053 2.053V6.25H10.5V5.053C10.5 3.87 8.92 3 7.5 3zM2 7v1h9V7zm.5 1.75c0 .474.526 1.25 1 1.25h6c.474 0 1-.776 1-1.25z" opacity=".3" fill="none" stroke="#fff" stroke-width="2" stroke-linecap="round" stroke-linejoin="round" overflow="visible"/><path d="M5.5 3c-1.42 0-3.15.872-3.053 2.053V6.25H10.5V5.053C10.5 3.87 8.92 3 7.5 3zM2 7v1h9V7zm.5 1.75c0 .474.526 1.25 1 1.25h6c.474 0 1-.776 1-1.25z" fill="#444" overflow="visible"/><path opacity=".5" fill="none" overflow="visible" d="M0 0h12v12H0z"/></g></svg><svg width="24" height="24" viewBox="0 0 12 12" id="ferry-12" x="153" y="93"><g color="#000"><path d="M3.5 1c-.277 0-.5.223-.5.5V5l-1 .5 1 2v1L5 9l1.5-.5L8 9l2-.5v-1l1-2-1-.47V1.5c0-.277-.223-.5-.5-.5h-5zM4 2h5v2.563L6.5 3 4 4.5zm-.5 7.5L2 9.968V11l.156-.062L3.5 10.5 5 11l1.5-.5L8 11l1.5-.5 1.5.5V9.97L9.5 9.5 8 9.97 6.5 9.5 5 9.97z" opacity=".3" fill="#fff" stroke="#fff" stroke-width="2" stroke-linejoin="round" overflow="visible"/><path d="M3.5 1c-.277 0-.5.223-.5.5V5l-1 .5 1 2v1L5 9l1.5-.5L8 9l2-.5v-1l1-2-1-.47V1.5c0-.277-.223-.5-.5-.5h-5zM4 2h5v2.563L6.5 3 4 4.5zm-.5 7.5L2 9.968V11l.156-.062L3.5 10.5 5 11l1.5-.5L8 11l1.5-.5 1.5.5V9.97L9.5 9.5 8 9.97 6.5 9.5 5 9.97z" fill="#444" overflow="visible"/><path opacity=".3" fill="none" overflow="visible" d="M0 0h12v12H0z"/></g></svg><svg width="24" height="24" viewBox="0 0 12 12" id="fire-station-12" x="183" y="93"><g color="#000"><path d="M6.5 1L5 4 3.5 2.5C3.17 3.083 2 4.5 2 6c0 2.21 2.29 4 4.5 4S11 8.21 11 6c0-1.5-1.17-2.917-1.5-3.5L8 4z" opacity=".3" fill="#fff" stroke="#fff" stroke-width="2" stroke-linecap="round" stroke-linejoin="round" overflow="visible"/><path d="M6.5 1L5 4 3.5 2.5C3.17 3.083 2 4.5 2 6c0 2.21 2.29 4 4.5 4S11 8.21 11 6c0-1.5-1.17-2.917-1.5-3.5L8 4zm0 4.5S8 6.842 8 8c0 .5-.5 1-1.5 1S5 8.5 5 8c0-1.118 1.5-2.5 1.5-2.5z" fill="#444" overflow="visible"/><path opacity=".5" fill="none" overflow="visible" d="M0 0h12v12H0z"/></g></svg><svg width="24" height="24" viewBox="0 0 12 12" id="fuel-12" x="213" y="93"><g color="#000"><path d="M4.5 1c-.277 0-.5.223-.5.5v8c0 .25.25.5.5.5h4c.25 0 .5-.25.5-.5V9h1.25c.5 0 .75-.25.75-.75V5.5c0-.5-1-1-1-1.5V3L9 2v-.5c0-.277-.223-.5-.5-.5h-4zM5 2h3v2H5V2zm4 1.5h.5v.75c0 .5 1 1 1 1.5v2.5c0 .25-.25.25-.25.25H9.5V7H9V3.5z" opacity=".3" fill="#fff" stroke="#fff" stroke-width="2" stroke-linejoin="round" overflow="visible"/><path d="M4.5 1c-.277 0-.5.223-.5.5v8c0 .25.25.5.5.5h4c.25 0 .5-.25.5-.5V9h1.25c.5 0 .75-.25.75-.75V5.5c0-.5-1-1-1-1.5V3L9 2v-.5c0-.277-.223-.5-.5-.5h-4zM5 2h3v2H5V2zm4 1.5h.5v.75c0 .5 1 1 1 1.5v2.5c0 .25-.25.25-.25.25H9.5V7H9V3.5z" fill="#444" overflow="visible"/><path opacity=".5" fill="none" overflow="visible" d="M0 0h12v12H0z"/></g></svg><svg width="24" height="24" viewBox="0 0 12 12" id="garden-12" x="243" y="93"><g color="#000"><g fill="#444"><path d="M4 1v2c0 .867.935 1.754 2 1.97V9c-.5-1-1.5-2-3-1 0 0 1 2 3.5 2S10 8 10 8C8.5 7 7.5 8 7 9V4.97C8.065 4.753 9 3.866 9 3V1L7.437 2.25 6.5 1l-.938 1.25L4 1z" opacity=".3" stroke="#fff" stroke-width="2" stroke-linecap="round" stroke-linejoin="round" overflow="visible"/><path d="M4 1v2c0 .867.935 1.754 2 1.97V9c-.5-1-1.5-2-3-1 0 0 1 2 3.5 2S10 8 10 8C8.5 7 7.5 8 7 9V4.97C8.065 4.753 9 3.866 9 3V1L7.437 2.25 6.5 1l-.938 1.25L4 1z" overflow="visible"/></g><path opacity=".5" fill="none" overflow="visible" d="M0 0h12v12H0z"/></g></svg><svg width="24" height="24" viewBox="-402.5 403.5 12 12" id="gift-12" x="273" y="93"><g opacity=".3" fill="#FFF" stroke="#FFF" stroke-width="2" stroke-miterlimit="10"><path d="M-399 408.498c-.276 0-.5.224-.5.5v1.496l2.5.006v-1.996l-2-.006zM-394 408.498c.276 0 .5.224.5.5v1.496l-2.5.006v-1.996l2-.006zM-399 413.5c-.276 0-.5-.224-.5-.5v-1.506l2.5.006v2.006l-2-.006zM-394 413.5c.276 0 .5-.224.5-.5v-1.506l-2.5.006v2.006l2-.006zM-394.97 405.502c-.733 0-1.26.505-1.53 1-.272-.495-.798-1.002-1.53-1.002-.46 0-.97.405-.97.986 0 .636.362 1.016.97 1.016l1.828.002h1.233c.607 0 .97-.38.97-1.016 0-.58-.51-.986-.97-.986zm-3.06 1.5c-.245 0-.47-.062-.47-.516 0-.324.3-.486.47-.486.66 0 1.034.613 1.18 1l-1.18.002zm3.06.002h-1.18c.147-.388.52-1.002 1.18-1.002.17 0 .47.162.47.486 0 .453-.225.516-.47.516z"/></g><g fill="#454545"><path d="M-399 408.498c-.276 0-.5.224-.5.5v1.496l2.5.006v-1.996l-2-.006zM-394 408.498c.276 0 .5.224.5.5v1.496l-2.5.006v-1.996l2-.006zM-399 413.5c-.276 0-.5-.224-.5-.5v-1.506l2.5.006v2.006l-2-.006zM-394 413.5c.276 0 .5-.224.5-.5v-1.506l-2.5.006v2.006l2-.006zM-394.97 405.502c-.733 0-1.26.505-1.53 1-.272-.495-.798-1.002-1.53-1.002-.46 0-.97.405-.97.986 0 .636.362 1.016.97 1.016l1.828.002h1.233c.607 0 .97-.38.97-1.016 0-.58-.51-.986-.97-.986zm-3.06 1.5c-.245 0-.47-.062-.47-.516 0-.324.3-.486.47-.486.66 0 1.034.613 1.18 1l-1.18.002zm3.06.002h-1.18c.147-.388.52-1.002 1.18-1.002.17 0 .47.162.47.486 0 .453-.225.516-.47.516z"/></g></svg><svg width="24" height="24" viewBox="0 0 12 12" id="golf-12" x="303" y="93"><g color="#000"><path d="M5 1c-.195 0-.5.214-.5.5v7.75c-1.143.035-1.5.893-1.5 1.464 0 .286.286.286.286.286h6.428S10 11 10 10.714c0-1.428-.643-2.57-1.5-2.57-.898 0-1.182 1.588-2.07 1.713-.392.055-1.054-.197-1.43-.393V4.5L9 3z" opacity=".3" fill="none" stroke="#fff" stroke-width="2" stroke-linecap="round" stroke-linejoin="round" overflow="visible"/><path d="M5 1c-.195 0-.5.214-.5.5v7.75c-1.143.035-1.5.893-1.5 1.464 0 .286.286.286.286.286h6.428S10 11 10 10.714c0-1.428-.643-2.57-1.5-2.57-.898 0-1.182 1.588-2.07 1.713-.392.055-1.054-.197-1.43-.393V4.5L9 3z" fill="#444" overflow="visible"/><path opacity=".5" fill="none" overflow="visible" d="M0 0h12v12H0z"/></g></svg><svg width="24" height="24" viewBox="0 0 12 12" id="grocery-12" x="3" y="123"><g color="#000"><path d="M10.5 2c-.292 0-.55.082-.734.266C9.582 2.45 9.5 2.71 9.5 3H2l1 4h6.5v1H3.367c-.5 0-.5.5 0 .5H9.5c.25 0 .5-.25.5-.5V3s.043-.324.11-.39c.065-.066.182-.11.39-.11h.5V2h-.5zM8.75 8.5c-.414 0-.75.336-.75.75s.336.75.75.75.75-.336.75-.75-.336-.75-.75-.75zm-4.5 0c-.414 0-.75.336-.75.75s.336.75.75.75.75-.336.75-.75-.336-.75-.75-.75z" opacity=".3" fill="#fff" stroke="#fff" stroke-width="2" stroke-linecap="round" stroke-linejoin="round" overflow="visible"/><path d="M10.5 2c-.292 0-.55.082-.734.266C9.582 2.45 9.5 2.71 9.5 3H2l1 4h6.5v1H3.367c-.5 0-.5.5 0 .5H9.5c.25 0 .5-.25.5-.5V3s.043-.324.11-.39c.065-.066.182-.11.39-.11h.5V2h-.5zM8.75 8.5c-.414 0-.75.336-.75.75s.336.75.75.75.75-.336.75-.75-.336-.75-.75-.75zm-4.5 0c-.414 0-.75.336-.75.75s.336.75.75.75.75-.336.75-.75-.336-.75-.75-.75z" fill="#444" overflow="visible"/><path opacity=".5" fill="none" overflow="visible" d="M0 0h12v12H0z"/></g></svg><svg width="24" height="24" viewBox="0 0 12 12" id="hairdresser-12" x="33" y="123"><g color="#000"><path d="M3 2c-.552 0-1 .448-1 1s.448 1 1 1c.178 0 .324-.075.47-.156l.53.468v2.282l-.563.53C3.303 7.057 3.163 7 3 7c-.552 0-1 .448-1 1s.448 1 1 1 1-.448 1-1c0-.08-.044-.143-.063-.22L11 2H8.5L5.437 4.437l-1.5-1.218C3.958 3.142 4 3.08 4 3c0-.552-.448-1-1-1zm4.438 4.094l-1.25 1.03L8.5 9H11z" opacity=".3" fill="#fff" stroke="#fff" stroke-width="2" stroke-linejoin="round" overflow="visible"/><path d="M3 2c-.552 0-1 .448-1 1s.448 1 1 1c.178 0 .324-.075.47-.156l.53.468v2.282l-.563.53C3.303 7.057 3.163 7 3 7c-.552 0-1 .448-1 1s.448 1 1 1 1-.448 1-1c0-.08-.044-.143-.063-.22L11 2H8.5L5.437 4.437l-1.5-1.218C3.958 3.142 4 3.08 4 3c0-.552-.448-1-1-1zm4.438 4.094l-1.25 1.03L8.5 9H11z" fill="#444" overflow="visible"/></g></svg><svg width="24" height="24" viewBox="0 0 12 12" id="harbor-12" x="63" y="123"><g color="#000"><path d="M8 1L7 2v1.938L3.594 7.344C3.248 6.89 3 6.5 3 6V5l1 .5V3L2 4.5V10h5.5L9 8H6.5L7 9H6c-.5 0-.89-.247-1.344-.594L8.063 5H10l1-1V2l-1-1zm.5 1h1l.5.5v1l-.5.5-1 .015L8 3.5v-1z" opacity=".3" fill="#fff" stroke="#fff" stroke-width="2" stroke-linejoin="round" overflow="visible"/><path d="M8 1L7 2v1.938L3.594 7.344C3.248 6.89 3 6.5 3 6V5l1 .5V3L2 4.5V10h5.5L9 8H6.5L7 9H6c-.5 0-.89-.247-1.344-.594L8.063 5H10l1-1V2l-1-1zm.5 1h1l.5.5v1l-.5.5-1 .015L8 3.5v-1z" fill="#444" overflow="visible"/><path opacity=".3" fill="none" overflow="visible" d="M0 0h12v12H0z"/></g></svg><svg width="24" height="24" viewBox="0 0 12 12" id="heart-12" x="93" y="123"><path d="M2.813 1.008c-.304.053-.578.255-.718.53l-1 1.997c-.07.145-.1.307-.094.468V5c0 .118.023.235.063.344l1 2.652c.058.13.144.25.25.343l3.5 3.4c.367.347 1.007.347 1.374 0l3.5-3.4c.106-.096.192-.213.25-.344l1-2.652c.04-.11.062-.226.062-.343v-.997c.006-.16-.026-.323-.095-.468l-1-1.997c-.172-.325-.537-.54-.906-.53H8c-.31-.01-.62.133-.813.374l-.687.905-.687-.905C5.62 1.142 5.31.998 5 1.008H3c-.062-.01-.125-.01-.187 0z" style="text-indent:0;text-align:start;line-height:normal;text-transform:none;block-progression:tb;-inkscape-font-specification:Sans" opacity=".3" color="#000" fill="#fff" overflow="visible" font-family="Sans"/><path d="M10 2l1 2v1l-1 2.644-3.5 3.386L3 7.644 2 5V4l1-2h2l1.5 2L8 2z" fill="#444"/></svg><svg width="24" height="24" viewBox="0 0 12 12" id="heliport-12" x="123" y="123"><g color="#000"><path d="M6.625 9H10.5c.25 0 .5-.25.5-.5V7c0-.5-.24-.74-.5-1l-.5-.5c-.167-.166-.5-.5-1-.5H8V4h2.5c.277 0 .5-.223.5-.5s-.223-.5-.5-.5h-6c-.277 0-.5.223-.5.5s.223.5.5.5H7v1H3.86c-.174-.298-.49-.5-.86-.5-.552 0-1 .448-1 1s.448 1 1 1c.29 0 .536-.132.72-.328L5.5 8c.5.513.875 1 1.125 1zM3 5c.276 0 .5.224.5.5S3.276 6 3 6s-.5-.224-.5-.5.224-.5.5-.5z" opacity=".3" fill="none" stroke="#fff" stroke-width="2" stroke-linecap="round" stroke-linejoin="round" overflow="visible"/><path d="M6.625 9H10.5c.25 0 .5-.25.5-.5V7c0-.5-.24-.74-.5-1l-.5-.5c-.167-.166-.5-.5-1-.5H8V4h2.5c.277 0 .5-.223.5-.5s-.223-.5-.5-.5h-6c-.277 0-.5.223-.5.5s.223.5.5.5H7v1H3.86c-.174-.298-.49-.5-.86-.5-.552 0-1 .448-1 1s.448 1 1 1c.29 0 .536-.132.72-.328L5.5 8c.5.513.875 1 1.125 1zM3 5c.276 0 .5.224.5.5S3.276 6 3 6s-.5-.224-.5-.5.224-.5.5-.5z" fill="#444" overflow="visible"/><path opacity=".5" fill="none" overflow="visible" d="M0 0h12v12H0z"/></g></svg><svg width="24" height="24" viewBox="0 0 12 12" id="hospital-12" x="153" y="123"><path d="M2 5c0-.554.446-1 1-1h2V2c0-.554.446-1 1-1h1c.554 0 1 .446 1 1v2h2c.554 0 1 .446 1 1v1c0 .554-.446 1-1 1H8v2c0 .554-.446 1-1 1H6c-.554 0-1-.446-1-1V7H3c-.554 0-1-.446-1-1z" overflow="visible" opacity=".3" color="#000" fill="none" stroke="#fff" stroke-width="2"/><path d="M2 5c0-.554.446-1 1-1h2V2c0-.554.446-1 1-1h1c.554 0 1 .446 1 1v2h2c.554 0 1 .446 1 1v1c0 .554-.446 1-1 1H8v2c0 .554-.446 1-1 1H6c-.554 0-1-.446-1-1V7H3c-.554 0-1-.446-1-1z" color="#000" fill="#444" overflow="visible"/><path opacity=".5" color="#000" fill="none" overflow="visible" d="M0 0h12v12H0z"/></svg><svg width="24" height="24" viewBox="-402.5 403.5 12 12" id="ice-cream-12" x="183" y="123"><g opacity=".3" fill="#FFF" stroke="#FFF" stroke-width="2" stroke-miterlimit="10"><path d="M-399.452 407.426c.005.024.016.046.02.07.03.114.067.228.116.333.006.012.014.022.02.035.057.115.123.227.2.33 0 0 .002 0 .003.003.084.11.18.21.283.302h2.62c.42-.366.69-.9.69-1.5 0-.738-.405-1.377-1-1.723-.136-.08-.282-.14-.434-.186-.022-.006-.045-.015-.068-.02-.16-.043-.325-.07-.5-.07-1.103 0-2 .896-2 2 .002.146.02.29.05.426zM-394.75 407c0 .554-.167 1.068-.45 1.5h1.01c.42-.366.69-.9.69-1.5 0-1.104-.896-2-2-2-.037 0-.07.013-.106.015.525.5.856 1.204.856 1.985zM-398.5 409.5c1 2.5 1.5 4.5 2 4.5s1-2 2-4.5h-4z"/></g><g fill="#464545"><path d="M-399.452 407.426c.005.024.016.046.02.07.03.114.067.228.116.333.006.012.014.022.02.035.057.115.123.227.2.33 0 0 .002 0 .003.003.084.11.18.21.283.302h2.62c.42-.366.69-.9.69-1.5 0-.738-.405-1.377-1-1.723-.136-.08-.282-.14-.434-.186-.022-.006-.045-.015-.068-.02-.16-.043-.325-.07-.5-.07-1.103 0-2 .896-2 2 .002.146.02.29.05.426zM-394.75 407c0 .554-.167 1.068-.45 1.5h1.01c.42-.366.69-.9.69-1.5 0-1.104-.896-2-2-2-.037 0-.07.013-.106.015.525.5.856 1.204.856 1.985z"/></g><path fill="#464545" d="M-398.5 409.5c1 2.5 1.5 4.5 2 4.5s1-2 2-4.5h-4z"/></svg><svg width="24" height="24" viewBox="0 0 12 12" id="industrial-12" x="213" y="123"><g color="#000"><path d="M9 1v4H8V3L5 5V3L2 5V9.43c0 .315.255.57.57.57h7.86c.315 0 .57-.255.57-.57V5.57c0-.317-.255-.572-.57-.572H10V1z" opacity=".3" fill="#fff" stroke="#fff" stroke-width="2" stroke-linejoin="round" overflow="visible"/><path d="M9 1v4H8V3L5 5V3L2 5V9.43c0 .315.255.57.57.57h7.86c.315 0 .57-.255.57-.57V5.57c0-.317-.255-.572-.57-.572H10V1z" fill="#444" overflow="visible"/><path fill="none" overflow="visible" d="M0 0h12v12H0z"/></g></svg><svg width="24" height="24" viewBox="0 0 12 12" id="land-use-12" x="243" y="123"><path opacity=".5" color="#000" fill="none" overflow="visible" d="M0 0h12v12H0z"/></svg><svg width="24" height="24" viewBox="-402.5 403.5 12 12" id="laundry-12" x="273" y="123"><path style="text-indent:0;text-align:start;line-height:normal;text-transform:none;block-progression:tb;-inkscape-font-specification:Sans" d="M-396.594 403.5c-.232.017-.458.118-.625.28l-1.717 1.72h-.563c-.524 0-1 .476-1 1v7c0 .524.476 1 1 1h7c.524 0 1-.476 1-1v-9c0-.524-.476-1-1-1h-4.094z" color="#000" fill="#fff" overflow="visible" font-family="Sans" opacity=".3"/></svg><svg width="24" height="24" viewBox="0 0 12 12" id="library-12" x="303" y="123"><g color="#000"><path d="M2 2v6c1.5 1.5 3.75 1 3.75 2h.5V4.5C6.25 3 3.5 3 2 2zm9 0C9.5 3 6.75 3 6.75 4.5V10h.5c0-1 2.25-.5 3.75-2z" opacity=".3" fill="none" stroke="#fff" stroke-width="2" stroke-linecap="round" stroke-linejoin="round" overflow="visible"/><path d="M2 2v6c1.5 1.5 3.75 1 3.75 2h.5V4.5C6.25 3 3.5 3 2 2zm9 0C9.5 3 6.75 3 6.75 4.5V10h.5c0-1 2.25-.5 3.75-2z" fill="#444" overflow="visible"/><path opacity=".5" fill="none" overflow="visible" d="M0 0h12v12H0z"/></g></svg><svg width="24" height="24" viewBox="0 0 12 12" id="lighthouse-12" x="3" y="153"/><svg width="24" height="24" viewBox="0 0 12 12" id="lodging-12" x="33" y="153"><g color="#000"><path d="M3 2c-.552 0-1 .448-1 1s.448 1 1 1 1-.448 1-1-.448-1-1-1zm2 1c0 1-.5 2-2 2h-.75C2.124 5 2 5 2 5.25v.5c0 .25.194.25.25.25H11V4.5C11 4 11 3 8.5 3zM2.5 7c-.25 0-.5.25-.5.5v1c0 .25.25.5.5.5s.5-.25.5-.5V8h7v.5c0 .25.25.5.5.5s.5-.25.5-.5v-1c0-.25-.25-.5-.5-.5z" opacity=".3" fill="none" stroke="#fff" stroke-width="2" stroke-linecap="round" stroke-linejoin="round" overflow="visible"/><path d="M3 2c-.552 0-1 .448-1 1s.448 1 1 1 1-.448 1-1-.448-1-1-1zm2 1c0 1-.5 2-2 2h-.75C2.124 5 2 5 2 5.25v.5c0 .25.194.25.25.25H11V4.5C11 4 11 3 8.5 3zM2.5 7c-.25 0-.5.25-.5.5v1c0 .25.25.5.5.5s.5-.25.5-.5V8h7v.5c0 .25.25.5.5.5s.5-.25.5-.5v-1c0-.25-.25-.5-.5-.5z" fill="#444" overflow="visible"/><path opacity=".5" fill="none" overflow="visible" d="M0 0h12v12H0z"/></g></svg><svg width="24" height="24" viewBox="0 0 12 12" id="logging-12" x="63" y="153"><path opacity=".5" color="#000" fill="none" overflow="visible" d="M0 0h12v12H0z"/></svg><svg width="24" height="24" viewBox="0 0 12 12" id="london-underground-12" x="93" y="153"><g color="#000"><path d="M6.5 2C4.735 2 3.27 3.3 3.03 5H2v1h1.03c.24 1.7 1.705 3 3.47 3 1.765 0 3.23-1.3 3.47-3H11V5H9.97C9.73 3.3 8.264 2 6.5 2zm0 1.5c.932 0 1.716.637 1.938 1.5H4.562c.222-.863 1.006-1.5 1.938-1.5zM4.562 6h3.875c-.22.863-1.005 1.5-1.937 1.5-.932 0-1.716-.637-1.938-1.5z" opacity=".3" fill="#fff" stroke="#fff" stroke-width="2" stroke-linejoin="round" overflow="visible"/><path opacity=".5" fill="none" overflow="visible" d="M0 0h12v12H0z"/><path d="M6.5 2C4.735 2 3.27 3.3 3.03 5H2v1h1.03c.24 1.7 1.705 3 3.47 3 1.765 0 3.23-1.3 3.47-3H11V5H9.97C9.73 3.3 8.264 2 6.5 2zm0 1.5c.932 0 1.716.637 1.938 1.5H4.562c.222-.863 1.006-1.5 1.938-1.5zM4.562 6h3.875c-.22.863-1.005 1.5-1.937 1.5-.932 0-1.716-.637-1.938-1.5z" fill="#444" overflow="visible"/></g></svg><svg width="24" height="24" viewBox="0 0 12 12" id="marker-12" x="123" y="153"><g color="#000"><path opacity=".5" fill="none" overflow="visible" d="M0 0h12v12H0z"/><path d="M6.5 1C4.886 1 3 2 3 4.5 3 6.25 5.75 10 6.5 11c.75-1 3.5-4.75 3.5-6.5C10 2 8.114 1 6.5 1z" opacity=".3" fill="#fff" stroke="#fff" stroke-width="2" stroke-linejoin="round" overflow="visible"/><path d="M6.5 1C4.886 1 3 2 3 4.5 3 6.25 5.75 10 6.5 11c.75-1 3.5-4.75 3.5-6.5C10 2 8.114 1 6.5 1z" fill="#444" overflow="visible"/></g></svg><svg width="24" height="24" viewBox="0 0 12 12" id="marker-stroked-12" x="153" y="153"><g color="#000"><path d="M6.5 1C4.886 1 3 2 3 4.5 3 6.25 5.75 10 6.5 11c.75-1 3.5-4.75 3.5-6.5C10 2 8.114 1 6.5 1zm0 1C7.756 2 9 3 9 4.5c0 1.36-1.917 4.222-2.5 5-.583-.778-2.5-3.64-2.5-5C4 3 5.244 2 6.5 2z" opacity=".3" fill="#fff" stroke="#fff" stroke-width="2" stroke-linejoin="round" overflow="visible"/><path d="M6.5 1C4.886 1 3 2 3 4.5 3 6.25 5.75 10 6.5 11c.75-1 3.5-4.75 3.5-6.5C10 2 8.114 1 6.5 1zm0 1C7.756 2 9 3 9 4.5c0 1.36-1.917 4.222-2.5 5-.583-.778-2.5-3.64-2.5-5C4 3 5.244 2 6.5 2z" fill="#444" overflow="visible"/><path opacity=".5" fill="none" overflow="visible" d="M0 0h12v12H0z"/></g></svg><svg width="24" height="24" viewBox="0 0 12 12" id="minefield-12" x="183" y="153"><g color="#000"><path fill="none" overflow="visible" d="M0 0h12v12H0z"/><path d="M6.25 1L4.5 5l-3-2.5.813 4.094C2.587 7.487 2.9 8 3.5 8H5V7h2.5v1h1.406c.6 0 .892-.265 1.188-.906L11 2.5 7.5 5zM5.5 7.5v1.063c-1.145.12-2 .98-2 1.437v1l2.75.006L9 11v-1c0-.456-.855-1.317-2-1.437V7.5z" opacity=".3" fill="#fff" stroke="#fff" stroke-width="2" stroke-linecap="round" stroke-linejoin="round" overflow="visible"/><path d="M6.25 1L4.5 5l-3-2.5.813 4.094C2.587 7.487 2.9 8 3.5 8H5V7h2.5v1h1.406c.6 0 .892-.265 1.188-.906L11 2.5 7.5 5zM5.5 7.5v1.063c-1.145.12-2 .98-2 1.437v1l2.75.006L9 11v-1c0-.456-.855-1.317-2-1.437V7.5z" fill="#444" overflow="visible"/></g></svg><svg width="24" height="24" viewBox="0 0 12 12" id="mobilephone-12" x="213" y="153"><g transform="translate(0 -1040.362)"><path d="M5 1041.362v1H4v8h5.03v-8H6v-1H5z" fill="#fff" stroke="#fff" opacity=".3" color="#000" stroke-width="2" stroke-linejoin="round" overflow="visible"/><rect width="5.023" height="8" x="4" y="-1050.362" ry="0" transform="scale(1 -1)" fill="#44444f" fill-opacity=".941"/><rect width="1" height="1" x="5" y="1041.362" ry="0" fill="#44444f" fill-opacity=".941"/><path fill="#fff" d="M5 1045.362h3v-2H5z"/><rect width="1" height="1" x="5" y="1046.362" ry="0" fill="#fff"/><rect ry="0" y="1046.362" x="7" height="1" width="1" fill="#fff"/><rect ry="0" y="1048.362" x="5" height="1" width="1" fill="#fff"/><rect width="1" height="1" x="7" y="1048.362" ry="0" fill="#fff"/></g></svg><svg width="24" height="24" viewBox="0 0 12 12" id="monument-12" x="243" y="153"><g color="#000"><path d="M6.5 1S5 2.5 5 3v4h-.5c-.277 0-.464.226-.5.5V9h-.5c-.277 0-.5.223-.5.5v.5h7v-.5c0-.277-.223-.5-.5-.5H9V7.5c0-.277-.223-.5-.5-.5H8V3c0-.5-1.5-2-1.5-2z" opacity=".3" fill="#fff" stroke="#fff" stroke-width="2" stroke-linecap="round" stroke-linejoin="round" overflow="visible"/><path d="M6.5 1S5 2.5 5 3v4h-.5c-.277 0-.464.226-.5.5V9h-.5c-.277 0-.5.223-.5.5v.5h7v-.5c0-.277-.223-.5-.5-.5H9V7.5c0-.277-.223-.5-.5-.5H8V3c0-.5-1.5-2-1.5-2z" fill="#444" overflow="visible"/><path opacity=".5" fill="none" overflow="visible" d="M0 0h12v12H0z"/></g></svg><svg width="24" height="24" viewBox="0 0 12 12" id="museum-12" x="273" y="153"><g color="#000"><path d="M10 3L6.5 1 3 3v6l-1 1h9l-1-1V8zM4.5 5h.75c.25 0 .5.5.5.5L6.5 7l.75-1.5c.134-.27.25-.5.5-.5h.75c.277 0 .5.223.5.5V8c0 .25-.25.5-.5.5S8 8.25 8 8V6l-.75 1.5c-.12.24-.25.5-.75.5s-.63-.26-.75-.5L5 6v2c0 .25-.25.5-.5.5S4 8.25 4 8V5.5c0-.277.223-.5.5-.5z" opacity=".3" fill="#fff" stroke="#fff" stroke-width="2" stroke-linecap="round" stroke-linejoin="round" overflow="visible"/><path d="M6.5 1L3 3h7zm-3 3c-.277 0-.5.223-.5.5V9l-1 1h9l-1-1V4.5c0-.277-.223-.5-.5-.5zm1 1h.75c.25 0 .5.5.5.5L6.5 7l.75-1.5c.134-.27.25-.5.5-.5h.75c.277 0 .5.223.5.5V8c0 .25-.25.5-.5.5S8 8.25 8 8V6l-.75 1.5c-.12.24-.25.5-.75.5s-.63-.26-.75-.5L5 6v2c0 .25-.25.5-.5.5S4 8.25 4 8V5.5c0-.277.223-.5.5-.5z" fill="#444" overflow="visible"/><path opacity=".5" fill="none" overflow="visible" d="M0 0h12v12H0z"/></g></svg><svg width="24" height="24" viewBox="0 0 12 12" id="music-12" x="303" y="153"><path d="M5 2v5.5h-.5C3.672 7.5 3 8.172 3 9s.672 1.5 1.5 1.5S6 9.828 6 9V5h3v2.5h-.5C7.672 7.5 7 8.172 7 9s.672 1.5 1.5 1.5S10 9.828 10 9V2H5z" opacity=".3" color="#000" fill="#fff" stroke="#fff" stroke-width="2" stroke-linecap="round" stroke-linejoin="round" overflow="visible"/><path color="#000" fill="none" overflow="visible" d="M0 0h12v12H0z"/><path d="M5 2v5.5h-.5C3.672 7.5 3 8.172 3 9s.672 1.5 1.5 1.5S6 9.828 6 9V5h3v2.5h-.5C7.672 7.5 7 8.172 7 9s.672 1.5 1.5 1.5S10 9.828 10 9V2H5z" fill="#454545"/></svg><svg width="24" height="24" viewBox="0 0 12 12" id="oil-well-12" x="3" y="183"><g color="#000"><path d="M5 1l-3 9h1.5L4 8.47 6.5 7 9 8.47 9.5 10H11L8 1zm.5 3h2L8 5.53 7.28 6H7v.188l-.5.312-.5-.312V6h-.28L5 5.53zm-.78 2.375L5 6.5l.5.25L5 7l-.594.313L4.5 7v-.5h.187zm3.56 0l.032.125H8.5V7l.094.313L8 7l-.5-.25.5-.25z" opacity=".3" fill="#fff" stroke="#fff" stroke-width="2" stroke-linecap="round" stroke-linejoin="round" overflow="visible"/><path d="M5 1l-3 9h1.5L4 8.47 6.5 7 9 8.47 9.5 10H11L8 1zm.5 3h2L8 5.53 7.28 6H7v.188l-.5.312-.5-.312V6h-.28L5 5.53zm-.78 2.375L5 6.5l.5.25L5 7l-.594.313L4.5 7v-.5h.187zm3.56 0l.032.125H8.5V7l.094.313L8 7l-.5-.25.5-.25z" fill="#444" overflow="visible"/><path opacity=".5" fill="none" overflow="visible" d="M0 0h12v12H0z"/></g></svg><svg width="24" height="24" viewBox="0 0 12 12" id="park-12" x="33" y="183"><path opacity=".5" color="#000" fill="none" overflow="visible" d="M0 0h12v12H0z"/></svg><svg width="24" height="24" viewBox="0 0 12 12" id="park2-12" x="63" y="183"><g color="#000"><path d="M5.844 1C5.28 1.047 5 1.75 5 2.5c-1-.5-1.5-.25-1.5.75s1 1.25 1 1.25S3 4.254 3 5.75C3 6.44 3.81 7 4.5 7v1H6v3h1V8h1.5V7c1 0 1.5-.597 1.5-1.25C10 4.254 8.5 4.5 8.5 4.5s1-.25 1-1.25S8.5 2 8 2.5C8 1.5 7.5 1 6.5 1c-.25 0-.47-.016-.656 0zM5.5 7h2L7 8H6z" opacity=".3" fill="none" stroke="#fff" stroke-width="2" stroke-linecap="round" stroke-linejoin="round" overflow="visible"/><path d="M5.844 1C5.28 1.047 5 1.75 5 2.5c-1-.5-1.5-.25-1.5.75s1 1.25 1 1.25S3 4.254 3 5.75C3 6.44 3.81 7 4.5 7v1H6v3h1V8h1.5V7c1 0 1.5-.597 1.5-1.25C10 4.254 8.5 4.5 8.5 4.5s1-.25 1-1.25S8.5 2 8 2.5C8 1.5 7.5 1 6.5 1c-.25 0-.47-.016-.656 0zM5.5 7h2L7 8H6z" fill="#444" overflow="visible"/><path opacity=".5" fill="none" overflow="visible" d="M0 0h12v12H0z"/></g></svg><svg width="24" height="24" viewBox="0 0 12 12" id="parking-12" x="93" y="183"><g color="#000"><path fill="none" overflow="visible" d="M0 0h12v12H0z"/><g style="text-indent:0;text-align:center;line-height:125%;text-transform:none;block-progression:tb;-inkscape-font-specification:Open Sans Bold" font-size="9.333" font-weight="bold" text-anchor="middle" fill="#444" stroke-width="2" overflow="visible" font-family="Open Sans"><path d="M6.316 5.806h.465c.436 0 .76-.085.977-.255.215-.172.323-.423.323-.75 0-.332-.09-.577-.273-.735-.18-.158-.462-.237-.848-.237h-.644v1.978m3.19-1.057c0 .716-.224 1.264-.674 1.644-.447.38-1.083.57-1.91.57h-.606v2.37H4.904V2.67h2.128c.808 0 1.422.175 1.84.525.423.346.634.864.635 1.554" opacity=".3" fill="#fff" stroke="#fff" stroke-linejoin="round" overflow="visible"/><path d="M6.316 5.806h.465c.436 0 .76-.085.977-.255.215-.172.323-.423.323-.75 0-.332-.09-.577-.273-.735-.18-.158-.462-.237-.848-.237h-.644v1.978m3.19-1.057c0 .716-.224 1.264-.674 1.644-.447.38-1.083.57-1.91.57h-.606v2.37H4.904V2.67h2.128c.808 0 1.422.175 1.84.525.423.346.634.864.635 1.554"/></g></g></svg><svg width="24" height="24" viewBox="0 0 12 12" id="parking-garage-12" x="123" y="183"><g color="#000"><path d="M6.5 1L3 2v1l3.5-1L10 3V2L6.5 1zM4.906 3.656v6.688h1.407V7.97h.625c.826 0 1.46-.184 1.906-.564.45-.38.656-.94.656-1.656 0-.69-.203-1.216-.625-1.562-.42-.35-1.036-.532-1.844-.532H4.907zm1.407 1.157h.656c.385 0 .663.092.843.25.182.158.28.418.28.75 0 .328-.127.576-.343.75-.216.17-.534.25-.97.25h-.468v-2z" style="text-indent:0;text-align:start;line-height:125%;text-transform:none;block-progression:tb;-inkscape-font-specification:Helvetica Neue Bold" font-size="25.21" font-weight="bold" letter-spacing="0" word-spacing="0" opacity=".3" fill="#fff" stroke="#fff" stroke-width="2" stroke-linejoin="round" overflow="visible" font-family="Helvetica Neue"/><path style="text-indent:0;text-align:start;line-height:125%;text-transform:none;block-progression:tb;-inkscape-font-specification:Helvetica Neue Bold" d="M6.5 1L3 2v1l3.5-1L10 3V2L6.5 1zM4.906 3.656v6.688h1.407V7.97h.625c.826 0 1.46-.184 1.906-.564.45-.38.656-.94.656-1.656 0-.69-.203-1.216-.625-1.562-.42-.35-1.036-.532-1.844-.532H4.907zm1.407 1.157h.656c.385 0 .663.092.843.25.182.158.28.418.28.75 0 .328-.127.576-.343.75-.216.17-.534.25-.97.25h-.468v-2z" font-size="25.21" font-weight="bold" letter-spacing="0" word-spacing="0" fill="#444" overflow="visible" font-family="Helvetica Neue"/><path opacity=".5" fill="none" overflow="visible" d="M0 0h12v12H0z"/></g></svg><svg width="24" height="24" viewBox="0 0 12 12" id="pharmacy-12" x="153" y="183"><path d="M6.5 1.5c-1.38 0-2.5.448-2.5 1V4c0 .552 1.12 1 2.5 1S9 4.552 9 4V2.5c0-.552-1.12-1-2.5-1zM4 5v5c0 .552 1.12 1 2.5 1S9 10.552 9 10V5c0 .552-1.12 1-2.5 1S4 5.552 4 5z" opacity=".3" color="#000" fill="#fff" stroke="#fff" stroke-width="2" stroke-linecap="round" stroke-linejoin="round" overflow="visible"/><path d="M6.5 1.5c-1.38 0-2.5.448-2.5 1V4c0 .552 1.12 1 2.5 1S9 4.552 9 4V2.5c0-.552-1.12-1-2.5-1zM4 5v5c0 .552 1.12 1 2.5 1S9 10.552 9 10V5c0 .552-1.12 1-2.5 1S4 5.552 4 5zm1 2s.5.25 1.5.25S8 7 8 7v2s-.5.25-1.5.25S5 9 5 9V7z" color="#000" fill="#444" overflow="visible"/><path opacity=".5" color="#000" fill="none" overflow="visible" d="M0 0h12v12H0z"/></svg><svg width="24" height="24" viewBox="0 0 12 12" id="pitch-12" x="183" y="183"><g color="#000"><path d="M6 1c-.552 0-1 .448-1 1s.448 1 1 1 1-.448 1-1-.448-1-1-1zM3.406 2.22c-.218 0-.406.132-.406.405s.085.63.125.844l.28 1c.15.542.468.53.876.53h.907c.325.547.212 1.165.313 2H5c-.547 0-1.453.313-.906 1.406l.812 1.657c.197.392.395.435.594.437.355 0 .65-.357.5-.72l-.625-1.5C5.257 8 5.527 8 5.655 8H7s.457 1.203 1.22 2.188c.28.363.577.812.967.812.274 0 .75-.374.25-.97C8.505 8.918 8 7.548 8 7c0-.636-.182-1.242-.344-2h.813c.265.535.717 1.375.717 1.375.303.523.813.484.813 0 0-.067.006-.214-.063-.375l-.75-1.72c-.05-.117-.123-.28-.53-.28H4.374L3.97 2.625c-.083-.273-.345-.406-.564-.406z" opacity=".3" fill="none" stroke="#fff" stroke-width="2" stroke-linecap="round" stroke-linejoin="round" overflow="visible"/><path d="M6 1c-.552 0-1 .448-1 1s.448 1 1 1 1-.448 1-1-.448-1-1-1zM3.406 2.22c-.218 0-.406.132-.406.405s.085.63.125.844l.28 1c.15.542.468.53.876.53h.907c.325.547.212 1.165.313 2H5c-.547 0-1.453.313-.906 1.406l.812 1.657c.197.392.395.435.594.437.355 0 .65-.357.5-.72l-.625-1.5C5.257 8 5.527 8 5.655 8H7s.457 1.203 1.22 2.188c.28.363.577.812.967.812.274 0 .75-.374.25-.97C8.505 8.918 8 7.548 8 7c0-.636-.182-1.242-.344-2h.813c.265.535.717 1.375.717 1.375.303.523.813.484.813 0 0-.067.006-.214-.063-.375l-.75-1.72c-.05-.117-.123-.28-.53-.28H4.374L3.97 2.625c-.083-.273-.345-.406-.564-.406z" fill="#444" overflow="visible"/><path opacity=".5" fill="none" overflow="visible" d="M0 0h12v12H0z"/></g></svg><svg width="24" height="24" viewBox="0 0 12 12" id="place-of-worship-12" x="213" y="183"><path opacity=".5" color="#000" fill="none" overflow="visible" d="M0 0h12v12H0z"/></svg><svg width="24" height="24" viewBox="0 0 12 12" id="playground-12" x="243" y="183"><g color="#000"><path d="M9 1c-.554 0-1 .446-1 1s.446 1 1 1 1-.446 1-1-.446-1-1-1zM5 2c-.554 0-1 .446-1 1s.446 1 1 1 1-.446 1-1-.446-1-1-1zm3 2l-.47 2.875-2.124.25L5 5H4l-.97 2.375L2 7.5V9c1.417-.157 2.833-.31 4.25-.47L5 11h3L6.75 8.47C8.167 8.31 9.583 8.156 11 8V6.5l-1.094.125L9 4H8z" fill="none" stroke="#fff" stroke-width="2" overflow="visible" opacity=".3"/><path d="M8 1c-.554 0-1 .446-1 1s.446 1 1 1 1-.446 1-1-.446-1-1-1zM5 2c-.554 0-1 .446-1 1s.446 1 1 1 1-.446 1-1-.446-1-1-1zm3 2l-.47 2.875-2.124.25L5 5H4l-.97 2.375L2 7.5V9c1.417-.157 2.833-.31 4.25-.47L5 11h3L6.75 8.47C8.167 8.31 9.583 8.156 11 8V6.5l-1.094.125L9 4z" fill="#444" overflow="visible"/></g></svg><svg width="24" height="24" viewBox="0 0 12 12" id="police-12" x="273" y="183"><g color="#000"><path d="M5 2h3V1H5zm0 .75c0 .967.534 1.75 1.5 1.75S8 3.717 8 2.75V2.5H5zM4 5c-.5 0-1 1.5-1 2v3h1.594L8 5zm5 0l-3.406 5H10V7c0-.5-.5-2-1-2z" opacity=".3" fill="#fff" stroke="#fff" stroke-width="2" stroke-linecap="round" stroke-linejoin="round" overflow="visible"/><path d="M5 2h3V1H5zm0 .75c0 .967.534 1.75 1.5 1.75S8 3.717 8 2.75V2.5H5zM4 5c-.5 0-1 1.5-1 2v3h1.594L8 5zm5 0l-3.406 5H10V7c0-.5-.5-2-1-2z" fill="#444" overflow="visible"/><path opacity=".5" fill="none" overflow="visible" d="M0 0h12v12H0z"/></g></svg><svg width="24" height="24" viewBox="0 0 12 12" id="polling-place-12" x="303" y="183"><g color="#000"><path style="text-indent:0;text-align:start;line-height:normal;text-transform:none;block-progression:tb;-inkscape-font-specification:Sans" d="M2.5 1C1.69 1 1 1.69 1 2.5v7c0 .81.69 1.5 1.5 1.5h7c.81 0 1.5-.69 1.5-1.5V7c.005-.525-.475-1.005-1-1h-.125l1.906-2.375c.142-.176.22-.4.22-.625V2c0-.524-.476-1-1-1H9.406c-.282.025-.55.177-.72.406l-.686.938V2c.005-.525-.475-1.005-1-1z" opacity=".3" fill="#fff" overflow="visible" font-family="Sans"/><path d="M2.5 2c-.277 0-.5.223-.5.5v7c0 .277.223.5.5.5h7c.277 0 .5-.223.5-.5V7H9v2H3V3h4V2H2.5z" fill="#444" overflow="visible"/></g></svg><svg width="24" height="24" viewBox="0 0 12 12" id="post-12" x="3" y="213"><g color="#000"><path d="M1.994 3l4.5 3 4.5-3zm0 1v4.5c0 .25.3.5.5.5h8c.2 0 .554-.256.5-.5V4l-4.5 3.5z" opacity=".3" fill="#fff" stroke="#fff" stroke-width="2" stroke-linejoin="round" overflow="visible"/><path d="M1.994 3l4.5 3 4.5-3zm0 1v4.5c0 .25.3.5.5.5h8c.2 0 .554-.256.5-.5V4l-4.5 3.5z" fill="#444" overflow="visible"/><path opacity=".5" fill="none" overflow="visible" d="M-.006 0h12v12h-12z"/></g></svg><svg width="24" height="24" viewBox="0 0 12 12" id="prison-12" x="33" y="213"><g color="#000"><path d="M3.5 1.5c-.277 0-.5.223-.5.5v7c0 .277.223.5.5.5S4 9.277 4 9V8h1v1c0 .277.223.5.5.5S6 9.246 6 9V8h1v1c0 .277.223.5.5.5S8 9.246 8 9V8h1v1c0 .277.223.5.5.5s.5-.223.5-.5V2c0-.277-.223-.5-.5-.5S9 1.723 9 2v1H8V2c0-.277-.223-.5-.5-.5S7 1.723 7 2v1H6V2c0-.277-.223-.5-.5-.5S5 1.748 5 2v1H4V2c0-.277-.223-.5-.5-.5zM4 4h1v3H4zm2 0h1v3H6zm2 0h1v3H8z" opacity=".3" fill="none" stroke="#fff" stroke-width="2" stroke-linecap="round" stroke-linejoin="round" overflow="visible"/><path d="M3.5 1.5c-.277 0-.5.223-.5.5v7c0 .277.223.5.5.5S4 9.277 4 9V8h1v1c0 .277.223.5.5.5S6 9.246 6 9V8h1v1c0 .277.223.5.5.5S8 9.246 8 9V8h1v1c0 .277.223.5.5.5s.5-.223.5-.5V2c0-.277-.223-.5-.5-.5S9 1.723 9 2v1H8V2c0-.277-.223-.5-.5-.5S7 1.723 7 2v1H6V2c0-.277-.223-.5-.5-.5S5 1.748 5 2v1H4V2c0-.277-.223-.5-.5-.5zM4 4h1v3H4zm2 0h1v3H6zm2 0h1v3H8z" fill="#444" overflow="visible"/><path opacity=".5" fill="none" overflow="visible" d="M0 0h12v12H0z"/></g></svg><svg width="24" height="24" viewBox="0 0 12 12" id="rail-12" x="63" y="213"><path style="text-indent:0;text-align:start;line-height:normal;text-transform:none;block-progression:tb;-inkscape-font-specification:Sans" d="M4.656 0c-.207.022-.407.11-.562.25l-1.75 1.5C2.13 1.936 2 2.216 2 2.5V8c0 .184.088.346.188.5-.1.154-.188.316-.188.5v1c0 .524.476 1 1 1h3c.184 0 .346-.057.5-.156.154.1.316.156.5.156h3c.524 0 1-.476 1-1V9c0-.184-.088-.346-.188-.5.1-.154.188-.316.188-.5V2.5c.002-.314-.153-.626-.406-.813l-2-1.5C8.422.066 8.21-.003 8 0H4.656z" color="#000" fill="#fff" overflow="visible" font-family="Sans" opacity=".3"/><path d="M9 8.5H7V10h3V9H9z" fill="#444"/></svg><svg width="24" height="24" viewBox="0 0 12 12" id="rail-above-12" x="93" y="213"><g color="#000"><path d="M4.5 1L3 2v5.5c0 .25.25.5.5.5h6c.25 0 .5-.25.5-.5V2L8.5 1h-4zM5 2h3l1 .5V4H4V2.5L5 2zm-.5 4c.277 0 .5.223.5.5s-.223.5-.5.5-.5-.223-.5-.5.223-.5.5-.5zm4 0c.277 0 .5.223.5.5s-.223.5-.5.5-.5-.223-.5-.5.223-.5.5-.5zM6 9l-3 2h7L7 9H6z" opacity=".3" fill="none" stroke="#fff" stroke-width="2" stroke-linecap="round" stroke-linejoin="round" overflow="visible"/><path d="M4.5 1L3 2v5.5c0 .25.25.5.5.5h6c.25 0 .5-.25.5-.5V2L8.5 1h-4zM5 2h3l1 .5V4H4V2.5L5 2zm-.5 4c.277 0 .5.223.5.5s-.223.5-.5.5-.5-.223-.5-.5.223-.5.5-.5zm4 0c.277 0 .5.223.5.5s-.223.5-.5.5-.5-.223-.5-.5.223-.5.5-.5zM6 9l-3 2h7L7 9H6z" fill="#444" overflow="visible"/><path opacity=".5" fill="none" overflow="visible" d="M0 0h12v12H0z"/></g></svg><svg width="24" height="24" viewBox="0 0 12 12" id="rail-light-12" x="123" y="213"><path style="text-indent:0;text-align:start;line-height:normal;text-transform:none;block-progression:tb;-inkscape-font-specification:Sans" d="M5.406 0c-.166.012-.33.066-.468.156l-1.5 1c-.15.102-.27.244-.344.407l-1 2C2.03 3.699 1.998 3.85 2 4v4c0 .184.088.346.188.5-.1.154-.188.316-.188.5v1c0 .524.476 1 1 1h3c.184 0 .346-.057.5-.156.154.1.316.156.5.156h3c.524 0 1-.476 1-1V9c0-.184-.088-.346-.188-.5.1-.154.188-.316.188-.5V4c.002-.15-.03-.3-.094-.438l-1-2c-.075-.163-.195-.304-.344-.406l-1.5-1C7.896.05 7.697-.004 7.5 0H5.406z" color="#000" fill="#fff" overflow="visible" font-family="Sans" opacity=".3"/><path d="M5.5 1L4 2 3 4v4h7V4L9 2 7.5 1h-2zm0 1H6v3H4l.5-1.5 1-1.5zM7 2h.5l1 1.5L9 5H7V2zM4 6h1v1H4V6zm4 0h1v1H8V6zM4 8.5V9H3v1h3V8.5zM9 8.5H7V10h3V9H9z" fill="#444"/></svg><svg width="24" height="24" viewBox="0 0 12 12" id="rail-metro-12" x="153" y="213"><path style="text-indent:0;text-align:start;line-height:normal;text-transform:none;block-progression:tb;-inkscape-font-specification:Sans" d="M4.906 0c-.232.017-.458.118-.625.28l-1 1c-.182.19-.286.456-.28.72v6c-.524 0-1 .476-1 1v1c0 .524.476 1 1 1h3c.184 0 .346-.057.5-.156.154.1.316.156.5.156h3c.524 0 1-.476 1-1V9c0-.524-.476-1-1-1V2c.006-.264-.098-.53-.28-.72l-1-1C8.53.1 8.263-.005 8 0H4.906z" color="#000" fill="#fff" overflow="visible" font-family="Sans" opacity=".3"/><path d="M5 1L4 2v6h5V2L8 1H5zm1 1h1l1 1v1H5V3l1-1zM5 6h1v1H5V6zm2 0h1v1H7V6z" fill="#444"/></svg><svg width="24" height="24" viewBox="0 0 12 12" id="rail-underground-12" x="183" y="213"><g color="#000"><path d="M3 1l3 2h1l3-2zm1.5 3L3 5v5.5c0 .25.25.5.5.5h6c.25 0 .5-.25.5-.5V5L8.5 4z" opacity=".3" fill="#fff" stroke="#fff" stroke-width="2" stroke-linecap="round" stroke-linejoin="round" overflow="visible"/><path d="M3 1l3 2h1l3-2zm1.5 3L3 5v5.5c0 .25.25.5.5.5h6c.25 0 .5-.25.5-.5V5L8.5 4zM5 5h3l1 .5V7H4V5.5zm-.5 4c.277 0 .5.223.5.5s-.223.5-.5.5-.5-.223-.5-.5.223-.5.5-.5zm4 0c.277 0 .5.223.5.5s-.223.5-.5.5-.5-.223-.5-.5.223-.5.5-.5z" fill="#444" overflow="visible"/><path opacity=".5" fill="none" overflow="visible" d="M0 0h12v12H0z"/></g></svg><svg width="24" height="24" viewBox="0 0 12 12" id="religious-christian-12" x="213" y="213"><g color="#000"><path d="M6.25 1c-.462 0-.745.372-.75.833V4h-3v1.5h3V11H7V5.5h3V4H7V1.835C7 1.372 6.712 1 6.25 1z" opacity=".3" fill="#fff" stroke="#fff" stroke-width="2" stroke-linejoin="round" overflow="visible"/><path d="M6.25 1c-.462 0-.745.372-.75.833V4h-3v1.5h3V11H7V5.5h3V4H7V1.835C7 1.372 6.712 1 6.25 1z" fill="#444" overflow="visible"/><path opacity=".5" fill="none" overflow="visible" d="M0 0h12v12H0z"/></g></svg><svg width="24" height="24" viewBox="0 0 12 12" id="religious-jewish-12" x="243" y="213"><path opacity=".5" color="#000" fill="none" overflow="visible" d="M0 0h12v12H0z"/></svg><svg width="24" height="24" viewBox="0 0 12 12" id="religious-muslim-12" x="273" y="213"><g color="#000"><path d="M6 2C3.79 2 2 3.79 2 6s1.79 4 4 4c.715 0 1.388-.202 1.97-.53-.153.02-.313.03-.47.03C5.567 9.5 4 7.933 4 6s1.567-3.5 3.5-3.5c.157 0 .317.01.47.03C7.31 2.158 6.753 2 6 2zm3 1.5L8 5H7l1 1.5L7.5 8 9 7l1.5 1-.5-1.5L11 5h-1z" opacity=".3" fill="#fff" stroke="#fff" stroke-width="2" stroke-linejoin="round" overflow="visible"/><path d="M6 2C3.79 2 2 3.79 2 6s1.79 4 4 4c.715 0 1.388-.202 1.97-.53-.153.02-.313.03-.47.03C5.567 9.5 4 7.933 4 6s1.567-3.5 3.5-3.5c.157 0 .317.01.47.03C7.31 2.158 6.753 2 6 2zm3 1.5L8 5H7l1 1.5L7.5 8 9 7l1.5 1-.5-1.5L11 5h-1z" fill="#444" overflow="visible"/><path opacity=".5" fill="none" overflow="visible" d="M0 0h12v12H0z"/></g></svg><svg width="24" height="24" viewBox="0 0 12 12" id="restaurant-12" x="303" y="213"><g color="#000"><path d="M3.5 1H3v3c0 .5 1 .5 1 1v6h1V5c0-.5 1-.5 1-1V1h-.5v2h-.75V1h-.5v2H3.5zM10 1c-.5 0-1.434.118-1.75.75C8 2.25 8 3 8 4v2.5h1V11h1z" opacity=".3" fill="#fff" stroke="#fff" stroke-width="2" stroke-linejoin="round" overflow="visible"/><path d="M3.5 1H3v3c0 .5 1 .5 1 1v6h1V5c0-.5 1-.5 1-1V1h-.5v2h-.75V1h-.5v2H3.5zM10 1c-.5 0-1.434.118-1.75.75C8 2.25 8 3 8 4v2.5h1V11h1z" fill="#444" overflow="visible"/><path opacity=".5" fill="none" overflow="visible" d="M0 0h12v12H0z"/></g></svg><svg width="24" height="24" viewBox="0 0 12 12" id="roadblock-12" x="3" y="243"><g color="#000"><path d="M6.5 1C4.015 1 2 3.015 2 5.5S4.015 10 6.5 10 11 7.985 11 5.5 8.985 1 6.5 1z" opacity=".3" fill="#fff" stroke="#fff" stroke-width="2" stroke-linecap="round" stroke-linejoin="round" overflow="visible"/><path d="M6.5 1C4.015 1 2 3.015 2 5.5S4.015 10 6.5 10 11 7.985 11 5.5 8.985 1 6.5 1zM4 5h5v1H4V5z" fill="#444" overflow="visible"/><path fill="none" overflow="visible" d="M0 0h12v12H0z"/></g></svg><svg width="24" height="24" viewBox="0 0 12 12" id="rocket-12" x="33" y="243"><path d="M11 2h-1c-2.09.244-6 3.2-6 6l1 1c2.553 0 5.51-3.904 6-6zM8 4h1v1H8zM3 5L2 7h1.5l1.25-2zm5 3.25L6 9.5V11l2-1z" fill="none" stroke="#fff" opacity=".3" color="#000" stroke-width="2" stroke-linecap="round" stroke-linejoin="round" overflow="visible"/><path d="M11 2h-1c-2.09.244-6 3.2-6 6l1 1c2.553 0 5.51-3.904 6-6zM8 4h1v1H8zM3 5L2 7h1.5l1.25-2zm5 3.25L6 9.5V11l2-1z" fill="#444"/></svg><svg width="24" height="24" viewBox="0 0 12 12" id="school-12" x="63" y="243"><g color="#000"><path d="M7 1.5c-.552 0-1 .448-1 1s.448 1 1 1 1-.448 1-1-.448-1-1-1zm-4 1c-.552 0-1 .448-1 1s.448 1 1 1 1-.448 1-1-.448-1-1-1zM7.5 4H7L5 5v1l2-1V7.563L6 11h1l1-3.5S8.25 9 9.25 9H11v-.75H9.5c-.534 0-.5-.8-.5-1.25 0-.75-.5-2-.5-2l1.5.938c.453.302.846-.233.406-.563L8.75 4.25C8.448 4.035 8.352 4 8 4zM2.75 5c-.25 0-.368.118-.5.25L1.187 6.313C1.05 6.45 1 6.573 1 6.75c0 .25.382.368.594.156L2.5 6H3v1L2 9.75c-.202.556.572.724.75.25l.505-1.3H6V8H4.5V6c0-.5-.5-1-1-1z" opacity=".3" fill="none" stroke="#fff" stroke-width="2" stroke-linecap="round" stroke-linejoin="round" overflow="visible"/><path d="M7 1.5c-.552 0-1 .448-1 1s.448 1 1 1 1-.448 1-1-.448-1-1-1zm-4 1c-.552 0-1 .448-1 1s.448 1 1 1 1-.448 1-1-.448-1-1-1zM7.5 4H7L5 5v1l2-1V7.563L6 11h1l1-3.5S8.25 9 9.25 9H11v-.75H9.5c-.534 0-.5-.8-.5-1.25 0-.75-.5-2-.5-2l1.5.938c.453.302.846-.233.406-.563L8.75 4.25C8.448 4.035 8.352 4 8 4zM2.75 5c-.25 0-.368.118-.5.25L1.187 6.313C1.05 6.45 1 6.573 1 6.75c0 .25.382.368.594.156L2.5 6H3v1L2 9.75c-.202.556.572.724.75.25l.505-1.3H6V8H4.5V6c0-.5-.5-1-1-1z" fill="#444" overflow="visible"/><path opacity=".5" fill="none" overflow="visible" d="M0 0h12v12H0z"/></g></svg><svg width="24" height="24" viewBox="0 0 12 12" id="scooter-12" x="93" y="243"/><svg width="24" height="24" viewBox="0 0 12 12" id="shop-12" x="123" y="243"><g color="#000"><path d="M5.172 1.5c-.5 0-.926.506-1 1L4 4H3c-.25 0-.5.25-.5.5l-.5 5c0 .25.25.5.5.5h8c.25 0 .5-.25.5-.5l-.5-5c0-.25-.25-.5-.5-.5H9l-.172-1.5c-.057-.497-.5-1-1-1zm0 .5h2.656c.25 0 .468.22.5.5L8.5 4h-4l.172-1.5c.028-.248.25-.5.5-.5z" opacity=".3" fill="none" stroke="#fff" stroke-width="2" stroke-linejoin="round" overflow="visible"/><path d="M5.172 1.5c-.5 0-.926.506-1 1L4 4H3c-.25 0-.5.25-.5.5l-.5 5c0 .25.25.5.5.5h8c.25 0 .5-.25.5-.5l-.5-5c0-.25-.25-.5-.5-.5H9l-.172-1.5c-.057-.497-.5-1-1-1zm0 .5h2.656c.25 0 .468.22.5.5L8.5 4h-4l.172-1.5c.028-.248.25-.5.5-.5z" fill="#444" overflow="visible"/><path opacity=".5" fill="none" overflow="visible" d="M0 0h12v12H0z"/></g></svg><svg width="24" height="24" viewBox="0 0 12 12" id="skiing-12" x="153" y="243"><g color="#000"><path d="M6 2c-.5 0-1 1-1 1.5v2l-1.625.78L2 5.5V6l7 4v-.5L4.312 6.813 6 6.188V4h1l1 1.5V7l1 1h1V7H9V5.5L8.5 3 7 2H6zm4.5 1.5c-.552 0-1 .448-1 1s.448 1 1 1c.187 0 .35-.067.5-.156V3.656c-.15-.09-.313-.156-.5-.156z" opacity=".3" fill="none" stroke="#fff" stroke-width="2" stroke-linecap="round" stroke-linejoin="round" overflow="visible"/><path d="M6 2c-.5 0-1 1-1 1.5v2l-1.625.78L2 5.5V6l7 4v-.5L4.312 6.813 6 6.188V4h1l1 1.5V7l1 1h1V7H9V5.5L8.5 3 7 2H6zm4.5 1.5c-.552 0-1 .448-1 1s.448 1 1 1c.187 0 .35-.067.5-.156V3.656c-.15-.09-.313-.156-.5-.156z" fill="#444" overflow="visible"/><path opacity=".5" fill="none" overflow="visible" d="M0 0h12v12H0z"/></g></svg><svg width="24" height="24" viewBox="0 0 12 12" id="slaughterhouse-12" x="183" y="243"><g color="#000"><path d="M3 2l.5 1H2v1h1l1 1v4h.5L5 7l1 2h.5V7c.947 0 1.526-.5 2-.5v1c0 .403.03 1.5.03 1.5H9l1-2 .5 2h.5V4l-1-1H5l-.375-1z" opacity=".3" fill="#fff" stroke="#fff" stroke-width="2" stroke-linecap="round" stroke-linejoin="round" overflow="visible"/><path d="M3 2l.5 1H2v1h1l1 1v4h.5L5 7l1 2h.5V7c.947 0 1.526-.5 2-.5v1c0 .403.03 1.5.03 1.5H9l1-2 .5 2h.5V4l-1-1H5l-.375-1z" fill="#444" overflow="visible"/><path opacity=".5" fill="none" overflow="visible" d="M0 0h12v12H0z"/></g></svg><svg width="24" height="24" viewBox="0 0 12 12" id="soccer-12" x="213" y="243"><g color="#000"><path d="M6.5 1C4.02 1 2 3.02 2 5.5S4.02 10 6.5 10 11 7.98 11 5.5 8.98 1 6.5 1zm0 .794c1.41 0 2.633.78 3.26 1.936-.592.392-1.135.597-1.142.976-.005.265 0 .34 0 .53 0 .264.138.605.53.794l.926.446c-.107.392-.277.747-.497 1.076l-.695-.464c-.397-.264-.794-.44-1.058-.264l-.795.53c-.368.244-.33.53-.265.793l.248 1.026c-.168.023-.339.033-.513.033-.367 0-.725-.05-1.06-.15v-.91c0-.528-.264-.793-.528-1.058-.265-.264-.53-.53-1.06-.53h-.91c-.097-.333-.148-.69-.148-1.058 0-2.053 1.653-3.706 3.706-3.706zM4.912 3.647l-.265 1.06c-.075.3-.275.61 0 .793l.794.53c.53.353.764.148 1.06 0l.53-.265c.394-.197.53-.265.53-.794V3.913c0-.265.003-.423-.53-.53L5.705 3.12c-.555-.11-.66-.013-.794.53z" opacity=".3" fill="#fff" stroke="#fff" stroke-width="2" stroke-linejoin="round" overflow="visible"/><path d="M6.5 1C4.02 1 2 3.02 2 5.5S4.02 10 6.5 10 11 7.98 11 5.5 8.98 1 6.5 1zm0 .794c1.41 0 2.633.78 3.26 1.936-.592.392-1.135.597-1.142.976-.005.265 0 .34 0 .53 0 .264.138.605.53.794l.926.446c-.107.392-.277.747-.497 1.076l-.695-.464c-.397-.264-.794-.44-1.058-.264l-.795.53c-.368.244-.33.53-.265.793l.248 1.026c-.168.023-.339.033-.513.033-.367 0-.725-.05-1.06-.15v-.91c0-.528-.264-.793-.528-1.058-.265-.264-.53-.53-1.06-.53h-.91c-.097-.333-.148-.69-.148-1.058 0-2.053 1.653-3.706 3.706-3.706zM4.912 3.647l-.265 1.06c-.075.3-.275.61 0 .793l.794.53c.53.353.764.148 1.06 0l.53-.265c.394-.197.53-.265.53-.794V3.913c0-.265.003-.423-.53-.53L5.705 3.12c-.555-.11-.66-.013-.794.53z" fill="#444" overflow="visible"/><path opacity=".5" fill="none" overflow="visible" d="M0 0h12v12H0z"/></g></svg><svg width="24" height="24" viewBox="0 0 12 12" id="square-12" x="243" y="243"><g color="#000"><path d="M2.563 1h7.874c.312 0 .563.25.563.563v7.875c0 .31-.25.562-.563.562H2.564C2.25 10 2 9.75 2 9.438V1.563C2 1.25 2.25 1 2.563 1z" opacity=".3" fill="none" stroke="#fff" stroke-width="2" overflow="visible"/><path d="M2.563 1h7.874c.312 0 .563.25.563.563v7.875c0 .31-.25.562-.563.562H2.564C2.25 10 2 9.75 2 9.438V1.563C2 1.25 2.25 1 2.563 1z" fill="#444" overflow="visible"/><path opacity=".5" fill="none" overflow="visible" d="M0 0h12v12H0z"/></g></svg><svg width="24" height="24" viewBox="0 0 12 12" id="square-stroked-12" x="273" y="243"><g color="#000"><path d="M2.5 1c-.277 0-.5.223-.5.5v8c0 .277.223.5.5.5h8c.277 0 .5-.223.5-.5v-8c0-.277-.223-.5-.5-.5zM3 2h7v7H3z" opacity=".3" fill="none" stroke="#fff" stroke-width="2" overflow="visible"/><path d="M2.5 1c-.277 0-.5.223-.5.5v8c0 .277.223.5.5.5h8c.277 0 .5-.223.5-.5v-8c0-.277-.223-.5-.5-.5zM3 2h7v7H3z" fill="#444" overflow="visible"/><path opacity=".5" fill="none" overflow="visible" d="M0 0h12v12H0z"/></g></svg><svg width="24" height="24" viewBox="0 0 12 12" id="star-12" x="303" y="243"><path opacity=".5" color="#000" fill="none" overflow="visible" d="M0 0h12v12H0z"/></svg><svg width="24" height="24" viewBox="0 0 12 12" id="star-stroked-12" x="3" y="273"><path opacity=".5" color="#000" fill="none" overflow="visible" d="M0 0h12v12H0z"/></svg><svg width="24" height="24" viewBox="-402.5 403.5 12 12" id="suitcase-12" x="33" y="273"/><svg width="24" height="24" viewBox="0 0 12 12" id="swimming-12" x="63" y="273"><g color="#000"><path d="M8.5 2l-.5.304-2.22 1.29c-.265.126-.362.513-.186.75l.61.828L4 7l1 .235 1.5-.47 1.5.47L9 7 6.78 4.22l2.236-1.392L9 2zm1 2.047c-.552 0-1 .448-1 1s.448 1 1 1 1-.448 1-1-.448-1-1-1zM3.5 8L2 8.47V9.5l.156-.047L3.5 9l1.5.5L6.5 9l1.5.5L9.5 9l1.5.5V8.47L9.5 8 8 8.47 6.5 8 5 8.47 3.5 8z" opacity=".3" fill="none" stroke="#fff" stroke-width="2" stroke-linecap="round" stroke-linejoin="round" overflow="visible"/><path d="M8.5 2l-.5.304-2.22 1.29c-.265.126-.362.513-.186.75l.61.828L4 7l1 .235 1.5-.47 1.5.47L9 7 6.78 4.22l2.236-1.392L9 2zm1 2.047c-.552 0-1 .448-1 1s.448 1 1 1 1-.448 1-1-.448-1-1-1zM3.5 8L2 8.47V9.5l.156-.047L3.5 9l1.5.5L6.5 9l1.5.5L9.5 9l1.5.5V8.47L9.5 8 8 8.47 6.5 8 5 8.47 3.5 8z" fill="#444" overflow="visible"/><path opacity=".5" fill="none" overflow="visible" d="M0 0h12v12H0z"/></g></svg><svg width="24" height="24" viewBox="0 0 12 12" id="telephone-12" x="93" y="273"><path color="#000" fill="none" overflow="visible" d="M0 0h12v12H0z"/></svg><svg width="24" height="24" viewBox="0 0 12 12" id="tennis-12" x="123" y="273"><g color="#000"><path d="M2 4c0 1.657 1.343 3 3 3h2.5l3 3h.5v-.5l-3-3V4c0-1.657-1.343-3-3-3S2 2.343 2 4zm5 .5V6H5.5zm-4.25 3c-.414 0-.75.336-.75.75s.336.75.75.75.75-.336.75-.75-.336-.75-.75-.75z" opacity=".3" fill="#fff" stroke="#fff" stroke-width="2" overflow="visible"/><path d="M2 4c0 1.657 1.343 3 3 3h2.5l3 3h.5v-.5l-3-3V4c0-1.657-1.343-3-3-3S2 2.343 2 4zm5 .5V6H5.5zm-4.25 3c-.414 0-.75.336-.75.75s.336.75.75.75.75-.336.75-.75-.336-.75-.75-.75z" fill="#444" overflow="visible"/><path opacity=".5" fill="none" overflow="visible" d="M0 0h12v12H0z"/></g></svg><svg width="24" height="24" viewBox="0 0 12 12" id="theatre-12" x="153" y="273"><g color="#000"><path d="M2.5 2c-.25 0-.5.25-.5.5v3C2 6.608 2.5 8 4.5 8c.18 0 .343-.01.5-.03V6.5H3s.25-1 1.5-1c.25 0 .348.037.5.094V4.5c0-.458.202-.81.453-1.062.25-.25.59-.438 1.047-.438H7v-.5c0-.25-.264-.5-.5-.5-.5 0-1 .5-2 .5-.867 0-1.5-.5-2-.5zm1 2c.276 0 .5.224.5.5s-.224.5-.5.5-.5-.224-.5-.5.224-.5.5-.5zm3 0c-.236 0-.5.25-.5.5v3c0 1.108.5 2.5 2.5 2.5S11 8.608 11 7.5v-3c0-.25-.264-.5-.5-.5-.5 0-1.255.5-2 .5-.745 0-1.5-.5-2-.5zm1 2c.276 0 .5.224.5.5s-.224.5-.5.5-.5-.224-.5-.5.224-.5.5-.5zm2 0c.276 0 .5.224.5.5s-.224.5-.5.5-.5-.224-.5-.5.224-.5.5-.5zM7 8h3s-.25 1-1.5 1S7 8 7 8z" opacity=".3" fill="#fff" stroke="#fff" stroke-width="2" stroke-linecap="round" stroke-linejoin="round" overflow="visible"/><path d="M2.5 2c-.25 0-.5.25-.5.5v3C2 6.608 2.5 8 4.5 8c.18 0 .343-.01.5-.03V6.5H3s.25-1 1.5-1c.25 0 .348.037.5.094V4.5c0-.458.202-.81.453-1.062.25-.25.59-.438 1.047-.438H7v-.5c0-.25-.264-.5-.5-.5-.5 0-1 .5-2 .5-.867 0-1.5-.5-2-.5zm1 2c.276 0 .5.224.5.5s-.224.5-.5.5-.5-.224-.5-.5.224-.5.5-.5zm3 0c-.236 0-.5.25-.5.5v3c0 1.108.5 2.5 2.5 2.5S11 8.608 11 7.5v-3c0-.25-.264-.5-.5-.5-.5 0-1.255.5-2 .5-.745 0-1.5-.5-2-.5zm1 2c.276 0 .5.224.5.5s-.224.5-.5.5-.5-.224-.5-.5.224-.5.5-.5zm2 0c.276 0 .5.224.5.5s-.224.5-.5.5-.5-.224-.5-.5.224-.5.5-.5zM7 8h3s-.25 1-1.5 1S7 8 7 8z" fill="#444" overflow="visible"/><path fill="none" overflow="visible" d="M0 0h12v12H0z"/></g></svg><svg width="24" height="24" viewBox="0 0 12 12" id="toilets-12" x="183" y="273"><g color="#000"><path d="M4 1c-.69 0-1.25.56-1.25 1.25S3.31 3.5 4 3.5s1.25-.56 1.25-1.25S4.69 1 4 1zm5 0c-.69 0-1.25.56-1.25 1.25S8.31 3.5 9 3.5s1.25-.56 1.25-1.25S9.69 1 9 1zM3 4v1.5L1.5 8H3v2h2V8h1.5L5 5.5V4H3zm4 0l1 3.5V10h2V7.5L11 4H7z" opacity=".3" fill="none" stroke="#fff" stroke-width="2" stroke-linecap="round" stroke-linejoin="round" overflow="visible"/><path d="M4 1c-.69 0-1.25.56-1.25 1.25S3.31 3.5 4 3.5s1.25-.56 1.25-1.25S4.69 1 4 1zm5 0c-.69 0-1.25.56-1.25 1.25S8.31 3.5 9 3.5s1.25-.56 1.25-1.25S9.69 1 9 1zM3 4v1.5L1.5 8H3v2h2V8h1.5L5 5.5V4H3zm4 0l1 3.5V10h2V7.5L11 4H7z" fill="#444" overflow="visible"/><path opacity=".5" fill="none" overflow="visible" d="M0 0h12v12H0z"/></g></svg><svg width="24" height="24" viewBox="0 0 12 12" id="town-12" x="213" y="273"><path opacity=".5" color="#000" fill="none" overflow="visible" d="M0 0h12v12H0z"/></svg><svg width="24" height="24" viewBox="0 0 12 12" id="town-hall-12" x="243" y="273"><path d="M6.5 1L3 3h7zm-3 3c-.277 0-.5.223-.5.5V9l-1 1h9l-1-1V4.5c0-.277-.223-.5-.5-.5zM4 5.5l.5-.5.5.5V8H4zm2 0l.5-.5.5.5V8H6zm2 0l.5-.5.5.5V8H8z" color="#000" fill="#444" overflow="visible"/><path opacity=".5" color="#000" fill="none" overflow="visible" d="M0 0h12v12H0z"/></svg><svg width="24" height="24" viewBox="0 0 12 12" id="triangle-12" x="273" y="273"><g color="#000"><g fill="#444" font-family="Sans"><path style="text-indent:0;text-align:start;line-height:normal;text-transform:none;block-progression:tb;-inkscape-font-specification:Sans" d="M6.5 2c-.25 0-.363.12-.438.25l-4 7C2.018 9.327 2 9.414 2 9.5c0 .375.25.5.5.5h8c.25 0 .5-.125.5-.5 0-.086-.018-.173-.063-.25l-4-7C6.864 2.12 6.75 2 6.5 2z" opacity=".3" stroke="#fff" stroke-width="2" overflow="visible"/><path d="M6.5 2c-.25 0-.363.12-.438.25l-4 7C2.018 9.327 2 9.414 2 9.5c0 .375.25.5.5.5h8c.25 0 .5-.125.5-.5 0-.086-.018-.173-.063-.25l-4-7C6.864 2.12 6.75 2 6.5 2z" style="text-indent:0;text-align:start;line-height:normal;text-transform:none;block-progression:tb;-inkscape-font-specification:Sans" overflow="visible"/></g><path opacity=".5" fill="none" overflow="visible" d="M0 0h12v12H0z"/></g></svg><svg width="24" height="24" viewBox="0 0 12 12" id="triangle-stroked-12" x="303" y="273"><g color="#000"><g fill="#444" font-family="Sans"><path d="M6.5 2c-.25 0-.363.12-.438.25l-4 7C2.018 9.327 2 9.414 2 9.5c0 .375.25.5.5.5h8c.25 0 .5-.125.5-.5 0-.086-.018-.173-.063-.25l-4-7C6.864 2.12 6.75 2 6.5 2zm0 1.5l3 5.5h-6l3-5.5z" style="text-indent:0;text-align:start;line-height:normal;text-transform:none;block-progression:tb;-inkscape-font-specification:Sans" opacity=".3" stroke="#fff" stroke-width="2" overflow="visible"/><path style="text-indent:0;text-align:start;line-height:normal;text-transform:none;block-progression:tb;-inkscape-font-specification:Sans" d="M6.5 2c-.25 0-.363.12-.438.25l-4 7C2.018 9.327 2 9.414 2 9.5c0 .375.25.5.5.5h8c.25 0 .5-.125.5-.5 0-.086-.018-.173-.063-.25l-4-7C6.864 2.12 6.75 2 6.5 2zm0 1.5l3 5.5h-6l3-5.5z" overflow="visible"/></g><path opacity=".5" fill="none" overflow="visible" d="M0 0h12v12H0z"/></g></svg><svg width="24" height="24" viewBox="0 0 12 12" id="village-12" x="3" y="303"><path opacity=".5" color="#000" fill="none" overflow="visible" d="M0 0h12v12H0z"/></svg><svg width="24" height="24" viewBox="0 0 12 12" id="warehouse-12" x="33" y="303"><path color="#000" fill="none" overflow="visible" d="M0 0h12v12H0z"/></svg><svg width="24" height="24" viewBox="0 0 12 12" id="waste-basket-12" x="63" y="303"><path opacity=".5" color="#000" fill="none" overflow="visible" d="M0 0h12v12H0z"/></svg><svg width="24" height="24" viewBox="0 0 12 12" id="water-12" x="93" y="303"><g color="#000"><path opacity=".5" fill="none" overflow="visible" d="M0 0h12v12H0z"/><path d="M6.5 11C4.886 11 3 10 3 7.5 3 5.75 5.75 2 6.5 1 7.25 2 10 5.75 10 7.5 10 10 8.114 11 6.5 11z" opacity=".3" fill="none" stroke="#fff" stroke-width="2" stroke-linecap="round" stroke-linejoin="round" overflow="visible"/><path d="M6.5 11C4.886 11 3 10 3 7.5 3 5.75 5.75 2 6.5 1 7.25 2 10 5.75 10 7.5 10 10 8.114 11 6.5 11z" fill="#444" overflow="visible"/></g></svg><svg width="24" height="24" viewBox="0 0 12 12" id="wetland-12" x="123" y="303"><g color="#000"><path d="M9 2L7.5 3.5 6.5 6v1.5L8 8l.53-.188C8.67 7.09 8.947 6.27 9 6h2l-1-1H9L8 6l.5-2 1-1h1l-1-1H9zM4 5L3 6h2v2l1-.344V6L5 5H4zm-.5 3.5L2 8.97V10l1.5-.5L5 10l1.5-.5L8 10l1.5-.5 1.5.5V8.97L9.5 8.5 8 9l-1.5-.5L5 9l-1.5-.5z" opacity=".3" fill="none" stroke="#fff" stroke-width="2" stroke-linecap="round" stroke-linejoin="round" overflow="visible"/><path opacity=".5" fill="none" overflow="visible" d="M0 0h12v12H0z"/><path d="M9 2L7.5 3.5 6.5 6v1.5L8 8l.53-.188C8.67 7.09 8.947 6.27 9 6h2l-1-1H9L8 6l.5-2 1-1h1l-1-1H9zM4 5L3 6h2v2l1-.344V6L5 5H4zm-.5 3.5L2 8.97V10l1.5-.5L5 10l1.5-.5L8 10l1.5-.5 1.5.5V8.97L9.5 8.5 8 9l-1.5-.5L5 9l-1.5-.5z" fill="#444" overflow="visible"/></g></svg><svg width="24" height="24" viewBox="0 0 12 12" id="zoo-12" x="153" y="303"><path d="M8.5 1c-1 1.5-.892 3.003-2 4-1.058.953-3.5.626-3.5 2v.5c0 .5.5.976.5 1.5v.5c0 .75-.25.75-.5 1.5h.5l1-1.5V11H5V8h1v3h.5V8.5h1L8 11h.5L8 7V5.5L9 2h1V1z" opacity=".3" color="#000" fill="#444" stroke="#fff" stroke-width="2" stroke-linecap="round" stroke-linejoin="round" overflow="visible"/><path d="M8.5 1c-1 1.5-.892 3.003-2 4-1.058.953-3.5.626-3.5 2v.5c0 .5.5.976.5 1.5v.5c0 .75-.25.75-.5 1.5h.5l1-1.5V11H5V8h1v3h.5V8.5h1L8 11h.5L8 7V5.5L9 2h1V1z" color="#000" fill="#444" overflow="visible"/><path opacity=".5" color="#000" fill="none" overflow="visible" d="M0 0h12v12H0z"/></svg></svg>