<svg xmlns="http://www.w3.org/2000/svg" xmlns:xlink="http://www.w3.org/1999/xlink" width="360" height="360"><svg width="24" height="24" viewBox="0 0 18 18" id="account-box" x="3" y="3"><path d="M15 2H3c-.55 0-1 .45-1 1v12c0 .55.45 1 1 1h12c.55 0 1-.45 1-1V3c0-.55-.45-1-1-1zM9 4.75c1.24 0 2.25 1.01 2.25 2.25S10.24 9.25 9 9.25 6.75 8.24 6.75 7 7.76 4.75 9 4.75zM13.5 14h-9v-.75c0-1.5 3-2.25 4.5-2.25s4.5.75 4.5 2.25V14z"/></svg><svg width="24" height="24" viewBox="0 0 18 18" id="account-circle" x="33" y="3"><path d="M9 1C4.58 1 1 4.58 1 9s3.58 8 8 8 8-3.58 8-8-3.58-8-8-8zm0 2.75c1.24 0 2.25 1.01 2.25 2.25S10.24 8.25 9 8.25 6.75 7.24 6.75 6 7.76 3.75 9 3.75zM9 14.5c-1.86 0-3.49-.92-4.49-2.33C4.62 10.72 7.53 10 9 10c1.47 0 4.38.72 4.49 2.17-1 1.41-2.63 2.33-4.49 2.33z"/></svg><svg width="24" height="24" viewBox="0 0 18 18" id="event" x="63" y="3"><path d="M13 9H9v4h4V9zm2-7h-1V1h-2v1H6V1H4v1H3c-.55 0-1 .45-1 1v12c0 .55.45 1 1 1h12c.55 0 1-.45 1-1V3c0-.55-.45-1-1-1zm-1 12H4V6h10v8z"/></svg><svg width="24" height="24" viewBox="0 0 18 18" id="star-rate" x="93" y="3"><path d="M9 11.3l3.71 2.7-1.42-4.36L15 7h-4.55L9 2.5 7.55 7H3l3.71 2.64L5.29 14z"/></svg><svg width="24" height="24" viewBox="0 0 18 18" id="error" x="123" y="3"><path d="M9 1.03c-4.42 0-8 3.58-8 8s3.58 8 8 8 8-3.58 8-8-3.58-8-8-8zM10 13H8v-2h2v2zm0-3H8V5h2v5z"/></svg><svg width="24" height="24" viewBox="0 0 18 18" id="warning" x="153" y="3"><path d="M.5 16h17L9 1 .5 16zm9.5-2H8v-2h2v2zm0-3H8V7h2v4z"/></svg><svg width="24" height="24" viewBox="0 0 18 18" id="volume-down" x="183" y="3"><path d="M4 7v4h3l4 4V3L7 7H4zm9-1v6c1.17-.49 2-1.65 2-3s-.83-2.51-2-3z"/></svg><svg width="24" height="24" viewBox="0 0 18 18" id="volume-mute" x="213" y="3"><path d="M5 7v4h3l4 4V3L8 7H5z"/></svg><svg width="24" height="24" viewBox="0 0 18 18" id="volume-up" x="243" y="3"><path d="M12.79 9c0-1.3-.72-2.42-1.79-3v6c1.06-.58 1.79-1.7 1.79-3zM2 7v4h3l4 4V3L5 7H2zm9-5v1.5c2.32.74 4 2.93 4 5.5s-1.68 4.76-4 5.5V16c3.15-.78 5.5-3.6 5.5-7S14.15 2.78 11 2z"/></svg><svg width="24" height="24" viewBox="0 0 18 18" id="battery-20" x="273" y="3"><path fill-opacity=".3" d="M13 4c0-.55-.45-1-1-1h-1.5V1.5h-3V3H6c-.55 0-1 .45-1 1v8.5h8V4z"/><path d="M5 12.5V15c0 .55.45 1 1 1h6c.55 0 1-.45 1-1v-2.5H5z"/></svg><svg width="24" height="24" viewBox="0 0 18 18" id="battery-30" x="303" y="3"><path fill-opacity=".3" d="M13 4c0-.55-.45-1-1-1h-1.5V1.5h-3V3H6c-.55 0-1 .45-1 1v7.5h8V4z"/><path d="M5 11.5V15c0 .55.45 1 1 1h6c.55 0 1-.45 1-1v-3.5H5z"/></svg><svg width="24" height="24" viewBox="0 0 18 18" id="battery-50" x="333" y="3"><path fill-opacity=".3" d="M13 4c0-.55-.45-1-1-1h-1.5V1.5h-3V3H6c-.55 0-1 .45-1 1v5.5h8V4z"/><path d="M5 9.5V15c0 .55.45 1 1 1h6c.55 0 1-.45 1-1V9.5H5z"/></svg><svg width="24" height="24" viewBox="0 0 18 18" id="battery-60" x="3" y="33"><path fill-opacity=".3" d="M13 4c0-.55-.45-1-1-1h-1.5V1.5h-3V3H6c-.55 0-1 .45-1 1v4.5h8V4z"/><path d="M5 8.5V15c0 .55.45 1 1 1h6c.55 0 1-.45 1-1V8.5H5z"/></svg><svg width="24" height="24" viewBox="0 0 18 18" id="battery-80" x="33" y="33"><path fill-opacity=".3" d="M13 4c0-.55-.45-1-1-1h-1.5V1.5h-3V3H6c-.55 0-1 .45-1 1v2.5h8V4z"/><path d="M5 6.5V15c0 .55.45 1 1 1h6c.55 0 1-.45 1-1V6.5H5z"/></svg><svg width="24" height="24" viewBox="0 0 18 18" id="battery-90" x="63" y="33"><path fill-opacity=".3" d="M13 4c0-.55-.45-1-1-1h-1.5V1.5h-3V3H6c-.55 0-1 .45-1 1v1.5h8V4z"/><path d="M5 5.5V15c0 .55.45 1 1 1h6c.55 0 1-.45 1-1V5.5H5z"/></svg><svg width="24" height="24" viewBox="0 0 18 18" id="battery-alert" x="93" y="33"><path d="M12 3h-1.5V1.5h-3V3H6c-.55 0-1 .45-1 1v11c0 .55.45 1 1 1h6c.55 0 1-.45 1-1V4c0-.55-.45-1-1-1zm-2 10H8v-2h2v2zm0-3H8V6h2v4z"/></svg><svg width="24" height="24" viewBox="0 0 18 18" id="battery-charging-20" x="123" y="33"><path fill-opacity=".3" d="M12 3h-1.5V1.5h-3V3H6c-.55 0-1 .45-1 1v8.5h3.5v-2h-2l3-6v4h2l-2 4H13V4c0-.55-.45-1-1-1z"/><path d="M8.5 14.5v-2H5V15c0 .55.45 1 1 1h6c.55 0 1-.45 1-1v-2.5H9.5l-1 2z"/></svg><svg width="24" height="24" viewBox="0 0 18 18" id="battery-charging-30" x="153" y="33"><path fill-opacity=".3" d="M12 3h-1.5V1.5h-3V3H6c-.55 0-1 .45-1 1v6.5h1.5l3-6v4h2l-1 2H13V4c0-.55-.45-1-1-1z"/><path d="M8.5 14.5v-4H5V15c0 .55.45 1 1 1h6c.55 0 1-.45 1-1v-4.5h-2.5l-2 4z"/></svg><svg width="24" height="24" viewBox="0 0 18 18" id="battery-charging-50" x="183" y="33"><path fill-opacity=".3" d="M12 3h-1.5V1.5h-3V3H6c-.55 0-1 .45-1 1v5.5h2l2.5-5v4h2l-.5 1h2V4c0-.55-.45-1-1-1z"/><path d="M8.5 14.5v-4h-2l.5-1H5V15c0 .55.45 1 1 1h6c.55 0 1-.45 1-1V9.5h-2l-2.5 5z"/></svg><svg width="24" height="24" viewBox="0 0 18 18" id="battery-charging-60" x="213" y="33"><path fill-opacity=".3" d="M12 3h-1.5V1.5h-3V3H6c-.55 0-1 .45-1 1v4.5h2.5l2-4v4H13V4c0-.55-.45-1-1-1z"/><path d="M8.5 14.5v-4h-2l1-2H5V15c0 .55.45 1 1 1h6c.55 0 1-.45 1-1V8.5h-1.5l-3 6z"/></svg><svg width="24" height="24" viewBox="0 0 18 18" id="battery-charging-80" x="243" y="33"><path fill-opacity=".3" d="M12 3h-1.5V1.5h-3V3H6c-.55 0-1 .45-1 1v2.5h3.5l1-2v2H13V4c0-.55-.45-1-1-1z"/><path d="M9.5 8.5h2l-3 6v-4h-2l2-4H5V15c0 .55.45 1 1 1h6c.55 0 1-.45 1-1V6.5H9.5v2z"/></svg><svg width="24" height="24" viewBox="0 0 18 18" id="battery-charging-90" x="273" y="33"><path fill-opacity=".3" d="M12 3h-1V1.5H7V3H6c-.55 0-1 .45-1 1v1.5h4l.5-1v1H13V4c0-.55-.45-1-1-1z"/><path d="M9.5 8.5h2l-3 6v-4h-2l2.5-5H5V15c0 .55.45 1 1 1h6c.55 0 1-.45 1-1V5.5H9.5v3z"/></svg><svg width="24" height="24" viewBox="0 0 18 18" id="battery-charging-full" x="303" y="33"><path d="M12 3h-1.5V1.5h-3V3H6c-.55 0-1 .45-1 1v11c0 .55.45 1 1 1h6c.55 0 1-.45 1-1V4c0-.55-.45-1-1-1zM8.5 14.5v-4h-2l3-6v4h2l-3 6z"/></svg><svg width="24" height="24" viewBox="0 0 18 18" id="battery-full" x="333" y="33"><path d="M12 3h-1.5V1.5h-3V3H6c-.55 0-1 .45-1 1v11c0 .55.45 1 1 1h6c.55 0 1-.45 1-1V4c0-.55-.45-1-1-1z"/></svg><svg width="24" height="24" viewBox="0 0 18 18" id="battery-std" x="3" y="63"><path d="M12 3h-1.5V1.5h-3V3H6c-.55 0-1 .45-1 1v11c0 .55.45 1 1 1h6c.55 0 1-.45 1-1V4c0-.55-.45-1-1-1z"/></svg><svg width="24" height="24" viewBox="0 0 18 18" id="battery-unknown" x="33" y="63"><path d="M12 3h-1.5V1.5h-3V3H6c-.55 0-1 .45-1 1v11c0 .55.45 1 1 1h6c.55 0 1-.45 1-1V4c0-.55-.45-1-1-1zM9.8 13.8H8.2v-1.6h1.6v1.6zm1.12-4.89s-.32.35-.56.59c-.4.4-.69 1.12-.69 1.5H8.2c0-.69.52-1.44.91-1.83l.78-.79c.23-.23.37-.54.37-.88 0-.69-.56-1.25-1.25-1.25s-1.25.56-1.25 1.25H6.5C6.5 6.12 7.62 5 9 5s2.5 1.12 2.5 2.5c0 .55-.22 1.05-.58 1.41z"/></svg><svg width="24" height="24" viewBox="0 0 18 18" id="network-cell" x="63" y="63"><path fill-opacity=".3" d="M1 16h15V1z"/><path d="M1 16h11V5z"/></svg><svg width="24" height="24" viewBox="0 0 18 18" id="network-wifi" x="93" y="63"><path fill-opacity=".3" d="M9.01 15.99l8.8-10.96C17.47 4.77 14.08 2 9 2S.53 4.77.19 5.03l8.8 10.96h.02z"/><path d="M2.73 8.19L9 15.99V16l.01-.01 6.27-7.8C14.96 7.94 12.56 6 9 6S3.04 7.94 2.73 8.19z"/></svg><svg width="24" height="24" viewBox="0 0 18 18" id="signal-cellular-0-bar" x="123" y="63"><path fill-opacity=".3" d="M1 16h15V1z"/></svg><svg width="24" height="24" viewBox="0 0 18 18" id="signal-cellular-1-bar" x="153" y="63"><path fill-opacity=".3" d="M1 16h15V1z"/><path d="M1 16h7V9z"/></svg><svg width="24" height="24" viewBox="0 0 18 18" id="signal-cellular-2-bar" x="183" y="63"><path fill-opacity=".3" d="M1 16h15V1z"/><path d="M1 16h9V7z"/></svg><svg width="24" height="24" viewBox="0 0 18 18" id="signal-cellular-3-bar" x="213" y="63"><path fill-opacity=".3" d="M1 16h15V1z"/><path d="M1 16h11V5z"/></svg><svg width="24" height="24" viewBox="0 0 18 18" id="signal-cellular-4-bar" x="243" y="63"><path d="M1 16h15V1z"/></svg><svg width="24" height="24" viewBox="0 0 18 18" id="signal-cellular-connected-no-internet-0-bar" x="273" y="63"><path d="M12 5h4V1zm0 11V5L1 16z" fill-opacity=".3"/><path d="M14 16h2v-2h-2v2zm0-9v5h2V7h-2z"/></svg><svg width="24" height="24" viewBox="0 0 18 18" id="signal-cellular-connected-no-internet-1-bar" x="303" y="63"><path d="M12 16V5L1 16zm0-11h4V1z" fill-opacity=".3"/><path d="M14 16h2v-2h-2v2zm-6 0V9l-7 7h7zm6-9v5h2V7h-2z"/></svg><svg width="24" height="24" viewBox="0 0 18 18" id="signal-cellular-connected-no-internet-2-bar" x="333" y="63"><path d="M16 1l-4 4h4zM1 16h11V5z" fill-opacity=".3"/><path d="M10 16V7l-9 9h9zm4-9v5h2V7h-2zm0 9h2v-2h-2v2z"/></svg><svg width="24" height="24" viewBox="0 0 18 18" id="signal-cellular-connected-no-internet-3-bar" x="3" y="93"><path fill-opacity=".3" d="M1 16h11V5zM16 1l-4 4h4z"/><path d="M12 16V5L1 16h11zm2-9v5h2V7h-2zm0 9h2v-2h-2v2z"/></svg><svg width="24" height="24" viewBox="0 0 18 18" id="signal-cellular-connected-no-internet-4-bar" x="33" y="93"><path d="M12 5h4V1zm2 11h2v-2h-2v2zm0-9v5h2V7h-2zm-2 9V5L1 16z"/></svg><svg width="24" height="24" viewBox="0 0 18 18" id="signal-cellular-null" x="63" y="93"><path d="M14 5.83V14H5.83L14 5.83M16 1L1 16h15V1z"/></svg><svg width="24" height="24" viewBox="0 0 18 18" id="signal-cellular-off" x="93" y="93"><path d="M15.5 1L9.31 7.19l6.19 6.19V1zM3.58 3.37l-.96.96L7.4 9.1 1 15.5h12.8l.25.25 1.5 1.5.95-.95L3.58 3.37z"/></svg><svg width="24" height="24" viewBox="0 0 18 18" id="signal-wifi-0-bar" x="123" y="93"><path fill-opacity=".3" d="M9.01 15.99l8.8-10.96C17.47 4.77 14.08 2 9 2S.53 4.77.19 5.03l8.8 10.96h.02z"/></svg><svg width="24" height="24" viewBox="0 0 18 18" id="signal-wifi-1-bar" x="153" y="93"><path fill-opacity=".3" d="M9.01 15.99l8.8-10.96C17.47 4.77 14.08 2 9 2S.53 4.77.19 5.03l8.8 10.96h.02z"/><path d="M5.24 11.31L9 16l3.76-4.68C12.57 11.17 11.14 10 9 10c-2.14 0-3.57 1.17-3.76 1.31z"/></svg><svg width="24" height="24" viewBox="0 0 18 18" id="signal-wifi-2-bar" x="183" y="93"><path fill-opacity=".3" d="M9.01 15.99l8.8-10.96C17.47 4.77 14.08 2 9 2S.53 4.77.19 5.03l8.8 10.96h.02z"/><path d="M3.98 9.75l5.01 6.24L9 16v-.01l5.01-6.24C13.76 9.56 11.85 8 9 8 6.15 8 4.24 9.56 3.98 9.75z"/></svg><svg width="24" height="24" viewBox="0 0 18 18" id="signal-wifi-3-bar" x="213" y="93"><path fill-opacity=".3" d="M9.01 15.99l8.8-10.96C17.47 4.77 14.08 2 9 2S.53 4.77.19 5.03l8.8 10.96h.02z"/><path d="M2.73 8.19L9 15.99V16l.01-.01 6.27-7.8C14.96 7.94 12.56 6 9 6S3.04 7.94 2.73 8.19z"/></svg><svg width="24" height="24" viewBox="0 0 18 18" id="signal-wifi-4-bar" x="243" y="93"><path d="M9.01 15.99l8.8-10.96C17.47 4.77 14.08 2 9 2S.53 4.77.19 5.03l8.8 10.96h.02z"/></svg><svg width="24" height="24" viewBox="0 0 18 18" id="signal-wifi-off" x="273" y="93"><path d="M17.81 5.03C17.47 4.77 14.08 2 9 2c-1.21 0-2.32.16-3.32.4l7.9 7.89 4.23-5.26zM1.5 2.04L2.86 3.4C1.31 4.13.36 4.9.19 5.03l8.8 10.96L9 16l.01-.01 2.87-3.58.06.06 2.49 2.49.95-.96L2.45 1.08l-.95.96z"/></svg><svg width="24" height="24" viewBox="0 0 18 18" id="usb" x="303" y="93"><path d="M11 6.5v2h.5V10h-2V5H11L9 2 7 5h1.5v5h-2V8.46c.35-.18.6-.54.6-.96 0-.61-.49-1.1-1.1-1.1-.61 0-1.1.49-1.1 1.1 0 .42.25.78.6.96V10c0 .55.45 1 1 1h2v2.09c-.58.21-1 .76-1 1.41 0 .83.67 1.5 1.5 1.5s1.5-.67 1.5-1.5c0-.65-.42-1.2-1-1.41V11h2c.55 0 1-.45 1-1V8.5h.5v-2h-2z"/></svg><svg width="24" height="24" viewBox="0 0 18 18" id="wallpaper" x="333" y="93"><path d="M13 6c0-.55-.45-1-1-1s-1 .45-1 1 .45 1 1 1 1-.45 1-1zm-4.71 6.93L6.5 10.79 4 14h10l-3.21-4.29-2.5 3.22zM3 3h5V1H3c-1.1 0-2 .9-2 2v5h2V3zm12 12h-5v2h5c1.1 0 2-.9 2-2v-5h-2v5zM3 10H1v5c0 1.1.9 2 2 2h5v-2H3v-5zm12-9h-5v2h5v5h2V3c0-1.1-.9-2-2-2z"/></svg><svg width="24" height="24" viewBox="0 0 18 18" id="widgets" x="3" y="123"><path d="M10 10v6h6v-6h-6zM2 8h6V2H2v6zm0 8h6v-6H2v6zm8 0h6v-6h-6v6zm7.25-11L13 .75 8.75 5 13 9.25 17.25 5z"/></svg><svg width="24" height="24" viewBox="0 0 18 18" id="attach-file" x="33" y="123"><path d="M13 14c0 2.21-1.79 4-4 4s-4-1.79-4-4V3c0-1.66 1.34-3 3-3s3 1.34 3 3v9c0 1.1-.9 2-2 2s-2-.9-2-2V4h1v8c0 .55.45 1 1 1s1-.45 1-1V3c0-1.1-.9-2-2-2s-2 .9-2 2v11c0 1.66 1.34 3 3 3s3-1.34 3-3V4h1v10z"/></svg><svg width="24" height="24" viewBox="0 0 18 18" id="attach-money" x="63" y="123"><path d="M9.56 8.1c-1.6-.51-2.66-.71-2.66-1.88 0-.83.72-1.62 2.1-1.62 1.59 0 2.1.88 2.1 1.94H13c0-1.79-1.17-3.09-3-3.44V1H8v2.11c-1.58.32-3 1.37-3 3.12 0 2.25 1.78 2.8 4 3.52 1.88.61 2.25 1.04 2.25 2.09 0 .9-.67 1.56-2.25 1.56-1.2 0-2.25-.84-2.25-2.06h-2c0 1.88 1.38 3.2 3.25 3.56V17h2v-2.07c2.04-.29 3.2-1.49 3.2-3.1 0-1.87-.94-2.87-3.64-3.73z"/></svg><svg width="24" height="24" viewBox="0 0 18 18" id="border-all" x="93" y="123"><path d="M2 2v14h14V2H2zm6 12H4v-4h4v4zm0-6H4V4h4v4zm6 6h-4v-4h4v4zm0-6h-4V4h4v4z"/></svg><svg width="24" height="24" viewBox="0 0 18 18" id="border-bottom" x="123" y="123"><path d="M7 2H5v2h2V2zm3 6H8v2h2V8zm0 3H8v2h2v-2zm3-3h-2v2h2V8zM7 8H5v2h2V8zm6-6h-2v2h2V2zm-3 3H8v2h2V5zm0-3H8v2h2V2zm-6 9H2v2h2v-2zm10 2h2v-2h-2v2zm0-6h2V5h-2v2zm0 3h2V8h-2v2zm0-8v2h2V2h-2zM4 2H2v2h2V2zM2 16h14v-2H2v2zM4 5H2v2h2V5zm0 3H2v2h2V8z"/></svg><svg width="24" height="24" viewBox="0 0 18 18" id="border-clear" x="153" y="123"><path d="M8 16h2v-2H8v2zm-3-6h2V8H5v2zm0-6h2V2H5v2zm3 9h2v-2H8v2zm-3 3h2v-2H5v2zM2 7h2V5H2v2zm0 9h2v-2H2v2zM2 4h2V2H2v2zm0 6h2V8H2v2zm6 0h2V8H8v2zm-6 3h2v-2H2v2zm12 0h2v-2h-2v2zm0 3h2v-2h-2v2zm0-6h2V8h-2v2zm0-3h2V5h-2v2zm0-5v2h2V2h-2zM8 4h2V2H8v2zm3 0h2V2h-2v2zM8 7h2V5H8v2zm3 9h2v-2h-2v2zm0-6h2V8h-2v2z"/></svg><svg width="24" height="24" viewBox="0 0 18 18" id="border-color" x="183" y="123"><path fill-opacity=".36" d="M0 15h18v3H0z"/><path d="M13.38 5.5L10.5 2.62 3 10.12V13h2.88l7.5-7.5zm2.47-2.48c.2-.2.2-.51 0-.71L13.68.14c-.2-.2-.51-.2-.71 0L11.62 1.5l2.88 2.88 1.35-1.36z"/></svg><svg width="24" height="24" viewBox="0 0 18 18" id="border-horizontal" x="213" y="123"><path d="M8 16h2v-2H8v2zM5 4h2V2H5v2zm3 9h2v-2H8v2zm-3 3h2v-2H5v2zM2 7h2V5H2v2zm0 9h2v-2H2v2zM2 4h2V2H2v2zm0 6h14V8H2v2zm0 3h2v-2H2v2zm12 0h2v-2h-2v2zm0 3h2v-2h-2v2zm0-9h2V5h-2v2zm0-5v2h2V2h-2zM8 4h2V2H8v2zm3 0h2V2h-2v2zM8 7h2V5H8v2zm3 9h2v-2h-2v2z"/></svg><svg width="24" height="24" viewBox="0 0 18 18" id="border-inner" x="243" y="123"><path d="M2 16h2v-2H2v2zM4 5H2v2h2V5zm1 11h2v-2H5v2zm8-14h-2v2h2V2zM4 2H2v2h2V2zm3 0H5v2h2V2zM2 13h2v-2H2v2zm9 3h2v-2h-2v2zM10 2H8v6H2v2h6v6h2v-6h6V8h-6V2zm4 0v2h2V2h-2zm0 5h2V5h-2v2zm0 9h2v-2h-2v2zm0-3h2v-2h-2v2z"/></svg><svg width="24" height="24" viewBox="0 0 18 18" id="border-left" x="273" y="123"><path d="M8 10h2V8H8v2zm0-3h2V5H8v2zm0 6h2v-2H8v2zm0 3h2v-2H8v2zm-6 0h2V2H2v14zm3 0h2v-2H5v2zM5 4h2V2H5v2zm0 6h2V8H5v2zm9 6h2v-2h-2v2zm0-6h2V8h-2v2zm0 3h2v-2h-2v2zm0-6h2V5h-2v2zM8 4h2V2H8v2zm6-2v2h2V2h-2zm-3 14h2v-2h-2v2zm0-6h2V8h-2v2zm0-6h2V2h-2v2z"/></svg><svg width="24" height="24" viewBox="0 0 18 18" id="border-outer" x="303" y="123"><path d="M10 5H8v2h2V5zm3 3h-2v2h2V8zm-3 0H8v2h2V8zm0 3H8v2h2v-2zM7 8H5v2h2V8zM2 2v14h14V2H2zm12 12H4V4h10v10z"/></svg><svg width="24" height="24" viewBox="0 0 18 18" id="border-right" x="333" y="123"><path d="M2 4h2V2H2v2zm3 0h2V2H5v2zm0 6h2V8H5v2zm0 6h2v-2H5v2zM2 7h2V5H2v2zm0 3h2V8H2v2zm0 6h2v-2H2v2zm0-3h2v-2H2v2zm9-3h2V8h-2v2zm-3 6h2v-2H8v2zm3 0h2v-2h-2v2zm3-14v14h2V2h-2zM8 4h2V2H8v2zm3 0h2V2h-2v2zm-3 9h2v-2H8v2zm0-6h2V5H8v2zm0 3h2V8H8v2z"/></svg><svg width="24" height="24" viewBox="0 0 18 18" id="border-style" x="3" y="153"><path d="M11 16h2v-2h-2v2zm3 0h2v-2h-2v2zm-9 0h2v-2H5v2zm3 0h2v-2H8v2zm6-3h2v-2h-2v2zm0-3h2V8h-2v2zM2 2v14h2V4h12V2H2zm12 5h2V5h-2v2z"/></svg><svg width="24" height="24" viewBox="0 0 18 18" id="border-top" x="33" y="153"><path d="M5 10h2V8H5v2zm-3 6h2v-2H2v2zm6 0h2v-2H8v2zm0-3h2v-2H8v2zm-3 3h2v-2H5v2zm-3-3h2v-2H2v2zm6-3h2V8H8v2zM2 7h2V5H2v2zm0 3h2V8H2v2zm12 0h2V8h-2v2zm0 3h2v-2h-2v2zm0-6h2V5h-2v2zM2 2v2h14V2H2zm6 5h2V5H8v2zm3 9h2v-2h-2v2zm0-6h2V8h-2v2zm3 6h2v-2h-2v2z"/></svg><svg width="24" height="24" viewBox="0 0 18 18" id="border-vertical" x="63" y="153"><path d="M5 16h2v-2H5v2zM2 7h2V5H2v2zm0-3h2V2H2v2zm3 6h2V8H5v2zm0-6h2V2H5v2zM2 16h2v-2H2v2zm0-6h2V8H2v2zm0 3h2v-2H2v2zM14 2v2h2V2h-2zm0 8h2V8h-2v2zm-6 6h2V2H8v14zm6 0h2v-2h-2v2zm0-9h2V5h-2v2zm0 6h2v-2h-2v2zm-3 3h2v-2h-2v2zm0-6h2V8h-2v2zm0-6h2V2h-2v2z"/></svg><svg width="24" height="24" viewBox="0 0 18 18" id="format-align-center" x="93" y="153"><path d="M4 14v2h10v-2H4zm0-8v2h10V6H4zm-2 6h14v-2H2v2zM2 2v2h14V2H2z"/></svg><svg width="24" height="24" viewBox="0 0 18 18" id="format-align-justify" x="123" y="153"><path d="M2 16h14v-2H2v2zm0-4h14v-2H2v2zM2 2v2h14V2H2zm0 6h14V6H2v2z"/></svg><svg width="24" height="24" viewBox="0 0 18 18" id="format-align-left" x="153" y="153"><path d="M2 16h10v-2H2v2zM12 6H2v2h10V6zM2 2v2h14V2H2zm0 10h14v-2H2v2z"/></svg><svg width="24" height="24" viewBox="0 0 18 18" id="format-align-right" x="183" y="153"><path d="M6 16h10v-2H6v2zm-4-4h14v-2H2v2zM2 2v2h14V2H2zm4 6h10V6H6v2z"/></svg><svg width="24" height="24" viewBox="0 0 18 18" id="format-bold" x="213" y="153"><path d="M11.63 7.82C12.46 7.24 13 6.38 13 5.5 13 3.57 11.43 2 9.5 2H4v12h6.25c1.79 0 3.25-1.46 3.25-3.25 0-1.3-.77-2.41-1.87-2.93zM6.5 4h2.75c.83 0 1.5.67 1.5 1.5S10.08 7 9.25 7H6.5V4zm3.25 8H6.5V9h3.25c.83 0 1.5.67 1.5 1.5s-.67 1.5-1.5 1.5z"/></svg><svg width="24" height="24" viewBox="0 0 18 18" id="format-clear" x="243" y="153"><path d="M2.27 4.55L7.43 9.7 5 15h2.5l1.64-3.58L13.73 16 15 14.73 3.55 3.27 2.27 4.55zM5.82 3l2 2h1.76l-.55 1.21 1.71 1.71L12.08 5H16V3H5.82z"/></svg><svg width="24" height="24" viewBox="0 0 18 18" id="format-color-fill" x="273" y="153"><path fill-opacity=".36" d="M0 15h18v3H0z"/><path d="M14.5 8.87S13 10.49 13 11.49c0 .83.67 1.5 1.5 1.5s1.5-.67 1.5-1.5c0-.99-1.5-2.62-1.5-2.62zm-1.79-2.08L5.91 0 4.85 1.06l1.59 1.59-4.15 4.14c-.39.39-.39 1.02 0 1.41l4.5 4.5c.2.2.45.3.71.3s.51-.1.71-.29l4.5-4.5c.39-.39.39-1.03 0-1.42zM4.21 7L7.5 3.71 10.79 7H4.21z"/></svg><svg width="24" height="24" viewBox="0 0 18 18" id="format-color-reset" x="303" y="153"><path d="M14 11c0-3.33-5-9-5-9s-.85.97-1.85 2.33l6.83 6.83L14 11zM3.55 3.27L2.27 4.55l2.89 2.89C4.49 8.69 4 9.96 4 11c0 2.76 2.24 5 5 5 1.31 0 2.49-.52 3.39-1.34L14.73 17 16 15.73 3.55 3.27z"/></svg><svg width="24" height="24" viewBox="0 0 18 18" id="format-color-text" x="333" y="153"><path fill-opacity=".36" d="M0 15h18v3H0z"/><path d="M10 1H8L3.5 13h2l1.12-3h4.75l1.12 3h2L10 1zM7.38 8L9 3.67 10.62 8H7.38z"/></svg><svg width="24" height="24" viewBox="0 0 18 18" id="format-indent-decrease" x="3" y="183"><path d="M10 10H2v2h8v-2zm0-4H2v2h8V6zM2 16h14v-2H2v2zm14-3.5v-7L12.5 9l3.5 3.5zM2 2v2h14V2H2z"/></svg><svg width="24" height="24" viewBox="0 0 18 18" id="format-indent-increase" x="33" y="183"><path d="M8 12h8v-2H8v2zM5.5 9L2 5.5v7L5.5 9zM2 16h14v-2H2v2zM2 2v2h14V2H2zm6 6h8V6H8v2z"/></svg><svg width="24" height="24" viewBox="0 0 18 18" id="format-italic" x="63" y="183"><path d="M7 2v2h2.58l-3.66 8H3v2h8v-2H8.42l3.66-8H15V2z"/></svg><svg width="24" height="24" viewBox="0 0 18 18" id="format-line-spacing" x="93" y="183"><path d="M9 15h9v-2H9v2zM9 3v2h9V3H9zM7.5 5L4 1.5.5 5H3v8H.5L4 16.5 7.5 13H5V5h2.5zM9 10h9V8H9v2z"/></svg><svg width="24" height="24" viewBox="0 0 18 18" id="format-list-bulleted" x="123" y="183"><path d="M7 10h9V8H7v2zm0-7v2h9V3H7zm0 12h9v-2H7v2zm-4-5h2V8H3v2zm0-7v2h2V3H3zm0 12h2v-2H3v2z"/></svg><svg width="24" height="24" viewBox="0 0 18 18" id="format-list-numbered" x="153" y="183"><path d="M2 13h2v.5H3v1h1v.5H2v1h3v-4H2v1zm0-5h1.8L2 10.1v.9h3v-1H3.2L5 7.9V7H2v1zm1-2h1V2H2v1h1v3zm4-3v2h9V3H7zm0 12h9v-2H7v2zm0-5h9V8H7v2z"/></svg><svg width="24" height="24" viewBox="0 0 18 18" id="format-paint" x="183" y="183"><path d="M13 3c0-.55-.45-1-1-1H4c-.55 0-1 .45-1 1v3c0 .55.45 1 1 1h8c.55 0 1-.45 1-1V5h1.5v3H7v8h2V9.5h7V4h-3V3z"/></svg><svg width="24" height="24" viewBox="0 0 18 18" id="format-quote" x="213" y="183"><path d="M10 5v5h2.75L11 13h2.25L15 10V5h-5zm-7 5h2.75L4 13h2.25L8 10V5H3v5z"/></svg><svg width="24" height="24" viewBox="0 0 18 18" id="format-size" x="243" y="183"><path d="M1 9h3v6h2V9h3V7H1v2zm6-6v2h4v10h2V5h4V3H7z"/></svg><svg width="24" height="24" viewBox="0 0 18 18" id="format-strikethrough" x="273" y="183"><path d="M8 15h2v-4H8v4zM4 2v2h4v3h2V4h4V2H4zm-1 8h12V8H3v2z"/></svg><svg width="24" height="24" viewBox="0 0 18 18" id="format-textdirection-l-to-r" x="303" y="183"><path d="M6 7v5h2V2h1v10h2V2h1V1H6C4.34 1 3 2.34 3 4s1.34 3 3 3zm10 8l-3-3v2H2v2h11v2l3-3z"/></svg><svg width="24" height="24" viewBox="0 0 18 18" id="format-textdirection-r-to-l" x="333" y="183"><path d="M7 7v5h2V2h1v10h2V2h1V1H7C5.34 1 4 2.34 4 4s1.34 3 3 3zM5 18v-2h11v-2H5v-2l-3 3 3 3z"/></svg><svg width="24" height="24" viewBox="0 0 18 18" id="format-underline" x="3" y="213"><path d="M9 13c2.76 0 5-2.24 5-5V1h-2.5v7c0 1.38-1.12 2.5-2.5 2.5S6.5 9.38 6.5 8V1H4v7c0 2.76 2.24 5 5 5zm-6 2v2h12v-2H3z"/></svg><svg width="24" height="24" viewBox="0 0 18 18" id="functions" x="33" y="213"><path d="M14 2H4v1.8L9.5 9 4 14.2V16h10v-2H7.1L12 9 7.1 4H14z"/></svg><svg width="24" height="24" viewBox="0 0 18 18" id="insert-chart" x="63" y="213"><path d="M16 1H2c-.55 0-1 .45-1 1v14c0 .55.45 1 1 1h14c.55 0 1-.45 1-1V2c0-.55-.45-1-1-1zM7 13H5V8h2v5zm3 0H8V5h2v8zm3 0h-2V9h2v4z"/></svg><svg width="24" height="24" viewBox="0 0 18 18" id="insert-comment" x="93" y="213"><path d="M17 3c0-.55-.45-1-1-1H2c-.55 0-1 .45-1 1v11c0 .55.45 1 1 1h11.5l3.5 3V3zm-4 8H5V9h8v2zm0-3H5V6h8v2z"/></svg><svg width="24" height="24" viewBox="0 0 18 18" id="insert-drive-file" x="123" y="213"><path d="M4 1c-.55 0-.99.45-.99 1L3 16c0 .55.44 1 1 1h10c.55 0 1-.45 1-1V6l-5-5H4zm6 5V2l4 4h-4z"/></svg><svg width="24" height="24" viewBox="0 0 18 18" id="insert-emoticon" x="153" y="213"><path d="M6 8c.55 0 1-.45 1-1s-.45-1-1-1-1 .45-1 1 .45 1 1 1zm6 0c.55 0 1-.45 1-1s-.45-1-1-1-1 .45-1 1 .45 1 1 1zm-3 5.5c2.14 0 3.92-1.5 4.38-3.5H4.62c.46 2 2.24 3.5 4.38 3.5zM9 1C4.57 1 1 4.58 1 9s3.57 8 8 8 8-3.58 8-8-3.58-8-8-8zm0 14.5c-3.59 0-6.5-2.91-6.5-6.5S5.41 2.5 9 2.5s6.5 2.91 6.5 6.5-2.91 6.5-6.5 6.5z"/></svg><svg width="24" height="24" viewBox="0 0 18 18" id="insert-invitation" x="183" y="213"><path d="M13 9H9v4h4V9zm3-7h-1V0h-2v2H5V0H3v2H2c-.55 0-1 .45-1 1v13c0 .55.45 1 1 1h14c.55 0 1-.45 1-1V3c0-.55-.45-1-1-1zm-1 13H3V6h12v9z"/></svg><svg width="24" height="24" viewBox="0 0 18 18" id="insert-link" x="213" y="213"><path d="M1.9 9c0-1.16.94-2.1 2.1-2.1h4V5H4C1.79 5 0 6.79 0 9s1.79 4 4 4h4v-1.9H4c-1.16 0-2.1-.94-2.1-2.1zM14 5h-4v1.9h4c1.16 0 2.1.94 2.1 2.1 0 1.16-.94 2.1-2.1 2.1h-4V13h4c2.21 0 4-1.79 4-4s-1.79-4-4-4zm-8 5h6V8H6v2z"/></svg><svg width="24" height="24" viewBox="0 0 18 18" id="insert-photo" x="243" y="213"><path d="M16 1H2c-.55 0-1 .45-1 1v14c0 .55.45 1 1 1h14c.55 0 1-.45 1-1V2c0-.55-.45-1-1-1zM3.5 13l2.75-3.54 1.96 2.36 2.75-3.54L14.5 13h-11z"/></svg><svg width="24" height="24" viewBox="0 0 18 18" id="merge-type" x="273" y="213"><path d="M9 1.5L5.5 5H8v4.59l-5 5L4.41 16 10 10.41V5h2.5L9 1.5zm3 10.09L10.59 13l3 3L15 14.59l-3-3z"/></svg><svg width="24" height="24" viewBox="0 0 18 18" id="mode-comment" x="303" y="213"><path d="M17 3c0-.55-.45-1-1-1H2c-.55 0-1 .45-1 1v11c0 .55.45 1 1 1h11.5l3.5 3V3z"/></svg><svg width="24" height="24" viewBox="0 0 18 18" id="mode-edit" x="333" y="213"><path d="M2 12.88V16h3.12L14 7.12 10.88 4 2 12.88zm14.76-8.51c.33-.33.33-.85 0-1.18l-1.95-1.95c-.33-.33-.85-.33-1.18 0L12 2.88 15.12 6l1.64-1.63z"/></svg><svg width="24" height="24" viewBox="0 0 18 18" id="publish" x="3" y="243"><path d="M3 2v2h12V2H3zm0 9h3v5h6v-5h3L9 5l-6 6z"/></svg><svg width="24" height="24" viewBox="0 0 18 18" id="vertical-align-bottom" x="33" y="243"><path d="M12.5 9H10V2H8v7H5.5L9 12.5 12.5 9zM3 14v2h12v-2H3z"/></svg><svg width="24" height="24" viewBox="0 0 18 18" id="vertical-align-center" x="63" y="243"><path d="M12.5 3H10V0H8v3H5.5L9 6.5 12.5 3zM3 8v2h12V8H3zm2.5 7H8v3h2v-3h2.5L9 11.5 5.5 15z"/></svg><svg width="24" height="24" viewBox="0 0 18 18" id="vertical-align-top" x="93" y="243"><path d="M3 2v2h12V2H3zm2.5 7H8v7h2V9h2.5L9 5.5 5.5 9z"/></svg><svg width="24" height="24" viewBox="0 0 18 18" id="wrap-text" x="123" y="243"><path d="M16 3H2v2h14V3zM2 15h4v-2H2v2zm11.5-7H2v2h11.75c.83 0 1.5.67 1.5 1.5s-.67 1.5-1.5 1.5H11v-2l-3 3 3 3v-2h2.5c1.93 0 3.5-1.57 3.5-3.5S15.43 8 13.5 8z"/></svg><svg xmlns:xlink="http://www.w3.org/1999/xlink" width="24" height="24" viewBox="0 0 18 18" id="attachment" x="153" y="243"><defs><path id="_tdpnoyL" d="M0 0h18v18H0V0z"/></defs><clipPath id="_mm1tbnT"><use xlink:href="#_tdpnoyL" overflow="visible"/></clipPath><path clip-path="url(#_mm1tbnT)" d="M15 5H4C1.8 5 0 6.8 0 9s1.8 4 4 4h10v-1H4c-1.7 0-3-1.3-3-3s1.3-3 3-3h11c1.1 0 2 .9 2 2s-.9 2-2 2H6c-.6 0-1-.4-1-1s.4-1 1-1h8V7H6c-1.1 0-2 .9-2 2s.9 2 2 2h9c1.7 0 3-1.3 3-3s-1.3-3-3-3z"/></svg><svg width="24" height="24" viewBox="0 0 18 18" id="cloud-circle" x="183" y="243"><path d="M9 1C4.58 1 1 4.58 1 9s3.58 8 8 8 8-3.58 8-8-3.58-8-8-8zm3.5 11H6c-1.38 0-2.5-1.12-2.5-2.5S4.62 7 6 7h.18C6.6 5.84 7.7 5 9 5c1.66 0 3 1.34 3 3h.5c1.1 0 2 .9 2 2s-.9 2-2 2z"/></svg><svg width="24" height="24" viewBox="0 0 18 18" id="folder" x="213" y="243"><path d="M10 5L8 3H3c-.55 0-1 .45-1 1v10c0 .55.45 1 1 1h12c.55 0 1-.45 1-1V6c0-.55-.45-1-1-1h-5z"/></svg><svg width="24" height="24" viewBox="0 0 18 18" id="folder-open" x="243" y="243"><path d="M15 5h-5L8 3H3c-.55 0-1 .45-1 1v10c0 .55.45 1 1 1h12c.55 0 1-.45 1-1V6c0-.55-.45-1-1-1zm-1 8H4V7h10v6z"/></svg><svg width="24" height="24" viewBox="0 0 18 18" id="folder-shared" x="273" y="243"><path d="M16 4h-6L8 2H2c-.55 0-1 .45-1 1v12c0 .55.45 1 1 1h14c.55 0 1-.45 1-1V5c0-.55-.45-1-1-1zm-4.5 2.75c.97 0 1.75.78 1.75 1.75s-.78 1.75-1.75 1.75-1.75-.78-1.75-1.75.78-1.75 1.75-1.75zM15 14H8v-1.25C8 11.58 10.33 11 11.5 11s3.5.58 3.5 1.75V14z"/></svg><svg width="24" height="24" viewBox="0 0 18 18" id="apps" x="303" y="243"><path d="M2 10h3V7H2v3zm0-5h3V2H2v3zm0 10h3v-3H2v3zm5 0h3v-3H7v3zm5-5h3V7h-3v3zm-5 0h3V7H7v3zm5 5h3v-3h-3v3zm0-13v3h3V2h-3zM7 5h3V2H7v3z"/></svg><svg width="24" height="24" viewBox="0 0 18 18" id="arrow-back" x="333" y="243"><path d="M15 8.25H5.87l4.19-4.19L9 3 3 9l6 6 1.06-1.06-4.19-4.19H15v-1.5z"/></svg><svg width="24" height="24" viewBox="0 0 18 18" id="arrow-drop-down" x="3" y="273"><path d="M5 8l4 4 4-4z"/></svg><svg width="24" height="24" viewBox="0 0 18 18" id="arrow-drop-up" x="33" y="273"><path d="M9 6l-4 4h8z"/></svg><svg width="24" height="24" viewBox="0 0 18 18" id="arrow-forward" x="63" y="273"><path d="M9 3L7.94 4.06l4.19 4.19H3v1.5h9.13l-4.19 4.19L9 15l6-6z"/></svg><svg width="24" height="24" viewBox="0 0 18 18" id="cancel" x="93" y="273"><path d="M9 1C4.58 1 1 4.58 1 9s3.58 8 8 8 8-3.58 8-8-3.58-8-8-8zm4 10.87L11.87 13 9 10.13 6.13 13 5 11.87 7.87 9 5 6.13 6.13 5 9 7.87 11.87 5 13 6.13 10.13 9 13 11.87z"/></svg><svg width="24" height="24" viewBox="0 0 18 18" id="check" x="123" y="273"><path d="M6.61 11.89L3.5 8.78 2.44 9.84 6.61 14l8.95-8.95L14.5 4z"/></svg><svg width="24" height="24" viewBox="0 0 18 18" id="chevron-left" x="153" y="273"><path d="M11.56 5.56L10.5 4.5 6 9l4.5 4.5 1.06-1.06L8.12 9z"/></svg><svg width="24" height="24" viewBox="0 0 18 18" id="chevron-right" x="183" y="273"><path d="M7.5 4.5L6.44 5.56 9.88 9l-3.44 3.44L7.5 13.5 12 9z"/></svg><svg width="24" height="24" viewBox="0 0 18 18" id="close" x="213" y="273"><path d="M14.53 4.53l-1.06-1.06L9 7.94 4.53 3.47 3.47 4.53 7.94 9l-4.47 4.47 1.06 1.06L9 10.06l4.47 4.47 1.06-1.06L10.06 9z"/></svg><svg width="24" height="24" viewBox="0 0 18 18" id="expand-less" x="243" y="273"><path d="M9 6l-4.5 4.5 1.06 1.06L9 8.12l3.44 3.44 1.06-1.06z"/></svg><svg width="24" height="24" viewBox="0 0 18 18" id="expand-more" x="273" y="273"><path d="M12.44 6.44L9 9.88 5.56 6.44 4.5 7.5 9 12l4.5-4.5z"/></svg><svg width="24" height="24" viewBox="0 0 18 18" id="fullscreen" x="303" y="273"><path d="M4.5 11H3v4h4v-1.5H4.5V11zM3 7h1.5V4.5H7V3H3v4zm10.5 6.5H11V15h4v-4h-1.5v2.5zM11 3v1.5h2.5V7H15V3h-4z"/></svg><svg width="24" height="24" viewBox="0 0 18 18" id="fullscreen-exit" x="333" y="273"><path d="M3 12.5h2.5V15H7v-4H3v1.5zm2.5-7H3V7h4V3H5.5v2.5zM11 15h1.5v-2.5H15V11h-4v4zm1.5-9.5V3H11v4h4V5.5h-2.5z"/></svg><svg width="24" height="24" viewBox="0 0 18 18" id="menu" x="3" y="303"><path d="M2 13.5h14V12H2v1.5zm0-4h14V8H2v1.5zM2 4v1.5h14V4H2z"/></svg><svg width="24" height="24" viewBox="0 0 18 18" id="more-horiz" x="33" y="303"><path d="M4 7.5c-.83 0-1.5.67-1.5 1.5s.67 1.5 1.5 1.5S5.5 9.83 5.5 9 4.83 7.5 4 7.5zm10 0c-.83 0-1.5.67-1.5 1.5s.67 1.5 1.5 1.5 1.5-.67 1.5-1.5-.67-1.5-1.5-1.5zm-5 0c-.83 0-1.5.67-1.5 1.5s.67 1.5 1.5 1.5 1.5-.67 1.5-1.5S9.83 7.5 9 7.5z"/></svg><svg width="24" height="24" viewBox="0 0 18 18" id="more-vert" x="63" y="303"><path d="M9 5.5c.83 0 1.5-.67 1.5-1.5S9.83 2.5 9 2.5 7.5 3.17 7.5 4 8.17 5.5 9 5.5zm0 2c-.83 0-1.5.67-1.5 1.5s.67 1.5 1.5 1.5 1.5-.67 1.5-1.5S9.83 7.5 9 7.5zm0 5c-.83 0-1.5.67-1.5 1.5s.67 1.5 1.5 1.5 1.5-.67 1.5-1.5-.67-1.5-1.5-1.5z"/></svg><svg width="24" height="24" viewBox="0 0 18 18" id="refresh" x="93" y="303"><path d="M9 13.5c-2.49 0-4.5-2.01-4.5-4.5S6.51 4.5 9 4.5c1.24 0 2.36.52 3.17 1.33L10 8h5V3l-1.76 1.76C12.15 3.68 10.66 3 9 3 5.69 3 3.01 5.69 3.01 9S5.69 15 9 15c2.97 0 5.43-2.16 5.9-5h-1.52c-.46 2-2.24 3.5-4.38 3.5z"/></svg><svg width="24" height="24" viewBox="0 0 18 18" id="unfold-less" x="123" y="303"><path d="M5.56 14.44l1.06 1.06L9 13.12l2.38 2.38 1.06-1.06L9 11l-3.44 3.44zm6.88-10.88L11.38 2.5 9 4.88 6.62 2.5 5.56 3.56 9 7l3.44-3.44z"/></svg><svg width="24" height="24" viewBox="0 0 18 18" id="unfold-more" x="153" y="303"><path d="M9 4.12l2.38 2.38 1.06-1.06L9 2 5.56 5.44 6.62 6.5 9 4.12zm0 9.76L6.62 11.5l-1.06 1.06L9 16l3.44-3.44-1.06-1.06L9 13.88z"/></svg><svg width="24" height="24" viewBox="0 0 18 18" id="adb" x="183" y="303"><path d="M4 12c0 2.76 2.24 5 5 5s5-2.24 5-5V9H4v3zm7.95-8.91l1.5-1.5-.59-.59-1.65 1.65c-.67-.34-1.41-.54-2.21-.54s-1.54.2-2.21.54L5.14 1l-.58.59 1.5 1.5C4.81 4 4 5.45 4 7.11V8h10v-.89c0-1.66-.81-3.11-2.05-4.02zM7 6H6V5h1v1zm5 0h-1V5h1v1z"/></svg><svg width="24" height="24" viewBox="0 0 18 18" id="event-note" x="213" y="303"><path d="M13 7H5v2h8V7zm-3 3H5v2h5v-2zm5-8h-1V1h-2v1H6V1H4v1H3c-.55 0-1 .45-1 1v12c0 .55.45 1 1 1h12c.55 0 1-.45 1-1V3c0-.55-.45-1-1-1zm-1 12H4V6h10v8z"/></svg><svg width="24" height="24" viewBox="0 0 18 18" id="vibration" x="243" y="303"><path d="M0 11h1V7H0v4zm2 2h1V5H2v8zm15-6v4h1V7h-1zm-2 6h1V5h-1v8zM12.5 2h-7C4.67 2 4 2.67 4 3.5v11c0 .83.67 1.5 1.5 1.5h7c.83 0 1.5-.67 1.5-1.5v-11c0-.83-.67-1.5-1.5-1.5zm0 12.5h-7v-11h7v11z"/></svg><svg width="24" height="24" viewBox="0 0 18 18" id="domain" x="273" y="303"><path d="M14 8h-1v1h1V8zM9 5V2H1v14h16V5H9zm-5 9H3v-1h1v1zm0-3H3v-1h1v1zm0-3H3V7h1v1zm0-3H3V4h1v1zm3 9H6v-1h1v1zm0-3H6v-1h1v1zm0-3H6V7h1v1zm0-3H6V4h1v1zm8 9H9V7h6v7zm-4-6h-1v1h1V8zm3 4h-1v1h1v-1zm-3 0h-1v1h1v-1z"/></svg><svg width="24" height="24" viewBox="0 0 18 18" id="group" x="303" y="303"><path d="M6 8c1.11 0 2-.9 2-2s-.89-2-2-2c-1.1 0-2 .9-2 2s.9 2 2 2zm6 0c1.11 0 2-.9 2-2s-.89-2-2-2c-1.11 0-2 .9-2 2s.9 2 2 2zM6 9.2c-1.67 0-5 .83-5 2.5V13h10v-1.3c0-1.67-3.33-2.5-5-2.5zm6 0c-.25 0-.54.02-.84.06.79.6 1.34 1.4 1.34 2.44V13H17v-1.3c0-1.67-3.33-2.5-5-2.5z"/></svg><svg width="24" height="24" viewBox="0 0 18 18" id="group-add" x="333" y="303"><path d="M9 8c1.11 0 2-.9 2-2s-.89-2-2-2c-1.1 0-2 .9-2 2s.9 2 2 2zm4 0c1.11 0 2-.9 2-2s-.89-2-2-2c-.36 0-.69.1-.98.27.3.51.48 1.1.48 1.73s-.18 1.22-.48 1.73c.29.17.63.27.98.27zM9 9.2c-1.67 0-5 .83-5 2.5V13h10v-1.3c0-1.67-3.33-2.5-5-2.5zM5 7H3V5H2v2H0v1h2v2h1V8h2V7zm9.23 2.31c.75.6 1.27 1.38 1.27 2.39V13H18v-1.3c0-1.31-2.07-2.11-3.77-2.39z"/></svg><svg width="24" height="24" viewBox="0 0 18 18" id="location-city" x="3" y="333"><path d="M12 8V3.5L9.5 1 7 3.5V5H2v11h15V8h-5zm-7 6H4v-1h1v1zm0-3H4v-1h1v1zm0-3H4V7h1v1zm5 6H9v-1h1v1zm0-3H9v-1h1v1zm0-3H9V7h1v1zm0-3H9V4h1v1zm5 9h-1v-1h1v1zm0-3h-1v-1h1v1z"/></svg><svg width="24" height="24" viewBox="0 0 18 18" id="mood" x="33" y="333"><path d="M6 8c.55 0 1-.45 1-1s-.45-1-1-1-1 .45-1 1 .45 1 1 1zm6 0c.55 0 1-.45 1-1s-.45-1-1-1-1 .45-1 1 .45 1 1 1zm-3 5.5c2.14 0 3.92-1.5 4.38-3.5H4.62c.46 2 2.24 3.5 4.38 3.5zM9 1C4.57 1 1 4.58 1 9s3.57 8 8 8 8-3.58 8-8-3.58-8-8-8zm0 14.5c-3.59 0-6.5-2.91-6.5-6.5S5.41 2.5 9 2.5s6.5 2.91 6.5 6.5-2.91 6.5-6.5 6.5z"/></svg><svg width="24" height="24" viewBox="0 0 18 18" id="pages" x="63" y="333"><path d="M5.5 10H2v5c0 .55.45 1 1 1h5v-3.5l-3.5 1 1-3.5zM2 3v5h3.5l-1-3.5 3.5 1V2H3c-.55 0-1 .45-1 1zm13-1h-5v3.5l3.5-1-1 3.5H16V3c0-.55-.45-1-1-1zm-1.5 11.5l-3.5-1V16h5c.55 0 1-.45 1-1v-5h-3.5l1 3.5z"/></svg><svg width="24" height="24" viewBox="0 0 18 18" id="people" x="93" y="333"><path d="M6 8c1.11 0 2-.9 2-2s-.89-2-2-2c-1.1 0-2 .9-2 2s.9 2 2 2zm6 0c1.11 0 2-.9 2-2s-.89-2-2-2c-1.11 0-2 .9-2 2s.9 2 2 2zM6 9.2c-1.67 0-5 .83-5 2.5V13h10v-1.3c0-1.67-3.33-2.5-5-2.5zm6 0c-.25 0-.54.02-.84.06.79.6 1.34 1.4 1.34 2.44V13H17v-1.3c0-1.67-3.33-2.5-5-2.5z"/></svg><svg width="24" height="24" viewBox="0 0 18 18" id="person" x="123" y="333"><path d="M9 8c1.66 0 2.99-1.34 2.99-3S10.66 2 9 2C7.34 2 6 3.34 6 5s1.34 3 3 3zm0 2c-2.33 0-7 1.17-7 3.5V16h14v-2.5c0-2.33-4.67-3.5-7-3.5z"/></svg><svg width="24" height="24" viewBox="0 0 18 18" id="person-add" x="153" y="333"><path d="M10 8c1.66 0 2.99-1.34 2.99-3S11.66 2 10 2 7 3.34 7 5s1.34 3 3 3zm-6 2V8h2V6H4V4H2v2H0v2h2v2h2zm6 0c-2.33 0-7 1.17-7 3.5V16h14v-2.5c0-2.33-4.67-3.5-7-3.5z"/></svg><svg width="24" height="24" viewBox="0 0 18 18" id="person-outline" x="183" y="333"><path d="M9 10c-2.33 0-7 1.17-7 3.5V16h14v-2.5c0-2.33-4.67-3.5-7-3.5zm5.29 4.29H3.71v-.79c.1-.49 2.59-1.79 5.29-1.79s5.19 1.3 5.29 1.79v.79zM9 9c2.22 0 4-1.79 4-4s-1.78-4-4-4C6.79 1 5.01 2.79 5.01 5S6.79 9 9 9zm0-6.29c1.26 0 2.28 1.03 2.28 2.29S10.26 7.29 9 7.29C7.75 7.29 6.72 6.26 6.72 5S7.75 2.71 9 2.71z"/></svg><svg width="24" height="24" viewBox="0 0 18 18" id="poll" x="213" y="333"><path d="M16 1H2c-.55 0-1 .45-1 1v14c0 .55.45 1 1 1h14c.55 0 1-.45 1-1V2c0-.55-.45-1-1-1zM7 13H5V8h2v5zm3 0H8V5h2v8zm3 0h-2V9h2v4z"/></svg><svg width="24" height="24" viewBox="0 0 18 18" id="whatshot" x="243" y="333"><path d="M10.19 1.5s.49 1.99.49 3.6c0 1.55-1.01 2.8-2.56 2.8S5.4 6.65 5.4 5.1l.02-.27C3.91 6.64 3 8.96 3 11.5c0 3.31 2.69 6 6 6s6-2.69 6-6c0-4.05-1.88-7.65-4.81-10zM8.91 15c-1.34 0-2.42-1.05-2.42-2.35 0-1.22.78-2.07 2.11-2.34 1.33-.27 2.7-.91 3.46-1.93.29.97.45 1.99.45 3.03 0 1.98-1.62 3.59-3.6 3.59z"/></svg></svg>