<svg xmlns="http://www.w3.org/2000/svg"><defs><symbol id="!" viewBox="0 0 2048 2048"><path d="M0 1090q0-26 18-44t46-18h512q28 0 46 18t18 44q0 27-18.5 46.5T576 1156H64q-27 0-45.5-19.5T0 1090zm0-256q0-26 18-44t46-18h256q28 0 46 18t18 44q0 27-18.5 46.5T320 900H64q-27 0-45.5-19.5T0 834zm128-256q0-26 18-44t46-18h256q28 0 46 18t18 44q0 27-18.5 46.5T448 644H192q-27 0-45.5-19.5T128 578zm428 102q0-159 110-274t270-122q152-156 366-156t366 156q160 7 270 122t110 274q0 168-116 284t-284 116q-36 0-68-4-128 80-278 80t-278-80q-32 4-72 4-164 0-280-116T556 680zm340 856q0-71 128-256l32 48q36 55 64 112 32 66 32 96 0 52-38 90t-90 38-90-38-38-90zm512 256q0-71 128-256l32 48q36 55 64 112 32 66 32 96 0 52-38 90t-90 38-90-38-38-90z"/></symbol><symbol id="&quot;" viewBox="0 0 2048 2048"><path d="M0 704q0-184 132-316t316-132q36 0 64 4 89-125 224-192Q874 0 1024 0t288 68q135 67 224 192 28-4 64-4 184 0 316 132t132 316-132 316-316 132q-85 0-160-28-180 156-416 156t-416-156q-75 28-160 28-184 0-316-132T0 704zm712 1114q8-30 32-42l72-44q-7-38 0-76l-72-40q-24-16-32-43.5t6-54.5q14-26 42-34t56 8l72 44q28-28 64-40v-84q0-28 22-50t50-22 50 22 22 50v84q36 12 64 40l72-44q28-16 56-8t42 34q14 27 6 54.5t-32 43.5l-72 40q7 38 0 76l72 44q24 12 32 42t-6 54q-15 25-42.5 32t-55.5-8l-72-40q-29 24-64 36v84q0 31-21.5 51.5T1024 2048t-50.5-20.5T952 1976v-84q-35-12-64-36l-72 40q-28 15-55.5 8t-42.5-32q-14-24-6-54zm240-124q0 30 22 50t50 20 48-20q24-20 24-50t-22-50-50-20-50 20-22 50z"/></symbol><symbol id="#" viewBox="0 0 2048 2048"><path d="M0 704q0-184 132-316t316-132q36 0 64 4 89-125 224-192Q874 0 1024 0t288 68q135 67 224 192 28-4 64-4 184 0 316 132t132 316-132 316-316 132q-85 0-160-28-180 156-416 156t-416-156q-75 28-160 28-184 0-316-132T0 704zm122 804q-10-40 30-52l48-12q0-24 12-44l-36-36q-28-28 0-58 29-30 60-2l36 36q19-7 44-12l12-48q12-40 52-28t28 52l-12 48q10 6 16 12 9 9 16 20l48-16q40-7 52 32 12 40-32 52l-48 12q0 24-12 44l36 36q32 29 2 58-30 30-62 2l-32-36q-23 7-44 12l-16 48q-8 41-50 30-42-10-30-54l12-48q-15-7-32-32l-48 16q-40 7-50-32zm172-24q30 28 60 0 29-28-2-56-29-32-58-2-30 30 0 58zm418 334q8-30 32-42l72-44q-7-38 0-76l-72-40q-24-16-32-43.5t6-54.5q14-26 42-34t56 8l72 44q28-28 64-40v-84q0-28 22-50t50-22 50 22 22 50v84q36 12 64 40l72-44q28-16 56-8t42 34q14 27 6 54.5t-32 43.5l-72 40q7 38 0 76l72 44q24 12 32 42t-6 54q-15 25-42.5 32t-55.5-8l-72-40q-29 24-64 36v84q0 31-21.5 51.5T1024 2048t-50.5-20.5T952 1976v-84q-35-12-64-36l-72 40q-28 15-55.5 8t-42.5-32q-14-24-6-54zm240-124q0 30 22 50t50 20 48-20q24-20 24-50t-22-50-50-20-50 20-22 50zm568-166q12-40 52-28l48 12q7-11 16-20 6-6 16-12l-12-48q-12-40 28-52t52 28l12 48q25 5 44 12l36-36q31-28 60 2 28 30 0 58l-36 36q12 20 12 44l48 12q40 12 30 52-10 39-50 32l-48-16q-17 25-32 32l12 48q12 44-30 54-42 11-50-30l-16-48q-25-5-44-12l-32 36q-32 28-62-2-30-29 2-58l36-36q-12-19-12-44l-48-12q-44-12-32-52zm174 84q30 28 60 0 29-28-2-56-29-32-58-2-30 30 0 58z"/></symbol><symbol id="$" viewBox="0 0 2048 2048"><path d="M0 704q0-184 132-316t316-132q36 0 64 4 89-125 224-192Q874 0 1024 0t288 68q135 67 224 192 28-4 64-4 184 0 316 132t132 316-132 316-316 132q-85 0-160-28-180 156-416 156t-416-156q-75 28-160 28-184 0-316-132T0 704zm256 704q0-52 38-90t90-38 88 40q40 36 40 88t-38 90-90 38-90-38-38-90zm256 512q0-52 38-90t90-38 88 40q40 36 40 88t-38 90-90 38-90-38-38-90zm384-384q0-52 38-90t90-38 88 40q40 36 40 88t-38 90-90 38-90-38-38-90zm384 384q0-52 38-90t90-38 88 40q40 36 40 88t-38 90-90 38-90-38-38-90zm256-512q0-52 38-90t90-38 88 40q40 36 40 88t-38 90-90 38-90-38-38-90z"/></symbol><symbol id="%" viewBox="0 0 2052 2048"><path d="M4 1262q0-186 132-318t316-132q30 0 64 8 0-2 2-6t2-6q-4-32-4-60 0-143 104-250 103-106 252-106 17 0 28 4 148-184 384-184t384 184q11-4 28-4 149 0 252 106 104 107 104 250 0 140-96 240 96 124 96 272 0 188-132 318-131 130-316 130-85 0-160-28-180 156-416 156t-416-156q-75 28-160 28-185 0-316-130Q4 1448 4 1262z"/></symbol><symbol id="&amp;" viewBox="0 0 2048 2048"><path d="M0 1052q0-184 132-316t316-132q36 0 64 4 3-8 8-8-8-38-8-60 0-148 104-252t252-104h28Q1044 0 1280 0t384 184h28q148 0 252 104t104 252q0 136-96 240 96 120 96 272 0 184-132 316t-316 132q-85 0-160-28-167 147-396 152l-20 40 128 128-384 256 128-256-128-128 92-60q-148-40-252-132-75 28-160 28-184 0-316-132T0 1052z"/></symbol><symbol id="&apos;" viewBox="0 0 2048 2048"><path d="M768 1664q0-148 128-220V268q0-59 38-100 37-40 90-40t90 40q38 41 38 100v1176q128 72 128 220 0 104-76 180t-182 76q-107 0-180-76-74-77-74-180z"/></symbol><symbol id="(" viewBox="0 0 2048 2048"><path d="M0 1024q0-424 300-724T1024 0t724 300 300 724-300 724-724 300-724-300T0 1024zm256 0q0 316 226 542t542 226 540-224q228-228 228-544t-226-542-542-226-542 226-226 542zm384 384l256-512 512-256-256 512z"/></symbol><symbol id=")" viewBox="0 0 2048 2048"><path d="M208 1372V668h128l164 240 132 208h4V668h140v704H648l-176-264-120-180h-4v444H208zm616 44l260-784h104l-260 784H824zm380-44l248-704h144l244 704h-152l-44-144h-244l-48 144h-148zm232-260h172l-28-92-56-184h-4l-56 180z"/></symbol><symbol id="*" viewBox="0 0 2048 2048"><path d="M580 872q-26-58 0-119t84-81q59-25 121 .5t87 83.5q12 24 12 56t-12 60q-24 55-86 80-62 24-122 0t-84-80zm76-60q0 28 20 48t50 20 50-20 20-48-20-48-50-20-50 20-20 48zm340 348V896q0-105 81.5-166.5T1264 668q141 0 216 68l-68 108q-56-48-144-48-53 0-92.5 31t-39.5 97v204q0 66 39.5 97t92.5 31q79 0 148-48l64 108q-89 72-212 72-108 0-190-62t-82-166z"/></symbol><symbol id="+" viewBox="0 0 2048 2048"><path d="M565.5 795.5q4.5-39.5 31-73T662 676q62-24 122 0t84 80q25 57 0 116t-84 84q-28 12-62 12t-62-12q-58-25-84-82-15-39-10.5-78.5zM652 816q0 28 20 48t50 20 50-20 20-48-20-48-50-20-50 20-20 48zm344 568V676h488v128h-348v164h296v128h-296v288H996z"/></symbol><symbol id="0" viewBox="0 0 2048 2048"><path d="M0 1052q0-184 132-316t316-132q36 0 64 4 3-8 8-8-8-38-8-60 0-148 104-252t252-104h28Q1044 0 1280 0t384 184h28q148 0 252 104t104 252q0 136-96 240 96 120 96 272 0 184-132 316t-316 132q-82 0-160-32-82 74-188 116l-72-72 24-48q130-53 212-152 84 60 184 60 132 0 226-94t94-226q0-107-68-196-47-59-114.5-91.5T1600 732l-52 4q-37 7-68 20-67-127-188-204-119-76-268-76-212 0-364 156-49 49-84 112-3 7-8 12-56-24-120-24-132 0-226 94t-94 226 94 226 226 94q100 0 184-60 43 51 104 92l-116 76-12-8q-75 28-160 28-184 0-316-132T0 1052zm652-584q168-120 372-120 150 0 288 68 135 67 224 192 28-4 64-4 144 0 264 84 56-65 56-148 0-96-66-162t-162-66q-46 0-88 16-44-92-132-146t-192-54-192 54-132 146q-42-16-88-16-75 0-134 44-57 43-82 112zm116 1580l128-384-128-128 384-256-128 256 128 128z"/></symbol><symbol id="1" viewBox="0 0 2048 2048"><path d="M192 1024q0-28 18-46t46-18h128q28 0 46 18t18 46-18 46-46 18H256q-28 0-46-18t-18-46zm244 588q-44-44 0-92l92-88q44-44 88 0t0 88l-88 92q-48 44-92 0zm0-1084q-44-48 0-92t92 0l88 92q44 44 0 88t-88 0zm140 496q0-184 132-316t316-132 316 132 132 316-132 316-316 132-316-132-132-316zm384 768v-128q0-28 18-46t46-18 46 18 18 46v128q0 28-18 46t-46 18-46-18-18-46zm0-1408V256q0-28 18-46t46-18 46 18 18 46v128q0 28-18 46t-46 18-46-18-18-46zm470 1048q46-44 90 0l92 88q44 48 0 92t-92 0l-88-92q-49-44-2-88zm0-816q-47-44 2-88l88-92q48-44 92 0t0 92l-92 88q-44 44-90 0zm170 408q0-28 18-46t46-18h128q28 0 46 18t18 46-18 46-46 18h-128q-28 0-46-18t-18-46z"/></symbol><symbol id="2" viewBox="0 0 2048 2048"><path d="M588 1010q0-186 132-318 73-68 168-104-44 122-16 248 29 129 120 220t220 120q126 28 248-16-36 95-104 168-132 132-318 132t-318-132-132-318z"/></symbol><symbol id="3" viewBox="0 0 2048 2048"><path d="M0 1472q0-180 126-310t306-138q-48-92-48-192 0-184 132-316t316-132q183 0 314 128 129 126 134 312 155 67 256 204 28-4 64-4 184 0 316 132t132 316-132 316-316 132q-85 0-160-28-180 156-416 156t-416-156q-75 28-160 28-184 0-316-132T0 1472zm0-640q0-28 18-46t46-18h128q28 0 46 18t18 46-18 46-46 18H64q-28 0-46-18T0 832zm244-496q-44-48 0-92t92 0l88 92q44 44 0 88t-88 0zm268 496q0 77 40 148 188-212 472-212 56 0 124 12-20-116-108-192t-208-76q-132 0-226 94t-94 226zm256-640V64q0-28 18-46t46-18 46 18 18 46v128q0 28-18 46t-46 18-46-18-18-46zm472 232q-44-44 0-88l88-92q48-44 92 0t0 92l-92 88q-44 44-88 0zm168 408q0-28 18-46t46-18h128q28 0 46 18t18 46-18 46-46 18h-128q-28 0-46-18t-18-46z"/></symbol><symbol id="4" viewBox="0 0 2048 2048"><path d="M0 1472q0-184 132-316t316-132q36 0 64 4 160-220 432-256-36-125-2-260 34-136 130-232 80-80 192-120 39-16 68 14 28 30 16 66-40 107-16 214 24 106 102 186 79 80 186 104 109 24 216-16 36-12 66 16 30 29 14 68-40 112-120 192-16 16-56 44 136 43 222 160 86 116 86 264 0 184-132 316t-316 132q-85 0-160-28-180 156-416 156t-416-156q-75 28-160 28-184 0-316-132T0 1472zm1060-912q-24 113 16 212 275 19 448 240 133-32 212-132-228 12-392-150-164-163-148-390-15 11-32 28-80 80-104 192z"/></symbol><symbol id="5" viewBox="0 0 2048 2048"><path d="M0 1088q0-184 132-316t316-132q36 0 64 4 89-125 224-192 138-68 288-68t288 68q135 67 224 192 28-4 64-4 184 0 316 132t132 316-132 316-316 132q-85 0-160-28-180 156-416 156t-416-156q-75 28-160 28-184 0-316-132T0 1088z"/></symbol><symbol id="6" viewBox="0 0 2048 2048"><path d="M0 704q0-184 132-316t316-132q36 0 64 4 89-125 224-192Q874 0 1024 0t288 68q135 67 224 192 28-4 64-4 184 0 316 132t132 316-132 316-316 132q-85 0-160-28-155 135-372 152l-44 132 128 128-384 384 128-384-128-128 140-140q-172-32-300-144-75 28-160 28-184 0-316-132T0 704z"/></symbol><symbol id="7" viewBox="0 0 2048 2048"><path d="M0 832q0-184 132-316t316-132q36 0 64 4 89-125 224-192 138-68 288-68t288 68q135 67 224 192 28-4 64-4 184 0 316 132t132 316-132 316-316 132q-85 0-160-28-180 156-416 156t-416-156q-75 28-160 28-184 0-316-132T0 832zm896 960q0-71 128-256l32 48q36 55 64 112 32 66 32 96 0 52-38 90t-90 38-90-38-38-90z"/></symbol><symbol id="8" viewBox="0 0 2048 2048"><path d="M0 704q0-184 132-316t316-132q36 0 64 4 89-125 224-192Q874 0 1024 0t288 68q135 67 224 192 28-4 64-4 184 0 316 132t132 316-132 316-316 132q-85 0-160-28-180 156-416 156t-416-156q-75 28-160 28-184 0-316-132T0 704zm384 832q0-71 128-256l32 48q36 55 64 112 32 66 32 96 0 52-38 90t-90 38-90-38-38-90zm516 384q0-71 128-256l32 48q36 55 64 112 32 66 32 96 0 52-38 90t-90 38-90-38-38-90zm508-128q0-71 128-256l32 48q36 55 64 112 32 66 32 96 0 52-38 90t-90 38-90-38-38-90z"/></symbol><symbol id="9" viewBox="0 0 2048 2048"><path d="M0 1472q0-28 18-46t46-18h512q28 0 46 18t18 46-18 46-46 18H64q-28 0-46-18t-18-46zm0-256q0-28 18-46t46-18h256q28 0 46 18t18 46-18 46-46 18H64q-28 0-46-18t-18-46zm128-256q0-28 18-46t46-18h256q28 0 46 18t18 46-18 46-46 18H192q-28 0-46-18t-18-46zm428 104q0-160 110-276 110-117 270-124 152-156 366-156t366 156q160 7 270 124 110 116 110 276 0 164-116 280t-284 116q-36 0-68-4-128 84-278 84t-278-84q-32 4-72 4-164 0-280-116t-116-280z"/></symbol><symbol id="A" viewBox="0 0 2048 2048"><path d="M436 720q-22-24-22-47t22-45 45-22 47 22l88 92q22 22 22 44t-22 44-44 22l-44-22zm140 624q0-28 18-46t46-18h768q28 0 46 18t18 46-18 46-46 18H640q-28 0-46-18t-18-46zm8-192q24-165 148-274 125-110 292-110t292 110q124 109 148 274h-128q-19-112-108-184-88-72-204-72t-204 72q-89 72-108 184H584zm120 448q0-28 18-46t46-18h512q28 0 46 18t18 46-18 46-46 18H768q-28 0-46-18t-18-46zM960 576V448q0-28 18-46t46-18 46 18 18 46v128q0 28-18 46t-46 18-46-18-18-46zm472 232q-22-22-22-44t22-44l88-92q24-22 47-22t45 22 22 45-22 47l-92 88q-22 22-44 22z"/></symbol><symbol id="B" viewBox="0 0 2048 2048"><path d="M192 1024q0-28 18-46t46-18h128q28 0 46 18t18 46-18 46-46 18H256q-28 0-46-18t-18-46zm244 588q-22-22-22-45t22-47l92-88q22-25 45-25l43 23q22 23 22 45.5t-22 44.5l-88 92q-24 22-47 22t-45-22zm0-1084q-22-24-22-47t22-45 45-22 47 22l88 92q22 22 22 44t-22 44-44 22l-44-22zm140 496q0-184 132-316t316-132 316 132 132 316-132 316-316 132-316-132-132-316zm128 0q0 132 94 226t226 94 224-92q96-96 96-228t-94-226-226-94-226 94-94 226zm256 768v-128q0-28 18-46t46-18 46 18 18 46v128q0 28-18 46t-46 18-46-18-18-46zm0-1408V256q0-28 18-46t46-18 46 18 18 46v128q0 28-18 46t-46 18-46-18-18-46zm472 1136q-22-22-22-44t22-44 44-22l44 22 92 88q22 24 22 47t-22 45-45 22-47-22zm0-904q-22-22-22-44t22-44l88-92q24-22 47-22t45 22 22 45-22 47l-92 88q-22 22-44 22zm168 408q0-28 18-46t46-18h128q28 0 46 18t18 46-18 46-46 18h-128q-28 0-46-18t-18-46z"/></symbol><symbol id="C" viewBox="0 0 2048 2048"><path d="M524 1012q0-212 152-364 80-80 192-120 11-4 21-4 24 0 43.5 20t19.5 45q0 11-4 23-22 62-21 126 0 43 9 86 24 108 102 186t186 102q43 10 86 9 64 0 126-21 12-4 23-4 25 0 45 20t20 43q0 10-4 21-40 112-120 192-152 152-364 152t-362-150-150-362zm128-2q0 159 112 274 111 111 268 111 13 0 26-1 175-11 278-146-20 1-40 1-202 0-349.5-147T799 752q0-20 1-40-21 13-36 28-112 112-112 270z"/></symbol><symbol id="D" viewBox="0 0 2048 2048"><path d="M252 1084q0-28 18-46t46-18h128q28 0 46 18t18 46-18 46-46 18H316q-28 0-46-18t-18-46zm244 588q-22-22-22-45t22-47l92-88q22-25 45-25l43 23q22 23 22 45.5t-22 44.5l-88 92q-24 22-47 22t-45-22zm0-1084q-22-24-22-47t22-45 45-22 47 22l88 92q22 22 22 44t-22 44-44 22l-44-22zm140 496q0-184 132-316t316-132q59 0 128 20 69-20 128-20 184 0 316 132t132 316-132 316-316 132q-59 0-128-20-69 20-128 20-184 0-316-132t-132-316zm128 0q0 115 74 204 73 88 182 108-128-128-128-312t128-312q-109 20-182 108-74 89-74 204zm256 768v-128q0-28 18-46t46-18 46 18 18 46v128q0 28-18 46t-46 18-46-18-18-46zm0-1408V316q0-28 18-46t46-18 46 18 18 46v128q0 28-18 46t-46 18-46-18-18-46z"/></symbol><symbol id="E" viewBox="0 0 2048 2048"><path d="M124 1212q0-28 22-46t54-18h344q-21-64-28-128H316q-28 0-46-18t-18-46 18-46 46-18h200q7-64 28-128H188q-28 0-46-18t-18-46 18-46 46-18h416q79-115 206-186 125-70 274-70 221 0 382 148 162 149 186 364h328q28 0 46 18t18 46-18 46-46 18h-328q-7 64-28 128h88q32 0 54 18t22 46-22 46-54 18h-148q-79 115-206 186-125 70-274 70t-274-70q-127-71-206-186H200q-32 0-54-18t-22-46zm520-192q8 68 36 128h808q28-60 36-128H644zm0-128h880q-24-165-148-274-125-110-292-110-179 0-312 128h312q28 0 46 18t18 46-18 46-46 18H680q-28 60-36 128zm128 384q133 128 312 128t312-128H772z"/></symbol><symbol id="F" viewBox="0 0 2048 2048"><path d="M252 1344q0-28 24-46t60-18h1004q80 0 136 56t56 136-56 136-136 56-136-56-56-136q0-32 12-64H336q-36 0-60-18t-24-46zm0-256q0-28 18-46t46-18h1228q-12-31-12-64 0-80 56-136t136-56 136 56 56 136-56 136-136 56H316q-28 0-46-18t-18-46zm0-256q0-28 18-46t46-18h588q-12-32-12-64 0-80 56-136t136-56 136 56 56 136-56 136-136 56H316q-28 0-46-18t-18-46z"/></symbol><symbol id="G" viewBox="0 0 2048 2048"><path d="M458 1248q13-51 58-80l132-76q-8-34-8-69t8-71l-132-72q-45-29-58-80-4-18-4-35 0-33 16-63 25-46 78-58 17-4 34-4 33 0 62 16l132 76q57-44 120-68V512q0-52 38-90t90-38 90 38 38 90v152q63 24 120 68l132-76q27-15 58-15 18 0 38 5 52 13 78 58 17 29 17 61 0 17-5 35-13 51-58 80l-132 76q8 34 8 68t-8 68l132 76q45 29 58 80 5 18 5 35 0 32-17 61-26 45-78 58-20 5-38 5-31 0-58-15l-132-76q-54 44-120 68v152q0 52-38 90t-90 38-90-38-38-90v-152q-63-24-120-68l-132 76q-27 15-58 15-18 0-38-5-52-13-78-58-17-29-17-61 0-17 5-35zm438-224q0 52 36 92 40 36 92 36t90-38 38-90-38-90-90-38-90 38-38 90z"/></symbol><symbol id="H" viewBox="0 0 2048 2048"><path d="M0 1472q0-180 126-310t306-138q-48-92-48-192 0-184 132-316t316-132q183 0 314 128 129 126 134 312 155 67 256 204 28-4 64-4 184 0 316 132t132 316-132 316-316 132q-85 0-160-28-180 156-416 156t-416-156q-75 28-160 28-184 0-316-132T0 1472zm0-640q0-28 18-46t46-18h128q28 0 46 18t18 46-18 46-46 18H64q-28 0-46-18T0 832zm128 640q0 132 94 226t226 94q100 0 184-60 156 188 392 188t392-188q84 60 184 60 132 0 226-94t94-226-94-226-226-94q-64 0-120 24-76-144-220-220-57-32-120-44-58-16-116-16-236 0-392 184-39 47-64 96-2 0-32-8-47-16-88-16-132 0-226 94t-94 226zM244 336q-22-24-22-47t22-45 45-22 47 22l88 92q22 22 22 44t-22 44-44 22l-44-22zm268 496q0 77 40 148 188-212 472-212 56 0 124 12-20-116-108-192t-208-76q-132 0-226 94t-94 226zm256-640V64q0-28 18-46t46-18 46 18 18 46v128q0 28-18 46t-46 18-46-18-18-46zm472 232q-22-22-22-44t22-44l88-92q24-22 47-22t45 22 22 45-22 47l-92 88q-22 22-44 22zm168 408q0-28 18-46t46-18h128q28 0 46 18t18 46-18 46-46 18h-128q-28 0-46-18t-18-46z"/></symbol><symbol id="I" viewBox="0 0 2052 2048"><path d="M4 1472q0-184 132-316t316-132q36 0 64 4 160-220 432-256-19-64-19-131 0-63 17-129 34-136 130-232 80-80 192-120 14-6 26-6 23 0 42 20 20 21 20 45 0 10-4 21-25 67-25 134 0 40 9 80 24 106 102 186 79 80 186 104 41 9 81 9 68 0 135-25 11-4 21-4 24 0 45 20 20 19 20 42 0 12-6 26-40 112-120 192-16 16-56 44 136 43 222 160 86 116 86 264 0 184-132 316t-316 132q-85 0-160-28-180 156-416 156t-416-156q-75 28-160 28-184 0-316-132T4 1472zm128 0q0 132 94 226t226 94q100 0 184-60 156 188 392 188t392-188q84 60 184 60 132 0 226-94t94-226-94-226-226-94q-64 0-120 24-4-4-10-14t-6-14q-53-81-120-140-78-59-172-88-72-24-148-24-28 0-28 4-141 5-252 80-111 76-176 196-56-24-120-24-132 0-226 94t-94 226zm932-912q-9 42-9 83 0 67 25 129 275 19 448 240 133-32 212-132-16 1-31 1-208 0-361-151-149-149-149-350 0-20 1-40-15 11-32 28-80 80-104 192z"/></symbol><symbol id="J" viewBox="0 0 2048 2048"><path d="M192 1724q0-28 18-46t46-18h1536q28 0 46 18t18 46-18 46-46 18H256q-28 0-46-18t-18-46zm0-256q0-28 18-46t46-18h1536q28 0 46 18t18 46-18 46-46 18H256q-28 0-46-18t-18-46zm0-256q0-28 18-46t46-18h1536q28 0 46 18t18 46-18 46-46 18H256q-28 0-46-18t-18-46zm0-256q0-28 18-46t46-18h128q28 0 46 18t18 46-18 46-46 18H256q-28 0-46-18t-18-46zm244-496q-22-24-22-47t22-45 45-22 47 22l88 92q22 22 22 44t-22 44-44 22l-44-22zm140 496q0-184 132-316t316-132 316 132 132 316q0 18-8 64h-128q8-34 8-64 0-132-94-226t-226-94-226 94-94 226q0 30 8 64H584q-8-46-8-64zm384-640V188q0-28 18-46t46-18 46 18 18 46v128q0 28-18 46t-46 18-46-18-18-46zm472 232q-22-22-22-44t22-44l88-92q24-22 47-22t45 22 22 45-22 47l-92 88q-22 22-44 22zm168 408q0-28 18-46t46-18h128q28 0 46 18t18 46-18 46-46 18h-128q-28 0-46-18t-18-46z"/></symbol><symbol id="K" viewBox="0 0 2048 2048"><path d="M192 1724q0-28 18-46t46-18h1536q28 0 46 18t18 46-18 46-46 18H256q-28 0-46-18t-18-46zm0-256q0-28 18-46t46-18h1536q28 0 46 18t18 46-18 46-46 18H256q-28 0-46-18t-18-46zm0-256q0-28 18-46t46-18h1536q28 0 46 18t18 46-18 46-46 18H256q-28 0-46-18t-18-46zm386-520q18-180 146-308 80-80 192-120 12-4 23-4 25 0 45 20t20 43q0 10-4 21-25 67-25 135 0 41 9 81 24 107 104 186 80 78 186 102 40 9 80 9l134-25q11-4 21-4 24 0 43.5 20t19.5 45q0 11-4 23-20 57-48 104h-168q32-28 36-36-20 1-40 1-202 0-350-149-151-153-151-361 0-15 1-31-15 11-32 28-112 112-112 272t112 272l4 4H656q-81-125-81-272 0-28 3-56z"/></symbol><symbol id="L" viewBox="0 0 2048 2048"><path d="M0 1728q0-28 18-46t46-18h1920q28 0 46 18t18 46-18 46-46 18H64q-28 0-46-18t-18-46zm0-256q0-28 18-46t46-18h1920q28 0 46 18t18 46-18 46-46 18H64q-28 0-46-18t-18-46zm0-256q0-28 18-46t46-18h1920q28 0 46 18t18 46-18 46-46 18H64q-28 0-46-18t-18-46zm0-256q0-184 132-316t316-132q36 0 64 4 89-125 224-192 138-68 288-68t288 68q135 67 224 192 28-4 64-4 184 0 316 132t132 316q0 18-8 64h-128q8-34 8-64 0-132-94-226t-226-94q-64 0-120 24-67-127-188-204-119-76-268-76t-268 76q-121 77-188 204-56-24-120-24-132 0-226 94t-94 226q0 30 8 64H8q-8-46-8-64z"/></symbol><symbol id="M" viewBox="0 0 2048 2048"><path d="M384 1344q0-28 18-46t46-18h1152q28 0 46 18t18 46-18 46-46 18H448q-28 0-46-18t-18-46zm0-256q0-28 18-46t46-18h1152q28 0 46 18t18 46-18 46-46 18H448q-28 0-46-18t-18-46zm0-256q0-28 18-46t46-18h1152q28 0 46 18t18 46-18 46-46 18H448q-28 0-46-18t-18-46zm0-256q0-28 18-46t46-18h1152q28 0 46 18t18 46-18 46-46 18H448q-28 0-46-18t-18-46z"/></symbol><symbol id="N" viewBox="0 0 2048 2048"><path d="M0 1088q0-184 132-316t316-132q36 0 64 4 89-125 224-192 138-68 288-68t288 68q135 67 224 192 28-4 64-4 184 0 316 132t132 316-132 316-316 132q-85 0-160-28-180 156-416 156t-416-156q-75 28-160 28-184 0-316-132T0 1088zm128 0q0 132 94 226t226 94q100 0 184-60 156 188 392 188t392-188q84 60 184 60 132 0 226-94t94-226-94-226-226-94q-64 0-120 24-67-127-188-204-119-76-268-76t-268 76q-121 77-188 204-56-24-120-24-132 0-226 94t-94 226z"/></symbol><symbol id="O" viewBox="0 0 2048 2048"><path d="M0 704q0-184 132-316t316-132q36 0 64 4 89-125 224-192Q874 0 1024 0t288 68q135 67 224 192 28-4 64-4 184 0 316 132t132 316-132 316-316 132q-85 0-160-28-155 135-372 152l-44 132 128 128-384 384 128-384-128-128 140-140q-172-32-300-144-75 28-160 28-184 0-316-132T0 704zm128 0q0 132 94 226t226 94q100 0 184-60 156 188 392 188l88-12q183-31 304-176 84 60 184 60 132 0 226-94t94-226-94-226-226-94q-64 0-120 24-67-127-188-204-119-76-268-76t-268 76q-121 77-188 204-56-24-120-24-132 0-226 94t-94 226z"/></symbol><symbol id="P" viewBox="0 0 2048 2048"><path d="M0 704q0-184 132-316t316-132q36 0 64 4 89-125 224-192Q874 0 1024 0t288 68q135 67 224 192 28-4 64-4 184 0 316 132t132 316-132 316-316 132q-85 0-160-28-95 83-228 124l52-160q93-54 152-124 84 60 184 60 132 0 226-94t94-226-94-226-226-94q-64 0-120 24-67-127-188-204-119-76-268-76t-268 76q-121 77-188 204-56-24-120-24-132 0-226 94t-94 226 94 226 226 94q100 0 184-60 91 112 240 160l-100 100q-98-41-164-100-75 28-160 28-184 0-316-132T0 704zm768 1216l128-384-128-128 384-384-128 384 128 128z"/></symbol><symbol id="Q" viewBox="0 0 2048 2048"><path d="M0 832q0-184 132-316t316-132q36 0 64 4 89-125 224-192 138-68 288-68t288 68q135 67 224 192 28-4 64-4 184 0 316 132t132 316-132 316-316 132q-85 0-160-28-180 156-416 156t-416-156q-75 28-160 28-184 0-316-132T0 832zm128 0q0 132 94 226t226 94q100 0 184-60 156 188 392 188t392-188q84 60 184 60 132 0 226-94t94-226-94-226-226-94q-64 0-120 24-67-127-188-204-119-76-268-76t-268 76q-121 77-188 204-56-24-120-24-132 0-226 94t-94 226zm768 960q0-71 128-256l32 48q36 55 64 112 32 66 32 96 0 52-38 90t-90 38-90-38-38-90z"/></symbol><symbol id="R" viewBox="0 0 2048 2048"><path d="M0 704q0-184 132-316t316-132q36 0 64 4 89-125 224-192Q874 0 1024 0t288 68q135 67 224 192 28-4 64-4 184 0 316 132t132 316-132 316-316 132q-85 0-160-28-180 156-416 156t-416-156q-75 28-160 28-184 0-316-132T0 704zm128 0q0 132 94 226t226 94q100 0 184-60 156 188 392 188t392-188q84 60 184 60 132 0 226-94t94-226-94-226-226-94q-64 0-120 24-67-127-188-204-119-76-268-76t-268 76q-121 77-188 204-56-24-120-24-132 0-226 94t-94 226zm256 832q0-71 128-256l32 48q36 55 64 112 32 66 32 96 0 52-38 90t-90 38-90-38-38-90zm516 384q0-71 128-256l32 48q36 55 64 112 32 66 32 96 0 52-38 90t-90 38-90-38-38-90zm508-128q0-71 128-256l32 48q36 55 64 112 32 66 32 96 0 52-38 90t-90 38-90-38-38-90z"/></symbol><symbol id="S" viewBox="0 0 2048 2048"><path d="M0 1472q0-28 18-46t46-18h512q28 0 46 18t18 46-18 46-46 18H64q-28 0-46-18t-18-46zm0-256q0-28 18-46t46-18h256q28 0 46 18t18 46-18 46-46 18H64q-28 0-46-18t-18-46zm128-256q0-28 18-46t46-18h256q28 0 46 18t18 46-18 46-46 18H192q-28 0-46-18t-18-46zm428 104q0-160 110-276 110-117 270-124 152-156 366-156t366 156q160 7 270 124 110 116 110 276 0 164-116 280t-284 116q-36 0-68-4-128 84-278 84t-278-84q-32 4-72 4-164 0-280-116t-116-280zm128 0q0 112 78 190t190 78q54 0 96-16 113 96 254 96 142 0 250-96 47 16 96 16 112 0 192-78t80-190-80-192-192-80q-19 0-36 4-115-160-310-160T992 796q-17-4-40-4-112 0-190 80t-78 192z"/></symbol><symbol id="T" viewBox="0 0 2048 2048"><path d="M0 1090q0-26 18-44t46-18h512q28 0 46 18t18 44q0 27-18.5 46.5T576 1156H64q-27 0-45.5-19.5T0 1090zm0-256q0-26 18-44t46-18h256q28 0 46 18t18 44q0 27-18.5 46.5T320 900H64q-27 0-45.5-19.5T0 834zm128-256q0-26 18-44t46-18h256q28 0 46 18t18 44q0 27-18.5 46.5T448 644H192q-27 0-45.5-19.5T128 578zm428 102q0-159 110-274t270-122q152-156 366-156t366 156q160 7 270 122t110 274q0 168-116 284t-284 116q-36 0-68-4-128 80-278 80t-278-80q-32 4-72 4-164 0-280-116T556 680zm128 0q0 112 78 192t190 80q54 0 96-16 113 92 254 92t250-92q47 16 96 16 112 0 192-80t80-192-80-190-192-78h-36q-116-156-310-156T992 412h-40q-112 0-190 78t-78 190zm212 856q0-71 128-256l32 48q36 55 64 112 32 66 32 96 0 52-38 90t-90 38-90-38-38-90zm512 256q0-71 128-256l32 48q36 55 64 112 32 66 32 96 0 52-38 90t-90 38-90-38-38-90z"/></symbol><symbol id="U" viewBox="0 0 2048 2048"><path d="M0 704q0-184 132-316t316-132q36 0 64 4 89-125 224-192Q874 0 1024 0t288 68q135 67 224 192 28-4 64-4 184 0 316 132t132 316-132 316-316 132q-85 0-160-28-180 156-416 156t-416-156q-75 28-160 28-184 0-316-132T0 704zm128 0q0 132 94 226t226 94q100 0 184-60 156 188 392 188t392-188q84 60 184 60 132 0 226-94t94-226-94-226-226-94q-64 0-120 24-67-127-188-204-119-76-268-76t-268 76q-121 77-188 204-56-24-120-24-132 0-226 94t-94 226zm584 1114q8-30 32-42l72-44q-4-19-4-38t4-38l-72-40q-24-16-32-44-3-10-3-19 0-17 9-35 14-26 42-34t56 8l72 44q28-28 64-40v-84q0-28 22-50t50-22 50 22 22 50v84q36 12 64 40l72-44q28-16 56-8t42 34q9 17 9 35 0 9-3 19-8 28-32 44l-72 40q4 19 4 38t-4 38l72 44q24 12 32 42 3 11 3 21 0 18-9 33-15 25-42.5 32t-55.5-8l-72-40q-29 24-64 36v84q0 31-21.5 51.5T1024 2048t-50.5-20.5T952 1976v-84q-35-12-64-36l-72 40q-28 15-55.5 8t-42.5-32q-9-15-9-33 0-10 3-21zm240-124q0 30 22 50t50 20 48-20q24-20 24-50t-22-50-50-20-50 20-22 50z"/></symbol><symbol id="V" viewBox="0 0 2048 2048"><path d="M0 704q0-184 132-316t316-132q36 0 64 4 89-125 224-192Q874 0 1024 0t288 68q135 67 224 192 28-4 64-4 184 0 316 132t132 316-132 316-316 132q-69 0-136-24-8-32-24-56-18-38-64-68 2-2 12-10.5t17.5-16.5 10.5-13q84 60 184 60 132 0 226-94t94-226-94-226-226-94q-64 0-120 24-67-127-188-204-119-76-268-76t-268 76q-121 77-188 204-56-24-120-24-132 0-226 94t-94 226 94 226 226 94q100 0 184-60 0 4 40 40-46 30-64 68-16 24-24 56-68 24-136 24-184 0-316-132T0 704zm712 730q8-30 32-42l72-44q-4-19-4-38t4-38l-72-40q-24-16-32-44-3-10-3-19 0-17 9-35 14-26 42-34t56 8l72 44q28-28 64-40v-84q0-28 22-50t50-22 50 22 22 50v84q36 12 64 40l72-44q28-16 56-8t42 34q9 17 9 35 0 9-3 19-8 28-32 44l-72 40q4 19 4 38t-4 38l72 44q24 12 32 42 3 11 3 21 0 18-9 33-15 25-42.5 32t-55.5-8l-72-40q-29 24-64 36v84q0 31-21.5 51.5T1024 1664t-50.5-20.5T952 1592v-84q-35-12-64-36l-72 40q-28 15-55.5 8t-42.5-32q-9-15-9-33 0-10 3-21zm240-124q0 30 22 50t50 20 48-20q24-20 24-50t-22-50-50-20-50 20-22 50z"/></symbol><symbol id="W" viewBox="0 0 2048 2048"><path d="M0 704q0-184 132-316t316-132q36 0 64 4 89-125 224-192Q874 0 1024 0t288 68q135 67 224 192 28-4 64-4 184 0 316 132t132 316-132 316-316 132q-85 0-160-28-180 156-416 156t-416-156q-75 28-160 28-184 0-316-132T0 704zm122 804q-2-8-2-15 0-28 32-37l48-12q0-24 12-44l-36-36q-14-14-14-28.5t14-29.5q15-16 31-16 14 0 29 14l36 36q19-7 44-12l12-48q9-31 35-31 8 0 17 3 31 9 31 35 0 8-3 17l-12 48q10 6 16 12 9 9 16 20l48-16q6-1 12-1 30 0 40 33 3 9 3 16 0 27-35 36l-48 12q0 24-12 44l36 36q17 15 17 30 0 14-15 28-16 16-32 16-15 0-30-14l-32-36q-23 7-44 12l-16 48q-6 32-34 32-7 0-16-2-33-8-33-36 0-8 3-18l12-48q-15-7-32-32l-48 16q-6 1-11 1-31 0-39-33zm6-804q0 132 94 226t226 94q100 0 184-60 156 188 392 188t392-188q84 60 184 60 132 0 226-94t94-226-94-226-226-94q-64 0-120 24-67-127-188-204-119-76-268-76t-268 76q-121 77-188 204-56-24-120-24-132 0-226 94t-94 226zm166 780q15 14 30 14l30-14q14-14 14-27 0-14-16-29-15-17-30-17l-28 15q-15 15-15 29.5t15 28.5zm418 334q8-30 32-42l72-44q-4-19-4-38t4-38l-72-40q-24-16-32-44-3-10-3-19 0-17 9-35 14-26 42-34t56 8l72 44q28-28 64-40v-84q0-28 22-50t50-22 50 22 22 50v84q36 12 64 40l72-44q28-16 56-8t42 34q14 27 6 54.5t-32 43.5l-72 40q4 19 4 38t-4 38l72 44q24 12 32 42t-6 54q-15 25-42.5 32t-55.5-8l-72-40q-29 24-64 36v84q0 31-21.5 51.5T1024 2048t-50.5-20.5T952 1976v-84q-35-12-64-36l-72 40q-28 15-55.5 8t-42.5-32q-9-15-9-33 0-10 3-21zm240-124q0 30 22 50t50 20 48-20q24-20 24-50t-22-50-50-20-50 20-22 50zm568-166q9-31 35-31 8 0 17 3l48 12q7-11 16-20 6-6 16-12l-12-48q-3-9-3-17 0-26 31-35 9-3 17-3 26 0 35 31l12 48q25 5 44 12l36-36q15-14 29-14 16 0 31 16 14 15 14 29.5t-14 28.5l-36 36q12 20 12 44l48 12q32 10 32 37 0 7-2 15-8 33-39 33-5 0-11-1l-48-16q-17 25-32 32l12 48q3 10 3 18 0 28-33 36-9 2-16 2-27 0-34-32l-16-48q-25-5-44-12l-32 36q-15 14-30 14-16 0-32-16-15-14-15-28 0-15 17-30l36-36q-12-19-12-44l-48-12q-35-9-35-36 0-7 3-16zm174 84q15 14 30 14l30-14q14-14 14-27 0-14-16-29-15-17-30-17l-28 15q-15 15-15 29.5t15 28.5z"/></symbol><symbol id="X" viewBox="0 0 2048 2048"><path d="M0 704q0-184 132-316t316-132q36 0 64 4 89-125 224-192Q874 0 1024 0t288 68q135 67 224 192 28-4 64-4 184 0 316 132t132 316-132 316-316 132q-85 0-160-28-180 156-416 156t-416-156q-75 28-160 28-184 0-316-132T0 704zm128 0q0 132 94 226t226 94q58 0 112-20l72-28 60 52q143 124 332 124t332-124l60-52 72 28q54 20 112 20 132 0 226-94t94-226-94-226-226-94q-27 0-44 4l-76 12-48-64q-151-208-408-208T616 336l-48 64-76-12q-17-4-44-4-132 0-226 94t-94 226zm128 704q0-52 38-90t90-38 88 40q40 36 40 88t-38 90-90 38-90-38-38-90zm256 512q0-52 38-90t90-38 88 40q40 36 40 88t-38 90-90 38-90-38-38-90zm384-384q0-52 38-90t90-38 88 40q40 36 40 88t-38 90-90 38-90-38-38-90zm384 384q0-52 38-90t90-38 88 40q40 36 40 88t-38 90-90 38-90-38-38-90zm256-512q0-52 38-90t90-38 88 40q40 36 40 88t-38 90-90 38-90-38-38-90z"/></symbol><symbol id="Y" viewBox="0 0 2048 2048"><path d="M0 1472q0-184 132-316t316-132q36 0 64 4 3-8 8-8-8-38-8-60 0-148 104-252t252-104h28q148-184 384-184t384 184h28q148 0 252 104t104 252q0 136-96 240 96 124 96 272 0 184-132 316t-316 132q-85 0-160-28-180 156-416 156t-416-156q-75 28-160 28-184 0-316-132T0 1472zm128 0q0 132 94 226t226 94q100 0 184-60 156 188 392 188t392-188q84 60 184 60 132 0 226-94t94-226q0-107-68-196-47-59-114.5-91.5T1600 1152l-52 4q-37 7-68 20-67-127-188-204-119-76-268-76-212 0-364 156-49 53-84 112 0 12-8 12-56-24-120-24-132 0-226 94t-94 226zm524-584q168-120 372-120 150 0 288 68 135 67 224 192 28-4 64-4 145 0 264 88 56-68 56-152 0-96-66-162t-162-66q-46 0-88 16-44-88-132-144-89-56-192-56t-192 56q-88 56-132 144-42-16-88-16-75 0-134 44-57 43-82 112z"/></symbol><symbol id="Z" viewBox="0 0 2048 2048"><path d="M0 1052q0-184 132-316t316-132q36 0 64 4 3-8 8-8-8-38-8-60 0-148 104-252t252-104h28Q1044 0 1280 0t384 184h28q148 0 252 104t104 252q0 136-96 240 96 120 96 272 0 184-132 316t-316 132q-85 0-160-28-167 147-396 152l-20 40 128 128-384 256 128-256-128-128 92-60q-148-40-252-132-75 28-160 28-184 0-316-132T0 1052zm128 0q0 132 94 226t226 94q100 0 184-60 151 183 384 188l96-12q183-31 304-176 84 60 184 60 132 0 226-94t94-226q0-107-68-196-47-59-114.5-91.5T1600 732l-52 4q-37 7-68 20-67-127-188-204-119-76-268-76-212 0-364 156-49 49-84 112-3 7-8 12-56-24-120-24-132 0-226 94t-94 226zm524-584q168-120 372-120 150 0 288 68 135 67 224 192 28-4 64-4 144 0 264 84 56-65 56-148 0-96-66-162t-162-66q-46 0-88 16-44-92-132-146t-192-54-192 54-132 146q-42-16-88-16-75 0-134 44-57 43-82 112z"/></symbol><symbol id="&#xE000;" viewBox="0 0 500 2048"/></defs></svg>