<svg xmlns="http://www.w3.org/2000/svg" xmlns:xlink="http://www.w3.org/1999/xlink" width="420" height="390"><defs><symbol id="alert" viewBox="0 0 1024 1026"><path d="M1005.854 801.247l-438.286-767C556.173 14.307 534.968 2 512 2s-44.173 12.306-55.567 32.247l-438.286 767c-11.32 19.81-11.238 44.144.213 63.876C29.81 884.855 50.9 897 73.714 897h876.572c22.814 0 43.903-12.145 55.354-31.877s11.533-44.067.214-63.876zM576 769H448V641h128v128zm0-192H448V321h128v256z"/></symbol><symbol id="alignment-align" viewBox="0 0 960 1026"><path d="M192 65C85.938 65 0 150.938 0 257s85.938 192 192 192 192-85.938 192-192S298.062 65 192 65zm480 544l160-160H384v448l160-160 288 288 128-128-288-288z"/></symbol><symbol id="alignment-aligned-to" viewBox="0 0 960 1026"><path d="M384 577l128-128 288 288 160-160v448H512l160-160-288-288zM192 449C85.938 449 0 363.062 0 257S85.938 65 192 65s192 85.938 192 192-85.938 192-192 192z"/></symbol><symbol id="alignment-unalign" viewBox="0 0 896 1026"><path d="M512 193L384 321 128 65 0 193l256 256-128 128 64 64 384-384-64-64zm128 384l128-128-64-64-384 384 64 64 128-128 256 256 128-128-256-256z"/></symbol><symbol id="arrow-down" viewBox="0 0 640 1026"><path d="M448 449V193H192v256H0l320 384 320-384H448z"/></symbol><symbol id="arrow-left" viewBox="0 0 640 1026"><path d="M384 385V193L0 513l384 320V641h256V385H384z"/></symbol><symbol id="arrow-right" viewBox="0 0 640 1026"><path d="M640 513L256 193v192H0v256h256v192l384-320z"/></symbol><symbol id="arrow-small-down" viewBox="0 0 384 1026"><path d="M256 449V321H128v128H0l192 256 192-256H256z"/></symbol><symbol id="arrow-small-left" viewBox="0 0 384 1026"><path d="M256 449V321L0 513l256 192V577h128V449H256z"/></symbol><symbol id="arrow-small-right" viewBox="0 0 384 1026"><path d="M384 513L128 321v128H0v128h128v128l256-192z"/></symbol><symbol id="arrow-small-up" viewBox="0 0 384 1026"><path d="M192 321L0 577h128v128h128V577h128L192 321z"/></symbol><symbol id="arrow-up" viewBox="0 0 640 1026"><path d="M320 193L0 577h192v256h256V577h192L320 193z"/></symbol><symbol id="beer" viewBox="0 0 1024 1026"><path d="M896 257H704V129C704 58 546 1 352 1S0 58 0 129v768c0 71 158 128 352 128s352-57 352-128V769h192s64-30 64-64V321s-29-64-64-64zM192 833h-64V321h64v512zm192 64h-64V385h64v512zm192-64h-64V321h64v512zM352 193c-124 0-224-29-224-64s100-64 224-64 224 29 224 64-100 64-224 64zm480 448H704V385h128v256z"/></symbol><symbol id="book" viewBox="0 0 1024 1026"><path d="M768 577H640c-34 0-64 32-64 64h256c0-34-32-64-64-64zm-55-416c-167 0-209 32-233 56-24-24-66-56-233-56S0 207 0 239v586c29-16 119-48 214-56 115-9 234 9 234 32 0 16 8 31 31 32h2c23-1 31-16 31-32 0-23 119-41 234-32 94 7 185 40 214 56V239c0-32-80-78-247-78zM448 733c-30-16-103-28-192-28S86 717 64 732V289s64-59 192-59 192 27 192 59v444zm448-1c-22-15-103-27-192-27s-162 12-192 28V289s64-59 192-59 192 27 192 59v443zM768 449H640c-34 0-64 32-64 64h256c0-34-32-64-64-64zm0-128H640c-34 0-64 32-64 64h256c0-34-32-64-64-64zM320 449H192c-32 0-64 30-64 64h256c0-32-30-64-64-64zm0 128H192c-32 0-64 30-64 64h256c0-32-30-64-64-64zm0-256H192c-32 0-64 30-64 64h256c0-32-30-64-64-64z"/></symbol><symbol id="bookmark" viewBox="0 0 384 1026"><path d="M0 129v768l192-128 192 128V129H0zm316.25 196.75l-71.875 51.938 27.188 83.406c2.75 8.375-.688 11.062-7.562 6.594l-72-52.094-72 52.03c-6.843 4.47-10.31 1.782-7.56-6.593l27.218-83.405-71.875-51.875c-6.47-5.125-5-9.22 3.906-9.22l88-.124 27.124-83.094c2.812-8.812 7.562-8.812 10.375 0l27.187 83.094 87.938.125c8.935 0 10.373 4.095 3.935 9.22z"/></symbol><symbol id="briefcase" viewBox="0 0 1024 1026"><path d="M896 193H640v-66c0-34.2-27.8-62-62-62H446c-34.2 0-62 27.8-62 62v66H128c-35.3 0-64 28.7-64 64v512c0 35.3 28.7 64 64 64h768c35.3 0 64-28.7 64-64V257c0-35.3-28.7-64-64-64zm-448-48c0-8.8 7.2-16 16-16h96c8.8 0 16 7.2 16 16v48H448v-48zm448 368H576v64H448v-64H128V257h64v192h640V257h64v256z"/></symbol><symbol id="broadcast" viewBox="0 0 896 1026"><path d="M448 193c142 0 256 115 256 256 0 69-28 132-72 178l-16 93c91-56 152-156 152-271 0-177-143-320-320-320S128 272 128 449c0 115 61 215 152 271l-16-93c-45-46-72-109-72-178 0-142 114-256 256-256zm-64 320c-36 0-64 29-64 64v128c0 36 30 64 64 64v256h128V769c34 0 64-28 64-64V577c0-35-28-64-64-64H384zm192-128c0-71-57-128-128-128s-128 57-128 128 57 128 128 128 128-57 128-128zM448 1C201 1 0 202 0 449c0 197 128 363 305 423l-12-72C158 740 64 606 64 449 64 237 236 65 448 65s384 172 384 384c0 157-94 291-229 351l-12 72c177-60 305-225 305-423C896 202 695 1 448 1z"/></symbol><symbol id="browser" viewBox="0 0 896 1026"><path d="M320 193h64v64h-64v-64zm-128 0h64v64h-64v-64zm-128 0h64v64H64v-64zm768 640H64V321h768v512zm0-576H448v-64h384v64zm64-64c0-35.35-28.65-64-64-64H64c-35.35 0-64 28.65-64 64v640c0 35.35 28.65 64 64 64h768c35.35 0 64-28.65 64-64V193z"/></symbol><symbol id="bug" viewBox="0 0 733.886 1026"><path d="M243.62 157.53C190.748 214.313 205.34 305 205.34 305s53.968 64 160 64c106.03 0 160.03-64 160.03-64s14.376-89.47-37.374-146.312c32.375-18.03 51.438-44.094 43.562-61.812-8.938-19.97-48.375-21.75-88.25-3.97-14.812 6.595-27.438 14.97-37.25 23.876-12.438-2.25-25.625-3.78-40.72-3.78-14.06 0-26.56 1.343-38.344 3.25-9.656-8.75-22.062-16.876-36.53-23.345-39.876-17.72-79.376-15.938-88.25 3.97-7.75 17.342 10.283 42.685 41.407 60.654zm401.126 413.22c-8.25-1.75-16.125-2.75-23.75-3.5 0-2.125.375-4.125.375-6.312 0-33.594-4.75-65.654-12.437-96.125 16.438 1.406 37.375-2.375 58.562-11.78 39.875-17.78 65-48.374 56.125-68.218-8.875-19.97-48.375-21.75-88.25-3.97-18.625 8.313-33.812 19.47-44 30.907-7.75-18.25-16.5-35.78-26.812-51.72-30.188 25.157-87.312 62.72-167.062 71.063v321.78s-.25 32-32.03 32c-31.75 0-32-32-32-32V431.22c-79.812-8.345-136.97-45.97-167.094-71.063-9.875 15.312-18.375 32-25.938 49.344-10.28-10.624-24.625-20.843-41.97-28.593-39.874-17.72-79.374-15.938-88.25 3.97-8.905 19.905 16.25 50.437 56.126 68.218 19.844 8.846 39.53 12.812 55.47 12.096-7.657 30.405-12.47 62.345-12.47 95.813 0 2.188.375 4.25.438 6.5-6.72.75-13.688 1.75-20.78 3.25-51.97 10.75-91.782 37.625-88.845 59.812 2.938 22.312 47.5 31.5 99.594 20.688 6.78-1.375 13.438-3.125 19.78-5.062 9.157 40.81 23.813 78.685 44.095 111.31-12.03 6.062-24.53 15-36.03 26.625C95.714 816 82.778 854.75 98.714 870.688c15.938 15.937 54.656 3 86.53-28.812 9.345-9.375 16.845-19.25 22.657-29C251.434 855.5 305.965 881 365.465 881c60.343 0 115.78-26.25 159.53-69.938 5.876 10.312 13.75 20.812 23.626 30.688 31.813 31.875 70.626 44.812 86.563 28.875s3-54.625-28.875-86.5c-12.312-12.375-25.688-21.75-38.438-27.938 20.125-32.5 34.625-70.375 43.688-111.062 7.188 2.25 14.688 4.375 22.562 6.062 52.06 10.812 96.625 1.562 99.625-20.688 2.813-22.125-37-49-89-59.75z"/></symbol><symbol id="calendar" viewBox="0 0 1024 1026"><path d="M704 513h-64v128h64V513zm-128 0h-64v128h64V513zm128-192h-64v128h64V321zm128 192h-64v128h64V513zM576 705h-64v128h64V705zM768 1h-64v128h64V1zM256 1h-64v128h64V1zm576 320h-64v128h64V321zm-256 0h-64v128h64V321zM320 705h-64v128h64V705zM192 513h-64v128h64V513zm128 0h-64v128h64V513zM832 65v128H640V65H320v128H128V65H0v896h960V65H832zm64 832H64V257h832v640zM192 705h-64v128h64V705zm256-384h-64v128h64V321zm0 384h-64v128h64V705zM320 321h-64v128h64V321zm128 192h-64v128h64V513zm256 192h-64v128h64V705z"/></symbol><symbol id="check" viewBox="0 0 768 1026"><path d="M640 193L256 577 128 449 0 577l256 256 512-512-128-128z"/></symbol><symbol id="checklist" viewBox="0 0 765.602 1026"><path d="M760.688 517.22l-49.812-49.657c-6.438-6.53-16.938-6.594-23.375 0L582.5 572.5 462.375 692.875l-93.03-93.125c-6.532-6.562-17.032-6.562-23.5 0l-49.72 49.688c-6.53 6.562-6.53 17.062 0 23.562l104.78 104.875 17.97 17.875 31.688 31.812c6.562 6.562 17.188 6.562 23.562 0l49.625-49.688L760.625 540.78c6.625-6.468 6.625-16.968.063-23.56zm-532.22 64.592L278.157 532c42.47-42.375 116.344-42.438 158.78.062l25.313 25.312L576 449V129H0v704h320l-91.53-92.125c-43.782-43.937-43.782-115.25 0-159.063zM192 193h320v64H192v-64zm0 128h320v64H192v-64zm-64 192H64v-64h64v64zm0-128H64v-64h64v64zm0-128H64v-64h64v64zm64 192h64v64h-64v-64z"/></symbol><symbol id="chevron-down" viewBox="0 0 640 1026"><path d="M512 321L320 513 128 321 0 449l320 320 320-320-128-128z"/></symbol><symbol id="chevron-left" viewBox="0 0 448 1026"><path d="M448 321L320 193 0 513l320 320 128-128-192-192 192-192z"/></symbol><symbol id="chevron-right" viewBox="0 0 448 1026"><path d="M128 193L0 321l192 192L0 705l128 128 320-320-320-320z"/></symbol><symbol id="chevron-up" viewBox="0 0 640 1026"><path d="M320 257L0 577l128 128 192-192 192 192 128-128-320-320z"/></symbol><symbol id="circle-slash" viewBox="0 0 640 1026"><path d="M320 193C143.22 193 0 336.22 0 513c0 176.75 143.22 320 320 320 176.75 0 320-143.25 320-320 0-176.78-143.25-320-320-320zm0 128c27.656 0 53.688 6.094 77.438 16.562L144.562 590.438C134.094 566.688 128 540.656 128 513c0-106 85.938-192 192-192zm0 384c-28.03 0-54.53-6.375-78.594-17.125l253.906-252.5C505.875 459.188 512 485.28 512 513c0 106.062-85.938 192-192 192z"/></symbol><symbol id="circuit-board" viewBox="0 0 1024 1026"><path d="M320 257c35.346 0 64 28.654 64 64 0 35.346-28.654 64-64 64s-64-28.654-64-64c0-35.346 28.654-64 64-64zm640 512c0 106.04-85.96 192-192 192H320l192-192h81.128c22.132 38.258 63.494 64 110.872 64 70.692 0 128-57.308 128-128s-57.308-128-128-128c-47.377 0-88.74 25.742-110.872 64H448L156.044 932.956C100.844 899.232 64 838.42 64 769V257c0-106.04 85.96-192 192-192v145.128C217.742 232.26 192 273.623 192 321c0 70.692 57.308 128 128 128 47.276 0 88.56-25.633 110.727-63.756l162.416-.22C615.28 423.27 656.633 449 704 449c70.692 0 128-57.308 128-128s-57.308-128-128-128c-47.388 0-88.758 25.753-110.887 64.025l-162.097.22c-11.246-19.54-27.503-35.83-47.016-47.117V65h384c106.04 0 192 85.96 192 192v512zm-320-64c0-35.346 28.654-64 64-64s64 28.654 64 64c0 35.346-28.654 64-64 64s-64-28.654-64-64zm0-384c0-35.346 28.654-64 64-64s64 28.654 64 64c0 35.346-28.654 64-64 64s-64-28.654-64-64z"/></symbol><symbol id="clippy" viewBox="0 0 896 1026"><path d="M704 897H64V321h640v192h64V193c0-35-29-64-64-64H512C512 58 455 1 384 1S256 58 256 129H64c-35 0-64 29-64 64v704c0 35 29 64 64 64h640c35 0 64-29 64-64V769h-64v128zM192 193h64s64-29 64-64 29-64 64-64 64 29 64 64 32 64 64 64h64s64 29 64 64H128c0-39 28-64 64-64zm-64 512h128v-64H128v64zm448-128V449L320 641l256 192V705h320V577H576zM128 833h192v-64H128v64zm320-448H128v64h320v-64zM256 513H128v64h128v-64z"/></symbol><symbol id="clock" viewBox="0 0 896 1026"><path d="M384 577h256l64-64-64-64H512V257l-64-64-64 64v320zm64-512C200.562 65 0 265.562 0 513s200.562 448 448 448 448-200.562 448-448S695.438 65 448 65zm0 768c-176.25 0-320-143.75-320-320 0-175.938 144.188-319.5 320-320 175.812.5 320 144.062 320 320 0 176.25-143.75 320-320 320z"/></symbol><symbol id="cloud-download" viewBox="0 0 1024 1026"><path d="M832 321c-8.75 0-17.125 1.406-25.625 2.562C757.625 209.25 644.125 129 512 129c-132.156 0-245.562 80.25-294.406 194.562C209.156 322.406 200.78 321 192 321 85.938 321 0 406.938 0 513s85.938 192 192 192c20.53 0 39.875-4.25 58.375-10.375C284.47 732.375 331.312 757.75 384 765.5v-65.25c-49.844-10.375-91.594-42.812-112.625-87.875C249.53 630 222.22 641 192 641c-70.656 0-128-57.375-128-128 0-70.656 57.344-128 128-128 25.28 0 48.625 7.562 68.406 20.094C281.344 284.78 385.594 193 512 193c126.5 0 229.75 92.22 250.5 212.75 20-13 43.875-20.75 69.5-20.75 70.625 0 128 57.344 128 128 0 70.625-57.375 128-128 128-10.25 0-20-1.5-29.625-3.75C773.438 678.125 725.938 705 672 705c-11.062 0-21.625-1.625-32-4v64.938c10.438 1.688 21.062 3.062 32 3.062 61.188 0 116.5-24.625 156.938-64.438 1.062.063 1.937.438 3.062.438 106.062 0 192-85.938 192-192s-85.938-192-192-192zM576 513H448v320H320l192 192 192-192H576V513z"/></symbol><symbol id="cloud-upload" viewBox="0 0 1024 1026"><path d="M512 385L320 577h128v320h128V577h128L512 385zm320-64c-8.75 0-17.125 1.406-25.625 2.562C757.625 209.188 644.125 129 512 129c-132.156 0-245.562 80.188-294.406 194.562C209.156 322.406 200.78 321 192 321 85.938 321 0 407 0 513c0 106.062 85.938 192 192 192 20.53 0 39.875-4.25 58.375-10.438C284.47 732.375 331.312 757.75 384 765.5v-65.25c-49.844-10.375-91.594-42.812-112.625-87.75C249.53 630 222.22 641 192 641c-70.656 0-128-57.375-128-128 0-70.656 57.344-128 128-128 25.28 0 48.625 7.562 68.406 20.156C281.344 284.78 385.594 193 512 193c126.5 0 229.75 92.22 250.5 212.75 20-13 43.875-20.75 69.5-20.75 70.625 0 128 57.344 128 128 0 70.625-57.375 128-128 128-10.25 0-20-1.5-29.625-3.75C773.438 678.125 725.938 705 672 705c-11.062 0-21.625-1.625-32-4v64.938c10.438 1.688 21.062 3.062 32 3.062 61.188 0 116.5-24.688 157-64.438 1 0 1.875.438 3 .438 106.062 0 192-85.938 192-192 0-106-85.938-192-192-192z"/></symbol><symbol id="code" viewBox="0 0 896 1026"><path d="M608 193l-96 96 224 224-224 224 96 96 288-320-288-320zm-320 0L0 513l288 320 96-96-224-224 224-224-96-96z"/></symbol><symbol id="color-mode" viewBox="0 0 768 1026"><path d="M0 129v768h768V129H0zm64 704V193h640L64 833z"/></symbol><symbol id="comment" viewBox="0 0 896 1026"><path d="M768 129H128C66 129 0 193 0 257v384c0 128 128 128 128 128h64v256l256-256h320s128-68 128-128V257c0-62-64-128-128-128z"/></symbol><symbol id="comment-discussion" viewBox="0 0 896 1026"><path d="M256 513V321H64S0 353 0 385v320s32 64 64 64h64v192l194-192h192s62-32 62-64v-64H384s-128-64-128-128zm576-384H384s-64 32-64 64v320s32 64 64 64h190l194 192V577h64s64-32 64-64V193s-32-64-64-64z"/></symbol><symbol id="credit-card" viewBox="0 0 1024 1026"><path d="M128 705h128v-64H128v64zm192 0h128v-64H320v64zm64-192H128v64h256v-64zm-128-64h64l128-128h-64L256 449zm192 128h192v-64H448v64zm512-384H64S0 225 0 257v512s32 64 64 64h896s64-32 64-64V257s-32-64-64-64zm0 256v288s0 32-32 32H96c-32 0-32-32-32-32V449h64l128-128H64v-32s0-32 32-32h832c32 0 32 32 32 32v32H576L448 449h512z"/></symbol><symbol id="dash" viewBox="0 0 512 1026"><path d="M0 449v128h512V449H0z"/></symbol><symbol id="dashboard" viewBox="0 0 832 1026"><path d="M416 465.5c-61.562 0-111.5 49.938-111.5 111.5S354.438 688.5 416 688.5 527.5 638.562 527.5 577c0-8.5-1.125-16.75-3-24.688C606.125 457.375 732.5 309.344 800 225c23.125-28.875-2.312-56.188-32-32-85.188 69.375-232.312 194.688-326.906 275.594-8.063-1.875-16.47-3.094-25.094-3.094zm31.875-208.625c0-17.656-14.344-32-32-32s-32 14.344-32 32 14.344 32 32 32 32-14.344 32-32zm192 256c0 17.656 14.375 32 32 32s32-14.344 32-32-14.375-32-32-32-32 14.344-32 32zm-352-256c-17.656 0-32 14.344-32 32s14.344 32 32 32 32-14.344 32-32-14.344-32-32-32zm-64 128c0-17.656-14.344-32-32-32s-32 14.344-32 32 14.344 32 32 32 32-14.344 32-32zm-96 128c0 17.656 14.344 32 32 32s32-14.344 32-32-14.344-32-32-32-32 14.344-32 32zm448-224c0-17.656-14.375-32-32-32s-32 14.344-32 32 14.375 32 32 32 32-14.344 32-32zm217 48.813l-68.75 89.938C731.625 454.812 736 483.376 736 513c0 176.75-143.312 320-320 320S96 689.75 96 513c0-176.688 143.312-320 320-320 65.875 0 127 19.97 177.875 54.094l79.25-60.625C602.375 130.593 513.25 97 416 97 186.25 97 0 283.25 0 513s186.25 416 416 416 416-186.25 416-416c0-62.72-14.25-122-39.125-175.312z"/></symbol><symbol id="database" viewBox="0 0 768 1026"><path d="M384 961C171.97 961 0 903.625 0 833V705c0-11.125 5.562-21.688 13.562-32C56.375 728.125 205.25 769 384 769s327.625-40.875 370.438-96c8 10.312 13.562 20.875 13.562 32v128c0 70.625-172 128-384 128zm0-256C171.97 705 0 647.625 0 577V449c0-6.78 2.562-13.375 6-19.906C7.938 425 10.5 420.97 13.562 417 56.375 472.094 205.25 513 384 513s327.625-40.906 370.438-96c3.062 3.97 5.625 8 7.562 12.094 3.438 6.53 6 13.125 6 19.906v128c0 70.625-172 128-384 128zm0-256C171.97 449 0 391.656 0 321v-64-64C0 122.344 171.97 65 384 65c212 0 384 57.344 384 128v128c0 70.656-172 128-384 128zm0-320c-141.375 0-256 28.594-256 64s114.625 64 256 64 256-28.594 256-64-114.625-64-256-64z"/></symbol><symbol id="device-camera" viewBox="0 0 1024 1026"><path d="M512 385c-70.69 0-128 57.31-128 128s57.31 128 128 128c5.713 0 11.337-.38 16.852-1.106-46.344-7.058-81.85-47.08-81.85-95.394 0-53.295 43.203-96.5 96.498-96.5 48.314 0 88.336 35.508 95.394 81.852.726-5.515 1.105-11.14 1.105-16.852 0-70.69-57.31-128-128-128zm384-128H768L640 129H384L256 257H128c-35.348 0-64 28.652-64 64v448c0 35.347 28.652 64 64 64h768c35.347 0 64-28.653 64-64V321c0-35.348-28.653-64-64-64zm-480-64h192l64 64H352l64-64zM160.143 769C142.39 769 128 754.61 128 736.857V449h64v-64h-64v-31.857C128 335.39 142.39 321 160.143 321H342.67c-3.98 3.518-7.882 7.174-11.69 10.98-99.973 99.975-99.973 262.064 0 362.04L405.96 769H160.144zM512 705c-106.038 0-192-85.962-192-192s85.962-192 192-192 192 85.962 192 192-85.962 192-192 192zm320-224L681.327 321H832v160z"/></symbol><symbol id="device-camera-video" viewBox="0 0 1024 1026"><path d="M576 193c-35.347 0-64 28.653-64 64s28.653 64 64 64 64-28.653 64-64-28.653-64-64-64zm320 192L768 513v-64c0-30.625-21.515-56.21-50.25-62.503C748.958 352.354 768 306.903 768 257.002 768 150.962 682.04 65 576 65c-101.123 0-183.986 78.178-191.45 177.393C350.516 211.693 305.442 193 256 193c-106.038 0-192 85.962-192 192.002C64 491.04 149.962 577 256 577h-64v128h64v128c0 35.347 28.653 64 64 64h384c35.347 0 64-28.653 64-64v-64l128 128h64V385h-64zm-640-64c-35.347 0-64 28.653-64 64s28.653 64 64 64v64c-70.692 0-128-57.308-128-128 0-70.692 57.308-128 128-128s128 57.307 128 128h-64c0-35.347-28.653-64-64-64zm320 384H448V577h128v128zm128-109.213c-33.526-33.547-70.276-70.317-73.373-73.414-5.79-5.79-13.79-9.373-22.627-9.373H416c-17.674 0-32 14.326-32 32v192c0 8.33 3.183 15.915 8.396 21.607.53.58 39.123 39.164 74.41 74.393H352c-17.674 0-32-14.326-32-32V481c0-17.674 14.326-32 32-32h320c17.674 0 32 14.326 32 32v114.787zM576 385c-70.692 0-128-57.308-128-128 0-70.692 57.308-128 128-128s128 57.308 128 128c0 70.692-57.308 128-128 128zm320 320l-64-64 .082-128.084L896 448.998V705z"/></symbol><symbol id="device-desktop" viewBox="0 0 1024 1026"><path d="M960 65H64S0 97 0 129v576s32 64 64 64h320s-192 64-192 128c0 32 32 64 64 64h512s64-32 64-64c0-64-192-128-192-128h320s64-32 64-64V129s-32-64-64-64zm0 640H64V129h896v576zm-64-512H704c-384 64-542 300-576 384v64h768V193z"/></symbol><symbol id="device-mobile" viewBox="0 0 640 1026"><path d="M576 1H64C28.688 1 0 29.688 0 65v896c0 35.375 28.688 64 64 64h512c35.375 0 64-28.625 64-64V65c0-35.312-28.625-64-64-64zM288 65h64c17.625 0 32 14.344 32 32s-14.375 32-32 32h-64c-17.656 0-32-14.344-32-32s14.344-32 32-32zm64 896h-64c-17.656 0-32-14.375-32-32s14.344-32 32-32h64c17.625 0 32 14.375 32 32s-14.375 32-32 32zm224-128H64V193h512v640z"/></symbol><symbol id="diff" viewBox="0 0 896 1026"><path d="M448 257H320v128H192v128h128v128h128V513h128V385H448V257zM192 897h384V769H192v128zM640 1H128v64h480l224 224v608h64V257L640 1zM0 129v896h768V321L576 129H0zm704 832H64V193h480l160 160v608z"/></symbol><symbol id="diff-added" viewBox="0 0 896 1026"><path d="M512 321H384v128H256v128h128v128h128V577h128V449H512V321zM832 65H64S0 97 0 129v768s32 64 64 64h768s64-32 64-64V129s-32-64-64-64zm-64 736c0 16-17 32-32 32H160s-32-12-32-32V225s16-32 32-32h576s32 16 32 32v576z"/></symbol><symbol id="diff-ignored" viewBox="0 0 896 1026"><path d="M832 65H64C32 65 0 97 0 129v768c0 32 32 64 64 64h768c32 0 64-32 64-64V129c0-32-32-64-64-64zm-64 736c0 16-17 32-32 32H160c-18 0-32-12-32-32V225c0-16 16-32 32-32h576c15 0 32 16 32 32v576zM256 607v98h98l286-286v-98h-98L256 607z"/></symbol><symbol id="diff-modified" viewBox="0 0 896 1026"><path d="M832 65H64C32 65 0 97 0 129v768c0 32 32 64 64 64h768c32 0 64-32 64-64V129c0-32-32-64-64-64zm-64 736c0 16-17 32-32 32H160c-18 0-32-12-32-32V225c0-16 16-32 32-32h576c15 0 32 16 32 32v576zM448 385c-71 0-128 57-128 128s57 128 128 128 128-57 128-128-57-128-128-128z"/></symbol><symbol id="diff-removed" viewBox="0 0 896 1026"><path d="M832 65H64C32 65 0 97 0 129v768c0 32 32 64 64 64h768c32 0 64-32 64-64V129c0-32-32-64-64-64zm-64 736c0 16-17 32-32 32H160c-18 0-32-12-32-32V225c0-16 16-32 32-32h576c15 0 32 16 32 32v576zM256 577h384V449H256v128z"/></symbol><symbol id="diff-renamed" viewBox="0 0 896 1026"><path d="M832 65H64C32 65 0 97 0 129v768c0 32 32 64 64 64h768c32 0 64-32 64-64V129c0-32-32-64-64-64zm-64 736c0 16-17 32-32 32H160c-18 0-32-12-32-32V225c0-16 16-32 32-32h576c15 0 32 16 32 32v576zM448 449H256v128h192v128l256-192-256-192v128z"/></symbol><symbol id="ellipsis" viewBox="0 0 768 1026"><path d="M640 321H128S0 385 0 449v128s64 128 128 128h512s128-64 128-128V449s-64-128-128-128zM256 577H128V449h128v128zm192 0H320V449h128v128zm192 0H512V449h128v128z"/></symbol><symbol id="eye" viewBox="0 0 1024 1026"><path d="M512 129C320 129 96 257 0 513c96 192 288 320 512 320s416-128 512-320c-96-256-320-384-512-384zm0 640c-192 0-352-128-384-256 32-128 192-256 384-256s352 128 384 256c-32 128-192 256-384 256zm0-448c-20 0-38 4-56 9 33 15 56 48 56 87 0 53-43 96-96 96-39 0-72-23-87-56-5 18-9 36-9 56 0 106 86 192 192 192s192-86 192-192-86-192-192-192z"/></symbol><symbol id="file-binary" viewBox="0 0 768 1026"><path d="M0 961V65h576l192 192v704zm704-672L544 129H64v768h640zM320 513H128V257h192zm-64-192h-64v128h64zm0 448h64v64H128v-64h64V641h-64v-64h128zm256-320h64v64H384v-64h64V321h-64v-64h128zm64 384H384V577h192zm-64-192h-64v128h64z"/></symbol><symbol id="file-code" viewBox="0 0 768 1026"><path d="M288 385L128 545l160 160 64-64-96-96 96-96zm128 64l96 96-96 96 64 64 160-160-160-160zM576 65H0v896h768V257zm128 832H64V129h480l160 160z"/></symbol><symbol id="file-directory" viewBox="0 0 896 1026"><path d="M832 193H480s-32-16-32-32v-32s-32-64-64-64H64S0 97 0 129v704h896V257s-32-64-64-64zm-448 0H64v-32s16-32 32-32h256s32 15 32 32v32z"/></symbol><symbol id="file-media" viewBox="0 0 768 1026"><path d="M576 65H0v896h768V257zm128 832H64V129h480l160 160zM128 257v512h128c0-71 57-128 128-128-71 0-128-57-128-128s57-128 128-128 128 57 128 128-57 128-128 128c71 0 128 57 128 128h128V385L512 257z"/></symbol><symbol id="file-pdf" viewBox="0 0 768 1026"><path d="M576 65H0v896h768V257zM64 129h256c-13 4-27 15-35 43-13 49-7 131 16 209-24 81-123 277-129 289-16 4-66 23-108 59zm283 307c58 150 95 150 135 168-84 13-148 22-232 60-4 6 76-146 97-228zm357 461H64h2c34 0 85-21 180-182 39-16 72-27 79-29 59-15 125-27 187-34 55 28 127 46 168 49 10 0 16-2 24-2zm0-311c-24-14-54-25-89-25-24 0-51 2-79 5-27-13-92-33-147-190 17-104 13-174 13-174 6-53-24-73-52-73h194l160 160z"/></symbol><symbol id="file-submodule" viewBox="0 0 896 1026"><path d="M832 513H640c0-32-32-64-64-64H448s-64 32-64 64v320h512V577s-32-64-64-64zm-256 64H448v-32s15-32 32-32h64s32 15 32 32v32zm256-320H480s-32-17-32-32v-32s-32-64-64-64H64S0 161 0 193v640h320V449s32-64 64-64h256s64 32 64 64h192V321s-32-64-64-64zm-448 0H64v-32s16-32 32-32h256s32 17 32 32v32z"/></symbol><symbol id="file-symlink-directory" viewBox="0 0 896 1026"><path d="M832 193H480c-16 0-32-16-32-32v-32s-32-64-64-64H64C32 65 0 97 0 129v704h896V257s-32-64-64-64zM64 161c0-17 16-32 32-32h256c15 0 32 15 32 32v32H64v-32zm384 544V577c-125 0-224 56-256 192 0-209 107-320 256-320V321l256 192-256 192z"/></symbol><symbol id="file-symlink-file" viewBox="0 0 768 1026"><path d="M576 65H0v896h768V257zm128 832H64V129h480l160 160zM384 449c-149 0-256 111-256 320 32-136 131-192 256-192v128l256-192-256-192z"/></symbol><symbol id="file-text" viewBox="0 0 768 1026"><path d="M448 257H128v64h320zM576 65H0v896h768V257zm128 832H64V129h480l160 160zM128 769h512v-64H128zm0-128h512v-64H128zm0-128h512v-64H128z"/></symbol><symbol id="file-zip" viewBox="0 0 768 1026"><path d="M320 577v-64h-64v64zm0-128v-64h-64v64zm0-128v-64h-64v64zm-128 64h64v-64h-64zM576 65H0v896h768V257zm128 832H64V129h192v64h64v-64h224l160 160zM192 257h64v-64h-64zm0 256h64v-64h-64zm0 128l-64 64v128h256V705l-64-64h-64v-64h-64zm128 64v64H192v-64z"/></symbol><symbol id="flame" viewBox="0 0 1024 1026"><path d="M433 46c50 134 24 207-32 265-61 64-156 112-223 206C89 642 74 917 395 989c-135-71-164-277-18-406-38 125 32 205 119 176 85-29 141 32 139 102-1 48-20 89-69 112 209-37 293-210 293-342 0-174-155-198-77-344-93 8-125 69-116 169 6 66-63 111-114 81-41-25-40-73-4-109 77-76 107-251-115-382z"/></symbol><symbol id="fold" viewBox="0 0 896 1026"><path d="M896 257H672l-64 64h192L672 449H224L96 321h192l-64-64H0v64l160 160L0 641v64h224l64-64H96l128-128h448l128 128H608l64 64h224v-64L736 481l160-160v-64zm-256-64H512V1H384v192H256l192 192 192-192zM256 769h128v192h128V769h128L448 577 256 769z"/></symbol><symbol id="gear" viewBox="0 0 896 1026"><path d="M447.938 351C358.53 351 286 423.53 286 513c0 89.375 72.53 162.062 161.938 162.062 89.438 0 161.438-72.688 161.438-162.062 0-89.47-72-162-161.438-162zm324.687 255.062l-29.188 70.312 52.062 102.25 6.874 13.5-72.188 72.188-118.436-55.937-70.312 28.875L505.75 946.5l-4.562 14.5H399.156L355 837.688l-70.312-29-102.404 51.938-13.5 6.75-72.156-72.125 55.875-118.5-28.97-70.25L14.47 570.876 0 566.188v-101.97L123.406 420l28.97-70.188-51.907-102.47-6.845-13.437 72.062-72.062 118.594 55.844 70.22-29.03 35.656-109.19L394.75 65h102l44.188 123.47 70.125 29.03L713.5 165.53l13.625-6.843 72.125 72.062-55.875 118.405L772.25 419.5l109.375 35.656L896 459.75v101.938l-123.375 44.374z"/></symbol><symbol id="gift" viewBox="0 0 896 1026"><path d="M448 961h320V641H448v320zm-384 0h320V641H64v320zm383.75-583.812c31.47-3.5 66.875-7.406 87.375-9.72C619 358.126 694.5 282.595 703.812 198.75c9.312-83.75-51-144.125-134.688-134.72C503.688 71.345 443.844 119 416 179.376 388.156 119 328.312 71.345 262.906 63.97 179.188 54.624 118.78 115 128.188 198.75c9.344 83.844 84.875 159.312 168.656 168.72 20.53 2.31 55.938 6.28 87.406 9.718-.5 4.218-.25 7.812-.25 7.812h64s.25-3.594-.25-7.812zm107.625-235.5c45.25-5.062 78 27.562 72.875 72.875-5 45.312-45.875 86.156-91.125 91.22-45.375 5.03-78-27.595-72.938-72.907 5.062-45.312 45.938-86.157 91.188-91.188zM294.905 305.78c-45.25-5.06-86.06-45.905-91.124-91.218-5.062-45.313 27.595-77.938 72.813-72.875 45.312 5.03 86.156 45.875 91.222 91.188 5.06 45.313-27.596 77.937-72.91 72.906zM448 385v192h384V385H448zM0 577h384V385H0v192z"/></symbol><symbol id="gist" viewBox="0 0 768 1026"><path d="M416 385l96 96-96 96 64 64 160-160-160-160-64 64zM0 65v832h768V65H0zm704 768H64V129h640v704zM352 577l-96-96 96-96-64-64-160 160 160 160 64-64z"/></symbol><symbol id="gist-secret" viewBox="0 0 897 1026"><path d="M193 705l128 192H65L0 641l257-64-64 128zm448-128l64 128-128 192h256l64-256-256-64zm-84 0H341l44 102-64 218h256l-64-218 44-102zm84-192H257l-128 64h640l-128-64zm-64-256l-128 64-128-64-64 192h384l-64-192z"/></symbol><symbol id="git-branch" viewBox="0 0 640 1026"><path d="M512 193c-71 0-128 57-128 128 0 47 26 88 64 110v18c0 64-64 128-128 128-53 0-95 11-128 29V303c38-22 64-63 64-110 0-71-57-128-128-128S0 122 0 193c0 47 26 88 64 110v419C26 744 0 785 0 832c0 71 57 128 128 128s128-57 128-128c0-34-13-64-34-87 19-23 49-41 98-41 128 0 256-128 256-256v-18c38-22 64-63 64-110 0-71-57-128-128-128zm-384-64c35 0 64 29 64 64s-29 64-64 64-64-29-64-64 29-64 64-64zm0 768c-35 0-64-29-64-64s29-64 64-64 64 29 64 64-29 64-64 64zm384-512c-35 0-64-29-64-64s29-64 64-64 64 29 64 64-29 64-64 64z"/></symbol><symbol id="git-commit" viewBox="0 0 896 1026"><path d="M694.875 449C666.375 338.78 567.125 257 448 257c-119.094 0-218.375 81.78-246.906 192H0v128h201.094C229.624 687.25 328.906 769 448 769c119.125 0 218.375-81.75 246.875-192H896V449H694.875zM448 641c-70.656 0-128-57.375-128-128 0-70.656 57.344-128 128-128 70.625 0 128 57.344 128 128 0 70.625-57.375 128-128 128z"/></symbol><symbol id="git-compare" viewBox="0 0 896 1026"><path d="M832 723V321s-96-192-192-192h-64V1L384 193l192 192V257h64s64 32 64 64v402c-38 22-64 63-64 110 0 71 57 128 128 128s128-57 128-128c0-47-26-88-64-110zm-64 174c-35 0-64-29-64-64s29-64 64-64 64 29 64 64-29 64-64 64zM320 769h-64s-64-32-64-64V303c38-22 64-63 64-110 0-71-57-128-128-128S0 122 0 193c0 47 26 88 64 110v402s96 192 192 192h64v128l192-192-192-192v128zM128 257c-35 0-64-29-64-64s29-64 64-64 64 29 64 64-29 64-64 64z"/></symbol><symbol id="git-merge" viewBox="0 0 768 1026"><path d="M640 449c-47.625 0-88.625 26.312-110.625 64.906C523.625 513.5 518 513 512 513c-131.062 0-255.438-99.844-300.812-223.438C238.468 266.094 256 231.72 256 193c0-70.656-57.344-128-128-128S0 122.344 0 193c0 47.22 25.844 88.062 64 110.28v419.47C25.844 744.938 0 785.75 0 833c0 70.625 57.344 128 128 128s128-57.375 128-128c0-47.25-25.844-88.062-64-110.25V492.47C276.156 581.5 392.375 641 512 641c6.375 0 11.625-.438 17.375-.625C551.5 678.812 592.5 705 640 705c70.625 0 128-57.375 128-128 0-70.656-57.375-128-128-128zM128 897c-35.312 0-64-28.625-64-64 0-35.312 28.688-64 64-64 35.406 0 64 28.688 64 64 0 35.375-28.594 64-64 64zm0-640c-35.312 0-64-28.594-64-64s28.688-64 64-64c35.406 0 64 28.594 64 64s-28.594 64-64 64zm512 384c-35.312 0-64-28.625-64-64 0-35.406 28.688-64 64-64 35.375 0 64 28.594 64 64 0 35.375-28.625 64-64 64z"/></symbol><symbol id="git-pull-request" viewBox="0 0 768 1026"><path d="M704 723V321s-96-192-192-192h-64V1L256 193l192 192V257h64s64 32 64 64v402c-38 22-64 63-64 110 0 71 57 128 128 128s128-57 128-128c0-47-26-88-64-110zm-64 174c-35 0-64-29-64-64s29-64 64-64 64 29 64 64-29 64-64 64zM128 65C57 65 0 122 0 193c0 47 26 88 64 110v419C26 744 0 785 0 832c0 71 57 128 128 128s128-57 128-128c0-47-26-88-64-110V303c38-22 64-63 64-110 0-71-57-128-128-128zm0 832c-35 0-64-29-64-64s29-64 64-64 64 29 64 64-29 64-64 64zm0-640c-35 0-64-29-64-64s29-64 64-64 64 29 64 64-29 64-64 64z"/></symbol><symbol id="globe" viewBox="0 0 1024 1026"><path d="M512 129c-212.077 0-384 171.923-384 384s171.923 384 384 384c25.953 0 51.303-2.582 75.812-7.49-9.88-4.725-10.957-40.174-1.188-60.385 10.875-22.5 45-79.5 11.25-98.625s-24.375-27.75-45-49.875-12.19-25.45-13.5-31.125c-4.5-19.5 19.875-48.75 21-51.75s1.125-14.25.75-17.625S545.75 567.75 542 567.375s-5.625 6-10.875 6.375-28.125-13.875-33-17.625-7.125-12.75-13.875-19.5-7.5-1.5-18-5.625-44.25-16.5-70.125-27-28.125-25.22-28.5-35.625-15.75-25.5-22.96-36.375c-7.21-10.875-8.54-25.875-11.165-22.5s13.5 42.75 10.875 43.875-8.25-10.875-15.75-20.625 7.875-4.5-16.125-51.75 7.5-71.344 9-96 20.25 9 10.5-6.75.75-48.75-6.75-60.75S275 231 275 231c1.125-11.625 37.5-31.5 63.75-49.875s42.28-4.125 63.375 2.625 22.5 4.5 15.375-2.25 3-10.125 19.5-7.5 21 22.5 46.125 20.625 2.625 4.875 6 11.25-3.75 5.625-20.25 16.875.375 11.25 29.625 32.625 20.25-14.25 17.25-30S537.125 222 537.125 222c18 12 14.674.66 27.8 4.785s48.7 34.215 48.7 34.215c-44.625 24.375-16.5 27-9 32.625s-15.375 16.5-15.375 16.5c-9.375-9.375-10.875.375-16.875 3.75s-.375 12-.375 12c-31.03 4.875-24 37.5-23.625 45.375s-19.875 19.875-25.125 31.125S536.75 438 527 439.5s-19.5-36.75-72-22.5c-15.828 4.297-51 22.5-32.25 59.625s49.875-10.5 60.375-5.25-3 28.875-.75 29.25 29.625 1.03 31.125 33 41.625 29.25 50.25 30 37.5-23.625 41.625-24.75S626 523.875 662 544.5s54.375 17.625 66.75 26.25 3.75 25.875 15.375 31.5 58.125-1.875 69.75 17.25-48 115.125-66.75 125.625S719.75 779.625 701 795s-45 34.406-69.75 49.125c-21.908 13.027-25.85 36.365-35.61 43.732C767.497 849.68 896 696.35 896 513c0-212.077-171.923-384-384-384zm90 360.375c-5.25 1.5-16.125 11.25-42.75-4.5s-45-12.75-47.25-15.375c0 0-2.25-6.375 9.375-7.5 23.87-2.31 54 22.125 60.75 22.5s10.125-6.75 22.125-2.883c12 3.863 3 6.258-2.25 7.758zM476.375 167.25c-2.615-1.902 2.166-4.092 5.016-7.875 1.646-2.186.426-5.815 2.485-7.875 5.625-5.625 33.375-13.5 27.95 1.875-5.425 15.375-31.325 16.875-35.45 13.875zM543.5 216c-9.375-.375-31.443-2.707-27.375-6.75 15.844-15.75-6-20.25-19.5-21.375S477.5 179.25 484.25 178.5s33.75.375 38.25 4.125 28.875 13.5 30.375 20.625 0 13.125-9.375 12.75zm81.375-2.625c-7.5 6-45.24-21.53-52.5-27.75-31.5-27-48.375-18-54.99-22.5-6.617-4.5-4.26-10.5 5.865-19.5s38.625 3 55.125 4.875 35.625 14.625 36 29.78c.375 15.156 18 29.095 10.5 35.095z"/></symbol><symbol id="graph" viewBox="0 0 1024 1026"><path d="M704 257H512v640h192V257zm256 192H768v448h192V449zM64 961V833h64v-64H64V641h64v-64H64V449h64v-64H64V257h64v-64H64V65h64V1H0v1024h1024v-64H64zm384-384H256v320h192V577z"/></symbol><symbol id="heart" viewBox="0 0 768.2724 1026"><path d="M384.073 865c399-314 384-425 384-512s-72-192-192-192-192 128-192 128-72-128-192-128-192 105-192 192-15 198 384 512z"/></symbol><symbol id="history" viewBox="0 0 896 1026"><path d="M448 65c-90.938 0-175.312 27.53-245.938 74.062L128 65v256h256l-88-88c45.438-24.688 96.688-40 152-40 176.75 0 320 143.22 320 320 0 176.75-143.25 320-320 320-176.78 0-320-143.25-320-320 0-45.562 9.78-88.78 27-128H64v-99.406C24.312 352.5 0 429.594 0 513c0 247.438 200.562 448 448 448s448-200.562 448-448S695.438 65 448 65zm-.97 767L512 769V577h128l64-64-64-64H512l-64-64-128 128 64 64v192l63.03 63z"/></symbol><symbol id="home" viewBox="0 0 1024 1026"><path d="M192 577l64 384h192V641h128v320h192l64-384-320-320-320 320zm640-192V129H704l.312 128.312L512 65 0 577h128l384-384 384 384h128L832 385z"/></symbol><symbol id="horizontal-rule" viewBox="0 0 639.875 1026"><path d="M63.938 449h128v128h64V193.062h-64V385h-128V193.062H0V577h63.938V449zm575.937 128V449h-63.938v128h63.938zm0-192V257.062h-63.938V385h63.938zm-191.937 0V257.062h128v-64h-192V577h64V449h128v-64h-128zM0 833h639.875V705H0v128z"/></symbol><symbol id="hourglass" viewBox="0 0 768 1026"><path d="M571 513c118-85 197-240 197-384C768 58 596 1 384 1S0 58 0 129c0 144 80 299 197 384C79 598 0 753 0 897c0 71 172 128 384 128s384-57 384-128c0-144-80-299-197-384zM384 65c141 0 256 29 256 64s-115 64-256 64-256-29-256-64 115-64 256-64zm-64 706c-154 7-238 40-253 82 16-114 75-189 141-251 73-68 112-60 112-103v273zM215 419C145 364 93 289 73 204c70 32 183 53 311 53s241-21 311-53c-20 85-72 160-142 215-24-17-70-34-169-34s-145 17-169 34zm233 352V498c0 43 39 35 112 103 66 62 125 138 141 251-14-41-99-75-253-82z"/></symbol><symbol id="hubot" viewBox="0 0 1024 1026"><path d="M512 65C229 65 0 294 0 577v256s64 128 128 128h768s128-64 128-128V577c0-283-229-512-512-512zm96 768H416c-18 0-32-14-32-32s14-32 32-32h192c18 0 32 14 32 32s-14 32-32 32zm288-128c0 32-32 64-64 64H704c0-32-32-64-64-64H384s-64 32-64 64H192s-64-32-64-64V345c78-129 220-216 384-216s306 87 384 216v360zM768 321H256s-64 32-64 64v128s32 64 64 64h512s64-32 64-64V385s-32-64-64-64zm0 128l-64 64H576l-64-64-64 64H320l-64-64v-64h64l64 64 64-64h128l64 64 64-64h64v64z"/></symbol><symbol id="inbox" viewBox="0 0 768 1026"><path d="M704 193H64L0 577v256h768V577l-64-384zM576 577l-64 128H256l-64-128H79l49-320h512l49 320H576z"/></symbol><symbol id="info" viewBox="0 0 896 1026"><path d="M448 385c35 0 64-29 64-64s-29-64-64-64-64 29-64 64 29 64 64 64zm0-320C201 65 0 266 0 513s201 448 448 448 448-201 448-448S695 65 448 65zm0 768c-177 0-320-143-320-320s143-320 320-320 320 143 320 320-143 320-320 320zm64-320c0-32-32-64-64-64h-64s-64 32-64 64h64v192s32 64 64 64h64s64-32 64-64h-64V513z"/></symbol><symbol id="issue-closed" viewBox="0 0 1024 1026"><path d="M704 317.03l-96 96L768 577l256-256-96-96-158.75 158.78L704 317.03zM512 833c-176.78 0-320-143.25-320-320 0-176.78 143.22-320 320-320 88.375 0 168.375 35.844 226.25 93.75l90.562-90.5C747.75 115.125 635.75 65 512 65 264.562 65 64 265.562 64 513s200.562 448 448 448 448-200.562 448-448L759.75 713.25c8.938-11-75 119.75-247.75 119.75zm64-576H448v320h128V257zM448 769h128V641H448v128z"/></symbol><symbol id="issue-opened" viewBox="0 0 896 1026"><path d="M448 65C200.562 65 0 265.562 0 513s200.562 448 448 448 448-200.562 448-448S695.438 65 448 65zm0 768c-176.78 0-320-143.25-320-320 0-176.78 143.22-320 320-320 176.75 0 320 143.22 320 320 0 176.75-143.25 320-320 320zm-64-64h128V641H384v128zm0-192h128V257H384v320z"/></symbol><symbol id="issue-reopened" viewBox="0 0 896 1026"><path d="M639.125 768.25C585.75 808.375 520 833 448 833c-176.78 0-320-143.25-320-320 0-45.562 9.78-88.78 27-128H64v-99.47C24.312 352.44 0 429.595 0 513c0 247.438 200.562 448 448 448 107.375 0 204.5-39.312 281.75-102.25L768 897V705H576l63.125 63.25zM384 769h128V641H384v128zm128-512H384v320h128V257zm384 256c0-247.438-200.562-448-448-448-107.406 0-204.53 39.312-281.656 102.344L128 129v192h192l-63.156-63.156C310.28 217.688 376 193 448 193c176.75 0 320 143.22 320 320 0 45.562-9.75 88.75-27 128h91v99.5c39.688-66.938 64-144 64-227.5z"/></symbol><symbol id="jersey" viewBox="0 0 897 1026"><path d="M705 1H513c0 32-33 64-97 64s-95-32-95-64H129c0 128-2 384-128 384 0 0-1 544-1 576s32 64 64 64h704s64-32 64-64V385C706 385 704 129 704 1zM96 961c-16 0-31-10-31-32V449c119-64 128-192 128-384h64c0 96 32 191 160 192s160-96 160-192h64c0 186 32 276 64 339v557H96zm385-576l-32 32v320l32 32h128l32-32V417l-32-32H481zm96 320h-64V449h64v256zM225 385l-32 32v320l32 32h128l32-32V417l-32-32H225zm96 320h-64V449h64v256z"/></symbol><symbol id="jump-down" viewBox="0 0 768 1026"><path d="M767.75 193H.25L384 576.75 767.75 193zM0 705v128h768V705H0z"/></symbol><symbol id="jump-left" viewBox="0 0 640 1026"><path d="M256.25 513L640 896.75v-767.5L256.25 513zM0 897h128V129H0v768z"/></symbol><symbol id="jump-right" viewBox="0 0 640 1026"><path d="M0 896.75L383.75 513 0 129.188V896.75zM512 129v768h128V129H512z"/></symbol><symbol id="jump-up" viewBox="0 0 768 1026"><path d="M.188 833h767.5L384 449.25.188 833zM0 193v128h768V193H0z"/></symbol><symbol id="key" viewBox="0 0 896.9 1026"><path d="M640.9 64.9c-141.4 0-256 114.6-256 256 0 19.6 2.2 38.6 6.4 56.9L0 769v64l64 64h128l64-64v-64h64v-64h64v-64h128l70.8-70.8c18.7 4.3 38.1 6.6 58.1 6.6 141.4 0 256-114.6 256-256S782.2 64.9 640.9 64.9zM384 513L64 833v-64l320-320v64zm320-192c-35.3 0-64-28.7-64-64s28.7-64 64-64 64 28.7 64 64-28.7 64-64 64z"/></symbol><symbol id="keyboard" viewBox="0 0 1024 1026"><path d="M640 577h64V449h-64v128zm128-320h-64v128h64V257zm-128 0h-64v128h64V257zM512 577h64V449h-64v128zM384 769h320V641H384v128zm384-192h128V257h-64v192h-64v128zM256 769h64V641h-64v128zm512 0h128V641H768v128zM512 257h-64v128h64V257zM192 449h-64v128h64V449zm0 192h-64v128h64V641zM0 129v768h1024V129H0zm960 704H64V193h896v640zM384 577h64V449h-64v128zM256 257H128v128h128V257zm128 0h-64v128h64V257zM256 577h64V449h-64v128z"/></symbol><symbol id="law" viewBox="0 0 1024 1026"><path d="M514 193c34-1 61-28 62-62 1-37-29-67-66-66-34 1-61 28-62 62-1 37 29 67 66 66zm464 384h-18L833 331c18-2 36-9 52-16 24-11 29-43 11-62l-1-1c-11-11-28-15-43-8-14 6-34 13-53 13-56 0-81-64-287-64s-231 64-287 64c-20 0-39-6-53-13-15-6-32-3-43 8l-1 1c-18 19-13 50 11 62 16 8 34 14 52 16L64 577H46c-8 0-14 7-13 15 11 64 92 113 191 113s180-49 191-113c1-8-5-15-13-15h-18L257 332c83-7 127-49 191-49v486c-35 0-64 29-64 64h-71c-28 0-57 29-57 64h512c0-35-29-64-71-64h-57c0-35-29-64-64-64V283c64 0 108 42 191 49L640 577h-18c-8 0-14 7-13 15 11 64 92 113 191 113s180-49 191-113c1-8-5-15-13-15zm-658 0H128l96-180 96 180zm384 0l96-180 96 180H704z"/></symbol><symbol id="light-bulb" viewBox="0 0 1024 1026"><path d="M512 65c-176.73 0-320 143.27-320 320 0 104.69 50.278 197.633 128 256.015V833c0 35.346 28.653 64 64 64 0 35.346 28.653 64 64 64h128c35.347 0 64-28.654 64-64 35.347 0 64-28.654 64-64V641.015C781.722 582.633 832 489.69 832 385c0-176.73-143.27-320-320-320zm128 736c0 17.673-14.326 32-32 32H416c-17.674 0-32-14.327-32-32v-32h256v32zm64-246.693c-33.234 33.03-64 42.39-64 124.04V705h-64V577l128-128v-64l-64-64-64 64-64-64-64 64-64-64-64 64v64l128 128v128h-64v-26.652c0-81.652-30.766-91.01-64-124.04-39.823-45.128-64-104.39-64-169.308 0-141.385 114.615-256 256-256s256 114.615 256 256c0 64.918-24.177 124.18-64 169.307zM512 577L384 449v-64l64 64 64-64 64 64 64-64v64L512 577z"/></symbol><symbol id="link" viewBox="0 0 1024 1026"><path d="M768 257H630c48 32 93 89 107 128h30c65 0 128 64 128 128s-65 128-128 128H575c-63 0-128-64-128-128 0-23 7-45 18-64H328c-5 21-8 42-8 64 0 128 127 256 255 256h193s256-128 256-256-128-256-256-256zM287 641h-30c-65 0-128-64-128-128s65-128 128-128h192c63 0 128 64 128 128 0 23-7 45-18 64h137c5-21 8-42 8-64 0-128-127-256-255-256H256S0 385 0 513s128 256 256 256h138c-48-32-93-89-107-128z"/></symbol><symbol id="link-external" viewBox="0 0 768 1026"><path d="M640 769H128V258.906L256 257V129H0v768h768V577H640v192zM384 129l128 128-192 192 128 128 192-192 128 128V129H384z"/></symbol><symbol id="list-ordered" viewBox="0 0 768 1026"><path d="M320 577h448V449H320v128zm0 256h448V705H320v128zm0-640v128h448V193H320zM79 449h78V193h-36l-85 23v50l43-2v185zm110 206c0-36-12-78-96-78-33 0-64 6-83 16l1 66c21-10 42-15 67-15s32 11 32 28c0 26-30 58-110 112v50h192v-67l-91 2c49-30 87-66 87-113l1-1z"/></symbol><symbol id="list-unordered" viewBox="0 0 768 1026"><path d="M0 577h128V449H0v128zm0-256h128V193H0v128zm0 512h128V705H0v128zm256-256h512V449H256v128zm0-256h512V193H256v128zm0 512h512V705H256v128z"/></symbol><symbol id="location" viewBox="0 0 640 1026"><path d="M320 1C143 1 0 144 0 321s160 416 320 704c160-288 320-527 320-704S497 1 320 1zm0 448c-71 0-128-57-128-128s57-128 128-128 128 57 128 128-57 128-128 128z"/></symbol><symbol id="lock" viewBox="0 0 768 1026"><path d="M704 449h-64V257S512 1 384 1 128 129 128 257v192H64S0 481 0 513v448s32 64 64 64h640s64-32 64-64V513s-32-64-64-64zM512 577H128v64h384v64H128v64h384v64H128v64h384v64H64V513h448v64zm0-128H256V257s64-128 128-128 128 64 128 128v192z"/></symbol><symbol id="logo-github" viewBox="0 0 2856.857 1026"><path d="M552.73 333.135H311.557c-6.205 0-11.25 5.045-11.25 11.297V462.32c0 6.25 5.045 11.27 11.25 11.27h94.11v146.543s-21.146 7.057-79.497 7.057c-68.914 0-165.156-25.244-165.156-236.795 0-211.642 100.197-239.49 194.307-239.49 81.466 0 116.515 14.303 138.87 21.24 7.01 2.203 13.404-4.83 13.404-11.105l26.95-113.91c0-2.912-1.042-6.417-4.263-8.785C521.187 31.952 465.866 1 326.17 1 165.133 1 0 69.487 0 398.757 0 727.98 189.05 777 348.38 777c131.884 0 212.022-56.314 212.022-56.314 3.268-1.8 3.6-6.395 3.6-8.48V344.433c-.047-6.205-5.115-11.297-11.272-11.297zm1219.65-304h-135.694c-6.252 0-11.27 5.043-11.27 11.295v262.393h-211.62V40.43c0-6.252-5.068-11.296-11.178-11.296H1266.78c-6.11 0-11.084 5.044-11.084 11.296v710.473c0 6.3 5.02 11.32 11.084 11.32h135.838c6.203 0 11.178-5.068 11.178-11.32V447.067h211.62l-.476 303.883c0 6.3 5.02 11.272 11.084 11.272h135.885c6.25 0 11.13-5.068 11.13-11.272l.473-710.52c.094-6.252-4.974-11.296-11.132-11.296zM714.95 45.236c-48.358 0-87.575 39.572-87.575 88.403 0 48.855 39.217 88.428 87.574 88.428s87.526-39.572 87.526-88.428c0-48.83-39.17-88.403-87.527-88.403zm77.91 227.89c0-6.206-5.02-11.345-11.13-11.345H646.32c-6.348 0-11.746 6.394-11.746 12.67V744.32c0 13.734 8.572 17.902 19.703 17.902h121.96c13.31 0 16.813-6.536 16.813-18.188-.094-25.197-.094-123.808-.094-142.942-.095-18.187-.095-327.966-.095-327.966zm1505.113-10.28h-134.7c-6.16 0-11.085 5.093-11.085 11.345v348.31s-34.244 25.197-82.934 25.197c-48.547 0-61.525-22.025-61.525-69.72V274.145c0-6.252-5.07-11.345-11.132-11.345h-136.643c-6.252 0-11.178 5.093-11.178 11.345v326.807c0 141.284 78.766 175.906 186.99 175.906 88.854 0 160.61-49.115 160.61-49.115s3.362 25.766 5.067 28.844c1.422 3.078 5.447 6.158 9.852 6.158h86.58c6.158 0 11.178-5.07 11.178-11.32l.38-477.28c-.284-6.206-5.305-11.297-11.46-11.297zm368.96-16.008c-76.54 0-128.593 34.147-128.593 34.147V40.43c0-6.252-5.068-11.296-11.13-11.296h-136.265c-6.11 0-11.13 5.044-11.13 11.296l-.38 710.52c0 6.3 5.068 11.273 11.225 11.273h94.87c4.214 0 7.388-2.18 9.804-5.968 2.37-3.837 5.73-32.775 5.73-32.775s55.557 52.763 161.035 52.763c123.806 0 194.757-62.804 194.757-281.906.002-218.82-113.386-247.498-189.925-247.498zm-53.142 400.385c-46.7-1.42-78.34-22.64-78.34-22.64v-225.07s31.308-19.206 69.673-22.593c48.547-4.31 95.438 10.326 95.438 126.13-.238 122.007-21.36 146.114-86.77 144.173zm-1428.665-2.558c-5.97 0-21.22 2.368-36.85 2.368-49.92 0-66.97-23.256-66.97-53.33v-199.85h101.925c6.252 0 11.178-5.045 11.178-11.344V273.03c.094-6.298-4.926-11.343-11.178-11.343h-101.926l-.143-134.535c0-5.092-2.698-7.625-8.57-7.625H933.86c-5.35 0-8.335 2.39-8.335 7.578V266.14s-69.576 16.79-74.266 18.188c-4.642 1.326-8.052 5.684-8.052 10.822v87.408c0 6.252 5.068 11.344 11.178 11.344h71.14v210.222c0 156.11 109.552 171.455 183.438 171.455 33.723 0 74.076-10.99 80.848-13.357 4.074-1.42 6.395-5.637 6.395-10.136l.047-96.1c0-6.3-5.256-11.415-11.13-11.32z"/></symbol><symbol id="mail" viewBox="0 0 896 1026"><path d="M0 193v640h896V193H0zm768 64L448 521 128 257h640zM64 321l252.03 191.625L64 705V321zm64 448l254-206.25L448 613l65.875-50.125L768 769H128zm704-64L579.625 512.938 832 321v384z"/></symbol><symbol id="mail-read" viewBox="0 0 896 1026"><path d="M576 385H256v64h320v-64zM384 257H256v64h128v-64zm384-27.47V129H627.188L448 1 268.812 129H128v100.53L0 321v640h896V321l-128-91.47zM192 193h512v244.812L448 649 192 437.812V193zM64 449l252.03 191.625L64 833V449zm64 448l254-206.25L448 741l65.875-50.125L768 897H128zm704-64L579.625 640.938 832 449v384z"/></symbol><symbol id="mail-reply" viewBox="0 0 768 1026"><path d="M384 161L0 449l384 288V545c111 0 329 61 384 280 0-291-196-451-384-472V161z"/></symbol><symbol id="mark-github" viewBox="0 0 1024 1026"><path d="M512 1C229.252 1 0 230.252 0 513c0 226.25 146.688 418.126 350.155 485.813 25.593 4.686 34.937-11.125 34.937-24.626 0-12.188-.47-52.562-.718-95.314-128.708 23.46-161.707-31.54-172.47-60.373-5.524-14.81-30.406-60.25-52.397-72.263-17.988-9.828-43.26-33.237-.917-33.735 40.434-.476 69.348 37.308 78.47 52.75 45.94 77.75 119.877 55.627 149 42.5 4.654-33 17.902-55.627 32.5-68.373-113.656-12.94-233.22-56.876-233.22-253.064 0-55.94 19.97-101.56 52.66-137.404-5.22-13-22.845-65.095 5.062-135.563 0 0 42.937-13.75 140.81 52.5 40.812-11.406 84.595-17.03 128.125-17.22 43.5.188 87.314 5.874 128.188 17.28 97.69-66.31 140.686-52.5 140.686-52.5 28 70.53 10.376 122.563 5.125 135.498 32.81 35.844 52.626 81.468 52.626 137.404 0 196.686-119.75 240-233.812 252.686 18.44 15.876 34.748 47 34.748 94.748 0 68.437-.686 123.627-.686 140.5 0 13.626 9.312 29.562 35.25 24.563C877.436 930.997 1024 739.125 1024 513 1024 230.252 794.748 1 512 1z"/></symbol><symbol id="markdown" viewBox="0 0 1024 1026"><path d="M950.154 193H73.846C33.126 193 0 226.127 0 266.846v492.308C0 799.874 33.127 833 73.846 833h876.308c40.72 0 73.846-33.125 73.846-73.846V266.846c0-40.72-33.125-73.846-73.846-73.846zM576 704.875L448 705V513l-96 123.077L256 513v192H128V321h128l96 128 96-128 128-.125v384zm191.09 32L608 513h96V321h128v192h96L767.09 736.875z"/></symbol><symbol id="megaphone" viewBox="0 0 1024 1026"><path d="M832 33c-130 0-124 130-704 128C57.344 161 0 275.625 0 417s57.344 256 128 256c22.78 0 43.188.5 64.188.875L256 961l192 32 64-96-45.125-203.125C709.375 730.125 733.75 801 832 801c106 0 192-172 192-384 0-212.03-86-384-192-384zM197 483.938c-39.188-1.47-82.188-2.25-127.562-2.625C66 461.593 64 439.906 64 417c0-88.375 28.688-192 64-192 39.03.125 75-.438 109-1.406-27.344 46.968-45 115.718-45 193.406 0 23.312 2.062 45.438 5 66.938zm64.312 3C258.125 464.688 256 441.375 256 417c0-79.5 18.438-149.5 46.906-196.22 155.156-8.31 251.906-28.468 319.03-50.187C593.627 237.47 576 322.656 576 417c0 40 3.875 78 9.5 114.312-72.156-18.687-172.688-35.718-324.188-44.374zM832 705c-12.125 0-23.688-5.062-34.812-12.125-15.25-67.312-83.438-418.344 117.438-494.188C942.126 251.5 960 329.187 960 417c0 159-57.375 288-128 288z"/></symbol><symbol id="mention" viewBox="0 0 832.0839 1026"><path d="M466.74 100.1C238.7 72.103 31.14 234.266 3.143 462.303c-28 228.038 134.163 435.598 362.2 463.597 71.43 8.755 145.115-.914 213.325-29.947l-.017-.032c24.404-10.356 35.788-38.537 25.43-62.938-10.358-24.403-38.537-35.787-62.94-25.43v-.004c-52.472 22.34-109.15 29.8-164.1 23.067C201.63 809.077 76.89 649.415 98.427 474.002c21.538-175.413 181.2-300.154 356.613-278.616 175.412 21.538 300.154 181.2 278.617 356.612-4.31 35.083-21.542 55.725-61.6 55.725-42.5 0-64-45.89-64-81.222V401c0-26.51-21.49-48-48-48-9.7 0-18.72 2.887-26.27 7.833-25.683-20.26-57.436-33.87-94.348-38.402C334.192 309.51 238.393 384.356 225.47 489.6 212.55 594.85 287.396 690.647 392.642 703.57c57.38 7.045 116.216-14.707 157.87-53.13 24.96 28.124 59.867 47.624 100.122 52.567 87.707 10.77 167.537-51.602 178.307-139.31 28-228.035-134.164-435.594-362.2-463.594zm44.587 424.6c-6.462 52.622-54.36 90.046-106.985 83.584-52.623-6.46-90.046-54.36-83.585-106.984 6.46-52.623 54.36-90.046 106.984-83.585 52.624 6.462 90.048 54.36 83.587 106.984z"/></symbol><symbol id="microscope" viewBox="0 0 768 1026"><path d="M617 897c86.312-18.75 151-100 151-192 0-58.438-26.625-110.125-67.875-145.375C702.5 544.375 704 528.875 704 513c0-104.844-49.875-197.875-128-256l64-64v-64l64-64-64-64-64 64h-64L256 321l-128 64v128l64 64h128l64-128 96-96c55.5 33.406 96 90.438 96 160-106.062 0-192 85.938-192 192H0v64h192c19.125 14.25 42.062 22.125 64 32v96H128L0 1025h768L640 897h-23zM512 705c0-35.375 28.625-64 64-64s64 28.625 64 64c0 35.312-28.625 64-64 64s-64-28.688-64-64z"/></symbol><symbol id="milestone" viewBox="0 0 832 1026"><path d="M704 193H0v256h704l128-128-128-128zM448 385H320V257h128v128zm0-384H320v128h128V1zM320 1025h128V513H320v512z"/></symbol><symbol id="mirror" viewBox="0 0 1024 1026"><path d="M320 321L128 513l192 192V577h384v128l192-192-192-192v128H320V321zM512 1L0 321v704l512-256 512 256V321L512 1zm448 896L576 705v-64H448v64L64 897V385l384-256v256h128V129l384 256v512z"/></symbol><symbol id="mortar-board" viewBox="0 0 1024 1026"><path d="M501 589l-245-76v160s115 96 256 96 256-32 256-96V513l-245 76c-7 2-15 2-23 0h1zm18-409c-4-1-9-1-13 0L17 332c-21 7-21 36 0 43l111 35v113c-19 11-32 32-32 55 0 12 3 23 9 32-5 9-9 20-9 32v165c0 35 128 35 128 0V642c0-12-3-23-9-32 5-9 9-20 9-32 0-24-13-44-32-55v-93l313 98c4 1 9 1 13 0l489-152c21-7 21-36 0-43L519 180zm-6 205c-35 0-64-14-64-32s29-32 64-32 64 14 64 32-29 32-64 32z"/></symbol><symbol id="move-down" viewBox="0 0 640 1026"><path d="M640 321H448V1H192v320H0l320 384 320-384zM0 1025h640V833H0v192z"/></symbol><symbol id="move-left" viewBox="0 0 1024 1026"><path d="M0 833h192V193H0v640zm704-448V193L320 513l384 320V641h320V385H704z"/></symbol><symbol id="move-right" viewBox="0 0 1024 1026"><path d="M832 193v640h192V193H832zM320 385H0v256h320v192l384-320-384-320v192z"/></symbol><symbol id="move-up" viewBox="0 0 640 1026"><path d="M0 705h192v320h256V705h192L320 321 0 705zM0 1v192h640V1H0z"/></symbol><symbol id="mute" viewBox="0 0 896 1026"><path d="M128 385H0v256h128l256 192h64V193h-64L128 385zm736 32l-64-64-96 96-96-96-63 63.5 95 96.5-96 96 64 64 96-96 96 96 64-64-96-96 96-96z"/></symbol><symbol id="no-newline" viewBox="0 0 1024 1026"><path d="M896 321v128H768V321L576 513l192 192V577h192s64-.375 64-64V321H896zm-672-32C100.28 289 0 389.28 0 513c0 123.75 100.28 224 224 224s224-100.25 224-224c0-123.72-100.28-224-224-224zM96 513c0-70.656 57.344-128 128-128 18.75 0 36.406 4.22 52.47 11.53L107.53 565.5C100.22 549.375 96 531.75 96 513zm128 128c-18.75 0-36.406-4.25-52.47-11.5l168.94-168.97C347.78 476.595 352 494.25 352 513c0 70.625-57.344 128-128 128z"/></symbol><symbol id="octoface" viewBox="0 0 1024 1026"><path d="M940.812 278.688c8.25-20.22 35.375-101.75-8.562-211.906 0 0-67.375-21.312-219.875 82.906C648.5 132.125 579.875 129.5 512 129.5c-67.906 0-136.438 2.625-200.5 20.25C159.03 45.47 91.72 66.78 91.72 66.78 47.81 177 74.937 258.47 83.187 278.69 31.5 334.562 0 405.875 0 493.344 0 822.562 213.25 897 510.844 897 808.562 897 1024 822.562 1024 493.344c0-87.47-31.5-158.782-83.188-214.656zM512 834c-211.406 0-382.78-9.875-382.78-214.688 0-48.938 24.06-94.595 65.343-132.312 68.75-62.97 185.28-29.688 317.438-29.688 132.25 0 248.626-33.28 317.44 29.625 41.31 37.78 65.437 83.312 65.437 132.312C894.875 824.124 723.375 834 512 834zM351.156 513.438c-42.47 0-76.906 51.062-76.906 114.188s34.438 114.312 76.906 114.312c42.375 0 76.812-51.188 76.812-114.312s-34.437-114.188-76.812-114.188zm321.72 0C630.5 513.438 596 564.5 596 627.625s34.5 114.312 76.875 114.312 76.812-51.188 76.812-114.312c.063-63.125-34.375-114.187-76.812-114.187z"/></symbol><symbol id="organization" viewBox="0 0 896 1026"><path d="M768 385H128C57.344 385 0 442.344 0 513v64c0 47.25 25.844 88.062 64 110.25V897h256v128h256V897h256V687.25c38.125-22.188 64-62.938 64-110.25v-64c0-70.656-57.375-128-128-128zM256 833H128V577H64v-64c0-35.312 28.688-64 64-64h81.72c-11 18.875-17.72 40.562-17.72 64v128c0 47.25 25.844 88.062 64 110.25V833zm320-128V577h-64v384H384V577h-64v128c-35.312 0-64-28.625-64-64V513c0-35.312 28.688-64 64-64h256c35.375 0 64 28.688 64 64v128c0 35.375-28.625 64-64 64zm256-128h-64v256H640v-81.75c38.125-22.188 64-62.938 64-110.25V513c0-23.438-6.75-45.125-17.75-64H768c35.375 0 64 28.688 64 64v64zM303.688 318.375C338.875 358.875 390.156 385 448 385c57.875 0 109.125-26.125 144.312-66.625C614.125 357.938 655.688 385 704 385c70.625 0 128-57.344 128-128s-57.375-128-128-128c-25.625 0-49.375 7.688-69.375 20.688C614.875 64.562 539.062 1 448 1S281.094 64.562 261.375 149.688C241.345 136.688 217.595 129 192 129c-70.656 0-128 57.344-128 128s57.344 128 128 128c48.312 0 89.844-27.062 111.688-66.625zM704 193c35.375 0 64 28.594 64 64s-28.625 64-64 64c-35.312 0-64-28.594-64-64s28.688-64 64-64zM448 65c70.625 0 128 57.344 128 128s-57.375 128-128 128c-70.656 0-128-57.344-128-128S377.344 65 448 65zM192 321c-35.312 0-64-28.594-64-64s28.688-64 64-64c35.406 0 64 28.594 64 64s-28.594 64-64 64z"/></symbol><symbol id="package" viewBox="0 0 1024 1026"><path d="M480 65L0 193v576l480 128 480-128V193L480 65zM63.875 721.934L63.5 289l384.498 102.533v432.833L63.876 721.934zM63.5 225l160.254-42.734 416.246 111v.134l-160 42.667L63.5 225zm832.625 496.934L512 824.366l.002-432.833L640 357.4v156l128-34.135V323.267L896.5 289l-.375 432.934zM768 259.267v-.125L351.734 148.138 480 113.934 896.5 225 768 259.267z"/></symbol><symbol id="paintcan" viewBox="0 0 768 1026"><path d="M384 1C171.923 1 0 172.923 0 385v64c0 35.346 28.654 64 64 64v320c0 70.692 143.27 128 320 128s320-57.308 320-128V513c35.346 0 64-28.654 64-64v-64C768 172.923 596.077 1 384 1zm192 640v32c0 17.673-14.327 32-32 32s-32-14.327-32-32v-32c0-17.673-14.327-32-32-32s-32 14.327-32 32v160c0 17.673-14.327 32-32 32s-32-14.327-32-32V673c0-17.673-14.327-32-32-32s-32 14.327-32 32v32c0 35.346-28.654 64-64 64s-64-28.654-64-64v-64c-35.346 0-64-28.654-64-64V461.807C186.382 492.892 279.318 513 384 513s197.618-20.108 256-51.193V577c0 35.346-28.654 64-64 64zM384 449c-107.433 0-199.393-26.474-237.372-64 37.98-37.526 129.94-64 237.372-64s199.393 26.474 237.372 64c-37.98 37.526-129.94 64-237.372 64zm0-192c-176.62 0-319.816 57.236-319.996 127.867 0 0-.002 0-.003-.002C64.076 208.195 207.315 65 384 65c176.73 0 320 143.27 320 320 0-70.692-143.27-128-320-128z"/></symbol><symbol id="pencil" viewBox="0 0 896 1026"><path d="M704 65L576 193l192 192 128-128L704 65zM0 769l.688 192.562L192 961l512-512-192-192L0 769zm192 128H64V769h64v64h64v64z"/></symbol><symbol id="person" viewBox="0 0 512 1026"><path d="M448 193C448 87 362.062 1 256 1S64 87 64 193c0 106.062 85.938 192 192 192s192-85.938 192-192zM256 321c-70.656 0-128-57.344-128-128S185.344 65 256 65c70.625 0 128 57.344 128 128s-57.375 128-128 128zm128 64H128C57.344 385 0 442.344 0 513v128c0 70.625 57.344 128 128 128v256h256V769c70.625 0 128-57.375 128-128V513c0-70.656-57.375-128-128-128zm64 256c0 35.375-28.625 64-64 64V577h-64v384H192V577h-64v128c-35.312 0-64-28.625-64-64V513c0-35.312 28.688-64 64-64h256c35.375 0 64 28.688 64 64v128z"/></symbol><symbol id="pin" viewBox="0 0 520 1026"><path d="M196 705l64 320 64-320c-20 2-43 3-64 3s-44-1-64-3zm254-299c-33-17-62-59-62-85v-64c0-22 12-39 23-52 15-13 24-29 24-45 0-53-61-95-175-95S85 107 85 160c0 16 9 32 24 45 11 13 23 30 23 52v64c0 26-29 68-62 85-38 19-70 54-70 88 0 74 101 148 260 148s260-73 260-148c0-33-31-68-70-88z"/></symbol><symbol id="playback-fast-forward" viewBox="0 0 768 1026"><path d="M0 769l384-256L0 257v512zm768-256L384 257v512l384-256z"/></symbol><symbol id="playback-pause" viewBox="0 0 512 1026"><path d="M0 833h192V193H0v640zm320-640v640h192V193H320z"/></symbol><symbol id="playback-play" viewBox="0 0 512 1026"><path d="M0 193l512 320L0 833V193z"/></symbol><symbol id="playback-rewind" viewBox="0 0 768 1026"><path d="M384 513l384 256V257L384 513zM0 513l384 256V257L0 513z"/></symbol><symbol id="plug" viewBox="0 0 1024 1026"><path d="M1003.386 205.664l-.905-.905c-24.743-24.745-64.86-24.745-89.604 0l-45.707 45.706-90.51-90.51 45.706-45.707c24.744-24.745 24.744-64.862 0-89.606l-.905-.905c-24.743-24.745-64.86-24.745-89.604 0L683.883 71.71C621.76 30.554 537.237 37.34 482.503 92.074l-24.89 24.89c-109.012 109.01-121.95 277.692-38.855 400.892l-4.138 4.138c-62.392 62.392-62.484 163.493-.275 226 12.41 12.468 12.642 33.326.12 45.682-12.508 12.343-32.654 12.292-45.1-.153l-89.427-89.427c-62.637-62.638-164.63-63.747-227.3-1.14-62.54 62.478-62.56 163.828-.057 226.33l8.764 8.764c24.744 24.744 64.86 24.744 89.605 0l.904-.905c24.744-24.744 24.744-64.86 0-89.605l-8.292-8.292c-12.33-12.33-13.085-32.418-1.098-45.08 12.437-13.14 33.174-13.354 45.882-.646l89.328 89.328c62.92 62.92 165.504 63.814 228.08.553 61.794-62.468 61.65-163.16-.43-225.45-12.55-12.593-12.777-32.867-.207-45.438l4.15-4.15c123.2 83.094 291.882 70.157 400.893-38.855l24.89-24.89c54.734-54.735 61.52-139.258 20.362-201.382l47.973-47.973c24.744-24.74 24.744-64.858 0-89.6zm-113.59 293.704c-37.49 37.49-98.274 37.49-135.765 0L527.758 273.094c-37.49-37.49-37.49-98.274 0-135.765 29.556-29.557 73.585-35.805 109.27-18.76l-41.84 41.84c-24.744 24.743-24.744 64.86 0 89.603l.905.905c24.744 24.744 64.86 24.744 89.605 0l45.707-45.707 90.51 90.51-45.707 45.708c-24.744 24.744-24.744 64.86 0 89.605l.905.905c24.744 24.744 64.86 24.744 89.604 0l41.84-41.84c17.044 35.684 10.795 79.714-18.76 109.27z"/></symbol><symbol id="plus" viewBox="0 0 640 1026"><path d="M384 449V193H256v256H0v128h256v256h128V577h256V449H384z"/></symbol><symbol id="podium" viewBox="0 0 768 1026"><path d="M320 1c-32 0-64 32-64 64v64h-64L0 321v128h192l64 384-128 64v64h512v-64l-128-64 64-384h192V321L576 129H320V65h32s32-17 32-32-16-32-32-32h-32zm0 832l-53-320h118l-1 320h-64zM96 321l128-128h32v64h64v-64h224l128 128H96z"/></symbol><symbol id="primitive-dot" viewBox="0 0 512 1026"><path d="M0 513c0-141.5 114.5-256 256-256 141.438 0 256 114.5 256 256S397.438 769 256 769C114.5 769 0 654.5 0 513z"/></symbol><symbol id="primitive-square" viewBox="0 0 512 1026"><path d="M512 769H0V257h512v512z"/></symbol><symbol id="pulse" viewBox="0 0 896 1026"><path d="M736 512.938L563.188 346.594 422.406 545 352 103.406 152.438 512.938H0V641h230.406L288 525.812l57.594 345.562L576 545l102.375 96H896V512.938H736z"/></symbol><symbol id="puzzle" viewBox="0 0 1024.0006 1026"><path d="M755.75 576.15c-13.95-9.96-28.52-16.59-43.47-19.92-8.84-1.69-18.06-2.33-27.57-1.81-8.99.5-17.56 1.68-25.69 3.52-6.1 1.69-12.22 3.89-18.35 6.59-18.18 8.02-33.89 18.12-46.79 30.33-12.22 12.9-22.32 28.62-30.34 46.79-2.7 6.12-4.9 12.24-6.59 18.34-1.84 8.14-3.03 16.7-3.52 25.69-.52 9.51.12 18.73 1.81 27.57 3.33 14.95 9.96 29.52 19.92 43.47 3.89 5.44 8.08 10.4 12.56 14.88 20.06 20.03 45.83 30.7 75.42 34.11 8.92 1.02 18.12 1.68 26.53 4.48 5.12 1.7 9.16 4.08 12.08 7.02 6.65 6.6 7.63 16.1 2.5 27.24-3.15 6.84-7.7 13.45-12.96 18.84l-2.79 2.86c-3.93 3.92-6.41 6.4-7.05 7.04-3.13 3.16-6.1 6.15-9.06 9.15l-2.96 2.92c-10.52 10.58-21.09 21.12-31.66 31.65-22.76 22.82-45.57 45.58-68.38 68.36-7.5 7.5-15 15-22.5 22.49-3.46 3.45-7.07 6.38-10.78 8.79-1.8 1.22-3.49 2.24-5.18 3.16-19.6 9.89-41.43 5.92-59.24-11.88-5.4-5.4-10.62-10.62-15.85-15.84-30.25-30.25-60.48-60.52-90.77-90.73-8.59-8.57-17.13-17.08-25.68-25.59-6.12-6.09-12.67-11.85-19.56-17.06-5.72-4.33-11.59-7.56-17.46-9.73-21.16-7.32-41.41-2.01-54.67 13.26-3.81 4.8-7 10.47-9.39 16.94-3.43 9.26-4.6 19.47-5.9 29.36-4.9 37.53-25.8 68.43-55.98 82.65-7.48 3.65-15.49 6.29-23.9 7.78-7.95 1.41-15.95 1.71-23.85 1.04-26.61-1.35-49.48-13.09-68.51-32.57-1.68-1.67-2.1-2.09-2.51-2.51-19.48-19.02-31.22-41.9-32.57-68.5-.68-7.9-.37-15.9 1.04-23.85 1.49-8.41 4.13-16.43 7.78-23.9 14.22-30.18 45.13-51.07 82.65-55.97 9.89-1.29 20.1-2.47 29.36-5.9 6.94-2.56 12.96-6.05 17.97-10.23 14.54-13.15 19.59-32.63 12.84-52.34-2.78-7.35-6-13.22-10.33-18.94-5.21-6.88-10.97-13.43-17.06-19.55-8.51-8.55-17.03-17.09-25.55-25.63-26.92-26.98-53.84-53.88-80.75-80.78l-10.03-10.03c-5.22-5.22-10.45-10.45-15.26-15.27-18.39-18.4-22.35-40.22-12.46-59.82.92-1.69 1.94-3.37 3.08-5.05 2.49-3.84 5.42-7.45 8.87-10.91 7.49-7.5 14.99-15 22.49-22.5 22.77-22.81 45.54-45.62 68.36-68.38 10.53-10.57 21.06-21.14 31.65-31.66l2.92-2.96c2.99-2.97 5.99-5.93 8.98-8.9.8-.81 3.28-3.29 7.2-7.22l2.86-2.79c5.39-5.26 12-9.8 18.84-12.96 11.14-5.13 20.63-4.15 27.24 2.5 2.94 2.92 5.32 6.96 7.02 12.08 2.79 8.41 3.45 17.61 4.48 26.53 3.41 29.59 14.08 55.35 34.11 75.41 4.49 4.48 9.44 8.67 14.88 12.56 13.95 9.96 28.52 16.59 43.47 19.92 8.84 1.69 18.06 2.33 27.57 1.81 8.99-.5 17.56-1.68 25.69-3.52 6.1-1.69 12.22-3.89 18.35-6.59 18.18-8.02 33.89-18.12 46.79-30.33 12.22-12.9 22.32-28.62 30.34-46.79 2.7-6.12 4.9-12.24 6.59-18.34 1.84-8.14 3.03-16.7 3.52-25.69.52-9.51-.12-18.73-1.81-27.57-3.33-14.95-9.96-29.52-19.92-43.47-3.89-5.44-8.08-10.4-12.56-14.88-20.06-20.03-45.83-30.7-75.42-34.11-8.92-1.02-18.12-1.68-26.53-4.48-5.12-1.7-9.16-4.08-12.08-7.02-6.65-6.6-7.63-16.1-2.5-27.24 3.15-6.84 7.7-13.45 12.96-18.84l2.79-2.86c3.93-3.92 6.41-6.4 7.05-7.04 3.13-3.16 6.1-6.15 9.06-9.15l2.96-2.92c10.52-10.58 21.09-21.12 31.66-31.65 22.76-22.82 45.57-45.58 68.38-68.35 7.5-7.5 15-15 22.5-22.49 3.46-3.45 7.07-6.38 10.78-8.79 1.8-1.22 3.49-2.24 5.18-3.16 19.6-9.89 41.43-5.92 59.24 11.88 5.4 5.4 10.62 10.62 15.85 15.84 30.25 30.25 60.48 60.52 90.77 90.73 8.59 8.57 17.13 17.08 25.68 25.59 6.12 6.09 12.67 11.85 19.56 17.06 5.72 4.33 11.59 7.56 17.46 9.73 21.16 7.32 41.41 2.01 54.67-13.26 3.81-4.8 7-10.47 9.39-16.94 3.43-9.26 4.6-19.47 5.9-29.36 4.9-37.53 25.8-68.43 55.98-82.65 7.48-3.65 15.49-6.28 23.9-7.78 7.95-1.41 15.95-1.71 23.85-1.04 26.61 1.35 49.48 13.09 68.51 32.57 1.68 1.67 2.1 2.09 2.51 2.51 19.48 19.02 31.22 41.9 32.57 68.5.68 7.9.37 15.9-1.04 23.85-1.49 8.41-4.13 16.43-7.78 23.9-14.22 30.18-45.13 51.07-82.65 55.97-9.89 1.29-20.1 2.47-29.36 5.9-6.94 2.56-12.96 6.05-17.97 10.23-14.54 13.15-19.59 32.63-12.84 52.34 2.78 7.35 6 13.22 10.33 18.94 5.21 6.88 10.97 13.43 17.06 19.55 8.51 8.55 17.03 17.09 25.55 25.63 30.26 30.33 60.54 60.56 90.78 90.81 5.22 5.22 10.45 10.45 15.26 15.27 18.39 18.4 22.35 40.22 12.46 59.82-.92 1.69-1.94 3.37-3.08 5.05-2.49 3.84-5.42 7.45-8.87 10.91-7.49 7.5-14.99 15-22.49 22.5-22.77 22.81-45.54 45.62-68.36 68.38-10.53 10.57-21.06 21.14-31.65 31.66l-2.92 2.96c-2.99 2.97-5.99 5.93-8.98 8.9-.8.81-3.28 3.29-7.2 7.22l-2.86 2.79c-5.39 5.26-12 9.8-18.84 12.96-11.14 5.13-20.63 4.15-27.24-2.5-2.94-2.92-5.32-6.96-7.02-12.08-2.79-8.41-3.45-17.61-4.48-26.53-3.41-29.59-14.08-55.35-34.11-75.41-4.48-4.49-9.44-8.69-14.88-12.57z"/></symbol><symbol id="question" viewBox="0 0 1024 1026"><path d="M448 769h128V641H448v128zm64-512c-96 0-192 96-192 192h128c0-32 32-64 64-64s64 32 64 64c0 64-128 64-128 128h128c64-22 128-64 128-160s-96-160-192-160zm0-256C229 1 0 230 0 513s229 512 512 512 512-229 512-512S795 1 512 1zm0 896c-212 0-384-172-384-384s172-384 384-384 384 172 384 384-172 384-384 384z"/></symbol><symbol id="quote" viewBox="0 0 640 1026"><path d="M0 513v256h256V513H128s0-128 128-128V257S0 257 0 513zm640-128V257s-256 0-256 256v256h256V513H512s0-128 128-128z"/></symbol><symbol id="radio-tower" viewBox="0 0 1024 1026"><path d="M306.838 391.74c15.868-16.307 15.868-42.732 0-59.038-20.52-21.116-30.643-48.417-30.705-76.124.062-27.77 10.183-55.04 30.705-76.186 15.868-16.337 15.868-42.764 0-59.07-7.934-8.183-18.272-12.274-28.706-12.274-10.37 0-20.804 4.03-28.738 12.213-36.266 37.298-54.633 86.434-54.57 135.318-.062 48.792 18.305 97.927 54.57 135.16 15.868 16.307 41.576 16.307 57.444 0zM149.093 34.14c-8.12-8.31-18.68-12.463-29.3-12.463-10.558 0-21.18 4.153-29.237 12.462C30.8 95.492.75 176.144.813 256.578c-.062 80.34 29.987 161.15 89.68 222.437 16.182 16.618 42.357 16.618 58.538 0 16.12-16.587 16.12-43.513 0-60.067-43.7-44.98-65.44-103.456-65.44-162.368s21.74-117.45 65.44-162.368c16.12-16.65 16.12-43.577.063-60.07zM513.03 360.847c57.352 0 103.957-46.574 103.957-103.956 0-57.38-46.605-103.954-103.956-103.954-57.38 0-103.955 46.573-103.955 103.955 0 57.383 46.575 103.957 103.956 103.957zm420.51-326.08c-16.182-16.618-42.356-16.618-58.476 0-16.18 16.587-16.18 43.513 0 60.068 43.668 44.918 65.41 103.456 65.41 162.368 0 58.85-21.806 117.387-65.474 162.306-16.117 16.617-16.117 43.574.062 60.067 8.06 8.31 18.616 12.463 29.237 12.463 10.557 0 21.177-4.154 29.235-12.463 59.726-61.287 89.774-142.096 89.65-222.437.128-80.278-29.92-161.087-89.646-222.373zM513.28 443.873c-26.488.062-53.04-6.466-77.09-19.43L235.057 960.59h95.21l54.818-63.973h255.89l53.978 63.973h95.272l-201.1-536.02c-23.74 12.775-49.73 19.303-75.844 19.303zm-.624 30.644L577.004 704.7H449.06l63.596-230.183zm-127.57 358.128l63.974-63.973h127.944l63.974 63.973H385.086zm332.108-710.603c-15.868 16.306-15.868 42.73 0 59.037 20.49 21.115 30.61 48.51 30.674 76.123-.062 27.77-10.183 55.102-30.674 76.187-15.868 16.336-15.868 42.763 0 59.068 7.87 8.184 18.242 12.213 28.737 12.213 10.31 0 20.742-4.028 28.676-12.212 36.298-37.234 54.665-86.433 54.54-135.255.125-48.792-18.18-97.927-54.54-135.16-15.805-16.307-41.544-16.307-57.412 0z"/></symbol><symbol id="repo" viewBox="0 0 768 1026"><path d="M320 257h-64v64h64v-64zm0-128h-64v64h64v-64zM704 1H64S0 33 0 65v768s32 64 64 64h128v128l96-96 96 96V897h320s64-32 64-64V65S736 1 704 1zm0 800c0 16-15 32-32 32H384v-64H192v64H96s-32-17-32-32v-96h640v96zm0-160H192V65h513l-1 576zM320 513h-64v64h64v-64zm0-128h-64v64h64v-64z"/></symbol><symbol id="repo-clone" viewBox="0 0 1024 1026"><path d="M320 385h-64v64h64v-64zM192 65h256V1H64S0 33 0 65v768s32 64 64 64h128v128l96-96 96 96V897h320s64-32 64-64V641H192V65zm512 640v96s-14 32-32 32H384v-64H192v64H96s-32-16-32-32v-96h640zM320 257h-64v64h64v-64zm-64 320h64v-64h-64v64zM960 1H640s-64 32-64 64v384s32 64 64 64h64v64l32-32 32 32v-64h192s64-32 64-64V65S992 1 960 1zM704 449h-32s-32-15-32-32v-32h64v64zm256-32c0 16-15 32-32 32H768v-64h192v32zm0-96H704V65h224s32 0 32 32v224zM320 129h-64v64h64v-64z"/></symbol><symbol id="repo-force-push" viewBox="0 0 768 1026"><path d="M768 65c0-32-32-64-64-64H64S0 33 0 65v768s0-32 0 0 32 64 64 64h128v128l128-128V769H192v64H96s-32-15-32-32v-96h256v-64H192V65h512v576H576v64h128v96s-15 32-32 32h-96v64h128s64-32 64-64V65zM496 385h144L448 129 256 385h144L256 577h128v448h128V577h128L496 385z"/></symbol><symbol id="repo-forked" viewBox="0 0 768 1026"><path d="M768 129C768 58 711 1 640 1S512 58 512 129c0 47 26 89 64 111v106L384 558 192 346V240c38-22 64-63 64-111C256 58 199 1 128 1S0 58 0 129c0 47 26 89 64 111v156l256 282v109c-38 22-64 63-64 111 0 71 57 128 128 128s128-57 128-128c0-47-26-89-64-111V678l256-282V240c38-22 64-63 64-111zM128 66c34 0 62 28 62 62s-28 62-62 62-62-28-62-62 28-62 62-62zm256 891c-34 0-62-28-62-62s28-62 62-62 62 28 62 62-28 62-62 62zM640 66c34 0 62 28 62 62s-28 62-62 62-62-28-62-62 28-62 62-62z"/></symbol><symbol id="repo-pull" viewBox="0 0 1024 1026"><path d="M1024 321L832 129v128H448v128h384v128l192-192zM704 641H192V65h512v128h64V65S736 1 704 1H64S0 33 0 65v768s32 64 64 64h128v128l96-96 96 96V897h320s64-32 64-64V449h-64v192zm0 160c0 15-15 32-32 32H384v-64H192v64H96s-32-16-32-32v-96h640v96zM320 257h-64v64h64v-64zm0-128h-64v64h64v-64zm0 256h-64v64h64v-64zm-64 192h64v-64h-64v64z"/></symbol><symbol id="repo-push" viewBox="0 0 768 1026"><path d="M448 321L256 577h128v448h128V577h128L448 321zm-192 0h64v-64h-64v64zm64-192h-64v64h64v-64zM704 1H64S0 33 0 65v768s32 64 64 64h128v128l128-128V769H192v64H96s-32-14-32-32v-96h256v-64H192V65h513l-1 576H576v64h128v96s-15 32-32 32h-96v64h128s64-32 64-64V65S736 1 704 1z"/></symbol><symbol id="rocket" viewBox="0 0 1024 1026"><path d="M716.737 125.056c-71.926 41.686-148.04 96.13-218.436 166.555-45 45.032-81.212 88.78-110.39 129.78L209.54 454.35.048 663.997l186.817 5.815L318.427 538.25c-46.44 96.224-50.536 160.02-50.536 160.02l58.855 58.79s65.827-6.254 162.737-53.162l-134.375 134.22 5.88 186.882 209.585-209.52 33.086-179.253c41.403-29.02 85.185-65.046 129.716-109.545C803.8 456.227 858.21 380.142 899.93 308.216c-45.97-9.35-88.126-28.488-121.398-61.668-33.275-33.367-52.538-75.523-61.795-121.492zm69.424-37.213c5.005 45 19.953 81.274 44.78 105.98 24.77 24.985 60.98 39.902 106.14 44.844C1003.062 105.323 1023.952 1 1023.952 1S919.63 21.858 786.16 87.843z"/></symbol><symbol id="rss" viewBox="0 0 768 1026"><path d="M128 641C57.344 641 0 698.375 0 769s57.344 128 128 128 128-57.375 128-128-57.344-128-128-128zm0-256s-64 2-64 64 64 64 64 64c141.375 0 256 114.625 256 256 0 0 0 64 64 64s64-64 64-64c0-212-171.97-384-384-384zm0-256s-64 0-64 64 64 64 64 64c282.75 0 512 229.25 512 512 0 0 0 64 64 64s64-64 64-64c0-353.406-286.5-640-640-640z"/></symbol><symbol id="ruby" viewBox="0 0 1024 1026"><path d="M768 129H256L0 385l512 512 512-512-256-256zM128 385l192-192h384l192 192-384 384-384-384zm576-128H512v448l320-320-128-128z"/></symbol><symbol id="screen-full" viewBox="0 0 895.876 1026"><path d="M128 769h639.875V257H128v512zm127.938-384h384v256h-384V385zM64 193.062h191.938v-64H0V385h64V193.062zM64 641H0v255.938h255.938V833H64V641zm575.938-511.938v64h191.938V385h64V129.062H639.938zM831.875 833H639.938v63.938h255.938V641h-64v192z"/></symbol><symbol id="screen-normal" viewBox="0 0 896 1026"><path d="M127.938 192.938H0v64h191.938V65h-64v127.938zM0 833.062h127.938V961h64V769.062H0v64zm768.062-640.124V65h-64v191.938H896v-64H768.062zm-64 768.062h64V833.062H896v-64H704.062V961zm-512-256H704V321H192.062v384zM320 449h256v128H320V449z"/></symbol><symbol id="search" viewBox="0 0 973.125 1026"><path d="M960 833L710.875 583.875C746.438 525.812 768 458.155 768 385 768 172.97 596 1 384 1 171.97 1 0 172.97 0 385c0 212 171.97 384 384 384 73.156 0 140.812-21.562 198.875-57L832 961c17.5 17.5 46.5 17.375 64 0l64-64c17.5-17.5 17.5-46.5 0-64zM384 641c-141.375 0-256-114.625-256-256s114.625-256 256-256 256 114.625 256 256-114.625 256-256 256z"/></symbol><symbol id="server" viewBox="0 0 768 1026"><path d="M704 385H64c-35 0-64 32-64 64v128c0 32 32 64 64 64h640c32 0 64-32 64-64V449c0-32-32-64-64-64zM128 577H64V449h64v128zm128 0h-64V449h64v128zm128 0h-64V449h64v128zm128 0h-64V449h64v128zm192 128H64c-35 0-64 32-64 64v128c0 32 32 64 64 64h640c32 0 64-32 64-64V769c0-32-32-64-64-64zM128 897H64V769h64v128zm128 0h-64V769h64v128zm128 0h-64V769h64v128zm128 0h-64V769h64v128zM704 65H64C29 65 0 97 0 129v128c0 32 32 64 64 64h640c32 0 64-32 64-64V129c0-32-32-64-64-64zM128 257H64V129h64v128zm128 0h-64V129h64v128zm128 0h-64V129h64v128zm128 0h-64V129h64v128zm192-64h-64v-64h64v64z"/></symbol><symbol id="settings" viewBox="0 0 896 1026"><path d="M64 897h128V705H64v192zm128-768H64v320h128V129zm320 0H384v128h128V129zM0 641h256V513H0v128zm384 256h128V513H384v384zm-64-448h256V321H320v128zm512-320H704v384h128V129zM640 577v128h256V577H640zm64 320h128V769H704v128z"/></symbol><symbol id="sign-in" viewBox="0 0 896 1026"><path d="M640 577V449h256V321H640V193L448 337V193L192 65h512v192h64V1H64v832l384 192V833h320V513h-64v256H448V433z"/></symbol><symbol id="sign-out" viewBox="0 0 1024 1026"><path d="M640 769H384V193L128 65h512v192h64V1H0v832l384 192V833h320V513h-64v256zm384-384L768 193v128H512v128h256v128l256-192z"/></symbol><symbol id="split" viewBox="0 0 1024 1026"><path d="M448 257L192 1 0 193l311 300c15-81 43-136 133-230l5-6zM576 1l133 133-197 197c-99 99-128 162-128 309v384h256V640c0-52 19-94 53-128l197-197 133 133V0H575z"/></symbol><symbol id="squirrel" viewBox="0 0 1024 1026"><path d="M768 65c-141.385 0-256 83.75-256 186.875C512 375.75 544 446 512 641c0-288-177-405.783-256-405.783 3.266-32.17-30.955-42.217-30.955-42.217s-14 7.124-19.354 21.583c-17.23-20.053-36.153-17.54-36.153-17.54l-8.49 37.08S44 275 42.41 440.417C56 462 141.31 479.102 201.888 468.118c57.157 2.956 42.99 50.648 30.193 63.446C178.083 585.562 128 513 64 513s-64 64 0 64 64 64 192 64c-198 77 0 256 0 256h-64c-64 0-64 64-64 64h384c192 0 320-64 320-222.182 0-54.34-27.7-114.63-64-162.228-70.943-93.023 14.453-171.156 64-127.59s192 64 192-128c0-141.385-114.615-256-256-256zM160 385c-17.674 0-32-14.327-32-32 0-17.674 14.326-32 32-32 17.673 0 32 14.326 32 32 0 17.673-14.327 32-32 32z"/></symbol><symbol id="star" viewBox="0 0 896 1026"><path d="M896 385l-313.5-40.78L448 65 313.47 344.22 0 385l230.47 208.875L171 896.938l277-148.812 277.062 148.812L665.5 593.875 896 385z"/></symbol><symbol id="steps" viewBox="0 0 640 1026"><path d="M136 65C60.89 65 0 165.29 0 289c0 68.83 17.02 141.84 34 254.54C47.3 631.83 79.67 705 136 705s94.08-48.79 94.08-137.97c0-30.37-24.97-78.75-26.08-120.03-2.02-74.46 49.93-104.17 49.93-173 0-123.71-42.83-209-117.93-209zm366.97 256c-75.1 0-117.93 85.29-117.93 209 0 68.83 51.95 98.54 49.93 173-1.11 41.28-26.08 89.66-26.08 120.03 0 89.18 37.75 137.97 94.08 137.97s88.7-73.17 102-161.46c16.98-112.7 34-185.71 34-254.54 0-123.71-60.89-224-136-224z"/></symbol><symbol id="stop" viewBox="0 0 1024 1026"><path d="M704 1H320L0 321v384l320 320h384l320-320V321L704 1zm192 640L640 897H384L128 641V385l256-256h256l256 256v256zm-448-64h128V257H448v320zm0 192h128V641H448v128z"/></symbol><symbol id="sync" viewBox="0 0 768.1158 1026"><path d="M655.494 474.47c11.875 81.718-13.062 167.78-76.812 230.593-94.188 92.938-239.5 104.375-346.375 34.562l74.875-73-275.19-38.375L70.4 897l84.03-80.5c150.908 111.25 364.94 100.75 502.064-34.562 79.5-78.438 115.75-182.562 111.25-285.312l-112.25-22.157zm-466-153.408c94.155-92.938 239.437-104.438 346.312-34.562l-75 72.97 275.188 38.405L697.62 129l-83.94 80.688C462.745 98.344 248.776 108.968 111.62 244.25 32.118 322.656-4.1 426.78.368 529.5l112.25 22.125c-11.875-81.75 13.125-167.72 76.875-230.563z"/></symbol><symbol id="tag" viewBox="0 0 896 1026"><path d="M384 65H128L0 193v256l512 512 384-384L384 65zM64 417V225l96-96h192l448 448-288 288L64 417zm384-96L256 513l256 256 192-192-256-256zm-96 192l96-96 160 160-96 96-160-160zm-32-224c0-53-43-96-96-96s-96 43-96 96 43 96 96 96 96-43 96-96zm-96 32c-17.656 0-32-14.344-32-32s14.344-32 32-32 32 14.344 32 32-14.344 32-32 32z"/></symbol><symbol id="telescope" viewBox="0 0 930.0295 1026"><path d="M76.154 424c32-8 229-59 229-59-1 6-2 19-2 19 0 71 49 128 128 128s128-59 128-128c0-11-8-22-19-32l49 3s7-2 31-8c-51 14-108-31-126-99s8-135 60-149c-24 6-31 8-31 8l-168 110c-34 9-55 46-46 80 2 9 7 17 12 23-7 12-12 26-15 40-27-1-51-19-59-46-9-34 11-69 45-78l-245 65c-34 9-54 43-45 77s41 54 73 46zm419 153h-128v64l-320 320h128l192-128v128h128V833l192 128h128l-320-320v-64zm429-448c-18-68-70-110-122-96-69 18-98 28-186 51-51 14-79 80-61 148s74 115 125 102c87-23 117-33 186-51 51-14 76-85 58-154zm-70 90c-17 5-42-17-51-51s-4-66 13-70 42 17 51 51 4 66-13 70z"/></symbol><symbol id="terminal" viewBox="0 0 897 1026"><path d="M832 128H64c-35.35 0-64 28.65-64 64v640c0 35.35 28.65 64 64 64h768c35.35 0 64-28.65 64-64V192c0-35.35-28.65-64-64-64zM128 576l128-128-128-128 64-64 192 192-192 192-64-64zm512 64H384v-64h256v64z"/></symbol><symbol id="three-bars" viewBox="0 0 768 1026"><path d="M0 193v128h768V193H0zm0 384h768V449H0v128zm0 256h768V705H0v128z"/></symbol><symbol id="thumbsdown" viewBox="0 0 1024 1026"><path d="M833 575c0 38-31 68-68 68H654c-5 0-109-4-128 8-19 11-21 101-8 139 12 34 22 100-16 150-23 30-57 25-78 17-23-8-14-50-10-86 4-35-14-93-47-123s-29-58-45-86-41-52-62-86-68-41-132-39V184s93 0 114-2c31-3 72-13 112-26 41-13 128-26 140-26 89-3 174 18 208 24 34 7 60 41 54 77-2 11-6 21-12 29 6 2 11 5 16 9 22 12 36 34 36 60 0 21-9 39-24 52 4 1 8 3 12 5 27 9 47 35 47 65 0 27-16 51-40 62 2 1 4 2 6 4 15 9 26 23 31 40 2 6 3 11 3 18v2z"/></symbol><symbol id="thumbsup" viewBox="0 0 1024 1026"><path d="M833 452c0-38-31-68-68-68H654c-5 0-109 4-128-8-19-11-21-101-8-139 12-34 22-100-16-150-23-30-57-25-78-17-23 8-14 50-10 86 4 35-14 93-47 123s-29 58-45 86-41 52-62 86-68 41-132 39v353s93 0 114 2c31 3 72 13 112 26 41 13 128 26 140 26 89 3 174-18 208-24s60-41 54-77c-2-11-6-21-12-29 6-2 11-5 16-9 22-12 36-34 36-60 0-21-9-39-24-52 4-1 8-3 12-5 27-9 47-35 47-65 0-27-16-51-40-62 2-1 4-2 6-4 15-9 26-23 31-40 2-6 3-11 3-18v-2z"/></symbol><symbol id="tools" viewBox="0 0 1024 1026"><path d="M286.547 466.016c16.843 16.812 81.716 85.28 81.716 85.28L404.23 514.2l-56.372-58.248L456.072 341.02s-48.842-47.623-27.468-28.655c20.438-75.903 1.812-160.59-55.842-220.243-57.154-59.186-138.37-78.592-211.337-58.218L285.078 161.62l-32.53 125.308-121.06 33.438L7.898 192.618c-19.718 75.436-.97 159.34 56.31 218.556 60.094 62.123 146.622 80.373 222.34 54.842zM698.815 590.23l-149.12 147.31 245.93 254.804c20.063 20.812 46.5 31.188 72.873 31.188 26.25 0 52.624-10.375 72.81-31.188 40.25-41.624 40.25-108.997 0-150.62L698.816 590.23zM1023.68 162.84L867.06.998 405.387 478.3l56.373 58.247L185.425 822.16l-63.154 33.75-89.216 145.56 22.72 23.56 140.838-92.246 32.655-65.312 276.336-285.554 56.404 58.248 461.674-477.328z"/></symbol><symbol id="trashcan" viewBox="0 0 768 1026"><path d="M704 129H448V97c0-17.673-14.327-32-32-32s-32 14.327-32 32v32H128c-35.346 0-64 28.654-64 64v64c0 35.346 28.654 64 64 64v576c0 35.346 28.654 64 64 64h448c35.346 0 64-28.654 64-64V321c35.346 0 64-28.654 64-64v-64c0-35.346-28.654-64-64-64zm-64 736c0 17.673-14.327 32-32 32H224c-17.673 0-32-14.327-32-32V321h64v480c0 17.673 14.327 32 32 32s32-14.327 32-32l.387-480H384v480c0 17.673 14.327 32 32 32s32-14.327 32-32l.387-480h64L512 801c0 17.673 14.327 32 32 32s32-14.327 32-32V321h64v544zm64-624c0 8.837-7.163 16-16 16H144c-8.837 0-16-7.163-16-16v-32c0-8.837 7.163-16 16-16h544c8.837 0 16 7.163 16 16v32z"/></symbol><symbol id="triangle-down" viewBox="0 0 767.5 1026"><path d="M0 385l383.75 383.75L767.5 385H0z"/></symbol><symbol id="triangle-left" viewBox="0 0 383.75 1026"><path d="M0 512.875l383.75 383.75v-767.5L0 512.875z"/></symbol><symbol id="triangle-right" viewBox="0 0 383.875 1026"><path d="M.062 129.25L383.812 513 .062 896.75v-767.5z"/></symbol><symbol id="triangle-up" viewBox="0 0 767.5 1026"><path d="M383.75 257L0 640.75h767.5L383.75 257z"/></symbol><symbol id="unfold" viewBox="0 0 896 1026"><path d="M384 385h128V193h128L448 1 256 193h128v192zm192-128v64h224L672 449H224L96 321h224v-64H0v64l160 160L0 641v64h320v-64H96l128-128h448l128 128H576v64h320v-64L736 481l160-160v-64H576zm-64 320H384v192H256l192 192 192-192H512V577z"/></symbol><symbol id="unmute" viewBox="0 0 896 1026"><path d="M128 385H0v256h128l256 192h64V193h-64L128 385zm410.51 37.49c-12.496-12.497-32.758-12.497-45.255 0-12.496 12.496-12.496 32.758 0 45.255 24.994 24.993 24.994 65.516 0 90.51-12.496 12.496-12.496 32.758 0 45.255 12.497 12.496 32.76 12.496 45.255 0 49.987-49.99 49.987-131.033 0-181.02zm90.51-90.51c-12.495-12.496-32.758-12.496-45.255 0-12.495 12.497-12.495 32.76 0 45.256 74.98 74.98 74.98 196.548 0 271.528-12.495 12.497-12.495 32.76 0 45.256 12.497 12.496 32.76 12.496 45.255 0 99.974-99.974 99.974-262.065 0-362.04zm90.51-90.51c-12.498-12.496-32.76-12.496-45.256 0-12.496 12.497-12.496 32.76 0 45.256 124.968 124.968 124.968 327.58 0 452.548-12.496 12.497-12.496 32.76 0 45.255 12.495 12.496 32.758 12.496 45.255 0 149.96-149.963 149.96-393.098 0-543.06z"/></symbol><symbol id="versions" viewBox="0 0 896 1026"><path d="M0 705h128v-64H64V385h64v-64H0v384zm384-512v640h512V193H384zm384 512H512V321h256v384zm-576 64h128v-64h-64V321h64v-64H192v512z"/></symbol><symbol id="x" viewBox="0 0 640 1026"><path d="M640 321L512 193 320 385 128 193 0 321l192 192L0 705l128 128 192-192 192 192 128-128-192-192 192-192z"/></symbol><symbol id="zap" viewBox="0 0 640 1026"><path d="M640 449H384L576 1 0 577h256L64 1025l576-576z"/></symbol></defs><g><use xlink:href="#alert" width="24" height="24" x="3" y="3"/><use xlink:href="#alignment-align" width="22" height="24" x="34" y="3"/><use xlink:href="#alignment-aligned-to" width="22" height="24" x="64" y="3"/><use xlink:href="#alignment-unalign" width="21" height="24" x="95" y="3"/><use xlink:href="#arrow-down" width="15" height="24" x="128" y="3"/><use xlink:href="#arrow-left" width="15" height="24" x="158" y="3"/><use xlink:href="#arrow-right" width="15" height="24" x="188" y="3"/><use xlink:href="#arrow-small-down" width="9" height="24" x="221" y="3"/><use xlink:href="#arrow-small-left" width="9" height="24" x="251" y="3"/><use xlink:href="#arrow-small-right" width="9" height="24" x="281" y="3"/><use xlink:href="#arrow-small-up" width="9" height="24" x="311" y="3"/><use xlink:href="#arrow-up" width="15" height="24" x="338" y="3"/><use xlink:href="#beer" width="24" height="24" x="363" y="3"/><use xlink:href="#book" width="24" height="24" x="393" y="3"/><use xlink:href="#bookmark" width="9" height="24" x="11" y="33"/><use xlink:href="#briefcase" width="24" height="24" x="33" y="33"/><use xlink:href="#broadcast" width="21" height="24" x="65" y="33"/><use xlink:href="#browser" width="21" height="24" x="95" y="33"/><use xlink:href="#bug" width="17" height="24" x="126" y="33"/><use xlink:href="#calendar" width="24" height="24" x="153" y="33"/><use xlink:href="#check" width="18" height="24" x="186" y="33"/><use xlink:href="#checklist" width="18" height="24" x="216" y="33"/><use xlink:href="#chevron-down" width="15" height="24" x="248" y="33"/><use xlink:href="#chevron-left" width="10" height="24" x="280" y="33"/><use xlink:href="#chevron-right" width="10" height="24" x="310" y="33"/><use xlink:href="#chevron-up" width="15" height="24" x="338" y="33"/><use xlink:href="#circle-slash" width="15" height="24" x="368" y="33"/><use xlink:href="#circuit-board" width="24" height="24" x="393" y="33"/><use xlink:href="#clippy" width="21" height="24" x="5" y="63"/><use xlink:href="#clock" width="21" height="24" x="35" y="63"/><use xlink:href="#cloud-download" width="24" height="24" x="63" y="63"/><use xlink:href="#cloud-upload" width="24" height="24" x="93" y="63"/><use xlink:href="#code" width="21" height="24" x="125" y="63"/><use xlink:href="#color-mode" width="18" height="24" x="156" y="63"/><use xlink:href="#comment" width="21" height="24" x="185" y="63"/><use xlink:href="#comment-discussion" width="21" height="24" x="215" y="63"/><use xlink:href="#credit-card" width="24" height="24" x="243" y="63"/><use xlink:href="#dash" width="12" height="24" x="279" y="63"/><use xlink:href="#dashboard" width="19" height="24" x="305" y="63"/><use xlink:href="#database" width="18" height="24" x="336" y="63"/><use xlink:href="#device-camera" width="24" height="24" x="363" y="63"/><use xlink:href="#device-camera-video" width="24" height="24" x="393" y="63"/><use xlink:href="#device-desktop" width="24" height="24" x="3" y="93"/><use xlink:href="#device-mobile" width="15" height="24" x="38" y="93"/><use xlink:href="#diff" width="21" height="24" x="65" y="93"/><use xlink:href="#diff-added" width="21" height="24" x="95" y="93"/><use xlink:href="#diff-ignored" width="21" height="24" x="125" y="93"/><use xlink:href="#diff-modified" width="21" height="24" x="155" y="93"/><use xlink:href="#diff-removed" width="21" height="24" x="185" y="93"/><use xlink:href="#diff-renamed" width="21" height="24" x="215" y="93"/><use xlink:href="#ellipsis" width="18" height="24" x="246" y="93"/><use xlink:href="#eye" width="24" height="24" x="273" y="93"/><use xlink:href="#file-binary" width="18" height="24" x="306" y="93"/><use xlink:href="#file-code" width="18" height="24" x="336" y="93"/><use xlink:href="#file-directory" width="21" height="24" x="365" y="93"/><use xlink:href="#file-media" width="18" height="24" x="396" y="93"/><use xlink:href="#file-pdf" width="18" height="24" x="6" y="123"/><use xlink:href="#file-submodule" width="21" height="24" x="35" y="123"/><use xlink:href="#file-symlink-directory" width="21" height="24" x="65" y="123"/><use xlink:href="#file-symlink-file" width="18" height="24" x="96" y="123"/><use xlink:href="#file-text" width="18" height="24" x="126" y="123"/><use xlink:href="#file-zip" width="18" height="24" x="156" y="123"/><use xlink:href="#flame" width="24" height="24" x="183" y="123"/><use xlink:href="#fold" width="21" height="24" x="215" y="123"/><use xlink:href="#gear" width="21" height="24" x="245" y="123"/><use xlink:href="#gift" width="21" height="24" x="275" y="123"/><use xlink:href="#gist" width="18" height="24" x="306" y="123"/><use xlink:href="#gist-secret" width="21" height="24" x="335" y="123"/><use xlink:href="#git-branch" width="15" height="24" x="368" y="123"/><use xlink:href="#git-commit" width="21" height="24" x="395" y="123"/><use xlink:href="#git-compare" width="21" height="24" x="5" y="153"/><use xlink:href="#git-merge" width="18" height="24" x="36" y="153"/><use xlink:href="#git-pull-request" width="18" height="24" x="66" y="153"/><use xlink:href="#globe" width="24" height="24" x="93" y="153"/><use xlink:href="#graph" width="24" height="24" x="123" y="153"/><use xlink:href="#heart" width="18" height="24" x="156" y="153"/><use xlink:href="#history" width="21" height="24" x="185" y="153"/><use xlink:href="#home" width="24" height="24" x="213" y="153"/><use xlink:href="#horizontal-rule" width="15" height="24" x="248" y="153"/><use xlink:href="#hourglass" width="18" height="24" x="276" y="153"/><use xlink:href="#hubot" width="24" height="24" x="303" y="153"/><use xlink:href="#inbox" width="18" height="24" x="336" y="153"/><use xlink:href="#info" width="21" height="24" x="365" y="153"/><use xlink:href="#issue-closed" width="24" height="24" x="393" y="153"/><use xlink:href="#issue-opened" width="21" height="24" x="5" y="183"/><use xlink:href="#issue-reopened" width="21" height="24" x="35" y="183"/><use xlink:href="#jersey" width="21" height="24" x="65" y="183"/><use xlink:href="#jump-down" width="18" height="24" x="96" y="183"/><use xlink:href="#jump-left" width="15" height="24" x="128" y="183"/><use xlink:href="#jump-right" width="15" height="24" x="158" y="183"/><use xlink:href="#jump-up" width="18" height="24" x="186" y="183"/><use xlink:href="#key" width="21" height="24" x="215" y="183"/><use xlink:href="#keyboard" width="24" height="24" x="243" y="183"/><use xlink:href="#law" width="24" height="24" x="273" y="183"/><use xlink:href="#light-bulb" width="24" height="24" x="303" y="183"/><use xlink:href="#link" width="24" height="24" x="333" y="183"/><use xlink:href="#link-external" width="18" height="24" x="366" y="183"/><use xlink:href="#list-ordered" width="18" height="24" x="396" y="183"/><use xlink:href="#list-unordered" width="18" height="24" x="6" y="213"/><use xlink:href="#location" width="15" height="24" x="38" y="213"/><use xlink:href="#lock" width="18" height="24" x="66" y="213"/><use xlink:href="#logo-github" width="24" height="9" x="93" y="221"/><use xlink:href="#mail" width="21" height="24" x="125" y="213"/><use xlink:href="#mail-read" width="21" height="24" x="155" y="213"/><use xlink:href="#mail-reply" width="18" height="24" x="186" y="213"/><use xlink:href="#mark-github" width="24" height="24" x="213" y="213"/><use xlink:href="#markdown" width="24" height="24" x="243" y="213"/><use xlink:href="#megaphone" width="24" height="24" x="273" y="213"/><use xlink:href="#mention" width="19" height="24" x="305" y="213"/><use xlink:href="#microscope" width="18" height="24" x="336" y="213"/><use xlink:href="#milestone" width="19" height="24" x="365" y="213"/><use xlink:href="#mirror" width="24" height="24" x="393" y="213"/><use xlink:href="#mortar-board" width="24" height="24" x="3" y="243"/><use xlink:href="#move-down" width="15" height="24" x="38" y="243"/><use xlink:href="#move-left" width="24" height="24" x="63" y="243"/><use xlink:href="#move-right" width="24" height="24" x="93" y="243"/><use xlink:href="#move-up" width="15" height="24" x="128" y="243"/><use xlink:href="#mute" width="21" height="24" x="155" y="243"/><use xlink:href="#no-newline" width="24" height="24" x="183" y="243"/><use xlink:href="#octoface" width="24" height="24" x="213" y="243"/><use xlink:href="#organization" width="21" height="24" x="245" y="243"/><use xlink:href="#package" width="24" height="24" x="273" y="243"/><use xlink:href="#paintcan" width="18" height="24" x="306" y="243"/><use xlink:href="#pencil" width="21" height="24" x="335" y="243"/><use xlink:href="#person" width="12" height="24" x="369" y="243"/><use xlink:href="#pin" width="12" height="24" x="399" y="243"/><use xlink:href="#playback-fast-forward" width="18" height="24" x="6" y="273"/><use xlink:href="#playback-pause" width="12" height="24" x="39" y="273"/><use xlink:href="#playback-play" width="12" height="24" x="69" y="273"/><use xlink:href="#playback-rewind" width="18" height="24" x="96" y="273"/><use xlink:href="#plug" width="24" height="24" x="123" y="273"/><use xlink:href="#plus" width="15" height="24" x="158" y="273"/><use xlink:href="#podium" width="18" height="24" x="186" y="273"/><use xlink:href="#primitive-dot" width="12" height="24" x="219" y="273"/><use xlink:href="#primitive-square" width="12" height="24" x="249" y="273"/><use xlink:href="#pulse" width="21" height="24" x="275" y="273"/><use xlink:href="#puzzle" width="24" height="24" x="303" y="273"/><use xlink:href="#question" width="24" height="24" x="333" y="273"/><use xlink:href="#quote" width="15" height="24" x="368" y="273"/><use xlink:href="#radio-tower" width="24" height="24" x="393" y="273"/><use xlink:href="#repo" width="18" height="24" x="6" y="303"/><use xlink:href="#repo-clone" width="24" height="24" x="33" y="303"/><use xlink:href="#repo-force-push" width="18" height="24" x="66" y="303"/><use xlink:href="#repo-forked" width="18" height="24" x="96" y="303"/><use xlink:href="#repo-pull" width="24" height="24" x="123" y="303"/><use xlink:href="#repo-push" width="18" height="24" x="156" y="303"/><use xlink:href="#rocket" width="24" height="24" x="183" y="303"/><use xlink:href="#rss" width="18" height="24" x="216" y="303"/><use xlink:href="#ruby" width="24" height="24" x="243" y="303"/><use xlink:href="#screen-full" width="21" height="24" x="275" y="303"/><use xlink:href="#screen-normal" width="21" height="24" x="305" y="303"/><use xlink:href="#search" width="23" height="24" x="334" y="303"/><use xlink:href="#server" width="18" height="24" x="366" y="303"/><use xlink:href="#settings" width="21" height="24" x="395" y="303"/><use xlink:href="#sign-in" width="21" height="24" x="5" y="333"/><use xlink:href="#sign-out" width="24" height="24" x="33" y="333"/><use xlink:href="#split" width="24" height="24" x="63" y="333"/><use xlink:href="#squirrel" width="24" height="24" x="93" y="333"/><use xlink:href="#star" width="21" height="24" x="125" y="333"/><use xlink:href="#steps" width="15" height="24" x="158" y="333"/><use xlink:href="#stop" width="24" height="24" x="183" y="333"/><use xlink:href="#sync" width="18" height="24" x="216" y="333"/><use xlink:href="#tag" width="21" height="24" x="245" y="333"/><use xlink:href="#telescope" width="22" height="24" x="274" y="333"/><use xlink:href="#terminal" width="21" height="24" x="305" y="333"/><use xlink:href="#three-bars" width="18" height="24" x="336" y="333"/><use xlink:href="#thumbsdown" width="24" height="24" x="363" y="333"/><use xlink:href="#thumbsup" width="24" height="24" x="393" y="333"/><use xlink:href="#tools" width="24" height="24" x="3" y="363"/><use xlink:href="#trashcan" width="18" height="24" x="36" y="363"/><use xlink:href="#triangle-down" width="18" height="24" x="66" y="363"/><use xlink:href="#triangle-left" width="9" height="24" x="101" y="363"/><use xlink:href="#triangle-right" width="9" height="24" x="131" y="363"/><use xlink:href="#triangle-up" width="18" height="24" x="156" y="363"/><use xlink:href="#unfold" width="21" height="24" x="185" y="363"/><use xlink:href="#unmute" width="21" height="24" x="215" y="363"/><use xlink:href="#versions" width="21" height="24" x="245" y="363"/><use xlink:href="#x" width="15" height="24" x="278" y="363"/><use xlink:href="#zap" width="15" height="24" x="308" y="363"/></g></svg>