<svg xmlns="http://www.w3.org/2000/svg" xmlns:xlink="http://www.w3.org/1999/xlink" width="210" height="210"><defs><symbol id="heart" viewBox="0 0 512.006 512.1356"><path d="M467.088 84.25c-58.064-57.537-150.912-58.737-211.056-4.61-60.16-54.127-152.976-52.928-211.072 4.61-59.856 59.263-59.856 155.343 0 214.64 17.104 16.943 176.848 175.055 176.848 175.055 18.928 18.752 49.536 18.752 68.448 0 0 0 174.912-173.152 176.848-175.056 59.872-59.297 59.872-155.377-.016-214.64zm-22.8 192.046L267.44 451.353c-6.288 6.256-16.544 6.256-22.8 0L67.792 276.296c-47.2-46.72-47.2-122.736 0-169.456 45.504-45.04 118.656-46.624 166.544-3.552l21.696 19.52 21.68-19.52c47.904-43.072 121.056-41.504 166.56 3.552 47.2 46.704 47.2 122.72.016 169.456zm-296.24-156.27c4.432 0 8 3.583 8 7.998 0 4.416-3.584 8-8 8h-.016c-28.704 0-51.984 23.28-51.984 51.984v.016c0 4.416-3.584 8-8 8s-8-3.584-8-8c0-37.536 30.416-67.95 67.936-67.984.032 0 .032-.016.064-.016z"/></symbol><symbol id="cloud" viewBox="0 0 512 512.1356"><path d="M414.624 210.297C407.632 137.29 346.848 80.007 272 80.007c-57.904 0-107.472 34.37-130.336 83.68-6.88-2.175-14.048-3.68-21.648-3.68-39.76 0-72 32.257-72 72 0 7.905 1.584 15.377 3.936 22.465C21.024 272.505.016 305.592.016 343.976c0 57.44 46.56 104 104 104v.033H392v-.033c66.288 0 120-53.712 120-120 0-58.496-41.936-107.088-97.376-117.68zM392 415.976v.032H104.016c-39.696-.033-72-32.32-72-72.033 0-25.6 13.488-48.72 36.064-61.872 21.936-12.592 23.44-15.088 14.24-37.712-1.552-4.656-2.304-8.704-2.304-12.368 0-22.064 17.936-40 40-40 0 0 10.496-.752 21.648 3.68 18.352 7.312 20.352.32 29.024-18.544C189.04 137.594 228.8 112.01 272 112.01c57.6-.002 105.216 43.566 110.784 101.342 1.968 22.912 1.968 22.912 25.84 28.368C450 249.625 480 285.913 480 327.976c0 48.53-39.472 88-88 88z"/></symbol><symbol id="star" viewBox="0 0 512 512.1356"><path d="M510.096 200.92c-4.432-12.783-15.808-22.143-29.504-24.175l-133.216-19.808-57.904-120.224C283.376 24.088 270.336 16.01 256 16.01c-14.336-.002-27.376 8.079-33.472 20.703l-57.904 120.224-133.232 19.808c-13.68 2.032-25.056 11.392-29.472 24.176-4.4 12.817-1.072 26.93 8.592 36.56l97.632 97.473-22.64 135.216c-2.304 13.614 3.6 27.28 15.168 35.246 6.352 4.368 13.824 6.593 21.296 6.593 6.144 0 12.304-1.505 17.888-4.497L256 444.985l116.16 62.528c5.584 2.992 11.744 4.496 17.872 4.496 7.472 0 14.944-2.225 21.312-6.593 11.568-7.968 17.44-21.632 15.152-35.248L403.84 334.952l97.664-97.472c9.648-9.647 12.96-23.76 8.592-36.56zM377.408 309.817c-8.192 8.16-11.904 19.664-10.032 30.944l22.656 135.217-116.16-62.496c-5.568-3.007-11.712-4.495-17.888-4.495-6.144 0-12.304 1.504-17.872 4.496l-116.16 62.497 22.656-135.216c1.888-11.28-1.824-22.783-10.016-30.943L36.96 212.345l133.216-19.84c12.176-1.808 22.656-9.424 27.888-20.288L256 52.024l57.92 120.21c5.248 10.863 15.712 18.463 27.872 20.287l133.248 19.84-97.632 97.457z"/></symbol><symbol id="tv" viewBox="0 0 512.008 512.1356"><path d="M354.72 137.993c-43.312-8.912-87.28-13.424-130.64-13.424-43.36 0-87.312 4.51-130.64 13.423-5.6 1.15-10.176 5.215-11.984 10.672-23.072 70.096-23.072 141.168 0 211.264 1.792 5.438 6.368 9.502 11.984 10.654 43.328 8.897 87.28 13.425 130.64 13.425 43.344 0 87.328-4.53 130.64-13.44 5.632-1.153 10.192-5.217 12-10.657 23.056-70.096 23.056-141.17 0-211.264-1.808-5.442-6.384-9.506-12-10.657zm-3.216 216.928c-84.944 17.44-169.904 17.44-254.832 0-22.096-67.088-22.096-134.16 0-201.264 84.944-17.456 169.904-17.456 254.832 0 22.096 67.088 22.096 134.16 0 201.264zm142.16-253.792c-3.088-13.023-14-22.75-27.28-24.35-69.76-8.482-140.512-12.77-210.304-12.77-69.776 0-140.528 4.288-210.288 12.752-13.28 1.616-24.176 11.328-27.264 24.368-24.464 102.77-24.464 206.976 0 309.76 3.088 13.025 13.984 22.753 27.264 24.337 33.616 4.096 67.456 7.088 101.296 9.216-1.824 1.168-3.008 2.353-3.008 3.57 0 8.847 50.144 16 112 16s112-7.153 112-16c0-1.217-1.184-2.4-3.008-3.57 33.84-2.127 67.68-5.12 101.28-9.215 13.28-1.6 24.192-11.312 27.28-24.336 24.496-102.786 24.496-206.993.032-309.76zM462.528 403.48c-137.632 16.688-275.264 16.688-412.88 0-23.408-98.32-23.408-196.64 0-294.944 137.632-16.704 275.264-16.704 412.88 0 23.408 98.304 23.408 196.625 0 294.945zM424.096 192.01c13.248 0 24-10.752 24-24s-10.752-24-24-24-24 10.752-24 24 10.752 24 24 24zm0-32c4.4 0 8 3.6 8 8s-3.6 8-8 8-8-3.6-8-8 3.584-8 8-8zm16 192c4.4 0 8 3.57 8 8 0 4.4-3.6 8-8 8h-48c-4.432 0-8-3.6-8-8 0-4.43 3.568-8 8-8h48zm16-48c4.4 0 8 3.57 8 8 0 4.4-3.6 8-8 8h-48c-4.432 0-8-3.6-8-8 0-4.43 3.568-8 8-8h48zm0-48c4.4 0 8 3.584 8 8 0 4.417-3.6 8-8 8h-48c-4.432 0-8-3.583-8-8 0-4.416 3.568-8 8-8h48zM216.08 188.874c4.416-.177 8 3.264 8 7.68s-3.6 8.127-8 8.287l-59.984 4.112c-4.368.448-8.432 4.385-9.024 8.737l-2.672 30.319c-.176 4.4-3.92 8-8.288 8-4.384 0-7.792-3.6-7.568-8l4.88-44.577c.736-4.352 4.912-8.32 9.28-8.816l73.376-5.744z"/></symbol><symbol id="sound" viewBox="0 0 512 512.1356"><path d="M431.968 224.056c0-79.392-64.592-144-144-143.983v-.064c-4.4-.017-7.968-3.602-7.968-8.002 0-4.415 3.568-8 8-8 .16 0 .288.065.4.097 88.128.207 159.472 71.632 159.568 159.776 0 .05.032.08.032.13 0 4.415-3.6 7.983-8 7.983s-7.968-3.553-8-7.936h-.032zm-286.032-210C136.768 4.873 124.48.01 111.984.01c-6.176 0-12.4 1.182-18.336 3.647C75.696 11.08 64 28.584 64 48.007l-.016 220.113-49.92 49.952c-18.752 18.72-18.752 49.12 0 67.872l112 112c9.376 9.376 21.648 14.065 33.936 14.065s24.56-4.69 33.936-14.065l49.936-49.936h220.096c19.44 0 36.944-11.68 44.336-29.633 7.44-17.936 3.344-38.592-10.4-52.32l-351.968-352zm75.312 411.328l-49.936 49.936c-4.08 4.065-8.848 4.69-11.312 4.69s-7.232-.625-11.312-4.69l-112-112c-4.08-4.096-4.688-8.847-4.688-11.31s.608-7.25 4.688-11.313l49.92-49.936c.144-.16.192-.335.336-.495l134.8 134.816c-.144.113-.352.144-.496.305zm22.624-9.375c-2.48 0-4.784.88-7.152 1.407L94.56 275.257c.544-2.368 1.424-4.672 1.424-7.136L96 75.385 436.592 416.01h-192.72zm234.88-9.873c-2.464 6-8.288 9.872-14.784 9.872h-4.752L96 52.76v-4.752c0-6.496 3.872-12.304 9.872-14.784 1.968-.816 4.016-1.215 6.112-1.215 4.288-.002 8.304 1.662 11.312 4.67L475.28 388.697c4.592 4.59 5.968 11.44 3.472 17.44zM287.968 32.007C279.152 31.994 272 24.826 272 16.01c0-8.85 7.152-16.002 16-16.002.16 0 .288.065.4.08C411.872.314 511.872 100.394 511.968 223.88c0 .05.032.08.032.13 0 8.847-7.152 16-16 16-8.816 0-15.968-7.137-16-15.938h-.032c0-105.87-86.128-192-192-192v-.064z"/></symbol><symbol id="video" viewBox="0 0 512 512.1356"><path d="M480 96.008h-14.192c-8.4 0-16.464 3.313-22.464 9.217L400 147.974V128.01c0-26.513-21.504-48-48-48l-304-.002c-26.464 0-48 21.52-48 48V384.01c0 26.495 21.488 48 48 48h304c26.496 0 48-21.505 48-48v-19.537l43.344 42.752c6 5.904 14.064 9.216 22.464 9.216H480c17.664 0 32-14.32 32-32V128.008c0-17.68-14.336-32-32-32zm-432 304c-8.832 0-16-7.183-16-16v-256c0-8.847 7.152-16 16-16h304c8.816 0 16 7.17 16 16v256c0 8.817-7.184 16-16 16H48zm432-15.567h-16l-64-64v-.43l-16-16v-96l80-80h16v256.43z"/></symbol><symbol id="trash" viewBox="0 0 512 512.1356"><path d="M479.68 109.112c-1.536-25.12-22.192-45.055-47.68-45.055h-48V48.025c0-26.512-21.504-48-48-48H176c-26.512 0-48 21.488-48 48V64.04H80c-25.52 0-46.16 19.936-47.696 45.056H32v34.93c0 17.663 14.336 32 32 32v272c0 35.342 28.656 63.998 64 63.998h256c35.344 0 64-28.656 64-64v-272c17.664 0 32-14.336 32-32v-34.912h-.32zM160 48.042c0-8.85 7.152-16.002 16-16.002h160c8.848 0 16 7.153 16 16v16H160v-16zm256 399.998c0 17.632-14.368 32-32 32H128c-17.648 0-32-14.368-32-32v-272h320v272zm32-320.016v16H64V112.04c0-8.848 7.152-16 16-16h352c8.848 0 16 7.152 16 16v15.984zm-304 320.08h32c8.848 0 16-7.152 16-16v-208c0-8.848-7.152-16-16-16h-32c-8.848 0-16 7.152-16 16v208c0 8.85 7.152 16 16 16zm0-224.015h32v208h-32v-208zm96 224.014h32c8.848 0 16-7.152 16-16v-208c0-8.848-7.152-16-16-16h-32c-8.848 0-16 7.152-16 16v208c0 8.85 7.152 16 16 16zm0-224.015h32v208h-32v-208zm96 224.014h32c8.848 0 16-7.152 16-16v-208c0-8.848-7.152-16-16-16h-32c-8.848 0-16 7.152-16 16v208c0 8.85 7.152 16 16 16zm0-224.015h32v208h-32v-208z"/></symbol><symbol id="user" viewBox="0 0 512.011 512.1356"><path d="M497.76 453.385c-3.216-2.128-61.568-40.4-148.368-59.184 31.84-40.335 52.288-94.59 60.976-130.703 12.064-50.048 7.376-147.968-40.688-208.992C341.584 18.84 302.272.008 256 .008c-46.272 0-85.584 18.848-113.664 54.496-48.064 61.01-52.736 158.928-40.688 208.976 8.688 36.112 29.12 90.368 60.976 130.704-86.8 18.784-145.152 57.056-148.352 59.184-11.728 7.81-16.976 22.4-12.88 35.873C5.456 502.76 17.92 512.01 32 512.01h448c14.096 0 26.528-9.25 30.624-22.753 4.112-13.473-1.136-28.065-12.864-35.873zm-173.488-79.008L319.056 381c-38.16 43.84-87.92 43.84-126.064 0l-5.232-6.623c-44.56-56.464-66.672-131.152-57.152-202.4 8.72-68.465 47.952-139.97 125.392-139.97 77.44.002 116.688 71.522 125.408 139.986 9.488 71.28-12.544 145.887-57.136 202.384zM32 480.01c2.208-1.473 56.416-37.025 137.376-54.53l39.744-8.592c14.192 9.313 29.76 15.12 46.88 15.12 17.136 0 32.688-5.807 46.88-15.12l39.744 8.593C422.944 442.856 476.96 478.01 480 480.01H32z"/></symbol><symbol id="key" viewBox="0 0 512.064 512.1356"><path d="M352.064.01c-88.368 0-160 71.647-160 160 0 20.56 4.304 40.015 11.408 58.063L9.088 412.44C3.472 418.072 0 423.416 0 432.01v48c0 17.12 14.864 32 32 32h48c8.576 0 14-3.44 19.616-9.025l22.96-22.976h37.488c17.664 0 32-14.337 32-32v-32h32c17.664 0 32-14.337 32-32v-37.505l37.904-37.936c18.064 7.118 37.504 11.44 58.096 11.44 88.336 0 160-71.65 160-160s-71.664-160-160-160zm0 287.998c-23.68 0-45.632-6.88-64.656-18.11l-5.504 5.486-18 18-30.48 30.496c-6 6-9.376 14.128-9.376 22.624v37.505h-32c-17.664 0-32 14.32-32 32v32h-37.472c-8.48 0-16.624 3.375-22.624 9.375l-22.688 22.688-45.216-.064-.048-45.6 186.64-186.306s0 .016.016.032l23.504-23.503c-11.232-19.024-18.112-40.96-18.112-64.64 0-70.688 57.328-128 128-128s128 57.312 128 128S422.752 288.01 352.064 288.01zm93.056-156.175c-17.936-24.992-39.776-46.8-64.88-64.864-4.08-2.962-9.36-3.697-14.112-2.034-22.224 7.824-37.44 23.024-45.216 45.248-.592 1.664-.88 3.392-.88 5.104 0 3.184.992 6.336 2.912 9.008 18 25.024 39.808 46.848 64.848 64.848 4.096 2.944 9.344 3.696 14.096 2.048 22.256-7.776 37.472-23.008 45.28-45.248.592-1.663.88-3.39.88-5.103-.016-3.184-1.024-6.335-2.928-9.007zm-48 44.335c-23.648-17.007-44.24-37.6-61.12-60.688 6.192-17.647 17.776-29.23 34.912-35.535 23.664 17.04 44.224 37.584 61.056 60.976-6.256 17.52-17.808 29.04-34.848 35.25z"/></symbol><symbol id="search" viewBox="0 0 512 512.1356"><path d="M320 .088c-106.032 0-192 85.97-192 192 0 32.417 8.112 62.93 22.32 89.73L16.816 415.287l.112.096C6.496 425.64 0 439.849 0 455.64c0 31.184 25.28 56.464 56.464 56.464 15.76 0 29.984-6.496 40.24-16.944l-.032-.032 133.456-133.44c26.816 14.256 57.376 22.4 89.872 22.4 106.032 0 192-85.968 192-192 0-106.03-85.968-192-192-192zM76.72 475.16c-5.152 5.344-12.288 8.688-20.256 8.688-15.6 0-28.24-12.624-28.24-28.224 0-7.968 3.36-15.088 8.688-20.256l-.144-.127 129.056-129.055c11.28 15.216 24.72 28.656 39.904 39.968L76.72 475.16zM320 352.105c-88.352 0-160-71.664-160-160 0-88.352 71.648-160 160-160 88.336 0 160 71.648 160 160 0 88.336-71.664 160-160 160zm0-272.015c4.4-.002 8 3.582 8 7.998s-3.6 8-8 8c-53.024 0-96 42.993-96 96 0 4.417-3.584 8-8 8s-8-3.583-8-8c0-61.856 50.128-112 112-112z"/></symbol><symbol id="settings" viewBox="0 0 512 512.1356"><path d="M486.256 202.89l-49.024-9.825c-2.464-7.09-5.376-13.97-8.592-20.625l27.776-41.664c8.464-12.688 6.784-29.6-4-40.368l-30.784-30.783c-6.192-6.192-14.368-9.376-22.656-9.376-6.128 0-12.32 1.76-17.712 5.375L339.6 83.385c-6.688-3.233-13.568-6.113-20.656-8.577l-9.824-49.04C306.144 10.794 292.992.042 277.744.042h-43.52c-15.248 0-28.384 10.77-31.376 25.73l-9.824 49.038c-7.088 2.465-13.968 5.36-20.624 8.577l-41.648-27.76c-5.424-3.617-11.6-5.377-17.744-5.377-8.272 0-16.448 3.185-22.64 9.377L59.6 90.41c-10.784 10.783-12.464 27.68-4 40.367l27.76 41.664c-3.232 6.672-6.112 13.552-8.576 20.64l-49.056 9.808C10.768 205.88 0 219.018 0 234.264v43.52c0 15.248 10.768 28.4 25.728 31.376l49.04 9.84c2.464 7.088 5.36 13.968 8.576 20.624L55.6 381.288c-8.464 12.688-6.784 29.6 4 40.368l30.784 30.784c6.192 6.192 14.368 9.376 22.64 9.376 6.144 0 12.336-1.776 17.728-5.376l41.664-27.776c6.672 3.248 13.552 6.128 20.64 8.592l9.808 49.024c2.992 14.976 16.128 25.744 31.376 25.744h43.52c15.248 0 28.4-10.784 31.376-25.744l9.84-49.024c7.088-2.464 13.968-5.376 20.624-8.592l41.664 27.776c5.408 3.6 11.6 5.376 17.712 5.376 8.288 0 16.464-3.184 22.656-9.376l30.784-30.784c10.784-10.784 12.464-27.68 4-40.368l-27.776-41.664c3.248-6.688 6.128-13.568 8.592-20.656l49.024-9.808C501.216 306.2 512 293.034 512 277.785v-43.52c0-15.248-10.784-28.383-25.744-31.376zm-55.312 84.72c-11.12 2.222-20.224 10.158-23.936 20.878-2.064 5.904-4.464 11.632-7.152 17.184-4.976 10.224-4.128 22.288 2.16 31.712l27.776 41.664-30.784 30.784-41.664-27.776c-5.344-3.568-11.536-5.376-17.744-5.376-4.752 0-9.536 1.056-13.936 3.184-5.568 2.69-11.28 5.12-17.216 7.185-10.688 3.71-18.624 12.815-20.848 23.935l-9.84 49.056h-43.52l-9.808-49.056c-2.224-11.12-10.16-20.223-20.864-23.935-5.904-2.065-11.648-4.465-17.2-7.153-4.416-2.16-9.184-3.216-13.952-3.216-6.224 0-12.4 1.81-17.744 5.377l-41.664 27.776-30.784-30.784 27.76-41.665c6.288-9.44 7.104-21.504 2.192-31.68-2.688-5.568-5.104-11.28-7.168-17.216-3.712-10.69-12.832-18.625-23.936-20.85l-49.04-9.84L32 234.265l49.056-9.808c11.104-2.223 20.224-10.16 23.936-20.863 2.064-5.904 4.448-11.648 7.152-17.2 4.96-10.208 4.128-22.272-2.176-31.696l-27.744-41.665 30.768-30.783 41.664 27.76c5.344 3.566 11.536 5.374 17.744 5.374 4.752 0 9.52-1.055 13.936-3.183 5.552-2.687 11.28-5.103 17.2-7.167 10.704-3.713 18.64-12.833 20.864-23.937l9.824-49.04 43.52-.016 9.808 49.056c2.224 11.104 10.16 20.224 20.88 23.936 5.904 2.065 11.632 4.45 17.184 7.153 4.432 2.143 9.184 3.2 13.968 3.2 6.224 0 12.4-1.81 17.744-5.377l41.664-27.76 30.784 30.784L402 154.697c-6.288 9.44-7.088 21.488-2.192 31.68 2.688 5.552 5.12 11.28 7.184 17.2 3.712 10.704 12.816 18.64 23.936 20.864l49.024 9.825.048 43.52-49.056 9.823zM256 144.022c-61.84 0-112 50.16-112 112 0 61.856 50.16 112 112 112s112-50.16 112-112-50.16-112-112-112zm0 210.017c-54.112 0-98-43.904-98-98 0-54.112 43.888-98 98-98 54.096 0 98 43.89 98 98 0 54.096-43.904 98-98 98zm0-162.016c-35.36 0-64 28.64-64 64 0 35.344 28.64 64 64 64 35.344 0 64-28.656 64-64s-28.656-64-64-64zm0 112.017c-26.496 0-48-21.504-48-48s21.504-48 48-48 48 21.505 48 48c0 26.496-21.504 48-48 48z"/></symbol><symbol id="camera" viewBox="0 0 512 512.1356"><path d="M256 160.024c-70.704 0-128 57.296-128 128 0 70.688 57.296 128 128 128 70.688 0 128-57.312 128-128s-57.312-128-128-128zm72.88 190.48c-34.496 40.256-95.088 44.912-135.344 10.4-40.272-34.496-44.912-95.104-10.4-135.344 34.48-40.272 95.088-44.912 135.344-10.4 40.24 34.48 44.896 95.105 10.4 135.345zM256 224.024c4.416 0 8 3.584 8 8s-3.584 8-8 8c-26.512 0-47.984 21.488-48 47.985v.03c0 4.4-3.584 8-8 8s-8-3.6-8-8v-.03c.016-35.33 28.656-63.986 64-63.986zm215.872-79.344l-69.344-11.568-21.968-54.944c-7.344-18.32-24.848-30.16-44.56-30.16H176c-19.712 0-37.216 11.84-44.576 30.176l-21.952 54.93-69.328 11.566C16.88 148.536 0 168.44 0 192.01v240c0 26.465 21.536 48 48 48h416c26.464 0 48-21.535 48-48v-240c0-23.568-16.88-43.472-40.128-47.328zM480 432.01c0 8.847-7.152 16-16 16H48c-8.848 0-16-7.153-16-16v-240c0-7.825 5.664-14.497 13.376-15.777l87.104-14.513 28.656-71.648c2.448-6.064 8.32-10.064 14.864-10.064h160c6.528 0 12.4 3.985 14.848 10.065l28.656 71.647 87.12 14.512c7.712 1.28 13.376 7.953 13.376 15.776v240z"/></symbol><symbol id="tag" viewBox="0 0 512 512.1356"><path d="M502.256 222.137l-80-128c-11.68-18.704-32.192-30.08-54.256-30.08H64c-35.344 0-64 28.655-64 64v256c0 35.344 28.656 64 64 64h304c22.064 0 42.56-11.376 54.256-30.096l80-128c12.992-20.72 12.992-47.07 0-67.823zM475.12 273l-80 128.032c-5.872 9.41-16.032 15.025-27.12 15.025H64c-17.648 0-32-14.368-32-32v-256c0-17.648 14.352-32 32-32h304c11.088 0 21.248 5.632 27.12 15.024l80 128c6.448 10.32 6.448 23.632 0 33.92zM368 208.056c-26.528 0-48 21.488-48 48 0 26.513 21.472 48 48 48 26.496 0 48-21.503 48-48 0-26.51-21.504-48-48-48zm0 80.016c-17.68 0-32-14.336-32-32s14.32-32 32-32c17.664 0 32 14.336 32 32 0 17.65-14.336 32-32 32z"/></symbol><symbol id="lock" viewBox="0 0 512 512.1356"><path d="M400 208.01v-64c0-79.537-64.464-144-144-144-79.536-.002-144 64.462-144 144v64c-26.512 0-48 21.487-48 48v112c0 79.535 64.464 144 144 144h96c79.536 0 144-64.465 144-144v-112c0-26.53-21.504-48-48-48zm-256-64c0-61.857 50.144-112 112-112 61.856-.002 112 50.142 112 112v64h-32v-63.97c0-44.19-35.808-80-80-80s-80 35.809-80 80v63.97h-32v-64zm176 0V208.007H192v-64c0-35.345 28.656-64 64-64 35.344-.002 64 28.654 64 63.998zm96 160v64c0 61.743-50.256 112-112 112h-96c-61.744 0-112-50.257-112-112v-112c0-8.833 7.168-16 16-16h288c8.816 0 16 7.167 16 16v48zm-160 0c17.664 0 32 14.32 32 32 0 9.743-5.248 28.286-10.656 42.91-4.368 11.808-8.832 21.056-21.344 21.056-11.504 0-16.976-9.344-21.328-21.216C229.328 364.17 224 345.72 224 336.01c0-17.68 14.336-32 32-32z"/></symbol><symbol id="bulb" viewBox="0 0 512 512.1356"><path d="M256 .01c-97.216 0-176 78.783-176 176 0 64.495 59.008 132.847 80.496 192.88 32.048 89.52 28.496 143.12 95.504 143.12 68 0 63.44-53.345 95.504-142.753C373.056 309.096 432 240.007 432 176.007c0-97.215-78.816-176-176-176zm41.472 434.814l-79.328 9.904c-2.832-8.192-5.872-17.776-9.568-30.288-.048-.16-.112-.336-.144-.496l99.008-12.368c-1.408 4.72-2.912 9.68-4.224 14.128-2.096 7.185-3.968 13.424-5.744 19.12zm-93.696-36.288c-2.912-9.632-6.192-19.776-9.84-30.528h124.256c-1.968 5.744-3.936 11.504-5.632 16.944l-108.784 13.584zM256 480.01c-16.208 0-23.664-1.873-31.952-20l67.808-8.497C282.032 477.977 274.88 480.01 256 480.01zm74.752-144H181.424c-7.968-17.28-17.536-34.56-26.976-51.473-20.88-37.36-42.448-76-42.448-108.528 0-79.41 64.592-144 144-144 79.408-.002 144 64.59 144 144 0 32.287-21.6 71.135-42.496 108.72-9.344 16.846-18.848 34.094-26.752 51.28zM256 80.01c4.4-.002 8 3.582 8 7.998s-3.584 8-8 8c-44.112 0-80 35.89-80 80 0 4.416-3.584 8-8 8s-8-3.584-8-8c0-52.944 43.056-96 96-96z"/></symbol><symbol id="pen" viewBox="0 0 512 512.1356"><path d="M470.32 41.288C444 15.002 409.344.008 375.184.008c-28.816 0-55.344 10.688-74.72 30.032l-77.872 78.465c-.24.223-.512.367-.752.607-.128.13-.208.305-.336.417l.032.03L56.272 276.105c-7.616 7.568-13.136 16.992-16.208 27.28L2.48 439.512C2.448 439.88 0 450.568 0 456.01c0 30.91 25.104 56 56.064 56 6.16 0 18.08-2.945 18.512-3.01l135.648-35.663c10.304-3.056 19.664-8.624 27.28-16.256l244.208-246.127c44.416-44.448 39.408-118.945-11.392-169.665zm-214.096 339.44c-1.312-14.432-5.392-28.592-11.504-42.032L396 187.433c9.248 29.217 4.496 59.777-15.776 80.065-.128.127-.288.207-.4.335l.224.208L256.4 392.68c0-3.983.192-7.887-.176-11.952zm-19.536-56.624c-5.968-9.808-12.752-19.28-21.152-27.664-9.776-9.776-20.992-17.44-32.704-23.872l152.512-152.512c11.968 5.312 23.44 12.88 33.568 23.008 8.656 8.624 15.344 18.288 20.496 28.336l-152.72 152.704zM167.776 265c-14.816-5.968-30.336-9.376-45.888-9.584l123.248-124.192c18.864-18.4 46.336-23.696 73.392-16.992l-150.752 150.77zM66.672 477.976c-1.744.4-7.168 1.776-10.848 2.033-13.152-.16-23.824-10.85-23.824-24 .192-2.69 1.264-7.313 1.632-8.993l16.848-61.024c18.288-.496 37.968 6.624 53.44 22.128 15.712 15.68 23.104 35.744 22.304 54.256l-59.552 15.6zm75.312-19.776c-.384-21.472-9.12-43.808-26.752-61.408-16.672-16.688-38.496-26.32-60.256-27.183l15.936-57.714c1.152-3.84 3.44-7.632 6.256-10.944 32.096-22.976 81.456-16.192 115.744 18.128 36.272 36.256 41.872 89.376 13.936 121.088-1.856.976-3.728 1.904-5.744 2.496l-59.12 15.536zm317.072-269.84l-26.944 27.152c0-3.616.432-7.088.096-10.784-2.816-30.96-17.248-60.896-40.688-84.304-26.064-26.08-60.624-41.04-94.848-41.136l26.496-26.72c13.264-13.23 31.776-20.56 52.016-20.56 25.744 0 52.192 11.648 72.528 31.92 19.088 19.057 30.464 42.736 32.096 66.69 1.504 22.35-5.872 42.846-20.752 57.743z"/></symbol><symbol id="diamond" viewBox="0 0 512.0014 512.1356"><path d="M502.624 154.84l-81.28-81.296c-6-6-14.16-9.376-22.624-9.376H113.296c-8.48 0-16.624 3.376-22.624 9.376L9.392 154.84C3.104 161.114-.032 169.385 0 177.674c.048 7.52 2.736 15.024 8.096 21.056L232.08 437.255c6.08 6.847 14.784 10.752 23.92 10.752 9.136 0 17.84-3.905 23.904-10.753l224-238.528c5.472-6.16 8.16-13.873 8.096-21.57-.064-8.095-3.216-16.16-9.376-22.32zm-211.12 21.328H220.48L256 146.584l35.504 29.584zm-22.992-40l43.712-36.448 32.288 32.288L304 165.752l-35.488-29.584zM208 165.752l-40.512-33.744 32.288-32.288 43.728 36.449L208 165.75zm87.84 26.416L256 391.416 216.16 192.17h79.68zm16.32 0h78.496L272.912 388.472 312.16 192.17zm4.304-16l39.408-32.816 32.816 32.816h-72.224zm14.848-80h56.192l-30.656 25.552-25.536-25.552zM256 125.768l-35.52-29.6h71.008L256 125.768zm-100.864-4.047L124.48 96.168h56.208l-25.552 25.552zm.992 21.632l39.392 32.816h-72.208l32.816-32.816zm43.712 48.816l39.248 196.304-117.76-196.303h78.512zm3.424 167.65l-157.44-167.65h56.864l100.576 167.65zm206.048-167.65h56.88L308.72 359.849l100.592-167.68zm2-16l-43.088-43.088 36.752-30.64 73.712 73.728h-67.376zm-304.336-73.76l36.816 30.673-43.104 43.088H32.096l74.88-73.76z"/></symbol><symbol id="display" viewBox="0 0 512 512.1356"><path d="M432 79.945l-352 .064c-8.848-.002-16 7.087-16 15.934v224c0 8.848 7.152 16 16 16h352c8.848 0 16-7.152 16-16v-224c0-8.847-7.152-16-16-16zm0 240.064H80V95.944h352V320.01zm32-304l-416-.002c-26.512 0-48 21.473-48 48v320c0 26.465 21.408 47.905 47.84 47.97l160.16-.002v19.472l-99.872 12.976C100.992 466.2 96 472.6 96 479.944c0 8.848 7.152 16 16 16h288c8.848 0 16-7.152 16-16 0-7.344-4.992-13.744-12.128-15.536L304 451.45v-19.47h160.16c26.432-.065 47.84-21.505 47.84-47.97v-320c0-26.527-21.504-48-48-48zm16 368c0 8.815-7.184 16-16 16H48c-8.832 0-16-7.185-16-16v-320c0-8.833 7.168-16 16-16h416c8.816 0 16 7.167 16 16v320z"/></symbol><symbol id="location" viewBox="0 0 512 512.1356"><path d="M256.032 283.945c52.944 0 96-43.072 96-96s-43.056-96-96-96-96 43.056-96 96 43.056 96 96 96zm0-176c44.128 0 80 35.872 80 80s-35.872 80-80 80-80-35.872-80-80 35.872-80 80-80zM256 .008C150.112.008 64 85.063 64 192.023c0 112 96.016 226.576 166.016 307.104.256.32 11.488 12.88 25.376 12.88h1.232c13.872 0 25.12-12.56 25.376-12.88 70.032-80.527 166.032-195.087 166.032-307.103C448.032 85.065 361.904.008 256 .008zm1.872 478.127c-.336.32-1.312 1.024-2.16 1.568-.16-.432-1.344-1.376-2.064-2.128C195.008 410.104 96 296.233 96 192.024 96 103.8 167.792 32.008 256 32.008c88.256 0 160.032 71.792 160.032 160.032 0 104.193-99.008 218.064-158.16 286.096z"/></symbol><symbol id="eye" viewBox="0 0 512 512.1356"><path d="M511.44 252.424c-.16-.672-.064-1.392-.32-2.048-.096-.272-.336-.416-.432-.672-.16-.384-.128-.816-.336-1.184-46.4-88.816-147.408-152.448-253.968-152.448-106.576 0-207.568 63.536-254 152.337-.208.367-.176.8-.336 1.183-.112.256-.336.4-.432.672-.256.656-.16 1.376-.32 2.048-.288 1.2-.56 2.352-.56 3.584s.288 2.368.56 3.584c.16.672.064 1.392.32 2.048.096.272.336.416.432.672.16.385.128.817.336 1.185 46.416 88.816 147.424 152.448 254 152.448 106.56 0 207.568-63.536 253.968-152.336.224-.368.192-.8.336-1.184.096-.256.336-.4.432-.672.256-.655.16-1.375.32-2.047.272-1.216.56-2.37.56-3.584s-.288-2.385-.56-3.585zM256.368 383.817c-89.84 0-177.792-51.056-221.616-127.92 44.064-76.96 131.888-127.84 221.616-127.84 89.808 0 177.776 51.072 221.6 127.92-44.064 76.975-131.872 127.84-221.6 127.84zm0-191.825c4.416 0 7.968 3.57 7.968 8 0 4.4-3.568 7.984-7.968 7.984v.017c-26.464 0-47.984 21.52-47.984 47.952 0 4.416-3.584 8-7.984 8-4.416 0-8-3.584-8-8 0-35.28 28.592-63.873 63.872-63.936.032 0 .064-.017.096-.017zM256 144.01c-61.872 0-112 50.143-112 112 0 61.855 50.144 112 112 112 61.84 0 112-50.16 112-112 0-61.873-50.16-112-112-112zm0 208c-52.944 0-96-43.057-96-96 0-52.945 43.056-96 96-96s96 43.055 96 96c0 52.942-43.056 96-96 96z"/></symbol><symbol id="bubble" viewBox="0 0 512 512.1356"><path d="M256 112.008c4.416 0 8 3.585 8 8 0 4.416-3.6 8-8 8-85.232 0-160 44.864-160 96 0 4.416-3.584 8-8 8s-8-3.584-8-8c0-60.704 80.592-112 176-112zm0-80c-141.392 0-256 85.97-256 192 0 66.032 44.464 124.256 112.128 158.816 0 .433-.128.72-.128 1.185 0 28.687-21.424 59.567-30.848 75.775h.032c-.752 1.76-1.184 3.695-1.184 5.727 0 8 6.48 14.497 14.496 14.497 1.504 0 4.144-.4 4.08-.226 50-8.192 97.104-54.128 108.048-67.44 15.984 2.353 32.464 3.665 49.376 3.665 141.36 0 256-85.97 256-192 0-106.033-114.624-192-256-192zm0 352c-14.672 0-29.728-1.12-44.736-3.31-1.552-.257-3.104-.337-4.64-.337-9.504 0-18.608 4.224-24.736 11.68-6.848 8.336-26.336 26.944-49.36 40.624 6.24-14.32 11.12-30.367 11.456-46.91.096-1.025.144-2.065.144-2.945 0-12.033-6.736-23.025-17.44-28.497C67.392 324.04 32 275.32 32 224.01c0-88.225 100.48-160 224-160 123.488-.002 224 71.774 224 159.998 0 88.225-100.496 160-224 160z"/></symbol><symbol id="stack" viewBox="0 0 512 512.1356"><path d="M510.784 295.288L446.752 55.192C442.88 41.544 430.224 32.008 416 32.008H96c-14.24 0-26.88 9.536-30.752 23.184L1.216 295.288C.4 298.2 0 301.128 0 304.01v112c0 35.345 28.656 64 64 64h384c35.344 0 64-28.655 64-64v-112c0-2.88-.4-5.808-1.216-8.72zM480 416.01c0 17.633-14.368 32-32 32H64c-17.648 0-32-14.367-32-32v-112L96.016 63.994h319.952L480 304.01v112zm-100.128-320H132.128c-7.248 0-13.6 4.88-15.472 11.89l-55.12 192c-1.264 4.814-.256 9.934 2.784 13.87s7.712 6.24 12.672 6.24H150.08l23.152 46.32c5.44 10.833 16.512 17.68 28.64 17.68h108.256c12.128 0 23.184-6.847 28.624-17.68l23.152-46.32h73.088c4.976 0 9.664-2.32 12.688-6.255s4.032-9.056 2.784-13.872l-55.12-192c-1.872-7.007-8.224-11.87-15.472-11.87zm8.624 192h-26.592c-12.192 0-23.152 6.753-28.624 17.68l-23.152 46.32H201.872l-23.152-46.32c-5.472-10.928-16.432-17.68-28.624-17.68H85.344l46.784-176h247.744l46.784 176h-38.16z"/></symbol><symbol id="cup" viewBox="0 0 512 512.1356"><path d="M449.776 80.36l-19.44-58.48C426 8.81 413.776.01 400 .01H112c-13.792 0-26 8.799-30.368 21.87l-19.6 58.513C45.328 81.465 32 95.032 32 112.007v48c0 17.664 14.336 32 32 32h16.544c0 1.2-.48 2.336-.336 3.536l32 288C114 499.72 127.68 512.01 144 512.01h224c16.32 0 30-12.29 31.776-28.465l32-288c.16-1.2-.336-2.336-.336-3.536H448c17.664 0 32-14.337 32-32v-48c0-17.041-13.44-30.674-30.224-31.65zM112 32.01h288l16 48H96l16-48zm32 448l-5.328-48h234.656l-5.328 48H144zm231.088-64H136.88l-17.776-160H392.88l-17.792 160zm19.568-176H117.328l-5.328-48h288l-5.344 48zm53.344-80H64v-48h384v48z"/></symbol><symbol id="phone" viewBox="0 0 512 512.1356"><path d="M384 .01H128c-26.528 0-48 21.486-48 47.998v416c0 26.53 21.488 48 48 48h256c26.496 0 48-21.504 48-48v-416c0-26.528-21.504-48-48-48zm16 463.998c0 8.817-7.184 16-16 16H128c-8.832 0-16-7.15-16-16v-32.063h288v32.064zm0-48.063H112V96.007h288v319.937zm0-335.937H112v-32c0-8.832 7.168-16 16-16h256c8.816 0 16 7.168 16 16v32zm-112-24c0 4.416-3.6 8-8 8h-48c-4.432 0-8-3.583-8-8 0-4.431 3.568-8 8-8h48c4.4 0 8 3.57 8 8zm-16 399.937c0 4.4-3.6 8-8 8h-16c-4.416 0-8-3.6-8-8 0-4.432 3.584-8 8-8h16c4.4 0 8 3.567 8 8z"/></symbol><symbol id="news" viewBox="0 0 512 512.1356"><path d="M464 .01H112c-26.512 0-48 21.47-48 47.998v32H48c-26.512 0-48 21.473-48 48v320c0 35.345 28.656 64 64 64h384c35.344 0 64-28.656 64-64v-400c0-26.528-21.504-48-48-48zm16 447.998c0 17.633-14.368 32-32 32H64c-17.648 0-32-14.367-32-32v-320c0-8.83 7.168-16 16-16h16v320c0 8.85 7.152 16 16 16s16-7.15 16-16v-384c0-8.83 7.168-16 16-16h352c8.816 0 16 7.17 16 16v400zM311.968 208.09c-4.4 0-8-3.583-8-8 0-4.415 3.6-8 8-8h128c4.432 0 8 3.585 8 8 0 4.417-3.568 8-8 8h-128zm0-48c-4.4 0-8-3.583-8-8 0-4.415 3.6-8 8-8h128c4.432 0 8 3.585 8 8 0 4.417-3.568 8-8 8h-128zm0-48c-4.4 0-8-3.584-8-8 0-4.415 3.6-8 8-8h128c4.432 0 8 3.585 8 8 0 4.416-3.568 8-8 8h-128zM264 432.072c4.416 0 8 3.6 8 8 0 4.433-3.6 8-8 8H136c-4.416 0-8-3.567-8-8 0-4.4 3.584-8 8-8h128zm0-48c4.416 0 8 3.6 8 8 0 4.433-3.6 8-8 8H136c-4.416 0-8-3.567-8-8 0-4.4 3.584-8 8-8h128zm0-48c4.416 0 8 3.6 8 8 0 4.433-3.6 8-8 8H136c-4.416 0-8-3.567-8-8 0-4.4 3.584-8 8-8h128zm176 96c4.4 0 8 3.6 8 8 0 4.433-3.6 8-8 8H312c-4.432 0-8-3.567-8-8 0-4.4 3.568-8 8-8h128zm0-48c4.4 0 8 3.6 8 8 0 4.433-3.6 8-8 8H312c-4.432 0-8-3.567-8-8 0-4.4 3.568-8 8-8h128zm0-48c4.4 0 8 3.6 8 8 0 4.433-3.6 8-8 8H312c-4.432 0-8-3.567-8-8 0-4.4 3.568-8 8-8h128zm0-96c4.4 0 8 3.584 8 8s-3.6 8-8 8H136c-4.416 0-8-3.584-8-8s3.584-8 8-8h304zm0 48c4.4 0 8 3.6 8 8 0 4.433-3.6 8-8 8H136c-4.416 0-8-3.567-8-8 0-4.4 3.584-8 8-8h304zM144 208.01h112c8.848 0 16-7.152 16-16V80.072c0-8.847-7.152-16-16-16H144c-8.848 0-16 7.153-16 16V192.01c0 8.832 7.152 16 16 16zm16-112h80v80h-80v-80z"/></symbol><symbol id="mail" viewBox="0 0 512 512.1356"><path d="M448 80.008H64c-35.344 0-64 28.672-64 64v208c0 35.345 28.656 64 64 64h384c35.344 0 64-28.655 64-64v-208c0-35.328-28.656-64-64-64zm-416 84l111.984 84L32 332.01v-168zm448 188c0 17.665-14.368 32-32 32H64c-17.648 0-32-14.335-32-32l125.312-94 69.888 52.433c8.528 6.37 18.656 9.6 28.8 9.6 10.128 0 20.256-3.215 28.784-9.6l69.904-52.43 125.312 94zm0-20l-112-84 112-84v168zM275.184 297.64c-5.584 4.192-12.208 6.4-19.184 6.4-6.976 0-13.616-2.224-19.2-6.4l-66.16-49.63-13.328-10L32 144.022v-.016c0-17.648 14.352-32 32-32h384c17.632 0 32 14.353 32 32L275.184 297.64z"/></symbol><symbol id="like" viewBox="0 0 512 512.1356"><path d="M466.624 167.56c-20-5.248-67.024-5.184-135.808-7.008 3.248-15.008 4-28.544 4-52.576C334.816 50.57 292.992.008 256 .008c-26.128 0-47.664 21.36-48 47.632-.352 32.224-10.32 87.873-64 116.096-3.936 2.08-15.2 7.633-16.848 8.353l.848.72c-8.4-7.25-20.048-12.802-32-12.802H48c-26.464 0-48 21.536-48 48v256c0 26.465 21.536 48 48 48h48c19.04 0 34.976-11.504 42.688-27.632.192.065.528.16.752.193 1.056.287 2.304.59 3.824.99.288.08.432.113.736.192 9.216 2.288 26.96 6.528 64.88 15.248 8.128 1.856 51.072 11.01 95.552 11.01h87.472c26.656 0 45.872-10.257 57.312-30.85.16-.32 3.84-7.504 6.848-17.216 2.256-7.312 3.088-17.664.368-28.16 17.184-11.808 22.72-29.664 26.32-41.28 6.032-19.056 4.224-33.376.032-43.632 9.664-9.12 17.904-23.024 21.376-44.256 2.16-13.152-.16-26.688-6.224-37.952 9.056-10.176 13.184-22.976 13.664-34.816l.192-3.344c.112-2.095.208-3.39.208-8 0-20.207-14-45.983-45.376-54.944zM112 464.01c0 8.847-7.152 16-16 16H48c-8.848 0-16-7.153-16-16v-256c0-8.85 7.152-16 16-16h48c8.848 0 16 7.15 16 16v256zm367.632-231.44c-.32 7.903-3.632 23.44-31.632 23.44h-32c-4.432 0-8 3.583-8 8s3.568 8 8 8h31.008s27.152 19.903 25.6 29.503c-1.984 11.936-7.584 34.496-34.608 34.496h-38c-4.432 0-8 3.567-8 8 0 4.4 3.568 8 8 8h31.504c27.008 0 24.624 20.59 20.752 32.88-5.104 16.143-8.224 31.12-42.256 31.12h-26.096c-4.432 0-8 3.567-8 8 0 4.4 3.568 8 8 8h25.088c17.504 0 18.32 16.56 16.496 22.495-2 6.496-4.368 11.312-4.464 11.536-4.832 8.72-12.624 13.97-29.12 13.97h-87.472c-43.936 0-87.52-9.97-88.64-10.225-66.464-15.312-69.968-16.496-74.144-17.68 0 0-13.536-2.288-13.536-14.096L128 217.016c0-7.504 4.784-14.288 12.704-16.672.992-.384 2.336-.8 3.296-1.2 73.088-30.272 95.344-96.64 96-151.136.096-7.665 6-16 16-16 16.912 0 46.816 33.95 46.816 75.967 0 37.935-1.536 44.495-14.816 84.03 160 0 158.88 2.305 172.992 6 17.504 5.01 19.008 19.505 19.008 24.498 0 5.488-.16 4.688-.368 10.064zM72 416.01c-13.248 0-24 10.75-24 24s10.752 24 24 24 24-10.753 24-24-10.752-24-24-24zm0 32c-4.4 0-8-3.6-8-8s3.6-8 8-8 8 3.6 8 8-3.6 8-8 8z"/></symbol><symbol id="photo" viewBox="0 0 512 512.1356"><path d="M432 .01H80c-35.344 0-64 28.654-64 63.998v384c0 35.345 28.656 64 64 64h352c35.344 0 64-28.656 64-64v-384c0-35.343-28.656-64-64-64zm32 447.998c0 17.633-14.368 32-32 32H80c-17.648 0-32-14.367-32-32v-384c0-17.647 14.352-32 32-32h352c17.632 0 32 14.353 32 32v384zm-48-384H96c-8.848 0-16 7.153-16 16v288c0 8.85 7.152 16 16 16h320c8.848 0 16-7.15 16-16v-288c0-8.847-7.152-16-16-16zm0 16v221.904l-52-56.48c-3.056-3.456-7.408-5.423-12-5.423s-8.976 1.967-12 5.423l-41.664 47.2L172 149.433c-3.04-3.457-7.408-5.424-12-5.424s-8.96 1.966-12 5.423L96 209.4V80.008h320zm-320 153.6l64-73.6 129.056 146.29 9.28 10.527 44.192 51.184H96v-134.4zm267.84 134.4l-54.848-63.28L352 256.01l64 70.065v41.936h-52.16zm-43.84-160c26.496 0 48-21.488 48-48s-21.504-48-48-48c-26.528 0-48 21.49-48 48s21.472 48 48 48zm0-80c17.632 0 32 14.352 32 32s-14.368 32-32 32c-17.664 0-32-14.352-32-32s14.336-32 32-32z"/></symbol><symbol id="note" viewBox="0 0 512 512.1356"><path d="M502.624 121.368l-96-96c-6-6-14.16-9.36-22.624-9.36H48c-26.464 0-48 21.52-48 48v384c0 26.465 21.536 48 48 48h416c26.464 0 48-21.535 48-48v-304c0-8.496-3.376-16.64-9.376-22.64zM480 448.008c0 8.85-7.152 16-16 16H48c-8.848 0-16-7.15-16-16v-384c0-8.847 7.152-16 16-16h320v64h-.032c0 26.513 21.504 48 48 48H480v288zm-48.032-304h-16c-17.632 0-32-14.35-32-32H384v-64l96 96h-48.032zM248 128.01c-4.416 0-8-3.568-8-8 0-4.431 3.584-8 8-8h80c4.4 0 8 3.585 8 8 0 4.416-3.6 8-8 8h-80zm0 48c-4.416 0-8-3.584-8-8s3.584-8 8-8h80c4.4 0 8 3.584 8 8s-3.6 8-8 8h-80zm-8 40c0-4.431 3.584-8 8-8h192c4.4 0 8 3.584 8 8s-3.6 8-8 8H248c-4.416 0-8-3.584-8-8zm200 88c4.4 0 8 3.57 8 8 0 4.4-3.6 8-8 8H72c-4.416 0-8-3.6-8-8 0-4.43 3.584-8 8-8h368zm0 48c4.4 0 8 3.57 8 8 0 4.4-3.6 8-8 8H72c-4.416 0-8-3.6-8-8 0-4.43 3.584-8 8-8h368zm0 48c4.4 0 8 3.57 8 8 0 4.4-3.6 8-8 8H72c-4.416 0-8-3.6-8-8 0-4.43 3.584-8 8-8h368zm0-144c4.4 0 8 3.584 8 8 0 4.417-3.6 8-8 8H72c-4.416 0-8-3.567-8-8 0-4.43 3.584-8 8-8h368zm-360-32h112c8.848 0 16-7.152 16-16v-96c0-8.847-7.152-16-16-16H80c-8.848 0-16 7.153-16 16v96c0 8.832 7.152 16 16 16zm16-96h80v64H96v-64z"/></symbol><symbol id="clock" viewBox="0 0 512 512.1356"><path d="M240 160.01a16-16 180 1 0 32 0 16-16 180 1 0-32 0zm0 192a16-16 180 1 0 32 0 16-16 180 1 0-32 0zm-96-96a16-16 180 1 0 32 0 16-16 180 1 0-32 0zm192 0a16-16 180 1 0 32 0 16-16 180 1 0-32 0zm-163.888 67.87a16-16 180 1 0 32 0 16-16 180 1 0-32 0zm0-135.76a16-16 180 1 0 32 0 16-16 180 1 0-32 0zm135.76 135.76a16-16 180 1 0 32 0 16-16 180 1 0-32 0zM416 224.01c-1.12 0-2.064.527-3.152.64-5.568-27.922-18.72-52.898-36.752-73.506L353.12 26.152C350.32 11 337.088.01 321.664.01h-128c-15.424 0-28.64 11.007-31.472 26.159l-22.4 120.782C112.912 175.546 96 213.643 96 256.01c0 41.327 16.224 78.48 41.936 106.847l22.592 123.008C163.344 501 176.576 512.01 192 512.01h128c15.408 0 28.624-11.01 31.472-26.16l22.784-122.914c19.024-20.975 32.848-46.72 38.592-75.6 1.088.144 2.032.673 3.152.673 17.664 0 32-14.337 32-32 0-17.681-14.336-32-32-32zm-222.336-192l128-.002 16 86.192c-23.632-13.743-50.688-22.192-80-22.192-29.296 0-56.368 8.45-80 22.193l16-86.192zM320 480.006H192l-16-86.19c23.616 13.727 50.688 22.19 80 22.19 29.296 0 56.384-8.463 80-22.19l-16 86.19zm-64-96c-70.576 0-128-57.44-128-128 0-70.575 57.424-128 128-128s128 57.425 128 128c0 70.56-57.44 128-128 128zm79.056-207.583c1.936 1.935 2.128 5.055.448 7.183l-38.816 48.337-29.568 35.6c-3.024 2.91-7.184 4.4-11.184 4.43-4.304-.03-8.32-1.695-11.312-4.67-2.992-2.976-4.624-6.96-4.624-11.168 0-4.352 1.68-8.417 4.736-11.488l83.072-68.56c2.192-1.762 5.312-1.602 7.248.334z"/></symbol><symbol id="paperplane" viewBox="0 0 512 512.1356"><path d="M504.688 2.568C502.032.856 499.008.008 496 .008c-3.088 0-6.192.88-8.88 2.69l-480 319.998c-4.944 3.28-7.664 9.056-7.024 14.976.608 5.904 4.448 11.008 9.968 13.184l125.184 50.097 58.864 103.008c2.816 4.945 8.048 8 13.712 8.065H208c5.616 0 10.832-2.976 13.712-7.776l33.232-55.41 155.12 62.032c1.904.768 3.904 1.137 5.936 1.137 2.72 0 5.408-.69 7.84-2.065 4.224-2.368 7.12-6.528 7.936-11.312l80-480c1.04-6.288-1.744-12.592-7.088-16.064zM50.176 332.44l370.8-247.215-269.6 288.591c-1.424-.847-2.688-1.967-4.256-2.59L50.176 332.44zm112.848 52.625c-.032-.064-.08-.096-.112-.16L466 60.505 207.616 463.096l-44.592-78.03zm240.448 88.688l-136.656-54.656c-3.248-1.28-6.624-1.712-9.968-1.904L467.28 90.984l-63.808 382.767z"/></symbol><symbol id="params" viewBox="0 0 512 512.1356"><path d="M128 96.344V48.01C128 21.543 106.464.006 80 .006s-48 21.537-48 48v48.336c-19.328 14.64-32 37.569-32 63.665s12.672 49.023 32 63.63v240.37c0 26.463 21.536 48 48 48s48-21.537 48-48V223.64c19.328-14.59 32-37.535 32-63.63s-12.672-49.025-32-63.665zM64 48.01c0-8.85 7.152-16.002 16-16.002s16 7.152 16 16v33.6c-5.168-1.04-10.512-1.6-16-1.6s-10.832.56-16 1.6v-33.6zm32 415.998c0 8.85-7.152 16-16 16s-16-7.15-16-16V238.38c5.168 1.07 10.512 1.63 16 1.63s10.832-.56 16-1.632V464.01zm29.84-290.56c-.256.848-.48 1.68-.784 2.528-1.52 4.224-3.472 8.224-6.048 11.776-.064.096-.16.16-.224.256-2.784 3.808-6.096 7.184-9.856 10.032-.064.064-.112.096-.16.128-3.856 2.912-8.16 5.248-12.784 6.88-5.008 1.81-10.336 2.96-15.984 2.96s-10.976-1.152-16-2.976c-4.624-1.632-8.928-3.968-12.784-6.88-.048-.03-.096-.063-.16-.127-3.76-2.848-7.072-6.224-9.856-10.032-.064-.096-.16-.16-.224-.256-2.576-3.568-4.528-7.568-6.048-11.776-.304-.848-.528-1.68-.784-2.528C32.88 169.162 32 164.697 32 160.01c0-4.72.88-9.185 2.16-13.473.256-.85.48-1.68.784-2.497 1.504-4.224 3.456-8.224 6.048-11.808.064-.096.16-.16.224-.256 2.784-3.776 6.096-7.184 9.856-10.032.064-.032.112-.096.16-.128 3.84-2.864 8.144-5.216 12.768-6.864 5.024-1.79 10.352-2.944 16-2.944s10.976 1.153 16 2.945c4.624 1.663 8.928 4 12.784 6.88.048.03.096.095.16.127 3.76 2.85 7.072 6.257 9.856 10.033.064.096.16.16.224.256 2.576 3.566 4.528 7.566 6.032 11.79.304.817.544 1.65.784 2.496 1.28 4.288 2.16 8.752 2.16 13.472 0 4.688-.88 9.153-2.16 13.44zM480 96.344V48.01C480 21.543 458.464.006 432 .006s-48 21.537-48 48v48.336c-19.344 14.64-32 37.569-32 63.665s12.656 49.023 32 63.63v240.37c0 26.463 21.536 48 48 48s48-21.537 48-48V223.64c19.312-14.59 32-37.535 32-63.63s-12.688-49.025-32-63.665zM416 48.01c0-8.85 7.152-16.002 16-16.002s16 7.152 16 16v33.6c-5.184-1.04-10.528-1.6-16-1.6-5.504 0-10.848.56-16 1.6v-33.6zm32 415.998c0 8.85-7.152 16-16 16s-16-7.15-16-16V238.38c5.152 1.07 10.496 1.63 16 1.63 5.472 0 10.816-.56 16-1.632V464.01zm29.84-290.56c-.256.848-.496 1.68-.784 2.528-1.536 4.224-3.472 8.224-6.064 11.776-.064.096-.16.16-.224.256-2.784 3.808-6.096 7.184-9.84 10.032-.064.064-.128.096-.16.128-3.872 2.912-8.16 5.248-12.784 6.88-5.008 1.81-10.352 2.96-15.984 2.96-5.664 0-10.976-1.152-16-2.976-4.624-1.632-8.944-3.968-12.784-6.88-.064-.03-.096-.063-.16-.127-3.776-2.848-7.088-6.224-9.872-10.032-.064-.096-.16-.16-.224-.256-2.56-3.568-4.528-7.568-6.032-11.776-.32-.848-.528-1.68-.784-2.528-1.264-4.27-2.144-8.736-2.144-13.423 0-4.72.88-9.185 2.16-13.473.256-.85.464-1.68.784-2.497 1.504-4.224 3.472-8.224 6.032-11.808.064-.096.16-.16.224-.256 2.784-3.776 6.096-7.184 9.872-10.032.064-.032.096-.096.16-.128 3.84-2.88 8.16-5.216 12.784-6.88 5.008-1.776 10.32-2.928 15.984-2.928 5.632 0 10.976 1.153 16 2.945 4.624 1.663 8.912 4 12.784 6.88.032.03.096.095.16.127 3.744 2.85 7.056 6.257 9.84 10.033.064.096.16.16.224.256 2.592 3.6 4.528 7.6 6.064 11.807.288.816.528 1.664.784 2.496 1.264 4.272 2.144 8.736 2.144 13.456 0 4.686-.88 9.15-2.16 13.44zM304 288.344V48.01C304 21.543 282.464.006 256 .006s-48 21.537-48 48v240.337c-19.328 14.624-32 37.568-32 63.664s12.672 49.023 32 63.63v48.37c0 26.463 21.536 48 48 48s48-21.537 48-48v-48.37c19.312-14.59 32-37.535 32-63.63s-12.688-49.025-32-63.666zM240 48.01c0-8.85 7.152-16.002 16-16.002 8.848 0 16 7.152 16 16v225.6c-5.184-1.024-10.528-1.6-16-1.6-5.488 0-10.832.56-16 1.6v-225.6zm32 415.998c0 8.85-7.152 16-16 16-8.848 0-16-7.15-16-16v-33.63c5.168 1.07 10.512 1.63 16 1.63 5.472 0 10.816-.56 16-1.63v33.63zm29.84-98.56c-.256.85-.496 1.68-.784 2.53-1.536 4.223-3.472 8.223-6.064 11.775-.064.096-.16.16-.224.256-2.784 3.807-6.096 7.183-9.84 10.03-.064.064-.128.096-.16.128-3.872 2.912-8.16 5.248-12.784 6.88-5.008 1.808-10.352 2.96-15.984 2.96-5.648 0-10.976-1.15-16-2.975-4.624-1.632-8.928-3.968-12.784-6.88-.048-.032-.096-.064-.16-.128-3.76-2.848-7.072-6.224-9.856-10.032-.064-.096-.16-.16-.224-.256-2.576-3.568-4.528-7.568-6.048-11.776-.304-.847-.528-1.68-.784-2.527-1.264-4.272-2.144-8.736-2.144-13.424 0-4.72.88-9.185 2.16-13.473.256-.848.48-1.68.784-2.496 1.52-4.223 3.472-8.223 6.048-11.807.064-.096.16-.16.224-.256 2.784-3.776 6.096-7.184 9.856-10.032.064-.032.112-.096.16-.128 3.856-2.88 8.16-5.216 12.784-6.88 5.008-1.776 10.336-2.928 15.984-2.928 5.632 0 10.976 1.15 16 2.943 4.624 1.664 8.912 4 12.784 6.88.032.032.096.096.16.128 3.744 2.85 7.056 6.257 9.84 10.033.064.096.16.16.224.256 2.592 3.598 4.528 7.598 6.064 11.806.288.816.528 1.664.784 2.496 1.264 4.272 2.144 8.736 2.144 13.457 0 4.687-.88 9.15-2.16 13.44z"/></symbol><symbol id="banknote" viewBox="0 0 512.0118 512.1356"><path d="M502.644 169.385l-160-160c-7.936-7.936-19.44-11.12-30.336-8.432-5.744 1.408-10.88 4.368-14.944 8.432-3.632 3.632-6.368 8.128-7.936 13.152C282.18 46.04 269.652 66.472 251.108 85c-24.768 24.752-57.024 43.505-91.152 63.328-36.224 20.992-73.648 42.752-104.32 73.408-26.064 26.096-43.808 55.12-54.208 88.816-3.504 11.376-.448 23.68 7.936 32.096l160 160c7.936 7.936 19.44 11.12 30.336 8.432 5.744-1.44 10.88-4.367 14.944-8.43 3.632-3.633 6.368-8.13 7.936-13.185 7.264-23.504 19.792-43.936 38.352-62.464 24.752-24.752 56.992-43.472 91.152-63.28 36.192-21.024 73.632-42.784 104.288-73.44 26.064-26.063 43.808-55.12 54.224-88.815 3.488-11.36.416-23.713-7.952-32.08zM192.004 480.01c-52.992-52.993-107.008-107.025-160-160 45.472-147.217 242.56-140.785 288-288 52.992 52.975 107.024 107.007 160.032 160-45.488 147.183-242.576 140.783-288.032 288zm120.992-241.6c-5.216-4.37-10.464-7.345-15.744-8.817-5.248-1.472-10.496-2.064-15.808-1.68-5.248.4-10.624 1.6-16 3.663-5.376 2.096-10.784 4.368-16.224 7.008-8.592-9.872-17.184-19.632-25.776-28.688 3.872-3.503 7.632-5.28 11.248-5.407 3.632-.16 7.12.223 10.432 1.055 3.376.848 6.464 1.568 9.312 2.128 2.88.56 5.376-.064 7.568-1.904 2.32-2 3.6-4.593 3.776-7.713.16-3.152-1.024-6.224-3.664-9.216-3.376-3.87-7.44-6.223-12.32-7.087-4.816-.848-9.744-.784-14.88.336-5.056 1.15-9.872 3.055-14.432 5.743s-8.224 5.44-10.944 8.128c-1.04-.99-2.08-1.967-3.12-2.943-1.152-1.056-2.592-1.632-4.32-1.6-1.744 0-3.184.752-4.368 2.128-1.152 1.344-1.68 2.912-1.472 4.56.16 1.712.848 3.024 2.032 4.032 1.04.88 2.08 1.744 3.12 2.656-4.096 4.944-7.472 10.4-10.128 16.16-2.688 5.776-4.288 11.504-4.88 17.056-.624 5.6-.032 10.72 1.68 15.47 1.712 4.785 4.88 8.85 9.504 12.69 7.536 6.255 16.4 8.91 26.688 8.32 10.256-.625 21.312-3.68 33.2-10.065 9.44 10.912 18.912 21.744 28.368 31.808-4 3.376-7.504 5.312-10.592 5.936-3.088.654-5.84.59-8.336-.162-2.496-.784-4.816-1.904-6.944-3.344-2.128-1.472-4.224-2.72-6.32-3.744-2.064-1.024-4.192-1.6-6.368-1.632s-4.496 1.024-7.056 3.216c-2.624 2.288-3.936 4.944-3.936 7.936 0 2.976 1.376 6 4.064 9.056 2.72 3.056 6.256 5.632 10.528 7.664s9.104 3.312 14.416 3.664c5.312.368 10.912-.432 16.816-2.624 5.936-2.16 11.808-6.064 17.6-11.872 2.784 2.72 5.6 5.312 8.4 7.808 1.184 1.024 2.624 1.536 4.368 1.408 1.68-.064 3.152-.848 4.32-2.256 1.184-1.44 1.68-3.024 1.504-4.688-.16-1.68-.848-2.976-2-3.904-2.816-2.256-5.632-4.624-8.432-7.12 4.784-5.872 8.624-12.064 11.472-18.192 2.848-6.16 4.528-12.096 5.088-17.6.56-5.536-.096-10.528-1.904-15.056-1.792-4.59-4.976-8.528-9.536-12.32zm-89.456 10.846c-4.528.192-8.48-1.312-11.936-4.656-1.472-1.408-2.496-3.12-3.12-5.152-.656-2.032-.88-4.256-.624-6.688.224-2.4.944-4.91 2.192-7.44 1.184-2.527 2.944-5.055 5.184-7.503 8.112 8.064 16.208 16.912 24.32 26.064-6.144 3.376-11.488 5.185-16.016 5.376zm75.472 32.032c-1.44 2.656-3.088 5.024-5.024 7.088-8.976-9.055-17.936-19.007-26.88-29.215 2.288-1.024 4.688-2.096 7.28-3.184s5.184-1.807 7.776-2.255c2.656-.4 5.28-.287 7.904.337 2.592.656 5.056 2.064 7.344 4.288 2.256 2.256 3.68 4.592 4.256 7.12.624 2.56.656 5.152.224 7.808-.464 2.67-1.408 5.327-2.88 8.015zm-63.536 73.6c3.152-2.543 7.792-2.415 10.688.53 3.136 3.118 3.136 8.222 0 11.342-.256.257-.528.433-.816.656l.032.033c-10.128 7.695-18.448 14.623-27.424 23.599-8.112 8.094-15.44 16.623-21.776 25.28l-10.224 14c-.32.575-.704 1.103-1.184 1.6-3.136 3.118-8.24 3.118-11.36-.002-2.72-2.72-3.056-6.91-1.056-10.03l-.032-.034 10.944-14.943c6.832-9.344 14.688-18.495 23.376-27.184 9.04-9.072 18.8-17.168 28.8-24.847h.032zm58.576-231.44c8.096-8.095 15.408-16.59 21.76-25.295l10.624-14.56c.384-.69.816-1.377 1.408-1.97 3.152-3.15 8.256-3.15 11.408 0 2.992 3.01 3.12 7.76.4 10.945l.032.032-10.944 15.01c-6.848 9.343-14.688 18.463-23.376 27.15-9.04 9.04-18.784 17.17-28.784 24.849l-.064-.034c-3.184 2.93-8.128 2.864-11.184-.224-3.152-3.15-3.152-8.287 0-11.44.56-.59 1.216-1.007 1.872-1.376 9.408-7.184 18.48-14.72 26.848-23.088z"/></symbol><symbol id="data" viewBox="0 0 512 512.1356"><path d="M256 .01c-107.904 0-224 32.526-224 104v303.998c0 71.44 116.096 104 224 104 107.888 0 224-32.56 224-104v-304c0-71.472-116.128-104-224-104zm192 407.998c0 39.745-85.968 72-192 72-106.048 0-192-32.255-192-72v-59.775c33.056 34.063 112.8 51.776 192 51.776s158.944-17.713 192-51.777v59.776zm0-96h-.064c0 .16.064.337.064.497 0 39.504-85.968 71.504-192 71.504s-192-32-192-71.505c0-.16.064-.336.064-.496H64v-59.777c33.056 34.063 112.8 51.776 192 51.776s158.944-17.713 192-51.777v59.776zm0-96h-.064c0 .16.064.336.064.496 0 39.505-85.968 71.505-192 71.505s-192-32-192-71.505c0-.16.064-.336.064-.496H64V161.03c41.936 31.952 118.8 46.976 192 46.976s150.064-15.025 192-46.977v54.976zm-192-40c-106.048 0-192-32.256-192-72 0-39.775 85.952-72 192-72 106.032 0 192 32.224 192 72 0 39.745-85.968 72-192 72zm128 240a16-16 180 1 0 32 0 16-16 180 1 0-32 0zm0-96a16-16 180 1 0 32 0 16-16 180 1 0-32 0zm0-96a16-16 180 1 0 32 0 16-16 180 1 0-32 0z"/></symbol><symbol id="music" viewBox="0 0 512.0237 512.1356"><path d="M500.584 7.513c-5.808-4.88-13.088-7.505-20.56-7.505-1.84 0-3.712.16-5.568.496l-272.032 48c-15.296 2.69-26.432 15.968-26.432 31.505v274.718c-16.24-11.776-37.312-18.72-60.704-18.72-13.6 0-27.2 2.257-40.464 6.657-30.368 10.127-54.72 30.43-66.816 55.743-9.344 19.568-10.544 40.848-3.424 59.936 12.176 32.608 46.768 53.665 88.128 53.665 13.6 0 27.2-2.225 40.448-6.657 30.352-10.096 54.704-30.4 66.8-55.68 5.2-10.912 7.632-22.336 7.728-33.664h.288v-256c1.84 0 3.712-.16 5.568-.465l266.48-47.024v194.21c-16.256-11.778-37.312-18.72-60.72-18.72-13.6 0-27.216 2.255-40.464 6.655-30.368 10.128-54.72 30.432-66.784 55.744-9.344 19.566-10.56 40.846-3.44 59.934 12.192 32.608 46.752 53.665 88.128 53.665 13.6 0 27.216-2.225 40.464-6.657 30.336-10.096 54.688-30.4 66.784-55.68 5.216-10.912 7.632-22.336 7.744-33.664h.288V32.007c0-9.44-4.192-18.432-11.44-24.496zM123.016 475.017c-38.336 12.784-77.968.288-88.464-27.84-10.528-28.16 12.016-61.344 50.336-74.128 38.336-12.785 77.968-.32 88.464 27.84 10.544 28.143-12 61.343-50.336 74.127zm303.44-48c-38.368 12.784-78 .288-88.496-27.84-10.528-28.16 12.032-61.344 50.336-74.128 38.368-12.785 78-.32 88.496 27.84 10.544 28.143-11.984 61.343-50.336 74.127zm52.912-347.01l-272.032 48v-48l272.032-48v48z"/></symbol><symbol id="megaphone" viewBox="0 0 512 512.1356"><path d="M400 .01c-32.848 0-58.656 22.558-77.184 57.374l-.336-.192c-26.912 52.688-66.976 86.816-110.864 86.816H64c-35.888 0-64 35.152-64 80 0 44.88 28.112 80 64 80 17.648.065 31.92 14.337 31.92 32v144c0 17.68 14.336 32 32 32h64c17.664 0 32-14.32 32-32v-16c0-16-16-23.15-16-32v-112c0-.367.256-.623.288-.99.16-2.29.784-4.4 1.792-6.32.288-.53.592-.945.944-1.41 1.28-1.904 2.896-3.472 4.864-4.688.096-.064.128-.16.224-.224.064 0 .112-.063.176-.063 1.28-.72 2.816-.88 4.256-1.28 40.384 4.288 76.944 36.88 102.032 85.968l.4-.19c18.544 34.702 44.288 57.2 77.104 57.2 73.536 0 112-112.69 112-224S473.536.01 400 .01zm-80 224c0-16.593.976-32.625 2.624-48H368c17.664 0 32 21.503 32 48 0 26.527-14.336 48-32 48h-45.376c-1.648-15.377-2.624-31.377-2.624-48zm-288 0c0-26.497 14.336-48 32-48H176.224c-9.92 11.663-16.224 28.59-16.224 48 0 19.44 6.304 36.367 16.224 48H64c-17.664 0-32-21.474-32-48zm159.92 256h-64v-144c0-11.665-3.12-22.56-8.592-32h11.168v.19h48.128c-1.712 4.977-2.704 10.257-2.704 15.81v112c0 15.407 8.608 25.663 13.744 31.775.704.848 1.536 1.712 2.256 2.656v13.57zm19.696-207.81H208v-.19c-17.664 0-32-21.473-32-48 0-26.497 14.336-48 32-48h3.616c30.176 0 58.432-11.873 83.296-32.29-4.576 25.76-6.912 53.04-6.912 80.288 0 27.344 2.336 54.72 6.944 80.496-24.88-20.432-53.152-32.304-83.328-32.304zM400 416.01c-32.288 0-60-45.937-72.656-112H368c35.872 0 64-35.12 64-80 0-44.85-28.128-80-64-80h-40.656C340 77.976 367.712 32.01 400 32.01c44.192-.002 80 85.966 80 192s-35.808 192-80 192z"/></symbol><symbol id="study" viewBox="0 0 512 512.1356"><path d="M512 128.01c0-22.497-15.312-41.73-37.216-46.785L266.576 33.177c-3.488-.785-7.04-1.17-10.576-1.17-3.536.002-7.088.386-10.8 1.218l-207.984 48C15.296 86.28 0 105.513 0 128.01s15.312 41.727 37.2 46.783l42.8 9.87V320.01c0 42.463 48.608 80 176 80s176-37.537 176-80V184.664l42.784-9.872C496.688 169.737 512 150.505 512 128.008zm-112 192c0 17.68-48 48-144 48s-144-30.32-144-48V192.056l133.408 30.784c3.488.785 7.056 1.168 10.592 1.168 3.536 0 7.104-.384 10.784-1.216L400 192.056V320.01zm-140.4-128.4c-1.2.254-2.4.398-3.6.398s-2.416-.144-3.6-.4l-208-48c-7.264-1.68-12.4-8.144-12.4-15.6s5.136-13.92 12.4-15.6l208-48c1.184-.255 2.384-.4 3.6-.4s2.416.145 3.6.4l208 48c7.248 1.68 12.4 8.144 12.4 15.6s-5.152 13.92-12.4 15.6l-208 48zM464 208.006c0-8.847 7.152-16 16-16 8.832 0 16 7.153 16 16v144c0 8.85-7.168 16-16 16-8.848 0-16-7.15-16-16v-144zm16 176c17.664 0 32 46.337 32 64 0 17.665-14.336 32-32 32-17.68 0-32-14.335-32-32 0-17.663 14.32-64 32-64z"/></symbol><symbol id="lab" viewBox="0 0 512.008 512.1356"><path d="M330.92 59.72c-7.568-7.55-17.6-11.712-28.288-11.712s-20.72 4.16-28.32 11.728l-22.56 22.593c-7.568 7.55-11.744 17.599-11.744 28.302 0 7.536 2.064 14.752 5.936 21.008L28.712 218.666C14.184 225.048 3.768 238.153.84 253.69c-2.96 15.63 2 31.663 13.344 42.99l203.52 201.28c8.768 8.77 20.416 13.745 32.72 14.033.288.016.96.016 1.248.016 3.232 0 6.512-.337 9.76-.993 15.904-3.296 28.928-14.288 34.832-29.248l85.472-214.017c6.432 4.24 14 6.512 21.872 6.512 10.72 0 20.752-4.176 28.288-11.728l22.512-22.528c7.632-7.585 11.808-17.65 11.808-28.37s-4.192-20.8-11.712-28.287L330.92 59.72zm-64.368 410.16c-1.984 5.008-6.352 8.704-11.632 9.792-1.216.256-2.448.352-3.664.336-4.064-.096-7.984-1.728-10.912-4.672L36.696 273.928c-3.744-3.728-5.392-9.072-4.4-14.288.976-5.184 4.464-9.568 9.312-11.68l99.472-39.84c67.024 22.288 134.064.816 201.12 72.352l-75.648 189.41zM431.88 217.29l-22.624 22.607c-3.12 3.136-8.192 3.136-11.312 0l-28.288-28.272-22.912 57.424 1.904-4.85c-48.16-48.08-97.104-54.144-141.264-59.568-14.192-1.744-27.952-3.568-41.472-6.48l135.856-54.415-27.44-27.44c-3.12-3.12-3.12-8.192 0-11.312l22.624-22.64c3.12-3.12 8.192-3.12 11.312 0l123.6 123.632c3.168 3.12 3.168 8.19.016 11.31zM264.008 336.01c22.048 0 40-17.937 40-40s-17.936-40-40-40-40 17.935-40 40 17.952 40 40 40zm0-64c13.248 0 24 10.75 24 24s-10.752 24-24 24c-13.264 0-24-10.753-24-24s10.736-24 24-24zm208-272c-22.064 0-40 17.934-40 39.998s17.936 40 40 40 40-17.935 40-40-17.936-40-40-40zm0 63.998c-13.248 0-24-10.75-24-24s10.752-24 24-24 24 10.753 24 24-10.752 24-24 24zm-344 208c0 17.65 14.352 32 32 32s32-14.35 32-32-14.352-32-32-32-32 14.352-32 32zm32-16c8.832 0 16 7.153 16 16s-7.168 16-16 16-16-7.15-16-16 7.168-16 16-16zm32 112a16-16 180 1 0 32 0 16-16 180 1 0-32 0zm256-240a16-16 180 1 0 32 0 16-16 180 1 0-32 0z"/></symbol><symbol id="food" viewBox="0 0 512.0065 512.1356"><path d="M472 336.01h-43.056c-.72-3.825-1.6-7.57-2.56-11.297l76.784-38.384c7.904-3.953 11.088-13.57 7.152-21.473-3.968-7.904-13.536-11.072-21.472-7.152L415.6 294.313C387.664 234.025 326.72 192.01 256 192.01c-86.112 0-157.84 62.207-172.944 144H40c-22.048 0-40 17.935-40 40 0 7.84 2.88 15.407 8.08 21.263L64 460.183v11.826c0 22.063 17.952 40 40 40h304c22.064 0 40-17.937 40-40v-11.825l55.904-62.912c5.216-5.857 8.096-13.425 8.096-21.264 0-22.065-17.936-40-40-40zm-59.216 0h-8.992l7.968-4c.304 1.343.736 2.64 1.024 4zM256 208.01c64.464 0 120 38.4 145.312 93.455l-14.256 7.12C364.4 258.745 314.32 224.01 256 224.01c-68.512 0-125.744 47.887-140.32 112H99.232c14.864-72.945 79.504-128 156.768-128zm73.216 128c-12.368-28.21-40.496-48-73.216-48s-60.832 19.79-73.216 48H165.6c13.216-37.217 48.688-64 90.4-64 39.44 0 73.408 23.935 88.128 58.03l-11.904 5.97h-3.008zm-73.216-16c-14.128 0-26.72 6.255-35.52 16h-19.584c11.104-19.025 31.52-32 55.104-32 23.568 0 44 12.975 55.088 32h-19.6c-8.768-9.745-21.36-16-35.488-16zm0-64c-50.64 0-93.472 33.79-107.28 80h-16.512c14.272-55.105 64.272-96 123.792-96 51.936 0 96.688 31.167 116.72 75.743l-14.288 7.136C341.024 283.576 301.68 256.01 256 256.01zm160 192v24c0 4.415-3.6 8-8 8H104c-4.416 0-8-3.585-8-8v-24l-64-72c0-4.418 3.584-8 8-8h432c4.4 0 8 3.583 8 8l-64 72zM127.632 187.4c-.112-.224-.192-.43-.288-.672-8.304-20.048-.048-39.712 7.408-57.456 7.056-16.83 13.312-31.743 6.848-46.287-.032-.064-.048-.13-.08-.192l-.048-.145c-.016-.03-.016-.063-.016-.096-.32-.848-.512-1.744-.512-2.704 0-4.32 3.504-7.84 7.84-7.84 3.328 0 6.16 2.08 7.296 5.008 8.928 20.337.816 40.337-6.752 58.353-7.008 16.67-12.704 32.16-6.704 46.27.032.113.032.21 0 .32.176.64.288 1.313.288 2 0 4.433-3.6 8.048-8.032 8.048-3.104 0-5.76-1.76-7.088-4.32h-.032c-.048-.095-.08-.19-.128-.287zm194.832-2.335c-.096-.208-.176-.433-.256-.64-8.304-20.05-.064-39.73 7.376-57.473 7.072-16.83 13.312-31.743 6.848-46.287 0-.065-.032-.13-.064-.193-.032-.047-.032-.096-.064-.143v-.097c-.304-.85-.528-1.745-.528-2.705 0-4.32 3.52-7.84 7.84-7.84 3.344 0 6.16 2.064 7.312 5.008 8.928 20.337.816 40.337-6.752 58.352-7.008 16.672-12.688 32.16-6.72 46.273.064.113.064.21.032.32.16.64.288 1.313.288 2 0 4.433-3.632 8.05-8.064 8.05-3.088 0-5.744-1.778-7.088-4.338h-.032c-.032-.096-.064-.19-.128-.287zm-82.16-69.665c-.112-.224-.192-.43-.304-.656-8.32-20.047-.064-39.728 7.392-57.471 7.056-16.833 13.312-31.745 6.848-46.288-.016-.064-.048-.128-.064-.192l-.048-.144c-.016-.034-.016-.066-.016-.098-.32-.848-.512-1.743-.512-2.704 0-4.32 3.52-7.84 7.84-7.84 3.344 0 6.16 2.08 7.312 5.024 8.928 20.337.816 40.337-6.752 58.353-7.008 16.672-12.704 32.16-6.704 46.27.032.114.032.21 0 .322.176.64.288 1.31.288 2 0 4.431-3.6 8.047-8.032 8.047-3.088 0-5.744-1.775-7.088-4.335h-.032c-.048-.097-.08-.194-.128-.29z"/></symbol><symbol id="t-shirt" viewBox="0 0 512 512.1356"><path d="M500 103.016l-80-64c-5.68-4.544-12.752-7.008-20-7.008H112c-7.264 0-14.32 2.464-20 7.008l-80 64c-10.464 8.384-14.592 22.4-10.352 35.12l32 96c3.152 9.457 10.544 16.913 19.984 20.145 3.36 1.153 6.88 1.73 10.368 1.73 5.568 0 11.088-1.457 16-4.29v196.29c0 17.663 14.336 32 32 32h288c17.664 0 32-14.337 32-32V251.72c4.912 2.833 10.432 4.29 16 4.29 3.504 0 7.008-.577 10.368-1.73 9.44-3.23 16.816-10.687 19.968-20.143l32-96c4.256-12.72.128-26.737-10.336-35.12zM316.064 64.008c-8.848 18.577-32.288 32-60.064 32-27.776 0-51.232-13.423-60.064-32h120.128zM448 224.01l-48-32v256H112v-256l-48 32-32-96 80-64h66.832c8.912 27.553 39.936 48 77.168 48 37.216 0 68.256-20.447 77.152-48H400l80 64-32 96z"/></symbol><symbol id="fire" viewBox="0 0 512 512.1356"><path d="M352 144.01c-.992 42.8-33.12 78.943-33.12 78.943 0-79.617-62.88-142.945-62.88-142.945s-.848 47.393-32.688 95.17C191.472 63.703 95.92.007 95.92.007 143.696 175.178 80 238.89 80 366.282c0 74.737 63.264 145.73 160 145.73 143.312 0 171.024-52.61 185.84-111.89 20.416-81.615-10.16-176.495-73.84-256.11zm42.816 248.334C384.528 433.45 372.912 480.01 240 480.01c-80.128 0-128-57.825-128-113.73 0-42.815 7.808-77.967 16.064-115.183 10.496-47.184 21.248-95.488 16.592-159.376 49.344 68.305 66.912 158.8 66.912 158.8s45.936-64.495 58.288-94.447C279.312 175.32 288 240.008 288 304.01c0 0 42.496-35.01 74.368-87.65 33.568 60.192 45.664 123.12 32.448 175.984zM358.912 268.73l2.976 16.558c6.656 37.09 2.928 80.928-9.472 111.712-1.248 3.12-4.256 5.01-7.408 5.01-1.008 0-2.032-.193-3.008-.577-4.096-1.65-6.096-6.305-4.432-10.4 9.344-23.185 13.28-55.825 10.784-85.65-16.064 17.954-36.304 36.658-79.552 57.202l-8.096 3.824-2.912-8.45c-5.792-16.8-11.632-33.775-14.16-57.44-8.656 13.65-16.56 25.81-29.84 43.89l-8.128 11.07-5.632-12.543c-13.776-30.8-24.272-54.849-32.592-76-7.696 24.72-13.44 53.31-13.44 111.055 0 4.416-3.6 8-8 8-4.432 0-8-3.584-8-8 0-75.344 10-104.368 20.56-135.104l8.32-24.16 7.664 21.6c8.24 23.217 19.088 48.8 34.432 83.393 10.112-14.288 16.896-25.04 25.088-38.016l24.288-38.048V275c0 30.784 5.536 50.897 11.632 69.168 42.544-21.408 58.48-40.03 75.328-59.68l13.6-15.76z"/></symbol><symbol id="clip" viewBox="0 0 512.012 512.1356"><path d="M469.82 74.2c56.256 56.224 56.256 147.41 0 203.632L294.348 453.32c-6.256 6.272-16.368 6.272-22.624 0-6.288-6.255-6.288-16.35 0-22.623L444.94 257.464c43.744-43.744 43.744-114.624-.032-158.383-43.68-43.743-114.624-43.743-158.368 0L55.388 327.514c-31.248 31.232-31.248 81.888 0 113.12 31.248 31.248 81.872 31.248 113.12 0l233.44-230.672c18.72-18.72 18.72-49.168 0-67.888-18.72-18.704-49.152-18.704-67.872 0L158.572 317.577c-6.256 6.255-16.368 6.255-22.624 0-6.256-6.272-6.256-16.368 0-22.64l175.488-175.49c31.216-31.23 81.872-31.23 113.12 0 31.248 31.25 31.248 81.89 0 113.137l-233.44 230.688c-43.648 43.665-114.704 43.665-158.368 0-43.664-43.663-43.664-114.736 0-158.4L266.188 74.2c56.224-56.255 147.408-56.255 203.632 0z"/></symbol><symbol id="shop" viewBox="0 0 512 512.1356"><path d="M502.4 179.208l-48-63.968c-1.872-2.512-4.096-4.688-6.4-6.768V32.01C448 14.342 433.664.006 416 .006H96c-17.68 0-32 14.337-32 32v76.48c-2.304 2.064-4.528 4.225-6.4 6.72L9.616 179.194C3.408 187.447 0 197.672 0 208.007v16c0 26.464 21.536 48 48 48v208c0 17.665 14.336 32 32 32h352c17.664 0 32-14.336 32-32v-208c26.464 0 48-21.535 48-48v-16c0-10.335-3.408-20.56-9.6-28.8zM416 32.008v64H96v-64h320zm-252.912 208H96.064l64-112h35.024l-32 112zm48.656-112H248v112h-68.256l32-112zm52.256 0h36.256l32 112H264v-112zm52.88 0h35.024l64 112H348.88l-32-112zM32 224.01v-16c0-3.472 1.12-6.832 3.2-9.6l48-64c3.024-4.03 7.76-6.4 12.8-6.4h45.632l-64 112H48c-8.832 0-16-7.15-16-16zm288 256H200v-160h120v160zm112 0h-96v-160c0-8.847-7.184-16-16-16H200c-8.832 0-16 7.153-16 16v160H80v-208h352v208zm48-256c0 8.85-7.152 16-16 16h-29.664l-64-112H416c5.024 0 9.776 2.368 12.784 6.4l48 64c2.096 2.77 3.216 6.13 3.216 9.6v16z"/></symbol><symbol id="calendar" viewBox="0 0 512 512.1356"><path d="M469.344 48.008H400v-32c0-8.847-7.152-16-16-16s-16 7.153-16 16v32h-96v-32c0-8.847-7.168-16-16-16s-16 7.153-16 16v32h-96v-32c0-8.847-7.168-16-16-16s-16 7.152-16 16v32H42.672C19.104 48.008 0 67.1 0 90.665v378.672c0 23.567 19.104 42.672 42.672 42.672h426.672c23.568 0 42.656-19.106 42.656-42.673V90.663c0-23.567-19.088-42.656-42.656-42.656zM480 469.337c0 5.888-4.784 10.673-10.656 10.673H42.672c-5.888 0-10.672-4.786-10.672-10.673V90.663c0-5.87 4.784-10.656 10.672-10.656H112v32c0 8.85 7.168 16 16 16s16-7.152 16-16v-32h96v32c0 8.85 7.168 16 16 16s16-7.152 16-16v-32h96v32c0 8.85 7.152 16 16 16s16-7.152 16-16v-32h69.344c5.872 0 10.656 4.785 10.656 10.657v378.672zM112 192.01h64v48h-64zm0 80h64v48h-64zm0 80h64v48h-64zm112 0h64v48h-64zm0-80h64v48h-64zm0-80h64v48h-64zm112 160h64v48h-64zm0-80h64v48h-64zm0-80h64v48h-64z"/></symbol><symbol id="vallet" viewBox="0 0 512 512.1356"><path d="M256 320.01a32-32 180 1 0 64 0 32-32 180 1 0-64 0zm208.016-112c-.016 0-.016 0 0 0l-.016-96V64.006c0-26.51-21.504-48-48-48H88c-48.528 0-88 39.489-88 88v320c0 48.513 39.472 88 88 88h288c48.512 0 88-39.488 88-88v-24h.016c63.968-48.015 63.968-143.983 0-192zM88 48.008l264-.002h64c8.816 0 16 7.168 16 16v98.945c-5.024-1.792-10.368-2.945-16-2.945h-.016v-80c0-8.847-7.168-16-16-16h-336c-8.832 0-16 7.153-16 16v63.09C38.112 132.998 32 119.238 32 104.006c0-30.927 25.056-56 56-56zm311.984 47.998h-336v-16h336v16zm0 16v16h-336v-16h336zm0 32v16H88c-8.64 0-16.704-2.112-24-5.6v-10.4h335.984zm32.016 280c0 30.93-25.072 56-56 56H88c-30.944 0-56-25.07-56-56V171.834c15.216 12.59 34.736 20.175 56 20.175h328c8.816 0 16 7.168 16 16v32H288c-44.192 0-80 35.808-80 80s35.824 80 80 80h144v24zm20.432-56H288c-26.464 0-48-21.535-48-48s21.536-48 48-48h144c9.872-.127 19.664-4.91 25.632-12.863 1.664-2.24 2.96-4.752 4-7.376.144-.353.4-.625.528-.993C473.664 265.865 480 284.36 480 304.01c0 24.606-9.936 47.44-27.568 64z"/></symbol><symbol id="vynil" viewBox="0 0 512.1372 512.1356"><path d="M351.222 18.409c-131.232-52.545-280.24 11.23-332.8 142.48-52.576 131.263 11.232 280.287 142.48 332.83 131.248 52.56 280.256-11.232 332.816-142.48C546.294 219.976 482.47 70.986 351.222 18.41zM172.806 464.022C58.15 418.104 2.214 287.48 48.118 172.808 94.038 58.152 224.678 2.2 339.35 48.136c114.656 45.904 170.592 176.544 124.688 291.2-45.936 114.673-176.56 170.592-291.232 124.688zM267.99 226.36c-16.4-6.576-35.04 1.408-41.616 17.808s1.408 35.024 17.792 41.6c16.4 6.577 35.056-1.407 41.616-17.79 6.56-16.401-1.408-35.026-17.792-41.618zm-17.872 44.577c-8.192-3.296-12.176-12.608-8.912-20.816 3.296-8.19 12.624-12.175 20.816-8.91 8.176 3.28 12.16 12.607 8.896 20.815-3.28 8.192-12.608 12.175-20.8 8.912zm41.632-103.97c-49.216-19.71-105.088 4.225-124.8 53.425-19.712 49.217 4.224 105.09 53.424 124.8 49.216 19.712 105.088-4.208 124.8-53.424s-4.192-105.103-53.424-124.8zM232.294 315.48c-32.768-13.104-48.736-50.448-35.632-83.2 13.12-32.75 50.432-48.735 83.184-35.63 32.784 13.12 48.752 50.463 35.664 83.215-13.136 32.75-50.464 48.75-83.216 35.615zm142.624-11.824h-.032c-13.072 32.625-38.128 56.897-68.096 69.856-.112.048-.176.176-.336.24-4.064 1.728-8.752-.144-10.496-4.224-1.744-4.048.16-8.752 4.192-10.48 26.336-11.28 48.4-32.608 59.904-61.344v.017c1.648-4.112 6.304-6.112 10.4-4.448 4.096 1.632 6.096 6.288 4.464 10.385zm54.928 13.377c4.096 1.647 6.096 6.303 4.464 10.4-19.6 48.928-57.216 85.36-102.16 104.767-.192.08-.336.257-.528.353-4.064 1.728-8.752-.128-10.496-4.21-1.744-4.063.16-8.767 4.192-10.495 41.408-17.728 76.064-51.248 94.128-96.368 1.648-4.096 6.304-6.096 10.4-4.447zm-29.712-11.89c4.096 1.65 6.096 6.306 4.464 10.402-16.336 40.784-47.68 71.12-85.12 87.296-.176.097-.272.24-.432.32-4.064 1.728-8.752-.144-10.496-4.208-1.744-4.063.16-8.767 4.224-10.512h-.032c33.904-14.512 62.24-41.92 76.992-78.848 1.648-4.11 6.304-6.095 10.4-4.447zm-183.92-162.542c1.744 4.08-.144 8.77-4.208 10.53-26.336 11.263-48.4 32.607-59.888 61.31h-.016c-1.632 4.096-6.288 6.096-10.4 4.448-4.096-1.648-6.096-6.287-4.448-10.4h.016c13.056-32.607 38.128-56.895 68.096-69.856.112-.048.192-.175.336-.224 4.064-1.743 8.768.113 10.512 4.193zm-25.2-58.83c1.744 4.063-.144 8.75-4.192 10.51-41.408 17.728-76.048 51.25-94.128 96.352-1.648 4.112-6.304 6.096-10.4 4.448-4.112-1.632-6.112-6.288-4.448-10.416 19.6-48.927 57.2-85.343 102.16-104.767.16-.08.304-.257.496-.337 4.064-1.728 8.768.144 10.512 4.21zm8.384 39.903v.047c-33.872 14.496-62.224 41.92-76.992 78.85-1.648 4.11-6.304 6.08-10.4 4.447-4.08-1.665-6.096-6.304-4.432-10.416 16.32-40.767 47.664-71.135 85.12-87.328.16-.064.256-.224.416-.288 4.064-1.743 8.768.145 10.512 4.193 1.744 4.08-.16 8.767-4.208 10.495z"/></symbol><symbol id="truck" viewBox="0 0 512 512.1356"><path d="M397.312 183.13c-2.976-4.45-7.968-7.12-13.312-7.12h-16c-8.848 0-16 7.15-16 16v96c0 8.847 7.152 16 16 16h64c8.848 0 16-7.153 16-16v-24c0-3.153-.944-6.257-2.688-8.88l-48-72zM432 288.01h-64v-96h16l48 72v24zm71.936-42.625l-64-96c-8.928-13.392-23.872-21.376-39.936-21.376h-64v-32c0-26.466-21.536-48.002-48-48.002H48c-26.464 0-48 21.536-48 48v176c0 26.465 21.536 48 48 48v48c0 26.465 21.536 48 48 48h18.272c7.152 27.537 32 48 61.744 48 29.712 0 54.56-20.463 61.712-48h84.512c7.152 27.537 32 48 61.744 48 29.712 0 54.56-20.463 61.712-48H464c26.464 0 48-21.535 48-48v-96c0-9.503-2.784-18.72-8.064-26.623zM48 288.01c-8.832 0-16-7.153-16-16v-176c0-8.85 7.168-16.002 16-16.002h240c8.848 0 16 7.153 16 16v176c0 8.85-7.152 16-16 16H48zm128.016 144c-17.68 0-32-14.337-32-32s14.32-32 32-32c17.664 0 32 14.335 32 32s-14.352 32-32 32zm207.984 0c-17.68 0-32-14.337-32-32s14.32-32 32-32c17.664 0 32 14.335 32 32s-14.336 32-32 32zm96-64c0 8.847-7.152 16-16 16h-18.288c-7.152-27.537-32-48-61.712-48-29.744 0-54.592 20.463-61.744 48h-84.512c-7.152-27.537-32-48-61.712-48-29.744 0-54.592 20.463-61.744 48H96c-8.832 0-16-7.153-16-16v-48h208c26.464 0 48-21.537 48-48v-112h64c5.344 0 10.336 2.67 13.312 7.12l64 96c1.744 2.623 2.688 5.726 2.688 8.88v96z"/></symbol><symbol id="world" viewBox="0 0 512 512.1356"><path d="M248 .01C111.024.01 0 111.03 0 248.01s111.024 248 248 248 248-111.025 248-248-111.024-248-248-248zm215.6 240h-95.936c-.88-35.44-7.184-69.297-18.368-100.29 21.6-9.007 41.568-20.99 59.776-35.15 32.368 36.335 52.608 83.52 54.528 135.44zm-224.448 223.55c-26.592-22.144-48.896-50.896-65.216-84.288 20.944-6.544 43.136-10.128 66.064-10.864v95.184c-.288 0-.56-.015-.848-.03zm17.664-431.103c30.176 25.12 54.8 58.768 71.456 98.016-22.816 7.792-47.056 12.32-72.288 13.12V32.41c.304.015.56.03.832.047zm26.656 2.72C327.632 42.52 367.248 63.143 398.096 93c-16.752 12.848-35.056 23.728-54.848 31.968-14.56-34.511-34.992-65.024-59.776-89.792zM240 32.406v111.185c-25.232-.816-49.488-5.328-72.288-13.12 16.656-39.248 41.28-72.896 71.456-98.016l.832-.048zm-87.264 92.577c-19.76-8.24-38.08-19.12-54.832-31.967 30.832-29.857 70.464-50.48 114.624-57.825-24.8 24.752-45.216 55.265-59.792 89.792zm8.944 20.24c24.672 8.56 50.96 13.553 78.32 14.385v80.398h-95.664c.864-33.504 6.8-65.52 17.344-94.784zM240 256.01v96.4c-25.232.766-49.632 4.894-72.624 12.302-13.856-32.99-22.032-69.743-23.04-108.703H240zm-27.472 204.83c-39.568-6.575-75.504-23.807-104.72-48.83 15.76-10.93 32.8-20.177 51.008-27.2 13.952 28.926 32.208 54.606 53.712 76.03zM256 463.61v-95.186c22.912.736 45.12 4.32 66.064 10.864-16.336 33.392-38.624 62.144-65.216 84.288-.272 0-.56.016-.848.032zm81.184-78.802c18.192 7.024 35.216 16.288 51.008 27.2-29.216 25.008-65.152 42.256-104.72 48.832 21.504-21.423 39.744-47.103 53.712-76.03zm-8.56-20.096c-23.008-7.408-47.408-11.536-72.624-12.304v-96.4h95.664c-1.008 38.96-9.2 75.713-23.04 108.704zM256 240.01v-80.4c27.344-.834 53.632-5.81 78.32-14.37 10.528 29.264 16.464 61.28 17.344 94.784H256zM86.944 104.57c18.208 14.16 38.176 26.143 59.76 35.15-11.184 30.993-17.488 64.85-18.368 100.288H32.4c1.92-51.92 22.16-99.103 54.544-135.44zM32.4 256.01h95.936c.992 40.88 9.536 79.487 24.048 114.19-20.272 7.905-39.168 18.433-56.608 30.897-37.568-37.392-61.28-88.512-63.376-145.088zm367.824 145.07c-17.44-12.448-36.336-22.992-56.624-30.896 14.528-34.704 23.056-73.312 24.064-114.192H463.6c-2.096 56.593-25.824 107.713-63.376 145.088z"/></symbol></defs><g><use xlink:href="#heart" width="24" height="24" x="3" y="3"/><use xlink:href="#cloud" width="24" height="24" x="33" y="3"/><use xlink:href="#star" width="24" height="24" x="63" y="3"/><use xlink:href="#tv" width="24" height="24" x="93" y="3"/><use xlink:href="#sound" width="24" height="24" x="123" y="3"/><use xlink:href="#video" width="24" height="24" x="153" y="3"/><use xlink:href="#trash" width="24" height="24" x="183" y="3"/><use xlink:href="#user" width="24" height="24" x="3" y="33"/><use xlink:href="#key" width="24" height="24" x="33" y="33"/><use xlink:href="#search" width="24" height="24" x="63" y="33"/><use xlink:href="#settings" width="24" height="24" x="93" y="33"/><use xlink:href="#camera" width="24" height="24" x="123" y="33"/><use xlink:href="#tag" width="24" height="24" x="153" y="33"/><use xlink:href="#lock" width="24" height="24" x="183" y="33"/><use xlink:href="#bulb" width="24" height="24" x="3" y="63"/><use xlink:href="#pen" width="24" height="24" x="33" y="63"/><use xlink:href="#diamond" width="24" height="24" x="63" y="63"/><use xlink:href="#display" width="24" height="24" x="93" y="63"/><use xlink:href="#location" width="24" height="24" x="123" y="63"/><use xlink:href="#eye" width="24" height="24" x="153" y="63"/><use xlink:href="#bubble" width="24" height="24" x="183" y="63"/><use xlink:href="#stack" width="24" height="24" x="3" y="93"/><use xlink:href="#cup" width="24" height="24" x="33" y="93"/><use xlink:href="#phone" width="24" height="24" x="63" y="93"/><use xlink:href="#news" width="24" height="24" x="93" y="93"/><use xlink:href="#mail" width="24" height="24" x="123" y="93"/><use xlink:href="#like" width="24" height="24" x="153" y="93"/><use xlink:href="#photo" width="24" height="24" x="183" y="93"/><use xlink:href="#note" width="24" height="24" x="3" y="123"/><use xlink:href="#clock" width="24" height="24" x="33" y="123"/><use xlink:href="#paperplane" width="24" height="24" x="63" y="123"/><use xlink:href="#params" width="24" height="24" x="93" y="123"/><use xlink:href="#banknote" width="24" height="24" x="123" y="123"/><use xlink:href="#data" width="24" height="24" x="153" y="123"/><use xlink:href="#music" width="24" height="24" x="183" y="123"/><use xlink:href="#megaphone" width="24" height="24" x="3" y="153"/><use xlink:href="#study" width="24" height="24" x="33" y="153"/><use xlink:href="#lab" width="24" height="24" x="63" y="153"/><use xlink:href="#food" width="24" height="24" x="93" y="153"/><use xlink:href="#t-shirt" width="24" height="24" x="123" y="153"/><use xlink:href="#fire" width="24" height="24" x="153" y="153"/><use xlink:href="#clip" width="24" height="24" x="183" y="153"/><use xlink:href="#shop" width="24" height="24" x="3" y="183"/><use xlink:href="#calendar" width="24" height="24" x="33" y="183"/><use xlink:href="#vallet" width="24" height="24" x="63" y="183"/><use xlink:href="#vynil" width="24" height="24" x="93" y="183"/><use xlink:href="#truck" width="24" height="24" x="123" y="183"/><use xlink:href="#world" width="24" height="24" x="153" y="183"/></g></svg>