<svg xmlns="http://www.w3.org/2000/svg" width="210" height="210"><svg viewBox="0 0 512 512" id="heart" width="24" height="24" x="3" y="3"><path d="m467.1 84.2c-58.1-57.5-150.9-58.7-211.1-4.6-60.1-54.1-152.9-52.9-211 4.6-59.9 59.3-59.9 155.4 0 214.7 17.1 16.9 176.8 175 176.8 175 18.9 18.8 49.5 18.8 68.5 0 0 0 174.9-173.1 176.8-175 59.9-59.3 59.9-155.4 0-214.7z m-22.8 192.1l-176.9 175c-6.2 6.3-16.5 6.3-22.8 0l-176.8-175c-47.2-46.7-47.2-122.7 0-169.5 45.5-45 118.6-46.6 166.5-3.5l21.7 19.5 21.7-19.5c47.9-43.1 121.1-41.5 166.6 3.5 47.2 46.7 47.2 122.8 0 169.5z m-296.3-156.3c4.5 0 8 3.6 8 8 0 4.4-3.5 8-8 8l0 0c-28.7 0-52 23.3-52 52l0 0c0 4.4-3.5 8-8 8-4.4 0-8-3.6-8-8l0 0c0-37.5 30.5-67.9 68-68 0 0 0 0 0 0z"/></svg><svg viewBox="0 0 512 512" id="cloud" width="24" height="24" x="33" y="3"><path d="m414.6 210.3c-7-73-67.8-130.3-142.6-130.3-57.9 0-107.5 34.4-130.3 83.7-6.9-2.2-14.1-3.7-21.7-3.7-39.7 0-72 32.3-72 72 0 7.9 1.6 15.4 4 22.5-31 18-52 51.1-52 89.5 0 57.4 46.6 104 104 104l0 0 288 0 0 0c66.3 0 120-53.7 120-120 0-58.5-41.9-107.1-97.4-117.7z m-22.6 205.7l0 0-288 0c-39.7 0-72-32.3-72-72 0-25.6 13.5-48.8 36.1-61.9 21.9-12.6 23.4-15.1 14.2-37.7-1.5-4.7-2.3-8.7-2.3-12.4 0-22 18-40 40-40 0 0 10.5-0.7 21.7 3.7 18.3 7.3 20.3 0.3 29-18.5 18.3-39.6 58.1-65.2 101.3-65.2 57.6 0 105.2 43.6 110.8 101.3 2 23 2 23 25.8 28.4 41.4 7.9 71.4 44.2 71.4 86.3 0 48.5-39.5 88-88 88z"/></svg><svg viewBox="0 0 512 512" id="star" width="24" height="24" x="63" y="3"><path d="m510.1 200.9c-4.4-12.8-15.8-22.1-29.5-24.2l-133.2-19.8-57.9-120.2c-6.1-12.6-19.2-20.7-33.5-20.7-14.3 0-27.4 8.1-33.5 20.7l-57.9 120.2-133.2 19.8c-13.7 2.1-25.1 11.4-29.5 24.2-4.4 12.8-1.1 26.9 8.6 36.6l97.6 97.4-22.6 135.3c-2.3 13.6 3.6 27.2 15.2 35.2 6.3 4.4 13.8 6.6 21.3 6.6 6.1 0 12.3-1.5 17.9-4.5l116.1-62.5 116.2 62.5c5.5 3 11.7 4.5 17.8 4.5 7.5 0 15-2.2 21.3-6.6 11.6-8 17.5-21.6 15.2-35.2l-22.7-135.3 97.7-97.4c9.7-9.7 13-23.8 8.6-36.6z m-132.7 108.9c-8.2 8.2-11.9 19.7-10 31l22.6 135.2-116.1-62.5c-5.6-3-11.7-4.5-17.9-4.5-6.2 0-12.3 1.5-17.9 4.5l-116.1 62.5 22.6-135.2c1.9-11.3-1.8-22.8-10-31l-97.6-97.5 133.2-19.8c12.2-1.8 22.6-9.4 27.9-20.3l57.9-120.2 57.9 120.2c5.3 10.9 15.7 18.5 27.9 20.3l133.2 19.9-97.6 97.4z"/></svg><svg viewBox="0 0 512 512" id="tv" width="24" height="24" x="93" y="3"><path d="m354.7 138c-43.3-8.9-87.3-13.4-130.6-13.4-43.4 0-87.3 4.5-130.7 13.4-5.6 1.1-10.1 5.2-11.9 10.7-23.1 70.1-23.1 141.1 0 211.2 1.7 5.5 6.3 9.5 11.9 10.7 43.4 8.9 87.3 13.4 130.7 13.4 43.3 0 87.3-4.5 130.6-13.4 5.7-1.2 10.2-5.3 12-10.7 23.1-70.1 23.1-141.2 0-211.3-1.8-5.4-6.4-9.5-12-10.6z m-3.2 216.9c-84.9 17.5-169.9 17.5-254.8 0-22.1-67.1-22.1-134.1 0-201.3 84.9-17.4 169.9-17.4 254.8 0 22.1 67.1 22.1 134.2 0 201.3z m142.2-253.8c-3.1-13-14-22.7-27.3-24.3-69.8-8.5-140.5-12.8-210.3-12.8-69.8 0-140.5 4.3-210.3 12.8-13.3 1.6-24.2 11.3-27.3 24.3-24.4 102.8-24.4 207 0 309.8 3.1 13 14 22.7 27.3 24.3 33.6 4.1 67.4 7.1 101.3 9.2-1.8 1.2-3 2.4-3 3.6 0 8.8 50.1 16 112 16 61.8 0 112-7.2 112-16 0-1.2-1.2-2.4-3-3.6 33.8-2.1 67.7-5.1 101.3-9.2 13.2-1.6 24.1-11.3 27.2-24.3 24.5-102.8 24.5-207 0.1-309.8z m-31.2 302.4c-137.6 16.7-275.2 16.7-412.9 0-23.4-98.3-23.4-196.7 0-295 137.7-16.7 275.3-16.7 412.9 0 23.4 98.3 23.4 196.7 0 295z m-38.4-211.5c13.2 0 24-10.8 24-24s-10.8-24-24-24-24 10.8-24 24 10.7 24 24 24z m0-32c4.4 0 8 3.6 8 8s-3.6 8-8 8-8-3.6-8-8 3.6-8 8-8z m16 192c4.4 0 8 3.6 8 8 0 4.4-3.6 8-8 8l-48 0c-4.4 0-8-3.6-8-8 0-4.4 3.6-8 8-8l48 0z m16-48c4.4 0 8 3.6 8 8 0 4.4-3.6 8-8 8l-48 0c-4.4 0-8-3.6-8-8 0-4.4 3.6-8 8-8l48 0z m0-48c4.4 0 8 3.6 8 8 0 4.4-3.6 8-8 8l-48 0c-4.4 0-8-3.6-8-8 0-4.4 3.6-8 8-8l48 0z m-240-67.1c4.4-0.2 8 3.2 8 7.6 0 4.5-3.6 8.2-8 8.3l-60 4.1c-4.4 0.5-8.4 4.4-9 8.8l-2.7 30.3c-0.2 4.4-3.9 8-8.3 8-4.4 0-7.8-3.6-7.6-8l4.9-44.6c0.8-4.3 4.9-8.3 9.3-8.8l73.4-5.7z"/></svg><svg viewBox="0 0 512 512" id="sound" width="24" height="24" x="123" y="3"><path d="m432 224c0-79.3-64.6-144-144-143.9l0-0.1c-4.4 0-8-3.6-8-8 0-4.4 3.6-8 8-8 0.2 0 0.3 0.1 0.4 0.1 88.1 0.2 159.5 71.6 159.6 159.8 0 0 0 0.1 0 0.1 0 4.4-3.6 8-8 8-4.4 0-8-3.6-8-8l0 0z m-286.1-210c-9.1-9.1-21.4-14-33.9-14-6.2 0-12.4 1.2-18.4 3.6-17.9 7.5-29.6 25-29.6 44.4l0 220.1-49.9 50c-18.8 18.7-18.8 49.1 0 67.8l112 112c9.3 9.4 21.6 14.1 33.9 14.1s24.6-4.7 33.9-14.1l50-49.9 220.1 0c19.4 0 36.9-11.7 44.3-29.6 7.4-18 3.3-38.6-10.4-52.4l-352-352z m75.3 411.4l-49.9 49.9c-4.1 4.1-8.8 4.7-11.3 4.7s-7.2-0.6-11.3-4.7l-112-112c-4.1-4.1-4.7-8.8-4.7-11.3s0.6-7.2 4.7-11.3l49.9-49.9c0.2-0.2 0.2-0.4 0.3-0.5l134.8 134.8c-0.1 0.1-0.3 0.1-0.5 0.3z m22.7-9.4c-2.5 0-4.8 0.9-7.2 1.4l-142.1-142.2c0.5-2.3 1.4-4.6 1.4-7.1l0-192.7 340.6 340.6-192.7 0z m234.9-9.9c-2.5 6-8.3 9.9-14.8 9.9l-4.8 0-363.2-363.2 0-4.8c0-6.5 3.9-12.3 9.9-14.8 1.9-0.8 4-1.2 6.1-1.2 4.3 0 8.3 1.7 11.3 4.7l352 352c4.6 4.6 5.9 11.4 3.5 17.4z m-190.8-374.1c-8.8 0-16-7.2-16-16 0-8.8 7.2-16 16-16 0.2 0 0.3 0.1 0.4 0.1 123.5 0.2 223.5 100.3 223.6 223.8 0 0 0 0.1 0 0.1 0 8.8-7.2 16-16 16-8.8 0-16-7.1-16-15.9l0 0c0-105.9-86.2-192-192-192l0-0.1z"/></svg><svg viewBox="0 0 512 512" id="video" width="24" height="24" x="153" y="3"><path d="m480 96l-14.2 0c-8.4 0-16.5 3.3-22.5 9.2l-43.3 42.8 0-20c0-26.5-21.5-48-48-48l-304 0c-26.5 0-48 21.5-48 48l0 111.6 0 144.4c0 26.5 21.5 48 48 48l304 0c26.5 0 48-21.5 48-48l0-19.5 43.3 42.7c6 5.9 14.1 9.2 22.5 9.2l14.2 0c17.7 0 32-14.3 32-32l0-256.4c0-17.7-14.3-32-32-32z m-432 304c-8.8 0-16-7.2-16-16l0-256c0-8.8 7.2-16 16-16l304 0c8.8 0 16 7.2 16 16l0 256c0 8.8-7.2 16-16 16l-304 0z m432-15.6l-14.2 0-1.8 0-64-64 0-0.4-16-16 0-96 80-80 1.8 0 14.2 0 0 256.4z"/></svg><svg viewBox="0 0 512 512" id="trash" width="24" height="24" x="183" y="3"><path d="m479.7 109.1c-1.6-25.1-22.2-45.1-47.7-45.1l-48 0 0-16 0 0c0-26.5-21.5-48-48-48l-160 0c-26.5 0-48 21.5-48 48l0 0 0 16-48 0c-25.5 0-46.2 20-47.7 45.1l-0.3 0 0 18.9 0 16c0 17.7 14.3 32 32 32l0 0 0 272c0 35.4 28.7 64 64 64l256 0c35.3 0 64-28.6 64-64l0-272 0 0c17.7 0 32-14.3 32-32l0-16 0-18.9-0.3 0z m-319.7-61.1c0-8.8 7.2-16 16-16l160 0c8.8 0 16 7.2 16 16l0 16-192 0 0-16z m256 400c0 17.7-14.4 32-32 32l-256 0c-17.6 0-32-14.3-32-32l0-272 320 0 0 272z m32-320l0 16-384 0 0-16 0-16c0-8.8 7.2-16 16-16l352 0c8.8 0 16 7.2 16 16l0 16z m-304 320.1l32 0c8.8 0 16-7.2 16-16l0-208c0-8.9-7.2-16-16-16l-32 0c-8.8 0-16 7.1-16 16l0 208c0 8.8 7.2 16 16 16z m0-224l32 0 0 208-32 0 0-208z m96 224l32 0c8.8 0 16-7.2 16-16l0-208c0-8.9-7.2-16-16-16l-32 0c-8.8 0-16 7.1-16 16l0 208c0 8.8 7.2 16 16 16z m0-224l32 0 0 208-32 0 0-208z m96 224l32 0c8.8 0 16-7.2 16-16l0-208c0-8.9-7.2-16-16-16l-32 0c-8.8 0-16 7.1-16 16l0 208c0 8.8 7.2 16 16 16z m0-224l32 0 0 208-32 0 0-208z"/></svg><svg viewBox="0 0 512 512" id="user" width="24" height="24" x="3" y="33"><path d="m497.8 453.4c-3.3-2.2-61.6-40.4-148.4-59.2 31.8-40.3 52.3-94.6 61-130.7 12-50.1 7.3-148-40.7-209-28.1-35.7-67.4-54.5-113.7-54.5-46.3 0-85.6 18.8-113.7 54.5-48 61-52.7 158.9-40.7 209 8.7 36.1 29.2 90.3 61 130.7-86.8 18.8-145.1 57-148.3 59.2-11.8 7.8-17 22.4-12.9 35.8 4.1 13.6 16.5 22.8 30.6 22.8l448 0c14.1 0 26.5-9.2 30.6-22.8 4.1-13.4-1.1-28-12.8-35.8z m-173.5-79l-5.2 6.6c-38.2 43.8-88 43.8-126.1 0l-5.2-6.6c-44.6-56.5-66.7-131.2-57.2-202.4 8.7-68.5 48-140 125.4-140 77.4 0 116.7 71.5 125.4 140 9.5 71.3-12.5 145.9-57.1 202.4z m-292.3 105.6c2.2-1.5 56.4-37 137.4-54.5l39.7-8.6c14.2 9.3 29.8 15.1 46.9 15.1 17.1 0 32.7-5.8 46.9-15.1l39.7 8.6c80.3 17.3 134.4 52.5 137.4 54.5l-448 0z"/></svg><svg viewBox="0 0 512 512" id="key" width="24" height="24" x="33" y="33"><path d="m352.1 0c-88.4 0-160 71.6-160 160 0 20.6 4.3 40 11.4 58.1l-194.4 194.3c-5.6 5.7-9.1 11-9.1 19.6l0 48c0 17.1 14.9 32 32 32l48 0c8.6 0 14-3.4 19.6-9l23-23 37.5 0c17.6 0 32-14.3 32-32l0-32 32 0c17.6 0 32-14.3 32-32l0-37.5 37.9-37.9c18 7.1 37.5 11.4 58.1 11.4 88.3 0 160-71.6 160-160s-71.7-160-160-160z m0 288c-23.7 0-45.7-6.9-64.7-18.1l-5.5 5.5-18 18-30.5 30.5c-6 6-9.4 14.1-9.4 22.6l0 37.5-32 0c-17.6 0-32 14.3-32 32l0 32-37.4 0c-8.5 0-16.6 3.4-22.6 9.4l-22.7 22.7-45.3-0.1 0-45.6 186.6-186.3c0 0 0 0 0.1 0l23.5-23.5c-11.3-19-18.2-40.9-18.2-64.6 0-70.7 57.4-128 128-128s128 57.3 128 128-57.2 128-127.9 128z m93-156.2c-17.9-25-39.8-46.8-64.9-64.8-4-3-9.3-3.7-14.1-2.1-22.2 7.9-37.4 23.1-45.2 45.3-0.6 1.6-0.9 3.4-0.9 5.1 0 3.2 1 6.3 2.9 9 18 25 39.9 46.8 64.9 64.8 4.1 3 9.3 3.7 14.1 2.1 22.2-7.8 37.5-23 45.3-45.3 0.6-1.6 0.8-3.4 0.8-5.1 0-3.2-1-6.3-2.9-9z m-48 44.4c-23.6-17-44.2-37.6-61.1-60.7 6.2-17.7 17.8-29.3 34.9-35.6 23.7 17.1 44.2 37.6 61.1 61-6.3 17.5-17.8 29.1-34.9 35.3z"/></svg><svg viewBox="0 0 512 512" id="search" width="24" height="24" x="63" y="33"><path d="m320 0.1c-106 0-192 85.9-192 192 0 32.4 8.1 62.9 22.3 89.7l-133.5 133.5 0.1 0.1c-10.4 10.2-16.9 24.4-16.9 40.2 0 31.2 25.3 56.5 56.5 56.5 15.7 0 29.9-6.5 40.2-16.9l0-0.1 133.4-133.4c26.8 14.2 57.4 22.4 89.9 22.4 106 0 192-86 192-192 0-106.1-86-192-192-192z m-243.3 475.1c-5.1 5.3-12.3 8.6-20.2 8.6-15.6 0-28.3-12.6-28.3-28.2 0-8 3.4-15.1 8.7-20.2l-0.1-0.2 129-129c11.3 15.2 24.7 28.6 39.9 39.9l-129 129.1z m243.3-123.1c-88.4 0-160-71.7-160-160 0-88.4 71.6-160 160-160 88.3 0 160 71.6 160 160 0 88.3-71.7 160-160 160z m0-272c4.4 0 8 3.6 8 8 0 4.4-3.6 8-8 8-53 0-96 43-96 96 0 4.4-3.6 8-8 8-4.4 0-8-3.6-8-8 0-61.9 50.1-112 112-112z"/></svg><svg viewBox="0 0 512 512" id="settings" width="24" height="24" x="93" y="33"><path d="m486.3 202.9l-49.1-9.8c-2.4-7.1-5.3-14-8.6-20.7l27.8-41.6c8.5-12.7 6.8-29.6-4-40.4l-30.8-30.8c-6.2-6.2-14.3-9.4-22.6-9.4-6.2 0-12.3 1.8-17.7 5.4l-41.7 27.8c-6.7-3.3-13.6-6.1-20.7-8.6l-9.8-49c-3-15-16.1-25.8-31.4-25.8l-43.5 0c-15.2 0-28.4 10.8-31.4 25.8l-9.8 49c-7.1 2.5-13.9 5.4-20.6 8.6l-41.6-27.8c-5.5-3.6-11.6-5.4-17.8-5.4-8.3 0-16.4 3.2-22.6 9.4l-30.8 30.8c-10.8 10.8-12.5 27.7-4 40.4l27.8 41.6c-3.3 6.7-6.2 13.6-8.6 20.7l-49.1 9.8c-14.9 3-25.7 16.1-25.7 31.4l0 43.5c0 15.2 10.8 28.4 25.7 31.4l49.1 9.8c2.4 7.1 5.3 14 8.5 20.6l-27.7 41.7c-8.5 12.7-6.8 29.6 4 40.3l30.8 30.8c6.2 6.2 14.4 9.4 22.6 9.4 6.2 0 12.4-1.8 17.8-5.4l41.6-27.7c6.7 3.2 13.6 6.1 20.7 8.5l9.8 49.1c3 14.9 16.1 25.7 31.3 25.7l43.6 0c15.2 0 28.4-10.8 31.3-25.7l9.9-49.1c7.1-2.4 13.9-5.3 20.6-8.5l41.7 27.7c5.4 3.6 11.6 5.4 17.7 5.4 8.3 0 16.4-3.2 22.6-9.4l30.8-30.8c10.8-10.7 12.5-27.6 4-40.3l-27.8-41.7c3.3-6.7 6.2-13.6 8.6-20.6l49.1-9.8c14.9-3 25.7-16.2 25.7-31.4l0-43.5c0-15.3-10.8-28.4-25.7-31.4z m-55.4 84.7c-11.1 2.2-20.2 10.2-23.9 20.9-2.1 5.9-4.5 11.6-7.1 17.2-5 10.2-4.2 22.3 2.1 31.7l27.8 41.6-30.8 30.8-41.7-27.8c-5.3-3.5-11.5-5.3-17.7-5.3-4.8 0-9.5 1-13.9 3.2-5.6 2.6-11.3 5.1-17.3 7.1-10.6 3.8-18.6 12.9-20.8 24l-9.8 49-43.6 0-9.8-49c-2.2-11.1-10.1-20.2-20.8-24-5.9-2-11.7-4.4-17.2-7.1-4.4-2.2-9.2-3.2-14-3.2-6.2 0-12.4 1.8-17.7 5.3l-41.7 27.8-30.8-30.8 27.8-41.6c6.3-9.5 7.1-21.5 2.2-31.7-2.7-5.6-5.1-11.3-7.2-17.2-3.7-10.7-12.8-18.6-23.9-20.9l-49.1-9.8 0-43.5 49.1-9.9c11.1-2.2 20.2-10.1 23.9-20.8 2.1-5.9 4.4-11.7 7.1-17.2 5-10.2 4.2-22.3-2.1-31.7l-27.8-41.7 30.8-30.8 41.7 27.8c5.3 3.6 11.5 5.4 17.7 5.4 4.8 0 9.5-1.1 13.9-3.2 5.6-2.7 11.3-5.1 17.2-7.2 10.7-3.7 18.7-12.8 20.9-23.9l9.8-49.1 43.5 0 9.9 49.1c2.2 11.1 10.1 20.2 20.8 23.9 5.9 2.1 11.7 4.5 17.2 7.2 4.4 2.1 9.2 3.2 14 3.2 6.2 0 12.4-1.8 17.7-5.4l41.7-27.8 30.8 30.8-27.8 41.7c-6.3 9.4-7.1 21.5-2.2 31.7 2.7 5.5 5.1 11.2 7.2 17.2 3.7 10.7 12.8 18.6 23.9 20.8l49.1 9.9 0 43.5-49.1 9.8z m-174.9-143.6c-61.8 0-112 50.2-112 112 0 61.9 50.2 112 112 112s112-50.1 112-112c0-61.8-50.2-112-112-112z m0 210c-54.1 0-98-43.9-98-98 0-54.1 43.9-98 98-98 54.1 0 98 43.9 98 98 0 54.1-43.9 98-98 98z m0-162c-35.4 0-64 28.7-64 64 0 35.4 28.6 64 64 64 35.3 0 64-28.6 64-64 0-35.3-28.7-64-64-64z m0 112c-26.5 0-48-21.5-48-48 0-26.5 21.5-48 48-48s48 21.5 48 48c0 26.5-21.5 48-48 48z"/></svg><svg viewBox="0 0 512 512" id="camera" width="24" height="24" x="123" y="33"><path d="m256 160c-70.7 0-128 57.3-128 128 0 70.7 57.3 128 128 128 70.7 0 128-57.3 128-128 0-70.7-57.3-128-128-128z m72.9 190.5c-34.5 40.3-95.1 44.9-135.4 10.4-40.2-34.5-44.9-95.1-10.4-135.3 34.5-40.3 95.1-45 135.4-10.4 40.2 34.4 44.9 95.1 10.4 135.3z m-72.9-126.5c4.4 0 8 3.6 8 8 0 4.4-3.6 8-8 8-26.5 0-48 21.5-48 48l0 0c0 4.4-3.6 8-8 8-4.4 0-8-3.6-8-8l0 0c0-35.3 28.7-64 64-64z m215.9-79.3l-69.4-11.6-21.9-54.9c-7.4-18.4-24.9-30.2-44.6-30.2l-160 0c-19.7 0-37.2 11.8-44.6 30.2l-21.9 54.9-69.4 11.6c-23.2 3.8-40.1 23.7-40.1 47.3l0 240c0 26.5 21.5 48 48 48l416 0c26.5 0 48-21.5 48-48l0-240c0-23.6-16.9-43.5-40.1-47.3z m8.1 287.3c0 8.8-7.2 16-16 16l-416 0c-8.8 0-16-7.2-16-16l0-240c0-7.8 5.7-14.5 13.4-15.8l87.1-14.5 28.6-71.6c2.5-6.1 8.4-10.1 14.9-10.1l160 0c6.5 0 12.4 4 14.8 10.1l28.7 71.6 87.1 14.5c7.7 1.3 13.4 8 13.4 15.8l0 240z"/></svg><svg viewBox="0 0 512 512" id="tag" width="24" height="24" x="153" y="33"><path d="m502.3 222.1l-80-128c-11.7-18.7-32.2-30.1-54.3-30.1l-304 0c-35.3 0-64 28.7-64 64l0 256c0 35.4 28.7 64 64 64l304 0c22.1 0 42.6-11.3 54.3-30l80-128c12.9-20.8 12.9-47.1 0-67.9z m-27.2 50.9l-80 128c-5.9 9.4-16 15-27.1 15l-304 0c-17.6 0-32-14.3-32-32l0-256c0-17.6 14.4-32 32-32l304 0c11.1 0 21.2 5.7 27.1 15.1l80 128c6.5 10.3 6.5 23.6 0 33.9z m-107.1-65c-26.5 0-48 21.5-48 48 0 26.6 21.5 48 48 48 26.5 0 48-21.5 48-48 0-26.5-21.5-48-48-48z m0 80.1c-17.7 0-32-14.4-32-32 0-17.7 14.3-32 32-32 17.7 0 32 14.3 32 32 0 17.6-14.3 32-32 32z"/></svg><svg viewBox="0 0 512 512" id="lock" width="24" height="24" x="183" y="33"><path d="m400 208l0-64c0-79.5-64.5-144-144-144-79.5 0-144 64.5-144 144l0 64c-26.5 0-48 21.5-48 48l0 48 0 16 0 32 0 16c0 79.5 64.5 144 144 144l96 0c79.5 0 144-64.5 144-144l0-16 0-32 0-16 0-48c0-26.5-21.5-48-48-48z m-256-64c0-61.9 50.1-112 112-112 61.9 0 112 50.1 112 112l0 64-32 0 0-64c0-44.2-35.8-80-80-80-44.2 0-80 35.8-80 80l0 64-32 0 0-64z m176 0l0 0 0 64-128 0 0-64 0 0c0-35.3 28.7-64 64-64 35.3 0 64 28.7 64 64z m96 160l0 16 0 32 0 16c0 61.7-50.3 112-112 112l-96 0c-61.7 0-112-50.3-112-112l0-16 0-32 0-16 0-48c0-8.8 7.2-16 16-16 10.7 0 21.3 0 32 0l224 0c10.7 0 21.3 0 32 0 8.8 0 16 7.2 16 16l0 48z m-160 0c17.7 0 32 14.3 32 32 0 9.7-5.2 28.3-10.7 42.9-4.3 11.8-8.8 21.1-21.3 21.1-11.5 0-17-9.4-21.3-21.2-5.4-14.6-10.7-33.1-10.7-42.8 0-17.7 14.3-32 32-32z"/></svg><svg viewBox="0 0 512 512" id="bulb" width="24" height="24" x="3" y="63"><path d="m256 0c-97.2 0-176 78.8-176 176 0 64.5 59 132.8 80.5 192.9 32 89.5 28.5 143.1 95.5 143.1 68 0 63.4-53.3 95.5-142.8 21.6-60.1 80.5-129.2 80.5-193.2 0-97.2-78.8-176-176-176z m41.5 434.8l-79.4 9.9c-2.8-8.2-5.8-17.8-9.5-30.3-0.1-0.1-0.1-0.3-0.2-0.5l99-12.3c-1.4 4.7-2.9 9.6-4.2 14.1-2.1 7.2-4 13.4-5.7 19.1z m-93.7-36.3c-2.9-9.6-6.2-19.7-9.9-30.5l124.3 0c-2 5.7-3.9 11.5-5.6 16.9l-108.8 13.6z m52.2 81.5c-16.2 0-23.7-1.9-32-20l67.9-8.5c-9.9 26.5-17 28.5-35.9 28.5z m74.8-144l-149.4 0c-7.9-17.3-17.5-34.6-27-51.5-20.8-37.3-42.4-76-42.4-108.5 0-79.4 64.6-144 144-144 79.4 0 144 64.6 144 144 0 32.3-21.6 71.1-42.5 108.7-9.3 16.9-18.8 34.1-26.7 51.3z m-74.8-256c4.4 0 8 3.6 8 8 0 4.4-3.6 8-8 8-44.1 0-80 35.9-80 80 0 4.4-3.6 8-8 8-4.4 0-8-3.6-8-8 0-52.9 43.1-96 96-96z"/></svg><svg viewBox="0 0 512 512" id="pen" width="24" height="24" x="33" y="63"><path d="m470.3 41.3c-26.3-26.3-61-41.3-95.1-41.3-28.8 0-55.4 10.7-74.7 30l-77.9 78.5c-0.2 0.2-0.5 0.4-0.8 0.6-0.1 0.1-0.2 0.3-0.3 0.4l0 0.1-165.2 166.5c-7.6 7.6-13.2 17-16.2 27.3l-37.6 136.1c-0.1 0.4-2.5 11.1-2.5 16.5 0 30.9 25.1 56 56.1 56 6.1 0 18-2.9 18.5-3l135.6-35.7c10.3-3 19.7-8.6 27.3-16.2l244.2-246.2c44.4-44.4 39.4-118.9-11.4-169.6z m-214.1 339.4c-1.3-14.4-5.4-28.6-11.5-42l151.3-151.3c9.2 29.2 4.5 59.8-15.8 80.1-0.1 0.1-0.3 0.2-0.4 0.3l0.2 0.2-123.6 124.7c0-4 0.2-7.9-0.2-12z m-19.5-56.6c-6-9.8-12.8-19.3-21.2-27.7-9.7-9.7-21-17.4-32.7-23.8l152.5-152.6c12 5.4 23.5 12.9 33.6 23.1 8.7 8.6 15.4 18.2 20.5 28.3l-152.7 152.7z m-68.9-59.1c-14.8-6-30.4-9.4-45.9-9.6l123.2-124.2c18.9-18.4 46.4-23.7 73.4-17l-150.7 150.8z m-101.1 213c-1.8 0.4-7.2 1.7-10.9 2-13.1-0.2-23.8-10.8-23.8-24 0.2-2.7 1.3-7.3 1.6-9l16.9-61c18.3-0.5 37.9 6.6 53.4 22.1 15.7 15.7 23.1 35.8 22.3 54.3l-59.5 15.6z m75.3-19.8c-0.4-21.5-9.1-43.8-26.8-61.4-16.6-16.7-38.5-26.3-60.2-27.2l15.9-57.7c1.2-3.9 3.5-7.6 6.3-11 32.1-22.9 81.4-16.1 115.7 18.2 36.3 36.2 41.9 89.3 13.9 121.1-1.8 0.9-3.7 1.9-5.7 2.5l-59.1 15.5z m317.1-269.8l-27 27.1c0-3.6 0.4-7.1 0.1-10.8-2.8-30.9-17.2-60.9-40.7-84.3-26-26.1-60.6-41-94.8-41.1l26.5-26.7c13.2-13.3 31.7-20.6 52-20.6 25.7 0 52.2 11.6 72.5 31.9 19.1 19.1 30.5 42.8 32.1 66.7 1.5 22.4-5.9 42.9-20.7 57.8z"/></svg><svg viewBox="0 0 512 512" id="diamond" width="24" height="24" x="63" y="63"><path d="m502.6 154.8l-81.3-81.3c-6-6-14.1-9.3-22.6-9.3l-285.4 0c-8.5 0-16.6 3.3-22.6 9.3l-81.3 81.3c-6.3 6.3-9.4 14.6-9.4 22.9 0 7.5 2.7 15 8.1 21l224 238.5c6.1 6.9 14.8 10.8 23.9 10.8 9.1 0 17.8-3.9 23.9-10.8l224-238.5c5.5-6.1 8.2-13.9 8.1-21.5-0.1-8.1-3.2-16.2-9.4-22.4z m-211.1 21.4l-71 0 35.5-29.6 35.5 29.6z m-23-40l43.7-36.5 32.3 32.3-40.5 33.7-35.5-29.5z m-60.5 29.5l-40.5-33.7 32.3-32.3 43.7 36.5-35.5 29.5z m87.8 26.5l-39.8 199.2-39.8-199.2 79.6 0z m16.4 0l78.5 0-117.8 196.3 39.3-196.3z m4.3-16l39.4-32.9 32.8 32.9-72.2 0z m14.8-80l56.2 0-30.7 25.5-25.5-25.5z m-75.3 29.6l-35.5-29.6 71 0-35.5 29.6z m-100.9-4.1l-30.6-25.5 56.2 0-25.6 25.5z m1 21.6l39.4 32.9-72.2 0 32.8-32.9z m43.7 48.9l39.3 196.3-117.8-196.3 78.5 0z m3.5 167.6l-157.5-167.6 56.9 0 100.6 167.6z m206-167.6l56.9 0-157.5 167.6 100.6-167.6z m2-16l-43.1-43.1 36.8-30.7 73.7 73.8-67.4 0z m-304.3-73.8l36.8 30.7-43.1 43.1-68.6 0 74.9-73.8z"/></svg><svg viewBox="0 0 512 512" id="display" width="24" height="24" x="93" y="63"><path d="m432 79.9l-352 0.1c-8.8 0-16 7.1-16 15.9l0 224c0 8.9 7.2 16 16 16l352 0c8.8 0 16-7.1 16-16l0-224c0-8.8-7.2-16-16-16z m0 240.1l-352 0 0-224.1 352 0 0 224.1z m32-304l-416 0c-26.5 0-48 21.5-48 48l0 320c0 26.5 21.4 47.9 47.8 48l160.2 0 0 19.4-99.9 13c-7.1 1.8-12.1 8.2-12.1 15.5 0 8.9 7.2 16 16 16l288 0c8.8 0 16-7.1 16-16 0-7.3-5-13.7-12.1-15.5l-99.9-13 0-19.4 160.2 0c26.4-0.1 47.8-21.5 47.8-48l0-320c0-26.5-21.5-48-48-48z m16 368c0 8.8-7.2 16-16 16l-144 0-128 0-144 0c-8.8 0-16-7.2-16-16l0-320c0-8.8 7.2-16 16-16l416 0c8.8 0 16 7.2 16 16l0 320z"/></svg><svg viewBox="0 0 512 512" id="location" width="24" height="24" x="123" y="63"><path d="m256 283.9c53 0 96-43 96-96s-43-96-96-96c-52.9 0-96 43.1-96 96s43.1 96 96 96z m0-176c44.2 0 80 35.9 80 80s-35.8 80-80 80c-44.1 0-80-35.8-80-80s35.9-80 80-80z m0-107.9c-105.9 0-192 85.1-192 192 0 112 96 226.6 166 307.1 0.3 0.3 11.5 12.9 25.4 12.9 0 0 1.2 0 1.2 0 13.9 0 25.1-12.6 25.4-12.9 70-80.5 166-195.1 166-307.1 0-106.9-86.1-192-192-192z m1.9 478.1c-0.4 0.3-1.3 1.1-2.2 1.6-0.1-0.4-1.3-1.4-2.1-2.1-58.6-67.5-157.6-181.4-157.6-285.6 0-88.2 71.8-160 160-160 88.3 0 160 71.8 160 160 0 104.2-99 218.1-158.1 286.1z"/></svg><svg viewBox="0 0 512 512" id="eye" width="24" height="24" x="153" y="63"><path d="m511.4 252.4c-0.1-0.7 0-1.4-0.3-2-0.1-0.3-0.3-0.4-0.4-0.7-0.2-0.4-0.1-0.8-0.3-1.2-46.4-88.8-147.5-152.4-254-152.4-106.6 0-207.6 63.5-254 152.3-0.2 0.4-0.2 0.8-0.4 1.2-0.1 0.2-0.3 0.4-0.4 0.7-0.2 0.6-0.1 1.3-0.3 2-0.3 1.2-0.6 2.4-0.6 3.6s0.3 2.4 0.6 3.6c0.2 0.6 0.1 1.4 0.3 2 0.1 0.3 0.4 0.4 0.4 0.7 0.2 0.4 0.2 0.8 0.4 1.2 46.4 88.8 147.4 152.4 254 152.4 106.5 0 207.6-63.5 254-152.3 0.2-0.4 0.1-0.8 0.3-1.2 0.1-0.3 0.3-0.4 0.4-0.7 0.3-0.6 0.2-1.3 0.3-2 0.3-1.2 0.6-2.4 0.6-3.6s-0.3-2.4-0.6-3.6z m-255 131.4c-89.9 0-177.8-51-221.6-127.9 44-77 131.8-127.9 221.6-127.9 89.8 0 177.7 51.1 221.6 128-44.1 76.9-131.9 127.8-221.6 127.8z m0-191.8c4.4 0 7.9 3.6 7.9 8 0 4.4-3.5 8-7.9 8l0 0c-26.5 0-48 21.5-48 47.9 0 4.5-3.6 8-8 8-4.4 0-8-3.5-8-8 0-35.2 28.6-63.8 63.9-63.9 0 0 0 0 0.1 0z m-0.4-48c-61.9 0-112 50.1-112 112 0 61.9 50.1 112 112 112 61.8 0 112-50.2 112-112 0-61.9-50.2-112-112-112z m0 208c-52.9 0-96-43.1-96-96 0-52.9 43.1-96 96-96 52.9 0 96 43.1 96 96 0 52.9-43.1 96-96 96z"/></svg><svg viewBox="0 0 512 512" id="bubble" width="24" height="24" x="183" y="63"><path d="m256 112c4.4 0 8 3.6 8 8 0 4.4-3.6 8-8 8-85.2 0-160 44.9-160 96 0 4.4-3.6 8-8 8-4.4 0-8-3.6-8-8 0-60.7 80.6-112 176-112z m0-80c-141.4 0-256 86-256 192 0 66 44.5 124.3 112.1 158.8 0 0.4-0.1 0.7-0.1 1.2 0 28.7-21.4 59.6-30.8 75.8 0 0 0 0 0 0-0.8 1.7-1.2 3.7-1.2 5.7 0 8 6.5 14.5 14.5 14.5 1.5 0 4.1-0.4 4.1-0.2 50-8.2 97.1-54.2 108-67.5 16 2.4 32.5 3.7 49.4 3.7 141.4 0 256-86 256-192 0-106-114.6-192-256-192z m0 352c-14.7 0-29.7-1.1-44.7-3.3-1.6-0.3-3.1-0.3-4.7-0.3-9.5 0-18.6 4.2-24.7 11.6-6.9 8.4-26.3 27-49.4 40.7 6.3-14.4 11.1-30.4 11.5-47 0.1-1 0.1-2 0.1-2.9 0-12-6.7-23-17.4-28.5-59.3-30.3-94.7-79-94.7-130.3 0-88.2 100.5-160 224-160 123.5 0 224 71.8 224 160 0 88.2-100.5 160-224 160z"/></svg><svg viewBox="0 0 512 512" id="stack" width="24" height="24" x="3" y="93"><path d="m510.8 295.3l-64-240.1c-3.9-13.7-16.6-23.2-30.8-23.2l-160 0-160 0c-14.2 0-26.9 9.5-30.8 23.2l-64 240.1c-0.8 2.9-1.2 5.8-1.2 8.7l0 112c0 35.3 28.7 64 64 64l384 0c35.3 0 64-28.7 64-64l0-112c0-2.9-0.4-5.8-1.2-8.7z m-30.8 120.7c0 17.6-14.4 32-32 32l-384 0c-17.6 0-32-14.4-32-32l0-112 64-240 320 0 64 240 0 112z m-100.1-320l-247.8 0c-7.2 0-13.6 4.9-15.4 11.9l-55.2 192c-1.2 4.8-0.2 9.9 2.8 13.9s7.7 6.2 12.7 6.2l46.5 0 18.2 0 8.4 0 23.1 46.3c5.5 10.9 16.5 17.7 28.7 17.7l108.2 0c12.2 0 23.2-6.8 28.7-17.7l23.1-46.3 8.3 0 18.3 0 46.5 0c5 0 9.7-2.3 12.7-6.3s4-9 2.8-13.8l-55.2-192c-1.8-7-8.2-11.9-15.4-11.9z m8.6 192l-26.6 0c-12.2 0-23.1 6.8-28.6 17.7l-23.2 46.3-108.2 0-23.2-46.3c-5.5-10.9-16.4-17.7-28.6-17.7l-26.6 0-38.2 0 46.8-176 247.8 0 46.8 176-38.2 0z"/></svg><svg viewBox="0 0 512 512" id="cup" width="24" height="24" x="33" y="93"><path d="m449.8 80.4l-19.5-58.5c-4.3-13.1-16.5-21.9-30.3-21.9l-288 0c-13.8 0-26 8.8-30.4 21.9l-19.6 58.5c-16.7 1.1-30 14.6-30 31.6l0 48c0 17.7 14.3 32 32 32l16.5 0c0 1.2-0.4 2.3-0.3 3.5l32 288c1.8 16.2 15.5 28.5 31.8 28.5l224 0c16.3 0 30-12.3 31.8-28.5l32-288c0.1-1.2-0.4-2.3-0.4-3.5l16.6 0c17.7 0 32-14.3 32-32l0-48c0-17-13.4-30.7-30.2-31.6z m-337.8-48.4l288 0 16 48-320 0 16-48z m32 448l-5.3-48 234.6 0-5.3 48-224 0z m231.1-64l-238.2 0-17.8-160 273.8 0-17.8 160z m19.6-176l-277.4 0-5.3-48 288 0-5.3 48z m53.3-80l-384 0 0-48 384 0 0 48z"/></svg><svg viewBox="0 0 512 512" id="phone" width="24" height="24" x="63" y="93"><path d="m384 0l-256 0c-26.5 0-48 21.5-48 48l0 416c0 26.5 21.5 48 48 48l256 0c26.5 0 48-21.5 48-48l0-416c0-26.5-21.5-48-48-48z m16 464c0 8.8-7.2 16-16 16l-256 0c-8.8 0-16-7.2-16-16l0-32.1 288 0 0 32.1z m0-48.1l-288 0 0-319.9 288 0 0 319.9z m0-335.9l-288 0 0-32c0-8.8 7.2-16 16-16l256 0c8.8 0 16 7.2 16 16l0 32z m-112-24c0 4.4-3.6 8-8 8l-48 0c-4.4 0-8-3.6-8-8l0 0c0-4.4 3.6-8 8-8l48 0c4.4 0 8 3.6 8 8l0 0z m-16 399.9c0 4.4-3.6 8-8 8l-16 0c-4.4 0-8-3.6-8-8l0 0c0-4.4 3.6-8 8-8l16 0c4.4 0 8 3.6 8 8l0 0z"/></svg><svg viewBox="0 0 512 512" id="news" width="24" height="24" x="93" y="93"><path d="m464 0l-352 0c-26.5 0-48 21.5-48 48l0 32-16 0c-26.5 0-48 21.5-48 48l0 320c0 35.3 28.7 64 64 64l384 0c35.3 0 64-28.7 64-64l0-400c0-26.5-21.5-48-48-48z m16 448c0 17.6-14.4 32-32 32l-384 0c-17.6 0-32-14.4-32-32l0-320c0-8.8 7.2-16 16-16l16 0 0 320c0 8.8 7.2 16 16 16s16-7.2 16-16l0-384c0-8.8 7.2-16 16-16l352 0c8.8 0 16 7.2 16 16l0 400z m-168-239.9c-4.4 0-8-3.6-8-8 0-4.4 3.6-8 8-8l128 0c4.4 0 8 3.6 8 8 0 4.4-3.6 8-8 8l-128 0z m0-48c-4.4 0-8-3.6-8-8 0-4.4 3.6-8 8-8l128 0c4.4 0 8 3.6 8 8 0 4.4-3.6 8-8 8l-128 0z m0-48c-4.4 0-8-3.6-8-8 0-4.4 3.6-8 8-8l128 0c4.4 0 8 3.6 8 8 0 4.4-3.6 8-8 8l-128 0z m-48 320c4.4 0 8 3.6 8 8 0 4.4-3.6 8-8 8l-128 0c-4.4 0-8-3.6-8-8 0-4.4 3.6-8 8-8l128 0z m0-48c4.4 0 8 3.6 8 8 0 4.4-3.6 8-8 8l-128 0c-4.4 0-8-3.6-8-8 0-4.4 3.6-8 8-8l128 0z m0-48c4.4 0 8 3.6 8 8 0 4.4-3.6 8-8 8l-128 0c-4.4 0-8-3.6-8-8 0-4.4 3.6-8 8-8l128 0z m176 96c4.4 0 8 3.6 8 8 0 4.4-3.6 8-8 8l-128 0c-4.4 0-8-3.6-8-8 0-4.4 3.6-8 8-8l128 0z m0-48c4.4 0 8 3.6 8 8 0 4.4-3.6 8-8 8l-128 0c-4.4 0-8-3.6-8-8 0-4.4 3.6-8 8-8l128 0z m0-48c4.4 0 8 3.6 8 8 0 4.4-3.6 8-8 8l-128 0c-4.4 0-8-3.6-8-8 0-4.4 3.6-8 8-8l128 0z m0-96c4.4 0 8 3.5 8 8 0 4.4-3.6 8-8 8l-304 0c-4.4 0-8-3.6-8-8 0-4.5 3.6-8 8-8l304 0z m0 48c4.4 0 8 3.6 8 8 0 4.4-3.6 8-8 8l-304 0c-4.4 0-8-3.6-8-8 0-4.4 3.6-8 8-8l304 0z m-296-80.1l112 0c8.8 0 16-7.2 16-16l0-111.9c0-8.9-7.2-16-16-16l-112 0c-8.8 0-16 7.1-16 16l0 111.9c0 8.8 7.2 16 16 16z m16-112l80 0 0 80-80 0 0-80z"/></svg><svg viewBox="0 0 512 512" id="mail" width="24" height="24" x="123" y="93"><path d="m448 80l-384 0c-35.3 0-64 28.7-64 64l0 208c0 35.3 28.7 64 64 64l384 0c35.3 0 64-28.7 64-64l0-208c0-35.3-28.7-64-64-64z m-416 84l112 84-112 84 0-168z m448 188c0 17.7-14.4 32-32 32l-384 0c-17.6 0-32-14.3-32-32l125.3-94 69.9 52.4c8.5 6.4 18.7 9.6 28.8 9.6 10.1 0 20.3-3.2 28.8-9.6l69.9-52.4 125.3 94 0 0z m0-20l-112-84 112-84 0 168z m-204.8-34.4c-5.6 4.2-12.2 6.4-19.2 6.4-7 0-13.6-2.2-19.2-6.4l-66.2-49.6-13.3-10-125.3-94 0 0c0-17.6 14.4-32 32-32l384 0c17.6 0 32 14.4 32 32l-204.8 153.6z"/></svg><svg viewBox="0 0 512 512" id="like" width="24" height="24" x="153" y="93"><path d="m466.6 167.6c-20-5.3-67-5.2-135.8-7.1 3.3-15 4-28.5 4-52.5 0-57.4-41.8-108-78.8-108-26.1 0-47.7 21.4-48 47.6-0.4 32.3-10.3 87.9-64 116.1-3.9 2.1-15.2 7.7-16.8 8.4l0.8 0.7c-8.4-7.2-20-12.8-32-12.8l-48 0c-26.5 0-48 21.5-48 48l0 256c0 26.5 21.5 48 48 48l48 0c19 0 35-11.5 42.7-27.6 0.2 0 0.5 0.1 0.7 0.2 1.1 0.2 2.3 0.6 3.9 1 0.3 0 0.4 0.1 0.7 0.1 9.2 2.3 27 6.6 64.9 15.3 8.1 1.8 51.1 11 95.5 11l87.5 0c26.7 0 45.9-10.3 57.3-30.8 0.2-0.4 3.9-7.6 6.9-17.3 2.2-7.3 3.1-17.6 0.3-28.1 17.2-11.8 22.8-29.7 26.4-41.3 6-19.1 4.2-33.4 0-43.6 9.6-9.2 17.9-23.1 21.4-44.3 2.1-13.1-0.2-26.7-6.3-37.9 9.1-10.2 13.2-23 13.7-34.9l0.2-3.3c0.1-2.1 0.2-3.4 0.2-8 0-20.2-14-46-45.4-54.9z m-354.6 296.4c0 8.8-7.2 16-16 16l-48 0c-8.8 0-16-7.2-16-16l0-256c0-8.8 7.2-16 16-16l48 0c8.8 0 16 7.2 16 16l0 256z m367.6-231.4c-0.3 7.9-3.6 23.4-31.6 23.4-24 0-32 0-32 0-4.4 0-8 3.6-8 8s3.6 8 8 8c0 0 7 0 31 0s27.2 19.9 25.6 29.5c-2 11.9-7.6 34.5-34.6 34.5-27 0-38 0-38 0-4.4 0-8 3.6-8 8 0 4.4 3.6 8 8 8 0 0 19 0 31.5 0 27 0 24.6 20.6 20.8 32.9-5.1 16.1-8.3 31.1-42.3 31.1-11.5 0-26.1 0-26.1 0-4.4 0-8 3.6-8 8 0 4.4 3.6 8 8 8 0 0 11.1 0 25.1 0 17.5 0 18.3 16.6 16.5 22.5-2 6.5-4.4 11.3-4.5 11.5-4.8 8.8-12.6 14-29.1 14l-87.5 0c-43.9 0-87.5-10-88.6-10.2-66.5-15.3-70-16.5-74.2-17.7 0 0-13.5-2.3-13.5-14.1l-0.1-221c0-7.5 4.8-14.3 12.7-16.7 1-0.3 2.3-0.8 3.3-1.2 73.1-30.2 95.3-96.6 96-151.1 0.1-7.7 6-16 16-16 16.9 0 46.8 34 46.8 76 0 37.9-1.5 44.5-14.8 84 160 0 158.9 2.3 173 6 17.5 5 19 19.5 19 24.5 0 5.5-0.2 4.7-0.4 10.1z m-407.6 183.4c-13.2 0-24 10.8-24 24s10.8 24 24 24 24-10.8 24-24-10.8-24-24-24z m0 32c-4.4 0-8-3.6-8-8s3.6-8 8-8 8 3.6 8 8-3.6 8-8 8z"/></svg><svg viewBox="0 0 512 512" id="photo" width="24" height="24" x="183" y="93"><path d="m432 0l-352 0c-35.3 0-64 28.7-64 64l0 384c0 35.3 28.7 64 64 64l352 0c35.3 0 64-28.7 64-64l0-384c0-35.3-28.7-64-64-64z m32 448c0 17.6-14.4 32-32 32l-352 0c-17.6 0-32-14.4-32-32l0-384c0-17.6 14.4-32 32-32l352 0c17.6 0 32 14.4 32 32l0 384z m-48-384l-320 0c-8.8 0-16 7.2-16 16l0 288c0 8.8 7.2 16 16 16l320 0c8.8 0 16-7.2 16-16l0-288c0-8.8-7.2-16-16-16z m0 16l0 221.9-52-56.5c-3.1-3.4-7.4-5.4-12-5.4s-9 2-12 5.4l-41.7 47.2-126.3-143.2c-3-3.4-7.4-5.4-12-5.4s-9 2-12 5.4l-52 60 0-129.4 320 0z m-320 153.6l64-73.6 129.1 146.3 9.2 10.5 44.2 51.2-246.5 0 0-134.4z m267.8 134.4l-54.8-63.3 43-48.7 64 70.1 0 41.9-52.2 0z m-43.8-160c26.5 0 48-21.5 48-48s-21.5-48-48-48c-26.5 0-48 21.5-48 48s21.5 48 48 48z m0-80c17.6 0 32 14.4 32 32s-14.4 32-32 32c-17.7 0-32-14.4-32-32s14.3-32 32-32z"/></svg><svg viewBox="0 0 512 512" id="note" width="24" height="24" x="3" y="123"><path d="m502.6 121.4l-96-96c-6-6-14.1-9.4-22.6-9.4l-336 0c-26.5 0-48 21.5-48 48l0 384c0 26.5 21.5 48 48 48l416 0c26.5 0 48-21.5 48-48l0-304c0-8.5-3.4-16.6-9.4-22.6z m-22.6 326.6c0 8.8-7.2 16-16 16l-416 0c-8.8 0-16-7.2-16-16l0-384c0-8.8 7.2-16 16-16l320 0 0 64 0 0c0 26.5 21.5 48 48 48l16 0 48 0 0 288z m-48-304l-16 0c-17.7 0-32-14.4-32-32l0 0 0-64 96 96-48 0z m-184-16c-4.4 0-8-3.6-8-8 0-4.4 3.6-8 8-8l80 0c4.4 0 8 3.6 8 8 0 4.4-3.6 8-8 8l-80 0z m0 48c-4.4 0-8-3.6-8-8 0-4.4 3.6-8 8-8l80 0c4.4 0 8 3.6 8 8 0 4.4-3.6 8-8 8l-80 0z m-8 40c0-4.4 3.6-8 8-8l192 0c4.4 0 8 3.6 8 8 0 4.4-3.6 8-8 8l-192 0c-4.4 0-8-3.6-8-8z m200 88c4.4 0 8 3.6 8 8 0 4.4-3.6 8-8 8l-368 0c-4.4 0-8-3.6-8-8 0-4.4 3.6-8 8-8l368 0z m0 48c4.4 0 8 3.6 8 8 0 4.4-3.6 8-8 8l-368 0c-4.4 0-8-3.6-8-8 0-4.4 3.6-8 8-8l368 0z m0 48c4.4 0 8 3.6 8 8 0 4.4-3.6 8-8 8l-368 0c-4.4 0-8-3.6-8-8 0-4.4 3.6-8 8-8l368 0z m0-144c4.4 0 8 3.6 8 8 0 4.4-3.6 8-8 8l-368 0c-4.4 0-8-3.6-8-8 0-4.4 3.6-8 8-8l368 0z m-360-32l112 0c8.8 0 16-7.2 16-16l0-96c0-8.8-7.2-16-16-16l-112 0c-8.8 0-16 7.2-16 16l0 96c0 8.8 7.2 16 16 16z m16-96l80 0 0 64-80 0 0-64z"/></svg><svg viewBox="0 0 512 512" id="clock" width="24" height="24" x="33" y="123"><path d="m240 160a16-16 180 1 0 32 0 16-16 180 1 0-32 0z m0 192a16-16 180 1 0 32 0 16-16 180 1 0-32 0z m-96-96a16-16 180 1 0 32 0 16-16 180 1 0-32 0z m192 0a16-16 180 1 0 32 0 16-16 180 1 0-32 0z m-163.9 67.9a16-16 180 1 0 32 0 16-16 180 1 0-32 0z m0-135.8a16-16 180 1 0 32 0 16-16 180 1 0-32 0z m135.8 135.8a16-16 180 1 0 32 0 16-16 180 1 0-32 0z m108.1-99.9c-1.1 0-2.1 0.5-3.2 0.6-5.5-27.9-18.7-52.9-36.7-73.5l-23-125c-2.8-15.1-16-26.1-31.4-26.1l-128 0c-15.5 0-28.7 11-31.5 26.2l-22.4 120.7c-26.9 28.6-43.8 66.7-43.8 109.1 0 41.3 16.2 78.5 41.9 106.8l22.6 123.1c2.8 15.1 16.1 26.1 31.5 26.1l128 0c15.4 0 28.6-11 31.5-26.2l22.8-122.9c19-20.9 32.8-46.7 38.5-75.6 1.1 0.2 2.1 0.7 3.2 0.7 17.7 0 32-14.3 32-32 0-17.7-14.3-32-32-32z m-222.3-192l128 0 16 86.2c-23.7-13.8-50.7-22.2-80-22.2-29.3 0-56.4 8.4-80 22.2l16-86.2z m126.3 448l-128 0-16-86.2c23.6 13.7 50.7 22.2 80 22.2 29.3 0 56.4-8.5 80-22.2l-16 86.2z m-64-96c-70.6 0-128-57.4-128-128 0-70.6 57.4-128 128-128 70.6 0 128 57.4 128 128 0 70.6-57.4 128-128 128z m79.1-207.6c1.9 2 2.1 5.1 0.4 7.2l-38.8 48.3-29.6 35.6c-3 2.9-7.2 4.4-11.2 4.5-4.3-0.1-8.3-1.7-11.3-4.7-3-3-4.6-7-4.6-11.2 0-4.3 1.7-8.4 4.7-11.5l83.1-68.5c2.2-1.8 5.3-1.6 7.3 0.3z"/></svg><svg viewBox="0 0 512 512" id="paperplane" width="24" height="24" x="63" y="123"><path d="m504.7 2.6c-2.7-1.8-5.7-2.6-8.7-2.6-3.1 0-6.2 0.9-8.9 2.7l-480 320c-4.9 3.3-7.6 9-7 15 0.6 5.9 4.4 11 10 13.1l125.1 50.1 58.9 103.1c2.8 4.9 8.1 8 13.7 8 0.1 0 0.1 0 0.2 0 5.6 0 10.8-3 13.7-7.8l33.2-55.4 155.2 62.1c1.9 0.7 3.9 1.1 5.9 1.1 2.7 0 5.4-0.7 7.8-2.1 4.3-2.3 7.2-6.5 8-11.3l80-480c1-6.3-1.8-12.6-7.1-16z m-454.5 329.8l370.8-247.2-269.6 288.6c-1.4-0.8-2.7-2-4.3-2.6l-96.9-38.8z m112.8 52.7c0-0.1-0.1-0.1-0.1-0.2l303.1-324.4-258.4 402.6-44.6-78z m240.5 88.6l-136.7-54.6c-3.2-1.3-6.6-1.7-10-1.9l210.5-326.2-63.8 382.7z"/></svg><svg viewBox="0 0 512 512" id="params" width="24" height="24" x="93" y="123"><path d="m128 96.3l0-48.3c0-26.5-21.5-48-48-48s-48 21.5-48 48l0 48.3c-19.3 14.7-32 37.6-32 63.7s12.7 49 32 63.6l0 240.4c0 26.5 21.5 48 48 48s48-21.5 48-48l0-240.4c19.3-14.6 32-37.5 32-63.6s-12.7-49-32-63.7z m-64-48.3c0-8.8 7.2-16 16-16s16 7.2 16 16l0 33.6c-5.2-1-10.5-1.6-16-1.6s-10.8 0.6-16 1.6l0-33.6z m32 416c0 8.8-7.2 16-16 16s-16-7.2-16-16l0-225.6c5.2 1 10.5 1.6 16 1.6s10.8-0.6 16-1.6l0 225.6z m29.8-290.6c-0.2 0.9-0.4 1.7-0.7 2.6-1.6 4.2-3.5 8.2-6.1 11.7-0.1 0.1-0.2 0.2-0.2 0.3-2.8 3.8-6.1 7.2-9.9 10 0 0.1-0.1 0.1-0.1 0.2-3.9 2.9-8.2 5.2-12.8 6.8-5 1.8-10.4 3-16 3s-11-1.2-16-3c-4.6-1.6-8.9-3.9-12.8-6.9 0 0-0.1 0-0.1-0.1-3.8-2.8-7.1-6.2-9.9-10-0.1-0.1-0.2-0.2-0.2-0.3-2.6-3.5-4.6-7.5-6.1-11.7-0.3-0.9-0.5-1.7-0.8-2.6-1.2-4.2-2.1-8.7-2.1-13.4 0-4.7 0.9-9.2 2.2-13.5 0.2-0.8 0.4-1.7 0.7-2.5 1.5-4.2 3.5-8.2 6.1-11.8 0.1-0.1 0.2-0.1 0.2-0.2 2.8-3.8 6.1-7.2 9.9-10.1 0 0 0.1-0.1 0.1-0.1 3.9-2.9 8.2-5.2 12.8-6.9 5-1.7 10.4-2.9 16-2.9s11 1.2 16 2.9c4.6 1.7 8.9 4 12.8 6.9 0 0.1 0.1 0.1 0.1 0.2 3.8 2.8 7.1 6.2 9.9 10 0.1 0.1 0.2 0.1 0.2 0.2 2.6 3.6 4.6 7.6 6.1 11.8 0.3 0.8 0.5 1.7 0.7 2.5 1.3 4.3 2.2 8.8 2.2 13.5 0 4.7-0.9 9.2-2.2 13.4z m354.2-77.1l0-48.3c0-26.5-21.5-48-48-48s-48 21.5-48 48l0 48.3c-19.3 14.7-32 37.6-32 63.7s12.7 49 32 63.6l0 240.4c0 26.5 21.5 48 48 48s48-21.5 48-48l0-240.4c19.3-14.6 32-37.5 32-63.6s-12.7-49-32-63.7z m-64-48.3c0-8.8 7.2-16 16-16s16 7.2 16 16l0 33.6c-5.2-1-10.5-1.6-16-1.6-5.5 0-10.8 0.6-16 1.6l0-33.6z m32 416c0 8.8-7.2 16-16 16s-16-7.2-16-16l0-225.6c5.2 1 10.5 1.6 16 1.6 5.5 0 10.8-0.6 16-1.6l0 225.6z m29.8-290.6c-0.2 0.9-0.5 1.7-0.7 2.6-1.6 4.2-3.5 8.2-6.1 11.7-0.1 0.1-0.2 0.2-0.2 0.3-2.8 3.8-6.1 7.2-9.9 10 0 0.1-0.1 0.1-0.1 0.2-3.9 2.9-8.2 5.2-12.8 6.8-5 1.8-10.4 3-16 3-5.7 0-11-1.2-16-3-4.6-1.6-8.9-3.9-12.8-6.9 0 0-0.1 0-0.1-0.1-3.8-2.8-7.1-6.2-9.9-10-0.1-0.1-0.2-0.2-0.2-0.3-2.6-3.5-4.6-7.5-6.1-11.7-0.3-0.9-0.5-1.7-0.8-2.6-1.2-4.2-2.1-8.7-2.1-13.4 0-4.7 0.9-9.2 2.2-13.5 0.2-0.8 0.4-1.7 0.7-2.5 1.5-4.2 3.5-8.2 6.1-11.8 0-0.1 0.1-0.1 0.2-0.2 2.8-3.8 6.1-7.2 9.9-10.1 0 0 0.1-0.1 0.1-0.1 3.9-2.9 8.2-5.2 12.8-6.9 5-1.7 10.3-2.9 16-2.9 5.6 0 11 1.2 16 2.9 4.6 1.7 8.9 4 12.8 6.9 0 0.1 0.1 0.1 0.1 0.2 3.8 2.8 7.1 6.2 9.9 10 0 0.1 0.1 0.1 0.2 0.2 2.6 3.6 4.5 7.6 6.1 11.8 0.3 0.9 0.5 1.7 0.8 2.5 1.2 4.3 2.1 8.8 2.1 13.5 0 4.7-0.9 9.2-2.2 13.4z m-173.8 114.9l0-240.3c0-26.5-21.5-48-48-48s-48 21.5-48 48l0 240.3c-19.3 14.7-32 37.6-32 63.7s12.7 49 32 63.6l0 48.4c0 26.5 21.5 48 48 48s48-21.5 48-48l0-48.4c19.3-14.6 32-37.5 32-63.6s-12.7-49-32-63.7z m-64-240.3c0-8.8 7.2-16 16-16 8.8 0 16 7.2 16 16l0 225.6c-5.2-1-10.5-1.6-16-1.6-5.5 0-10.8 0.6-16 1.6l0-225.6z m32 416c0 8.8-7.2 16-16 16-8.8 0-16-7.2-16-16l0-33.6c5.2 1 10.5 1.6 16 1.6 5.5 0 10.8-0.6 16-1.6l0 33.6z m29.8-98.6c-0.2 0.9-0.5 1.7-0.7 2.6-1.6 4.2-3.5 8.2-6.1 11.7-0.1 0.1-0.2 0.2-0.2 0.3-2.8 3.8-6.1 7.2-9.9 10 0 0.1-0.1 0.1-0.1 0.2-3.9 2.9-8.2 5.2-12.8 6.8-5 1.8-10.4 3-16 3-5.6 0-11-1.2-16-3-4.6-1.6-8.9-3.9-12.8-6.9 0 0-0.1 0-0.1-0.1-3.8-2.8-7.1-6.2-9.9-10-0.1-0.1-0.2-0.2-0.2-0.3-2.6-3.5-4.6-7.5-6.1-11.7-0.3-0.9-0.5-1.7-0.8-2.6-1.2-4.2-2.1-8.7-2.1-13.4 0-4.7 0.9-9.2 2.2-13.5 0.2-0.8 0.4-1.7 0.7-2.5 1.6-4.2 3.5-8.2 6.1-11.8 0.1-0.1 0.2-0.1 0.2-0.2 2.8-3.8 6.1-7.2 9.9-10.1 0 0 0.1-0.1 0.1-0.1 3.9-2.9 8.2-5.2 12.8-6.9 5-1.7 10.4-2.9 16-2.9 5.6 0 11 1.2 16 2.9 4.6 1.7 8.9 4 12.8 6.9 0 0.1 0.1 0.1 0.1 0.2 3.8 2.8 7.1 6.2 9.9 10 0 0.1 0.1 0.1 0.2 0.2 2.6 3.6 4.5 7.6 6.1 11.8 0.3 0.9 0.5 1.7 0.8 2.5 1.2 4.3 2.1 8.8 2.1 13.5 0 4.7-0.9 9.2-2.2 13.4z"/></svg><svg viewBox="0 0 512 512" id="banknote" width="24" height="24" x="123" y="123"><path d="m502.6 169.4l-160-160c-7.9-8-19.4-11.1-30.3-8.5-5.7 1.5-10.9 4.4-14.9 8.5-3.7 3.6-6.4 8.1-8 13.1-7.2 23.5-19.8 44-38.3 62.5-24.8 24.7-57 43.5-91.1 63.3-36.3 21-73.7 42.8-104.4 73.4-26 26.1-43.8 55.1-54.2 88.8-3.5 11.4-0.4 23.7 8 32.1l160 160c7.9 8 19.4 11.2 30.3 8.5 5.7-1.5 10.9-4.4 14.9-8.5 3.7-3.6 6.4-8.1 8-13.1 7.2-23.5 19.8-44 38.3-62.5 24.8-24.8 57-43.5 91.2-63.3 36.2-21 73.6-42.8 104.3-73.4 26-26.1 43.8-55.1 54.2-88.8 3.5-11.4 0.4-23.8-8-32.1z m-310.6 310.6c-53-53-107-107-160-160 45.5-147.2 242.6-140.8 288-288 53 53 107 107 160 160-45.5 147.2-242.5 140.8-288 288z m121-241.6c-5.2-4.4-10.5-7.3-15.8-8.8-5.2-1.5-10.4-2.1-15.8-1.7-5.2 0.4-10.6 1.6-16 3.7-5.3 2.1-10.7 4.3-16.2 7-8.6-9.9-17.2-19.7-25.8-28.7 3.9-3.5 7.7-5.3 11.3-5.4 3.6-0.2 7.1 0.2 10.4 1 3.4 0.9 6.5 1.6 9.3 2.2 2.9 0.5 5.4-0.1 7.6-1.9 2.3-2 3.6-4.6 3.8-7.8 0.1-3.1-1-6.2-3.7-9.2-3.4-3.8-7.4-6.2-12.3-7.1-4.8-0.8-9.8-0.7-14.9 0.4-5 1.1-9.9 3-14.4 5.7s-8.2 5.5-11 8.2c-1-1-2-2-3.1-3-1.1-1-2.6-1.6-4.3-1.6-1.7 0-3.2 0.8-4.4 2.1-1.1 1.4-1.7 2.9-1.4 4.6 0.1 1.7 0.8 3 2 4 1 0.9 2.1 1.8 3.1 2.7-4.1 4.9-7.5 10.4-10.1 16.1-2.7 5.8-4.3 11.5-4.9 17.1-0.6 5.6 0 10.7 1.7 15.5 1.7 4.8 4.9 8.8 9.5 12.7 7.5 6.2 16.4 8.9 26.7 8.3 10.2-0.6 21.3-3.7 33.2-10.1 9.4 10.9 18.9 21.8 28.3 31.8-4 3.4-7.5 5.3-10.6 6-3 0.6-5.8 0.6-8.3-0.2-2.5-0.8-4.8-1.9-6.9-3.3-2.2-1.5-4.3-2.8-6.4-3.8-2-1-4.1-1.6-6.3-1.6s-4.5 1-7.1 3.2c-2.6 2.3-3.9 4.9-3.9 7.9 0 3 1.4 6 4.1 9.1 2.7 3 6.2 5.6 10.5 7.7s9.1 3.3 14.4 3.6c5.3 0.4 10.9-0.4 16.8-2.6 5.9-2.2 11.8-6.1 17.6-11.9 2.8 2.7 5.6 5.3 8.4 7.8 1.2 1.1 2.6 1.6 4.4 1.4 1.7 0 3.1-0.8 4.3-2.2 1.2-1.5 1.7-3 1.5-4.7-0.2-1.7-0.8-3-2-3.9-2.8-2.3-5.6-4.6-8.4-7.1 4.8-5.9 8.6-12.1 11.4-18.2 2.9-6.2 4.6-12.1 5.1-17.6 0.6-5.6-0.1-10.6-1.9-15.1-1.8-4.6-4.9-8.5-9.5-12.3z m-89.5 10.8c-4.5 0.2-8.4-1.3-11.9-4.6-1.5-1.4-2.5-3.1-3.1-5.2-0.7-2-0.9-4.2-0.6-6.6 0.2-2.4 0.9-5 2.1-7.5 1.2-2.5 3-5 5.2-7.5 8.1 8.1 16.2 16.9 24.4 26.1-6.2 3.3-11.5 5.2-16.1 5.3z m75.5 32.1c-1.4 2.6-3.1 5-5 7.1-9-9.1-18-19-26.9-29.2 2.3-1.1 4.7-2.1 7.3-3.2s5.2-1.8 7.8-2.3c2.6-0.4 5.2-0.3 7.9 0.3 2.6 0.7 5 2.1 7.3 4.3 2.3 2.3 3.7 4.6 4.3 7.2 0.6 2.5 0.6 5.1 0.2 7.8-0.5 2.6-1.4 5.3-2.9 8z m-63.5 73.6c3.1-2.6 7.8-2.4 10.7 0.5 3.1 3.1 3.1 8.2 0 11.4-0.3 0.2-0.6 0.4-0.9 0.6l0.1 0c-10.2 7.7-18.5 14.7-27.4 23.6-8.2 8.1-15.5 16.7-21.8 25.3l-10.2 14c-0.4 0.6-0.8 1.1-1.2 1.6-3.2 3.1-8.3 3.1-11.4 0-2.7-2.7-3-6.9-1-10l-0.1 0 11-15c6.8-9.3 14.7-18.5 23.3-27.2 9.1-9 18.8-17.1 28.8-24.8l0.1 0z m58.5-231.5c8.1-8.1 15.5-16.6 21.8-25.3l10.6-14.5c0.4-0.7 0.8-1.4 1.4-2 3.2-3.1 8.3-3.1 11.4 0 3 3 3.2 7.8 0.4 11l0.1 0-11 15c-6.8 9.3-14.7 18.5-23.3 27.2-9.1 9-18.8 17.1-28.8 24.8l-0.1 0c-3.2 2.9-8.1 2.8-11.2-0.3-3.1-3.1-3.1-8.2 0-11.4 0.6-0.6 1.2-1 1.9-1.4 9.4-7.2 18.5-14.7 26.8-23.1z"/></svg><svg viewBox="0 0 512 512" id="data" width="24" height="24" x="153" y="123"><path d="m256 0c-107.9 0-224 32.5-224 104l0 304c0 71.4 116.1 104 224 104 107.9 0 224-32.6 224-104l0-304c0-71.5-116.1-104-224-104z m192 408c0 39.7-86 72-192 72-106 0-192-32.3-192-72l0-59.8c33.1 34.1 112.8 51.8 192 51.8 79.2 0 158.9-17.7 192-51.8l0 59.8z m0-96l-0.1 0c0 0.2 0.1 0.3 0.1 0.5 0 39.5-86 71.5-192 71.5-106 0-192-32-192-71.5 0-0.2 0.1-0.3 0.1-0.5l-0.1 0 0-59.8c33.1 34.1 112.8 51.8 192 51.8 79.2 0 158.9-17.7 192-51.8l0 59.8z m0-96l-0.1 0c0 0.2 0.1 0.3 0.1 0.5 0 39.5-86 71.5-192 71.5-106 0-192-32-192-71.5 0-0.2 0.1-0.3 0.1-0.5l-0.1 0 0-55c41.9 32 118.8 47 192 47 73.2 0 150.1-15 192-47l0 55z m-192-40c-106 0-192-32.3-192-72 0-39.8 86-72 192-72 106 0 192 32.2 192 72 0 39.7-86 72-192 72z m128 240a16-16 180 1 0 32 0 16-16 180 1 0-32 0z m0-96a16-16 180 1 0 32 0 16-16 180 1 0-32 0z m0-96a16-16 180 1 0 32 0 16-16 180 1 0-32 0z"/></svg><svg viewBox="0 0 512 512" id="music" width="24" height="24" x="183" y="123"><path d="m500.6 7.5c-5.8-4.9-13.1-7.5-20.6-7.5-1.8 0-3.7 0.2-5.6 0.5l-272 48c-15.3 2.7-26.4 16-26.4 31.5l0 32 0 16 0 226.7c-16.3-11.8-37.3-18.7-60.7-18.7-13.6 0-27.2 2.3-40.5 6.7-30.4 10.1-54.7 30.4-66.8 55.7-9.3 19.6-10.5 40.8-3.4 59.9 12.2 32.6 46.7 53.7 88.1 53.7 13.6 0 27.2-2.2 40.5-6.7 30.3-10.1 54.7-30.4 66.8-55.6 5.2-10.9 7.6-22.4 7.7-33.7l0.3 0 0-256c1.8 0 3.7-0.2 5.5-0.5l266.5-47 0 194.2c-16.2-11.8-37.3-18.7-60.7-18.7-13.6 0-27.2 2.3-40.5 6.7-30.3 10.1-54.7 30.4-66.8 55.7-9.3 19.6-10.5 40.8-3.4 59.9 12.2 32.6 46.8 53.7 88.1 53.7 13.6 0 27.3-2.2 40.5-6.7 30.3-10.1 54.7-30.4 66.8-55.6 5.2-10.9 7.6-22.4 7.7-33.7l0.3 0 0-288 0-16 0-32c0-9.4-4.2-18.4-11.4-24.5z m-377.6 467.5c-38.3 12.8-78 0.3-88.5-27.8-10.5-28.2 12.1-61.4 50.4-74.2 38.3-12.7 77.9-0.3 88.4 27.9 10.6 28.1-12 61.3-50.3 74.1z m303.4-48c-38.3 12.8-78 0.3-88.4-27.8-10.6-28.2 12-61.4 50.3-74.2 38.4-12.7 78-0.3 88.5 27.9 10.5 28.1-12 61.3-50.4 74.1z m53-347l-272.1 48 0-16 0-32 272.1-48 0 32 0 16z"/></svg><svg viewBox="0 0 512 512" id="megaphone" width="24" height="24" x="3" y="153"><path d="m400 0c-32.8 0-58.7 22.6-77.2 57.4l-0.3-0.2c-26.9 52.7-67 86.8-110.9 86.8l-10.6 0-70.5 0-66.5 0c-35.9 0-64 35.2-64 80 0 44.9 28.1 80 64 80 17.6 0.1 31.9 14.3 31.9 32l0 144c0 17.7 14.4 32 32 32l64 0c17.7 0 32-14.3 32-32l0-16c0-16-16-23.2-16-32l0-112c0-0.4 0.3-0.6 0.3-1 0.2-2.3 0.8-4.4 1.8-6.3 0.3-0.5 0.6-1 0.9-1.4 1.3-1.9 2.9-3.5 4.9-4.7 0.1-0.1 0.1-0.2 0.2-0.2 0.1 0 0.1-0.1 0.2-0.1 1.3-0.7 2.8-0.9 4.3-1.3 40.3 4.3 76.9 36.9 102 86l0.4-0.2c18.5 34.7 44.3 57.2 77.1 57.2 73.5 0 112-112.7 112-224s-38.5-224-112-224z m-80 224c0-16.6 1-32.6 2.6-48l45.4 0c17.7 0 32 21.5 32 48 0 26.5-14.3 48-32 48l-45.4 0c-1.6-15.4-2.6-31.4-2.6-48z m-288 0c0-26.5 14.3-48 32-48l66.5 0 13.5 0 32.2 0c-9.9 11.7-16.2 28.6-16.2 48 0 19.4 6.3 36.4 16.2 48l-32.2 0-80 0c-17.7 0-32-21.5-32-48z m159.9 256l-64 0 0-144c0-11.7-3.1-22.6-8.6-32l11.2 0 0 0.2 48.1 0c-1.7 5-2.7 10.2-2.7 15.8l0 112c0 15.4 8.6 25.7 13.8 31.8 0.7 0.8 1.5 1.7 2.2 2.6l0 13.6z m19.7-207.8l-3.6 0 0-0.2c-17.7 0-32-21.5-32-48 0-26.5 14.3-48 32-48l3.6 0c30.2 0 58.4-11.9 83.3-32.3-4.6 25.8-6.9 53.1-6.9 80.3 0 27.3 2.3 54.7 6.9 80.5-24.8-20.4-53.1-32.3-83.3-32.3z m188.4 143.8c-32.3 0-60-45.9-72.7-112l40.7 0c35.9 0 64-35.1 64-80 0-44.8-28.1-80-64-80l-40.7 0c12.7-66 40.4-112 72.7-112 44.2 0 80 86 80 192s-35.8 192-80 192z"/></svg><svg viewBox="0 0 512 512" id="study" width="24" height="24" x="33" y="153"><path d="m512 128c0-22.5-15.3-41.7-37.2-46.8l-208.2-48c-3.5-0.8-7.1-1.2-10.6-1.2-3.5 0-7.1 0.4-10.8 1.2l-208 48c-21.9 5.1-37.2 24.3-37.2 46.8s15.3 41.7 37.2 46.8l42.8 9.9 0 135.3c0 42.5 48.6 80 176 80s176-37.5 176-80l0-135.3 42.8-9.9c21.9-5.1 37.2-24.3 37.2-46.8z m-112 192c0 17.7-48 48-144 48-96 0-144-30.3-144-48l0-128 133.4 30.8c3.5 0.8 7.1 1.2 10.6 1.2 3.5 0 7.1-0.4 10.8-1.2l133.2-30.8 0 128z m-140.4-128.4c-1.2 0.3-2.4 0.4-3.6 0.4s-2.4-0.1-3.6-0.4l-208-48c-7.3-1.7-12.4-8.1-12.4-15.6s5.1-13.9 12.4-15.6l208-48c1.2-0.3 2.4-0.4 3.6-0.4s2.4 0.1 3.6 0.4l208 48c7.2 1.7 12.4 8.1 12.4 15.6s-5.2 13.9-12.4 15.6l-208 48z m204.4 16.4c0-8.8 7.2-16 16-16 8.8 0 16 7.2 16 16l0 144c0 8.8-7.2 16-16 16-8.8 0-16-7.2-16-16l0-144z m16 176c17.7 0 32 46.3 32 64 0 17.7-14.3 32-32 32-17.7 0-32-14.3-32-32 0-17.7 14.3-64 32-64z"/></svg><svg viewBox="0 0 512 512" id="lab" width="24" height="24" x="63" y="153"><path d="m330.9 59.7c-7.6-7.5-17.6-11.7-28.3-11.7s-20.7 4.2-28.3 11.7l-22.6 22.6c-7.5 7.6-11.7 17.6-11.7 28.3 0 7.6 2.1 14.8 5.9 21l-217.2 87.1c-14.5 6.3-24.9 19.4-27.9 35-2.9 15.6 2 31.6 13.4 43l203.5 201.3c8.8 8.7 20.4 13.7 32.7 14 0.3 0 1 0 1.3 0 3.2 0 6.5-0.3 9.7-1 15.9-3.3 29-14.3 34.9-29.2l85.4-214.1c6.5 4.3 14 6.6 21.9 6.6 10.7 0 20.8-4.2 28.3-11.8l22.5-22.5c7.6-7.6 11.8-17.6 11.8-28.4s-4.2-20.8-11.7-28.3l-123.6-123.6z m-64.4 410.2c-1.9 5-6.3 8.7-11.6 9.8-1.2 0.2-2.4 0.3-3.7 0.3-4-0.1-7.9-1.7-10.9-4.7l-203.6-201.4c-3.8-3.7-5.4-9.1-4.4-14.3 1-5.2 4.5-9.5 9.3-11.6l99.5-39.9c67 22.3 134 0.8 201.1 72.4l-75.7 189.4z m165.4-252.6l-22.7 22.6c-3.1 3.1-8.1 3.1-11.3 0l-28.3-28.3-22.9 57.4 1.9-4.8c-48.1-48.1-97.1-54.2-141.2-59.6-14.2-1.7-28-3.5-41.5-6.5l135.9-54.4-27.5-27.4c-3.1-3.1-3.1-8.2 0-11.3l22.6-22.7c3.2-3.1 8.2-3.1 11.4 0l123.6 123.7c3.1 3.1 3.1 8.2 0 11.3z m-167.9 118.7c22 0 40-17.9 40-40s-17.9-40-40-40c-22.1 0-40 17.9-40 40s18 40 40 40z m0-64c13.2 0 24 10.8 24 24s-10.8 24-24 24c-13.3 0-24-10.8-24-24s10.7-24 24-24z m208-272c-22.1 0-40 17.9-40 40s17.9 40 40 40 40-17.9 40-40-17.9-40-40-40z m0 64c-13.2 0-24-10.8-24-24s10.8-24 24-24 24 10.8 24 24-10.8 24-24 24z m-344 208c0 17.6 14.4 32 32 32s32-14.4 32-32-14.4-32-32-32-32 14.4-32 32z m32-16c8.8 0 16 7.2 16 16s-7.2 16-16 16-16-7.2-16-16 7.2-16 16-16z m32 112a16-16 180 1 0 32 0 16-16 180 1 0-32 0z m256-240a16-16 180 1 0 32 0 16-16 180 1 0-32 0z"/></svg><svg viewBox="0 0 512 512" id="food" width="24" height="24" x="93" y="153"><path d="m472 336l-43.1 0c-0.7-3.8-1.6-7.6-2.5-11.3l76.8-38.4c7.9-3.9 11.1-13.5 7.1-21.5-3.9-7.9-13.5-11-21.5-7.1l-73.2 36.6c-27.9-60.3-88.9-102.3-159.6-102.3-86.1 0-157.8 62.2-172.9 144l-43.1 0c-22 0-40 17.9-40 40 0 7.8 2.9 15.4 8.1 21.3l55.9 62.9 0 11.8c0 22.1 18 40 40 40l304 0c22.1 0 40-17.9 40-40l0-11.8 55.9-62.9c5.2-5.9 8.1-13.5 8.1-21.3 0-22.1-17.9-40-40-40z m-59.2 0l-9 0 8-4c0.3 1.3 0.7 2.6 1 4z m-156.8-128c64.5 0 120 38.4 145.3 93.5l-14.2 7.1c-22.7-49.9-72.8-84.6-131.1-84.6-68.5 0-125.7 47.9-140.3 112l-16.5 0c14.9-72.9 79.5-128 156.8-128z m73.2 128c-12.4-28.2-40.5-48-73.2-48s-60.8 19.8-73.2 48l-17.2 0c13.2-37.2 48.7-64 90.4-64 39.4 0 73.4 23.9 88.1 58l-11.9 6-3 0z m-73.2-16c-14.1 0-26.7 6.3-35.5 16l-19.6 0c11.1-19 31.5-32 55.1-32 23.6 0 44 13 55.1 32l-19.6 0c-8.8-9.7-21.4-16-35.5-16z m0-64c-50.6 0-93.5 33.8-107.3 80l-16.5 0c14.3-55.1 64.3-96 123.8-96 51.9 0 96.7 31.2 116.7 75.7l-14.3 7.2c-17.4-39.3-56.7-66.9-102.4-66.9z m160 192l0 24c0 4.4-3.6 8-8 8l-304 0c-4.4 0-8-3.6-8-8l0-24-64-72c0-4.4 3.6-8 8-8l40 0 16 0 16 0 16 0 16 0 16 0 16 0 16 0 16 0 96 0 16 0 16 0 16 0 16 0 16 0 16 0 16 0 16 0 40 0c4.4 0 8 3.6 8 8l-64 72z m-288.4-260.6c-0.1-0.2-0.2-0.4-0.3-0.7-8.3-20 0-39.7 7.5-57.4 7-16.9 13.3-31.8 6.8-46.3 0-0.1 0-0.2-0.1-0.2 0-0.1 0-0.1 0-0.2 0 0 0 0 0-0.1-0.4-0.8-0.6-1.7-0.6-2.7 0-4.3 3.5-7.8 7.9-7.8 3.3 0 6.1 2.1 7.3 5 8.9 20.3 0.8 40.3-6.8 58.4-7 16.6-12.7 32.1-6.7 46.2 0.1 0.1 0.1 0.2 0 0.4 0.2 0.6 0.3 1.3 0.3 2 0 4.4-3.6 8-8 8-3.1 0-5.8-1.8-7.1-4.3 0 0 0 0 0 0-0.1-0.1-0.1-0.2-0.2-0.3z m194.9-2.3c-0.1-0.3-0.2-0.5-0.3-0.7-8.3-20-0.1-39.7 7.4-57.5 7.1-16.8 13.3-31.7 6.8-46.2 0-0.1 0-0.2 0-0.2-0.1-0.1-0.1-0.1-0.1-0.2 0 0 0 0 0-0.1-0.3-0.8-0.5-1.7-0.5-2.7 0-4.3 3.5-7.8 7.8-7.8 3.4 0 6.2 2 7.3 5 9 20.3 0.8 40.3-6.7 58.3-7 16.7-12.7 32.2-6.7 46.3 0 0.1 0 0.2 0 0.3 0.1 0.7 0.3 1.3 0.3 2 0 4.5-3.7 8.1-8.1 8.1-3.1 0-5.7-1.8-7.1-4.4l0 0c0-0.1-0.1-0.1-0.1-0.2z m-82.2-69.7c-0.1-0.2-0.2-0.4-0.3-0.7-8.3-20-0.1-39.7 7.4-57.4 7-16.9 13.3-31.8 6.8-46.3 0-0.1 0-0.2 0-0.2 0-0.1-0.1-0.1-0.1-0.2 0 0 0 0 0-0.1-0.3-0.8-0.5-1.7-0.5-2.7 0-4.3 3.5-7.8 7.8-7.8 3.4 0 6.2 2.1 7.4 5 8.9 20.4 0.8 40.4-6.8 58.4-7 16.6-12.7 32.1-6.7 46.2 0 0.2 0 0.3 0 0.4 0.2 0.6 0.3 1.3 0.3 2 0 4.4-3.6 8-8 8-3.1 0-5.8-1.8-7.1-4.3-0.1 0-0.1 0-0.1 0 0-0.1 0-0.2-0.1-0.3z"/></svg><svg viewBox="0 0 512 512" id="t-shirt" width="24" height="24" x="123" y="153"><path d="m500 103l-80-64c-5.7-4.5-12.8-7-20-7l-288 0c-7.3 0-14.3 2.5-20 7l-80 64c-10.5 8.4-14.6 22.4-10.4 35.1l32 96c3.2 9.5 10.6 16.9 20 20.2 3.4 1.1 6.9 1.7 10.4 1.7 5.6 0 11.1-1.5 16-4.3l0 196.3c0 17.7 14.3 32 32 32l288 0c17.7 0 32-14.3 32-32l0-196.3c4.9 2.8 10.4 4.3 16 4.3 3.5 0 7-0.6 10.4-1.7 9.4-3.3 16.8-10.7 19.9-20.2l32-96c4.3-12.7 0.2-26.7-10.3-35.1z m-183.9-39c-8.9 18.6-32.3 32-60.1 32-27.8 0-51.2-13.4-60.1-32l120.2 0z m131.9 160l-48-32 0 256-288 0 0-256-48 32-32-96 80-64 66.8 0c8.9 27.6 40 48 77.2 48 37.2 0 68.3-20.4 77.2-48l66.8 0 80 64-32 96z"/></svg><svg viewBox="0 0 512 512" id="fire" width="24" height="24" x="153" y="153"><path d="m352 144c-1 42.8-33.1 78.9-33.1 78.9 0-79.6-62.9-142.9-62.9-142.9s-0.8 47.4-32.7 95.2c-31.8-111.5-127.4-175.2-127.4-175.2 47.8 175.2-15.9 238.9-15.9 366.3 0 74.7 63.3 145.7 160 145.7 143.3 0 171-52.6 185.8-111.9 20.5-81.6-10.1-176.5-73.8-256.1z m42.8 248.3c-10.3 41.1-21.9 87.7-154.8 87.7-80.1 0-128-57.8-128-113.7 0-42.8 7.8-78 16.1-115.2 10.5-47.2 21.2-95.5 16.6-159.4 49.3 68.3 66.9 158.8 66.9 158.8s45.9-64.5 58.3-94.4c9.4 19.2 18.1 83.9 18.1 147.9 0 0 42.5-35 74.4-87.6 33.5 60.1 45.6 123.1 32.4 175.9z m-35.9-123.6l3 16.6c6.6 37.1 2.9 80.9-9.5 111.7-1.2 3.1-4.2 5-7.4 5-1 0-2-0.2-3-0.6-4.1-1.6-6.1-6.3-4.4-10.4 9.3-23.2 13.2-55.8 10.8-85.6-16.1 17.9-36.4 36.6-79.6 57.2l-8.1 3.8-2.9-8.4c-5.8-16.8-11.6-33.8-14.2-57.5-8.6 13.7-16.5 25.8-29.8 43.9l-8.1 11.1-5.7-12.6c-13.7-30.8-24.2-54.8-32.6-76-7.7 24.7-13.4 53.3-13.4 111.1 0 4.4-3.6 8-8 8-4.4 0-8-3.6-8-8 0-75.4 10-104.4 20.6-135.1l8.3-24.2 7.6 21.6c8.3 23.2 19.1 48.8 34.5 83.4 10.1-14.3 16.9-25 25.1-38l24.3-38.1 0 27.4c0 30.8 5.5 50.9 11.6 69.2 42.5-21.4 58.5-40.1 75.3-59.7l13.6-15.8z"/></svg><svg viewBox="0 0 512 512" id="clip" width="24" height="24" x="183" y="153"><path d="m469.8 74.2c56.3 56.2 56.3 147.4 0 203.6l-175.5 175.5c-6.2 6.3-16.3 6.3-22.6 0-6.3-6.2-6.3-16.3 0-22.6l173.2-173.2c43.8-43.8 43.8-114.7 0-158.4-43.7-43.8-114.6-43.8-158.4 0l-231.1 228.4c-31.3 31.2-31.3 81.9 0 113.1 31.2 31.3 81.8 31.3 113.1 0l233.4-230.6c18.8-18.8 18.8-49.2 0-67.9-18.7-18.7-49.1-18.7-67.8 0l-175.5 175.5c-6.3 6.2-16.4 6.2-22.7 0-6.2-6.3-6.2-16.4 0-22.7l175.5-175.5c31.2-31.2 81.9-31.2 113.1 0 31.3 31.3 31.3 81.9 0 113.2l-233.4 230.7c-43.6 43.6-114.7 43.6-158.4 0-43.6-43.7-43.6-114.8 0-158.4l233.5-230.7c56.2-56.3 147.4-56.3 203.6 0z"/></svg><svg viewBox="0 0 512 512" id="shop" width="24" height="24" x="3" y="183"><path d="m502.4 179.2l-48-64c-1.9-2.5-4.1-4.7-6.4-6.7l0-76.5c0-17.7-14.3-32-32-32l-320 0c-17.7 0-32 14.3-32 32l0 76.5c-2.3 2-4.5 4.2-6.4 6.7l-48 64c-6.2 8.2-9.6 18.5-9.6 28.8l0 16c0 26.5 21.5 48 48 48l0 0 0 208c0 17.7 14.3 32 32 32l352 0c17.7 0 32-14.3 32-32l0-208 0 0c26.5 0 48-21.5 48-48l0-16c0-10.3-3.4-20.6-9.6-28.8z m-86.4-147.2l0 64-320 0 0 0 0-64 320 0z m-252.9 208l-67 0 64-112 35 0-32 112z m48.6-112l36.3 0 0 112-68.3 0 32-112z m52.3 0l36.3 0 32 112-68.3 0 0-112z m52.9 0l35 0 64 112-67 0-32-112z m-284.9 96l0-16c0-3.5 1.1-6.8 3.2-9.6l48-64c3-4 7.8-6.4 12.8-6.4l45.6 0-64 112-29.6 0c-8.8 0-16-7.2-16-16z m288 256l-120 0 0-160 120 0 0 160z m112 0l-96 0 0-160c0-8.8-7.2-16-16-16l-120 0c-8.8 0-16 7.2-16 16l0 160-104 0 0-208 352 0 0 208z m48-256c0 8.8-7.2 16-16 16l-29.7 0-64-112 45.7 0 0 0c5 0 9.8 2.4 12.8 6.4l48 64c2.1 2.8 3.2 6.1 3.2 9.6l0 16z"/></svg><svg viewBox="0 0 512 512" id="calendar" width="24" height="24" x="33" y="183"><path d="m469.3 48l-69.3 0 0-32c0-8.8-7.2-16-16-16s-16 7.2-16 16l0 32-96 0 0-32c0-8.8-7.2-16-16-16s-16 7.2-16 16l0 32-96 0 0-32c0-8.8-7.2-16-16-16s-16 7.2-16 16l0 32-69.3 0c-23.6 0-42.7 19.1-42.7 42.7l0 378.6c0 23.6 19.1 42.7 42.7 42.7l426.6 0c23.6 0 42.7-19.1 42.7-42.7l0-378.6c0-23.6-19.1-42.7-42.7-42.7z m10.7 421.3c0 5.9-4.8 10.7-10.7 10.7l-426.6 0c-5.9 0-10.7-4.8-10.7-10.7l0-378.6c0-5.9 4.8-10.7 10.7-10.7l69.3 0 0 32c0 8.8 7.2 16 16 16s16-7.2 16-16l0-32 96 0 0 32c0 8.8 7.2 16 16 16s16-7.2 16-16l0-32 96 0 0 32c0 8.8 7.2 16 16 16s16-7.2 16-16l0-32 69.3 0c5.9 0 10.7 4.8 10.7 10.7l0 378.6z m-368-277.3l64 0 0 48-64 0z m0 80l64 0 0 48-64 0z m0 80l64 0 0 48-64 0z m112 0l64 0 0 48-64 0z m0-80l64 0 0 48-64 0z m0-80l64 0 0 48-64 0z m112 160l64 0 0 48-64 0z m0-80l64 0 0 48-64 0z m0-80l64 0 0 48-64 0z"/></svg><svg viewBox="0 0 512 512" id="vallet" width="24" height="24" x="63" y="183"><path d="m256 320a32-32 180 1 0 64 0 32-32 180 1 0-64 0z m208-112c0 0 0 0 0 0l0-96 0-8 0-40c0-26.5-21.5-48-48-48l-64 0-264 0c-48.5 0-88 39.5-88 88l0 320c0 48.5 39.5 88 88 88l288 0c48.5 0 88-39.5 88-88l0-24c0 0 0 0 0 0 64-48 64-144 0-192z m-376-160l264 0 64 0c8.8 0 16 7.2 16 16l0 40 0 8 0 50.9c-5-1.7-10.4-2.9-16-2.9l0 0 0-16 0-32 0-32c0-8.8-7.2-16-16-16l-336 0c-8.8 0-16 7.2-16 16l0 32 0 31.1c-9.9-10.1-16-23.9-16-39.1 0-30.9 25.1-56 56-56z m312 48l-336 0 0-16 336 0 0 16z m0 16l0 16-336 0 0-16 336 0z m0 32l0 16-48 0-264 0c-8.6 0-16.7-2.1-24-5.6l0-10.4 336 0z m32 280c0 30.9-25.1 56-56 56l-288 0c-30.9 0-56-25.1-56-56l0-252.2c15.2 12.6 34.7 20.2 56 20.2l264 0 64 0c8.8 0 16 7.2 16 16l0 32-144 0c-44.2 0-80 35.8-80 80s35.8 80 80 80l144 0 0 24z m20.4-56l-164.4 0c-26.5 0-48-21.5-48-48s21.5-48 48-48l144 0c9.9-0.1 19.7-4.9 25.6-12.9 1.7-2.2 3-4.7 4-7.3 0.2-0.4 0.4-0.7 0.6-1 11.5 15.1 17.8 33.6 17.8 53.2 0 24.6-9.9 47.4-27.6 64z"/></svg><svg viewBox="0 0 512 512" id="vynil" width="24" height="24" x="93" y="183"><path d="m351.2 18.4c-131.2-52.5-280.2 11.2-332.8 142.5-52.6 131.2 11.2 280.3 142.5 332.8 131.2 52.6 280.3-11.2 332.8-142.5 52.6-131.2-11.2-280.2-142.5-332.8z m-178.4 445.6c-114.7-45.9-170.6-176.5-124.7-291.2 45.9-114.7 176.6-170.6 291.2-124.7 114.7 45.9 170.6 176.6 124.7 291.2-45.9 114.7-176.5 170.6-291.2 124.7z m95.2-237.6c-16.4-6.6-35.1 1.4-41.6 17.8s1.4 35 17.8 41.6c16.4 6.5 35-1.4 41.6-17.8 6.5-16.4-1.4-35.1-17.8-41.6z m-17.9 44.5c-8.2-3.3-12.2-12.6-8.9-20.8 3.3-8.2 12.6-12.2 20.8-8.9 8.2 3.3 12.2 12.6 8.9 20.8-3.3 8.2-12.6 12.2-20.8 8.9z m41.6-103.9c-49.2-19.8-105 4.2-124.8 53.4-19.7 49.2 4.3 105.1 53.5 124.8 49.2 19.7 105.1-4.2 124.8-53.4s-4.2-105.1-53.5-124.8z m-59.4 148.5c-32.8-13.1-48.7-50.5-35.6-83.2 13.1-32.8 50.4-48.8 83.1-35.7 32.8 13.2 48.8 50.5 35.7 83.3-13.1 32.7-50.5 48.7-83.2 35.6z m142.6-11.9l0 0c-13.1 32.7-38.1 56.9-68.1 69.9-0.1 0.1-0.2 0.2-0.4 0.2-4 1.8-8.7-0.1-10.4-4.2-1.8-4 0.1-8.7 4.1-10.5 26.4-11.2 48.4-32.6 59.9-61.3l0 0c1.7-4.1 6.4-6.1 10.4-4.4 4.1 1.6 6.1 6.3 4.5 10.3z m54.9 13.4c4.1 1.7 6.1 6.3 4.5 10.4-19.6 49-57.2 85.4-102.2 104.8-0.1 0.1-0.3 0.2-0.5 0.3-4 1.8-8.7-0.1-10.5-4.2-1.7-4 0.2-8.7 4.2-10.5 41.4-17.7 76.1-51.2 94.1-96.3 1.7-4.1 6.3-6.1 10.4-4.5z m-29.7-11.9c4.1 1.7 6.1 6.3 4.5 10.4-16.3 40.8-47.7 71.2-85.1 87.3-0.2 0.1-0.3 0.3-0.5 0.4-4 1.7-8.7-0.2-10.5-4.3-1.7-4 0.2-8.7 4.3-10.5l-0.1 0c33.9-14.5 62.3-41.9 77-78.8 1.7-4.1 6.3-6.1 10.4-4.5z m-183.9-162.5c1.8 4.1-0.1 8.8-4.2 10.5-26.3 11.3-48.4 32.6-59.9 61.3l0 0c-1.6 4.1-6.3 6.1-10.4 4.5-4.1-1.7-6.1-6.3-4.5-10.4l0.1 0c13-32.6 38.1-56.9 68.1-69.9 0.1 0 0.2-0.2 0.3-0.2 4.1-1.7 8.8 0.1 10.5 4.2z m-25.2-58.8c1.8 4-0.1 8.7-4.2 10.5-41.4 17.7-76 51.2-94.1 96.3-1.7 4.1-6.3 6.1-10.4 4.5-4.1-1.7-6.1-6.3-4.5-10.4 19.6-49 57.2-85.4 102.2-104.8 0.2-0.1 0.3-0.3 0.5-0.3 4.1-1.8 8.8 0.1 10.5 4.2z m8.4 39.9l0 0c-33.9 14.5-62.2 41.9-77 78.9-1.6 4.1-6.3 6-10.4 4.4-4.1-1.7-6.1-6.3-4.4-10.4 16.3-40.8 47.6-71.1 85.1-87.3 0.1-0.1 0.2-0.3 0.4-0.3 4.1-1.8 8.8 0.1 10.5 4.2 1.8 4-0.1 8.7-4.2 10.5z"/></svg><svg viewBox="0 0 512 512" id="truck" width="24" height="24" x="123" y="183"><path d="m397.3 183.1c-3-4.4-8-7.1-13.3-7.1l-16 0c-8.8 0-16 7.2-16 16l0 96c0 8.8 7.2 16 16 16l64 0c8.8 0 16-7.2 16-16l0-24c0-3.2-0.9-6.3-2.7-8.9l-48-72z m34.7 104.9l-64 0 0-96 16 0 48 72 0 24z m71.9-42.6l-64-96c-8.9-13.4-23.8-21.4-39.9-21.4l-64 0 0-32c0-26.5-21.5-48-48-48l-240 0c-26.5 0-48 21.5-48 48l0 176c0 26.5 21.5 48 48 48l0 0 0 48c0 26.5 21.5 48 48 48l18.3 0c7.1 27.5 32 48 61.7 48 29.7 0 54.6-20.5 61.7-48l84.5 0c7.2 27.5 32 48 61.8 48 29.7 0 54.5-20.5 61.7-48l18.3 0c26.5 0 48-21.5 48-48l0-96c0-9.5-2.8-18.7-8.1-26.6z m-455.9 42.6c-8.8 0-16-7.2-16-16l0-176c0-8.8 7.2-16 16-16l240 0c8.8 0 16 7.2 16 16l0 32 0 32 0 112c0 8.8-7.2 16-16 16l-240 0z m128 144c-17.7 0-32-14.3-32-32s14.3-32 32-32c17.7 0 32 14.3 32 32s-14.3 32-32 32z m208 0c-17.7 0-32-14.3-32-32s14.3-32 32-32c17.7 0 32 14.3 32 32s-14.3 32-32 32z m96-64c0 8.8-7.2 16-16 16l-18.3 0c-7.1-27.5-32-48-61.7-48-29.7 0-54.6 20.5-61.7 48l-84.6 0c-7.1-27.5-32-48-61.7-48-29.7 0-54.6 20.5-61.7 48l-18.3 0c-8.8 0-16-7.2-16-16l0-48 208 0c26.5 0 48-21.5 48-48l0-112 64 0c5.3 0 10.3 2.7 13.3 7.1l64 96c1.8 2.6 2.7 5.7 2.7 8.9l0 96z"/></svg><svg viewBox="0 0 512 512" id="world" width="24" height="24" x="153" y="183"><path d="m248 0c-137 0-248 111-248 248s111 248 248 248 248-111 248-248-111-248-248-248z m215.6 240l-95.9 0c-0.9-35.4-7.2-69.3-18.4-100.3 21.6-9 41.6-21 59.8-35.1 32.3 36.3 52.6 83.5 54.5 135.4z m-224.4 223.6c-26.6-22.2-48.9-50.9-65.3-84.3 21-6.6 43.2-10.2 66.1-10.9l0 95.2c-0.3 0-0.6 0-0.8 0z m17.6-431.2c30.2 25.2 54.8 58.8 71.5 98.1-22.8 7.8-47.1 12.3-72.3 13.1l0-111.2c0.3 0 0.5 0 0.8 0z m26.7 2.8c44.1 7.3 83.7 27.9 114.6 57.8-16.8 12.8-35.1 23.7-54.9 32-14.5-34.6-34.9-65.1-59.7-89.8z m-43.5-2.8l0 111.2c-25.2-0.8-49.5-5.3-72.3-13.1 16.7-39.3 41.3-72.9 71.5-98.1 0.3 0 0.5 0 0.8 0z m-87.3 92.6c-19.7-8.3-38-19.1-54.8-32 30.8-29.8 70.5-50.5 114.6-57.8-24.8 24.7-45.2 55.2-59.8 89.8z m9 20.2c24.7 8.6 50.9 13.6 78.3 14.4l0 80.4-95.7 0c0.9-33.5 6.8-65.5 17.4-94.8z m78.3 110.8l0 96.4c-25.2 0.8-49.6 4.9-72.6 12.3-13.9-33-22.1-69.7-23.1-108.7l95.7 0z m-27.5 204.8c-39.5-6.5-75.5-23.8-104.7-48.8 15.8-10.9 32.8-20.2 51-27.2 14 28.9 32.2 54.6 53.7 76z m43.5 2.8l0-95.2c22.9 0.8 45.1 4.3 66.1 10.9-16.4 33.4-38.7 62.1-65.3 84.3-0.2 0-0.5 0-0.8 0z m81.2-78.8c18.2 7 35.2 16.3 51 27.2-29.2 25-65.2 42.3-104.7 48.8 21.5-21.4 39.7-47.1 53.7-76z m-8.6-20.1c-23-7.4-47.4-11.5-72.6-12.3l0-96.4 95.7 0c-1 39-9.2 75.7-23.1 108.7z m-72.6-124.7l0-80.4c27.3-0.8 53.6-5.8 78.3-14.4 10.5 29.3 16.5 61.3 17.4 94.8l-95.7 0z m-169.1-135.4c18.3 14.1 38.2 26.1 59.8 35.1-11.2 31-17.5 64.9-18.4 100.3l-95.9 0c1.9-51.9 22.2-99.1 54.5-135.4z m-54.5 151.4l95.9 0c1 40.9 9.6 79.5 24.1 114.2-20.3 7.9-39.2 18.4-56.6 30.9-37.6-37.4-61.3-88.5-63.4-145.1z m367.8 145.1c-17.4-12.5-36.3-23-56.6-30.9 14.5-34.7 23.1-73.3 24.1-114.2l95.9 0c-2.1 56.6-25.8 107.7-63.4 145.1z"/></svg></svg>