<svg xmlns="http://www.w3.org/2000/svg"><defs><symbol id="ak" viewBox="0 0 3284 2075"><path d="M0 1352l41 37-8-21-2-14zm25 71l14 13 8-11-8-2H25zm133 74l4 4v-4l-4-6v6zm55 80l27-8 2-6-29 6v8zm47 29l6 8h6zm23 0h10l-2-9-8 2v7zm8 26l18 43 4 4-4-8zm45-8l10 8 14-2-8-16zm65 90v2l13-2-6-4zm29-39v6l4-2zm37 6l8 33 27-18-15-4zm20 29v4l39 2v-16zm47 27h27v-27l-8-8zm35-17v17h13l-7-17h-6zm19 17h6v-11h-4zm2-11l8 11v-11h-8zm4-16l4 6 6-2-6-12zm14 16h6v-6zm31 0l37 17h35l16-29zm82 17l22 16 35 6-22-6-13-12zm84 10h14v-6zm80 0l10 6v-6l-4-2zm30 0h15v-6zm41-2h7l10-4-10-4zm17-8l14 8v-14zm16-17v11l4-11h-4zm25-766l10 25 18 10zm10 793l20-2 66-35-6-20zm25-430l8 6 12-6v-6zm26 61l2 5h12zm35 336h61l41-41-45-4 15 25-29 16zm37-1013l14 14 19-14h4l22 28-4 8 21 11 8 18 41-18-60-62-28 6-23-30zm41 14l14 18v-4l-4-6zm18 975v6l6-2 4-8zm25-35v14h18l-10-10zm18 0l4 14 11-4-7-10h-8zm17-604l59 61 31-20-19-43zm6 622l14 2 6-2-14-4zm28-32l107-7-2-10-14-6-5-25h-14l-47 11zm45-1123l31 31 47 25-32-5v13l14 24 2 35 127 35 2-25 10 35 74-55 14 29-33 26 31 58-26 30-45-8-76 49 6-20-25-6v16l-34 14 8 41-23-10-31 61h-26l16 70 21-22 26-15-10 10h-6l-2 5h-8l-2 14-9 2 27 14-18 19h10l41 10 14-8-8 14 23 10-52 9 4-13-14-12-8-10-33 33 80 81 49-8-2-28 41-37-31 37 27 86-16 16 8 20h12l-6 29-33 14 27 9 73-43 70 75 23-75 16 14 4 14-8-14-12 6 12 33 74-47-9 37-32 43 22 18-22 2 2 60-47 16-23 53-12-12-88 55v51l-25-14v14l-16-30-39 6-96 69-4 23 16-6-2-17 27 17v-37l14 33h29l20-51 33 10-13 16 82-43 9 27 8-27 51-4 4-20h6v18l19-18-25-11 14-16 103-45v-41l117-70 57-73-51-31 41-62 10 11 29-25-21-37h12l11 6 6-6 86-104 30 6 35-33-35 43 50 19-70-9-43 29-18 100 2 9 18 2 16-11-12 29-24 6 6 25 35-6 14-35 33-10v-17l14 12v-30l8 26 6-45 8 31 39-16v-31l21-16h-35l10-9 15-8-31-20 41-49v43l10-29 17 20 45-24-21 24h31l-21 15 25-8-8 10 35-2-7 14-6 6 29 12 27-47-7 52 39 16 125-16 10-17 7 17-2 10 51 6 37-45 32 20-14 25-14-39-11 49 191 92 22-32-38-35-27 12v-27l51 25-8-33 22 8 7 52 22-11 27 11-49-111 59 92h16l19 12 8-38v45l16-7 17 31v-14l39 24-6 9-29-13-4 4 39 17v6l-6 12-15 2v11l43-5 27 35 67 25v6l-22 6 8 60 43-72 45 72-10 16 16-27-6 58 31-31-31-102-106-19-129-145-129-92-47 22-9 49-6 2-28 35-113-100v-25l-88 19-182-900-78-32-64 26-157-39-56 13-49-8 21-5-9-28-63 8-29-37-31 37-8-10 19-27-25-22-49 51-80 14 31 14-21 31-14-18 10-23-78 35 7-18-70 110-100 6-21 45 78 88 10 54h55v8l-4 16 35 4-6 39 49-4v25l-55-11-23-53 9 70 28-6 6 22-106-6-19-16 25-37v-2h-20l-62 14 8 21-39-7-51 33h-31zm46-10l14-6 2-6zm22-16l19-15h-5zm4 1163l6 14v-10zm15 10v4h8zm14-51l12 4v-10zm14-1143h6l2-4zm15 1129l4 8 12-4-6-4h-10zm0-1133l20-8 4-2zm26 1126l8 7v-7h-8zm35 15l18-4-8-13v-12zm4-844l14 2v-10h-8zm14 827l11 9v-15h-4zm7-331l10-4 10-13zm4 319l14 6v-6l-8-8zm4 55l28-26-6-4-20 4zm32-16l11-10v-8zm11 8h8v-8h-8v8zm8 13l6-5-6-8v13zm6-93l6 7v-7h-6zm23 0h16l-6-10h-10v10zm92-65h20l-6-4h-10zm82 76h16v-11h-6zm59-60l16-12v-8zm0-98l27 53 8-26h18l-18 36 51-63 29 6-17-16 37-6-43-37-14-9 14 19-24 22-23-16 12 49-4-6-8-8v-14h-10l2-5-6-6zm21 86h10l4-8-8 4zm14 0l10 6v-6l-8-4zm29-139l16 10v-8l-12-6zm0-138h8v-10l-8 6v4zm8 222l6 10 22-14-14-7zm0-101l28 8h-8l-6-10h-6zm8-6l27 19 43-35-41-15-9 11 7 4v4zm18-16l2 4h7l-7-4h-2zm2 39h7l2-4h-9v4zm9-60l6 6 4-14v-2zm6 60l10 2v-2l-6-4zm4-95l12-6h-6v-2zm12-147h4l15-12-9-6zm21 217l4-4v-6zm49-117h4l6-6-6-6zm20-12h6v-4h-6v4zm94-135l9 6v-12h-9v6zm9-14l2 6 4-6-4-9zm6 20l4-6-4-6v12zm31-29l8 7v-7h-8zm40 62l19-15v-4l-8 4-11-4v19zm11-19l8-8 20-12v-6zm51 4h10v-12zm479 127l8 29v-20zm6-10l29 27-21-8v20l39 29 11-6-21-29 60 20-15-28-53-15 49 9v-25l-41 16-6-20-16 20-13-16zm47 78l11 31 14-4-8-27h-17zm25-16l18 57 27 4 27 45-17-49-28-51zm0-97l51 82-6 41 33-43-47-61 47 35-41-45zm10 4l21 5-6-9h-7zm60 136l32 75 2-67-16-19zm18-37l23 57 28-6-22-39 26 19-4-31h-51zm4 123l10 2 2-8h-8zm25-6h6l-6-5v5zm6-54l2 17h14l21 26-4 25 20-8-2 37 27-7 55 43-21-57-40-6 4-16 26 6zm2 49l18-16-4-16-14 10v22zm14 41l4-2-4-6v8zm0-36l4 8 13-8h-17zm4 51l13 6 4-21h-11zm0-158l6 31h11l6-15zm6 141h7l4-6h-11v6zm0-34h7v-5zm0-60l17 4v-16l-10 6zm7 82l8 6v-6h-8zm4 25l4 10 10-6-8-8zm14-93l37 9-10-19h-21v-10zm6-34l31 24 4-6-20-10zm4 157l35 17-35-33v16zm15-16h2l10-4-12-10v14zm12 16l14 6-6-14h-8v8zm24-71l17 22h4v-14zm0-6l27 8v-29l23 35v-49l-29-21zm27 14l4 29 12-21-8-6zm16 33h13v-13z"/></symbol><symbol id="al" viewBox="0 0 1212 2075"><path d="M102 1159l9 496 30-2 49 26 37-135 27 47-6 35 6 27h25l18 41-78 16 109-10 28-17h-10v-8l14 4 43-39-10-34 10-39-63-66 10-41 731 4-2-30-26-33 18-119-31-96 31-109 39-35-29-24 2-35-32-66-29-92-109-682-704-10 24 35zm39 541h66l-10-6z"/></symbol><symbol id="ar" viewBox="0 0 1937 2075"><path d="M102 141l768 11h795l31 51v37l-80 75-29 56 234-11 14 45-25-6-14 17 33 20-86 43 14 35-10 23 6 22-33 16-2 27-28 39 14 88-12 12h-21l-18 37-33 21 12 39-63 39-4 38h-29l-16 41v97l-31 18-23-2v41h-24l-12 37-39 18 30 27-4 27-74 24 25 23-16 24 12 27-64 57 27 23-4 20-27 8 39 41v43l-18 21 24 22 7 52-25 14v47H268v-240l-49-18-74 10 2-10h-18l-20-31 36-753z"/></symbol><symbol id="az" viewBox="0 0 1509 2075"><path d="M102 1335l844 332 461 2-14-1272V160L326 145l-13 211-16 43-25 4-26-28-41-10-35 10-8 24 16 39-8 97 18 81-16 21 6 67 39 66 8 47 56 49-62 41-31 41 7 66-13 43-26 28-21 11v20l8 35-2 31 41 18 6 41-18 35h-41z"/></symbol><symbol id="ca" viewBox="0 0 1722 2075"><path d="M102 283l2 34 54 45 24 54-8 57 14 49v31l84 88 39 63-20-18-4 43 10-16 59 45 11-11-11-45 19-2 33 21 20-19 16 19 33-19-10 19 22-17 25 19-31-19-6 19h-67l-11-2-20 2-4 8 12 31 19 14 22 49h-14l-37-26-2-37-19 6v47l31 72 27 30h32l21 23-10 37-17 4 13 57 53 54 35 59 57 43v37l39 10v111l20 12 134 8 49 25 26 30 49 17 46-4 18 49 39-2 96 65 37 50 12 73 19-8 4 12-17-4 17 25 397-70 2-43-31-14-18-62 31-24-4-76 57-70-39-24-51-90-817-684-6-346-2-197H131l-2 37 10 18 15 45-25 123 12-14-24 24zm566 1161l20 4v-4l-12-6zm30 4l15 24 20-12-4-12h-31zm45-10l23 18 39-12-4-6-39 2zm60 141l20 8v-6l-12-2h-8zm149-35l27 25h16l-4-17zm2 70l21 43 16 2-30-45h-7z"/></symbol><symbol id="co" viewBox="0 0 2338 2075"><path d="M102 1647l1094 22 1040-22-53-1133-10-377-1016 17-995-21z"/></symbol><symbol id="ct" viewBox="0 0 2408 2075"><path d="M102 1550l86 144 52-27 20 21 66-35 8 12 20-41 35 2 146-92 67-35 39 12 37-45 14 9 51-35 25 28 33-14 82-63 47-11 110-131 7 45 22 29h88l74-14 57 16 33-20 65-17 72 29 23-8 14 16 61-45 97 14 24-18-20-14 14-33-47-64 55 27v55l66 41 72-43 30 17 11-41 94 22 28-63 54 53 82-39h90l28 14-16 25 35-12 16-103 27-35 10-163-16-762-1084-4-2 32-47 4-6-36-207-13-553-24-80 1151 70 118z"/></symbol><symbol id="dc" viewBox="0 0 1546 2075"><path d="M102 567l252 213 58 76 264 166 45 410v276l723-739L569 92z"/></symbol><symbol id="de" viewBox="0 0 860 2075"><path d="M102 221l64 1444h561l6-8 25 8-13-184-30 53-27-25-76 23 19-23h-19l15-16 63-23 19-14-45-24h26l-14-46h43l12 15 2 55 10-43-10-121-6-18-76-6-127-138-6-69-45-82-22-14-13-109 4-98-24-66-27-37-29-6-81-158 22-63-6-43-37-37 12-47 39-18 51-74 13-45 43-39-58-35-96-2-88 39z"/></symbol><symbol id="fl" viewBox="0 0 1863 2075"><path d="M102 74l48 47-11 41 17 14-39 45 57-14 27-33-8-27 24 29 10-37 13 15-11 12 27 18-66 23 95-12 37 4 20-27 20 2v12l41-12 17 10 8 25-29-14v14l-10-14-14 12-37-8 98 34 74 41-8-26-19-4 19-11 14 13 29-13 6 11-41 18 35 21 16-9 2 33 21-6-15 8-49-35 70 70 8 18-8 33-19-47 13 35 6 12 74-8 32-16-4 12 84-39 29 4 4-4v-8l-25-10 2-9 23 9-12-15 45-16 8 12 35-8 73 45 29 51 33 17-4 32 39 29 39 64h57l14 49 19 22v27l-17-2 17 20-10 68-44 141 27 53v-12l-16-26 33 30 20-41-31-16 13-8h-9v-13l33 15 2 35h17v-27h10l8 27-49 69h4l-16 2 12 10h-21l7 7-17-13 8 13 27 18 2 29 55 114 35 11-27-62 27 27 45-17-29 23 5 92h26l8-26 25-13-47 58 26 6v-15l7 15 14 92v-12l12 30 21 6-21 19 25-8 61 28 39 68 8 45 54 33-21 6h8l-22-14-10-13-17 25 8 18 19 17 47-21 35 8 49-22 2 12 12 6-2-12-10-4 12-2 10 14-6-14 23-31 8-65 29-72v35l24-262-24-82-39-27 26 8v4l-32-80-9-45-75-176-33-104 24 10-2 37h37l-8 96 45 90-35-90v-45l15-16-25-45-63-103-72-186-31-172-24-16v-21l16 25v-45l-121-27-14 12v96l-25 3-18-52-576-51-26-72-563-24zm64 135h10l152-8h8l-37-6zm452 186l17 13 8-13h-25zm25 15l12 8 15-6 63-37-69 35h-21zm94-35l13-2 10-11zm350 170h7l-2-8-5 6v2zm80 432l21 26v-2l-14-24h-7zm0-328h7v-4h-7v4zm0-8h7l-7-6v6zm90 522l7-10-7-12v22zm17 39l10 19 27 6-19-6zm2-37l18 39 6 6-8-43zm82 541h18v-8l-14 6zm18 0l21-8-13-2zm8-336l5 4 8-4h-13zm15 328l28-17-6-10 4 10-14-2zm22-324l4-2v-2l-4-6v10zm6 295v10l9-8-2-2h-7zm0-295l11 8v-10h-4zm11 297v6l6 2v-8h-6zm6-282h18l-10-15-8 6v9zm8 270l10 22 2-2-4-12zm57 8l19 2 8-2v-6zm9-160l8 4 2-4h-10zm8-407l61-62 29 25 10 31-18 73-37-18zm2 420h6l2-9h-8v9zm8 147l25-8 2-14zm39-25l14-2v-8zm27-938l22 74v-49l2-35-2-12zm22 910h2l8-8zm14-8h7l47-56 26-49-26 17v16zm33-736l37 109 25 59-41-131zm51 617l2-4 7-8 2-5zm11-70h4v-10h-2z"/></symbol><symbol id="ga" viewBox="0 0 1546 2075"><path d="M102 125l95 698 22 97 37 77-6 29 26 23-38 36-37 117 28 94-22 121 22 33 4 39 37 88 766 59 21 66 37-2 12-70-8-51 18-29 137 37-8-47 12 2-4-22 15-17-17-10 17-10-17-23 25 23 4-37-10 18-13-18 11 4v-31l8-2 14 25 29-37-16-23-46-16 62 10-16-30 16 12 31-53-37 18 6-14-16-6 36-17-12-14 23 24 6-37v-10l-2 10-27 7 12-17-22-18 51 8 21-31-33-6 14-10-8-8 41 10 12-10-10-13 10-12 10 6 19-16-88-43v-64l-17-53-59-45v-43l-35-100-67-37-7-27-22-10 4-18-25-17v-37l-71-45-25-57-84-66-43-69-43-96-47-15-37-37-47-37 8-36 58-60zm1155 1405l11 49v-23l12-53z"/></symbol><symbol id="hi" viewBox="0 0 2799 2075"><path d="M102 229l9 43 61-59 6-45zm201-69l164 82 45-181-109-2zm725 233l80 135 53-41 139 60-12-88-82-78-28-59zm473 240l275-33h-84l-164-31zm107 96l39 78h45l14-66zm168-4l139 166 199-70-115-106-117 20-47-67zm10 188l20 13 47-4-12-43zm309 387l74 355 112 73 416-313-196-229-185-80-135-59 23 135z"/></symbol><symbol id="ia" viewBox="0 0 2093 2075"><path d="M102 602l25 35 12 57 23 10 14 119 53 78v35l21 35-10 106 30 6v23l25 8-19 51 31 8-18 41 20 15-10 43 16 67-12 64 25 29v24l526 16 684-20 74 82 35 2-11-70 74-43 21-69 43-54-11-55-43-39 21-78 92-14 80-37 24-26 9-60 34-31 11-81-6-27-72-53-12-47-58-37v-19l-20-59-92-21-21-24-33-148 27-61-33-16-20-58-742 8-786-10 14 49-14 54 24 10 11 35z"/></symbol><symbol id="id" viewBox="0 0 1230 2075"><path d="M102 1645l512 20 514 2-10-577-53-60-21 27 9 22-131-4-23 25-57-8-19 28-22-22-25-74-31-2-18-19v-34l-43-68-14-67-25-23-53 49-41-22 10-31-10-16 27-23-17-66 10-6 23-112-41 4-14-23-19 8-80-131-61-43 10-10-10-16 4-35-51-74 12-225-151-10-37 602 30 110 39 39 19 37-74 131-4 33-64 88v43l35 10 17 21-31 78z"/></symbol><symbol id="il" viewBox="0 0 1126 2075"><path d="M102 700l4 76 25 86 133 135 25 111 16 10 37-22 66 32-11 66-45 90 2 35 56 61 45 19 96 86v43l12 41-12 37 24 63 29 16-8-18 10-4 25 31h10l-12-27 43-47 112 47 19-6-8-90 92-31-17-43 27-39-12-18h12l-12-21h12v-47l23-8-17-4 23-23-19-18 15-23 18 9 25-54 26-12-4-18 37-62-6-55-35-49 21-27-9-35 23-8-2-711-68-151V45L324 35l43 45 4 35 53 43-8 80-60 88-57 28-76 4-16 54 26 34 7 43-52 89-55 28 2 55-24 11z"/></symbol><symbol id="in" viewBox="0 0 1300 2075"><path d="M102 1669l27 27-23 8 48 12 14-18-6-29 6-10 37 14 41-4v29h16l12-25-2-33 13 23 49-10 86 45 12 20 35-55 65-31 13 31 41 10-2 12 10 11 12-27 23-8 2-47 20-10-2-33 13 18 32-20-22-17 35 15 8 39 69 45 39-29 8-63 27-46 21 9 36-19 21-61 25-4 32-39-12-68 63-6 27 16 78-43h45l4-39-29-8 19-28-19-35 19-15-4-1091V61l-641-2-62 33-75 21-41-9-3-22-10 10-22-22-23 989-28 14 4 49-21 37 41 68-6 35 12 51-53 76 2 32-39 13 2 14-28 53-7-8-12 16-12-8-19 29 19 26-31 27 21 8-23 11v61z"/></symbol><symbol id="ks" viewBox="0 0 2502 2075"><path d="M102 1475l1153 24 1145-18-26-828-70-28-25-64-59-57 37-76 29-2-29-64-37 17-66-53-997 12-1003-27z"/></symbol><symbol id="ky" viewBox="0 0 2379 2075"><path d="M102 1315h25v-25h-25v25zm41 0l400 20-8-69 67 22 1176 39 174-61 18-37 53-21 54-82 90-53 110-92-49-12-78-86-71-121 18-31-4-63-63-54-19-59-41 10-33 35-45 6-61-37-53 25-41-41-101-23-24-71-35-27-57 8-25-26-39 32 14 29-14 21 27 8-13 41-32-6-70 34-18-18-54 8 9 60-48 32-22 54-51 12-29 88-35 18-55-32-8-33-27-15 10 19h-30l2 25-23 10v33l-28 32-52-51-59 25-29 43-78-56-45 13-14-25v41l-14 10-8-26-33 10-35-23 4 33-12 19-25-9-37 50 19 61-119 31-4 30 16 62-16 22-111-59-53 12-33 37 13 41-7 78-24 55-43-22z"/></symbol><symbol id="la" viewBox="0 0 2035 2075"><path d="M102 514l72 86 2 82 33 29-8 16 35 41-9 23 25 49 18 6-4 35 19 22-25 12 14 25-14 55-59 99 12 39-16 40 12 41-4 78-29 35 12 37-14 25-31 6-4 12 17 33 45-21 49-4 133-2 176 72 139 26 90-20 13-16-27 6-12-29 14-12-26 10-11-27 23-4v15l55-39h45l-2 43 78-13v41h29v45l49-10v17l47 16 10-53h8l-8 57 51 51v29l-10 6-6-35-18-2-3-14-24 24-16-8 6 21 12 14 74 25 22-15 4 21 45 18 15-24 20 8-10 18 16 6 37-24 2 12 8-43 15 6-6-35 41 9 12-29 22 47 17-27 18 29 13-12 6 71 45-26 22-33h-12l-4-20 29-9-13-20 4 8v-39l-63-35 10-26 16 22 11-6 61 33 25 4 2-12h16l-8 16 25 4 6 25-27 18h49l23-10 8 35h53l-12 4 39 63 20-16v-27l8 21 9-10-45 96 36-51 17-9v-16l45 41-4-16 10-21 8 8-2-22 8 16 19-26-27-2 29-9-10-14-39-6 12-16-31-31-18 14-10-14-37-6 12-13h-65l2-26-58-23-26-43 49 4-31-35 76 31-12-22h-23l-2-19 18-12 17-29 26 27 25-10-12-19 14-20h-23l9-13-13 9-8-13 21-8-29-12 29-29-19 4-20-12-31 27-10 47-25 8-18-21 6-12-41 2-8-24 16-17 27 6 24-43-8-8h-14l12 8-22 17v-27l-19 27-33-17-36 39-56 13-84-23-18-27 10-26 76-72 47 10 27 37 84 13 12 26 41-8v10l22-14-16-10-39-90-45-50-18-45 36-127-667 9 28-27-26-82 41-8 10-49-10-37 33-29 24-104 88-76v-53l23-2 39-62-64-65v-43l-24-35 34-23-34-20 30-62-30-20-3-17H111zm697 975l69 45h15l28-43-73-25zm387 211l12 4h12l-10-4h-14zm61 8h6l29-8 8-6zm92-16l19 8h18l-16-6zm19-60l2-6 6-8h-6zm41 68l20-8-10-7zm82-174l37 12-5-12-32-11v11zm32 106l27-14-8-8-19 14v8zm29-26l2 4 8-8h-2zm154-191l10-12 10 12v-12l-14-14zm14-160l4 2v-6zm31 29l35-2 10 12 14-10-14-12-10-6 24-25zm6 105l22 14v-23l-20 6zm2-46h2l10-12 8-14zm20-4h15v-8l-15 2v6zm25 183l10-4h8v-11zm43-21l6-4 8-16zm51-63l8-4 11-19 2-8zm21-156l22 49-14 68 14-19 2-41-2-30z"/></symbol><symbol id="ma" viewBox="0 0 2867 2075"><path d="M102 938l23 25 502 30v25l30-4 7-21 1009 21 13 116 22 11 12 110 68 72 12-23h35l45-69-57 123 43 14 8 150 16-15-10-18 29 10 12-29 14 29-26 20 26 3 68-23 35-100 45 39-4-37 32-29 27 12 21-43h18v-57l45 31 6-25 17 14-23 48 4 100-28 49 135-31 63-80 21 23 96-33-4 39 67-51 177-16 6-121h-39l10-62 35 17-49-138-58-69-75-47h-50l-18 28 53 43 12-36 50 14 28 153 21-47 37 25-25 6 23 92-23 25-164 69-65 11 39-17-95-14-73-47-21-21-12-120-55-19-60-55h25l12-53 25 49-19 4 37-4-113-217-114-82 24 57-71 19-2-35-29-9 10-26-35 6-6-25 23-8-29-18 12-12 37 12-12-23 31 23-2-78 53 6-21-37 58-28-11-27-26 14 12-26 131-49 80-54-20-57-41 27v36l-15-20-43-6-8-19 21-4-64-37v-32l43 32-27-63-55-45h39l-2-55-39 10-45-12-106 65-50 4-45 64-75 51-1428-64zm1987 733l49 41 76-41 119-6-6-53-46-15 27-16-12-27-31 25 6-29-49 19-70 84zm250-37l35 31 6-6-6-66zm201 105l129 30 73-18-41-115-22-14 12 27-33 63 45-39-18 39zm157-269l17-4 28-80-12-22z"/></symbol><symbol id="md" viewBox="0 0 2572 2075"><path d="M102 655l107-65 104-109 29-10 43 18 84-75 20-49 17 20-8 25 90 32h57l21-20-13-12 27-11-14-14 84-10 49-45 22 2 90 67 62-2 8 17-23 12 13 31 10-15 8 29h27l-19 35 31 18-4 43 98 41 49 37 7 23-29 36 33 50 94 24 20 43 70 33 35-41 72 76-62 57 4 57-47 27-14 39-29 12 6 19-33 12-16 61 16 58 45-4 23-54 14 35 23-45 78 129 24 8 2-16-20-63 29 24 28 82h80l57 76 5-23 22 17 2-49 25 69 55 37-8-72-35-55 4-43h-41l-27-41-57-37-33-82-4-94 25 127 102 100 37-8-6-41-64-86v-119l-22-28 37-58h-29l-6-28 35-10-35-43 53 20-67-86 14-12 45 55 31-16-58-45 52 14-23-74-14 10-72-69 23-12 79 47 21-21-31-14-20-37 39 37-15-39 33 2 21-29-39-26 47-2 20 57 19-21-13-24 15-68 14 78 78-65-29-25 21-45 47-4 26-25-36 92 92-79-29 49 27 35-49-11-43 56 92 16-148 6-28 33-50 110 29 82 21-59 57-12-55 57v37l-37 4-41-20-17 98 17 10-4-35 45-39 35 21v29l14-13v15l22 12-36 43 16 16 20-16-2 26-34 3-54-46-37 107 23-8 14-66v47l31-34 10 55 15-21 10 33 24-6-22 23 35-5 8 25 29 14 34-39-6 31-41 27-61-19v-22l-66 8 17 18-19 25 45-16 13 8-37 35-6 36-15-22-20 20 55 105 8-55 97 110v-53l20-33 16-8 2 12-24 29 22 41 58-111-25 99 43 24-57 27-4 39 75-15 13 2-45 41 57-16-74 86 23-4-6 43 43-27 73 2 13-20 129-23 14-41 41-22 16-84 29-12-8 20 20-8 29-55 10-19-24-8 2-29-25-12h37l-2-16 14-7-331 7-54-863-1820-12H117zm1813 703l12 12h27l-12-22zm16 145l23 12 8-26-20-35 14 35zm432-49l31-25 51-153-47 92zm84-205l11-6 12-70h-6z"/></symbol><symbol id="me" viewBox="0 0 1335 2075"><path d="M102 874l13 742 39 59-4 31 18 35 10-10 17 8 41-99 59-45-12-6 10-26 37-13v-20l-23-12 15-5 16-38 57-35-8 10 16-8-22 39 27-31-15 39 33-27v-22l14 65 13-16-13-96-12 10-2-8 29-31 2 115 16-35-10 8-6-23 37-53-7 27 7 12-7 25 17 4v14l2-51 18-29-4 72v-25l10 25 37-86v31h23l-8 12 26-25-10 31 20-6v-21l39-22-2-31 35-71-14-37 51-23v-35l14 13-18 51 22-15 13 13-31 16-4 21 22-4 58 32-10-65 22-4 6 8-6-37h14l5 35 14-27 24 8-4-30 23 22 4-22 6 26 6-14 13 8 16 60 22-31-16-27 16-10 11 35 8-33 2 35 18-70 11-6v27l18-27 2 39 14-27 21 15 8-45 33 14 2-21 10 25 14-14-14-29 23-6 10 35 4-11 25 3 55-68-25-27 6 25-8-23-24 29-13-39 23 8v-22l16 4 6-12-34-76-31-8-16 16-37-39 8-45-21-43 21-18v-21l-47-10-60-37 11-76-13-456-53-54-80-53-33 29-24-11-100 52-17-17-22-18-7-62-47-10-209 289-14 108-31 27-28 53 8 29-16 25-3 36 13 21-41 49v31l-51 22-37 58 22 39-20 6-27-15-24 74-25-45zm600 472l5 22 20 8 6-18zm54-19h22l-10-20 10-9-12-16zm73-59l29 30 12-8-8-22h33l6-17-29-35-24 9z"/></symbol><symbol id="mi" viewBox="0 0 1835 2075"><path d="M102 266l37 15 21 49 198 67 50 29 65 6 80 29v37l59 39-14 86h43l-16 49 22 30v-22l109-143 22-68v68l23-17 22-37h43v31l-14-8-21 37 21 12 20-41 31-16 23-37 63 8 8-14 52-9 22-26 103 18 55 45 16-51 23 14 14-8 117 8v-8l-37-26 6-15-41-14 12-8-34-72-45 21-15-21-35 12-45-12 15-82-109 29H946l-100 74-23-21-22 12-23-26-41 14-30-8-52-88-30-21-64-8-37 21 29-35-49 31-15 26 7-65-15-15 8-22-22-6h-8V82l-66 59-28 8-60 37-72 9zm365-162l37 15-15 16 15 21 43-66 51-35-14-14 57-8-20-15-91 15-63 49v22zm328 1559h442v14l285-14 57-86-8-23 16-53 51-35v-43l23-16-8-14 35-7v37l22-22 23-117-58-225-22-43-43-29-66 29-28 20h14l-31 60-14-9-29 37-51-28 16-80 49-23 15-59 37-21 8-131-37-57 6-23 31 15-23-72-116-59h-37l-21-35-59-14-37-31-57 8 8 6-31 31v35l17 22 20 6-88 37-8 80-27 72 8-72-22 66-8-21 14-104-51 73-23-6-26 23-9 41-36 22 8 88-60 80 23 80-23 51 37 111 23-8-17 14 17 66 6 86-37 125-57 108zm43-1374l8 20h12zm108 436l8 6 9-6-9-8zm23-16h14v-15l-14-8v23zm28-109l15 23v-9l-8-6zm52-45l22 8 8-49h-16zm22-64l8 15 6-8-6-7h-8zm189 7l28 22h17l-9-22h-36zm28-43h23l-15-9h9zm31-146l20 35h7l-7-29 7-20-13-6zm14 51l21 15-8-15-7-16zm66 86l63 15 15-23-41-26 6 14zm180 1108h8v-30z"/></symbol><symbol id="mn" viewBox="0 0 1644 2075"><path d="M102 92l21 103-10 32v111l45 151-4 172 10 21-6 80 37 139-9 88-57 68 29 45 28 14 17 25-21 512 533 12 538-2-12-113-20-32-56-17-90-100-41-10-18-29-39-10-47-45 12-45-10-39 10-19v-39l16-43-16-39-27-2-6-34 43-60 80-53V770h12l25-41 113-90 127-143 233-115-43-6-24 8-41-33-115 17-27-43-71 51h-62l-20-10-9-25-47-14-16-31-39 6-4 23-12 6-25-60-39-4 10-22-57-21-55-6-37 10-10 17-49 2-23-31-137-29-19-16v-25h-24l-27-30-53 26-6-37zm400-29l24-12 9-26-5-17-28-2v57z"/></symbol><symbol id="mo" viewBox="0 0 2064 2075"><path d="M102 141l17 17 8 73 49 31 14 78 86 63 41-10 21 27v33h-31l-41 65 58 60 14 63 63 25-49 966 1309 27 29 45-2 31-70 61-19 47 191-2 33-53-25-43 41-4-22-25 30-20-12-62h18l9 37 28-63 47 18 23-65 2-80h-16l-23-39-16 6 8 27-27-17-47-78 31-49-31-55v-45l-115-103-55-22-67-72-5-45 68-176-86-51-31 26-22 3-25-41-22-101-160-162-25-55-18-113 25-73-82-88H588l-484-35z"/></symbol><symbol id="ms" viewBox="0 0 1249 2075"><path d="M102 1405l564 14-31 105 14 41 39 39 31 90h35l6-19 33-20-13-13 11-12 26 23 111-33-33-4 16-10 52 32 45-14 36 29 21-17-25-526L1147 70l-25-29h-47l-555-6 10 31-51 32-10 33-23 2-8 102-26 17h-25l-4 29h-10l-19 26-20 19 18 32-63 23 14 22-6 17 4 24-53 45 22 13-6 20-16 4 31 35-21 51 21 15 8 39-25 18v43l27 18-27 54 25 24-29 21 21 26-7 35 62 51-39 60-23 4 7 41-80 61-29 88-29 25 13 29-13 43-37 10 23 74zm742 278l18 11 8-15v-4zm53 9h2l12-7zm64-17v4l63 6-45-10h-18zm79 8l4 9 13-7z"/></symbol><symbol id="mt" viewBox="0 0 2338 2075"><path d="M102 553l52 82-2 37 10 20-19 8 68 54 92 151 16-12 17 24h45l-45 132 16 65-28 33-5 49 41 27 62-52 35 25 8 76 47 80v41l49 28 29 80 28 25 13-33 69 10 33-24 141 8-8-25 25-28 57 69 2-131h652l634-29-16-245-59-785-1014 31-1024-47z"/></symbol><symbol id="nc" viewBox="0 0 2662 2075"><path d="M102 1055l340 10 203-64 365 31v27l34-17 39 58 2 41 314 14 305 317 53-30 94 20 27-39-8-63 16 31-4 55 53-131 52-49 45-19-19-31 19-12-15-37 31 35-18 19 20 10 49-41v-27l12 27 54-19h55l-22-8 26-14 14 31 5-39 30 26 64-77-25-21 10 16-36 15 2-45-11 35-22-5 8 19-25-19-32 29-58-24-37-58 87 53 61-45-4-20-31 4 53-37-135-49-26-35 127 43-15-43 49-6-30 14 26 35 19-24 16 38 4-18 55 18 35-22 37-80 12 23 29-23v-63l-33-50 4 15h-20l8 18-18-14-15 12-8 82-31-14 31-4-26-31h18v-64l-63 5 6 14-45-19-82 15 8-19-21-41 5-65 16 12-8 35 8 45 29 14 75-30-45-41 68 39-19-43 35 30 29-12-37-51 76 49-17-47 50 76-37-117v20l-15-12v-8l-16-14v-27l-1126 16-408-34-14 86-49 12-50 67-41-18-98 63-20-34-47 47-23-13-31 54-49 10-94 61-109 11-34 30-19 49-61 11zm1753 417l15 5 12-27-20 12zm41-79l5-2 10-27-6 4zm68-95l31-28 49-23-31 6-33 27zm147-96l76-18h37l-14-4-45 4zm125-18l27 18h6l-10-12zm37 28l35-59 49-61-53 57zm103-131v-8l26-18h-12zm22-528l8 16h19l-4-16h-23zm8 498l29-19 39-26-57 30zm25-498l20 82 37 92-8 2 57 78-57-115-24-63zm49 205l21 33 10 4-10-35zm4 252l53-15 13-39 10-84-23-63 15 72-6 90z"/></symbol><symbol id="nd" viewBox="0 0 2265 2075"><path d="M102 1472l1035 25 1026-29-19-147-59-125 4-113-21-26-20-240-78-207-16-157 10-43-35-138-895 21-878-25z"/></symbol><symbol id="ne" viewBox="0 0 2297 2075"><path d="M102 1040l478 21-9 311 820 6 804-28-26-15-15-63-43-17-16-63-41-64-6-145-16-12 12-27-23-6 7-35-21-12 2-17-20-4v-75l-70-117-16-98-23-5-31-10-16-41-100-28-39-33-131 10-37 27-115-62H764l-633-22z"/></symbol><symbol id="nh" viewBox="0 0 1058 2075"><path d="M102 1554l2 29 41 66 539 18 47-33 27-39h33l67-45 53 4 45-106v-10l-22 4 6-15-39-49v-53l-72-94 13-107L776 61l-6-32-33 37-67-31-58 41 17 14-56 131 11 66-56 98 39 96-20 10-6 35-33 41-78 66-59 4-27 37-6 112-29 62 8 18-38 58-13 61-43 41-12 70-31 32-6 164-16 25-17 158-20 22z"/></symbol><symbol id="nj" viewBox="0 0 1083 2075"><path d="M90 1348l90 110 17-18 16 35h37l39 55 20 39 49-19 23 19h51l19 55-37 53v72l37-14 57-41v-17l51-53-33-18h33l19-56 53-55h-53l20-20h33l37-52v17l-17 35 76-35-20-35h-23v-39h43v-70h16l33 35-16-35 90-108v-58l37-90-19-18 19-16-19-19 33-16v-41l25 41-39 159h14l25-178v-39l32-143v-92l-14 16-76-35h-37l-34-16v-55l34-70 37-57v35l58-35 18-53 33-91 18-57L559 8l-51 17-39 34-37 111-51 55-55 51 32 76-16 56h-33l-20 34v127l53 19 39 90h18l15 35 127 147-15 19-94 51-90 76h-16l16 34-33 37-96 19-51 16-72 145 14 39v35H90v17zm594 41l23 16h36l33-39h-33l-16 39zm113-76l20-17 51-73 19-76z"/></symbol><symbol id="nm" viewBox="0 0 1581 2075"><path d="M102 1667l189 8 8-123 395 15-16-15-21-47h822l-4-1341H825l-653-25z"/></symbol><symbol id="nv" viewBox="0 0 1275 2075"><path d="M102 799l971 929 8-47-14-71-18-131 32-13h37l33 27 12-4 11-33-21-1327-510 4-506-22z"/></symbol><symbol id="ny" viewBox="0 0 2359 2075"><path d="M102 1128l1201 48 22 45 49 20 2 78 19 39 67 26 13 25 217 131-21-98 15-19 16 107-35 112 23-36 32-4-4-17 47-45-22-37 67-43-20-24 12-293 64-240-6-291-11-26-28 18-4-14 14-64-21-100 29-66 10-75-20-62 2-123V80h-389l-105 51-116 98-41 76-133 88 14 35 24-16 23 10-23 26 39-8-43 56-4-19-16 19 20 75 6-6-2 27-22 24-41-4-78 68-59 10-8 21-105-23-59 14-43-36-166-25-189 33-2 65 47 21-14 26 10 72-43 23-32 49-172 102zm226-352l12 10 16-20-26-12zm735-323l14-13 4-2v-12zm37-111l24-6-6-4-14 4zm28-23l5 17 16-17 12-10zm474 1399l49-30v-21l-31 4zm55-51l10 27 35-9-6-14 20-8 21 14-47 21 94-13-37-8 297-75-25 14 238-113-70 27-18-21-2 15-37-2-37 47h-47l102-86-26-4-76 61-135 8-29 21-51-15 10 19-20-19-11 21-36-2-9 29-18-23-4 27-6-7v17l-47 4zm133 10l45-4 45-16-27 6zm76-10v4l39-8 100-47zm342-235l6 4h4l14-15z"/></symbol><symbol id="oh" viewBox="0 0 1628 2075"><path d="M102 1366l35-20 31 30 57-10 49 39 31 84 43 22 37-4 35 8 51 58h23l8-19 35-12 53 23 18 24 51-4 41-43 43-14 27 67 43 25 33 49 90-12 14-62 39-10-12-74 51-92 19-8 18 12 16 49 23-34 22 4-6-41-16-21 22-6v-31l25-43h33l8-30 31-27h16l18 27 48-23 114-100 11-43-11-23 23-43-4-22h16l4-66 41-102-8-27 8-47-22-43 49-27-15-571-266 115-123 100-94-4-135 49-31-6-43-35 25 27-60-19-41 19-43-17 115-18-49-35-12 23-33-2-31-35-121-47-430 4z"/></symbol><symbol id="ok" viewBox="0 0 2301 2075"><path d="M102 547l725 26-8 578h25l55 61 64 4 12-28 43 45 2 26 115 31 32-8 25 27 37-21h61l4 37 33 6 8 39h21l51-39 51 53 55-24 19 55 16-45 37-27 43 31 39-14 2 14 66 43 14-16 82-41 41 6 43-31 27 27h34l35-31 62 31 28 29 99 30-9-518-53-338-4-151-1008 14-1015-31z"/></symbol><symbol id="or" viewBox="0 0 1605 2075"><path d="M102 1176l27 47-8 71 10 56 25 28 661 15 629-11-23-440 15-47-6-21 14-16-16-22-37-2-4-27 26-84 31-41v-27l57-137-18-43-35-16-23-39-356 10-14 14-82 7-109 47h-65l-45 22-43 2-23-18-86-6-78 37-77-25-23-98-37-29h-14l-21 8-16-2-16-20-33 10-13-4-14 2 12 12-4 8-2-14-28-14 8 45-10 20-2 43 8 23 10-4-14 26 14 19-10 4-4-17-4 25 8 8-15 19 2 43-18 77v45l8 7h-8l-8 39 10 12-8-4-8 28-21 144 12-8 11 8-15-6-10 20-22 62 24-25 6 27-12-11-16 31-2-18-9 6-16 69z"/></symbol><symbol id="pa" viewBox="0 0 1990 2075"><path d="M102 1384l1358 7h113l20-35 33-17 51 11 90-37 7-29 114-86-78-94h-16l-16-57-35-5-2-49v-24l26-17 13-30-25-50 55-55 48-82 24-10-12-35-76-22-22-37-13-94-47-21-6-22-25-21H356V367l-108 55 14-21-43 33-90 39z"/></symbol><symbol id="ri" viewBox="0 0 1216 2075"><path d="M102 1434l121-23 238-84 63-4 66 23 14-7 88-186 2-35-2-94-30-68 47-69 8-35-23-72-35-18 35-33 31 10 25 25 32-66-12-22-31-35V500l27 49 22 86 29 24 37 21 12-62 21 11-33 121 12 47 45-11 35-28 6-58-41-71-75-60-29-30 8-172-55-11-17-227-575 10 2 924-16 186-17 8-18 41zm318 276l6 23 16 14 41-4 33-23-24-49v-59l-25-8v47l-35 18zm303-557l10 12 33-35 18-106v-55l-28-17-23 95 17 16-25 24zm65 23l13 8 35-31 26 8 51-61 45 14-6-18 6-203 21-98-68 57-16 68-41 49v39l-23 47 23 49-57 33zm205-275l23 154-8 32 20 64 86-82-8-149-16-27 16-98-90-33-19 59z"/></symbol><symbol id="sc" viewBox="0 0 2166 2075"><path d="M102 360l76 52 49 57 76 20 51 142 47 59 15 43 123 94 39 82 47 19 51 51 4 55 35 29-4 22 30 25 4 27 103 59 8 55 39 90v58l86 71 29 82-13 64 35 51h31l47 27 43-107 4 21-18 47 59-51-47-52-29-110 31 24 12 66 33 29v-78h10l9 96 71-31 15-43-48 31 37-35-55-16 47-10-86-9 2-12h60l-5-22 64 43 12-29 15 24 51-38-23-33 35 28 70-20-6-18 30-5 31-24 4-19-43-20h16l-8-35h23l-6 27 34 20 99-80 8-10-16 10-9-10 17-39 26-12 13 22 43-10 8-24 31-23-19-24 27 16v-21l20 13 15-21-48-57 29-55 14-17-30 64 22 8 13 39 20-99 78-114 72-66 77-35-12-16 12-4-450-442-461-13-2-67-59-74-48 23-4-43-534-27-6-8-17 20-102 23-27 26-149 33-82 86zm1645 846l8-18v-8l-8 8v18z"/></symbol><symbol id="sd" viewBox="0 0 1871 2075"><path d="M102 1284l605 19h616l104 63 35-31 127-4 35 27 92 33 21 34 32 7-16-41-22-25 30-113-4-26-20-2 10-47-16-33 30-2-24-537-25-28-33-7-30-55 43-49 16-51-774 14-782-22z"/></symbol><symbol id="tn" viewBox="0 0 2662 2075"><path d="M102 1057l1028 33 687-7 10-84 59-10 19-57 34-29 115-24 88-70 53-10 19-60 33 8 49-47 16 35 101-71 38 12 48-72 49-10 12-94-563 20-1172-12-63-19 2 68-391-12-17 20-18-20 4 39-27 14 19 29-39 2 22 37-28 38 10 54-25-11 9 29-66 33 8 65-61 58 12 80z"/></symbol><symbol id="tx" viewBox="0 0 2097 2075"><path d="M102 747l9 29 165 178 62 39 68 170 157 107 35 8 43-47 25-86 41-4 12-17 24 11 107 6 14 35 17-5 82 78 59 142 31 30 37 62 49 24 10 92 37 43 20 68 41 4 101 45 79 4 48 37 4-18 28-15-8-10-6 6 4-14-18-2-43-119 12-12-12-17 16-45h-49l18-4-18-28 22 28 19-20-8 24 16-6 27-65-43-33 51 6 24-47-18 18-6-24 24-14 9 18 6-29-6 29 8-4 18-19-2-34 21 20 32-18-20-2 10-13-22-32 26 8-4 18 10-10 2-8-8-17 6 2 7 15 26-8 8 8-12 8 33-14-33 34 72-45-31 11v-2l76-37 37-37v-21l41-26-15-13-20-51 24 6 19-14-8 39 53-10v4l-37 14-6 25 98-64 29-8-12-22 30-41-12-84 31-80-58-88v-35l-34-31-17-264-49 6-123-63-16 18-31-6-29 12-18-6-55 33-45-27-21 8-20-14-31 39-8-33-33 21-33-29-35 16-26-41-56 19-12-19-78-12-32-35-7 8h-30l-54-30-2-324H635l-23 760zm1350 828l4 53 43 121-37-180-6 2zm4-10l23-52 8-20 20-43-28 43zm55-115l21-29v-14l-6 2zm21-37l20-22 45-23-51 23zm72-61l22-11-12 9zm182-125l45-43h-10v6z"/></symbol><symbol id="us" viewBox="0 0 2523 2075"><path d="M102 629l15 16 2 21-2 14v14l-2 10 20 31 8 19-4-7-6 13 6-6 15 20 2-2v-14h6l8 8 8-6 2 6 13-4-7 6 9-2-7 6-18-6-2-4-6 4-2 2 2 4v4l4 2 4 21h-2l-12-13v-10h-4l-5 12 7 25 8 8 8 4 2 6-2 11-8 4 4 14 12 21 4 18 17 14-2 13 8 6-6 31 8 8 39 8 12 10 4 10 14 9h13l4 16 10 2 25 27 6 16v18l6 5v2l-6-2 4 6 111 6-9 10 168 86 131 10 4-24 82 6 9 14 10 8 26 31 19 12 14 25-4 12 8 17 23 20 12 2 19 13 10 2 8-9 6-2v-6l8-22h17l2-9 10 7 31 2 6 10 4-2 2 4 8 4 17 21 2 8 12 24 2 13 12 6 10 20 17 10 2 27 10 14 8 23 15 2 6 6h12l10 8 27 4 16 11v-4l11-5v-6l-5 4 3-4-7-2-2-12-6-8h4l-6-17-4-2v-2l4 2-4-8h4l2-14h-14l4-2 8-4v2l-4 2 6-2 8-21-8-4v-2l-6-2 18 2 7-14-4 6-7-6 4-6 7-2 2 6 4-4 6-2-4-11h4v-2l4 8 12-8h-6l2-4-4-2-4-8 10 2-2 6 2-2 2-4-2-4h2l4 4 9-2-2 2h4l-4 4 10-4-10 8 22-12-10 4v-2l16-4 21-17-2-8h2l14-10-6-4 4-2-6-2v-6l-2-4 8 2 4-4 2 2-2 10 14-4v4l-12 2-2 6 31-18h12l-6-9 6-8h6l-4 8h-4l2 7 29-7 26 9 19 2 14-4h-6v-7l-2 2-2-6 16-2v6l11-4 4 13 6-2 6 4 4-9v9l8 10-2 2-6-8-4 6 22 6v-4l5 6 6-2 4-8h4v-6l4 8 2-6 4 4 2 8 10-12v-6l-12-2 2-7 12 7h7l2 4-2 2 8-2v4h10l4 8 4-4-6 14 8-12 4 6 6-8-6-4-4-6v2l-8-2h-8v-2l-10-11 4-2-2-2 10 2-8-6 6-4 6 2h2v-4l-6-2 4-4h-4l4-6h-6l-8 14-9-8 7-2 2-6-4 2-7-2-6 6-8 2-10-2-2-6 10-11 29 11 6-2 6-11 4 2 16-8h-4l11 4 8-4 4 4 4-6 12 6 2-24 7 6 2 8h2l6 10-13 4 19-4h2l-2-6h8v-8l4 2-8 8 8-2 8-8-4-6 6 6 5-8 2 2-2 2 8 4-15 4 19-4h8l2-8 6 2 8-2 4 4h-4l-14 4 21 2 20 8-8-8 6-2 2 2 4-6v4l-4 4 6 6 4-2 2 6-10-6 16 12 2 11-4-9 2 7 2 2 17-4 6-7v7l14-13h9v-4l-9-2 6 2-4-2 11-8h10l16 8 8 8 7 2v9l22 16h10l11 12 4 25-4 35 6 8v-6l-6-2 8 6 2-12-6-3 4-4 4 4v5l6-5 4 5-10 16h-2v6l-2-4v4l8 2 16 27h7l-7-8 7 2 10-4-6 4 6 22 10-14-8 14 8 2 4 21 8 2-2 4 6-2 13 4 14 22 12 4-4 5 2-5h-6l-2-2-2 2v5l4 4 10-4h9l6-7h10v-24l4-14v8l-4-56-8-20-8-2h6v2l-13-16-2-9-24-32-6-23h4v8h8l4 21 10 18-10-20 2-13-8-8-19-22-24-39-10-29-7-6v-2l3 2v-8h-3l-2-8 2-5h-4l4-2-4-6 4 2v-2h-4l2-6 2 2 7-8-11-2h7l-3-4 3 2 6-10-6 6-3-6 7-4-4-2 6 6v-6h-6v-3l-3-4h9l4-4h-6v-2h8v-6l6-2-6-4 6-10v8l4-8-8-4-4-13 4 4 4 9h2v-9l2 11 8-4v-5l-6 5 6-7h-8l4-4h-6l4-2 12 2 2-4-2-4 4 4 9-6 4-4-4-2v-6l4 6 12-12-2-6 10-3v-2l2-2 2-6-4-2v-6l2-6-2 8 4 4v-12l15-21 14-12h18v-16l2 2v12l5-22 8-11 6-6-2-2 2-4-2 4h4l6-8v-2l2 2 17-4h-3l3-6 6 6-4-6 6 2 6-8v-9h-2v2l-4 4v-4h-6l4 4-6-4-3 7h-12l-6-9 14 6 9-10v-2l-5 2 9-8-25-4-6-4 22 2-4-6 9-2-5 2 5 6 4-6 2 6v-2l10 2 8-19 6 5v-19l-8-4v4h-6v14h-6l6-2-6-4 2-2v-8l-8 2v4l-6-4-15 6-4-20 2 2 2 10 6 2 11-6-9-2 13 2-4-6 6 4 4-4-6-8 12 6-4-6 10 12-10-21v7l-4-9-2-2 6 2-2-4-2 2v-8l18 35 10 6-14-20-10-15-8-18h-15l2 6h-6l-4 2v-4l-8-6-2-4-2 2-12-2-2-2h-11l11-4 4 6 4-6 6 6 4-2 10 8 6-2-6-10h-6l-14-11v-4l16 13h4l-4-9 6 4v-10h-6l4-2-10-2-23-20-8-2h2l6 2 23 20v-2l8 2-2-14 2 2v-4l-12-4-4-7h-15l-8-8-6 6h-6v-20l8-4-2-8h2v10l-6 8v10h4l6-8 8 12v-10l5 10h8l6 5v-5l8 5-6-11-12-6-4-12 2 10 14 4-12-20v-8l-2-3h6l-8-6h4l-2-4-7-2h9l-4-6 4 2-2-2 2-4-2-2h6v2l2-8v6l6-6v-4l6-4-4 6 6-6v4l2 2h-4l-4 6h8l-12 4-4 10 6 6 6-6-4 6h-8v9l6-7 6 4-4 3 4 6-8-4v10l2-6 10 6 2-4-2 6h-10l2 2h4l-4 4h-2l8 8v-4l6 8 4-8v4l2-8v8h4l-4 6h9l-2 11 10-2-4 2 4 2-4 4v8l-4 6v16l4 7 2-7v-12l6-4 4-33 8-14-2-4 2-2 2 4-2-14-6 4 4-4-4-5 4 3v-7l-14-4-19-35 6-14 9-4 4-8-2 8-11 8-6 10 2 7 21 12 12-2v14l6-4 6-18h-4l7-4-3-5v-2h3v-6h4l6-10v-4h2l-2-27-4-12v6l-13-4 2-8 5-4 4-15-9-16 5 4 4 8-4 19 4-4 6-4 2-11 20-16 6-8 19-2 6-4-4-2 6 2 6-4 23-9v-22l6 2h2l2-2-2 6 2 8 6-6v4l6-4v-4h2l2-8h6v10l7-6 20-10-2-9-8-8-10 2h10l2 4h2v6l-8 5h-10l-3-9h-8v-4l2 2-8-6-8-4h2l-2 4-4-4 2-2v-6h2l-2-6 10-6v-2l-2 4-4-2-6-7 2-18 2 2v-12l8-12-2-5 6-2-6-2 8-14 2 4 4-8 5 8-3-10-2-2 2-4 5 14-2-8 2-6v6l6 2 6-14v6l4-4v6l4-2 2-25-2-2 4-6v-4h2v10l2-4-2 6 15 2-7-10h7l-3-6 5 6 4-6-4-2 6 2v-2l6 8v-12l4 6v-6l2 6v-10l4 2v-4l2 4v-2h6v-5h2v-4l2 4v-10l4 6 5-2 6-12-6-2-5 6-2-6 7-4-9-8-4 2-8-2-4-19h-14l-23-69-18-9h-6l-19 17-6-4-2-8h-6l-21 47 2 14-4 14 4 13-2 12-6 10-4 4 6 4-8 2v9l-6-2-6 4h-4l-4 6 2 10-134 33-10 10-14 18-4 13-19 16 4 6 7-4v4h4l-8 8 8 9-2 6-9 4-16 18-27 4-20-2-37 15 2 8 6 2 4 12-24 27-29 24-37 25-16 14-10 2-17 7-10-3 2 3h-18l16-5-8-2-6 2-21-4 10-18-2-4 2-10 9-9v-12l4-4h4v8l6-2v-22l-14-43-11-11h-6l-14 9 2 2-6 12-8 4-11-4 2-14 9-7 4-8 4-6v-25l-8-10v-4h6l-6-8-29-10-8-8h-10l-13-5-6 2 2 3-4 14 6 4-14 8v14l-4 13v-8l-6 8-2-2 2-19-6 15h-7l-4 2v10l-6 2 2 16-8 21 2 12-2 10 12 19 2-2v2l6 14v27l-12 33-14 12-8 6-15-10-12-23v-31l-10-10-2-12 8-25-2-10 8-16-2-6 4-27-4-4-10 4-8 16-5-2v-4l7-14 6-6v-6l18-31 2-14 2 14 4-10 13-4-6 14 4 4 12-23h14l11-2 2-8 22 2 8 6 4-12 7 4h2l20-4-6-8-8-2h4l-8-12-11 6-4-4-4 4-10-4 2-15-20 8-25 5-19 14-6-2-2 2-4-4-18 2-8-12-9-5h-14l-4 7 4-9-10 13v-13l-12-12-9 12-14 9-18 6-25 14-14-4v2l-4 2 4-14-2-2-21 8-20 6-6-6 47-45 43-23h-9l-6 2-6-8-24 6-5-8-14 10h-10l-23-14-6 4-4 4-4-10h-10v-4l-21-2-20 4-2-4-31-4-2-8-10-7-10 7-5-7-143 7-143-2-142-7-149-10-232-29-227-41-2 3 2 12h10v8h-6l2 6-6-4-2 2 6 2 6 8-4 4h-2v7l2 4-2-9 2-2 6 13-12 8v25l-4 2-4-2-2 4-6 6-4-6-2 6-4-6-3 4 7-4h-9l15-11v11l6-11v2l-4 5 4 2 6-13v-2l-8 2 2-6 2 4v-6l4-4h2l-2-10v6l-8 8h-8l-9 10h13l-13 2-2-2 17-16v2l10-8-6-8 2-5h-4v7l-2-7-2 5-4-11-6 4-27-8-27-18-2 20 8 19v37l5-4 8 8-8 2 2 4-7-6v10l13 4h-6v12h-2v2l-5-16-6 20 17 3 8 2 6 8-6-6h-14l2 2-9-4 2 8-8 14 2 4h4l-6 4 2 6h-2v-2l-12 35v12l-6 7 4 2-6 6-8 33h2l-7 2-6 10 6-4v6l-2-2-4 4-2-2-14 24 4 11-4 16v14l4 7-4 10 4 6v12l-8 19v6l-6 10 6-2-6 8-2-2-11 12v11zm111 364l2 8 8-2-2-2zm12 0l6 8 15-2-4-2h-11zm8 47l9 4-2-2-4-2h-3zm13-825l4 2v-2l-4-6v6zm4-6l4 4v-6l4 6 2-4-6-6zm4 70l6-5v-4h-2zm0-13h4l2-6-2-4zm0-37l6 6v9l6 4 2-4-6-4-2 4 2-11-4-4h8l-4-8zm8-22l4 6v-4zm14 854l3 10 6 2-6-12h-3zm3-23l6 2v7h8l-4-5zm970 430l11 37-11-45v8zm0-22l4-14 4-9h-4zm15-35l8-12v-2l-2 2zm8-12l8-6 12-9v-4l-16 13zm33-1143l2 12 6-2v-6zm47 1083l18-12h-4zm127-958l4-2 6-2-4-2zm4-8h6v-4zm16 934l6 4h4l2-4-8-7zm37-988l10-4h-2l12-8 3-8-21 14zm23 1012h6v-4zm4-979h6l2-2v4h-2l2 6 6-12 8-8-2-4 12-2-4-2-18 4-10 12v4zm59 916l8 4v-8zm0-807l4 8 8-16v-7h2l-2-4zm16-82h4l-4-4v4zm7 887l4 16v-10zm43-846h2l2-8h-2zm28 825h2l31-8h-6zm13-842l4 2 4-2-4-2zm4-36l8 8v-13h-4zm22 22l10 4 2-6-8-6v4zm68 879l2 4 4-4 14-9zm147-758l2 2 4 2v-4h-6zm15 897l6 8-2-8h-4zm40 111h7v-5h-2zm7-5l4-2h-2zm4-129l12-14 8 2 2 6-2 15h-8zm2 119l6 8v-4l-2-2zm0-205l6 13-2-11 2-8zm20 33l13 21 8 10zm17-911l2 2 2-2v-4zm4 1067l8-15 4-8-4 2v2zm43-529l2-6-2 2v4zm18-20l10-4 9-2h-2l-9 2zm37-27l4-2 2-2h-2zm0-159l4-2 4-25zm6 155l6-6 4-6-10 6v6zm2-51l6 4-2-4h-4zm8 39l9-2 2-8-2-13-7-8 7 23zm0-293l5-8v-2l-5 2v8zm5 59h4l2-6zm0-69l4 2 8-4-2 4 10-4-6 2 43-21-6 2 32-26-8 8-2-2v2h-8l-2 8-10 2 14-16-14 12-39 12v7l-2-5v7l-8 4zm6 61v-2l4-6v-4zm20-65l6-2h-2zm6 0l6-2 13-13-19 13v2zm88-66h4l9-4-4-4zm27-2l10-2-4-6v6zm10-162l2 4h4v-2zm6-4l6-2v-2h-6v4zm11-8l6 2v-6h2l-4-6z"/></symbol><symbol id="ut" viewBox="0 0 1425 2075"><path d="M102 1659l611 10 610-10-31-1219-463 6V143l-598-6-86-4zM375 358l16-14-16-61 10-11-10-12 37-10 20-15 19 15-9 43 21 20 29 4 20 68 16-10-10-68 27 4v17h51l-10 16-33-2-18 20 14 3 35 61 41 31-45 28-15 31-37 27-14-6-20-72-13 33-18-33-31-21-2-55-14-27-17-18-14 18zm106 78l2 10 4-6-4-6zm37-43l17 12-7-16zm35 64l16 28v-30l-16-31v33z"/></symbol><symbol id="va" viewBox="0 0 2355 2075"><path d="M102 1305l914 55h528l520-6-4-15 21 15v-62l33 62-39-119-84-10 4 30-21-10-39 10 15-30-47-29-7-45-16 10-59-24-15-19-14 8-49-10 4-14 53 20 8-14 19 29 20-29 33 43 23-10 61 75 27-10 10-28-16-2 6-13-21-26-39-11-69-77 4-7 86 84 22-8-18-12 8-39 37 41 4-59-39-7 25-14-62-20-106-140-49-24 18-4 31 24 112 139 11-16 41 21-11-70 25 10v-28l-72-35-18-41-35 2-53-21-31-34 14-7-6-18-82 18 19-8-23-20 15 10 18-76 16 2 4-20 25-15v-49l-55-47-58-24 13-31-29-27-43-6-31 55-119-90-20 90-111 117-32-18-74 137-55-19-7-30-28-13-39 107-125 184 14 21-18 35-41 28-19-14-55 24-29-10-6 29-90 20-37-28-55 39-88-56-6-53-96 78-88 45-54 74-51 10-18 31zm1962-199l17 55 14-24 8 14 15-88 22-16-10-5 10-14 12 19 15-13 41-121 14-34-68 6-24 32 18 21-30 10-4 41-29 23zm21 240l8 8h2v-13zm20-213h13l2-7v-18zm33-56l2 4 8-18 4-2zm76-153h10l8-7 21-49z"/></symbol><symbol id="vt" viewBox="0 0 1189 2075"><path d="M102 1038l7 29 32-39h23l33 51-27 531 18 41 412 18-39-74-6-32 16-70 25-25 22-174 17-35 8-180 27-41 14-78 47-49 19-69 41-66-11-16 35-78 4-123 33-45 61-4 93-72 38-51 5-37 20-6v-14l-47-103 12-45 51-67-12-56 14-28-931 8 4 45-23 61 23 50-25 116 43 125-22 64 4 84-29 32-29 99 35 200z"/></symbol><symbol id="wa" viewBox="0 0 2260 2075"><path d="M102 653l11 60 73 137 7 110 28 66v98l25-45 26 29 45 12-59 21v24l-25-28 11 69 53-2 33 25-19 2-14-12-4 38-17-10 11 29-6 31 24 18-20-6-13 18-20-96-19 137 25-12 39 25 45-19 23 17h43l36 40 50-10 36 23 45 61 17 127 123 33 129-57 139 8 33 33 65-9 74-32 107-4 77-39 76-15 25-20 125-13 24-18 570-22-25-37 12-25-12-37-29-41-47-1003-694 20-746-4 3 12-17 9 14 8 15 69 24-14 21 10 12 68-6 6-27-12 21 49-21-12v12l-14-21-18 7 6 26 6 10 20-12 9 25 36 28v25h-30l2 41 37 29-27-41 6-29 19 6 2 51 41 25-31 31-25 55-10 53 25 23-2 12-19-2 21 82-27 37-27-21-12 41-41 41-24-24-9 12v-12l-12 41-8-33-21 20 21-37-37 33 16-16h-16l4-4 25-13 45-82 8 87 12-66 25-25v13l-15 28 31 17 17-99-13-24-32 20 12-20-15-17 3-12 24 29-14-60 14 19 12-21 21-4-16-59-19-14 10 49-16-13-37 70-49 25-45 77 16 9 58-25-62 33-24-4 86-148-5-28 9 16 8-25v62l51-74-43-78 4-22-29 8 13 29-13 18-10-43-30 23-33-41 12-13-37 25-172-25-196-94 16 25zm162 654l12 6 5-13-9-16zm242-809l8 41 41 14-4-25-25-37zm24-146l13-4 4-4h-17v8zm17 127l4 19 4-13 12 15 17-2-9-39 21 39 16-23-24-20h-21zm8 543l16 20v-32l4-13zm10-477l27 24-4-18-8-39zm35 506l12 12 9-12-9-9zm8-410l23 31h14l12 63h21l20 31 4-41-30-27-10 33-9-74-35-16 31-31 23 8-19-40-20 4zm10 47l3 37 10-14-10-17zm0-178l13 10 2-8-12-14zm7-55l24 24-6-12-18-21v9zm24 428l23 12v-12l-15-41zm13 102l16-25 6 5-10 20 28-16-16-13-8-36-12 20z"/></symbol><symbol id="wi" viewBox="0 0 1724 2075"><path d="M102 555l33 2 21 53-29 45v60l-12 18 12 53-18 64 55 51 49 10 27 39 47 17 41 36 32 66 39 35 64 18 29 33 10 70v94l10 37 29 20-21 56 21 131 20 30 82 21 12 51h758l2-104-35-86-4-86 49-160-10-84 23-60 37-36-17-46 49-172-28-28-33 14-45 68-41 41-17 4-16-13 49-122 49-29 13-41-33-29 10-69-51 4 18-43-2-70-22-22-55-15 4-28-25-27-88-25-76-4-69-37-252-67-27-64-39-10-6-18-41-4-45-35-6 22-39 11 45-103-12-18-17-11-20 11-37 28-25-10-49 37-94 29-43 4-33-33-30 39h-17l-4 209-18 16h-19l-74 41-45 74v47zM586 59l8 4 6-8-6-6zm43 80l18-8 37-20-4-13zm8-65l18 8v-8l-12-8zm29 8l26 6V78l6-8zm43-27l16-6V27zm780 748l18 24 39-47-2-14 35-47-14-15 14 5-2-37 16-4-4-15h-12l-23 35-30 12-6 43-27 33zm104-168h27l2-23-20-2z"/></symbol><symbol id="wv" viewBox="0 0 2084 2075"><path d="M102 1229l60 88-4 18 67 127 68 60 59 16-10 33 55 88 70 41 41 4 80-66 47 47 137-34 14-47 41 22 82-45 33 23 59-43-4-27 35-25-28-30 34-64 80-92 35-88 43-43 61-156 39 13 13 41 88 28 108-209 49 27 45-68h27l37-30 59-84 7-52 30-92 189 150 34-94-6-45-22-13 16-26-22 4-4-25-9 17-8-27 17-6-7-17-49 9-78-54-38 35-56 8 6 13-12 6 6 14-10 12-84-10-27-10 4-19-14-10-12 33-55 55-35-12-23 6-67 78-76 49 4-252H926l6-454-55 18 22 70-10 39 10 32-51 119-8 72-19 4v26l-26 50 14 24-21 43-131 109-55 26-18-30h-21l-28 30-17 35h-37l-24 45v33l-29 12 18 72-22-8-29 37-16-58-23-16-20 10-62 107 7 82-37 10-23 72-96 8 2 86z"/></symbol><symbol id="wy" viewBox="0 0 2162 2075"><path d="M102 1612l957 47 1001 8-8-741-10-740-938-8-901-47z"/></symbol></defs></svg>