<svg xmlns="http://www.w3.org/2000/svg" width="420" height="390"><svg viewBox="0 0 2857.857 1026" id="alert" width="24" height="9" x="3" y="11"><path d="M1006.854 801.247l-438.286-767C557.173 14.307 535.968 2 513 2s-44.173 12.306-55.567 32.247l-438.286 767c-11.32 19.81-11.238 44.144.213 63.876C30.81 884.855 51.9 897 74.714 897h876.572c22.814 0 43.903-12.145 55.354-31.877s11.533-44.067.214-63.876zM577 769H449V641h128v128zm0-192H449V321h128v256z"/></svg><svg viewBox="0 0 2857.857 1026" id="alignment-align" width="24" height="9" x="33" y="11"><path d="M193 65C86.938 65 1 150.938 1 257s85.938 192 192 192 192-85.938 192-192S299.062 65 193 65zm480 544l160-160H385v448l160-160 288 288 128-128-288-288z"/></svg><svg viewBox="0 0 2857.857 1026" id="alignment-aligned-to" width="24" height="9" x="63" y="11"><path d="M385 577l128-128 288 288 160-160v448H513l160-160-288-288zM193 449C86.938 449 1 363.062 1 257S86.938 65 193 65s192 85.938 192 192-85.938 192-192 192z"/></svg><svg viewBox="0 0 2857.857 1026" id="alignment-unalign" width="24" height="9" x="93" y="11"><path d="M513 193L385 321 129 65 1 193l256 256-128 128 64 64 384-384-64-64zm128 384l128-128-64-64-384 384 64 64 128-128 256 256 128-128-256-256z"/></svg><svg viewBox="0 0 2857.857 1026" id="arrow-down" width="24" height="9" x="123" y="11"><path d="M449 449V193H193v256H1l320 384 320-384H449z"/></svg><svg viewBox="0 0 2857.857 1026" id="arrow-left" width="24" height="9" x="153" y="11"><path d="M385 385V193L1 513l384 320V641h256V385H385z"/></svg><svg viewBox="0 0 2857.857 1026" id="arrow-right" width="24" height="9" x="183" y="11"><path d="M641 513L257 193v192H1v256h256v192l384-320z"/></svg><svg viewBox="0 0 2857.857 1026" id="arrow-small-down" width="24" height="9" x="213" y="11"><path d="M257 449V321H129v128H1l192 256 192-256H257z"/></svg><svg viewBox="0 0 2857.857 1026" id="arrow-small-left" width="24" height="9" x="243" y="11"><path d="M257 449V321L1 513l256 192V577h128V449H257z"/></svg><svg viewBox="0 0 2857.857 1026" id="arrow-small-right" width="24" height="9" x="273" y="11"><path d="M385 513L129 321v128H1v128h128v128l256-192z"/></svg><svg viewBox="0 0 2857.857 1026" id="arrow-small-up" width="24" height="9" x="303" y="11"><path d="M193 321L1 577h128v128h128V577h128L193 321z"/></svg><svg viewBox="0 0 2857.857 1026" id="arrow-up" width="24" height="9" x="333" y="11"><path d="M321 193L1 577h192v256h256V577h192L321 193z"/></svg><svg viewBox="0 0 2857.857 1026" id="beer" width="24" height="9" x="363" y="11"><path d="M897 257H705V129C705 58 547 1 353 1S1 58 1 129v768c0 71 158 128 352 128s352-57 352-128V769h192s64-30 64-64V321s-29-64-64-64zM193 833h-64V321h64v512zm192 64h-64V385h64v512zm192-64h-64V321h64v512zM353 193c-124 0-224-29-224-64s100-64 224-64 224 29 224 64-100 64-224 64zm480 448H705V385h128v256z"/></svg><svg viewBox="0 0 2857.857 1026" id="book" width="24" height="9" x="393" y="11"><path d="M769 577H641c-34 0-64 32-64 64h256c0-34-32-64-64-64zm-55-416c-167 0-209 32-233 56-24-24-66-56-233-56S1 207 1 239v586c29-16 119-48 214-56 115-9 234 9 234 32 0 16 8 31 31 32h2c23-1 31-16 31-32 0-23 119-41 234-32 94 7 185 40 214 56V239c0-32-80-78-247-78zM449 733c-30-16-103-28-192-28S87 717 65 732V289s64-59 192-59 192 27 192 59v444zm448-1c-22-15-103-27-192-27s-162 12-192 28V289s64-59 192-59 192 27 192 59v443zM769 449H641c-34 0-64 32-64 64h256c0-34-32-64-64-64zm0-128H641c-34 0-64 32-64 64h256c0-34-32-64-64-64zM321 449H193c-32 0-64 30-64 64h256c0-32-30-64-64-64zm0 128H193c-32 0-64 30-64 64h256c0-32-30-64-64-64zm0-256H193c-32 0-64 30-64 64h256c0-32-30-64-64-64z"/></svg><svg viewBox="0 0 2857.857 1026" id="bookmark" width="24" height="9" x="3" y="41"><path d="M1 129v768l192-128 192 128V129H1zm316.25 196.75l-71.875 51.938 27.188 83.406c2.75 8.375-.688 11.062-7.562 6.594l-72-52.094-72 52.03c-6.843 4.47-10.31 1.782-7.56-6.593l27.218-83.405-71.875-51.875c-6.47-5.125-5-9.22 3.906-9.22l88-.124 27.124-83.094c2.812-8.812 7.562-8.812 10.375 0l27.187 83.094 87.938.125c8.935 0 10.373 4.095 3.935 9.22z"/></svg><svg viewBox="0 0 2857.857 1026" id="briefcase" width="24" height="9" x="33" y="41"><path d="M897 193H641v-66c0-34.2-27.8-62-62-62H447c-34.2 0-62 27.8-62 62v66H129c-35.3 0-64 28.7-64 64v512c0 35.3 28.7 64 64 64h768c35.3 0 64-28.7 64-64V257c0-35.3-28.7-64-64-64zm-448-48c0-8.8 7.2-16 16-16h96c8.8 0 16 7.2 16 16v48H449v-48zm448 368H577v64H449v-64H129V257h64v192h640V257h64v256z"/></svg><svg viewBox="0 0 2857.857 1026" id="broadcast" width="24" height="9" x="63" y="41"><path d="M449 193c142 0 256 115 256 256 0 69-28 132-72 178l-16 93c91-56 152-156 152-271 0-177-143-320-320-320S129 272 129 449c0 115 61 215 152 271l-16-93c-45-46-72-109-72-178 0-142 114-256 256-256zm-64 320c-36 0-64 29-64 64v128c0 36 30 64 64 64v256h128V769c34 0 64-28 64-64V577c0-35-28-64-64-64H385zm192-128c0-71-57-128-128-128s-128 57-128 128 57 128 128 128 128-57 128-128zM449 1C202 1 1 202 1 449c0 197 128 363 305 423l-12-72C159 740 65 606 65 449 65 237 237 65 449 65s384 172 384 384c0 157-94 291-229 351l-12 72c177-60 305-225 305-423C897 202 696 1 449 1z"/></svg><svg viewBox="0 0 2857.857 1026" id="browser" width="24" height="9" x="93" y="41"><path d="M321 193h64v64h-64v-64zm-128 0h64v64h-64v-64zm-128 0h64v64H65v-64zm768 640H65V321h768v512zm0-576H449v-64h384v64zm64-64c0-35.35-28.65-64-64-64H65c-35.35 0-64 28.65-64 64v640c0 35.35 28.65 64 64 64h768c35.35 0 64-28.65 64-64V193z"/></svg><svg viewBox="0 0 2857.857 1026" id="bug" width="24" height="9" x="123" y="41"><path d="M244.62 157.53C191.748 214.313 206.34 305 206.34 305s53.968 64 160 64c106.03 0 160.03-64 160.03-64s14.376-89.47-37.374-146.312c32.375-18.03 51.438-44.094 43.562-61.812-8.938-19.97-48.375-21.75-88.25-3.97-14.812 6.595-27.438 14.97-37.25 23.876-12.438-2.25-25.625-3.78-40.72-3.78-14.06 0-26.56 1.343-38.344 3.25-9.656-8.75-22.062-16.876-36.53-23.345-39.876-17.72-79.376-15.938-88.25 3.97-7.75 17.342 10.283 42.685 41.407 60.654zm401.126 413.22c-8.25-1.75-16.125-2.75-23.75-3.5 0-2.125.375-4.125.375-6.312 0-33.594-4.75-65.654-12.437-96.125 16.438 1.406 37.375-2.375 58.562-11.78 39.875-17.78 65-48.374 56.125-68.218-8.875-19.97-48.375-21.75-88.25-3.97-18.625 8.313-33.812 19.47-44 30.907-7.75-18.25-16.5-35.78-26.812-51.72-30.188 25.157-87.312 62.72-167.062 71.063v321.78s-.25 32-32.03 32c-31.75 0-32-32-32-32V431.22c-79.812-8.345-136.97-45.97-167.094-71.063-9.875 15.312-18.375 32-25.938 49.344-10.28-10.624-24.625-20.843-41.97-28.593-39.874-17.72-79.374-15.938-88.25 3.97-8.905 19.905 16.25 50.437 56.126 68.218 19.844 8.846 39.53 12.812 55.47 12.096-7.657 30.405-12.47 62.345-12.47 95.813 0 2.188.375 4.25.438 6.5-6.72.75-13.688 1.75-20.78 3.25-51.97 10.75-91.782 37.625-88.845 59.812 2.938 22.312 47.5 31.5 99.594 20.688 6.78-1.375 13.438-3.125 19.78-5.062 9.157 40.81 23.813 78.685 44.095 111.31-12.03 6.062-24.53 15-36.03 26.625C96.714 816 83.778 854.75 99.714 870.688c15.938 15.937 54.656 3 86.53-28.812 9.345-9.375 16.845-19.25 22.657-29C252.434 855.5 306.965 881 366.465 881c60.343 0 115.78-26.25 159.53-69.938 5.876 10.312 13.75 20.812 23.626 30.688 31.813 31.875 70.626 44.812 86.563 28.875s3-54.625-28.875-86.5c-12.312-12.375-25.688-21.75-38.438-27.938 20.125-32.5 34.625-70.375 43.688-111.062 7.188 2.25 14.688 4.375 22.562 6.062 52.06 10.812 96.625 1.562 99.625-20.688 2.813-22.125-37-49-89-59.75z"/></svg><svg viewBox="0 0 2857.857 1026" id="calendar" width="24" height="9" x="153" y="41"><path d="M705 513h-64v128h64V513zm-128 0h-64v128h64V513zm128-192h-64v128h64V321zm128 192h-64v128h64V513zM577 705h-64v128h64V705zM769 1h-64v128h64V1zM257 1h-64v128h64V1zm576 320h-64v128h64V321zm-256 0h-64v128h64V321zM321 705h-64v128h64V705zM193 513h-64v128h64V513zm128 0h-64v128h64V513zM833 65v128H641V65H321v128H129V65H1v896h960V65H833zm64 832H65V257h832v640zM193 705h-64v128h64V705zm256-384h-64v128h64V321zm0 384h-64v128h64V705zM321 321h-64v128h64V321zm128 192h-64v128h64V513zm256 192h-64v128h64V705z"/></svg><svg viewBox="0 0 2857.857 1026" id="check" width="24" height="9" x="183" y="41"><path d="M641 193L257 577 129 449 1 577l256 256 512-512-128-128z"/></svg><svg viewBox="0 0 2857.857 1026" id="checklist" width="24" height="9" x="213" y="41"><path d="M761.688 517.22l-49.812-49.657c-6.438-6.53-16.938-6.594-23.375 0L583.5 572.5 463.375 692.875l-93.03-93.125c-6.532-6.562-17.032-6.562-23.5 0l-49.72 49.688c-6.53 6.562-6.53 17.062 0 23.562l104.78 104.875 17.97 17.875 31.688 31.812c6.562 6.562 17.188 6.562 23.562 0l49.625-49.688L761.625 540.78c6.625-6.468 6.625-16.968.063-23.56zm-532.22 64.592L279.157 532c42.47-42.375 116.344-42.438 158.78.062l25.313 25.312L577 449V129H1v704h320l-91.53-92.125c-43.782-43.937-43.782-115.25 0-159.063zM193 193h320v64H193v-64zm0 128h320v64H193v-64zm-64 192H65v-64h64v64zm0-128H65v-64h64v64zm0-128H65v-64h64v64zm64 192h64v64h-64v-64z"/></svg><svg viewBox="0 0 2857.857 1026" id="chevron-down" width="24" height="9" x="243" y="41"><path d="M513 321L321 513 129 321 1 449l320 320 320-320-128-128z"/></svg><svg viewBox="0 0 2857.857 1026" id="chevron-left" width="24" height="9" x="273" y="41"><path d="M449 321L321 193 1 513l320 320 128-128-192-192 192-192z"/></svg><svg viewBox="0 0 2857.857 1026" id="chevron-right" width="24" height="9" x="303" y="41"><path d="M129 193L1 321l192 192L1 705l128 128 320-320-320-320z"/></svg><svg viewBox="0 0 2857.857 1026" id="chevron-up" width="24" height="9" x="333" y="41"><path d="M321 257L1 577l128 128 192-192 192 192 128-128-320-320z"/></svg><svg viewBox="0 0 2857.857 1026" id="circle-slash" width="24" height="9" x="363" y="41"><path d="M321 193C144.22 193 1 336.22 1 513c0 176.75 143.22 320 320 320 176.75 0 320-143.25 320-320 0-176.78-143.25-320-320-320zm0 128c27.656 0 53.688 6.094 77.438 16.562L145.562 590.438C135.094 566.688 129 540.656 129 513c0-106 85.938-192 192-192zm0 384c-28.03 0-54.53-6.375-78.594-17.125l253.906-252.5C506.875 459.188 513 485.28 513 513c0 106.062-85.938 192-192 192z"/></svg><svg viewBox="0 0 2857.857 1026" id="circuit-board" width="24" height="9" x="393" y="41"><path d="M321 257c35.346 0 64 28.654 64 64 0 35.346-28.654 64-64 64s-64-28.654-64-64c0-35.346 28.654-64 64-64zm640 512c0 106.04-85.96 192-192 192H321l192-192h81.128c22.132 38.258 63.494 64 110.872 64 70.692 0 128-57.308 128-128s-57.308-128-128-128c-47.377 0-88.74 25.742-110.872 64H449L157.044 932.956C101.844 899.232 65 838.42 65 769V257c0-106.04 85.96-192 192-192v145.128C218.742 232.26 193 273.623 193 321c0 70.692 57.308 128 128 128 47.276 0 88.56-25.633 110.727-63.756l162.416-.22C616.28 423.27 657.633 449 705 449c70.692 0 128-57.308 128-128s-57.308-128-128-128c-47.388 0-88.758 25.753-110.887 64.025l-162.097.22c-11.246-19.54-27.503-35.83-47.016-47.117V65h384c106.04 0 192 85.96 192 192v512zm-320-64c0-35.346 28.654-64 64-64s64 28.654 64 64c0 35.346-28.654 64-64 64s-64-28.654-64-64zm0-384c0-35.346 28.654-64 64-64s64 28.654 64 64c0 35.346-28.654 64-64 64s-64-28.654-64-64z"/></svg><svg viewBox="0 0 2857.857 1026" id="clippy" width="24" height="9" x="3" y="71"><path d="M705 897H65V321h640v192h64V193c0-35-29-64-64-64H513C513 58 456 1 385 1S257 58 257 129H65c-35 0-64 29-64 64v704c0 35 29 64 64 64h640c35 0 64-29 64-64V769h-64v128zM193 193h64s64-29 64-64 29-64 64-64 64 29 64 64 32 64 64 64h64s64 29 64 64H129c0-39 28-64 64-64zm-64 512h128v-64H129v64zm448-128V449L321 641l256 192V705h320V577H577zM129 833h192v-64H129v64zm320-448H129v64h320v-64zM257 513H129v64h128v-64z"/></svg><svg viewBox="0 0 2857.857 1026" id="clock" width="24" height="9" x="33" y="71"><path d="M385 577h256l64-64-64-64H513V257l-64-64-64 64v320zm64-512C201.562 65 1 265.562 1 513s200.562 448 448 448 448-200.562 448-448S696.438 65 449 65zm0 768c-176.25 0-320-143.75-320-320 0-175.938 144.188-319.5 320-320 175.812.5 320 144.062 320 320 0 176.25-143.75 320-320 320z"/></svg><svg viewBox="0 0 2857.857 1026" id="cloud-download" width="24" height="9" x="63" y="71"><path d="M833 321c-8.75 0-17.125 1.406-25.625 2.562C758.625 209.25 645.125 129 513 129c-132.156 0-245.562 80.25-294.406 194.562C210.156 322.406 201.78 321 193 321 86.938 321 1 406.938 1 513s85.938 192 192 192c20.53 0 39.875-4.25 58.375-10.375C285.47 732.375 332.312 757.75 385 765.5v-65.25c-49.844-10.375-91.594-42.812-112.625-87.875C250.53 630 223.22 641 193 641c-70.656 0-128-57.375-128-128 0-70.656 57.344-128 128-128 25.28 0 48.625 7.562 68.406 20.094C282.344 284.78 386.594 193 513 193c126.5 0 229.75 92.22 250.5 212.75 20-13 43.875-20.75 69.5-20.75 70.625 0 128 57.344 128 128 0 70.625-57.375 128-128 128-10.25 0-20-1.5-29.625-3.75C774.438 678.125 726.938 705 673 705c-11.062 0-21.625-1.625-32-4v64.938c10.438 1.688 21.062 3.062 32 3.062 61.188 0 116.5-24.625 156.938-64.438 1.062.063 1.937.438 3.062.438 106.062 0 192-85.938 192-192s-85.938-192-192-192zM577 513H449v320H321l192 192 192-192H577V513z"/></svg><svg viewBox="0 0 2857.857 1026" id="cloud-upload" width="24" height="9" x="93" y="71"><path d="M513 385L321 577h128v320h128V577h128L513 385zm320-64c-8.75 0-17.125 1.406-25.625 2.562C758.625 209.188 645.125 129 513 129c-132.156 0-245.562 80.188-294.406 194.562C210.156 322.406 201.78 321 193 321 86.938 321 1 407 1 513c0 106.062 85.938 192 192 192 20.53 0 39.875-4.25 58.375-10.438C285.47 732.375 332.312 757.75 385 765.5v-65.25c-49.844-10.375-91.594-42.812-112.625-87.75C250.53 630 223.22 641 193 641c-70.656 0-128-57.375-128-128 0-70.656 57.344-128 128-128 25.28 0 48.625 7.562 68.406 20.156C282.344 284.78 386.594 193 513 193c126.5 0 229.75 92.22 250.5 212.75 20-13 43.875-20.75 69.5-20.75 70.625 0 128 57.344 128 128 0 70.625-57.375 128-128 128-10.25 0-20-1.5-29.625-3.75C774.438 678.125 726.938 705 673 705c-11.062 0-21.625-1.625-32-4v64.938c10.438 1.688 21.062 3.062 32 3.062 61.188 0 116.5-24.688 157-64.438 1 0 1.875.438 3 .438 106.062 0 192-85.938 192-192 0-106-85.938-192-192-192z"/></svg><svg viewBox="0 0 2857.857 1026" id="code" width="24" height="9" x="123" y="71"><path d="M609 193l-96 96 224 224-224 224 96 96 288-320-288-320zm-320 0L1 513l288 320 96-96-224-224 224-224-96-96z"/></svg><svg viewBox="0 0 2857.857 1026" id="color-mode" width="24" height="9" x="153" y="71"><path d="M1 129v768h768V129H1zm64 704V193h640L65 833z"/></svg><svg viewBox="0 0 2857.857 1026" id="comment" width="24" height="9" x="183" y="71"><path d="M769 129H129C67 129 1 193 1 257v384c0 128 128 128 128 128h64v256l256-256h320s128-68 128-128V257c0-62-64-128-128-128z"/></svg><svg viewBox="0 0 2857.857 1026" id="comment-discussion" width="24" height="9" x="213" y="71"><path d="M257 513V321H65S1 353 1 385v320s32 64 64 64h64v192l194-192h192s62-32 62-64v-64H385s-128-64-128-128zm576-384H385s-64 32-64 64v320s32 64 64 64h190l194 192V577h64s64-32 64-64V193s-32-64-64-64z"/></svg><svg viewBox="0 0 2857.857 1026" id="credit-card" width="24" height="9" x="243" y="71"><path d="M129 705h128v-64H129v64zm192 0h128v-64H321v64zm64-192H129v64h256v-64zm-128-64h64l128-128h-64L257 449zm192 128h192v-64H449v64zm512-384H65S1 225 1 257v512s32 64 64 64h896s64-32 64-64V257s-32-64-64-64zm0 256v288s0 32-32 32H97c-32 0-32-32-32-32V449h64l128-128H65v-32s0-32 32-32h832c32 0 32 32 32 32v32H577L449 449h512z"/></svg><svg viewBox="0 0 2857.857 1026" id="dash" width="24" height="9" x="273" y="71"><path d="M1 449v128h512V449H1z"/></svg><svg viewBox="0 0 2857.857 1026" id="dashboard" width="24" height="9" x="303" y="71"><path d="M417 465.5c-61.562 0-111.5 49.938-111.5 111.5S355.438 688.5 417 688.5 528.5 638.562 528.5 577c0-8.5-1.125-16.75-3-24.688C607.125 457.375 733.5 309.344 801 225c23.125-28.875-2.312-56.188-32-32-85.188 69.375-232.312 194.688-326.906 275.594-8.063-1.875-16.47-3.094-25.094-3.094zm31.875-208.625c0-17.656-14.344-32-32-32s-32 14.344-32 32 14.344 32 32 32 32-14.344 32-32zm192 256c0 17.656 14.375 32 32 32s32-14.344 32-32-14.375-32-32-32-32 14.344-32 32zm-352-256c-17.656 0-32 14.344-32 32s14.344 32 32 32 32-14.344 32-32-14.344-32-32-32zm-64 128c0-17.656-14.344-32-32-32s-32 14.344-32 32 14.344 32 32 32 32-14.344 32-32zm-96 128c0 17.656 14.344 32 32 32s32-14.344 32-32-14.344-32-32-32-32 14.344-32 32zm448-224c0-17.656-14.375-32-32-32s-32 14.344-32 32 14.375 32 32 32 32-14.344 32-32zm217 48.813l-68.75 89.938C732.625 454.812 737 483.376 737 513c0 176.75-143.312 320-320 320S97 689.75 97 513c0-176.688 143.312-320 320-320 65.875 0 127 19.97 177.875 54.094l79.25-60.625C603.375 130.593 514.25 97 417 97 187.25 97 1 283.25 1 513s186.25 416 416 416 416-186.25 416-416c0-62.72-14.25-122-39.125-175.312z"/></svg><svg viewBox="0 0 2857.857 1026" id="database" width="24" height="9" x="333" y="71"><path d="M385 961C172.97 961 1 903.625 1 833V705c0-11.125 5.562-21.688 13.562-32C57.375 728.125 206.25 769 385 769s327.625-40.875 370.438-96c8 10.312 13.562 20.875 13.562 32v128c0 70.625-172 128-384 128zm0-256C172.97 705 1 647.625 1 577V449c0-6.78 2.562-13.375 6-19.906C8.938 425 11.5 420.97 14.562 417 57.375 472.094 206.25 513 385 513s327.625-40.906 370.438-96c3.062 3.97 5.625 8 7.562 12.094 3.438 6.53 6 13.125 6 19.906v128c0 70.625-172 128-384 128zm0-256C172.97 449 1 391.656 1 321v-64-64C1 122.344 172.97 65 385 65c212 0 384 57.344 384 128v128c0 70.656-172 128-384 128zm0-320c-141.375 0-256 28.594-256 64s114.625 64 256 64 256-28.594 256-64-114.625-64-256-64z"/></svg><svg viewBox="0 0 2857.857 1026" id="device-camera" width="24" height="9" x="363" y="71"><path d="M513 385c-70.69 0-128 57.31-128 128s57.31 128 128 128c5.713 0 11.337-.38 16.852-1.106-46.344-7.058-81.85-47.08-81.85-95.394 0-53.295 43.203-96.5 96.498-96.5 48.314 0 88.336 35.508 95.394 81.852.726-5.515 1.105-11.14 1.105-16.852 0-70.69-57.31-128-128-128zm384-128H769L641 129H385L257 257H129c-35.348 0-64 28.652-64 64v448c0 35.347 28.652 64 64 64h768c35.347 0 64-28.653 64-64V321c0-35.348-28.653-64-64-64zm-480-64h192l64 64H353l64-64zM161.143 769C143.39 769 129 754.61 129 736.857V449h64v-64h-64v-31.857C129 335.39 143.39 321 161.143 321H343.67c-3.98 3.518-7.882 7.174-11.69 10.98-99.973 99.975-99.973 262.064 0 362.04L406.96 769H161.144zM513 705c-106.038 0-192-85.962-192-192s85.962-192 192-192 192 85.962 192 192-85.962 192-192 192zm320-224L682.327 321H833v160z"/></svg><svg viewBox="0 0 2857.857 1026" id="device-camera-video" width="24" height="9" x="393" y="71"><path d="M577 193c-35.347 0-64 28.653-64 64s28.653 64 64 64 64-28.653 64-64-28.653-64-64-64zm320 192L769 513v-64c0-30.625-21.515-56.21-50.25-62.503C749.958 352.354 769 306.903 769 257.002 769 150.962 683.04 65 577 65c-101.123 0-183.986 78.178-191.45 177.393C351.516 211.693 306.442 193 257 193c-106.038 0-192 85.962-192 192.002C65 491.04 150.962 577 257 577h-64v128h64v128c0 35.347 28.653 64 64 64h384c35.347 0 64-28.653 64-64v-64l128 128h64V385h-64zm-640-64c-35.347 0-64 28.653-64 64s28.653 64 64 64v64c-70.692 0-128-57.308-128-128 0-70.692 57.308-128 128-128s128 57.307 128 128h-64c0-35.347-28.653-64-64-64zm320 384H449V577h128v128zm128-109.213c-33.526-33.547-70.276-70.317-73.373-73.414-5.79-5.79-13.79-9.373-22.627-9.373H417c-17.674 0-32 14.326-32 32v192c0 8.33 3.183 15.915 8.396 21.607.53.58 39.123 39.164 74.41 74.393H353c-17.674 0-32-14.326-32-32V481c0-17.674 14.326-32 32-32h320c17.674 0 32 14.326 32 32v114.787zM577 385c-70.692 0-128-57.308-128-128 0-70.692 57.308-128 128-128s128 57.308 128 128c0 70.692-57.308 128-128 128zm320 320l-64-64 .082-128.084L897 448.998V705z"/></svg><svg viewBox="0 0 2857.857 1026" id="device-desktop" width="24" height="9" x="3" y="101"><path d="M961 65H65S1 97 1 129v576s32 64 64 64h320s-192 64-192 128c0 32 32 64 64 64h512s64-32 64-64c0-64-192-128-192-128h320s64-32 64-64V129s-32-64-64-64zm0 640H65V129h896v576zm-64-512H705c-384 64-542 300-576 384v64h768V193z"/></svg><svg viewBox="0 0 2857.857 1026" id="device-mobile" width="24" height="9" x="33" y="101"><path d="M577 1H65C29.688 1 1 29.688 1 65v896c0 35.375 28.688 64 64 64h512c35.375 0 64-28.625 64-64V65c0-35.312-28.625-64-64-64zM289 65h64c17.625 0 32 14.344 32 32s-14.375 32-32 32h-64c-17.656 0-32-14.344-32-32s14.344-32 32-32zm64 896h-64c-17.656 0-32-14.375-32-32s14.344-32 32-32h64c17.625 0 32 14.375 32 32s-14.375 32-32 32zm224-128H65V193h512v640z"/></svg><svg viewBox="0 0 2857.857 1026" id="diff" width="24" height="9" x="63" y="101"><path d="M449 257H321v128H193v128h128v128h128V513h128V385H449V257zM193 897h384V769H193v128zM641 1H129v64h480l224 224v608h64V257L641 1zM1 129v896h768V321L577 129H1zm704 832H65V193h480l160 160v608z"/></svg><svg viewBox="0 0 2857.857 1026" id="diff-added" width="24" height="9" x="93" y="101"><path d="M513 321H385v128H257v128h128v128h128V577h128V449H513V321zM833 65H65S1 97 1 129v768s32 64 64 64h768s64-32 64-64V129s-32-64-64-64zm-64 736c0 16-17 32-32 32H161s-32-12-32-32V225s16-32 32-32h576s32 16 32 32v576z"/></svg><svg viewBox="0 0 2857.857 1026" id="diff-ignored" width="24" height="9" x="123" y="101"><path d="M833 65H65C33 65 1 97 1 129v768c0 32 32 64 64 64h768c32 0 64-32 64-64V129c0-32-32-64-64-64zm-64 736c0 16-17 32-32 32H161c-18 0-32-12-32-32V225c0-16 16-32 32-32h576c15 0 32 16 32 32v576zM257 607v98h98l286-286v-98h-98L257 607z"/></svg><svg viewBox="0 0 2857.857 1026" id="diff-modified" width="24" height="9" x="153" y="101"><path d="M833 65H65C33 65 1 97 1 129v768c0 32 32 64 64 64h768c32 0 64-32 64-64V129c0-32-32-64-64-64zm-64 736c0 16-17 32-32 32H161c-18 0-32-12-32-32V225c0-16 16-32 32-32h576c15 0 32 16 32 32v576zM449 385c-71 0-128 57-128 128s57 128 128 128 128-57 128-128-57-128-128-128z"/></svg><svg viewBox="0 0 2857.857 1026" id="diff-removed" width="24" height="9" x="183" y="101"><path d="M833 65H65C33 65 1 97 1 129v768c0 32 32 64 64 64h768c32 0 64-32 64-64V129c0-32-32-64-64-64zm-64 736c0 16-17 32-32 32H161c-18 0-32-12-32-32V225c0-16 16-32 32-32h576c15 0 32 16 32 32v576zM257 577h384V449H257v128z"/></svg><svg viewBox="0 0 2857.857 1026" id="diff-renamed" width="24" height="9" x="213" y="101"><path d="M833 65H65C33 65 1 97 1 129v768c0 32 32 64 64 64h768c32 0 64-32 64-64V129c0-32-32-64-64-64zm-64 736c0 16-17 32-32 32H161c-18 0-32-12-32-32V225c0-16 16-32 32-32h576c15 0 32 16 32 32v576zM449 449H257v128h192v128l256-192-256-192v128z"/></svg><svg viewBox="0 0 2857.857 1026" id="ellipsis" width="24" height="9" x="243" y="101"><path d="M641 321H129S1 385 1 449v128s64 128 128 128h512s128-64 128-128V449s-64-128-128-128zM257 577H129V449h128v128zm192 0H321V449h128v128zm192 0H513V449h128v128z"/></svg><svg viewBox="0 0 2857.857 1026" id="eye" width="24" height="9" x="273" y="101"><path d="M513 129C321 129 97 257 1 513c96 192 288 320 512 320s416-128 512-320c-96-256-320-384-512-384zm0 640c-192 0-352-128-384-256 32-128 192-256 384-256s352 128 384 256c-32 128-192 256-384 256zm0-448c-20 0-38 4-56 9 33 15 56 48 56 87 0 53-43 96-96 96-39 0-72-23-87-56-5 18-9 36-9 56 0 106 86 192 192 192s192-86 192-192-86-192-192-192z"/></svg><svg viewBox="0 0 2857.857 1026" id="file-binary" width="24" height="9" x="303" y="101"><path d="M1 961V65h576l192 192v704zm704-672L545 129H65v768h640zM321 513H129V257h192zm-64-192h-64v128h64zm0 448h64v64H129v-64h64V641h-64v-64h128zm256-320h64v64H385v-64h64V321h-64v-64h128zm64 384H385V577h192zm-64-192h-64v128h64z"/></svg><svg viewBox="0 0 2857.857 1026" id="file-code" width="24" height="9" x="333" y="101"><path d="M289 385L129 545l160 160 64-64-96-96 96-96zm128 64l96 96-96 96 64 64 160-160-160-160zM577 65H1v896h768V257zm128 832H65V129h480l160 160z"/></svg><svg viewBox="0 0 2857.857 1026" id="file-directory" width="24" height="9" x="363" y="101"><path d="M833 193H481s-32-16-32-32v-32s-32-64-64-64H65S1 97 1 129v704h896V257s-32-64-64-64zm-448 0H65v-32s16-32 32-32h256s32 15 32 32v32z"/></svg><svg viewBox="0 0 2857.857 1026" id="file-media" width="24" height="9" x="393" y="101"><path d="M577 65H1v896h768V257zm128 832H65V129h480l160 160zM129 257v512h128c0-71 57-128 128-128-71 0-128-57-128-128s57-128 128-128 128 57 128 128-57 128-128 128c71 0 128 57 128 128h128V385L513 257z"/></svg><svg viewBox="0 0 2857.857 1026" id="file-pdf" width="24" height="9" x="3" y="131"><path d="M577 65H1v896h768V257zM65 129h256c-13 4-27 15-35 43-13 49-7 131 16 209-24 81-123 277-129 289-16 4-66 23-108 59zm283 307c58 150 95 150 135 168-84 13-148 22-232 60-4 6 76-146 97-228zm357 461H65h2c34 0 85-21 180-182 39-16 72-27 79-29 59-15 125-27 187-34 55 28 127 46 168 49 10 0 16-2 24-2zm0-311c-24-14-54-25-89-25-24 0-51 2-79 5-27-13-92-33-147-190 17-104 13-174 13-174 6-53-24-73-52-73h194l160 160z"/></svg><svg viewBox="0 0 2857.857 1026" id="file-submodule" width="24" height="9" x="33" y="131"><path d="M833 513H641c0-32-32-64-64-64H449s-64 32-64 64v320h512V577s-32-64-64-64zm-256 64H449v-32s15-32 32-32h64s32 15 32 32v32zm256-320H481s-32-17-32-32v-32s-32-64-64-64H65S1 161 1 193v640h320V449s32-64 64-64h256s64 32 64 64h192V321s-32-64-64-64zm-448 0H65v-32s16-32 32-32h256s32 17 32 32v32z"/></svg><svg viewBox="0 0 2857.857 1026" id="file-symlink-directory" width="24" height="9" x="63" y="131"><path d="M833 193H481c-16 0-32-16-32-32v-32s-32-64-64-64H65C33 65 1 97 1 129v704h896V257s-32-64-64-64zM65 161c0-17 16-32 32-32h256c15 0 32 15 32 32v32H65v-32zm384 544V577c-125 0-224 56-256 192 0-209 107-320 256-320V321l256 192-256 192z"/></svg><svg viewBox="0 0 2857.857 1026" id="file-symlink-file" width="24" height="9" x="93" y="131"><path d="M577 65H1v896h768V257zm128 832H65V129h480l160 160zM385 449c-149 0-256 111-256 320 32-136 131-192 256-192v128l256-192-256-192z"/></svg><svg viewBox="0 0 2857.857 1026" id="file-text" width="24" height="9" x="123" y="131"><path d="M449 257H129v64h320zM577 65H1v896h768V257zm128 832H65V129h480l160 160zM129 769h512v-64H129zm0-128h512v-64H129zm0-128h512v-64H129z"/></svg><svg viewBox="0 0 2857.857 1026" id="file-zip" width="24" height="9" x="153" y="131"><path d="M321 577v-64h-64v64zm0-128v-64h-64v64zm0-128v-64h-64v64zm-128 64h64v-64h-64zM577 65H1v896h768V257zm128 832H65V129h192v64h64v-64h224l160 160zM193 257h64v-64h-64zm0 256h64v-64h-64zm0 128l-64 64v128h256V705l-64-64h-64v-64h-64zm128 64v64H193v-64z"/></svg><svg viewBox="0 0 2857.857 1026" id="flame" width="24" height="9" x="183" y="131"><path d="M434 46c50 134 24 207-32 265-61 64-156 112-223 206C90 642 75 917 396 989c-135-71-164-277-18-406-38 125 32 205 119 176 85-29 141 32 139 102-1 48-20 89-69 112 209-37 293-210 293-342 0-174-155-198-77-344-93 8-125 69-116 169 6 66-63 111-114 81-41-25-40-73-4-109 77-76 107-251-115-382z"/></svg><svg viewBox="0 0 2857.857 1026" id="fold" width="24" height="9" x="213" y="131"><path d="M897 257H673l-64 64h192L673 449H225L97 321h192l-64-64H1v64l160 160L1 641v64h224l64-64H97l128-128h448l128 128H609l64 64h224v-64L737 481l160-160v-64zm-256-64H513V1H385v192H257l192 192 192-192zM257 769h128v192h128V769h128L449 577 257 769z"/></svg><svg viewBox="0 0 2857.857 1026" id="gear" width="24" height="9" x="243" y="131"><path d="M448.938 351C359.53 351 287 423.53 287 513c0 89.375 72.53 162.062 161.938 162.062 89.438 0 161.438-72.688 161.438-162.062 0-89.47-72-162-161.438-162zm324.687 255.062l-29.188 70.312 52.062 102.25 6.874 13.5-72.188 72.188-118.436-55.937-70.312 28.875L506.75 946.5l-4.562 14.5H400.156L356 837.688l-70.312-29-102.404 51.938-13.5 6.75-72.156-72.125 55.875-118.5-28.97-70.25L15.47 570.876 1 566.188v-101.97L124.406 420l28.97-70.188-51.907-102.47-6.845-13.437 72.062-72.062 118.594 55.844 70.22-29.03 35.656-109.19L395.75 65h102l44.188 123.47 70.125 29.03L714.5 165.53l13.625-6.843 72.125 72.062-55.875 118.405L773.25 419.5l109.375 35.656L897 459.75v101.938l-123.375 44.374z"/></svg><svg viewBox="0 0 2857.857 1026" id="gift" width="24" height="9" x="273" y="131"><path d="M449 961h320V641H449v320zm-384 0h320V641H65v320zm383.75-583.812c31.47-3.5 66.875-7.406 87.375-9.72C620 358.126 695.5 282.595 704.812 198.75c9.312-83.75-51-144.125-134.688-134.72C504.688 71.345 444.844 119 417 179.376 389.156 119 329.312 71.345 263.906 63.97 180.188 54.624 119.78 115 129.188 198.75c9.344 83.844 84.875 159.312 168.656 168.72 20.53 2.31 55.938 6.28 87.406 9.718-.5 4.218-.25 7.812-.25 7.812h64s.25-3.594-.25-7.812zm107.625-235.5c45.25-5.062 78 27.562 72.875 72.875-5 45.312-45.875 86.156-91.125 91.22-45.375 5.03-78-27.595-72.938-72.907 5.062-45.312 45.938-86.157 91.188-91.188zM295.905 305.78c-45.25-5.06-86.06-45.905-91.124-91.218-5.062-45.313 27.595-77.938 72.813-72.875 45.312 5.03 86.156 45.875 91.222 91.188 5.06 45.313-27.596 77.937-72.91 72.906zM449 385v192h384V385H449zM1 577h384V385H1v192z"/></svg><svg viewBox="0 0 2857.857 1026" id="gist" width="24" height="9" x="303" y="131"><path d="M417 385l96 96-96 96 64 64 160-160-160-160-64 64zM1 65v832h768V65H1zm704 768H65V129h640v704zM353 577l-96-96 96-96-64-64-160 160 160 160 64-64z"/></svg><svg viewBox="0 0 2857.857 1026" id="gist-secret" width="24" height="9" x="333" y="131"><path d="M194 705l128 192H66L1 641l257-64-64 128zm448-128l64 128-128 192h256l64-256-256-64zm-84 0H342l44 102-64 218h256l-64-218 44-102zm84-192H258l-128 64h640l-128-64zm-64-256l-128 64-128-64-64 192h384l-64-192z"/></svg><svg viewBox="0 0 2857.857 1026" id="git-branch" width="24" height="9" x="363" y="131"><path d="M513 193c-71 0-128 57-128 128 0 47 26 88 64 110v18c0 64-64 128-128 128-53 0-95 11-128 29V303c38-22 64-63 64-110 0-71-57-128-128-128S1 122 1 193c0 47 26 88 64 110v419C27 744 1 785 1 832c0 71 57 128 128 128s128-57 128-128c0-34-13-64-34-87 19-23 49-41 98-41 128 0 256-128 256-256v-18c38-22 64-63 64-110 0-71-57-128-128-128zm-384-64c35 0 64 29 64 64s-29 64-64 64-64-29-64-64 29-64 64-64zm0 768c-35 0-64-29-64-64s29-64 64-64 64 29 64 64-29 64-64 64zm384-512c-35 0-64-29-64-64s29-64 64-64 64 29 64 64-29 64-64 64z"/></svg><svg viewBox="0 0 2857.857 1026" id="git-commit" width="24" height="9" x="393" y="131"><path d="M695.875 449C667.375 338.78 568.125 257 449 257c-119.094 0-218.375 81.78-246.906 192H1v128h201.094C230.624 687.25 329.906 769 449 769c119.125 0 218.375-81.75 246.875-192H897V449H695.875zM449 641c-70.656 0-128-57.375-128-128 0-70.656 57.344-128 128-128 70.625 0 128 57.344 128 128 0 70.625-57.375 128-128 128z"/></svg><svg viewBox="0 0 2857.857 1026" id="git-compare" width="24" height="9" x="3" y="161"><path d="M833 723V321s-96-192-192-192h-64V1L385 193l192 192V257h64s64 32 64 64v402c-38 22-64 63-64 110 0 71 57 128 128 128s128-57 128-128c0-47-26-88-64-110zm-64 174c-35 0-64-29-64-64s29-64 64-64 64 29 64 64-29 64-64 64zM321 769h-64s-64-32-64-64V303c38-22 64-63 64-110 0-71-57-128-128-128S1 122 1 193c0 47 26 88 64 110v402s96 192 192 192h64v128l192-192-192-192v128zM129 257c-35 0-64-29-64-64s29-64 64-64 64 29 64 64-29 64-64 64z"/></svg><svg viewBox="0 0 2857.857 1026" id="git-merge" width="24" height="9" x="33" y="161"><path d="M641 449c-47.625 0-88.625 26.312-110.625 64.906C524.625 513.5 519 513 513 513c-131.062 0-255.438-99.844-300.812-223.438C239.468 266.094 257 231.72 257 193c0-70.656-57.344-128-128-128S1 122.344 1 193c0 47.22 25.844 88.062 64 110.28v419.47C26.844 744.938 1 785.75 1 833c0 70.625 57.344 128 128 128s128-57.375 128-128c0-47.25-25.844-88.062-64-110.25V492.47C277.156 581.5 393.375 641 513 641c6.375 0 11.625-.438 17.375-.625C552.5 678.812 593.5 705 641 705c70.625 0 128-57.375 128-128 0-70.656-57.375-128-128-128zM129 897c-35.312 0-64-28.625-64-64 0-35.312 28.688-64 64-64 35.406 0 64 28.688 64 64 0 35.375-28.594 64-64 64zm0-640c-35.312 0-64-28.594-64-64s28.688-64 64-64c35.406 0 64 28.594 64 64s-28.594 64-64 64zm512 384c-35.312 0-64-28.625-64-64 0-35.406 28.688-64 64-64 35.375 0 64 28.594 64 64 0 35.375-28.625 64-64 64z"/></svg><svg viewBox="0 0 2857.857 1026" id="git-pull-request" width="24" height="9" x="63" y="161"><path d="M705 723V321s-96-192-192-192h-64V1L257 193l192 192V257h64s64 32 64 64v402c-38 22-64 63-64 110 0 71 57 128 128 128s128-57 128-128c0-47-26-88-64-110zm-64 174c-35 0-64-29-64-64s29-64 64-64 64 29 64 64-29 64-64 64zM129 65C58 65 1 122 1 193c0 47 26 88 64 110v419C27 744 1 785 1 832c0 71 57 128 128 128s128-57 128-128c0-47-26-88-64-110V303c38-22 64-63 64-110 0-71-57-128-128-128zm0 832c-35 0-64-29-64-64s29-64 64-64 64 29 64 64-29 64-64 64zm0-640c-35 0-64-29-64-64s29-64 64-64 64 29 64 64-29 64-64 64z"/></svg><svg viewBox="0 0 2857.857 1026" id="globe" width="24" height="9" x="93" y="161"><path d="M513 129c-212.077 0-384 171.923-384 384s171.923 384 384 384c25.953 0 51.303-2.582 75.812-7.49-9.88-4.725-10.957-40.174-1.188-60.385 10.875-22.5 45-79.5 11.25-98.625s-24.375-27.75-45-49.875-12.19-25.45-13.5-31.125c-4.5-19.5 19.875-48.75 21-51.75s1.125-14.25.75-17.625S546.75 567.75 543 567.375s-5.625 6-10.875 6.375-28.125-13.875-33-17.625-7.125-12.75-13.875-19.5-7.5-1.5-18-5.625-44.25-16.5-70.125-27-28.125-25.22-28.5-35.625-15.75-25.5-22.96-36.375c-7.21-10.875-8.54-25.875-11.165-22.5s13.5 42.75 10.875 43.875-8.25-10.875-15.75-20.625 7.875-4.5-16.125-51.75 7.5-71.344 9-96 20.25 9 10.5-6.75.75-48.75-6.75-60.75S276 231 276 231c1.125-11.625 37.5-31.5 63.75-49.875s42.28-4.125 63.375 2.625 22.5 4.5 15.375-2.25 3-10.125 19.5-7.5 21 22.5 46.125 20.625 2.625 4.875 6 11.25-3.75 5.625-20.25 16.875.375 11.25 29.625 32.625 20.25-14.25 17.25-30S538.125 222 538.125 222c18 12 14.674.66 27.8 4.785s48.7 34.215 48.7 34.215c-44.625 24.375-16.5 27-9 32.625s-15.375 16.5-15.375 16.5c-9.375-9.375-10.875.375-16.875 3.75s-.375 12-.375 12c-31.03 4.875-24 37.5-23.625 45.375s-19.875 19.875-25.125 31.125S537.75 438 528 439.5s-19.5-36.75-72-22.5c-15.828 4.297-51 22.5-32.25 59.625s49.875-10.5 60.375-5.25-3 28.875-.75 29.25 29.625 1.03 31.125 33 41.625 29.25 50.25 30 37.5-23.625 41.625-24.75S627 523.875 663 544.5s54.375 17.625 66.75 26.25 3.75 25.875 15.375 31.5 58.125-1.875 69.75 17.25-48 115.125-66.75 125.625S720.75 779.625 702 795s-45 34.406-69.75 49.125c-21.908 13.027-25.85 36.365-35.61 43.732C768.497 849.68 897 696.35 897 513c0-212.077-171.923-384-384-384zm90 360.375c-5.25 1.5-16.125 11.25-42.75-4.5s-45-12.75-47.25-15.375c0 0-2.25-6.375 9.375-7.5 23.87-2.31 54 22.125 60.75 22.5s10.125-6.75 22.125-2.883c12 3.863 3 6.258-2.25 7.758zM477.375 167.25c-2.615-1.902 2.166-4.092 5.016-7.875 1.646-2.186.426-5.815 2.485-7.875 5.625-5.625 33.375-13.5 27.95 1.875-5.425 15.375-31.325 16.875-35.45 13.875zM544.5 216c-9.375-.375-31.443-2.707-27.375-6.75 15.844-15.75-6-20.25-19.5-21.375S478.5 179.25 485.25 178.5s33.75.375 38.25 4.125 28.875 13.5 30.375 20.625 0 13.125-9.375 12.75zm81.375-2.625c-7.5 6-45.24-21.53-52.5-27.75-31.5-27-48.375-18-54.99-22.5-6.617-4.5-4.26-10.5 5.865-19.5s38.625 3 55.125 4.875 35.625 14.625 36 29.78c.375 15.156 18 29.095 10.5 35.095z"/></svg><svg viewBox="0 0 2857.857 1026" id="graph" width="24" height="9" x="123" y="161"><path d="M705 257H513v640h192V257zm256 192H769v448h192V449zM65 961V833h64v-64H65V641h64v-64H65V449h64v-64H65V257h64v-64H65V65h64V1H1v1024h1024v-64H65zm384-384H257v320h192V577z"/></svg><svg viewBox="0 0 2857.857 1026" id="heart" width="24" height="9" x="153" y="161"><path d="M385 865c399-314 384-425 384-512s-72-192-192-192-192 128-192 128-72-128-192-128S1 266 1 353s-15 198 384 512z"/></svg><svg viewBox="0 0 2857.857 1026" id="history" width="24" height="9" x="183" y="161"><path d="M449 65c-90.938 0-175.312 27.53-245.938 74.062L129 65v256h256l-88-88c45.438-24.688 96.688-40 152-40 176.75 0 320 143.22 320 320 0 176.75-143.25 320-320 320-176.78 0-320-143.25-320-320 0-45.562 9.78-88.78 27-128H65v-99.406C25.312 352.5 1 429.594 1 513c0 247.438 200.562 448 448 448s448-200.562 448-448S696.438 65 449 65zm-.97 767L513 769V577h128l64-64-64-64H513l-64-64-128 128 64 64v192l63.03 63z"/></svg><svg viewBox="0 0 2857.857 1026" id="home" width="24" height="9" x="213" y="161"><path d="M193 577l64 384h192V641h128v320h192l64-384-320-320-320 320zm640-192V129H705l.312 128.312L513 65 1 577h128l384-384 384 384h128L833 385z"/></svg><svg viewBox="0 0 2857.857 1026" id="horizontal-rule" width="24" height="9" x="243" y="161"><path d="M64.938 449h128v128h64V193.062h-64V385h-128V193.062H1V577h63.938V449zm575.937 128V449h-63.938v128h63.938zm0-192V257.062h-63.938V385h63.938zm-191.937 0V257.062h128v-64h-192V577h64V449h128v-64h-128zM1 833h639.875V705H1v128z"/></svg><svg viewBox="0 0 2857.857 1026" id="hourglass" width="24" height="9" x="273" y="161"><path d="M572 513c118-85 197-240 197-384C769 58 597 1 385 1S1 58 1 129c0 144 80 299 197 384C80 598 1 753 1 897c0 71 172 128 384 128s384-57 384-128c0-144-80-299-197-384zM385 65c141 0 256 29 256 64s-115 64-256 64-256-29-256-64 115-64 256-64zm-64 706c-154 7-238 40-253 82 16-114 75-189 141-251 73-68 112-60 112-103v273zM216 419C146 364 94 289 74 204c70 32 183 53 311 53s241-21 311-53c-20 85-72 160-142 215-24-17-70-34-169-34s-145 17-169 34zm233 352V498c0 43 39 35 112 103 66 62 125 138 141 251-14-41-99-75-253-82z"/></svg><svg viewBox="0 0 2857.857 1026" id="hubot" width="24" height="9" x="303" y="161"><path d="M513 65C230 65 1 294 1 577v256s64 128 128 128h768s128-64 128-128V577c0-283-229-512-512-512zm96 768H417c-18 0-32-14-32-32s14-32 32-32h192c18 0 32 14 32 32s-14 32-32 32zm288-128c0 32-32 64-64 64H705c0-32-32-64-64-64H385s-64 32-64 64H193s-64-32-64-64V345c78-129 220-216 384-216s306 87 384 216v360zM769 321H257s-64 32-64 64v128s32 64 64 64h512s64-32 64-64V385s-32-64-64-64zm0 128l-64 64H577l-64-64-64 64H321l-64-64v-64h64l64 64 64-64h128l64 64 64-64h64v64z"/></svg><svg viewBox="0 0 2857.857 1026" id="inbox" width="24" height="9" x="333" y="161"><path d="M705 193H65L1 577v256h768V577l-64-384zM577 577l-64 128H257l-64-128H80l49-320h512l49 320H577z"/></svg><svg viewBox="0 0 2857.857 1026" id="info" width="24" height="9" x="363" y="161"><path d="M449 385c35 0 64-29 64-64s-29-64-64-64-64 29-64 64 29 64 64 64zm0-320C202 65 1 266 1 513s201 448 448 448 448-201 448-448S696 65 449 65zm0 768c-177 0-320-143-320-320s143-320 320-320 320 143 320 320-143 320-320 320zm64-320c0-32-32-64-64-64h-64s-64 32-64 64h64v192s32 64 64 64h64s64-32 64-64h-64V513z"/></svg><svg viewBox="0 0 2857.857 1026" id="issue-closed" width="24" height="9" x="393" y="161"><path d="M705 317.03l-96 96L769 577l256-256-96-96-158.75 158.78L705 317.03zM513 833c-176.78 0-320-143.25-320-320 0-176.78 143.22-320 320-320 88.375 0 168.375 35.844 226.25 93.75l90.562-90.5C748.75 115.125 636.75 65 513 65 265.562 65 65 265.562 65 513s200.562 448 448 448 448-200.562 448-448L760.75 713.25c8.938-11-75 119.75-247.75 119.75zm64-576H449v320h128V257zM449 769h128V641H449v128z"/></svg><svg viewBox="0 0 2857.857 1026" id="issue-opened" width="24" height="9" x="3" y="191"><path d="M449 65C201.562 65 1 265.562 1 513s200.562 448 448 448 448-200.562 448-448S696.438 65 449 65zm0 768c-176.78 0-320-143.25-320-320 0-176.78 143.22-320 320-320 176.75 0 320 143.22 320 320 0 176.75-143.25 320-320 320zm-64-64h128V641H385v128zm0-192h128V257H385v320z"/></svg><svg viewBox="0 0 2857.857 1026" id="issue-reopened" width="24" height="9" x="33" y="191"><path d="M640.125 768.25C586.75 808.375 521 833 449 833c-176.78 0-320-143.25-320-320 0-45.562 9.78-88.78 27-128H65v-99.47C25.312 352.44 1 429.595 1 513c0 247.438 200.562 448 448 448 107.375 0 204.5-39.312 281.75-102.25L769 897V705H577l63.125 63.25zM385 769h128V641H385v128zm128-512H385v320h128V257zm384 256c0-247.438-200.562-448-448-448-107.406 0-204.53 39.312-281.656 102.344L129 129v192h192l-63.156-63.156C311.28 217.688 377 193 449 193c176.75 0 320 143.22 320 320 0 45.562-9.75 88.75-27 128h91v99.5c39.688-66.938 64-144 64-227.5z"/></svg><svg viewBox="0 0 2857.857 1026" id="jersey" width="24" height="9" x="63" y="191"><path d="M705 1H513c0 32-33 64-97 64s-95-32-95-64H129c0 128-2 384-128 384 0 0-1 544-1 576s32 64 64 64h704s64-32 64-64V385C706 385 704 129 704 1zM96 961c-16 0-31-10-31-32V449c119-64 128-192 128-384h64c0 96 32 191 160 192s160-96 160-192h64c0 186 32 276 64 339v557H96zm385-576l-32 32v320l32 32h128l32-32V417l-32-32H481zm96 320h-64V449h64v256zM225 385l-32 32v320l32 32h128l32-32V417l-32-32H225zm96 320h-64V449h64v256z"/></svg><svg viewBox="0 0 2857.857 1026" id="jump-down" width="24" height="9" x="93" y="191"><path d="M768.75 193H1.25L385 576.75 768.75 193zM1 705v128h768V705H1z"/></svg><svg viewBox="0 0 2857.857 1026" id="jump-left" width="24" height="9" x="123" y="191"><path d="M257.25 513L641 896.75v-767.5L257.25 513zM1 897h128V129H1v768z"/></svg><svg viewBox="0 0 2857.857 1026" id="jump-right" width="24" height="9" x="153" y="191"><path d="M1 896.75L384.75 513 1 129.188V896.75zM513 129v768h128V129H513z"/></svg><svg viewBox="0 0 2857.857 1026" id="jump-up" width="24" height="9" x="183" y="191"><path d="M1.188 833h767.5L385 449.25 1.188 833zM1 193v128h768V193H1z"/></svg><svg viewBox="0 0 2857.857 1026" id="key" width="24" height="9" x="213" y="191"><path d="M641.9 64.9c-141.4 0-256 114.6-256 256 0 19.6 2.2 38.6 6.4 56.9L1 769v64l64 64h128l64-64v-64h64v-64h64v-64h128l70.8-70.8c18.7 4.3 38.1 6.6 58.1 6.6 141.4 0 256-114.6 256-256S783.2 64.9 641.9 64.9zM385 513L65 833v-64l320-320v64zm320-192c-35.3 0-64-28.7-64-64s28.7-64 64-64 64 28.7 64 64-28.7 64-64 64z"/></svg><svg viewBox="0 0 2857.857 1026" id="keyboard" width="24" height="9" x="243" y="191"><path d="M641 577h64V449h-64v128zm128-320h-64v128h64V257zm-128 0h-64v128h64V257zM513 577h64V449h-64v128zM385 769h320V641H385v128zm384-192h128V257h-64v192h-64v128zM257 769h64V641h-64v128zm512 0h128V641H769v128zM513 257h-64v128h64V257zM193 449h-64v128h64V449zm0 192h-64v128h64V641zM1 129v768h1024V129H1zm960 704H65V193h896v640zM385 577h64V449h-64v128zM257 257H129v128h128V257zm128 0h-64v128h64V257zM257 577h64V449h-64v128z"/></svg><svg viewBox="0 0 2857.857 1026" id="law" width="24" height="9" x="273" y="191"><path d="M515 193c34-1 61-28 62-62 1-37-29-67-66-66-34 1-61 28-62 62-1 37 29 67 66 66zm464 384h-18L834 331c18-2 36-9 52-16 24-11 29-43 11-62l-1-1c-11-11-28-15-43-8-14 6-34 13-53 13-56 0-81-64-287-64s-231 64-287 64c-20 0-39-6-53-13-15-6-32-3-43 8l-1 1c-18 19-13 50 11 62 16 8 34 14 52 16L65 577H47c-8 0-14 7-13 15 11 64 92 113 191 113s180-49 191-113c1-8-5-15-13-15h-18L258 332c83-7 127-49 191-49v486c-35 0-64 29-64 64h-71c-28 0-57 29-57 64h512c0-35-29-64-71-64h-57c0-35-29-64-64-64V283c64 0 108 42 191 49L641 577h-18c-8 0-14 7-13 15 11 64 92 113 191 113s180-49 191-113c1-8-5-15-13-15zm-658 0H129l96-180 96 180zm384 0l96-180 96 180H705z"/></svg><svg viewBox="0 0 2857.857 1026" id="light-bulb" width="24" height="9" x="303" y="191"><path d="M513 65c-176.73 0-320 143.27-320 320 0 104.69 50.278 197.633 128 256.015V833c0 35.346 28.653 64 64 64 0 35.346 28.653 64 64 64h128c35.347 0 64-28.654 64-64 35.347 0 64-28.654 64-64V641.015C782.722 582.633 833 489.69 833 385c0-176.73-143.27-320-320-320zm128 736c0 17.673-14.326 32-32 32H417c-17.674 0-32-14.327-32-32v-32h256v32zm64-246.693c-33.234 33.03-64 42.39-64 124.04V705h-64V577l128-128v-64l-64-64-64 64-64-64-64 64-64-64-64 64v64l128 128v128h-64v-26.652c0-81.652-30.766-91.01-64-124.04-39.823-45.128-64-104.39-64-169.308 0-141.385 114.615-256 256-256s256 114.615 256 256c0 64.918-24.177 124.18-64 169.307zM513 577L385 449v-64l64 64 64-64 64 64 64-64v64L513 577z"/></svg><svg viewBox="0 0 2857.857 1026" id="link" width="24" height="9" x="333" y="191"><path d="M769 257H631c48 32 93 89 107 128h30c65 0 128 64 128 128s-65 128-128 128H576c-63 0-128-64-128-128 0-23 7-45 18-64H329c-5 21-8 42-8 64 0 128 127 256 255 256h193s256-128 256-256-128-256-256-256zM288 641h-30c-65 0-128-64-128-128s65-128 128-128h192c63 0 128 64 128 128 0 23-7 45-18 64h137c5-21 8-42 8-64 0-128-127-256-255-256H257S1 385 1 513s128 256 256 256h138c-48-32-93-89-107-128z"/></svg><svg viewBox="0 0 2857.857 1026" id="link-external" width="24" height="9" x="363" y="191"><path d="M641 769H129V258.906L257 257V129H1v768h768V577H641v192zM385 129l128 128-192 192 128 128 192-192 128 128V129H385z"/></svg><svg viewBox="0 0 2857.857 1026" id="list-ordered" width="24" height="9" x="393" y="191"><path d="M321 577h448V449H321v128zm0 256h448V705H321v128zm0-640v128h448V193H321zM80 449h78V193h-36l-85 23v50l43-2v185zm110 206c0-36-12-78-96-78-33 0-64 6-83 16l1 66c21-10 42-15 67-15s32 11 32 28c0 26-30 58-110 112v50h192v-67l-91 2c49-30 87-66 87-113l1-1z"/></svg><svg viewBox="0 0 2857.857 1026" id="list-unordered" width="24" height="9" x="3" y="221"><path d="M1 577h128V449H1v128zm0-256h128V193H1v128zm0 512h128V705H1v128zm256-256h512V449H257v128zm0-256h512V193H257v128zm0 512h512V705H257v128z"/></svg><svg viewBox="0 0 2857.857 1026" id="location" width="24" height="9" x="33" y="221"><path d="M321 1C144 1 1 144 1 321s160 416 320 704c160-288 320-527 320-704S498 1 321 1zm0 448c-71 0-128-57-128-128s57-128 128-128 128 57 128 128-57 128-128 128z"/></svg><svg viewBox="0 0 2857.857 1026" id="lock" width="24" height="9" x="63" y="221"><path d="M705 449h-64V257S513 1 385 1 129 129 129 257v192H65S1 481 1 513v448s32 64 64 64h640s64-32 64-64V513s-32-64-64-64zM513 577H129v64h384v64H129v64h384v64H129v64h384v64H65V513h448v64zm0-128H257V257s64-128 128-128 128 64 128 128v192z"/></svg><svg viewBox="0 0 2857.857 1026" id="logo-github" width="24" height="9" x="93" y="221"><path d="M553.73 333.135H312.557c-6.205 0-11.25 5.045-11.25 11.297V462.32c0 6.25 5.045 11.27 11.25 11.27h94.11v146.543s-21.146 7.057-79.497 7.057c-68.914 0-165.156-25.244-165.156-236.795 0-211.642 100.197-239.49 194.307-239.49 81.466 0 116.515 14.303 138.87 21.24 7.01 2.203 13.404-4.83 13.404-11.105l26.95-113.91c0-2.912-1.042-6.417-4.263-8.785C522.187 31.952 466.866 1 327.17 1 166.133 1 1 69.487 1 398.757 1 727.98 190.05 777 349.38 777c131.884 0 212.022-56.314 212.022-56.314 3.268-1.8 3.6-6.395 3.6-8.48V344.433c-.047-6.205-5.115-11.297-11.272-11.297zm1219.65-304h-135.694c-6.252 0-11.27 5.043-11.27 11.295v262.393h-211.62V40.43c0-6.252-5.068-11.296-11.178-11.296H1267.78c-6.11 0-11.084 5.044-11.084 11.296v710.473c0 6.3 5.02 11.32 11.084 11.32h135.838c6.203 0 11.178-5.068 11.178-11.32V447.067h211.62l-.476 303.883c0 6.3 5.02 11.272 11.084 11.272h135.885c6.25 0 11.13-5.068 11.13-11.272l.473-710.52c.094-6.252-4.974-11.296-11.132-11.296zM715.95 45.236c-48.358 0-87.575 39.572-87.575 88.403 0 48.855 39.217 88.428 87.574 88.428s87.526-39.572 87.526-88.428c0-48.83-39.17-88.403-87.527-88.403zm77.91 227.89c0-6.206-5.02-11.345-11.13-11.345H647.32c-6.348 0-11.746 6.394-11.746 12.67V744.32c0 13.734 8.572 17.902 19.703 17.902h121.96c13.31 0 16.813-6.536 16.813-18.188-.094-25.197-.094-123.808-.094-142.942-.095-18.187-.095-327.966-.095-327.966zm1505.113-10.28h-134.7c-6.16 0-11.085 5.093-11.085 11.345v348.31s-34.244 25.197-82.934 25.197c-48.547 0-61.525-22.025-61.525-69.72V274.145c0-6.252-5.07-11.345-11.132-11.345h-136.643c-6.252 0-11.178 5.093-11.178 11.345v326.807c0 141.284 78.766 175.906 186.99 175.906 88.854 0 160.61-49.115 160.61-49.115s3.362 25.766 5.067 28.844c1.422 3.078 5.447 6.158 9.852 6.158h86.58c6.158 0 11.178-5.07 11.178-11.32l.38-477.28c-.284-6.206-5.305-11.297-11.46-11.297zm368.96-16.008c-76.54 0-128.593 34.147-128.593 34.147V40.43c0-6.252-5.068-11.296-11.13-11.296h-136.265c-6.11 0-11.13 5.044-11.13 11.296l-.38 710.52c0 6.3 5.068 11.273 11.225 11.273h94.87c4.214 0 7.388-2.18 9.804-5.968 2.37-3.837 5.73-32.775 5.73-32.775s55.557 52.763 161.035 52.763c123.806 0 194.757-62.804 194.757-281.906.002-218.82-113.386-247.498-189.925-247.498zm-53.142 400.385c-46.7-1.42-78.34-22.64-78.34-22.64v-225.07s31.308-19.206 69.673-22.593c48.547-4.31 95.438 10.326 95.438 126.13-.238 122.007-21.36 146.114-86.77 144.173zm-1428.665-2.558c-5.97 0-21.22 2.368-36.85 2.368-49.92 0-66.97-23.256-66.97-53.33v-199.85h101.925c6.252 0 11.178-5.045 11.178-11.344V273.03c.094-6.298-4.926-11.343-11.178-11.343h-101.926l-.143-134.535c0-5.092-2.698-7.625-8.57-7.625H934.86c-5.35 0-8.335 2.39-8.335 7.578V266.14s-69.576 16.79-74.266 18.188c-4.642 1.326-8.052 5.684-8.052 10.822v87.408c0 6.252 5.068 11.344 11.178 11.344h71.14v210.222c0 156.11 109.552 171.455 183.438 171.455 33.723 0 74.076-10.99 80.848-13.357 4.074-1.42 6.395-5.637 6.395-10.136l.047-96.1c0-6.3-5.256-11.415-11.13-11.32z"/></svg><svg viewBox="0 0 2857.857 1026" id="mail" width="24" height="9" x="123" y="221"><path d="M1 193v640h896V193H1zm768 64L449 521 129 257h640zM65 321l252.03 191.625L65 705V321zm64 448l254-206.25L449 613l65.875-50.125L769 769H129zm704-64L580.625 512.938 833 321v384z"/></svg><svg viewBox="0 0 2857.857 1026" id="mail-read" width="24" height="9" x="153" y="221"><path d="M577 385H257v64h320v-64zM385 257H257v64h128v-64zm384-27.47V129H628.188L449 1 269.812 129H129v100.53L1 321v640h896V321l-128-91.47zM193 193h512v244.812L449 649 193 437.812V193zM65 449l252.03 191.625L65 833V449zm64 448l254-206.25L449 741l65.875-50.125L769 897H129zm704-64L580.625 640.938 833 449v384z"/></svg><svg viewBox="0 0 2857.857 1026" id="mail-reply" width="24" height="9" x="183" y="221"><path d="M385 161L1 449l384 288V545c111 0 329 61 384 280 0-291-196-451-384-472V161z"/></svg><svg viewBox="0 0 2857.857 1026" id="mark-github" width="24" height="9" x="213" y="221"><path d="M513 1C230.252 1 1 230.252 1 513c0 226.25 146.688 418.126 350.155 485.813 25.593 4.686 34.937-11.125 34.937-24.626 0-12.188-.47-52.562-.718-95.314-128.708 23.46-161.707-31.54-172.47-60.373-5.524-14.81-30.406-60.25-52.397-72.263-17.988-9.828-43.26-33.237-.917-33.735 40.434-.476 69.348 37.308 78.47 52.75 45.94 77.75 119.877 55.627 149 42.5 4.654-33 17.902-55.627 32.5-68.373-113.656-12.94-233.22-56.876-233.22-253.064 0-55.94 19.97-101.56 52.66-137.404-5.22-13-22.845-65.095 5.062-135.563 0 0 42.937-13.75 140.81 52.5 40.812-11.406 84.595-17.03 128.125-17.22 43.5.188 87.314 5.874 128.188 17.28 97.69-66.31 140.686-52.5 140.686-52.5 28 70.53 10.376 122.563 5.125 135.498 32.81 35.844 52.626 81.468 52.626 137.404 0 196.686-119.75 240-233.812 252.686 18.44 15.876 34.748 47 34.748 94.748 0 68.437-.686 123.627-.686 140.5 0 13.626 9.312 29.562 35.25 24.563C878.436 930.997 1025 739.125 1025 513 1025 230.252 795.748 1 513 1z"/></svg><svg viewBox="0 0 2857.857 1026" id="markdown" width="24" height="9" x="243" y="221"><path d="M951.154 193H74.846C34.126 193 1 226.127 1 266.846v492.308C1 799.874 34.127 833 74.846 833h876.308c40.72 0 73.846-33.125 73.846-73.846V266.846c0-40.72-33.125-73.846-73.846-73.846zM577 704.875L449 705V513l-96 123.077L257 513v192H129V321h128l96 128 96-128 128-.125v384zm191.09 32L609 513h96V321h128v192h96L768.09 736.875z"/></svg><svg viewBox="0 0 2857.857 1026" id="megaphone" width="24" height="9" x="273" y="221"><path d="M833 33c-130 0-124 130-704 128C58.344 161 1 275.625 1 417s57.344 256 128 256c22.78 0 43.188.5 64.188.875L257 961l192 32 64-96-45.125-203.125C710.375 730.125 734.75 801 833 801c106 0 192-172 192-384 0-212.03-86-384-192-384zM198 483.938c-39.188-1.47-82.188-2.25-127.562-2.625C67 461.593 65 439.906 65 417c0-88.375 28.688-192 64-192 39.03.125 75-.438 109-1.406-27.344 46.968-45 115.718-45 193.406 0 23.312 2.062 45.438 5 66.938zm64.312 3C259.125 464.688 257 441.375 257 417c0-79.5 18.438-149.5 46.906-196.22 155.156-8.31 251.906-28.468 319.03-50.187C594.627 237.47 577 322.656 577 417c0 40 3.875 78 9.5 114.312-72.156-18.687-172.688-35.718-324.188-44.374zM833 705c-12.125 0-23.688-5.062-34.812-12.125-15.25-67.312-83.438-418.344 117.438-494.188C943.126 251.5 961 329.187 961 417c0 159-57.375 288-128 288z"/></svg><svg viewBox="0 0 2857.857 1026" id="mention" width="24" height="9" x="303" y="221"><path d="M467.697 100.1C239.66 72.103 32.1 234.266 4.102 462.303c-28 228.038 134.163 435.598 362.2 463.597 71.43 8.755 145.115-.914 213.325-29.947l-.016-.032c24.405-10.356 35.79-38.537 25.432-62.938-10.36-24.403-38.538-35.787-62.94-25.43v-.004c-52.473 22.34-109.15 29.8-164.1 23.067-175.414-21.538-300.154-181.2-278.617-356.613 21.538-175.413 181.2-300.154 356.613-278.616 175.412 21.538 300.154 181.2 278.617 356.612-4.31 35.083-21.542 55.725-61.6 55.725-42.5 0-64-45.89-64-81.222V401c0-26.51-21.49-48-48-48-9.7 0-18.72 2.887-26.27 7.833-25.683-20.26-57.436-33.87-94.348-38.402C335.15 309.51 239.352 384.356 226.43 489.6 213.508 594.85 288.354 690.647 393.6 703.57c57.38 7.045 116.216-14.707 157.87-53.13 24.96 28.124 59.867 47.624 100.122 52.567 87.707 10.77 167.537-51.602 178.307-139.31 27.998-228.035-134.166-435.594-362.203-463.594zm44.588 424.6c-6.462 52.622-54.36 90.046-106.985 83.584-52.623-6.46-90.046-54.36-83.585-106.984 6.46-52.623 54.36-90.046 106.984-83.585 52.622 6.462 90.046 54.36 83.585 106.984z"/></svg><svg viewBox="0 0 2857.857 1026" id="microscope" width="24" height="9" x="333" y="221"><path d="M618 897c86.312-18.75 151-100 151-192 0-58.438-26.625-110.125-67.875-145.375C703.5 544.375 705 528.875 705 513c0-104.844-49.875-197.875-128-256l64-64v-64l64-64-64-64-64 64h-64L257 321l-128 64v128l64 64h128l64-128 96-96c55.5 33.406 96 90.438 96 160-106.062 0-192 85.938-192 192H1v64h192c19.125 14.25 42.062 22.125 64 32v96H129L1 1025h768L641 897h-23zM513 705c0-35.375 28.625-64 64-64s64 28.625 64 64c0 35.312-28.625 64-64 64s-64-28.688-64-64z"/></svg><svg viewBox="0 0 2857.857 1026" id="milestone" width="24" height="9" x="363" y="221"><path d="M705 193H1v256h704l128-128-128-128zM449 385H321V257h128v128zm0-384H321v128h128V1zM321 1025h128V513H321v512z"/></svg><svg viewBox="0 0 2857.857 1026" id="mirror" width="24" height="9" x="393" y="221"><path d="M321 321L129 513l192 192V577h384v128l192-192-192-192v128H321V321zM513 1L1 321v704l512-256 512 256V321L513 1zm448 896L577 705v-64H449v64L65 897V385l384-256v256h128V129l384 256v512z"/></svg><svg viewBox="0 0 2857.857 1026" id="mortar-board" width="24" height="9" x="3" y="251"><path d="M502 589l-245-76v160s115 96 256 96 256-32 256-96V513l-245 76c-7 2-15 2-23 0h1zm18-409c-4-1-9-1-13 0L18 332c-21 7-21 36 0 43l111 35v113c-19 11-32 32-32 55 0 12 3 23 9 32-5 9-9 20-9 32v165c0 35 128 35 128 0V642c0-12-3-23-9-32 5-9 9-20 9-32 0-24-13-44-32-55v-93l313 98c4 1 9 1 13 0l489-152c21-7 21-36 0-43L520 180zm-6 205c-35 0-64-14-64-32s29-32 64-32 64 14 64 32-29 32-64 32z"/></svg><svg viewBox="0 0 2857.857 1026" id="move-down" width="24" height="9" x="33" y="251"><path d="M641 321H449V1H193v320H1l320 384 320-384zM1 1025h640V833H1v192z"/></svg><svg viewBox="0 0 2857.857 1026" id="move-left" width="24" height="9" x="63" y="251"><path d="M1 833h192V193H1v640zm704-448V193L321 513l384 320V641h320V385H705z"/></svg><svg viewBox="0 0 2857.857 1026" id="move-right" width="24" height="9" x="93" y="251"><path d="M833 193v640h192V193H833zM321 385H1v256h320v192l384-320-384-320v192z"/></svg><svg viewBox="0 0 2857.857 1026" id="move-up" width="24" height="9" x="123" y="251"><path d="M1 705h192v320h256V705h192L321 321 1 705zM1 1v192h640V1H1z"/></svg><svg viewBox="0 0 2857.857 1026" id="mute" width="24" height="9" x="153" y="251"><path d="M129 385H1v256h128l256 192h64V193h-64L129 385zm736 32l-64-64-96 96-96-96-63 63.5 95 96.5-96 96 64 64 96-96 96 96 64-64-96-96 96-96z"/></svg><svg viewBox="0 0 2857.857 1026" id="no-newline" width="24" height="9" x="183" y="251"><path d="M897 321v128H769V321L577 513l192 192V577h192s64-.375 64-64V321H897zm-672-32C101.28 289 1 389.28 1 513c0 123.75 100.28 224 224 224s224-100.25 224-224c0-123.72-100.28-224-224-224zM97 513c0-70.656 57.344-128 128-128 18.75 0 36.406 4.22 52.47 11.53L108.53 565.5C101.22 549.375 97 531.75 97 513zm128 128c-18.75 0-36.406-4.25-52.47-11.5l168.94-168.97C348.78 476.595 353 494.25 353 513c0 70.625-57.344 128-128 128z"/></svg><svg viewBox="0 0 2857.857 1026" id="octoface" width="24" height="9" x="213" y="251"><path d="M941.812 278.688c8.25-20.22 35.375-101.75-8.562-211.906 0 0-67.375-21.312-219.875 82.906C649.5 132.125 580.875 129.5 513 129.5c-67.906 0-136.438 2.625-200.5 20.25C160.03 45.47 92.72 66.78 92.72 66.78 48.81 177 75.937 258.47 84.187 278.69 32.5 334.562 1 405.875 1 493.344 1 822.562 214.25 897 511.844 897 809.562 897 1025 822.562 1025 493.344c0-87.47-31.5-158.782-83.188-214.656zM513 834c-211.406 0-382.78-9.875-382.78-214.688 0-48.938 24.06-94.595 65.343-132.312 68.75-62.97 185.28-29.688 317.438-29.688 132.25 0 248.626-33.28 317.44 29.625 41.31 37.78 65.437 83.312 65.437 132.312C895.875 824.124 724.375 834 513 834zM352.156 513.438c-42.47 0-76.906 51.062-76.906 114.188s34.438 114.312 76.906 114.312c42.375 0 76.812-51.188 76.812-114.312s-34.437-114.188-76.812-114.188zm321.72 0C631.5 513.438 597 564.5 597 627.625s34.5 114.312 76.875 114.312 76.812-51.188 76.812-114.312c.063-63.125-34.375-114.187-76.812-114.187z"/></svg><svg viewBox="0 0 2857.857 1026" id="organization" width="24" height="9" x="243" y="251"><path d="M769 385H129C58.344 385 1 442.344 1 513v64c0 47.25 25.844 88.062 64 110.25V897h256v128h256V897h256V687.25c38.125-22.188 64-62.938 64-110.25v-64c0-70.656-57.375-128-128-128zM257 833H129V577H65v-64c0-35.312 28.688-64 64-64h81.72c-11 18.875-17.72 40.562-17.72 64v128c0 47.25 25.844 88.062 64 110.25V833zm320-128V577h-64v384H385V577h-64v128c-35.312 0-64-28.625-64-64V513c0-35.312 28.688-64 64-64h256c35.375 0 64 28.688 64 64v128c0 35.375-28.625 64-64 64zm256-128h-64v256H641v-81.75c38.125-22.188 64-62.938 64-110.25V513c0-23.438-6.75-45.125-17.75-64H769c35.375 0 64 28.688 64 64v64zM304.688 318.375C339.875 358.875 391.156 385 449 385c57.875 0 109.125-26.125 144.312-66.625C615.125 357.938 656.688 385 705 385c70.625 0 128-57.344 128-128s-57.375-128-128-128c-25.625 0-49.375 7.688-69.375 20.688C615.875 64.562 540.062 1 449 1S282.094 64.562 262.375 149.688C242.345 136.688 218.595 129 193 129c-70.656 0-128 57.344-128 128s57.344 128 128 128c48.312 0 89.844-27.062 111.688-66.625zM705 193c35.375 0 64 28.594 64 64s-28.625 64-64 64c-35.312 0-64-28.594-64-64s28.688-64 64-64zM449 65c70.625 0 128 57.344 128 128s-57.375 128-128 128c-70.656 0-128-57.344-128-128S378.344 65 449 65zM193 321c-35.312 0-64-28.594-64-64s28.688-64 64-64c35.406 0 64 28.594 64 64s-28.594 64-64 64z"/></svg><svg viewBox="0 0 2857.857 1026" id="package" width="24" height="9" x="273" y="251"><path d="M481 65L1 193v576l480 128 480-128V193L481 65zM64.875 721.934L64.5 289l384.498 102.533v432.833L64.876 721.934zM64.5 225l160.254-42.734 416.246 111v.134l-160 42.667L64.5 225zm832.625 496.934L513 824.366l.002-432.833L641 357.4v156l128-34.135V323.267L897.5 289l-.375 432.934zM769 259.267v-.125L352.734 148.138 481 113.934 897.5 225 769 259.267z"/></svg><svg viewBox="0 0 2857.857 1026" id="paintcan" width="24" height="9" x="303" y="251"><path d="M385 1C172.923 1 1 172.923 1 385v64c0 35.346 28.654 64 64 64v320c0 70.692 143.27 128 320 128s320-57.308 320-128V513c35.346 0 64-28.654 64-64v-64C769 172.923 597.077 1 385 1zm192 640v32c0 17.673-14.327 32-32 32s-32-14.327-32-32v-32c0-17.673-14.327-32-32-32s-32 14.327-32 32v160c0 17.673-14.327 32-32 32s-32-14.327-32-32V673c0-17.673-14.327-32-32-32s-32 14.327-32 32v32c0 35.346-28.654 64-64 64s-64-28.654-64-64v-64c-35.346 0-64-28.654-64-64V461.807C187.382 492.892 280.318 513 385 513s197.618-20.108 256-51.193V577c0 35.346-28.654 64-64 64zM385 449c-107.433 0-199.393-26.474-237.372-64 37.98-37.526 129.94-64 237.372-64s199.393 26.474 237.372 64c-37.98 37.526-129.94 64-237.372 64zm0-192c-176.62 0-319.816 57.236-319.996 127.867 0 0-.002 0-.003-.002C65.076 208.195 208.315 65 385 65c176.73 0 320 143.27 320 320 0-70.692-143.27-128-320-128z"/></svg><svg viewBox="0 0 2857.857 1026" id="pencil" width="24" height="9" x="333" y="251"><path d="M705 65L577 193l192 192 128-128L705 65zM1 769l.688 192.562L193 961l512-512-192-192L1 769zm192 128H65V769h64v64h64v64z"/></svg><svg viewBox="0 0 2857.857 1026" id="person" width="24" height="9" x="363" y="251"><path d="M449 193C449 87 363.062 1 257 1S65 87 65 193c0 106.062 85.938 192 192 192s192-85.938 192-192zM257 321c-70.656 0-128-57.344-128-128S186.344 65 257 65c70.625 0 128 57.344 128 128s-57.375 128-128 128zm128 64H129C58.344 385 1 442.344 1 513v128c0 70.625 57.344 128 128 128v256h256V769c70.625 0 128-57.375 128-128V513c0-70.656-57.375-128-128-128zm64 256c0 35.375-28.625 64-64 64V577h-64v384H193V577h-64v128c-35.312 0-64-28.625-64-64V513c0-35.312 28.688-64 64-64h256c35.375 0 64 28.688 64 64v128z"/></svg><svg viewBox="0 0 2857.857 1026" id="pin" width="24" height="9" x="393" y="251"><path d="M197 705l64 320 64-320c-20 2-43 3-64 3s-44-1-64-3zm254-299c-33-17-62-59-62-85v-64c0-22 12-39 23-52 15-13 24-29 24-45 0-53-61-95-175-95S86 107 86 160c0 16 9 32 24 45 11 13 23 30 23 52v64c0 26-29 68-62 85-38 19-70 54-70 88 0 74 101 148 260 148s260-73 260-148c0-33-31-68-70-88z"/></svg><svg viewBox="0 0 2857.857 1026" id="playback-fast-forward" width="24" height="9" x="3" y="281"><path d="M1 769l384-256L1 257v512zm768-256L385 257v512l384-256z"/></svg><svg viewBox="0 0 2857.857 1026" id="playback-pause" width="24" height="9" x="33" y="281"><path d="M1 833h192V193H1v640zm320-640v640h192V193H321z"/></svg><svg viewBox="0 0 2857.857 1026" id="playback-play" width="24" height="9" x="63" y="281"><path d="M1 193l512 320L1 833V193z"/></svg><svg viewBox="0 0 2857.857 1026" id="playback-rewind" width="24" height="9" x="93" y="281"><path d="M385 513l384 256V257L385 513zM1 513l384 256V257L1 513z"/></svg><svg viewBox="0 0 2857.857 1026" id="plug" width="24" height="9" x="123" y="281"><path d="M1004.386 205.664l-.905-.905c-24.743-24.745-64.86-24.745-89.604 0l-45.707 45.706-90.51-90.51 45.706-45.707c24.744-24.745 24.744-64.862 0-89.606l-.905-.905c-24.743-24.745-64.86-24.745-89.604 0L684.883 71.71C622.76 30.554 538.237 37.34 483.503 92.074l-24.89 24.89c-109.012 109.01-121.95 277.692-38.855 400.892l-4.138 4.138c-62.392 62.392-62.484 163.493-.275 226 12.41 12.468 12.642 33.326.12 45.682-12.508 12.343-32.654 12.292-45.1-.153l-89.427-89.427c-62.637-62.638-164.63-63.747-227.3-1.14-62.54 62.478-62.56 163.828-.057 226.33l8.764 8.764c24.744 24.744 64.86 24.744 89.605 0l.904-.905c24.744-24.744 24.744-64.86 0-89.605l-8.292-8.292c-12.33-12.33-13.085-32.418-1.098-45.08 12.437-13.14 33.174-13.354 45.882-.646l89.328 89.328c62.92 62.92 165.504 63.814 228.08.553 61.794-62.468 61.65-163.16-.43-225.45-12.55-12.593-12.777-32.867-.207-45.438l4.15-4.15c123.2 83.094 291.882 70.157 400.893-38.855l24.89-24.89c54.734-54.735 61.52-139.258 20.362-201.382l47.973-47.973c24.744-24.74 24.744-64.858 0-89.6zm-113.59 293.704c-37.49 37.49-98.274 37.49-135.765 0L528.758 273.094c-37.49-37.49-37.49-98.274 0-135.765 29.556-29.557 73.585-35.805 109.27-18.76l-41.84 41.84c-24.744 24.743-24.744 64.86 0 89.603l.905.905c24.744 24.744 64.86 24.744 89.605 0l45.707-45.707 90.51 90.51-45.707 45.708c-24.744 24.744-24.744 64.86 0 89.605l.905.905c24.744 24.744 64.86 24.744 89.604 0l41.84-41.84c17.044 35.684 10.795 79.714-18.76 109.27z"/></svg><svg viewBox="0 0 2857.857 1026" id="plus" width="24" height="9" x="153" y="281"><path d="M385 449V193H257v256H1v128h256v256h128V577h256V449H385z"/></svg><svg viewBox="0 0 2857.857 1026" id="podium" width="24" height="9" x="183" y="281"><path d="M321 1c-32 0-64 32-64 64v64h-64L1 321v128h192l64 384-128 64v64h512v-64l-128-64 64-384h192V321L577 129H321V65h32s32-17 32-32-16-32-32-32h-32zm0 832l-53-320h118l-1 320h-64zM97 321l128-128h32v64h64v-64h224l128 128H97z"/></svg><svg viewBox="0 0 2857.857 1026" id="primitive-dot" width="24" height="9" x="213" y="281"><path d="M.912 513c0-141.5 114.5-256 256-256 141.438 0 256 114.5 256 256s-114.562 256-256 256c-141.5 0-256-114.5-256-256z"/></svg><svg viewBox="0 0 2857.857 1026" id="primitive-square" width="24" height="9" x="243" y="281"><path d="M513 769H1V257h512v512z"/></svg><svg viewBox="0 0 2857.857 1026" id="pulse" width="24" height="9" x="273" y="281"><path d="M737 512.938L564.188 346.594 423.406 545 353 103.406 153.438 512.938H1V641h230.406L289 525.812l57.594 345.562L577 545l102.375 96H897V512.938H737z"/></svg><svg viewBox="0 0 2857.857 1026" id="puzzle" width="24" height="9" x="303" y="281"><path d="M756.75 576.15c-13.95-9.96-28.52-16.59-43.47-19.92-8.84-1.69-18.06-2.33-27.57-1.81-8.99.5-17.56 1.68-25.69 3.52-6.1 1.69-12.22 3.89-18.35 6.59-18.18 8.02-33.89 18.12-46.79 30.33-12.22 12.9-22.32 28.62-30.34 46.79-2.7 6.12-4.9 12.24-6.59 18.34-1.84 8.14-3.03 16.7-3.52 25.69-.52 9.51.12 18.73 1.81 27.57 3.33 14.95 9.96 29.52 19.92 43.47 3.89 5.44 8.08 10.4 12.56 14.88 20.06 20.03 45.83 30.7 75.42 34.11 8.92 1.02 18.12 1.68 26.53 4.48 5.12 1.7 9.16 4.08 12.08 7.02 6.65 6.6 7.63 16.1 2.5 27.24-3.15 6.84-7.7 13.45-12.96 18.84l-2.79 2.86c-3.93 3.92-6.41 6.4-7.05 7.04-3.13 3.16-6.1 6.15-9.06 9.15l-2.96 2.92c-10.52 10.58-21.09 21.12-31.66 31.65-22.76 22.82-45.57 45.58-68.38 68.36-7.5 7.5-15 15-22.5 22.49-3.46 3.45-7.07 6.38-10.78 8.79-1.8 1.22-3.49 2.24-5.18 3.16-19.6 9.89-41.43 5.92-59.24-11.88-5.4-5.4-10.62-10.62-15.85-15.84-30.25-30.25-60.48-60.52-90.77-90.73-8.59-8.57-17.13-17.08-25.68-25.59-6.12-6.09-12.67-11.85-19.56-17.06-5.72-4.33-11.59-7.56-17.46-9.73-21.16-7.32-41.41-2.01-54.67 13.26-3.81 4.8-7 10.47-9.39 16.94-3.43 9.26-4.6 19.47-5.9 29.36-4.9 37.53-25.8 68.43-55.98 82.65-7.48 3.65-15.49 6.29-23.9 7.78-7.95 1.41-15.95 1.71-23.85 1.04-26.61-1.35-49.48-13.09-68.51-32.57-1.68-1.67-2.1-2.09-2.51-2.51-19.48-19.02-31.22-41.9-32.57-68.5-.68-7.9-.37-15.9 1.04-23.85 1.49-8.41 4.13-16.43 7.78-23.9 14.22-30.18 45.13-51.07 82.65-55.97 9.89-1.29 20.1-2.47 29.36-5.9 6.94-2.56 12.96-6.05 17.97-10.23 14.54-13.15 19.59-32.63 12.84-52.34-2.78-7.35-6-13.22-10.33-18.94-5.21-6.88-10.97-13.43-17.06-19.55-8.51-8.55-17.03-17.09-25.55-25.63-26.92-26.98-53.84-53.88-80.75-80.78l-10.03-10.03c-5.22-5.22-10.45-10.45-15.26-15.27C.36 535.54-3.6 513.72 6.29 494.12c.92-1.69 1.94-3.37 3.08-5.05 2.49-3.84 5.42-7.45 8.87-10.91 7.49-7.5 14.99-15 22.49-22.5 22.77-22.81 45.54-45.62 68.36-68.38 10.53-10.57 21.06-21.14 31.65-31.66l2.92-2.96c2.99-2.97 5.99-5.93 8.98-8.9.8-.81 3.28-3.29 7.2-7.22l2.86-2.79c5.39-5.26 12-9.8 18.84-12.96 11.14-5.13 20.63-4.15 27.24 2.5 2.94 2.92 5.32 6.96 7.02 12.08 2.79 8.41 3.45 17.61 4.48 26.53 3.41 29.59 14.08 55.35 34.11 75.41 4.49 4.48 9.44 8.67 14.88 12.56 13.95 9.96 28.52 16.59 43.47 19.92 8.84 1.69 18.06 2.33 27.57 1.81 8.99-.5 17.56-1.68 25.69-3.52 6.1-1.69 12.22-3.89 18.35-6.59 18.18-8.02 33.89-18.12 46.79-30.33 12.22-12.9 22.32-28.62 30.34-46.79 2.7-6.12 4.9-12.24 6.59-18.34 1.84-8.14 3.03-16.7 3.52-25.69.52-9.51-.12-18.73-1.81-27.57-3.33-14.95-9.96-29.52-19.92-43.47-3.89-5.44-8.08-10.4-12.56-14.88-20.06-20.03-45.83-30.7-75.42-34.11-8.92-1.02-18.12-1.68-26.53-4.48-5.12-1.7-9.16-4.08-12.08-7.02-6.65-6.6-7.63-16.1-2.5-27.24 3.15-6.84 7.7-13.45 12.96-18.84l2.79-2.86c3.93-3.92 6.41-6.4 7.05-7.04 3.13-3.16 6.1-6.15 9.06-9.15l2.96-2.92c10.52-10.58 21.09-21.12 31.66-31.65 22.76-22.82 45.57-45.58 68.38-68.35 7.5-7.5 15-15 22.5-22.49 3.46-3.45 7.07-6.38 10.78-8.79 1.8-1.22 3.49-2.24 5.18-3.16 19.6-9.89 41.43-5.92 59.24 11.88 5.4 5.4 10.62 10.62 15.85 15.84 30.25 30.25 60.48 60.52 90.77 90.73 8.59 8.57 17.13 17.08 25.68 25.59 6.12 6.09 12.67 11.85 19.56 17.06 5.72 4.33 11.59 7.56 17.46 9.73 21.16 7.32 41.41 2.01 54.67-13.26 3.81-4.8 7-10.47 9.39-16.94 3.43-9.26 4.6-19.47 5.9-29.36 4.9-37.53 25.8-68.43 55.98-82.65 7.48-3.65 15.49-6.28 23.9-7.78 7.95-1.41 15.95-1.71 23.85-1.04 26.61 1.35 49.48 13.09 68.51 32.57 1.68 1.67 2.1 2.09 2.51 2.51 19.48 19.02 31.22 41.9 32.57 68.5.68 7.9.37 15.9-1.04 23.85-1.49 8.41-4.13 16.43-7.78 23.9-14.22 30.18-45.13 51.07-82.65 55.97-9.89 1.29-20.1 2.47-29.36 5.9-6.94 2.56-12.96 6.05-17.97 10.23-14.54 13.15-19.59 32.63-12.84 52.34 2.78 7.35 6 13.22 10.33 18.94 5.21 6.88 10.97 13.43 17.06 19.55 8.51 8.55 17.03 17.09 25.55 25.63 30.26 30.33 60.54 60.56 90.78 90.81 5.22 5.22 10.45 10.45 15.26 15.27 18.39 18.4 22.35 40.22 12.46 59.82-.92 1.69-1.94 3.37-3.08 5.05-2.49 3.84-5.42 7.45-8.87 10.91-7.49 7.5-14.99 15-22.49 22.5-22.77 22.81-45.54 45.62-68.36 68.38-10.53 10.57-21.06 21.14-31.65 31.66l-2.92 2.96c-2.99 2.97-5.99 5.93-8.98 8.9-.8.81-3.28 3.29-7.2 7.22l-2.86 2.79c-5.39 5.26-12 9.8-18.84 12.96-11.14 5.13-20.63 4.15-27.24-2.5-2.94-2.92-5.32-6.96-7.02-12.08-2.79-8.41-3.45-17.61-4.48-26.53-3.41-29.59-14.08-55.35-34.11-75.41-4.48-4.49-9.44-8.69-14.88-12.57z"/></svg><svg viewBox="0 0 2857.857 1026" id="question" width="24" height="9" x="333" y="281"><path d="M449 769h128V641H449v128zm64-512c-96 0-192 96-192 192h128c0-32 32-64 64-64s64 32 64 64c0 64-128 64-128 128h128c64-22 128-64 128-160s-96-160-192-160zm0-256C230 1 1 230 1 513s229 512 512 512 512-229 512-512S796 1 513 1zm0 896c-212 0-384-172-384-384s172-384 384-384 384 172 384 384-172 384-384 384z"/></svg><svg viewBox="0 0 2857.857 1026" id="quote" width="24" height="9" x="363" y="281"><path d="M1 513v256h256V513H129s0-128 128-128V257S1 257 1 513zm640-128V257s-256 0-256 256v256h256V513H513s0-128 128-128z"/></svg><svg viewBox="0 0 2857.857 1026" id="radio-tower" width="24" height="9" x="393" y="281"><path d="M307.838 391.74c15.868-16.307 15.868-42.732 0-59.038-20.52-21.116-30.643-48.417-30.705-76.124.062-27.77 10.183-55.04 30.705-76.186 15.868-16.337 15.868-42.764 0-59.07-7.934-8.183-18.272-12.274-28.706-12.274-10.37 0-20.804 4.03-28.738 12.213-36.266 37.298-54.633 86.434-54.57 135.318-.062 48.792 18.305 97.927 54.57 135.16 15.868 16.307 41.576 16.307 57.444 0zM150.093 34.14c-8.12-8.31-18.68-12.463-29.3-12.463-10.558 0-21.18 4.153-29.237 12.462C31.8 95.492 1.75 176.144 1.813 256.578c-.062 80.34 29.987 161.15 89.68 222.437 16.182 16.618 42.357 16.618 58.538 0 16.12-16.587 16.12-43.513 0-60.067-43.7-44.98-65.44-103.456-65.44-162.368s21.74-117.45 65.44-162.368c16.12-16.65 16.12-43.577.063-60.07zM514.03 360.847c57.352 0 103.957-46.574 103.957-103.956 0-57.38-46.605-103.954-103.956-103.954-57.38 0-103.955 46.573-103.955 103.955 0 57.383 46.575 103.957 103.956 103.957zm420.51-326.08c-16.182-16.618-42.356-16.618-58.476 0-16.18 16.587-16.18 43.513 0 60.068 43.668 44.918 65.41 103.456 65.41 162.368 0 58.85-21.806 117.387-65.474 162.306-16.117 16.617-16.117 43.574.062 60.067 8.06 8.31 18.616 12.463 29.237 12.463 10.557 0 21.177-4.154 29.235-12.463 59.726-61.287 89.774-142.096 89.65-222.437.128-80.278-29.92-161.087-89.646-222.373zM514.28 443.873c-26.488.062-53.04-6.466-77.09-19.43L236.057 960.59h95.21l54.818-63.973h255.89l53.978 63.973h95.272l-201.1-536.02c-23.74 12.775-49.73 19.303-75.844 19.303zm-.624 30.644L578.004 704.7H450.06l63.596-230.183zm-127.57 358.128l63.974-63.973h127.944l63.974 63.973H386.086zm332.108-710.603c-15.868 16.306-15.868 42.73 0 59.037 20.49 21.115 30.61 48.51 30.674 76.123-.062 27.77-10.183 55.102-30.674 76.187-15.868 16.336-15.868 42.763 0 59.068 7.87 8.184 18.242 12.213 28.737 12.213 10.31 0 20.742-4.028 28.676-12.212 36.298-37.234 54.665-86.433 54.54-135.255.125-48.792-18.18-97.927-54.54-135.16-15.805-16.307-41.544-16.307-57.412 0z"/></svg><svg viewBox="0 0 2857.857 1026" id="repo" width="24" height="9" x="3" y="311"><path d="M321 257h-64v64h64v-64zm0-128h-64v64h64v-64zM705 1H65S1 33 1 65v768s32 64 64 64h128v128l96-96 96 96V897h320s64-32 64-64V65S737 1 705 1zm0 800c0 16-15 32-32 32H385v-64H193v64H97s-32-17-32-32v-96h640v96zm0-160H193V65h513l-1 576zM321 513h-64v64h64v-64zm0-128h-64v64h64v-64z"/></svg><svg viewBox="0 0 2857.857 1026" id="repo-clone" width="24" height="9" x="33" y="311"><path d="M321 385h-64v64h64v-64zM193 65h256V1H65S1 33 1 65v768s32 64 64 64h128v128l96-96 96 96V897h320s64-32 64-64V641H193V65zm512 640v96s-14 32-32 32H385v-64H193v64H97s-32-16-32-32v-96h640zM321 257h-64v64h64v-64zm-64 320h64v-64h-64v64zM961 1H641s-64 32-64 64v384s32 64 64 64h64v64l32-32 32 32v-64h192s64-32 64-64V65S993 1 961 1zM705 449h-32s-32-15-32-32v-32h64v64zm256-32c0 16-15 32-32 32H769v-64h192v32zm0-96H705V65h224s32 0 32 32v224zM321 129h-64v64h64v-64z"/></svg><svg viewBox="0 0 2857.857 1026" id="repo-force-push" width="24" height="9" x="63" y="311"><path d="M769 65c0-32-32-64-64-64H65S1 33 1 65v768s0-32 0 0 32 64 64 64h128v128l128-128V769H193v64H97s-32-15-32-32v-96h256v-64H193V65h512v576H577v64h128v96s-15 32-32 32h-96v64h128s64-32 64-64V65zM497 385h144L449 129 257 385h144L257 577h128v448h128V577h128L497 385z"/></svg><svg viewBox="0 0 2857.857 1026" id="repo-forked" width="24" height="9" x="93" y="311"><path d="M769 129C769 58 712 1 641 1S513 58 513 129c0 47 26 89 64 111v106L385 558 193 346V240c38-22 64-63 64-111C257 58 200 1 129 1S1 58 1 129c0 47 26 89 64 111v156l256 282v109c-38 22-64 63-64 111 0 71 57 128 128 128s128-57 128-128c0-47-26-89-64-111V678l256-282V240c38-22 64-63 64-111zM129 66c34 0 62 28 62 62s-28 62-62 62-62-28-62-62 28-62 62-62zm256 891c-34 0-62-28-62-62s28-62 62-62 62 28 62 62-28 62-62 62zM641 66c34 0 62 28 62 62s-28 62-62 62-62-28-62-62 28-62 62-62z"/></svg><svg viewBox="0 0 2857.857 1026" id="repo-pull" width="24" height="9" x="123" y="311"><path d="M1025 321L833 129v128H449v128h384v128l192-192zM705 641H193V65h512v128h64V65S737 1 705 1H65S1 33 1 65v768s32 64 64 64h128v128l96-96 96 96V897h320s64-32 64-64V449h-64v192zm0 160c0 15-15 32-32 32H385v-64H193v64H97s-32-16-32-32v-96h640v96zM321 257h-64v64h64v-64zm0-128h-64v64h64v-64zm0 256h-64v64h64v-64zm-64 192h64v-64h-64v64z"/></svg><svg viewBox="0 0 2857.857 1026" id="repo-push" width="24" height="9" x="153" y="311"><path d="M449 321L257 577h128v448h128V577h128L449 321zm-192 0h64v-64h-64v64zm64-192h-64v64h64v-64zM705 1H65S1 33 1 65v768s32 64 64 64h128v128l128-128V769H193v64H97s-32-14-32-32v-96h256v-64H193V65h513l-1 576H577v64h128v96s-15 32-32 32h-96v64h128s64-32 64-64V65S737 1 705 1z"/></svg><svg viewBox="0 0 2857.857 1026" id="rocket" width="24" height="9" x="183" y="311"><path d="M717.737 125.056c-71.926 41.686-148.04 96.13-218.436 166.555-45 45.032-81.212 88.78-110.39 129.78L210.54 454.35 1.048 663.997l186.817 5.815L319.427 538.25c-46.44 96.224-50.536 160.02-50.536 160.02l58.855 58.79s65.827-6.254 162.737-53.162l-134.375 134.22 5.88 186.882 209.585-209.52 33.086-179.253c41.403-29.02 85.185-65.046 129.716-109.545C804.8 456.227 859.21 380.142 900.93 308.216c-45.97-9.35-88.126-28.488-121.398-61.668-33.275-33.367-52.538-75.523-61.795-121.492zm69.424-37.213c5.005 45 19.953 81.274 44.78 105.98 24.77 24.985 60.98 39.902 106.14 44.844C1004.062 105.323 1024.952 1 1024.952 1S920.63 21.858 787.16 87.843z"/></svg><svg viewBox="0 0 2857.857 1026" id="rss" width="24" height="9" x="213" y="311"><path d="M129 641C58.344 641 1 698.375 1 769s57.344 128 128 128 128-57.375 128-128-57.344-128-128-128zm0-256s-64 2-64 64 64 64 64 64c141.375 0 256 114.625 256 256 0 0 0 64 64 64s64-64 64-64c0-212-171.97-384-384-384zm0-256s-64 0-64 64 64 64 64 64c282.75 0 512 229.25 512 512 0 0 0 64 64 64s64-64 64-64c0-353.406-286.5-640-640-640z"/></svg><svg viewBox="0 0 2857.857 1026" id="ruby" width="24" height="9" x="243" y="311"><path d="M769 129H257L1 385l512 512 512-512-256-256zM129 385l192-192h384l192 192-384 384-384-384zm576-128H513v448l320-320-128-128z"/></svg><svg viewBox="0 0 2857.857 1026" id="screen-full" width="24" height="9" x="273" y="311"><path d="M129 769h639.875V257H129v512zm127.938-384h384v256h-384V385zM65 193.062h191.938v-64H1V385h64V193.062zM65 641H1v255.938h255.938V833H65V641zm575.938-511.938v64h191.938V385h64V129.062H640.938zM832.875 833H640.938v63.938h255.938V641h-64v192z"/></svg><svg viewBox="0 0 2857.857 1026" id="screen-normal" width="24" height="9" x="303" y="311"><path d="M128.938 192.938H1v64h191.938V65h-64v127.938zM1 833.062h127.938V961h64V769.062H1v64zm768.062-640.124V65h-64v191.938H897v-64H769.062zm-64 768.062h64V833.062H897v-64H705.062V961zm-512-256H705V321H193.062v384zM321 449h256v128H321V449z"/></svg><svg viewBox="0 0 2857.857 1026" id="search" width="24" height="9" x="333" y="311"><path d="M961 833L711.875 583.875C747.438 525.812 769 458.155 769 385 769 172.97 597 1 385 1 172.97 1 1 172.97 1 385c0 212 171.97 384 384 384 73.156 0 140.812-21.562 198.875-57L833 961c17.5 17.5 46.5 17.375 64 0l64-64c17.5-17.5 17.5-46.5 0-64zM385 641c-141.375 0-256-114.625-256-256s114.625-256 256-256 256 114.625 256 256-114.625 256-256 256z"/></svg><svg viewBox="0 0 2857.857 1026" id="server" width="24" height="9" x="363" y="311"><path d="M705 385H65c-35 0-64 32-64 64v128c0 32 32 64 64 64h640c32 0 64-32 64-64V449c0-32-32-64-64-64zM129 577H65V449h64v128zm128 0h-64V449h64v128zm128 0h-64V449h64v128zm128 0h-64V449h64v128zm192 128H65c-35 0-64 32-64 64v128c0 32 32 64 64 64h640c32 0 64-32 64-64V769c0-32-32-64-64-64zM129 897H65V769h64v128zm128 0h-64V769h64v128zm128 0h-64V769h64v128zm128 0h-64V769h64v128zM705 65H65C30 65 1 97 1 129v128c0 32 32 64 64 64h640c32 0 64-32 64-64V129c0-32-32-64-64-64zM129 257H65V129h64v128zm128 0h-64V129h64v128zm128 0h-64V129h64v128zm128 0h-64V129h64v128zm192-64h-64v-64h64v64z"/></svg><svg viewBox="0 0 2857.857 1026" id="settings" width="24" height="9" x="393" y="311"><path d="M65 897h128V705H65v192zm128-768H65v320h128V129zm320 0H385v128h128V129zM1 641h256V513H1v128zm384 256h128V513H385v384zm-64-448h256V321H321v128zm512-320H705v384h128V129zM641 577v128h256V577H641zm64 320h128V769H705v128z"/></svg><svg viewBox="0 0 2857.857 1026" id="sign-in" width="24" height="9" x="3" y="341"><path d="M641 577V449h256V321H641V193L449 337V193L193 65h512v192h64V1H65v832l384 192V833h320V513h-64v256H449V433z"/></svg><svg viewBox="0 0 2857.857 1026" id="sign-out" width="24" height="9" x="33" y="341"><path d="M641 769H385V193L129 65h512v192h64V1H1v832l384 192V833h320V513h-64v256zm384-384L769 193v128H513v128h256v128l256-192z"/></svg><svg viewBox="0 0 2857.857 1026" id="split" width="24" height="9" x="63" y="341"><path d="M449 257L193 1 1 193l311 300c15-81 43-136 133-230l5-6zM577 1l133 133-197 197c-99 99-128 162-128 309v384h256V640c0-52 19-94 53-128l197-197 133 133V0H576z"/></svg><svg viewBox="0 0 2857.857 1026" id="squirrel" width="24" height="9" x="93" y="341"><path d="M769 65c-141.385 0-256 83.75-256 186.875C513 375.75 545 446 513 641c0-288-177-405.783-256-405.783 3.266-32.17-30.955-42.217-30.955-42.217s-14 7.124-19.354 21.583c-17.23-20.053-36.153-17.54-36.153-17.54l-8.49 37.08S45 275 43.41 440.417C57 462 142.31 479.102 202.888 468.118c57.157 2.956 42.99 50.648 30.193 63.446C179.083 585.562 129 513 65 513s-64 64 0 64 64 64 192 64c-198 77 0 256 0 256h-64c-64 0-64 64-64 64h384c192 0 320-64 320-222.182 0-54.34-27.7-114.63-64-162.228-70.943-93.023 14.453-171.156 64-127.59s192 64 192-128c0-141.385-114.615-256-256-256zM161 385c-17.674 0-32-14.327-32-32 0-17.674 14.326-32 32-32 17.673 0 32 14.326 32 32 0 17.673-14.327 32-32 32z"/></svg><svg viewBox="0 0 2857.857 1026" id="star" width="24" height="9" x="123" y="341"><path d="M897 385l-313.5-40.78L449 65 314.47 344.22 1 385l230.47 208.875L172 896.938l277-148.812 277.062 148.812L666.5 593.875 897 385z"/></svg><svg viewBox="0 0 2857.857 1026" id="steps" width="24" height="9" x="153" y="341"><path d="M137 65C61.89 65 1 165.29 1 289c0 68.83 17.02 141.84 34 254.54C48.3 631.83 80.67 705 137 705s94.08-48.79 94.08-137.97c0-30.37-24.97-78.75-26.08-120.03-2.02-74.46 49.93-104.17 49.93-173 0-123.71-42.83-209-117.93-209zm366.97 256c-75.1 0-117.93 85.29-117.93 209 0 68.83 51.95 98.54 49.93 173-1.11 41.28-26.08 89.66-26.08 120.03 0 89.18 37.75 137.97 94.08 137.97s88.7-73.17 102-161.46c16.98-112.7 34-185.71 34-254.54 0-123.71-60.89-224-136-224z"/></svg><svg viewBox="0 0 2857.857 1026" id="stop" width="24" height="9" x="183" y="341"><path d="M705 1H321L1 321v384l320 320h384l320-320V321L705 1zm192 640L641 897H385L129 641V385l256-256h256l256 256v256zm-448-64h128V257H449v320zm0 192h128V641H449v128z"/></svg><svg viewBox="0 0 2857.857 1026" id="sync" width="24" height="9" x="213" y="341"><path d="M656.46 474.47c11.876 81.718-13.06 167.78-76.81 230.593-94.19 92.938-239.5 104.375-346.376 34.562l74.875-73L32.96 628.25 71.367 897l84.03-80.5c150.908 111.25 364.94 100.75 502.064-34.562 79.5-78.438 115.75-182.562 111.25-285.312L656.46 474.47zm-466-153.408c94.156-92.938 239.438-104.438 346.313-34.562l-75 72.97 275.188 38.405L698.587 129l-83.938 80.688C463.71 98.344 249.742 108.968 112.585 244.25 33.085 322.656-3.133 426.78 1.335 529.5l112.25 22.125c-11.875-81.75 13.125-167.72 76.875-230.563z"/></svg><svg viewBox="0 0 2857.857 1026" id="tag" width="24" height="9" x="243" y="341"><path d="M385 65H129L1 193v256l512 512 384-384L385 65zM65 417V225l96-96h192l448 448-288 288L65 417zm384-96L257 513l256 256 192-192-256-256zm-96 192l96-96 160 160-96 96-160-160zm-32-224c0-53-43-96-96-96s-96 43-96 96 43 96 96 96 96-43 96-96zm-96 32c-17.656 0-32-14.344-32-32s14.344-32 32-32 32 14.344 32 32-14.344 32-32 32z"/></svg><svg viewBox="0 0 2857.857 1026" id="telescope" width="24" height="9" x="273" y="341"><path d="M77 424c32-8 229-59 229-59-1 6-2 19-2 19 0 71 49 128 128 128s128-59 128-128c0-11-8-22-19-32l49 3s7-2 31-8c-51 14-108-31-126-99s8-135 60-149c-24 6-31 8-31 8L356 217c-34 9-55 46-46 80 2 9 7 17 12 23-7 12-12 26-15 40-27-1-51-19-59-46-9-34 11-69 45-78L48 301c-34 9-54 43-45 77s41 54 73 46zm419 153H368v64L48 961h128l192-128v128h128V833l192 128h128L496 641v-64zm429-448c-18-68-70-110-122-96-69 18-98 28-186 51-51 14-79 80-61 148s74 115 125 102c87-23 117-33 186-51 51-14 76-85 58-154zm-70 90c-17 5-42-17-51-51s-4-66 13-70 42 17 51 51 4 66-13 70z"/></svg><svg viewBox="0 0 2857.857 1026" id="terminal" width="24" height="9" x="303" y="341"><path d="M832 128H64c-35.35 0-64 28.65-64 64v640c0 35.35 28.65 64 64 64h768c35.35 0 64-28.65 64-64V192c0-35.35-28.65-64-64-64zM128 576l128-128-128-128 64-64 192 192-192 192-64-64zm512 64H384v-64h256v64z"/></svg><svg viewBox="0 0 2857.857 1026" id="three-bars" width="24" height="9" x="333" y="341"><path d="M1 193v128h768V193H1zm0 384h768V449H1v128zm0 256h768V705H1v128z"/></svg><svg viewBox="0 0 2857.857 1026" id="thumbsdown" width="24" height="9" x="363" y="341"><path d="M834 575c0 38-31 68-68 68H655c-5 0-109-4-128 8-19 11-21 101-8 139 12 34 22 100-16 150-23 30-57 25-78 17-23-8-14-50-10-86 4-35-14-93-47-123s-29-58-45-86-41-52-62-86-68-41-132-39V184s93 0 114-2c31-3 72-13 112-26 41-13 128-26 140-26 89-3 174 18 208 24 34 7 60 41 54 77-2 11-6 21-12 29 6 2 11 5 16 9 22 12 36 34 36 60 0 21-9 39-24 52 4 1 8 3 12 5 27 9 47 35 47 65 0 27-16 51-40 62 2 1 4 2 6 4 15 9 26 23 31 40 2 6 3 11 3 18v2z"/></svg><svg viewBox="0 0 2857.857 1026" id="thumbsup" width="24" height="9" x="393" y="341"><path d="M834 452c0-38-31-68-68-68H655c-5 0-109 4-128-8-19-11-21-101-8-139 12-34 22-100-16-150-23-30-57-25-78-17-23 8-14 50-10 86 4 35-14 93-47 123s-29 58-45 86-41 52-62 86-68 41-132 39v353s93 0 114 2c31 3 72 13 112 26 41 13 128 26 140 26 89 3 174-18 208-24s60-41 54-77c-2-11-6-21-12-29 6-2 11-5 16-9 22-12 36-34 36-60 0-21-9-39-24-52 4-1 8-3 12-5 27-9 47-35 47-65 0-27-16-51-40-62 2-1 4-2 6-4 15-9 26-23 31-40 2-6 3-11 3-18v-2z"/></svg><svg viewBox="0 0 2857.857 1026" id="tools" width="24" height="9" x="3" y="371"><path d="M287.547 466.016c16.843 16.812 81.716 85.28 81.716 85.28L405.23 514.2l-56.372-58.248L457.072 341.02s-48.842-47.623-27.468-28.655c20.438-75.903 1.812-160.59-55.842-220.243-57.154-59.186-138.37-78.592-211.337-58.218L286.078 161.62l-32.53 125.308-121.06 33.438L8.898 192.618c-19.718 75.436-.97 159.34 56.31 218.556 60.094 62.123 146.622 80.373 222.34 54.842zM699.815 590.23l-149.12 147.31 245.93 254.804c20.063 20.812 46.5 31.188 72.873 31.188 26.25 0 52.624-10.375 72.81-31.188 40.25-41.624 40.25-108.997 0-150.62L699.816 590.23zM1024.68 162.84L868.06.998 406.387 478.3l56.373 58.247L186.425 822.16l-63.154 33.75-89.216 145.56 22.72 23.56 140.838-92.246 32.655-65.312 276.336-285.554 56.404 58.248 461.674-477.328z"/></svg><svg viewBox="0 0 2857.857 1026" id="trashcan" width="24" height="9" x="33" y="371"><path d="M705 129H449V97c0-17.673-14.327-32-32-32s-32 14.327-32 32v32H129c-35.346 0-64 28.654-64 64v64c0 35.346 28.654 64 64 64v576c0 35.346 28.654 64 64 64h448c35.346 0 64-28.654 64-64V321c35.346 0 64-28.654 64-64v-64c0-35.346-28.654-64-64-64zm-64 736c0 17.673-14.327 32-32 32H225c-17.673 0-32-14.327-32-32V321h64v480c0 17.673 14.327 32 32 32s32-14.327 32-32l.387-480H385v480c0 17.673 14.327 32 32 32s32-14.327 32-32l.387-480h64L513 801c0 17.673 14.327 32 32 32s32-14.327 32-32V321h64v544zm64-624c0 8.837-7.163 16-16 16H145c-8.837 0-16-7.163-16-16v-32c0-8.837 7.163-16 16-16h544c8.837 0 16 7.163 16 16v32z"/></svg><svg viewBox="0 0 2857.857 1026" id="triangle-down" width="24" height="9" x="63" y="371"><path d="M1 385l383.75 383.75L768.5 385H1z"/></svg><svg viewBox="0 0 2857.857 1026" id="triangle-left" width="24" height="9" x="93" y="371"><path d="M1 512.875l383.75 383.75v-767.5L1 512.875z"/></svg><svg viewBox="0 0 2857.857 1026" id="triangle-right" width="24" height="9" x="123" y="371"><path d="M1.062 129.25L384.812 513 1.062 896.75v-767.5z"/></svg><svg viewBox="0 0 2857.857 1026" id="triangle-up" width="24" height="9" x="153" y="371"><path d="M384.75 257L1 640.75h767.5L384.75 257z"/></svg><svg viewBox="0 0 2857.857 1026" id="unfold" width="24" height="9" x="183" y="371"><path d="M385 385h128V193h128L449 1 257 193h128v192zm192-128v64h224L673 449H225L97 321h224v-64H1v64l160 160L1 641v64h320v-64H97l128-128h448l128 128H577v64h320v-64L737 481l160-160v-64H577zm-64 320H385v192H257l192 192 192-192H513V577z"/></svg><svg viewBox="0 0 2857.857 1026" id="unmute" width="24" height="9" x="213" y="371"><path d="M129 385H1v256h128l256 192h64V193h-64L129 385zm410.51 37.49c-12.496-12.497-32.758-12.497-45.255 0-12.496 12.496-12.496 32.758 0 45.255 24.994 24.993 24.994 65.516 0 90.51-12.496 12.496-12.496 32.758 0 45.255 12.497 12.496 32.76 12.496 45.255 0 49.987-49.99 49.987-131.033 0-181.02zm90.51-90.51c-12.495-12.496-32.758-12.496-45.255 0-12.495 12.497-12.495 32.76 0 45.256 74.98 74.98 74.98 196.548 0 271.528-12.495 12.497-12.495 32.76 0 45.256 12.497 12.496 32.76 12.496 45.255 0 99.974-99.974 99.974-262.065 0-362.04zm90.51-90.51c-12.498-12.496-32.76-12.496-45.256 0-12.496 12.497-12.496 32.76 0 45.256 124.968 124.968 124.968 327.58 0 452.548-12.496 12.497-12.496 32.76 0 45.255 12.495 12.496 32.758 12.496 45.255 0 149.96-149.963 149.96-393.098 0-543.06z"/></svg><svg viewBox="0 0 2857.857 1026" id="versions" width="24" height="9" x="243" y="371"><path d="M1 705h128v-64H65V385h64v-64H1v384zm384-512v640h512V193H385zm384 512H513V321h256v384zm-576 64h128v-64h-64V321h64v-64H193v512z"/></svg><svg viewBox="0 0 2857.857 1026" id="x" width="24" height="9" x="273" y="371"><path d="M641 321L513 193 321 385 129 193 1 321l192 192L1 705l128 128 192-192 192 192 128-128-192-192 192-192z"/></svg><svg viewBox="0 0 2857.857 1026" id="zap" width="24" height="9" x="303" y="371"><path d="M641 449H385L577 1 1 577h256L65 1025l576-576z"/></svg></svg>