<svg xmlns="http://www.w3.org/2000/svg" width="420" height="390"><svg viewBox="0 0 1024 1024" id="alert" width="24" height="24" x="3" y="3"><path d="M1005.9 800.2l-438.3-767C556.2 13.3 535 1 512 1s-44.2 12.3-55.6 32.2l-438.3 767c-11.3 19.9-11.2 44.2.3 63.9C29.8 883.9 50.9 896 73.7 896h876.6c22.8 0 43.9-12.1 55.3-31.9s11.6-44 .3-63.9zM576 768H448V640h128v128zm0-192H448V320h128v256z"/></svg><svg viewBox="0 0 960 1024" id="alignment-align" width="23" height="24" x="34" y="3"><path d="M192 64C85.9 64 0 149.9 0 256s85.9 192 192 192 192-85.9 192-192S298.1 64 192 64zm480 544l160-160H384v448l160-160 288 288 128-128-288-288z"/></svg><svg viewBox="0 0 960 1024" id="alignment-aligned-to" width="23" height="24" x="64" y="3"><path d="M384 576l128-128 288 288 160-160v448H512l160-160-288-288zM192 448C85.9 448 0 362.1 0 256S85.9 64 192 64s192 85.9 192 192-85.9 192-192 192z"/></svg><svg viewBox="0 0 896 1024" id="alignment-unalign" width="21" height="24" x="95" y="3"><path d="M512 192L384 320 128 64 0 192l256 256-128 128 64 64 384-384-64-64zm128 384l128-128-64-64-384 384 64 64 128-128 256 256 128-128-256-256z"/></svg><svg viewBox="0 0 640 1024" id="arrow-down" width="15" height="24" x="128" y="3"><path d="M448 448V192H192v256H0l320 384 320-384H448z"/></svg><svg viewBox="0 0 640 1024" id="arrow-left" width="15" height="24" x="158" y="3"><path d="M384 384V192L0 512l384 320V640h256V384H384z"/></svg><svg viewBox="0 0 640 1024" id="arrow-right" width="15" height="24" x="188" y="3"><path d="M640 512L256 192v192H0v256h256v192l384-320z"/></svg><svg viewBox="0 0 384 1024" id="arrow-small-down" width="9" height="24" x="221" y="3"><path d="M256 448V320H128v128H0l192 256 192-256H256z"/></svg><svg viewBox="0 0 384 1024" id="arrow-small-left" width="9" height="24" x="251" y="3"><path d="M256 448V320L0 512l256 192V576h128V448H256z"/></svg><svg viewBox="0 0 384 1024" id="arrow-small-right" width="9" height="24" x="281" y="3"><path d="M384 512L128 320v128H0v128h128v128l256-192z"/></svg><svg viewBox="0 0 384 1024" id="arrow-small-up" width="9" height="24" x="311" y="3"><path d="M192 320L0 576h128v128h128V576h128L192 320z"/></svg><svg viewBox="0 0 640 1024" id="arrow-up" width="15" height="24" x="338" y="3"><path d="M320 192L0 576h192v256h256V576h192L320 192z"/></svg><svg viewBox="0 0 1024 1024" id="beer" width="24" height="24" x="363" y="3"><path d="M896 256H704V128C704 57 546 0 352 0S0 57 0 128v768c0 71 158 128 352 128s352-57 352-128V768h192s64-30 64-64V320s-29-64-64-64zM192 832h-64V320h64v512zm192 64h-64V384h64v512zm192-64h-64V320h64v512zM352 192c-124 0-224-29-224-64s100-64 224-64 224 29 224 64-100 64-224 64zm480 448H704V384h128v256z"/></svg><svg viewBox="0 0 1024 1024" id="book" width="24" height="24" x="393" y="3"><path d="M768 576H640c-34 0-64 32-64 64h256c0-34-32-64-64-64zm-55-416c-167 0-209 32-233 56-24-24-66-56-233-56S0 206 0 238v586c29-16 119-48 214-56 115-9 234 9 234 32 0 16 8 31 31 32h2c23-1 31-16 31-32 0-23 119-41 234-32 94 7 185 40 214 56V238c0-32-80-78-247-78zM448 732c-30-16-103-28-192-28S86 716 64 731V288s64-59 192-59 192 27 192 59v444zm448-1c-22-15-103-27-192-27s-162 12-192 28V288s64-59 192-59 192 27 192 59v443zM768 448H640c-34 0-64 32-64 64h256c0-34-32-64-64-64zm0-128H640c-34 0-64 32-64 64h256c0-34-32-64-64-64zM320 448H192c-32 0-64 30-64 64h256c0-32-30-64-64-64zm0 128H192c-32 0-64 30-64 64h256c0-32-30-64-64-64zm0-256H192c-32 0-64 30-64 64h256c0-32-30-64-64-64z"/></svg><svg viewBox="0 0 384 1024" id="bookmark" width="9" height="24" x="11" y="33"><path d="M0 128v768l192-128 192 128V128H0zm316.3 196.8l-71.9 51.9 27.2 83.4c2.7 8.4-.7 11.1-7.6 6.6l-72-52.1-72 52c-6.8 4.5-10.3 1.8-7.6-6.6l27.3-83.4-71.9-51.8c-6.5-5.2-5-9.3 3.9-9.3l88-.1 27.1-83.1c2.8-8.8 7.6-8.8 10.4 0l27.2 83.1 87.9.1c9 0 10.4 4.1 4 9.3z"/></svg><svg viewBox="0 0 1024 1024" id="briefcase" width="24" height="24" x="33" y="33"><path d="M896 192H640v-66c0-34.2-27.8-62-62-62H446c-34.2 0-62 27.8-62 62v66H128c-35.3 0-64 28.7-64 64v512c0 35.3 28.7 64 64 64h768c35.3 0 64-28.7 64-64V256c0-35.3-28.7-64-64-64zm-448-48c0-8.8 7.2-16 16-16h96c8.8 0 16 7.2 16 16v48H448v-48zm448 368H576v64H448v-64H128V256h64v192h640V256h64v256z"/></svg><svg viewBox="0 0 896 1024" id="broadcast" width="21" height="24" x="65" y="33"><path d="M448 192c142 0 256 115 256 256 0 69-28 132-72 178l-16 93c91-56 152-156 152-271 0-177-143-320-320-320S128 271 128 448c0 115 61 215 152 271l-16-93c-45-46-72-109-72-178 0-142 114-256 256-256zm-64 320c-36 0-64 29-64 64v128c0 36 30 64 64 64v256h128V768c34 0 64-28 64-64V576c0-35-28-64-64-64H384zm192-128c0-71-57-128-128-128s-128 57-128 128 57 128 128 128 128-57 128-128zM448 0C201 0 0 201 0 448c0 197 128 363 305 423l-12-72C158 739 64 605 64 448 64 236 236 64 448 64s384 172 384 384c0 157-94 291-229 351l-12 72c177-60 305-225 305-423C896 201 695 0 448 0z"/></svg><svg viewBox="0 0 896 1024" id="browser" width="21" height="24" x="95" y="33"><path d="M320 192h64v64h-64v-64zm-128 0h64v64h-64v-64zm-128 0h64v64H64v-64zm768 640H64V320h768v512zm0-576H448v-64h384v64zm64-64c0-35.3-28.6-64-64-64H64c-35.4 0-64 28.7-64 64v640c0 35.4 28.6 64 64 64h768c35.4 0 64-28.6 64-64V192z"/></svg><svg viewBox="0 0 733.886 1024" id="bug" width="17" height="24" x="126" y="33"><path d="M243.6 156.5C190.7 213.3 205.3 304 205.3 304s54 64 160 64c106.1 0 160.1-64 160.1-64s14.3-89.5-37.4-146.3c32.4-18 51.4-44.1 43.6-61.8-9-20-48.4-21.8-88.3-4-14.8 6.6-27.4 15-37.2 23.9-12.5-2.3-25.7-3.8-40.8-3.8-14 0-26.5 1.3-38.3 3.3-9.7-8.8-22.1-16.9-36.5-23.4-39.9-17.7-79.4-15.9-88.3 4-7.7 17.3 10.3 42.7 41.4 60.6zm401.1 413.3c-8.2-1.8-16.1-2.8-23.7-3.5 0-2.2.4-4.2.4-6.4 0-33.6-4.8-65.6-12.5-96.1 16.5 1.4 37.4-2.4 58.6-11.8 39.9-17.7 65-48.3 56.1-68.2-8.9-20-48.4-21.7-88.2-4-18.7 8.4-33.8 19.5-44 31-7.8-18.3-16.5-35.8-26.8-51.8-30.2 25.2-87.4 62.8-167.1 71.1v321.8s-.3 32-32 32c-31.8 0-32-32-32-32V430.2c-79.8-8.3-137-45.9-167.1-71-9.9 15.3-18.4 32-26 49.3-10.2-10.6-24.6-20.8-41.9-28.6-39.9-17.7-79.4-15.9-88.3 4-8.9 19.9 16.3 50.4 56.1 68.2 19.9 8.8 39.6 12.8 55.5 12.1-7.6 30.4-12.5 62.3-12.5 95.8 0 2.2.4 4.3.5 6.5-6.7.8-13.7 1.8-20.8 3.3C37 580.5-2.8 607.4.2 629.6c2.9 22.3 47.5 31.5 99.5 20.7 6.8-1.4 13.5-3.2 19.8-5.1 9.2 40.8 23.8 78.7 44.1 111.3-12 6.1-24.5 15-36 26.6-31.9 31.9-44.8 70.7-28.9 86.6 16 15.9 54.7 3 86.5-28.8 9.4-9.4 16.9-19.3 22.7-29C251.4 854.5 306 880 365.5 880c60.3 0 115.7-26.2 159.5-69.9 5.9 10.3 13.7 20.8 23.6 30.7 31.8 31.8 70.6 44.8 86.6 28.8s3-54.6-28.9-86.5c-12.3-12.3-25.7-21.7-38.4-27.9 20.1-32.5 34.6-70.4 43.7-111.1 7.1 2.3 14.6 4.4 22.5 6.1 52.1 10.8 96.6 1.5 99.6-20.7 2.9-22.1-37-49-89-59.7z"/></svg><svg viewBox="0 0 1024 1024" id="calendar" width="24" height="24" x="153" y="33"><path d="M704 512h-64v128h64V512zm-128 0h-64v128h64V512zm128-192h-64v128h64V320zm128 192h-64v128h64V512zM576 704h-64v128h64V704zM768 0h-64v128h64V0zM256 0h-64v128h64V0zm576 320h-64v128h64V320zm-256 0h-64v128h64V320zM320 704h-64v128h64V704zM192 512h-64v128h64V512zm128 0h-64v128h64V512zM832 64v128H640V64H320v128H128V64H0v896h960V64H832zm64 832H64V256h832v640zM192 704h-64v128h64V704zm256-384h-64v128h64V320zm0 384h-64v128h64V704zM320 320h-64v128h64V320zm128 192h-64v128h64V512zm256 192h-64v128h64V704z"/></svg><svg viewBox="0 0 768 1024" id="check" width="18" height="24" x="186" y="33"><path d="M640 192L256 576 128 448 0 576l256 256 512-512-128-128z"/></svg><svg viewBox="0 0 765.602 1024" id="checklist" width="18" height="24" x="216" y="33"><path d="M760.7 516.2l-49.8-49.6c-6.5-6.6-17-6.6-23.4 0l-105 104.9-120.1 120.4-93.1-93.1c-6.5-6.6-17-6.6-23.5 0l-49.7 49.6c-6.5 6.6-6.5 17.1 0 23.6l104.8 104.9 18 17.9 31.7 31.8c6.5 6.5 17.2 6.5 23.5 0l49.7-49.7 236.8-237.1c6.7-6.5 6.7-17 .1-23.6zm-532.2 64.6l49.7-49.8c42.4-42.4 116.3-42.4 158.7.1l25.3 25.3L576 448V128H0v704h320l-91.5-92.1c-43.8-44-43.8-115.3 0-159.1zM192 192h320v64H192v-64zm0 128h320v64H192v-64zm-64 192H64v-64h64v64zm0-128H64v-64h64v64zm0-128H64v-64h64v64zm64 192h64v64h-64v-64z"/></svg><svg viewBox="0 0 640 1024" id="chevron-down" width="15" height="24" x="248" y="33"><path d="M512 320L320 512 128 320 0 448l320 320 320-320-128-128z"/></svg><svg viewBox="0 0 448 1024" id="chevron-left" width="11" height="24" x="280" y="33"><path d="M448 320L320 192 0 512l320 320 128-128-192-192 192-192z"/></svg><svg viewBox="0 0 448 1024" id="chevron-right" width="11" height="24" x="310" y="33"><path d="M128 192L0 320l192 192L0 704l128 128 320-320-320-320z"/></svg><svg viewBox="0 0 640 1024" id="chevron-up" width="15" height="24" x="338" y="33"><path d="M320 256L0 576l128 128 192-192 192 192 128-128-320-320z"/></svg><svg viewBox="0 0 640 1024" id="circle-slash" width="15" height="24" x="368" y="33"><path d="M320 192C143.2 192 0 335.2 0 512s143.2 320 320 320 320-143.2 320-320-143.2-320-320-320zm0 128c27.7 0 53.7 6.1 77.4 16.6L144.6 589.4C134.1 565.7 128 539.7 128 512c0-106 85.9-192 192-192zm0 384c-28 0-54.5-6.4-78.6-17.1l253.9-252.5c10.6 23.8 16.7 49.9 16.7 77.6 0 106.1-85.9 192-192 192z"/></svg><svg viewBox="0 0 1024 1024" id="circuit-board" width="24" height="24" x="393" y="33"><path d="M320 256c35.3 0 64 28.7 64 64s-28.7 64-64 64-64-28.7-64-64 28.7-64 64-64zm640 512c0 106-86 192-192 192H320l192-192h81.1c22.2 38.3 63.5 64 110.9 64 70.7 0 128-57.3 128-128s-57.3-128-128-128c-47.4 0-88.7 25.7-110.9 64H448L156 932c-55.2-33.8-92-94.6-92-164V256c0-106 86-192 192-192v145.1c-38.3 22.2-64 63.5-64 110.9 0 70.7 57.3 128 128 128 47.3 0 88.6-25.6 110.7-63.8l162.4-.2c22.2 38.3 63.5 64 110.9 64 70.7 0 128-57.3 128-128s-57.3-128-128-128c-47.4 0-88.8 25.8-110.9 64l-162.1.2c-11.2-19.5-27.5-35.8-47-47.1V64h384c106 0 192 86 192 192v512zm-320-64c0-35.3 28.7-64 64-64s64 28.7 64 64-28.7 64-64 64-64-28.7-64-64zm0-384c0-35.3 28.7-64 64-64s64 28.7 64 64-28.7 64-64 64-64-28.7-64-64z"/></svg><svg viewBox="0 0 896 1024" id="clippy" width="21" height="24" x="5" y="63"><path d="M704 896H64V320h640v192h64V192c0-35-29-64-64-64H512C512 57 455 0 384 0S256 57 256 128H64c-35 0-64 29-64 64v704c0 35 29 64 64 64h640c35 0 64-29 64-64V768h-64v128zM192 192h64s64-29 64-64 29-64 64-64 64 29 64 64 32 64 64 64h64s64 29 64 64H128c0-39 28-64 64-64zm-64 512h128v-64H128v64zm448-128V448L320 640l256 192V704h320V576H576zM128 832h192v-64H128v64zm320-448H128v64h320v-64zM256 512H128v64h128v-64z"/></svg><svg viewBox="0 0 896 1024" id="clock" width="21" height="24" x="35" y="63"><path d="M384 576h256l64-64-64-64H512V256l-64-64-64 64v320zm64-512C200.6 64 0 264.6 0 512s200.6 448 448 448 448-200.6 448-448S695.4 64 448 64zm0 768c-176.2 0-320-143.7-320-320 0-175.9 144.2-319.5 320-320 175.8.5 320 144.1 320 320 0 176.3-143.7 320-320 320z"/></svg><svg viewBox="0 0 1024 1024" id="cloud-download" width="24" height="24" x="63" y="63"><path d="M832 320c-8.7 0-17.1 1.4-25.6 2.6C757.6 208.3 644.1 128 512 128c-132.2 0-245.6 80.3-294.4 194.6-8.4-1.2-16.8-2.6-25.6-2.6C85.9 320 0 405.9 0 512s85.9 192 192 192c20.5 0 39.9-4.2 58.4-10.4 34.1 37.8 80.9 63.2 133.6 70.9v-65.2c-49.8-10.4-91.6-42.9-112.6-87.9C249.5 629 222.2 640 192 640c-70.7 0-128-57.4-128-128 0-70.7 57.3-128 128-128 25.3 0 48.6 7.6 68.4 20.1C281.3 283.8 385.6 192 512 192c126.5 0 229.8 92.2 250.5 212.8 20-13 43.9-20.8 69.5-20.8 70.6 0 128 57.3 128 128 0 70.6-57.4 128-128 128-10.2 0-20-1.5-29.6-3.7-29 40.8-76.5 67.7-130.4 67.7-11.1 0-21.6-1.6-32-4v64.9c10.4 1.7 21.1 3.1 32 3.1 61.2 0 116.5-24.6 156.9-64.4 1.1 0 2 .4 3.1.4 106.1 0 192-85.9 192-192s-85.9-192-192-192zM576 512H448v320H320l192 192 192-192H576V512z"/></svg><svg viewBox="0 0 1024 1024" id="cloud-upload" width="24" height="24" x="93" y="63"><path d="M512 384L320 576h128v320h128V576h128L512 384zm320-64c-8.7 0-17.1 1.4-25.6 2.6C757.6 208.2 644.1 128 512 128c-132.2 0-245.6 80.2-294.4 194.6-8.4-1.2-16.8-2.6-25.6-2.6C85.9 320 0 406 0 512c0 106.1 85.9 192 192 192 20.5 0 39.9-4.2 58.4-10.4 34.1 37.8 80.9 63.2 133.6 70.9v-65.2c-49.8-10.4-91.6-42.9-112.6-87.8C249.5 629 222.2 640 192 640c-70.7 0-128-57.4-128-128 0-70.7 57.3-128 128-128 25.3 0 48.6 7.6 68.4 20.2C281.3 283.8 385.6 192 512 192c126.5 0 229.8 92.2 250.5 212.8 20-13 43.9-20.8 69.5-20.8 70.6 0 128 57.3 128 128 0 70.6-57.4 128-128 128-10.2 0-20-1.5-29.6-3.7-29 40.8-76.5 67.7-130.4 67.7-11.1 0-21.6-1.6-32-4v64.9c10.4 1.7 21.1 3.1 32 3.1 61.2 0 116.5-24.7 157-64.4 1 0 1.9.4 3 .4 106.1 0 192-85.9 192-192 0-106-85.9-192-192-192z"/></svg><svg viewBox="0 0 896 1024" id="code" width="21" height="24" x="125" y="63"><path d="M608 192l-96 96 224 224-224 224 96 96 288-320-288-320zm-320 0L0 512l288 320 96-96-224-224 224-224-96-96z"/></svg><svg viewBox="0 0 768 1024" id="color-mode" width="18" height="24" x="156" y="63"><path d="M0 128v768h768V128H0zm64 704V192h640L64 832z"/></svg><svg viewBox="0 0 896 1024" id="comment" width="21" height="24" x="185" y="63"><path d="M768 128H128C66 128 0 192 0 256v384c0 128 128 128 128 128h64v256l256-256h320s128-68 128-128V256c0-62-64-128-128-128z"/></svg><svg viewBox="0 0 896 1024" id="comment-discussion" width="21" height="24" x="215" y="63"><path d="M256 512V320H64S0 352 0 384v320s32 64 64 64h64v192l194-192h192s62-32 62-64v-64H384s-128-64-128-128zm576-384H384s-64 32-64 64v320s32 64 64 64h190l194 192V576h64s64-32 64-64V192s-32-64-64-64z"/></svg><svg viewBox="0 0 1024 1024" id="credit-card" width="24" height="24" x="243" y="63"><path d="M128 704h128v-64H128v64zm192 0h128v-64H320v64zm64-192H128v64h256v-64zm-128-64h64l128-128h-64L256 448zm192 128h192v-64H448v64zm512-384H64S0 224 0 256v512s32 64 64 64h896s64-32 64-64V256s-32-64-64-64zm0 256v288s0 32-32 32H96c-32 0-32-32-32-32V448h64l128-128H64v-32s0-32 32-32h832c32 0 32 32 32 32v32H576L448 448h512z"/></svg><svg viewBox="0 0 512 1024" id="dash" width="12" height="24" x="279" y="63"><path d="M0 448v128h512V448H0z"/></svg><svg viewBox="0 0 832 1024" id="dashboard" width="20" height="24" x="305" y="63"><path d="M416 464.5c-61.6 0-111.5 49.9-111.5 111.5S354.4 687.5 416 687.5 527.5 637.6 527.5 576c0-8.5-1.1-16.7-3-24.7 81.6-94.9 208-243 275.5-327.3 23.1-28.9-2.3-56.2-32-32-85.2 69.4-232.3 194.7-326.9 275.6-8.1-1.9-16.5-3.1-25.1-3.1zm31.9-208.6c0-17.7-14.4-32-32-32s-32 14.3-32 32 14.3 32 32 32 32-14.4 32-32zm192 256c0 17.6 14.4 32 32 32s32-14.4 32-32-14.4-32-32-32-32 14.3-32 32zm-352-256c-17.7 0-32 14.3-32 32s14.3 32 32 32 32-14.4 32-32-14.4-32-32-32zm-64 128c0-17.7-14.4-32-32-32s-32 14.3-32 32 14.3 32 32 32 32-14.4 32-32zm-96 128c0 17.6 14.3 32 32 32s32-14.4 32-32-14.4-32-32-32-32 14.3-32 32zm448-224c0-17.7-14.4-32-32-32s-32 14.3-32 32 14.4 32 32 32 32-14.4 32-32zm217 48.8l-68.8 89.9c7.5 27.2 11.9 55.8 11.9 85.4 0 176.8-143.3 320-320 320S96 688.8 96 512c0-176.7 143.3-320 320-320 65.9 0 127 20 177.9 54.1l79.2-60.6C602.4 129.6 513.3 96 416 96 186.3 96 0 282.3 0 512s186.3 416 416 416 416-186.2 416-416c0-62.7-14.2-122-39.1-175.3z"/></svg><svg viewBox="0 0 768 1024" id="database" width="18" height="24" x="336" y="63"><path d="M384 960C172 960 0 902.6 0 832V704c0-11.1 5.6-21.7 13.6-32 42.8 55.1 191.7 96 370.4 96s327.6-40.9 370.4-96c8 10.3 13.6 20.9 13.6 32v128c0 70.6-172 128-384 128zm0-256C172 704 0 646.6 0 576V448c0-6.8 2.6-13.4 6-19.9 1.9-4.1 4.5-8.1 7.6-12.1 42.8 55.1 191.7 96 370.4 96s327.6-40.9 370.4-96c3.1 4 5.7 8 7.6 12.1 3.4 6.5 6 13.1 6 19.9v128c0 70.6-172 128-384 128zm0-256C172 448 0 390.7 0 320v-64-64C0 121.3 172 64 384 64s384 57.3 384 128v128c0 70.7-172 128-384 128zm0-320c-141.4 0-256 28.6-256 64s114.6 64 256 64 256-28.6 256-64-114.6-64-256-64z"/></svg><svg viewBox="0 0 1024 1024" id="device-camera" width="24" height="24" x="363" y="63"><path d="M512 384c-70.7 0-128 57.3-128 128s57.3 128 128 128c5.7 0 11.3-.4 16.9-1.1-46.4-7.1-81.9-47.1-81.9-95.4 0-53.3 43.2-96.5 96.5-96.5 48.3 0 88.3 35.5 95.4 81.9.7-5.6 1.1-11.2 1.1-16.9 0-70.7-57.3-128-128-128zm384-128H768L640 128H384L256 256H128c-35.3 0-64 28.7-64 64v448c0 35.3 28.7 64 64 64h768c35.3 0 64-28.7 64-64V320c0-35.3-28.7-64-64-64zm-480-64h192l64 64H352l64-64zM160.1 768c-17.7 0-32.1-14.4-32.1-32.1V448h64v-64h-64v-31.9c0-17.7 14.4-32.1 32.1-32.1h182.6c-4 3.5-7.9 7.2-11.7 11-100 100-100 262 0 362l75 75H160.1zM512 704c-106 0-192-86-192-192s86-192 192-192 192 86 192 192-86 192-192 192zm320-224L681.3 320H832v160z"/></svg><svg viewBox="0 0 1024 1024" id="device-camera-video" width="24" height="24" x="393" y="63"><path d="M576 192c-35.3 0-64 28.7-64 64s28.7 64 64 64 64-28.7 64-64-28.7-64-64-64zm320 192L768 512v-64c0-30.6-21.5-56.2-50.2-62.5C749 351.4 768 305.9 768 256c0-106-86-192-192-192-101.1 0-184 78.2-191.4 177.4C350.5 210.7 305.4 192 256 192c-106 0-192 86-192 192s86 192 192 192h-64v128h64v128c0 35.3 28.7 64 64 64h384c35.3 0 64-28.7 64-64v-64l128 128h64V384h-64zm-640-64c-35.3 0-64 28.7-64 64s28.7 64 64 64v64c-70.7 0-128-57.3-128-128s57.3-128 128-128 128 57.3 128 128h-64c0-35.3-28.7-64-64-64zm320 384H448V576h128v128zm128-109.2c-33.5-33.6-70.3-70.3-73.4-73.4-5.8-5.8-13.8-9.4-22.6-9.4H416c-17.7 0-32 14.3-32 32v192c0 8.3 3.2 15.9 8.4 21.6.5.6 39.1 39.2 74.4 74.4H352c-17.7 0-32-14.3-32-32V480c0-17.7 14.3-32 32-32h320c17.7 0 32 14.3 32 32v114.8zM576 384c-70.7 0-128-57.3-128-128s57.3-128 128-128 128 57.3 128 128-57.3 128-128 128zm320 320l-64-64 .1-128.1L896 448v256z"/></svg><svg viewBox="0 0 1024 1024" id="device-desktop" width="24" height="24" x="3" y="93"><path d="M960 64H64S0 96 0 128v576s32 64 64 64h320s-192 64-192 128c0 32 32 64 64 64h512s64-32 64-64c0-64-192-128-192-128h320s64-32 64-64V128s-32-64-64-64zm0 640H64V128h896v576zm-64-512H704c-384 64-542 300-576 384v64h768V192z"/></svg><svg viewBox="0 0 640 1024" id="device-mobile" width="15" height="24" x="38" y="93"><path d="M576 0H64C28.7 0 0 28.7 0 64v896c0 35.4 28.7 64 64 64h512c35.4 0 64-28.6 64-64V64c0-35.3-28.6-64-64-64zM288 64h64c17.6 0 32 14.3 32 32s-14.4 32-32 32h-64c-17.7 0-32-14.3-32-32s14.3-32 32-32zm64 896h-64c-17.7 0-32-14.4-32-32s14.3-32 32-32h64c17.6 0 32 14.4 32 32s-14.4 32-32 32zm224-128H64V192h512v640z"/></svg><svg viewBox="0 0 896 1024" id="diff" width="21" height="24" x="65" y="93"><path d="M448 256H320v128H192v128h128v128h128V512h128V384H448V256zM192 896h384V768H192v128zM640 0H128v64h480l224 224v608h64V256L640 0zM0 128v896h768V320L576 128H0zm704 832H64V192h480l160 160v608z"/></svg><svg viewBox="0 0 896 1024" id="diff-added" width="21" height="24" x="95" y="93"><path d="M512 320H384v128H256v128h128v128h128V576h128V448H512V320zM832 64H64S0 96 0 128v768s32 64 64 64h768s64-32 64-64V128s-32-64-64-64zm-64 736c0 16-17 32-32 32H160s-32-12-32-32V224s16-32 32-32h576s32 16 32 32v576z"/></svg><svg viewBox="0 0 896 1024" id="diff-ignored" width="21" height="24" x="125" y="93"><path d="M832 64H64C32 64 0 96 0 128v768c0 32 32 64 64 64h768c32 0 64-32 64-64V128c0-32-32-64-64-64zm-64 736c0 16-17 32-32 32H160c-18 0-32-12-32-32V224c0-16 16-32 32-32h576c15 0 32 16 32 32v576zM256 606v98h98l286-286v-98h-98L256 606z"/></svg><svg viewBox="0 0 896 1024" id="diff-modified" width="21" height="24" x="155" y="93"><path d="M832 64H64C32 64 0 96 0 128v768c0 32 32 64 64 64h768c32 0 64-32 64-64V128c0-32-32-64-64-64zm-64 736c0 16-17 32-32 32H160c-18 0-32-12-32-32V224c0-16 16-32 32-32h576c15 0 32 16 32 32v576zM448 384c-71 0-128 57-128 128s57 128 128 128 128-57 128-128-57-128-128-128z"/></svg><svg viewBox="0 0 896 1024" id="diff-removed" width="21" height="24" x="185" y="93"><path d="M832 64H64C32 64 0 96 0 128v768c0 32 32 64 64 64h768c32 0 64-32 64-64V128c0-32-32-64-64-64zm-64 736c0 16-17 32-32 32H160c-18 0-32-12-32-32V224c0-16 16-32 32-32h576c15 0 32 16 32 32v576zM256 576h384V448H256v128z"/></svg><svg viewBox="0 0 896 1024" id="diff-renamed" width="21" height="24" x="215" y="93"><path d="M832 64H64C32 64 0 96 0 128v768c0 32 32 64 64 64h768c32 0 64-32 64-64V128c0-32-32-64-64-64zm-64 736c0 16-17 32-32 32H160c-18 0-32-12-32-32V224c0-16 16-32 32-32h576c15 0 32 16 32 32v576zM448 448H256v128h192v128l256-192-256-192v128z"/></svg><svg viewBox="0 0 768 1024" id="ellipsis" width="18" height="24" x="246" y="93"><path d="M640 320H128S0 384 0 448v128s64 128 128 128h512s128-64 128-128V448s-64-128-128-128zM256 576H128V448h128v128zm192 0H320V448h128v128zm192 0H512V448h128v128z"/></svg><svg viewBox="0 0 1024 1024" id="eye" width="24" height="24" x="273" y="93"><path d="M512 128C320 128 96 256 0 512c96 192 288 320 512 320s416-128 512-320c-96-256-320-384-512-384zm0 640c-192 0-352-128-384-256 32-128 192-256 384-256s352 128 384 256c-32 128-192 256-384 256zm0-448c-20 0-38 4-56 9 33 15 56 48 56 87 0 53-43 96-96 96-39 0-72-23-87-56-5 18-9 36-9 56 0 106 86 192 192 192s192-86 192-192-86-192-192-192z"/></svg><svg viewBox="0 0 768 1024" id="file-binary" width="18" height="24" x="306" y="93"><path d="M0 960V64h576l192 192v704zm704-672L544 128H64v768h640zM320 512H128V256h192zm-64-192h-64v128h64zm0 448h64v64H128v-64h64V640h-64v-64h128zm256-320h64v64H384v-64h64V320h-64v-64h128zm64 384H384V576h192zm-64-192h-64v128h64z"/></svg><svg viewBox="0 0 768 1024" id="file-code" width="18" height="24" x="336" y="93"><path d="M288 384L128 544l160 160 64-64-96-96 96-96zm128 64l96 96-96 96 64 64 160-160-160-160zM576 64H0v896h768V256zm128 832H64V128h480l160 160z"/></svg><svg viewBox="0 0 896 1024" id="file-directory" width="21" height="24" x="365" y="93"><path d="M832 192H480s-32-16-32-32v-32s-32-64-64-64H64S0 96 0 128v704h896V256s-32-64-64-64zm-448 0H64v-32s16-32 32-32h256s32 15 32 32v32z"/></svg><svg viewBox="0 0 768 1024" id="file-media" width="18" height="24" x="396" y="93"><path d="M576 64H0v896h768V256zm128 832H64V128h480l160 160zM128 256v512h128c0-71 57-128 128-128-71 0-128-57-128-128s57-128 128-128 128 57 128 128-57 128-128 128c71 0 128 57 128 128h128V384L512 256z"/></svg><svg viewBox="0 0 768 1024" id="file-pdf" width="18" height="24" x="6" y="123"><path d="M576 64H0v896h768V256zM64 128h256c-13 4-27 15-35 43-13 49-7 131 16 209-24 81-123 277-129 289-16 4-66 23-108 59zm283 307c58 150 95 150 135 168-84 13-148 22-232 60-4 6 76-146 97-228zm357 461H64h2c34 0 85-21 180-182 39-16 72-27 79-29 59-15 125-27 187-34 55 28 127 46 168 49 10 0 16-2 24-2zm0-311c-24-14-54-25-89-25-24 0-51 2-79 5-27-13-92-33-147-190 17-104 13-174 13-174 6-53-24-73-52-73h194l160 160z"/></svg><svg viewBox="0 0 896 1024" id="file-submodule" width="21" height="24" x="35" y="123"><path d="M832 512H640c0-32-32-64-64-64H448s-64 32-64 64v320h512V576s-32-64-64-64zm-256 64H448v-32s15-32 32-32h64s32 15 32 32v32zm256-320H480s-32-17-32-32v-32s-32-64-64-64H64S0 160 0 192v640h320V448s32-64 64-64h256s64 32 64 64h192V320s-32-64-64-64zm-448 0H64v-32s16-32 32-32h256s32 17 32 32v32z"/></svg><svg viewBox="0 0 896 1024" id="file-symlink-directory" width="21" height="24" x="65" y="123"><path d="M832 192H480c-16 0-32-16-32-32v-32s-32-64-64-64H64C32 64 0 96 0 128v704h896V256s-32-64-64-64zM64 160c0-17 16-32 32-32h256c15 0 32 15 32 32v32H64v-32zm384 544V576c-125 0-224 56-256 192 0-209 107-320 256-320V320l256 192-256 192z"/></svg><svg viewBox="0 0 768 1024" id="file-symlink-file" width="18" height="24" x="96" y="123"><path d="M576 64H0v896h768V256zm128 832H64V128h480l160 160zM384 448c-149 0-256 111-256 320 32-136 131-192 256-192v128l256-192-256-192z"/></svg><svg viewBox="0 0 768 1024" id="file-text" width="18" height="24" x="126" y="123"><path d="M448 256H128v64h320zM576 64H0v896h768V256zm128 832H64V128h480l160 160zM128 768h512v-64H128zm0-128h512v-64H128zm0-128h512v-64H128z"/></svg><svg viewBox="0 0 768 1024" id="file-zip" width="18" height="24" x="156" y="123"><path d="M320 576v-64h-64v64zm0-128v-64h-64v64zm0-128v-64h-64v64zm-128 64h64v-64h-64zM576 64H0v896h768V256zm128 832H64V128h192v64h64v-64h224l160 160zM192 256h64v-64h-64zm0 256h64v-64h-64zm0 128l-64 64v128h256V704l-64-64h-64v-64h-64zm128 64v64H192v-64z"/></svg><svg viewBox="0 0 1024 1024" id="flame" width="24" height="24" x="183" y="123"><path d="M433 45c50 134 24 207-32 265-61 64-156 112-223 206C89 641 74 916 395 988c-135-71-164-277-18-406-38 125 32 205 119 176 85-29 141 32 139 102-1 48-20 89-69 112 209-37 293-210 293-342 0-174-155-198-77-344-93 8-125 69-116 169 6 66-63 111-114 81-41-25-40-73-4-109 77-76 107-251-115-382z"/></svg><svg viewBox="0 0 896 1024" id="fold" width="21" height="24" x="215" y="123"><path d="M896 256H672l-64 64h192L672 448H224L96 320h192l-64-64H0v64l160 160L0 640v64h224l64-64H96l128-128h448l128 128H608l64 64h224v-64L736 480l160-160v-64zm-256-64H512V0H384v192H256l192 192 192-192zM256 768h128v192h128V768h128L448 576 256 768z"/></svg><svg viewBox="0 0 896 1024" id="gear" width="21" height="24" x="245" y="123"><path d="M447.9 350C358.5 350 286 422.5 286 512c0 89.4 72.5 162.1 161.9 162.1 89.5 0 161.5-72.7 161.5-162.1 0-89.5-72-162-161.5-162zm324.7 255.1l-29.2 70.3 52.1 102.2 6.9 13.5-72.2 72.2-118.4-55.9-70.4 28.9-35.6 109.2-4.6 14.5h-102L355 836.7l-70.3-29-102.4 51.9-13.5 6.8-72.2-72.1 55.9-118.5-29-70.3-109-35.6L0 565.2v-102L123.4 419l29-70.2-51.9-102.5-6.9-13.4 72.1-72.1 118.6 55.9 70.2-29 35.7-109.2 4.6-14.5h102l44.1 123.5 70.2 29 102.4-52 13.6-6.8 72.2 72-55.9 118.5 28.9 70.3 109.3 35.7 14.4 4.6v101.9l-123.4 44.4z"/></svg><svg viewBox="0 0 896 1024" id="gift" width="21" height="24" x="275" y="123"><path d="M448 960h320V640H448v320zm-384 0h320V640H64v320zm383.8-583.8c31.4-3.5 66.8-7.4 87.3-9.7 83.9-9.4 159.4-84.9 168.7-168.7 9.3-83.8-51-144.2-134.7-134.8-65.4 7.3-125.3 55-153.1 115.4C388.2 118 328.3 70.3 262.9 63c-83.7-9.4-144.1 51-134.7 134.8 9.3 83.8 84.9 159.3 168.6 168.7 20.6 2.3 56 6.3 87.5 9.7-.5 4.2-.3 7.8-.3 7.8h64s.3-3.6-.2-7.8zm107.6-235.5c45.2-5.1 78 27.6 72.9 72.9-5 45.3-45.9 86.1-91.2 91.2-45.3 5-78-27.6-72.9-72.9 5-45.3 45.9-86.2 91.2-91.2zM294.9 304.8c-45.2-5.1-86.1-45.9-91.1-91.2-5.1-45.4 27.6-78 72.8-72.9 45.3 5 86.1 45.9 91.2 91.2 5.1 45.3-27.6 77.9-72.9 72.9zM448 384v192h384V384H448zM0 576h384V384H0v192z"/></svg><svg viewBox="0 0 768 1024" id="gist" width="18" height="24" x="306" y="123"><path d="M416 384l96 96-96 96 64 64 160-160-160-160-64 64zM0 64v832h768V64H0zm704 768H64V128h640v704zM352 576l-96-96 96-96-64-64-160 160 160 160 64-64z"/></svg><svg viewBox="0 0 896 1024" id="gist-secret" width="21" height="24" x="335" y="123"><path d="M193 704l128 192H65L0 640l257-64-64 128zm448-128l64 128-128 192h256l64-256-256-64zm-84 0H341l44 102-64 218h256l-64-218 44-102zm84-192H257l-128 64h640l-128-64zm-64-256l-128 64-128-64-64 192h384l-64-192z"/></svg><svg viewBox="0 0 640 1024" id="git-branch" width="15" height="24" x="368" y="123"><path d="M512 192c-71 0-128 57-128 128 0 47 26 88 64 110v18c0 64-64 128-128 128-53 0-95 11-128 29V302c38-22 64-63 64-110 0-71-57-128-128-128S0 121 0 192c0 47 26 88 64 110v419C26 743 0 784 0 831c0 71 57 128 128 128s128-57 128-128c0-34-13-64-34-87 19-23 49-41 98-41 128 0 256-128 256-256v-18c38-22 64-63 64-110 0-71-57-128-128-128zm-384-64c35 0 64 29 64 64s-29 64-64 64-64-29-64-64 29-64 64-64zm0 768c-35 0-64-29-64-64s29-64 64-64 64 29 64 64-29 64-64 64zm384-512c-35 0-64-29-64-64s29-64 64-64 64 29 64 64-29 64-64 64z"/></svg><svg viewBox="0 0 896 1024" id="git-commit" width="21" height="24" x="395" y="123"><path d="M694.9 448C666.4 337.8 567.1 256 448 256c-119.1 0-218.4 81.8-246.9 192H0v128h201.1C229.6 686.3 328.9 768 448 768c119.1 0 218.4-81.7 246.9-192H896V448H694.9zM448 640c-70.7 0-128-57.4-128-128 0-70.7 57.3-128 128-128 70.6 0 128 57.3 128 128 0 70.6-57.4 128-128 128z"/></svg><svg viewBox="0 0 896 1024" id="git-compare" width="21" height="24" x="5" y="153"><path d="M832 722V320s-96-192-192-192h-64V0L384 192l192 192V256h64s64 32 64 64v402c-38 22-64 63-64 110 0 71 57 128 128 128s128-57 128-128c0-47-26-88-64-110zm-64 174c-35 0-64-29-64-64s29-64 64-64 64 29 64 64-29 64-64 64zM320 768h-64s-64-32-64-64V302c38-22 64-63 64-110 0-71-57-128-128-128S0 121 0 192c0 47 26 88 64 110v402s96 192 192 192h64v128l192-192-192-192v128zM128 256c-35 0-64-29-64-64s29-64 64-64 64 29 64 64-29 64-64 64z"/></svg><svg viewBox="0 0 768 1024" id="git-merge" width="18" height="24" x="36" y="153"><path d="M640 448c-47.6 0-88.6 26.3-110.6 64.9-5.8-.4-11.4-.9-17.4-.9-131.1 0-255.4-99.8-300.8-223.4 27.3-23.5 44.8-57.9 44.8-96.6 0-70.7-57.3-128-128-128S0 121.3 0 192c0 47.2 25.8 88.1 64 110.3v419.5C25.8 743.9 0 784.8 0 832c0 70.6 57.3 128 128 128s128-57.4 128-128c0-47.2-25.8-88.1-64-110.2V491.5c84.2 89 200.4 148.5 320 148.5 6.4 0 11.6-.4 17.4-.6C551.5 677.8 592.5 704 640 704c70.6 0 128-57.4 128-128 0-70.7-57.4-128-128-128zM128 896c-35.3 0-64-28.6-64-64 0-35.3 28.7-64 64-64 35.4 0 64 28.7 64 64 0 35.4-28.6 64-64 64zm0-640c-35.3 0-64-28.6-64-64s28.7-64 64-64c35.4 0 64 28.6 64 64s-28.6 64-64 64zm512 384c-35.3 0-64-28.6-64-64s28.7-64 64-64c35.4 0 64 28.6 64 64s-28.6 64-64 64z"/></svg><svg viewBox="0 0 768 1024" id="git-pull-request" width="18" height="24" x="66" y="153"><path d="M704 722V320s-96-192-192-192h-64V0L256 192l192 192V256h64s64 32 64 64v402c-38 22-64 63-64 110 0 71 57 128 128 128s128-57 128-128c0-47-26-88-64-110zm-64 174c-35 0-64-29-64-64s29-64 64-64 64 29 64 64-29 64-64 64zM128 64C57 64 0 121 0 192c0 47 26 88 64 110v419C26 743 0 784 0 831c0 71 57 128 128 128s128-57 128-128c0-47-26-88-64-110V302c38-22 64-63 64-110 0-71-57-128-128-128zm0 832c-35 0-64-29-64-64s29-64 64-64 64 29 64 64-29 64-64 64zm0-640c-35 0-64-29-64-64s29-64 64-64 64 29 64 64-29 64-64 64z"/></svg><svg viewBox="0 0 1024 1024" id="globe" width="24" height="24" x="93" y="153"><path d="M512 128c-212.1 0-384 171.9-384 384s171.9 384 384 384c26 0 51.3-2.6 75.8-7.5-9.9-4.7-10.9-40.2-1.2-60.4 10.9-22.5 45-79.5 11.3-98.6s-24.4-27.7-45-49.9-12.2-25.4-13.5-31.1c-4.5-19.5 19.8-48.7 21-51.7s1.1-14.3.7-17.7-15.3-12.3-19.1-12.7-5.6 6-10.9 6.4-28.1-13.9-33-17.7-7.1-12.7-13.8-19.5-7.5-1.5-18-5.6-44.3-16.5-70.2-27-28.1-25.2-28.5-35.6-15.7-25.5-22.9-36.4c-7.2-10.9-8.6-25.9-11.2-22.5s13.5 42.8 10.9 43.9-8.3-10.9-15.8-20.6 7.9-4.5-16.1-51.8 7.5-71.3 9-96 20.3 9 10.5-6.7.8-48.8-6.7-60.8S275 230 275 230c1.1-11.6 37.5-31.5 63.8-49.9s42.2-4.1 63.3 2.7 22.5 4.5 15.4-2.3 3-10.1 19.5-7.5 21 22.5 46.1 20.6 2.7 4.9 6 11.3-3.7 5.6-20.2 16.9.4 11.2 29.6 32.6 20.3-14.3 17.3-30 21.3-3.4 21.3-3.4c18 12 14.7.7 27.8 4.8s48.7 34.2 48.7 34.2c-44.6 24.4-16.5 27-9 32.6s-15.3 16.5-15.3 16.5c-9.4-9.3-10.9.4-16.9 3.8s-.4 12-.4 12c-31 4.9-24 37.5-23.6 45.4s-19.9 19.8-25.1 31.1 13.5 35.6 3.7 37.1-19.5-36.7-72-22.5c-15.8 4.3-51 22.5-32.2 59.6s49.8-10.5 60.3-5.2-3 28.9-.7 29.2 29.6 1.1 31.1 33 41.6 29.3 50.3 30 37.5-23.6 41.6-24.7 20.6-15 56.6 5.6 54.4 17.6 66.8 26.3 3.7 25.8 15.3 31.5 58.2-1.9 69.8 17.2-48 115.1-66.8 125.6-27.3 34.5-46.1 49.9-45 34.4-69.7 49.1c-22 13.1-25.9 36.4-35.7 43.8C767.5 848.7 896 695.4 896 512c0-212.1-171.9-384-384-384zm90 360.4c-5.2 1.5-16.1 11.2-42.7-4.5s-45-12.8-47.3-15.4c0 0-2.2-6.4 9.4-7.5 23.8-2.3 54 22.1 60.7 22.5s10.2-6.7 22.2-2.9c12 3.9 3 6.3-2.3 7.8zM476.4 166.3c-2.6-2 2.1-4.1 5-7.9 1.6-2.2.4-5.8 2.5-7.9 5.6-5.6 33.4-13.5 27.9 1.9-5.4 15.4-31.3 16.9-35.4 13.9zm67.1 48.7c-9.4-.4-31.4-2.7-27.4-6.7 15.9-15.8-6-20.3-19.5-21.4s-19.1-8.6-12.3-9.4 33.7.4 38.2 4.1 28.9 13.5 30.4 20.7 0 13.1-9.4 12.7zm81.4-2.6c-7.5 6-45.3-21.6-52.5-27.8-31.5-27-48.4-18-55-22.5-6.6-4.5-4.3-10.5 5.9-19.5s38.6 3 55.1 4.9 35.6 14.6 36 29.8c.4 15.1 18 29.1 10.5 35.1z"/></svg><svg viewBox="0 0 1024 1024" id="graph" width="24" height="24" x="123" y="153"><path d="M704 256H512v640h192V256zm256 192H768v448h192V448zM64 960V832h64v-64H64V640h64v-64H64V448h64v-64H64V256h64v-64H64V64h64V0H0v1024h1024v-64H64zm384-384H256v320h192V576z"/></svg><svg viewBox="0 0 768.199 1024" id="heart" width="18" height="24" x="156" y="153"><path d="M384 864c399-314 384-425 384-512s-72-192-192-192-192 128-192 128-72-128-192-128S0 265 0 352s-15 198 384 512z"/></svg><svg viewBox="0 0 896 1024" id="history" width="21" height="24" x="185" y="153"><path d="M448 64c-90.9 0-175.3 27.5-245.9 74.1L128 64v256h256l-88-88c45.4-24.7 96.7-40 152-40 176.8 0 320 143.2 320 320S624.8 832 448 832 128 688.8 128 512c0-45.6 9.8-88.8 27-128H64v-99.4C24.3 351.5 0 428.6 0 512c0 247.4 200.6 448 448 448s448-200.6 448-448S695.4 64 448 64zm-1 767l65-63V576h128l64-64-64-64H512l-64-64-128 128 64 64v192l63 63z"/></svg><svg viewBox="0 0 1024 1024" id="home" width="24" height="24" x="213" y="153"><path d="M192 576l64 384h192V640h128v320h192l64-384-320-320-320 320zm640-192V128H704l.3 128.3L512 64 0 576h128l384-384 384 384h128L832 384z"/></svg><svg viewBox="0 0 639.875 1024" id="horizontal-rule" width="15" height="24" x="248" y="153"><path d="M63.9 448h128v128h64V192.1h-64V384h-128V192.1H0V576h63.9V448zm576 128V448h-64v128h64zm0-192V256.1h-64V384h64zm-192 0V256.1h128v-64h-192V576h64V448h128v-64h-128zM0 832h639.9V704H0v128z"/></svg><svg viewBox="0 0 768 1024" id="hourglass" width="18" height="24" x="276" y="153"><path d="M571 512c118-85 197-240 197-384C768 57 596 0 384 0S0 57 0 128c0 144 80 299 197 384C79 597 0 752 0 896c0 71 172 128 384 128s384-57 384-128c0-144-80-299-197-384zM384 64c141 0 256 29 256 64s-115 64-256 64-256-29-256-64 115-64 256-64zm-64 706c-154 7-238 40-253 82 16-114 75-189 141-251 73-68 112-60 112-103v273zM215 418C145 363 93 288 73 203c70 32 183 53 311 53s241-21 311-53c-20 85-72 160-142 215-24-17-70-34-169-34s-145 17-169 34zm233 352V497c0 43 39 35 112 103 66 62 125 138 141 251-14-41-99-75-253-82z"/></svg><svg viewBox="0 0 1024 1024" id="hubot" width="24" height="24" x="303" y="153"><path d="M512 64C229 64 0 293 0 576v256s64 128 128 128h768s128-64 128-128V576c0-283-229-512-512-512zm96 768H416c-18 0-32-14-32-32s14-32 32-32h192c18 0 32 14 32 32s-14 32-32 32zm288-128c0 32-32 64-64 64H704c0-32-32-64-64-64H384s-64 32-64 64H192s-64-32-64-64V344c78-129 220-216 384-216s306 87 384 216v360zM768 320H256s-64 32-64 64v128s32 64 64 64h512s64-32 64-64V384s-32-64-64-64zm0 128l-64 64H576l-64-64-64 64H320l-64-64v-64h64l64 64 64-64h128l64 64 64-64h64v64z"/></svg><svg viewBox="0 0 768 1024" id="inbox" width="18" height="24" x="336" y="153"><path d="M704 192H64L0 576v256h768V576l-64-384zM576 576l-64 128H256l-64-128H79l49-320h512l49 320H576z"/></svg><svg viewBox="0 0 896 1024" id="info" width="21" height="24" x="365" y="153"><path d="M448 384c35 0 64-29 64-64s-29-64-64-64-64 29-64 64 29 64 64 64zm0-320C201 64 0 265 0 512s201 448 448 448 448-201 448-448S695 64 448 64zm0 768c-177 0-320-143-320-320s143-320 320-320 320 143 320 320-143 320-320 320zm64-320c0-32-32-64-64-64h-64s-64 32-64 64h64v192s32 64 64 64h64s64-32 64-64h-64V512z"/></svg><svg viewBox="0 0 1024 1024" id="issue-closed" width="24" height="24" x="393" y="153"><path d="M704 316l-96 96 160 164 256-256-96-96-158.7 158.8L704 316zM512 832c-176.8 0-320-143.2-320-320s143.2-320 320-320c88.4 0 168.4 35.8 226.3 93.8l90.5-90.5C747.8 114.1 635.8 64 512 64 264.6 64 64 264.6 64 512s200.6 448 448 448 448-200.6 448-448L759.8 712.3c8.9-11-75 119.7-247.8 119.7zm64-576H448v320h128V256zM448 768h128V640H448v128z"/></svg><svg viewBox="0 0 896 1024" id="issue-opened" width="21" height="24" x="5" y="183"><path d="M448 64C200.6 64 0 264.6 0 512s200.6 448 448 448 448-200.6 448-448S695.4 64 448 64zm0 768c-176.8 0-320-143.2-320-320s143.2-320 320-320 320 143.2 320 320-143.2 320-320 320zm-64-64h128V640H384v128zm0-192h128V256H384v320z"/></svg><svg viewBox="0 0 896 1024" id="issue-reopened" width="21" height="24" x="35" y="183"><path d="M639.1 767.3C585.8 807.4 520 832 448 832c-176.8 0-320-143.2-320-320 0-45.6 9.8-88.8 27-128H64v-99.5C24.3 351.4 0 428.6 0 512c0 247.4 200.6 448 448 448 107.4 0 204.5-39.3 281.8-102.2L768 896V704H576l63.1 63.3zM384 768h128V640H384v128zm128-512H384v320h128V256zm384 256c0-247.4-200.6-448-448-448-107.4 0-204.5 39.3-281.7 102.3L128 128v192h192l-63.2-63.2C310.3 216.7 376 192 448 192c176.8 0 320 143.2 320 320 0 45.6-9.7 88.8-27 128h91v99.5c39.7-66.9 64-144 64-227.5z"/></svg><svg viewBox="0 0 896 1024" id="jersey" width="21" height="24" x="65" y="183"><path d="M704 0H512c0 32-33 64-97 64s-95-32-95-64H128c0 128-2 384-128 384 0 0-1 544-1 576s32 64 64 64h704s64-32 64-64V384C705 384 703 128 703 0zM95 960c-16 0-31-10-31-32V448c119-64 128-192 128-384h64c0 96 32 191 160 192s160-96 160-192h64c0 186 32 276 64 339v557H95zm385-576l-32 32v320l32 32h128l32-32V416l-32-32H480zm96 320h-64V448h64v256zM224 384l-32 32v320l32 32h128l32-32V416l-32-32H224zm96 320h-64V448h64v256z"/></svg><svg viewBox="0 0 768 1024" id="jump-down" width="18" height="24" x="96" y="183"><path d="M767.8 192H.3L384 575.8 767.8 192zM0 704v128h768V704H0z"/></svg><svg viewBox="0 0 640 1024" id="jump-left" width="15" height="24" x="128" y="183"><path d="M256.3 512L640 895.8V128.3L256.3 512zM0 896h128V128H0v768z"/></svg><svg viewBox="0 0 640 1024" id="jump-right" width="15" height="24" x="158" y="183"><path d="M0 895.8L383.8 512 0 128.2v767.6zM512 128v768h128V128H512z"/></svg><svg viewBox="0 0 768 1024" id="jump-up" width="18" height="24" x="186" y="183"><path d="M.2 832h767.5L384 448.3.2 832zM0 192v128h768V192H0z"/></svg><svg viewBox="0 0 896.9 1024" id="key" width="21" height="24" x="214" y="183"><path d="M640.9 63.9c-141.4 0-256 114.6-256 256 0 19.6 2.2 38.6 6.4 56.9L0 768v64l64 64h128l64-64v-64h64v-64h64v-64h128l70.8-70.8c18.7 4.3 38.1 6.6 58.1 6.6 141.4 0 256-114.6 256-256S782.2 63.9 640.9 63.9zM384 512L64 832v-64l320-320v64zm320-192c-35.3 0-64-28.7-64-64s28.7-64 64-64 64 28.7 64 64-28.7 64-64 64z"/></svg><svg viewBox="0 0 1024 1024" id="keyboard" width="24" height="24" x="243" y="183"><path d="M640 576h64V448h-64v128zm128-320h-64v128h64V256zm-128 0h-64v128h64V256zM512 576h64V448h-64v128zM384 768h320V640H384v128zm384-192h128V256h-64v192h-64v128zM256 768h64V640h-64v128zm512 0h128V640H768v128zM512 256h-64v128h64V256zM192 448h-64v128h64V448zm0 192h-64v128h64V640zM0 128v768h1024V128H0zm960 704H64V192h896v640zM384 576h64V448h-64v128zM256 256H128v128h128V256zm128 0h-64v128h64V256zM256 576h64V448h-64v128z"/></svg><svg viewBox="0 0 1024 1024" id="law" width="24" height="24" x="273" y="183"><path d="M514 192c34-1 61-28 62-62 1-37-29-67-66-66-34 1-61 28-62 62-1 37 29 67 66 66zm464 384h-18L833 330c18-2 36-9 52-16 24-11 29-43 11-62l-1-1c-11-11-28-15-43-8-14 6-34 13-53 13-56 0-81-64-287-64s-231 64-287 64c-20 0-39-6-53-13-15-6-32-3-43 8l-1 1c-18 19-13 50 11 62 16 8 34 14 52 16L64 576H46c-8 0-14 7-13 15 11 64 92 113 191 113s180-49 191-113c1-8-5-15-13-15h-18L257 331c83-7 127-49 191-49v486c-35 0-64 29-64 64h-71c-28 0-57 29-57 64h512c0-35-29-64-71-64h-57c0-35-29-64-64-64V282c64 0 108 42 191 49L640 576h-18c-8 0-14 7-13 15 11 64 92 113 191 113s180-49 191-113c1-8-5-15-13-15zm-658 0H128l96-180 96 180zm384 0l96-180 96 180H704z"/></svg><svg viewBox="0 0 1024 1024" id="light-bulb" width="24" height="24" x="303" y="183"><path d="M512 64c-176.7 0-320 143.3-320 320 0 104.7 50.3 197.6 128 256v192c0 35.3 28.7 64 64 64 0 35.3 28.7 64 64 64h128c35.3 0 64-28.7 64-64 35.3 0 64-28.7 64-64V640c77.7-58.4 128-151.3 128-256 0-176.7-143.3-320-320-320zm128 736c0 17.7-14.3 32-32 32H416c-17.7 0-32-14.3-32-32v-32h256v32zm64-246.7c-33.2 33-64 42.4-64 124V704h-64V576l128-128v-64l-64-64-64 64-64-64-64 64-64-64-64 64v64l128 128v128h-64v-26.7c0-81.6-30.8-91-64-124-39.8-45.1-64-104.4-64-169.3 0-141.4 114.6-256 256-256s256 114.6 256 256c0 64.9-24.2 124.2-64 169.3zM512 576L384 448v-64l64 64 64-64 64 64 64-64v64L512 576z"/></svg><svg viewBox="0 0 1024 1024" id="link" width="24" height="24" x="333" y="183"><path d="M768 256H630c48 32 93 89 107 128h30c65 0 128 64 128 128s-65 128-128 128H575c-63 0-128-64-128-128 0-23 7-45 18-64H328c-5 21-8 42-8 64 0 128 127 256 255 256h193s256-128 256-256-128-256-256-256zM287 640h-30c-65 0-128-64-128-128s65-128 128-128h192c63 0 128 64 128 128 0 23-7 45-18 64h137c5-21 8-42 8-64 0-128-127-256-255-256H256S0 384 0 512s128 256 256 256h138c-48-32-93-89-107-128z"/></svg><svg viewBox="0 0 768 1024" id="link-external" width="18" height="24" x="366" y="183"><path d="M640 768H128V257.9l128-1.9V128H0v768h768V576H640v192zM384 128l128 128-192 192 128 128 192-192 128 128V128H384z"/></svg><svg viewBox="0 0 768 1024" id="list-ordered" width="18" height="24" x="396" y="183"><path d="M320 576h448V448H320v128zm0 256h448V704H320v128zm0-640v128h448V192H320zM79 448h78V192h-36l-85 23v50l43-2v185zm110 206c0-36-12-78-96-78-33 0-64 6-83 16l1 66c21-10 42-15 67-15s32 11 32 28c0 26-30 58-110 112v50h192v-67l-91 2c49-30 87-66 87-113l1-1z"/></svg><svg viewBox="0 0 768 1024" id="list-unordered" width="18" height="24" x="6" y="213"><path d="M0 576h128V448H0v128zm0-256h128V192H0v128zm0 512h128V704H0v128zm256-256h512V448H256v128zm0-256h512V192H256v128zm0 512h512V704H256v128z"/></svg><svg viewBox="0 0 640 1024" id="location" width="15" height="24" x="38" y="213"><path d="M320 0C143 0 0 143 0 320s160 416 320 704c160-288 320-527 320-704S497 0 320 0zm0 448c-71 0-128-57-128-128s57-128 128-128 128 57 128 128-57 128-128 128z"/></svg><svg viewBox="0 0 768 1024" id="lock" width="18" height="24" x="66" y="213"><path d="M704 448h-64V256S512 0 384 0 128 128 128 256v192H64S0 480 0 512v448s32 64 64 64h640s64-32 64-64V512s-32-64-64-64zM512 576H128v64h384v64H128v64h384v64H128v64h384v64H64V512h448v64zm0-128H256V256s64-128 128-128 128 64 128 128v192z"/></svg><svg viewBox="0 0 2856.857 1024" id="logo-github" width="24" height="9" x="93" y="221"><path d="M552.7 332.1H311.6c-6.2 0-11.3 5.1-11.3 11.3v117.9c0 6.3 5.1 11.3 11.3 11.3h94.1v146.5s-21.2 7.1-79.5 7.1c-68.9 0-165.2-25.3-165.2-236.8 0-211.6 100.2-239.5 194.3-239.5 81.5 0 116.5 14.3 138.9 21.2 7 2.2 13.4-4.8 13.4-11.1l26.9-113.9c0-2.9-1-6.4-4.2-8.8C521.2 31 465.9 0 326.2 0 165.1 0 0 68.5 0 397.8 0 727 189.1 776 348.4 776c131.9 0 212-56.3 212-56.3 3.3-1.8 3.6-6.4 3.6-8.5V343.4c0-6.2-5.1-11.3-11.3-11.3zm1219.7-304h-135.7c-6.3 0-11.3 5.1-11.3 11.3v262.4h-211.6V39.4c0-6.2-5.1-11.3-11.2-11.3h-135.8c-6.1 0-11.1 5.1-11.1 11.3v710.5c0 6.3 5 11.3 11.1 11.3h135.8c6.2 0 11.2-5 11.2-11.3V446.1h211.6l-.5 303.9c0 6.3 5.1 11.2 11.1 11.2h135.9c6.3 0 11.1-5 11.1-11.2l.5-710.6c.1-6.2-5-11.3-11.1-11.3zM714.9 44.2c-48.3 0-87.5 39.6-87.5 88.4 0 48.9 39.2 88.5 87.5 88.5s87.6-39.6 87.6-88.5c0-48.8-39.2-88.4-87.6-88.4zm78 227.9c0-6.2-5.1-11.3-11.2-11.3H646.3c-6.3 0-11.7 6.4-11.7 12.7v469.8c0 13.8 8.5 17.9 19.7 17.9h121.9c13.3 0 16.9-6.5 16.9-18.2-.1-25.2-.1-123.8-.1-142.9-.1-18.2-.1-328-.1-328zM2298 261.8h-134.7c-6.2 0-11.1 5.1-11.1 11.4v348.3s-34.3 25.2-82.9 25.2c-48.6 0-61.6-22-61.6-69.7V273.1c0-6.2-5-11.3-11.1-11.3H1860c-6.3 0-11.2 5.1-11.2 11.3V600c0 141.2 78.7 175.9 187 175.9 88.8 0 160.6-49.2 160.6-49.2s3.3 25.8 5 28.9c1.5 3.1 5.5 6.1 9.9 6.1h86.6c6.1 0 11.2-5 11.2-11.3l.3-477.3c-.2-6.2-5.3-11.3-11.4-11.3zm368.9-16c-76.5 0-128.6 34.2-128.6 34.2V39.4c0-6.2-5-11.3-11.1-11.3h-136.3c-6.1 0-11.1 5.1-11.1 11.3l-.4 710.6c0 6.3 5.1 11.2 11.3 11.2h94.8c4.2 0 7.4-2.2 9.8-5.9 2.4-3.9 5.8-32.8 5.8-32.8s55.5 52.7 161 52.7c123.8 0 194.8-62.8 194.8-281.9 0-218.8-113.4-247.5-190-247.5zm-53.1 400.4c-46.7-1.4-78.3-22.6-78.3-22.6V398.5s31.3-19.2 69.6-22.6c48.6-4.3 95.5 10.3 95.5 126.2-.3 122-21.4 146.1-86.8 144.1zm-1428.7-2.5c-5.9 0-21.2 2.3-36.8 2.3-49.9 0-67-23.2-67-53.3V392.9h101.9c6.3 0 11.2-5.1 11.2-11.4V272c.1-6.3-4.9-11.3-11.2-11.3h-101.9l-.1-134.5c0-5.1-2.7-7.7-8.6-7.7H933.9c-5.4 0-8.4 2.4-8.4 7.6v139s-69.6 16.8-74.2 18.2c-4.7 1.4-8.1 5.7-8.1 10.8v87.5c0 6.2 5.1 11.3 11.2 11.3h71.1v210.2c0 156.1 109.6 171.5 183.5 171.5 33.7 0 74-11 80.8-13.4 4.1-1.4 6.4-5.6 6.4-10.1l.1-96.1c0-6.3-5.3-11.4-11.2-11.3z"/></svg><svg viewBox="0 0 896 1024" id="mail" width="21" height="24" x="125" y="213"><path d="M0 192v640h896V192H0zm768 64L448 520 128 256h640zM64 320l252 191.6L64 704V320zm64 448l254-206.2 66 50.2 65.9-50.1L768 768H128zm704-64L579.6 511.9 832 320v384z"/></svg><svg viewBox="0 0 896 1024" id="mail-read" width="21" height="24" x="155" y="213"><path d="M576 384H256v64h320v-64zM384 256H256v64h128v-64zm384-27.5V128H627.2L448 0 268.8 128H128v100.5L0 320v640h896V320l-128-91.5zM192 192h512v244.8L448 648 192 436.8V192zM64 448l252 191.6L64 832V448zm64 448l254-206.2 66 50.2 65.9-50.1L768 896H128zm704-64L579.6 639.9 832 448v384z"/></svg><svg viewBox="0 0 768 1024" id="mail-reply" width="18" height="24" x="186" y="213"><path d="M384 160L0 448l384 288V544c111 0 329 61 384 280 0-291-196-451-384-472V160z"/></svg><svg viewBox="0 0 1024 1024" id="mark-github" width="24" height="24" x="213" y="213"><path d="M512 0C229.3 0 0 229.3 0 512c0 226.3 146.7 418.1 350.2 485.8 25.5 4.7 34.9-11.1 34.9-24.6 0-12.2-.5-52.6-.7-95.3-128.7 23.4-161.7-31.6-172.5-60.4-5.5-14.8-30.4-60.2-52.4-72.3-18-9.8-43.3-33.2-.9-33.7 40.4-.5 69.3 37.3 78.5 52.8 45.9 77.7 119.8 55.6 149 42.5 4.6-33 17.9-55.7 32.5-68.4-113.7-13-233.3-56.9-233.3-253.1 0-55.9 20-101.5 52.7-137.4-5.2-13-22.8-65.1 5.1-135.6 0 0 42.9-13.7 140.8 52.5 40.8-11.4 84.6-17 128.1-17.2 43.5.2 87.3 5.9 128.2 17.3 97.7-66.3 140.7-52.5 140.7-52.5 28 70.5 10.3 122.6 5.1 135.5 32.8 35.9 52.6 81.5 52.6 137.4 0 196.7-119.7 240-233.8 252.7 18.4 15.9 34.8 47 34.8 94.7 0 68.5-.7 123.7-.7 140.5 0 13.7 9.3 29.6 35.2 24.6C877.4 930 1024 738.1 1024 512 1024 229.3 794.7 0 512 0z"/></svg><svg viewBox="0 0 1024 1024" id="markdown" width="24" height="24" x="243" y="213"><path d="M950.2 192H73.8C33.1 192 0 225.1 0 265.8v492.4C0 798.9 33.1 832 73.8 832h876.4c40.7 0 73.8-33.1 73.8-73.8V265.8c0-40.7-33.1-73.8-73.8-73.8zM576 703.9l-128 .1V512l-96 123.1L256 512v192H128V320h128l96 128 96-128 128-.1v384zm191.1 32L608 512h96V320h128v192h96L767.1 735.9z"/></svg><svg viewBox="0 0 1024 1024" id="megaphone" width="24" height="24" x="273" y="213"><path d="M832 32c-130 0-124 130-704 128C57.3 160 0 274.6 0 416s57.3 256 128 256c22.8 0 43.2.5 64.2.9L256 960l192 32 64-96-45.1-203.1C709.4 729.1 733.8 800 832 800c106 0 192-172 192-384S938 32 832 32zM197 482.9c-39.2-1.4-82.2-2.2-127.6-2.6C66 460.6 64 438.9 64 416c0-88.4 28.7-192 64-192 39 .1 75-.4 109-1.4-27.3 47-45 115.7-45 193.4 0 23.3 2.1 45.4 5 66.9zm64.3 3c-3.2-22.2-5.3-45.5-5.3-69.9 0-79.5 18.4-149.5 46.9-196.2 155.2-8.3 251.9-28.5 319-50.2C593.6 236.5 576 321.7 576 416c0 40 3.9 78 9.5 114.3-72.2-18.7-172.7-35.7-324.2-44.4zM832 704c-12.1 0-23.7-5.1-34.8-12.1-15.3-67.3-83.4-418.4 117.4-494.2C942.1 250.5 960 328.2 960 416c0 159-57.4 288-128 288z"/></svg><svg viewBox="0 0 832 1024" id="mention" width="20" height="24" x="305" y="213"><path d="M466.7 99.1c-228-28-435.6 134.2-463.6 362.2s134.2 435.6 362.2 463.6c71.4 8.8 145.1-.9 213.3-29.9v-.1c24.4-10.3 35.8-38.5 25.4-62.9-10.3-24.4-38.5-35.8-62.9-25.4v-.1C488.6 828.9 432 836.3 377 829.6 201.6 808.1 76.8 648.4 98.4 473 119.9 297.6 279.6 172.8 455 194.4 630.4 215.9 755.2 375.6 733.6 551c-4.3 35.1-21.5 55.7-61.6 55.7-42.5 0-64-45.9-64-81.2V400c0-26.5-21.5-48-48-48-9.7 0-18.7 2.9-26.3 7.8-25.6-20.2-57.4-33.8-94.3-38.4-105.2-12.9-201 62-214 167.2-12.9 105.2 62 201 167.2 214 57.4 7 116.2-14.7 157.9-53.2 24.9 28.2 59.8 47.7 100.1 52.6 87.7 10.8 167.5-51.6 178.3-139.3 28-228-134.2-435.6-362.2-463.6zm44.6 424.6c-6.5 52.6-54.4 90-107 83.6-52.6-6.5-90-54.4-83.6-107 6.5-52.6 54.4-90 107-83.6 52.6 6.5 90 54.4 83.6 107z"/></svg><svg viewBox="0 0 768 1024" id="microscope" width="18" height="24" x="336" y="213"><path d="M617 896c86.3-18.7 151-100 151-192 0-58.4-26.6-110.1-67.9-145.4 2.4-15.2 3.9-30.7 3.9-46.6 0-104.8-49.9-197.9-128-256l64-64v-64l64-64-64-64-64 64h-64L256 320l-128 64v128l64 64h128l64-128 96-96c55.5 33.4 96 90.4 96 160-106.1 0-192 85.9-192 192H0v64h192c19.1 14.3 42.1 22.1 64 32v96H128L0 1024h768L640 896h-23zM512 704c0-35.4 28.6-64 64-64s64 28.6 64 64c0 35.3-28.6 64-64 64s-64-28.7-64-64z"/></svg><svg viewBox="0 0 832 1024" id="milestone" width="20" height="24" x="365" y="213"><path d="M704 192H0v256h704l128-128-128-128zM448 384H320V256h128v128zm0-384H320v128h128V0zM320 1024h128V512H320v512z"/></svg><svg viewBox="0 0 1024 1024" id="mirror" width="24" height="24" x="393" y="213"><path d="M320 320L128 512l192 192V576h384v128l192-192-192-192v128H320V320zM512 0L0 320v704l512-256 512 256V320L512 0zm448 896L576 704v-64H448v64L64 896V384l384-256v256h128V128l384 256v512z"/></svg><svg viewBox="0 0 1024 1024" id="mortar-board" width="24" height="24" x="3" y="243"><path d="M501 588l-245-76v160s115 96 256 96 256-32 256-96V512l-245 76c-7 2-15 2-23 0h1zm18-409c-4-1-9-1-13 0L17 331c-21 7-21 36 0 43l111 35v113c-19 11-32 32-32 55 0 12 3 23 9 32-5 9-9 20-9 32v165c0 35 128 35 128 0V641c0-12-3-23-9-32 5-9 9-20 9-32 0-24-13-44-32-55v-93l313 98c4 1 9 1 13 0l489-152c21-7 21-36 0-43L519 179zm-6 205c-35 0-64-14-64-32s29-32 64-32 64 14 64 32-29 32-64 32z"/></svg><svg viewBox="0 0 640 1024" id="move-down" width="15" height="24" x="38" y="243"><path d="M640 320H448V0H192v320H0l320 384 320-384zM0 1024h640V832H0v192z"/></svg><svg viewBox="0 0 1024 1024" id="move-left" width="24" height="24" x="63" y="243"><path d="M0 832h192V192H0v640zm704-448V192L320 512l384 320V640h320V384H704z"/></svg><svg viewBox="0 0 1024 1024" id="move-right" width="24" height="24" x="93" y="243"><path d="M832 192v640h192V192H832zM320 384H0v256h320v192l384-320-384-320v192z"/></svg><svg viewBox="0 0 640 1024" id="move-up" width="15" height="24" x="128" y="243"><path d="M0 704h192v320h256V704h192L320 320 0 704zM0 0v192h640V0H0z"/></svg><svg viewBox="0 0 896 1024" id="mute" width="21" height="24" x="155" y="243"><path d="M128 384H0v256h128l256 192h64V192h-64L128 384zm736 32l-64-64-96 96-96-96-63 63.5 95 96.5-96 96 64 64 96-96 96 96 64-64-96-96 96-96z"/></svg><svg viewBox="0 0 1024 1024" id="no-newline" width="24" height="24" x="183" y="243"><path d="M896 320v128H768V320L576 512l192 192V576h192s64-.4 64-64V320H896zm-672-32C100.3 288 0 388.3 0 512c0 123.8 100.3 224 224 224s224-100.2 224-224c0-123.7-100.3-224-224-224zM96 512c0-70.7 57.3-128 128-128 18.8 0 36.4 4.2 52.5 11.5l-169 169C100.2 548.4 96 530.8 96 512zm128 128c-18.7 0-36.4-4.2-52.5-11.5l169-169c7.3 16.1 11.5 33.8 11.5 52.5 0 70.6-57.3 128-128 128z"/></svg><svg viewBox="0 0 1024 1024" id="octoface" width="24" height="24" x="213" y="243"><path d="M940.8 277.7c8.3-20.2 35.4-101.8-8.5-211.9 0 0-67.4-21.3-219.9 82.9-63.9-17.6-132.5-20.2-200.4-20.2s-136.4 2.6-200.5 20.3C159 44.5 91.7 65.8 91.7 65.8 47.8 176 74.9 257.5 83.2 277.7 31.5 333.6 0 404.9 0 492.3 0 821.6 213.3 896 510.8 896c297.8 0 513.2-74.4 513.2-403.7 0-87.4-31.5-158.7-83.2-214.6zM512 833c-211.4 0-382.8-9.9-382.8-214.7 0-48.9 24.1-94.6 65.4-132.3 68.7-63 185.2-29.7 317.4-29.7 132.3 0 248.6-33.3 317.4 29.6 41.4 37.8 65.5 83.3 65.5 132.3C894.9 823.1 723.4 833 512 833zM351.2 512.4c-42.5 0-76.9 51.1-76.9 114.2s34.4 114.3 76.9 114.3c42.3 0 76.8-51.1 76.8-114.3s-34.5-114.2-76.8-114.2zm321.7 0c-42.4 0-76.9 51.1-76.9 114.2s34.5 114.3 76.9 114.3 76.8-51.2 76.8-114.3c.1-63.1-34.4-114.2-76.8-114.2z"/></svg><svg viewBox="0 0 896 1024" id="organization" width="21" height="24" x="245" y="243"><path d="M768 384H128C57.3 384 0 441.3 0 512v64c0 47.3 25.8 88.1 64 110.3V896h256v128h256V896h256V686.3c38.1-22.2 64-63 64-110.3v-64c0-70.7-57.4-128-128-128zM256 832H128V576H64v-64c0-35.3 28.7-64 64-64h81.7c-11 18.9-17.7 40.6-17.7 64v128c0 47.3 25.8 88.1 64 110.3V832zm320-128V576h-64v384H384V576h-64v128c-35.3 0-64-28.6-64-64V512c0-35.3 28.7-64 64-64h256c35.4 0 64 28.7 64 64v128c0 35.4-28.6 64-64 64zm256-128h-64v256H640v-81.7c38.1-22.2 64-63 64-110.3V512c0-23.4-6.7-45.1-17.7-64H768c35.4 0 64 28.7 64 64v64zM303.7 317.4C338.9 357.9 390.2 384 448 384c57.9 0 109.1-26.1 144.3-66.6C614.1 356.9 655.7 384 704 384c70.6 0 128-57.3 128-128s-57.4-128-128-128c-25.6 0-49.4 7.7-69.4 20.7C614.9 63.6 539.1 0 448 0S281.1 63.6 261.4 148.7c-20.1-13-43.8-20.7-69.4-20.7-70.7 0-128 57.3-128 128s57.3 128 128 128c48.3 0 89.8-27.1 111.7-66.6zM704 192c35.4 0 64 28.6 64 64s-28.6 64-64 64c-35.3 0-64-28.6-64-64s28.7-64 64-64zM448 64c70.6 0 128 57.3 128 128s-57.4 128-128 128c-70.7 0-128-57.3-128-128S377.3 64 448 64zM192 320c-35.3 0-64-28.6-64-64s28.7-64 64-64c35.4 0 64 28.6 64 64s-28.6 64-64 64z"/></svg><svg viewBox="0 0 1024 1024" id="package" width="24" height="24" x="273" y="243"><path d="M480 64L0 192v576l480 128 480-128V192L480 64zM63.9 720.9L63.5 288 448 390.5v432.9L63.9 720.9zM63.5 224l160.3-42.7 416.2 111v.1l-160 42.7L63.5 224zm832.6 496.9L512 823.4V390.5l128-34.1v156l128-34.1v-156L896.5 288l-.4 432.9zM768 258.3v-.2l-416.3-111L480 112.9 896.5 224 768 258.3z"/></svg><svg viewBox="0 0 768 1024" id="paintcan" width="18" height="24" x="306" y="243"><path d="M384 0C171.9 0 0 171.9 0 384v64c0 35.3 28.7 64 64 64v320c0 70.7 143.3 128 320 128s320-57.3 320-128V512c35.3 0 64-28.7 64-64v-64C768 171.9 596.1 0 384 0zm192 640v32c0 17.7-14.3 32-32 32s-32-14.3-32-32v-32c0-17.7-14.3-32-32-32s-32 14.3-32 32v160c0 17.7-14.3 32-32 32s-32-14.3-32-32V672c0-17.7-14.3-32-32-32s-32 14.3-32 32v32c0 35.3-28.7 64-64 64s-64-28.7-64-64v-64c-35.3 0-64-28.7-64-64V460.8c58.4 31.1 151.3 51.2 256 51.2s197.6-20.1 256-51.2V576c0 35.3-28.7 64-64 64zM384 448c-107.4 0-199.4-26.5-237.4-64 38-37.5 130-64 237.4-64s199.4 26.5 237.4 64c-38 37.5-130 64-237.4 64zm0-192c-176.6 0-319.8 57.2-320 127.9C64.1 207.2 207.3 64 384 64s320 143.3 320 320c0-70.7-143.3-128-320-128z"/></svg><svg viewBox="0 0 896 1024" id="pencil" width="21" height="24" x="335" y="243"><path d="M704 64L576 192l192 192 128-128L704 64zM0 768l.7 192.6L192 960l512-512-192-192L0 768zm192 128H64V768h64v64h64v64z"/></svg><svg viewBox="0 0 512 1024" id="person" width="12" height="24" x="369" y="243"><path d="M448 192C448 86 362.1 0 256 0S64 86 64 192c0 106.1 85.9 192 192 192s192-85.9 192-192zM256 320c-70.7 0-128-57.3-128-128S185.3 64 256 64c70.6 0 128 57.3 128 128s-57.4 128-128 128zm128 64H128C57.3 384 0 441.3 0 512v128c0 70.6 57.3 128 128 128v256h256V768c70.6 0 128-57.4 128-128V512c0-70.7-57.4-128-128-128zm64 256c0 35.4-28.6 64-64 64V576h-64v384H192V576h-64v128c-35.3 0-64-28.6-64-64V512c0-35.3 28.7-64 64-64h256c35.4 0 64 28.7 64 64v128z"/></svg><svg viewBox="0 0 519.657 1024" id="pin" width="12" height="24" x="399" y="243"><path d="M196 704l64 320 64-320c-20 2-43 3-64 3s-44-1-64-3zm254-299c-33-17-62-59-62-85v-64c0-22 12-39 23-52 15-13 24-29 24-45 0-53-61-95-175-95S85 106 85 159c0 16 9 32 24 45 11 13 23 30 23 52v64c0 26-29 68-62 85-38 19-70 54-70 88 0 74 101 148 260 148s260-73 260-148c0-33-31-68-70-88z"/></svg><svg viewBox="0 0 768 1024" id="playback-fast-forward" width="18" height="24" x="6" y="273"><path d="M0 768l384-256L0 256v512zm768-256L384 256v512l384-256z"/></svg><svg viewBox="0 0 512 1024" id="playback-pause" width="12" height="24" x="39" y="273"><path d="M0 832h192V192H0v640zm320-640v640h192V192H320z"/></svg><svg viewBox="0 0 512 1024" id="playback-play" width="12" height="24" x="69" y="273"><path d="M0 192l512 320L0 832V192z"/></svg><svg viewBox="0 0 768 1024" id="playback-rewind" width="18" height="24" x="96" y="273"><path d="M384 512l384 256V256L384 512zM0 512l384 256V256L0 512z"/></svg><svg viewBox="0 0 1024 1024" id="plug" width="24" height="24" x="123" y="273"><path d="M1003.4 204.7l-.9-.9c-24.8-24.8-64.9-24.8-89.6 0l-45.7 45.7-90.5-90.5 45.7-45.8c24.7-24.7 24.7-64.8 0-89.6l-.9-.9C796.7-2 756.6-2 731.9 22.7l-48 48c-62.1-41.1-146.7-34.4-201.4 20.4L457.6 116c-109 109-121.9 277.7-38.8 400.9l-4.2 4.1c-62.4 62.4-62.5 163.5-.3 226 12.5 12.5 12.7 33.3.2 45.7-12.5 12.3-32.7 12.3-45.1-.2l-89.5-89.4c-62.6-62.6-164.6-63.8-227.3-1.1-62.5 62.4-62.5 163.8 0 226.3l8.7 8.8c24.8 24.7 64.9 24.7 89.6 0l1-1c24.7-24.7 24.7-64.8 0-89.6l-8.3-8.3c-12.4-12.3-13.1-32.4-1.1-45 12.4-13.2 33.1-13.4 45.8-.7l89.4 89.4c62.9 62.9 165.5 63.8 228.1.5 61.7-62.5 61.6-163.2-.5-225.4-12.5-12.6-12.8-32.9-.2-45.5l4.2-4.1c123.2 83.1 291.8 70.1 400.9-38.9l24.9-24.9c54.7-54.7 61.5-139.2 20.3-201.4l48-47.9c24.7-24.8 24.7-64.9 0-89.6zM889.8 498.4c-37.5 37.5-98.3 37.5-135.8 0L527.8 272.1c-37.5-37.5-37.5-98.3 0-135.8 29.5-29.5 73.5-35.8 109.2-18.7l-41.8 41.8c-24.8 24.8-24.8 64.9 0 89.6l.9.9c24.7 24.8 64.9 24.8 89.6 0l45.7-45.7 90.5 90.5-45.7 45.7c-24.7 24.8-24.7 64.9 0 89.6l.9.9c24.8 24.8 64.9 24.8 89.6 0l41.9-41.8c17 35.7 10.8 79.7-18.8 109.3z"/></svg><svg viewBox="0 0 640 1024" id="plus" width="15" height="24" x="158" y="273"><path d="M384 448V192H256v256H0v128h256v256h128V576h256V448H384z"/></svg><svg viewBox="0 0 768 1024" id="podium" width="18" height="24" x="186" y="273"><path d="M320 0c-32 0-64 32-64 64v64h-64L0 320v128h192l64 384-128 64v64h512v-64l-128-64 64-384h192V320L576 128H320V64h32s32-17 32-32-16-32-32-32h-32zm0 832l-53-320h118l-1 320h-64zM96 320l128-128h32v64h64v-64h224l128 128H96z"/></svg><svg viewBox="0 0 511.825 1024" id="primitive-dot" width="12" height="24" x="219" y="273"><path d="M-.1 512c0-141.5 114.5-256 256-256s256 114.5 256 256-114.5 256-256 256S-.1 653.5-.1 512z"/></svg><svg viewBox="0 0 512 1024" id="primitive-square" width="12" height="24" x="249" y="273"><path d="M512 768H0V256h512v512z"/></svg><svg viewBox="0 0 896 1024" id="pulse" width="21" height="24" x="275" y="273"><path d="M736 511.9L563.2 345.6 422.4 544 352 102.4 152.4 511.9H0V640h230.4L288 524.8l57.6 345.6L576 544l102.4 96H896V511.9H736z"/></svg><svg viewBox="0 0 1024 1024" id="puzzle" width="24" height="24" x="303" y="273"><path d="M755.8 575.1c-14-9.9-28.6-16.5-43.5-19.9-8.9-1.7-18.1-2.3-27.6-1.8-9 .5-17.6 1.7-25.7 3.5-6.1 1.7-12.2 3.9-18.3 6.6-18.2 8.1-33.9 18.2-46.8 30.4-12.2 12.9-22.3 28.6-30.4 46.8-2.7 6.1-4.9 12.2-6.6 18.3-1.8 8.1-3 16.7-3.5 25.7-.5 9.5.1 18.7 1.8 27.6 3.4 14.9 10 29.5 20 43.4 3.8 5.5 8 10.4 12.5 14.9 20.1 20 45.8 30.7 75.4 34.1 9 1 18.2 1.7 26.6 4.5 5.1 1.7 9.1 4.1 12 7 6.7 6.6 7.7 16.1 2.5 27.3-3.1 6.8-7.7 13.4-12.9 18.8l-2.8 2.9c-3.9 3.9-6.4 6.4-7.1 7-3.1 3.2-6.1 6.1-9 9.1l-3 3-31.6 31.6-68.4 68.4-22.5 22.5c-3.5 3.4-7.1 6.3-10.8 8.8-1.8 1.2-3.5 2.2-5.2 3.1-19.6 9.9-41.4 5.9-59.2-11.9-5.4-5.4-10.6-10.6-15.9-15.8-30.2-30.3-60.4-60.5-90.7-90.7-8.6-8.6-17.2-17.1-25.7-25.6-6.1-6.1-12.7-11.9-19.6-17.1-5.7-4.3-11.6-7.5-17.4-9.7-21.2-7.3-41.4-2-54.7 13.2-3.8 4.8-7 10.5-9.4 17-3.4 9.2-4.6 19.5-5.9 29.3-4.9 37.6-25.8 68.5-56 82.7-7.5 3.6-15.5 6.3-23.9 7.8-7.9 1.4-15.9 1.7-23.8 1-26.6-1.3-49.5-13.1-68.5-32.6-1.7-1.6-2.1-2-2.5-2.5-19.5-19-31.3-41.9-32.6-68.5-.7-7.9-.4-15.9 1-23.8 1.5-8.4 4.2-16.4 7.8-23.9 14.2-30.2 45.1-51.1 82.7-56 9.8-1.3 20.1-2.5 29.3-5.9 7-2.5 13-6 18-10.2 14.5-13.2 19.6-32.6 12.8-52.4-2.8-7.3-6-13.2-10.3-18.9-5.2-6.9-11-13.4-17.1-19.6-8.5-8.5-17-17-25.5-25.6-26.9-27-53.9-53.9-80.8-80.8l-10-10-15.3-15.3C-.6 534.5-4.6 512.7 5.3 493.1c.9-1.7 1.9-3.3 3.1-5 2.5-3.9 5.4-7.5 8.8-10.9l22.5-22.5c22.8-22.8 45.6-45.7 68.4-68.4 10.5-10.6 21-21.2 31.6-31.7l3-2.9c2.9-3 5.9-6 8.9-8.9.8-.8 3.3-3.3 7.2-7.3l2.9-2.7c5.4-5.3 12-9.9 18.8-13 11.2-5.1 20.7-4.2 27.3 2.5 2.9 2.9 5.3 7 7 12.1 2.8 8.4 3.4 17.6 4.5 26.5 3.4 29.6 14.1 55.4 34.1 75.4 4.5 4.5 9.4 8.7 14.9 12.6 13.9 9.9 28.5 16.6 43.4 19.9 8.9 1.7 18.1 2.3 27.6 1.8 9-.5 17.6-1.7 25.7-3.5 6.1-1.7 12.2-3.9 18.3-6.6 18.2-8 33.9-18.1 46.8-30.3 12.3-12.9 22.4-28.7 30.4-46.8 2.7-6.1 4.9-12.3 6.6-18.4 1.8-8.1 3-16.7 3.5-25.7.5-9.5-.1-18.7-1.8-27.5-3.4-15-10-29.5-19.9-43.5-3.9-5.4-8.1-10.4-12.6-14.9-20.1-20-45.8-30.7-75.4-34.1-8.9-1-18.1-1.7-26.6-4.5-5.1-1.7-9.1-4-12-7-6.7-6.6-7.7-16.1-2.5-27.2 3.1-6.9 7.7-13.5 12.9-18.9l2.8-2.8 7.1-7.1c3.1-3.1 6.1-6.1 9-9.1l3-2.9c10.5-10.6 21.1-21.2 31.6-31.7 22.8-22.8 45.6-45.6 68.4-68.3l22.5-22.5c3.5-3.5 7.1-6.4 10.8-8.8 1.8-1.2 3.5-2.3 5.2-3.2 19.6-9.9 41.4-5.9 59.2 11.9 5.4 5.4 10.6 10.6 15.9 15.8 30.2 30.3 60.5 60.6 90.7 90.8 8.6 8.5 17.2 17.1 25.7 25.6 6.1 6.1 12.7 11.8 19.6 17 5.7 4.4 11.6 7.6 17.4 9.8 21.2 7.3 41.5 2 54.7-13.3 3.8-4.8 7-10.5 9.4-16.9 3.4-9.3 4.6-19.5 5.9-29.4 4.9-37.5 25.8-68.4 56-82.7 7.5-3.6 15.5-6.2 23.9-7.7 7.9-1.4 15.9-1.7 23.8-1.1 26.6 1.4 49.5 13.1 68.5 32.6 1.7 1.7 2.1 2.1 2.6 2.5 19.4 19 31.2 41.9 32.5 68.5.7 7.9.4 15.9-1 23.9-1.5 8.4-4.1 16.4-7.8 23.9-14.2 30.1-45.1 51-82.6 55.9-9.9 1.3-20.1 2.5-29.4 5.9-6.9 2.6-13 6.1-18 10.3-14.5 13.1-19.6 32.6-12.8 52.3 2.8 7.3 6 13.2 10.3 18.9 5.2 6.9 11 13.5 17.1 19.6 8.5 8.5 17 17.1 25.5 25.6l90.8 90.8 15.3 15.3c18.4 18.4 22.3 40.2 12.4 59.8-.9 1.7-1.9 3.4-3.1 5.1-2.4 3.8-5.4 7.4-8.8 10.9l-22.5 22.5-68.4 68.4c-10.5 10.5-21 21.1-31.6 31.6l-2.9 3c-3 2.9-6 5.9-9 8.9l-7.2 7.2-2.9 2.8c-5.4 5.2-12 9.8-18.8 12.9-11.2 5.2-20.7 4.2-27.3-2.5-2.9-2.9-5.3-6.9-7-12-2.8-8.4-3.4-17.7-4.5-26.6-3.4-29.6-14-55.3-34.1-75.4-4.5-4.5-9.4-8.7-14.8-12.6z"/></svg><svg viewBox="0 0 1024 1024" id="question" width="24" height="24" x="333" y="273"><path d="M448 768h128V640H448v128zm64-512c-96 0-192 96-192 192h128c0-32 32-64 64-64s64 32 64 64c0 64-128 64-128 128h128c64-22 128-64 128-160s-96-160-192-160zm0-256C229 0 0 229 0 512s229 512 512 512 512-229 512-512S795 0 512 0zm0 896c-212 0-384-172-384-384s172-384 384-384 384 172 384 384-172 384-384 384z"/></svg><svg viewBox="0 0 640 1024" id="quote" width="15" height="24" x="368" y="273"><path d="M0 512v256h256V512H128s0-128 128-128V256S0 256 0 512zm640-128V256s-256 0-256 256v256h256V512H512s0-128 128-128z"/></svg><svg viewBox="0 0 1024 1024" id="radio-tower" width="24" height="24" x="393" y="273"><path d="M306.8 390.7c15.9-16.3 15.9-42.7 0-59-20.5-21.1-30.6-48.4-30.7-76.1.1-27.8 10.2-55.1 30.7-76.2 15.9-16.3 15.9-42.8 0-59.1-7.9-8.2-18.2-12.3-28.7-12.3-10.3 0-20.8 4.1-28.7 12.3-36.3 37.3-54.6 86.4-54.6 135.3 0 48.8 18.3 97.9 54.6 135.1 15.9 16.3 41.6 16.3 57.4 0zM149.1 33.1c-8.1-8.3-18.7-12.4-29.3-12.4-10.6 0-21.2 4.1-29.2 12.4C30.8 94.5.8 175.1.8 255.6c0 80.3 30 161.1 89.7 222.4 16.2 16.6 42.3 16.6 58.5 0 16.1-16.6 16.1-43.5 0-60.1-43.7-44.9-65.4-103.4-65.4-162.3S105.3 138.1 149 93.2c16.1-16.6 16.1-43.6.1-60.1zM513 359.8c57.4 0 104-46.5 104-103.9 0-57.4-46.6-104-104-104s-103.9 46.6-103.9 104S455.6 359.8 513 359.8zm420.5-326c-16.1-16.7-42.3-16.7-58.4 0-16.2 16.6-16.2 43.5 0 60 43.6 45 65.4 103.5 65.4 162.4 0 58.9-21.8 117.4-65.5 162.3-16.1 16.6-16.1 43.6.1 60.1 8 8.3 18.6 12.4 29.2 12.4 10.6 0 21.2-4.1 29.2-12.4 59.8-61.3 89.8-142.1 89.7-222.5.1-80.2-29.9-161-89.7-222.3zM513.3 442.9c-26.5 0-53.1-6.5-77.1-19.5L235.1 959.6h95.2l54.8-64H641l54 64h95.2l-201.1-536c-23.7 12.7-49.7 19.3-75.8 19.3zm-.6 30.6L577 703.7H449.1l63.6-230.2zM385.1 831.6l64-63.9H577l64 63.9H385.1zM717.2 121c-15.9 16.3-15.9 42.8 0 59.1 20.5 21.1 30.6 48.5 30.7 76.1-.1 27.8-10.2 55.1-30.7 76.2-15.9 16.3-15.9 42.8 0 59.1 7.9 8.1 18.2 12.2 28.7 12.2 10.3 0 20.8-4.1 28.7-12.2 36.3-37.3 54.7-86.5 54.5-135.3.2-48.8-18.1-97.9-54.5-135.2-15.8-16.3-41.5-16.3-57.4 0z"/></svg><svg viewBox="0 0 768 1024" id="repo" width="18" height="24" x="6" y="303"><path d="M320 256h-64v64h64v-64zm0-128h-64v64h64v-64zM704 0H64S0 32 0 64v768s32 64 64 64h128v128l96-96 96 96V896h320s64-32 64-64V64S736 0 704 0zm0 800c0 16-15 32-32 32H384v-64H192v64H96s-32-17-32-32v-96h640v96zm0-160H192V64h513l-1 576zM320 512h-64v64h64v-64zm0-128h-64v64h64v-64z"/></svg><svg viewBox="0 0 1024 1024" id="repo-clone" width="24" height="24" x="33" y="303"><path d="M320 384h-64v64h64v-64zM192 64h256V0H64S0 32 0 64v768s32 64 64 64h128v128l96-96 96 96V896h320s64-32 64-64V640H192V64zm512 640v96s-14 32-32 32H384v-64H192v64H96s-32-16-32-32v-96h640zM320 256h-64v64h64v-64zm-64 320h64v-64h-64v64zM960 0H640s-64 32-64 64v384s32 64 64 64h64v64l32-32 32 32v-64h192s64-32 64-64V64S992 0 960 0zM704 448h-32s-32-15-32-32v-32h64v64zm256-32c0 16-15 32-32 32H768v-64h192v32zm0-96H704V64h224s32 0 32 32v224zM320 128h-64v64h64v-64z"/></svg><svg viewBox="0 0 767.896 1024" id="repo-force-push" width="18" height="24" x="66" y="303"><path d="M768 64c0-32-32-64-64-64H64S0 32 0 64v768s0-32 0 0 32 64 64 64h128v128l128-128V768H192v64H96s-32-15-32-32v-96h256v-64H192V64h512v576H576v64h128v96s-15 32-32 32h-96v64h128s64-32 64-64V64zM496 384h144L448 128 256 384h144L256 576h128v448h128V576h128L496 384z"/></svg><svg viewBox="0 0 768 1024" id="repo-forked" width="18" height="24" x="96" y="303"><path d="M768 128C768 57 711 0 640 0S512 57 512 128c0 47 26 89 64 111v106L384 557 192 345V239c38-22 64-63 64-111C256 57 199 0 128 0S0 57 0 128c0 47 26 89 64 111v156l256 282v109c-38 22-64 63-64 111 0 71 57 128 128 128s128-57 128-128c0-47-26-89-64-111V677l256-282V239c38-22 64-63 64-111zM128 65c34 0 62 28 62 62s-28 62-62 62-62-28-62-62 28-62 62-62zm256 891c-34 0-62-28-62-62s28-62 62-62 62 28 62 62-28 62-62 62zM640 65c34 0 62 28 62 62s-28 62-62 62-62-28-62-62 28-62 62-62z"/></svg><svg viewBox="0 0 1024 1024" id="repo-pull" width="24" height="24" x="123" y="303"><path d="M1024 320L832 128v128H448v128h384v128l192-192zM704 640H192V64h512v128h64V64S736 0 704 0H64S0 32 0 64v768s32 64 64 64h128v128l96-96 96 96V896h320s64-32 64-64V448h-64v192zm0 160c0 15-15 32-32 32H384v-64H192v64H96s-32-16-32-32v-96h640v96zM320 256h-64v64h64v-64zm0-128h-64v64h64v-64zm0 256h-64v64h64v-64zm-64 192h64v-64h-64v64z"/></svg><svg viewBox="0 0 768 1024" id="repo-push" width="18" height="24" x="156" y="303"><path d="M448 320L256 576h128v448h128V576h128L448 320zm-192 0h64v-64h-64v64zm64-192h-64v64h64v-64zM704 0H64S0 32 0 64v768s32 64 64 64h128v128l128-128V768H192v64H96s-32-14-32-32v-96h256v-64H192V64h513l-1 576H576v64h128v96s-15 32-32 32h-96v64h128s64-32 64-64V64S736 0 704 0z"/></svg><svg viewBox="0 0 1024 1024" id="rocket" width="24" height="24" x="183" y="303"><path d="M716.7 124.1c-71.9 41.6-148 96.1-218.4 166.5-45 45-81.2 88.8-110.4 129.8l-178.4 33L0 663l186.9 5.8 131.5-131.5c-46.4 96.2-50.5 160-50.5 160l58.8 58.8s65.9-6.3 162.8-53.2L355.1 837.1 361 1024l209.6-209.5 33.1-179.3c41.4-29 85.1-65 129.7-109.5 70.4-70.5 124.8-146.6 166.5-218.5-45.9-9.3-88.1-28.5-121.4-61.7-33.2-33.3-52.5-75.5-61.8-121.4zm69.5-37.3c5 45 19.9 81.3 44.7 106 24.8 25 61 39.9 106.2 44.9C1003.1 104.3 1024 0 1024 0S919.6 20.9 786.2 86.8z"/></svg><svg viewBox="0 0 768 1024" id="rss" width="18" height="24" x="216" y="303"><path d="M128 640C57.3 640 0 697.4 0 768s57.3 128 128 128 128-57.4 128-128-57.3-128-128-128zm0-256s-64 2-64 64 64 64 64 64c141.4 0 256 114.6 256 256 0 0 0 64 64 64s64-64 64-64c0-212-172-384-384-384zm0-256s-64 0-64 64 64 64 64 64c282.8 0 512 229.3 512 512 0 0 0 64 64 64s64-64 64-64c0-353.4-286.5-640-640-640z"/></svg><svg viewBox="0 0 1024 1024" id="ruby" width="24" height="24" x="243" y="303"><path d="M768 128H256L0 384l512 512 512-512-256-256zM128 384l192-192h384l192 192-384 384-384-384zm576-128H512v448l320-320-128-128z"/></svg><svg viewBox="0 0 895.875 1024" id="screen-full" width="21" height="24" x="275" y="303"><path d="M128 768h639.9V256H128v512zm127.9-384h384v256h-384V384zM64 192.1h191.9v-64H0V384h64V192.1zM64 640H0v255.9h255.9V832H64V640zm575.9-511.9v64h192V384h64V128.1h-256zm192 703.9h-192v63.9h256V640h-64v192z"/></svg><svg viewBox="0 0 896 1024" id="screen-normal" width="21" height="24" x="305" y="303"><path d="M127.9 191.9H0v64h191.9V64h-64v127.9zM0 832.1h127.9V960h64V768.1H0v64zm768.1-640.2V64h-64v191.9H896v-64H768.1zm-64 768.1h64V832.1H896v-64H704.1V960zm-512-256H704V320H192.1v384zM320 448h256v128H320V448z"/></svg><svg viewBox="0 0 973.125 1024" id="search" width="23" height="24" x="334" y="303"><path d="M960 832L710.9 582.9C746.4 524.8 768 457.2 768 384 768 172 596 0 384 0S0 172 0 384s172 384 384 384c73.2 0 140.8-21.6 198.9-57L832 960c17.5 17.5 46.5 17.4 64 0l64-64c17.5-17.5 17.5-46.5 0-64zM384 640c-141.4 0-256-114.6-256-256s114.6-256 256-256 256 114.6 256 256-114.6 256-256 256z"/></svg><svg viewBox="0 0 768 1024" id="server" width="18" height="24" x="366" y="303"><path d="M704 384H64c-35 0-64 32-64 64v128c0 32 32 64 64 64h640c32 0 64-32 64-64V448c0-32-32-64-64-64zM128 576H64V448h64v128zm128 0h-64V448h64v128zm128 0h-64V448h64v128zm128 0h-64V448h64v128zm192 128H64c-35 0-64 32-64 64v128c0 32 32 64 64 64h640c32 0 64-32 64-64V768c0-32-32-64-64-64zM128 896H64V768h64v128zm128 0h-64V768h64v128zm128 0h-64V768h64v128zm128 0h-64V768h64v128zM704 64H64C29 64 0 96 0 128v128c0 32 32 64 64 64h640c32 0 64-32 64-64V128c0-32-32-64-64-64zM128 256H64V128h64v128zm128 0h-64V128h64v128zm128 0h-64V128h64v128zm128 0h-64V128h64v128zm192-64h-64v-64h64v64z"/></svg><svg viewBox="0 0 896 1024" id="settings" width="21" height="24" x="395" y="303"><path d="M64 896h128V704H64v192zm128-768H64v320h128V128zm320 0H384v128h128V128zM0 640h256V512H0v128zm384 256h128V512H384v384zm-64-448h256V320H320v128zm512-320H704v384h128V128zM640 576v128h256V576H640zm64 320h128V768H704v128z"/></svg><svg viewBox="0 0 896 1024" id="sign-in" width="21" height="24" x="5" y="333"><path d="M640 576V448h256V320H640V192L448 336V192L192 64h512v192h64V0H64v832l384 192V832h320V512h-64v256H448V432z"/></svg><svg viewBox="0 0 1024 1024" id="sign-out" width="24" height="24" x="33" y="333"><path d="M640 768H384V192L128 64h512v192h64V0H0v832l384 192V832h320V512h-64v256zm384-384L768 192v128H512v128h256v128l256-192z"/></svg><svg viewBox="0 0 1024 1024" id="split" width="24" height="24" x="63" y="333"><path d="M448 256L192 0 0 192l311 300c15-81 43-136 133-230l5-6zM576 0l133 133-197 197c-99 99-128 162-128 309v384h256V639c0-52 19-94 53-128l197-197 133 133V-1H575z"/></svg><svg viewBox="0 0 1024 1024" id="squirrel" width="24" height="24" x="93" y="333"><path d="M768 64c-141.4 0-256 83.8-256 186.9 0 123.9 32 194.1 0 389.1 0-288-177-405.8-256-405.8 3.3-32.2-31-42.2-31-42.2s-14 7.1-19.3 21.6c-17.2-20.1-36.2-17.6-36.2-17.6l-8.5 37.1S44 274 42.4 439.4c13.6 21.6 98.9 38.7 159.5 27.7 57.1 3 43 50.7 30.2 63.5C178.1 584.6 128 512 64 512s-64 64 0 64 64 64 192 64c-198 77 0 256 0 256h-64c-64 0-64 64-64 64h384c192 0 320-64 320-222.2 0-54.3-27.7-114.6-64-162.2-70.9-93 14.5-171.2 64-127.6s192 64 192-128c0-141.4-114.6-256-256-256zM160 384c-17.7 0-32-14.3-32-32s14.3-32 32-32 32 14.3 32 32-14.3 32-32 32z"/></svg><svg viewBox="0 0 896 1024" id="star" width="21" height="24" x="125" y="333"><path d="M896 384l-313.5-40.8L448 64 313.5 343.2 0 384l230.5 208.9-59.5 303 277-148.8 277.1 148.8-59.6-303L896 384z"/></svg><svg viewBox="0 0 640 1024" id="steps" width="15" height="24" x="158" y="333"><path d="M136 64C60.9 64 0 164.3 0 288c0 68.8 17 141.8 34 254.5C47.3 630.8 79.7 704 136 704s94.1-48.8 94.1-138c0-30.3-25-78.7-26.1-120-2-74.5 49.9-104.2 49.9-173 0-123.7-42.8-209-117.9-209zm367 256c-75.1 0-118 85.3-118 209 0 68.8 52 98.5 50 173-1.1 41.3-26.1 89.7-26.1 120 0 89.2 37.7 138 94.1 138s88.7-73.2 102-161.5c17-112.7 34-185.7 34-254.5 0-123.7-60.9-224-136-224z"/></svg><svg viewBox="0 0 1024 1024" id="stop" width="24" height="24" x="183" y="333"><path d="M704 0H320L0 320v384l320 320h384l320-320V320L704 0zm192 640L640 896H384L128 640V384l256-256h256l256 256v256zm-448-64h128V256H448v320zm0 192h128V640H448v128z"/></svg><svg viewBox="0 0 768.051 1024" id="sync" width="18" height="24" x="216" y="333"><path d="M655.5 473.5c11.8 81.7-13.1 167.8-76.9 230.6-94.1 92.9-239.5 104.3-346.3 34.5l74.8-73L32 627.3 70.4 896l84-80.5c150.9 111.3 364.9 100.8 502.1-34.6 79.5-78.4 115.7-182.5 111.2-285.3l-112.2-22.1zm-466-153.4c94.1-93 239.4-104.5 346.3-34.6l-75 73L736 396.9 697.6 128l-84 80.7C462.7 97.3 248.7 108 111.6 243.3 32.1 321.7-4.1 425.8.3 528.5l112.3 22.1c-11.9-81.7 13.1-167.7 76.9-230.5z"/></svg><svg viewBox="0 0 896 1024" id="tag" width="21" height="24" x="245" y="333"><path d="M384 64H128L0 192v256l512 512 384-384L384 64zM64 416V224l96-96h192l448 448-288 288L64 416zm384-96L256 512l256 256 192-192-256-256zm-96 192l96-96 160 160-96 96-160-160zm-32-224c0-53-43-96-96-96s-96 43-96 96 43 96 96 96 96-43 96-96zm-96 32c-17.7 0-32-14.3-32-32s14.3-32 32-32 32 14.3 32 32-14.3 32-32 32z"/></svg><svg viewBox="0 0 929.875 1024" id="telescope" width="22" height="24" x="274" y="333"><path d="M76 423c32-8 229-59 229-59-1 6-2 19-2 19 0 71 49 128 128 128s128-59 128-128c0-11-8-22-19-32l49 3s7-2 31-8c-51 14-108-31-126-99s8-135 60-149c-24 6-31 8-31 8L355 216c-34 9-55 46-46 80 2 9 7 17 12 23-7 12-12 26-15 40-27-1-51-19-59-46-9-34 11-69 45-78L47 300c-34 9-54 43-45 77s41 54 73 46zm419 153H367v64L47 960h128l192-128v128h128V832l192 128h128L495 640v-64zm429-448c-18-68-70-110-122-96-69 18-98 28-186 51-51 14-79 80-61 148s74 115 125 102c87-23 117-33 186-51 51-14 76-85 58-154zm-70 90c-17 5-42-17-51-51s-4-66 13-70 42 17 51 51 4 66-13 70z"/></svg><svg viewBox="0 0 896 1024" id="terminal" width="21" height="24" x="305" y="333"><path d="M831 127H63c-35.4 0-64 28.7-64 64v640c0 35.4 28.6 64 64 64h768c35.4 0 64-28.6 64-64V191c0-35.4-28.6-64-64-64zM127 575l128-128-128-128 64-64 192 192-192 192-64-64zm512 64H383v-64h256v64z"/></svg><svg viewBox="0 0 768 1024" id="three-bars" width="18" height="24" x="336" y="333"><path d="M0 192v128h768V192H0zm0 384h768V448H0v128zm0 256h768V704H0v128z"/></svg><svg viewBox="0 0 1024 1024" id="thumbsdown" width="24" height="24" x="363" y="333"><path d="M833 574c0 38-31 68-68 68H654c-5 0-109-4-128 8-19 11-21 101-8 139 12 34 22 100-16 150-23 30-57 25-78 17-23-8-14-50-10-86 4-35-14-93-47-123s-29-58-45-86-41-52-62-86-68-41-132-39V183s93 0 114-2c31-3 72-13 112-26 41-13 128-26 140-26 89-3 174 18 208 24 34 7 60 41 54 77-2 11-6 21-12 29 6 2 11 5 16 9 22 12 36 34 36 60 0 21-9 39-24 52 4 1 8 3 12 5 27 9 47 35 47 65 0 27-16 51-40 62 2 1 4 2 6 4 15 9 26 23 31 40 2 6 3 11 3 18v2z"/></svg><svg viewBox="0 0 1024 1024" id="thumbsup" width="24" height="24" x="393" y="333"><path d="M833 451c0-38-31-68-68-68H654c-5 0-109 4-128-8-19-11-21-101-8-139 12-34 22-100-16-150-23-30-57-25-78-17-23 8-14 50-10 86 4 35-14 93-47 123s-29 58-45 86-41 52-62 86-68 41-132 39v353s93 0 114 2c31 3 72 13 112 26 41 13 128 26 140 26 89 3 174-18 208-24s60-41 54-77c-2-11-6-21-12-29 6-2 11-5 16-9 22-12 36-34 36-60 0-21-9-39-24-52 4-1 8-3 12-5 27-9 47-35 47-65 0-27-16-51-40-62 2-1 4-2 6-4 15-9 26-23 31-40 2-6 3-11 3-18v-2z"/></svg><svg viewBox="0 0 1024 1024" id="tools" width="24" height="24" x="3" y="363"><path d="M286.5 465c16.9 16.8 81.8 85.3 81.8 85.3l35.9-37.1-56.3-58.2 108.2-115s-48.9-47.6-27.5-28.6c20.4-75.9 1.8-160.6-55.8-220.3-57.2-59.2-138.4-78.6-211.4-58.2l123.7 127.7-32.6 125.3-121 33.5L7.9 191.6c-19.7 75.5-1 159.4 56.3 218.6 60.1 62.1 146.6 80.3 222.3 54.8zm412.3 124.2L549.7 736.5l245.9 254.8c20.1 20.9 46.5 31.2 72.9 31.2 26.2 0 52.6-10.3 72.8-31.2 40.3-41.6 40.3-109 0-150.6L698.8 589.2zm324.9-427.4L867.1 0 405.4 477.3l56.4 58.2-276.4 285.7-63.1 33.7-89.2 145.6 22.7 23.5 140.8-92.2 32.7-65.3 276.3-285.6 56.4 58.3 461.7-477.4z"/></svg><svg viewBox="0 0 768 1024" id="trashcan" width="18" height="24" x="36" y="363"><path d="M704 128H448V96c0-17.7-14.3-32-32-32s-32 14.3-32 32v32H128c-35.3 0-64 28.7-64 64v64c0 35.3 28.7 64 64 64v576c0 35.3 28.7 64 64 64h448c35.3 0 64-28.7 64-64V320c35.3 0 64-28.7 64-64v-64c0-35.3-28.7-64-64-64zm-64 736c0 17.7-14.3 32-32 32H224c-17.7 0-32-14.3-32-32V320h64v480c0 17.7 14.3 32 32 32s32-14.3 32-32l.4-480H384v480c0 17.7 14.3 32 32 32s32-14.3 32-32l.4-480h64l-.4 480c0 17.7 14.3 32 32 32s32-14.3 32-32V320h64v544zm64-624c0 8.8-7.2 16-16 16H144c-8.8 0-16-7.2-16-16v-32c0-8.8 7.2-16 16-16h544c8.8 0 16 7.2 16 16v32z"/></svg><svg viewBox="0 0 767.5 1024" id="triangle-down" width="18" height="24" x="66" y="363"><path d="M0 384l383.8 383.8L767.5 384H0z"/></svg><svg viewBox="0 0 383.75 1024" id="triangle-left" width="9" height="24" x="101" y="363"><path d="M0 511.9l383.8 383.7V128.1L0 511.9z"/></svg><svg viewBox="0 0 383.875 1024" id="triangle-right" width="9" height="24" x="131" y="363"><path d="M.1 128.3L383.8 512 .1 895.8V128.3z"/></svg><svg viewBox="0 0 767.5 1024" id="triangle-up" width="18" height="24" x="156" y="363"><path d="M383.8 256L0 639.8h767.5L383.8 256z"/></svg><svg viewBox="0 0 896 1024" id="unfold" width="21" height="24" x="185" y="363"><path d="M384 384h128V192h128L448 0 256 192h128v192zm192-128v64h224L672 448H224L96 320h224v-64H0v64l160 160L0 640v64h320v-64H96l128-128h448l128 128H576v64h320v-64L736 480l160-160v-64H576zm-64 320H384v192H256l192 192 192-192H512V576z"/></svg><svg viewBox="0 0 896 1024" id="unmute" width="21" height="24" x="215" y="363"><path d="M128 384H0v256h128l256 192h64V192h-64L128 384zm410.5 37.5c-12.5-12.5-32.7-12.5-45.2 0s-12.5 32.7 0 45.2c24.9 25 24.9 65.6 0 90.6-12.5 12.5-12.5 32.7 0 45.2s32.7 12.5 45.2 0c50-50 50-131 0-181zM629 331c-12.5-12.5-32.7-12.5-45.2 0s-12.5 32.7 0 45.2c74.9 75 74.9 196.6 0 271.6-12.5 12.5-12.5 32.7 0 45.2s32.7 12.5 45.2 0c100-100 100-262 0-362zm90.5-90.5c-12.5-12.5-32.7-12.5-45.2 0s-12.5 32.7 0 45.2c124.9 125 124.9 327.6 0 452.6-12.5 12.5-12.5 32.7 0 45.2s32.7 12.5 45.2 0c150-149.9 150-393.1 0-543z"/></svg><svg viewBox="0 0 896 1024" id="versions" width="21" height="24" x="245" y="363"><path d="M0 704h128v-64H64V384h64v-64H0v384zm384-512v640h512V192H384zm384 512H512V320h256v384zm-576 64h128v-64h-64V320h64v-64H192v512z"/></svg><svg viewBox="0 0 640 1024" id="x" width="15" height="24" x="278" y="363"><path d="M640 320L512 192 320 384 128 192 0 320l192 192L0 704l128 128 192-192 192 192 128-128-192-192 192-192z"/></svg><svg viewBox="0 0 640 1024" id="zap" width="15" height="24" x="308" y="363"><path d="M640 448H384L576 0 0 576h256L64 1024l576-576z"/></svg></svg>