<svg xmlns="http://www.w3.org/2000/svg" width="426" height="426"><svg viewBox="0 0 1024 1024" id="alert" width="24" height="24" x="3" y="3"><path d="m1005.9 800.2l-438.3-767c-11.4-19.9-32.6-32.2-55.6-32.2s-44.2 12.3-55.6 32.2l-438.3 767c-11.3 19.9-11.2 44.2 0.3 63.9 11.4 19.8 32.5 31.9 55.3 31.9h876.6c22.8 0 43.9-12.1 55.3-31.9s11.6-44 0.3-63.9z m-429.9-32.2h-128v-128h128v128z m0-192h-128v-256h128v256z"/></svg><svg viewBox="0 0 960 1024" id="alignment-align" width="23" height="24" x="34" y="3"><path d="m192 64c-106.1 0-192 85.9-192 192s85.9 192 192 192c106.1 0 192-85.9 192-192s-85.9-192-192-192z m480 544l160-160h-448v448l160-160 288 288 128-128-288-288z"/></svg><svg viewBox="0 0 960 1024" id="alignment-aligned-to" width="23" height="24" x="64" y="3"><path d="m384 576l128-128 288 288 160-160v448h-448l160-160-288-288z m-192-128c-106.1 0-192-85.9-192-192s85.9-192 192-192c106.1 0 192 85.9 192 192s-85.9 192-192 192z"/></svg><svg viewBox="0 0 896 1024" id="alignment-unalign" width="21" height="24" x="95" y="3"><path d="m512 192l-128 128-256-256-128 128 256 256-128 128 64 64 384-384-64-64z m128 384l128-128-64-64-384 384 64 64 128-128 256 256 128-128-256-256z"/></svg><svg viewBox="0 0 640 1024" id="arrow-down" width="15" height="24" x="128" y="3"><path d="m448 448v-256h-256v256h-192l320 384 320-384h-192z"/></svg><svg viewBox="0 0 640 1024" id="arrow-left" width="15" height="24" x="158" y="3"><path d="m384 384v-192l-384 320 384 320v-192h256v-256h-256z"/></svg><svg viewBox="0 0 640 1024" id="arrow-right" width="15" height="24" x="188" y="3"><path d="m640 512l-384-320v192h-256v256h256v192l384-320z"/></svg><svg viewBox="0 0 384 1024" id="arrow-small-down" width="9" height="24" x="221" y="3"><path d="m256 448v-128h-128v128h-128l192 256 192-256h-128z"/></svg><svg viewBox="0 0 384 1024" id="arrow-small-left" width="9" height="24" x="251" y="3"><path d="m256 448v-128l-256 192 256 192v-128h128v-128h-128z"/></svg><svg viewBox="0 0 384 1024" id="arrow-small-right" width="9" height="24" x="281" y="3"><path d="m384 512l-256-192v128h-128v128h128v128l256-192z"/></svg><svg viewBox="0 0 384 1024" id="arrow-small-up" width="9" height="24" x="311" y="3"><path d="m192 320l-192 256h128v128h128v-128h128l-192-256z"/></svg><svg viewBox="0 0 640 1024" id="arrow-up" width="15" height="24" x="338" y="3"><path d="m320 192l-320 384h192v256h256v-256h192l-320-384z"/></svg><svg viewBox="0 0 1024 1024" id="beer" width="24" height="24" x="363" y="3"><path d="m896 256c-31 0-192 0-192 0v-128c0-71-158-128-352-128s-352 57-352 128v768c0 71 158 128 352 128s352-57 352-128v-128s160 0 192 0 64-30 64-64 0-350 0-384-29-64-64-64z m-704 576h-64v-512h64v512z m192 64h-64v-512h64v512z m192-64h-64v-512h64v512z m-224-640c-124 0-224-29-224-64s100-64 224-64 224 29 224 64-100 64-224 64z m480 448h-128v-256h128v256z"/></svg><svg viewBox="0 0 1024 1024" id="book" width="24" height="24" x="393" y="3"><path d="m768 576h-128c-34 0-64 32-64 64h256c0-34-32-64-64-64z m-55-416c-167 0-209 32-233 56-24-24-66-56-233-56s-247 46-247 78v586c29-16 119-48 214-56 115-9 234 9 234 32 0 16 8 31 31 32 0 0 0 0 1 0 0 0 0 0 1 0 23-1 31-16 31-32 0-23 119-41 234-32 94 7 185 40 214 56v-586c0-32-80-78-247-78z m-265 572c-30-16-103-28-192-28s-170 12-192 27c0 0 0-411 0-443s64-59 192-59 192 27 192 59 0 444 0 444z m448-1c-22-15-103-27-192-27s-162 12-192 28c0 0 0-412 0-444s64-59 192-59 192 27 192 59 0 443 0 443z m-128-283h-128c-34 0-64 32-64 64h256c0-34-32-64-64-64z m0-128h-128c-34 0-64 32-64 64h256c0-34-32-64-64-64z m-448 128h-128c-32 0-64 30-64 64h256c0-32-30-64-64-64z m0 128h-128c-32 0-64 30-64 64h256c0-32-30-64-64-64z m0-256h-128c-32 0-64 30-64 64h256c0-32-30-64-64-64z"/></svg><svg viewBox="0 0 384 1024" id="bookmark" width="9" height="24" x="11" y="33"><path d="m0 128v768l192-128 192 128v-768h-384z m316.3 196.8l-71.9 51.9 27.2 83.4c2.7 8.4-0.7 11.1-7.6 6.6l-72-52.1-72 52c-6.8 4.5-10.3 1.8-7.6-6.6l27.3-83.4-71.9-51.8c-6.5-5.2-5-9.3 3.9-9.3l88-0.1 27.1-83.1c2.8-8.8 7.6-8.8 10.4 0l27.2 83.1 87.9 0.1c9 0 10.4 4.1 4 9.3z"/></svg><svg viewBox="0 0 1024 1024" id="briefcase" width="24" height="24" x="33" y="33"><path d="m896 192h-256v-66c0-34.2-27.8-62-62-62h-132c-34.2 0-62 27.8-62 62v66h-256c-35.3 0-64 28.7-64 64v512c0 35.3 28.7 64 64 64h768c35.3 0 64-28.7 64-64v-512c0-35.3-28.7-64-64-64z m-448-48c0-8.8 7.2-16 16-16h96c8.8 0 16 7.2 16 16v48h-128v-48z m448 368h-320v64h-128v-64h-320v-256h64v192h640v-192h64v256z"/></svg><svg viewBox="0 0 896 1024" id="broadcast" width="21" height="24" x="65" y="33"><path d="m448 192c142 0 256 115 256 256 0 69-28 132-72 178l-16 93c91-56 152-156 152-271 0-177-143-320-320-320s-320 143-320 320c0 115 61 215 152 271l-16-93c-45-46-72-109-72-178 0-142 114-256 256-256z m-64 320c-36 0-64 29-64 64v128c0 36 30 64 64 64v256h128v-256c34 0 64-28 64-64v-128c0-35-28-64-64-64s-64 0-64 0-28 0-64 0z m192-128c0-71-57-128-128-128s-128 57-128 128 57 128 128 128 128-57 128-128z m-128-384c-247 0-448 201-448 448 0 197 128 363 305 423l-12-72c-135-60-229-194-229-351 0-212 172-384 384-384s384 172 384 384c0 157-94 291-229 351l-12 72c177-60 305-225 305-423 0-247-201-448-448-448z"/></svg><svg viewBox="0 0 896 1024" id="browser" width="21" height="24" x="95" y="33"><path d="m320 192h64v64h-64v-64z m-128 0h64v64h-64v-64z m-128 0h64v64h-64v-64z m768 640h-768v-512h768v512z m0-576h-384v-64h384v64z m64-64c0-35.3-28.6-64-64-64h-768c-35.4 0-64 28.7-64 64v640c0 35.4 28.6 64 64 64h768c35.4 0 64-28.6 64-64v-640z"/></svg><svg viewBox="0 0 733.886 1024" id="bug" width="17" height="24" x="126" y="33"><path d="m243.6 156.5c-52.9 56.8-38.3 147.5-38.3 147.5s54 64 160 64c106.1 0 160.1-64 160.1-64s14.3-89.5-37.4-146.3c32.4-18 51.4-44.1 43.6-61.8-9-20-48.4-21.8-88.3-4-14.8 6.6-27.4 15-37.2 23.9-12.5-2.3-25.7-3.8-40.8-3.8-14 0-26.5 1.3-38.3 3.3-9.7-8.8-22.1-16.9-36.5-23.4-39.9-17.7-79.4-15.9-88.3 4-7.7 17.3 10.3 42.7 41.4 60.6z m401.1 413.3c-8.2-1.8-16.1-2.8-23.7-3.5 0-2.2 0.4-4.2 0.4-6.4 0-33.6-4.8-65.6-12.5-96.1 16.5 1.4 37.4-2.4 58.6-11.8 39.9-17.7 65-48.3 56.1-68.2-8.9-20-48.4-21.7-88.2-4-18.7 8.4-33.8 19.5-44 31-7.8-18.3-16.5-35.8-26.8-51.8-30.2 25.2-87.4 62.8-167.1 71.1v321.8c0 0-0.3 32-32 32-31.8 0-32-32-32-32v-321.7c-79.8-8.3-137-45.9-167.1-71-9.9 15.3-18.4 32-26 49.3-10.2-10.6-24.6-20.8-41.9-28.6-39.9-17.7-79.4-15.9-88.3 4-8.9 19.9 16.3 50.4 56.1 68.2 19.9 8.8 39.6 12.8 55.5 12.1-7.6 30.4-12.5 62.3-12.5 95.8 0 2.2 0.4 4.3 0.5 6.5-6.7 0.8-13.7 1.8-20.8 3.3-52 10.7-91.8 37.6-88.8 59.8 2.9 22.3 47.5 31.5 99.5 20.7 6.8-1.4 13.5-3.2 19.8-5.1 9.2 40.8 23.8 78.7 44.1 111.3-12 6.1-24.5 15-36 26.6-31.9 31.9-44.8 70.7-28.9 86.6 16 15.9 54.7 3 86.5-28.8 9.4-9.4 16.9-19.3 22.7-29 43.5 42.6 98.1 68.1 157.6 68.1 60.3 0 115.7-26.2 159.5-69.9 5.9 10.3 13.7 20.8 23.6 30.7 31.8 31.8 70.6 44.8 86.6 28.8s3-54.6-28.9-86.5c-12.3-12.3-25.7-21.7-38.4-27.9 20.1-32.5 34.6-70.4 43.7-111.1 7.1 2.3 14.6 4.4 22.5 6.1 52.1 10.8 96.6 1.5 99.6-20.7 2.9-22.1-37-49-89-59.7z"/></svg><svg viewBox="0 0 1024 1024" id="calendar" width="24" height="24" x="153" y="33"><path d="m704 512h-64v128h64v-128z m-128 0h-64v128h64v-128z m128-192h-64v128h64v-128z m128 192h-64v128h64v-128z m-256 192h-64v128h64v-128z m192-704h-64v128h64v-128z m-512 0h-64v128h64v-128z m576 320h-64v128h64v-128z m-256 0h-64v128h64v-128z m-256 384h-64v128h64v-128z m-128-192h-64v128h64v-128z m128 0h-64v128h64v-128z m512-448v128h-192v-128h-320v128h-192v-128h-128v896h960v-896h-128z m64 832h-832v-640h832v640z m-704-192h-64v128h64v-128z m256-384h-64v128h64v-128z m0 384h-64v128h64v-128z m-128-384h-64v128h64v-128z m128 192h-64v128h64v-128z m256 192h-64v128h64v-128z"/></svg><svg viewBox="0 0 768 1024" id="check" width="18" height="24" x="186" y="33"><path d="m640 192l-384 384-128-128-128 128 256 256 512-512-128-128z"/></svg><svg viewBox="0 0 765.602 1024" id="checklist" width="18" height="24" x="216" y="33"><path d="m760.7 516.2l-49.8-49.6c-6.5-6.6-17-6.6-23.4 0l-105 104.9-120.1 120.4-93.1-93.1c-6.5-6.6-17-6.6-23.5 0l-49.7 49.6c-6.5 6.6-6.5 17.1 0 23.6l104.8 104.9 18 17.9 31.7 31.8c6.5 6.5 17.2 6.5 23.5 0l49.7-49.7 236.8-237.1c6.7-6.5 6.7-17 0.1-23.6z m-532.2 64.6l49.7-49.8c42.4-42.4 116.3-42.4 158.7 0.1l25.3 25.3 113.8-108.4v-320h-576v704h320l-91.5-92.1c-43.8-44-43.8-115.3 0-159.1z m-36.5-388.8h320v64h-320v-64z m0 128h320v64h-320v-64z m-64 192h-64v-64h64v64z m0-128h-64v-64h64v64z m0-128h-64v-64h64v64z m64 192h64v64h-64v-64z"/></svg><svg viewBox="0 0 640 1024" id="chevron-down" width="15" height="24" x="248" y="33"><path d="m512 320l-192 192-192-192-128 128 320 320 320-320-128-128z"/></svg><svg viewBox="0 0 448 1024" id="chevron-left" width="11" height="24" x="280" y="33"><path d="m448 320l-128-128-320 320 320 320 128-128-192-192 192-192z"/></svg><svg viewBox="0 0 448 1024" id="chevron-right" width="11" height="24" x="310" y="33"><path d="m128 192l-128 128 192 192-192 192 128 128 320-320-320-320z"/></svg><svg viewBox="0 0 640 1024" id="chevron-up" width="15" height="24" x="338" y="33"><path d="m320 256l-320 320 128 128 192-192 192 192 128-128-320-320z"/></svg><svg viewBox="0 0 640 1024" id="circle-slash" width="15" height="24" x="368" y="33"><path d="m320 192c-176.8 0-320 143.2-320 320 0 176.8 143.2 320 320 320 176.8 0 320-143.2 320-320 0-176.8-143.2-320-320-320z m0 128c27.7 0 53.7 6.1 77.4 16.6l-252.8 252.8c-10.5-23.7-16.6-49.7-16.6-77.4 0-106 85.9-192 192-192z m0 384c-28 0-54.5-6.4-78.6-17.1l253.9-252.5c10.6 23.8 16.7 49.9 16.7 77.6 0 106.1-85.9 192-192 192z"/></svg><svg viewBox="0 0 1024 1024" id="circuit-board" width="24" height="24" x="393" y="33"><path d="m320 256c35.3 0 64 28.7 64 64 0 35.3-28.7 64-64 64s-64-28.7-64-64c0-35.3 28.7-64 64-64z m640 512c0 106-86 192-192 192h-448l192-192h81.1c22.2 38.3 63.5 64 110.9 64 70.7 0 128-57.3 128-128s-57.3-128-128-128c-47.4 0-88.7 25.7-110.9 64h-145.1l-292 292c-55.2-33.8-92-94.6-92-164v-512c0-106 86-192 192-192v145.1c-38.3 22.2-64 63.5-64 110.9 0 70.7 57.3 128 128 128 47.3 0 88.6-25.6 110.7-63.8l162.4-0.2c22.2 38.3 63.5 64 110.9 64 70.7 0 128-57.3 128-128s-57.3-128-128-128c-47.4 0-88.8 25.8-110.9 64l-162.1 0.2c-11.2-19.5-27.5-35.8-47-47.1v-145.1h384c106 0 192 86 192 192v512z m-320-64c0-35.3 28.7-64 64-64s64 28.7 64 64c0 35.3-28.7 64-64 64s-64-28.7-64-64z m0-384c0-35.3 28.7-64 64-64s64 28.7 64 64c0 35.3-28.7 64-64 64s-64-28.7-64-64z"/></svg><svg viewBox="0 0 896 1024" id="clippy" width="21" height="24" x="5" y="63"><path d="m704 896h-640v-576h640v192h64v-320c0-35-29-64-64-64h-192c0-71-57-128-128-128s-128 57-128 128h-192c-35 0-64 29-64 64v704c0 35 29 64 64 64h640c35 0 64-29 64-64v-128h-64v128z m-512-704c29 0 29 0 64 0s64-29 64-64 29-64 64-64 64 29 64 64 32 64 64 64 33 0 64 0 64 29 64 64h-512c0-39 28-64 64-64z m-64 512h128v-64h-128v64z m448-128v-128l-256 192 256 192v-128h320v-128h-320z m-448 256h192v-64h-192v64z m320-448h-320v64h320v-64z m-192 128h-128v64h128v-64z"/></svg><svg viewBox="0 0 896 1024" id="clock" width="21" height="24" x="35" y="63"><path d="m384 576h256l64-64-64-64h-128v-192l-64-64-64 64v320z m64-512c-247.4 0-448 200.6-448 448 0 247.4 200.6 448 448 448 247.4 0 448-200.6 448-448 0-247.4-200.6-448-448-448z m0 768c-176.2 0-320-143.7-320-320 0-175.9 144.2-319.5 320-320 175.8 0.5 320 144.1 320 320 0 176.3-143.7 320-320 320z"/></svg><svg viewBox="0 0 1024 1024" id="cloud-download" width="24" height="24" x="63" y="63"><path d="m832 320c-8.7 0-17.1 1.4-25.6 2.6-48.8-114.3-162.3-194.6-294.4-194.6-132.2 0-245.6 80.3-294.4 194.6-8.4-1.2-16.8-2.6-25.6-2.6-106.1 0-192 85.9-192 192s85.9 192 192 192c20.5 0 39.9-4.2 58.4-10.4 34.1 37.8 80.9 63.2 133.6 70.9v-65.2c-49.8-10.4-91.6-42.9-112.6-87.9-21.9 17.6-49.2 28.6-79.4 28.6-70.7 0-128-57.4-128-128 0-70.7 57.3-128 128-128 25.3 0 48.6 7.6 68.4 20.1 20.9-120.3 125.2-212.1 251.6-212.1 126.5 0 229.8 92.2 250.5 212.8 20-13 43.9-20.8 69.5-20.8 70.6 0 128 57.3 128 128 0 70.6-57.4 128-128 128-10.2 0-20-1.5-29.6-3.7-29 40.8-76.5 67.7-130.4 67.7-11.1 0-21.6-1.6-32-4v64.9c10.4 1.7 21.1 3.1 32 3.1 61.2 0 116.5-24.6 156.9-64.4 1.1 0 2 0.4 3.1 0.4 106.1 0 192-85.9 192-192s-85.9-192-192-192z m-256 192h-128v320h-128l192 192 192-192h-128v-320z"/></svg><svg viewBox="0 0 1024 1024" id="cloud-upload" width="24" height="24" x="93" y="63"><path d="m512 384l-192 192h128v320h128v-320h128l-192-192z m320-64c-8.7 0-17.1 1.4-25.6 2.6-48.8-114.4-162.3-194.6-294.4-194.6-132.2 0-245.6 80.2-294.4 194.6-8.4-1.2-16.8-2.6-25.6-2.6-106.1 0-192 86-192 192 0 106.1 85.9 192 192 192 20.5 0 39.9-4.2 58.4-10.4 34.1 37.8 80.9 63.2 133.6 70.9v-65.2c-49.8-10.4-91.6-42.9-112.6-87.8-21.9 17.5-49.2 28.5-79.4 28.5-70.7 0-128-57.4-128-128 0-70.7 57.3-128 128-128 25.3 0 48.6 7.6 68.4 20.2 20.9-120.4 125.2-212.2 251.6-212.2 126.5 0 229.8 92.2 250.5 212.8 20-13 43.9-20.8 69.5-20.8 70.6 0 128 57.3 128 128 0 70.6-57.4 128-128 128-10.2 0-20-1.5-29.6-3.7-29 40.8-76.5 67.7-130.4 67.7-11.1 0-21.6-1.6-32-4v64.9c10.4 1.7 21.1 3.1 32 3.1 61.2 0 116.5-24.7 157-64.4 1 0 1.9 0.4 3 0.4 106.1 0 192-85.9 192-192 0-106-85.9-192-192-192z"/></svg><svg viewBox="0 0 896 1024" id="code" width="21" height="24" x="125" y="63"><path d="m608 192l-96 96 224 224-224 224 96 96 288-320-288-320z m-320 0l-288 320 288 320 96-96-224-224 224-224-96-96z"/></svg><svg viewBox="0 0 768 1024" id="color-mode" width="18" height="24" x="156" y="63"><path d="m0 128v768h768v-768h-768z m64 704v-640h640l-640 640z"/></svg><svg viewBox="0 0 896 1024" id="comment" width="21" height="24" x="185" y="63"><path d="m768 128h-640c-62 0-128 64-128 128v384c0 128 128 128 128 128h64v256l256-256c0 0 258 0 320 0s128-68 128-128v-384c0-62-64-128-128-128z"/></svg><svg viewBox="0 0 896 1024" id="comment-discussion" width="21" height="24" x="215" y="63"><path d="m256 512c0-64 0-192 0-192s-160 0-192 0-64 32-64 64 0 288 0 320 32 64 64 64 64 0 64 0v192l194-192s162 0 192 0 62-32 62-64 0-64 0-64-128 0-192 0-128-64-128-128z m576-384c-32 0-416 0-448 0s-64 32-64 64 0 288 0 320 32 64 64 64 190 0 190 0l194 192v-192s32 0 64 0 64-32 64-64 0-288 0-320-32-64-64-64z"/></svg><svg viewBox="0 0 1024 1024" id="credit-card" width="24" height="24" x="243" y="63"><path d="m128 704h128v-64h-128v64z m192 0h128v-64h-128v64z m64-192h-256v64h256v-64z m-128-64h64l128-128h-64l-128 128z m192 128h192v-64h-192v64z m512-384c-32 0-864 0-896 0s-64 32-64 64 0 480 0 512 32 64 64 64 864 0 896 0 64-32 64-64 0-480 0-512-32-64-64-64z m0 256v288s0 32-32 32h-832c-32 0-32-32-32-32v-288h64l128-128h-192v-32s0-32 32-32h832c32 0 32 32 32 32v32h-384l-128 128h512z"/></svg><svg viewBox="0 0 512 1024" id="dash" width="12" height="24" x="279" y="63"><path d="m0 448v128h512v-128h-512z"/></svg><svg viewBox="0 0 832 1024" id="dashboard" width="20" height="24" x="305" y="63"><path d="m416 464.5c-61.6 0-111.5 49.9-111.5 111.5s49.9 111.5 111.5 111.5 111.5-49.9 111.5-111.5c0-8.5-1.1-16.7-3-24.7 81.6-94.9 208-243 275.5-327.3 23.1-28.9-2.3-56.2-32-32-85.2 69.4-232.3 194.7-326.9 275.6-8.1-1.9-16.5-3.1-25.1-3.1z m31.9-208.6c0-17.7-14.4-32-32-32s-32 14.3-32 32 14.3 32 32 32 32-14.4 32-32z m192 256c0 17.6 14.4 32 32 32s32-14.4 32-32-14.4-32-32-32-32 14.3-32 32z m-352-256c-17.7 0-32 14.3-32 32s14.3 32 32 32 32-14.4 32-32-14.4-32-32-32z m-64 128c0-17.7-14.4-32-32-32s-32 14.3-32 32 14.3 32 32 32 32-14.4 32-32z m-96 128c0 17.6 14.3 32 32 32s32-14.4 32-32-14.4-32-32-32-32 14.3-32 32z m448-224c0-17.7-14.4-32-32-32s-32 14.3-32 32 14.4 32 32 32 32-14.4 32-32z m217 48.8l-68.8 89.9c7.5 27.2 11.9 55.8 11.9 85.4 0 176.8-143.3 320-320 320s-320-143.2-320-320c0-176.7 143.3-320 320-320 65.9 0 127 20 177.9 54.1l79.2-60.6c-70.7-55.9-159.8-89.5-257.1-89.5-229.7 0-416 186.3-416 416s186.3 416 416 416 416-186.2 416-416c0-62.7-14.2-122-39.1-175.3z"/></svg><svg viewBox="0 0 768 1024" id="database" width="18" height="24" x="336" y="63"><path d="m384 960c-212 0-384-57.4-384-128 0-38.6 0-80.9 0-128 0-11.1 5.6-21.7 13.6-32 42.8 55.1 191.7 96 370.4 96s327.6-40.9 370.4-96c8 10.3 13.6 20.9 13.6 32 0 37.1 0 76.4 0 128 0 70.6-172 128-384 128z m0-256c-212 0-384-57.4-384-128 0-38.7 0-80.8 0-128 0-6.8 2.6-13.4 6-19.9l0 0c1.9-4.1 4.5-8.1 7.6-12.1 42.8 55.1 191.7 96 370.4 96s327.6-40.9 370.4-96c3.1 4 5.7 8 7.6 12.1l0 0c3.4 6.5 6 13.1 6 19.9 0 37.1 0 76.3 0 128 0 70.6-172 128-384 128z m0-256c-212 0-384-57.3-384-128 0-20.2 0-41.6 0-64 0-20.3 0-41.5 0-64 0-70.7 172-128 384-128 212 0 384 57.3 384 128 0 20 0 41.2 0 64 0 19.6 0 40.3 0 64 0 70.7-172 128-384 128z m0-320c-141.4 0-256 28.6-256 64s114.6 64 256 64 256-28.6 256-64-114.6-64-256-64z"/></svg><svg viewBox="0 0 1024 1024" id="device-camera" width="24" height="24" x="363" y="63"><path d="m512 384c-70.7 0-128 57.3-128 128s57.3 128 128 128c5.7 0 11.3-0.4 16.9-1.1-46.4-7.1-81.9-47.1-81.9-95.4 0-53.3 43.2-96.5 96.5-96.5 48.3 0 88.3 35.5 95.4 81.9 0.7-5.6 1.1-11.2 1.1-16.9 0-70.7-57.3-128-128-128z m384-128h-128l-128-128h-256l-128 128h-128c-35.3 0-64 28.7-64 64v448c0 35.3 28.7 64 64 64h768c35.3 0 64-28.7 64-64v-448c0-35.3-28.7-64-64-64z m-480-64h192l64 64h-320l64-64z m-255.9 576c-17.7 0-32.1-14.4-32.1-32.1v-287.9h64v-64h-64v-31.9c0-17.7 14.4-32.1 32.1-32.1h182.6c-4 3.5-7.9 7.2-11.7 11-100 100-100 262 0 362l75 75h-245.9z m351.9-64c-106 0-192-86-192-192s86-192 192-192 192 86 192 192-86 192-192 192z m320-224l-150.7-160h150.7v160z"/></svg><svg viewBox="0 0 1024 1024" id="device-camera-video" width="24" height="24" x="393" y="63"><path d="m576 192c-35.3 0-64 28.7-64 64s28.7 64 64 64 64-28.7 64-64-28.7-64-64-64z m320 192l-128 128v-64c0-30.6-21.5-56.2-50.2-62.5 31.2-34.1 50.2-79.6 50.2-129.5 0-106-86-192-192-192-101.1 0-184 78.2-191.4 177.4-34.1-30.7-79.2-49.4-128.6-49.4-106 0-192 86-192 192 0 106 86 192 192 192h-64v128h64v128c0 35.3 28.7 64 64 64h384c35.3 0 64-28.7 64-64v-64l128 128h64v-512h-64z m-640-64c-35.3 0-64 28.7-64 64s28.7 64 64 64v64c-70.7 0-128-57.3-128-128 0-70.7 57.3-128 128-128s128 57.3 128 128h-64c0-35.3-28.7-64-64-64z m320 384h-128v-128h128v128z m128-109.2c-33.5-33.6-70.3-70.3-73.4-73.4-5.8-5.8-13.8-9.4-22.6-9.4h-192c-17.7 0-32 14.3-32 32v192c0 8.3 3.2 15.9 8.4 21.6 0.5 0.6 39.1 39.2 74.4 74.4h-114.8c-17.7 0-32-14.3-32-32v-320c0-17.7 14.3-32 32-32h320c17.7 0 32 14.3 32 32v114.8z m-128-210.8c-70.7 0-128-57.3-128-128 0-70.7 57.3-128 128-128s128 57.3 128 128c0 70.7-57.3 128-128 128z m320 320l-64-64 0.1-128.1 63.9-63.9v256z"/></svg><svg viewBox="0 0 1024 1024" id="device-desktop" width="24" height="24" x="3" y="93"><path d="m960 64c-32 0-864 0-896 0s-64 32-64 64 0 544 0 576 32 64 64 64 320 0 320 0-192 64-192 128c0 32 32 64 64 64s480 0 512 0 64-32 64-64c0-64-192-128-192-128s288 0 320 0 64-32 64-64 0-544 0-576-32-64-64-64z m0 640h-896v-576h896v576z m-64-512h-192c-384 64-542 300-576 384v64h768v-448z"/></svg><svg viewBox="0 0 640 1024" id="device-mobile" width="15" height="24" x="38" y="93"><path d="m576 0h-512c-35.3 0-64 28.7-64 64v896c0 35.4 28.7 64 64 64h512c35.4 0 64-28.6 64-64v-896c0-35.3-28.6-64-64-64z m-288 64h64c17.6 0 32 14.3 32 32s-14.4 32-32 32h-64c-17.7 0-32-14.3-32-32s14.3-32 32-32z m64 896h-64c-17.7 0-32-14.4-32-32s14.3-32 32-32h64c17.6 0 32 14.4 32 32s-14.4 32-32 32z m224-128h-512v-640h512v640z"/></svg><svg viewBox="0 0 896 1024" id="diff" width="21" height="24" x="65" y="93"><path d="m448 256h-128v128h-128v128h128v128h128v-128h128v-128h-128v-128z m-256 640h384v-128h-384v128z m448-896h-512v64h480l224 224v608h64v-640l-256-256z m-640 128v896h768v-704l-192-192h-576z m704 832h-640v-768h480l160 160v608z"/></svg><svg viewBox="0 0 896 1024" id="diff-added" width="21" height="24" x="95" y="93"><path d="m512 320h-128v128h-128v128h128v128h128v-128h128v-128h-128v-128z m320-256c-32 0-736 0-768 0s-64 32-64 64 0 736 0 768 32 64 64 64 736 0 768 0 64-32 64-64 0-736 0-768-32-64-64-64z m-64 736c0 16-17 32-32 32s-558 0-576 0-32-12-32-32c0-16 0-560 0-576s16-32 32-32 561 0 576 0 32 16 32 32 0 560 0 576z"/></svg><svg viewBox="0 0 896 1024" id="diff-ignored" width="21" height="24" x="125" y="93"><path d="m832 64h-768c-32 0-64 32-64 64v768c0 32 32 64 64 64h768c32 0 64-32 64-64v-768c0-32-32-64-64-64z m-64 736c0 16-17 32-32 32h-576c-18 0-32-12-32-32v-576c0-16 16-32 32-32h576c15 0 32 16 32 32v576z m-512-194v98h98l286-286v-98h-98l-286 286z"/></svg><svg viewBox="0 0 896 1024" id="diff-modified" width="21" height="24" x="155" y="93"><path d="m832 64h-768c-32 0-64 32-64 64v768c0 32 32 64 64 64h768c32 0 64-32 64-64v-768c0-32-32-64-64-64z m-64 736c0 16-17 32-32 32h-576c-18 0-32-12-32-32v-576c0-16 16-32 32-32h576c15 0 32 16 32 32v576z m-320-416c-71 0-128 57-128 128s57 128 128 128 128-57 128-128-57-128-128-128z"/></svg><svg viewBox="0 0 896 1024" id="diff-removed" width="21" height="24" x="185" y="93"><path d="m832 64h-768c-32 0-64 32-64 64v768c0 32 32 64 64 64h768c32 0 64-32 64-64v-768c0-32-32-64-64-64z m-64 736c0 16-17 32-32 32h-576c-18 0-32-12-32-32v-576c0-16 16-32 32-32h576c15 0 32 16 32 32v576z m-512-224h384v-128h-384v128z"/></svg><svg viewBox="0 0 896 1024" id="diff-renamed" width="21" height="24" x="215" y="93"><path d="m832 64h-768c-32 0-64 32-64 64v768c0 32 32 64 64 64h768c32 0 64-32 64-64v-768c0-32-32-64-64-64z m-64 736c0 16-17 32-32 32h-576c-18 0-32-12-32-32v-576c0-16 16-32 32-32h576c15 0 32 16 32 32v576z m-320-352h-192v128h192v128l256-192-256-192v128z"/></svg><svg viewBox="0 0 768 1024" id="ellipsis" width="18" height="24" x="246" y="93"><path d="m640 320c-64 0-448 0-512 0s-128 64-128 128 0 64 0 128 64 128 128 128 448 0 512 0 128-64 128-128 0-64 0-128-64-128-128-128z m-384 256h-128v-128h128v128z m192 0h-128v-128h128v128z m192 0h-128v-128h128v128z"/></svg><svg viewBox="0 0 1024 1024" id="eye" width="24" height="24" x="273" y="93"><path d="m512 128c-192 0-416 128-512 384 96 192 288 320 512 320s416-128 512-320c-96-256-320-384-512-384z m0 640c-192 0-352-128-384-256 32-128 192-256 384-256s352 128 384 256c-32 128-192 256-384 256z m0-448c-20 0-38 4-56 9 33 15 56 48 56 87 0 53-43 96-96 96-39 0-72-23-87-56-5 18-9 36-9 56 0 106 86 192 192 192s192-86 192-192-86-192-192-192z"/></svg><svg viewBox="0 0 768 1024" id="file-binary" width="18" height="24" x="306" y="93"><path d="m0 960v-896h576l192 192v704z m704-672l-160-160h-480v768h640z m-384 224h-192v-256h192z m-64-192h-64v128h64z m0 448h64v64h-192v-64h64v-128h-64v-64h128z m256-320h64v64h-192v-64h64v-128h-64v-64h128z m64 384h-192v-256h192z m-64-192h-64v128h64z"/></svg><svg viewBox="0 0 768 1024" id="file-code" width="18" height="24" x="336" y="93"><path d="m288 384l-160 160 160 160 64-64-96-96 96-96z m128 64l96 96-96 96 64 64 160-160-160-160z m160-384h-576v896h768v-704z m128 832h-640v-768h480l160 160z"/></svg><svg viewBox="0 0 896 1024" id="file-directory" width="21" height="24" x="365" y="93"><path d="m832 192c-32 0-336 0-352 0s-32-16-32-32 0 0 0-32-32-64-64-64-288 0-320 0-64 32-64 64 0 704 0 704h896s0-544 0-576-32-64-64-64z m-448 0h-320s0-15 0-32 16-32 32-32 241 0 256 0 32 15 32 32 0 32 0 32z"/></svg><svg viewBox="0 0 768 1024" id="file-media" width="18" height="24" x="396" y="93"><path d="m576 64h-576v896h768v-704z m128 832h-640v-768h480l160 160z m-576-640v512h128c0-71 57-128 128-128-71 0-128-57-128-128s57-128 128-128 128 57 128 128-57 128-128 128c71 0 128 57 128 128h128v-384l-128-128z"/></svg><svg viewBox="0 0 768 1024" id="file-pdf" width="18" height="24" x="6" y="123"><path d="m576 64h-576v896h768v-704z m-512 64h256c-13 4-27 15-35 43-13 49-7 131 16 209-24 81-123 277-129 289-16 4-66 23-108 59z m283 307c58 150 95 150 135 168-84 13-148 22-232 60-4 6 76-146 97-228z m357 461h-640c1 0 1 0 2 0 34 0 85-21 180-182 39-16 72-27 79-29 59-15 125-27 187-34 55 28 127 46 168 49 10 0 16-2 24-2z m0-311c-24-14-54-25-89-25-24 0-51 2-79 5-27-13-92-33-147-190 17-104 13-174 13-174 6-53-24-73-52-73h194l160 160z"/></svg><svg viewBox="0 0 896 1024" id="file-submodule" width="21" height="24" x="35" y="123"><path d="m832 512c-32 0-192 0-192 0 0-32-32-64-64-64s-96 0-128 0-64 32-64 64 0 320 0 320h512s0-224 0-256-32-64-64-64z m-256 64h-128s0-17 0-32 15-32 32-32 48 0 64 0 32 15 32 32 0 32 0 32z m256-320c-32 0-336 0-352 0s-32-17-32-32 0 0 0-32-32-64-64-64-288 0-320 0-64 32-64 64 0 640 0 640h320s0-352 0-384 32-64 64-64 224 0 256 0 64 32 64 64h192s0-96 0-128-32-64-64-64z m-448 0h-320s0-16 0-32 16-32 32-32 240 0 256 0 32 17 32 32 0 32 0 32z"/></svg><svg viewBox="0 0 896 1024" id="file-symlink-directory" width="21" height="24" x="65" y="123"><path d="m832 192h-352c-16 0-32-16-32-32s0 0 0-32-32-64-64-64h-320c-32 0-64 32-64 64s0 704 0 704h896s0-544 0-576-32-64-64-64z m-768-32c0-17 16-32 32-32h256c15 0 32 15 32 32s0 32 0 32h-320s0-15 0-32z m384 544v-128c-125 0-224 56-256 192 0-209 107-320 256-320 0-49 0-128 0-128l256 192-256 192z"/></svg><svg viewBox="0 0 768 1024" id="file-symlink-file" width="18" height="24" x="96" y="123"><path d="m576 64h-576v896h768v-704z m128 832h-640v-768h480l160 160z m-320-448c-149 0-256 111-256 320 32-136 131-192 256-192v128l256-192-256-192z"/></svg><svg viewBox="0 0 768 1024" id="file-text" width="18" height="24" x="126" y="123"><path d="m448 256h-320v64h320z m128-192h-576v896h768v-704z m128 832h-640v-768h480l160 160z m-576-128h512v-64h-512z m0-128h512v-64h-512z m0-128h512v-64h-512z"/></svg><svg viewBox="0 0 768 1024" id="file-zip" width="18" height="24" x="156" y="123"><path d="m320 576v-64h-64v64z m0-128v-64h-64v64z m0-128v-64h-64v64z m-128 64h64v-64h-64z m384-320h-576v896h768v-704z m128 832h-640v-768h192v64h64v-64h224l160 160z m-512-640h64v-64h-64z m0 256h64v-64h-64z m0 128l-64 64v128h256v-128l-64-64h-64v-64h-64z m128 64v64h-128v-64z"/></svg><svg viewBox="0 0 1024 1024" id="flame" width="24" height="24" x="183" y="123"><path d="m433 45c50 134 24 207-32 265-61 64-156 112-223 206-89 125-104 400 217 472-135-71-164-277-18-406-38 125 32 205 119 176 85-29 141 32 139 102-1 48-20 89-69 112 209-37 293-210 293-342 0-174-155-198-77-344-93 8-125 69-116 169 6 66-63 111-114 81-41-25-40-73-4-109 77-76 107-251-115-382z"/></svg><svg viewBox="0 0 896 1024" id="fold" width="21" height="24" x="215" y="123"><path d="m896 256h-224l-64 64h192l-128 128h-448l-128-128h192l-64-64h-224v64l160 160-160 160v64h224l64-64h-192l128-128h448l128 128h-192l64 64h224v-64l-160-160 160-160v-64z m-256-64h-128v-192h-128v192h-128l192 192 192-192z m-384 576h128v192h128v-192h128l-192-192-192 192z"/></svg><svg viewBox="0 0 896 1024" id="gear" width="21" height="24" x="245" y="123"><path d="m447.9 350c-89.4 0-161.9 72.5-161.9 162 0 89.4 72.5 162.1 161.9 162.1 89.5 0 161.5-72.7 161.5-162.1 0-89.5-72-162-161.5-162z m324.7 255.1l-29.2 70.3 52.1 102.2 6.9 13.5-72.2 72.2-118.4-55.9-70.4 28.9-35.6 109.2-4.6 14.5h-102l-44.2-123.3-70.3-29-102.4 51.9-13.5 6.8-72.2-72.1 55.9-118.5-29-70.3-109-35.6-14.5-4.7v-102l123.4-44.2 29-70.2-51.9-102.5-6.9-13.4 72.1-72.1 118.6 55.9 70.2-29 35.7-109.2 4.6-14.5h102l44.1 123.5 70.2 29 102.4-52 13.6-6.8 72.2 72-55.9 118.5 28.9 70.3 109.3 35.7 14.4 4.6v101.9l-123.4 44.4z"/></svg><svg viewBox="0 0 896 1024" id="gift" width="21" height="24" x="275" y="123"><path d="m448 960h320v-320h-320v320z m-384 0h320v-320h-320v320z m383.8-583.8c31.4-3.5 66.8-7.4 87.3-9.7 83.9-9.4 159.4-84.9 168.7-168.7 9.3-83.8-51-144.2-134.7-134.8-65.4 7.3-125.3 55-153.1 115.4-27.8-60.4-87.7-108.1-153.1-115.4-83.7-9.4-144.1 51-134.7 134.8 9.3 83.8 84.9 159.3 168.6 168.7 20.6 2.3 56 6.3 87.5 9.7-0.5 4.2-0.3 7.8-0.3 7.8h64c0 0 0.3-3.6-0.2-7.8z m107.6-235.5c45.2-5.1 78 27.6 72.9 72.9-5 45.3-45.9 86.1-91.2 91.2-45.3 5-78-27.6-72.9-72.9 5-45.3 45.9-86.2 91.2-91.2z m-260.5 164.1c-45.2-5.1-86.1-45.9-91.1-91.2-5.1-45.4 27.6-78 72.8-72.9 45.3 5 86.1 45.9 91.2 91.2 5.1 45.3-27.6 77.9-72.9 72.9z m153.1 79.2v192h384v-192h-384z m-448 192h384v-192h-384v192z"/></svg><svg viewBox="0 0 768 1024" id="gist" width="18" height="24" x="306" y="123"><path d="m416 384l96 96-96 96 64 64 160-160-160-160-64 64z m-416-320v832h768v-832h-768z m704 768h-640v-704h640v704z m-352-256l-96-96 96-96-64-64-160 160 160 160 64-64z"/></svg><svg viewBox="0 0 896 1024" id="gist-secret" width="21" height="24" x="335" y="123"><path d="m193 704l128 192h-256l-65-256 257-64-64 128z m448-128l64 128-128 192h256l64-256-256-64z m-84 0h-216l44 102-64 218h256l-64-218 44-102z m84-192h-384l-128 64h640l-128-64z m-64-256l-128 64-128-64-64 192h384l-64-192z"/></svg><svg viewBox="0 0 640 1024" id="git-branch" width="15" height="24" x="368" y="123"><path d="m512 192c-71 0-128 57-128 128 0 47 26 88 64 110v18c0 64-64 128-128 128-53 0-95 11-128 29v-303c38-22 64-63 64-110 0-71-57-128-128-128s-128 57-128 128c0 47 26 88 64 110v419c-38 22-64 63-64 110 0 71 57 128 128 128s128-57 128-128c0-34-13-64-34-87 19-23 49-41 98-41 128 0 256-128 256-256v-18c38-22 64-63 64-110 0-71-57-128-128-128z m-384-64c35 0 64 29 64 64s-29 64-64 64-64-29-64-64 29-64 64-64z m0 768c-35 0-64-29-64-64s29-64 64-64 64 29 64 64-29 64-64 64z m384-512c-35 0-64-29-64-64s29-64 64-64 64 29 64 64-29 64-64 64z"/></svg><svg viewBox="0 0 896 1024" id="git-commit" width="21" height="24" x="395" y="123"><path d="m694.9 448c-28.5-110.2-127.8-192-246.9-192-119.1 0-218.4 81.8-246.9 192h-201.1v128h201.1c28.5 110.3 127.8 192 246.9 192 119.1 0 218.4-81.7 246.9-192h201.1v-128h-201.1z m-246.9 192c-70.7 0-128-57.4-128-128 0-70.7 57.3-128 128-128 70.6 0 128 57.3 128 128 0 70.6-57.4 128-128 128z"/></svg><svg viewBox="0 0 896 1024" id="git-compare" width="21" height="24" x="5" y="153"><path d="m832 722s0-306 0-402-96-192-192-192c-64 0-64 0-64 0v-128l-192 192 192 192v-128s32 0 64 0 64 32 64 64 0 402 0 402c-38 22-64 63-64 110 0 71 57 128 128 128s128-57 128-128c0-47-26-88-64-110z m-64 174c-35 0-64-29-64-64s29-64 64-64 64 29 64 64-29 64-64 64z m-448-128s-32 0-64 0-64-32-64-64 0-402 0-402c38-22 64-63 64-110 0-71-57-128-128-128s-128 57-128 128c0 47 26 88 64 110 0 0 0 306 0 402s96 192 192 192c64 0 64 0 64 0v128l192-192-192-192v128z m-192-512c-35 0-64-29-64-64s29-64 64-64 64 29 64 64-29 64-64 64z"/></svg><svg viewBox="0 0 768 1024" id="git-merge" width="18" height="24" x="36" y="153"><path d="m640 448c-47.6 0-88.6 26.3-110.6 64.9-5.8-0.4-11.4-0.9-17.4-0.9-131.1 0-255.4-99.8-300.8-223.4 27.3-23.5 44.8-57.9 44.8-96.6 0-70.7-57.3-128-128-128s-128 57.3-128 128c0 47.2 25.8 88.1 64 110.3v419.5c-38.2 22.1-64 63-64 110.2 0 70.6 57.3 128 128 128s128-57.4 128-128c0-47.2-25.8-88.1-64-110.2v-230.3c84.2 89 200.4 148.5 320 148.5 6.4 0 11.6-0.4 17.4-0.6 22.1 38.4 63.1 64.6 110.6 64.6 70.6 0 128-57.4 128-128 0-70.7-57.4-128-128-128z m-512 448c-35.3 0-64-28.6-64-64 0-35.3 28.7-64 64-64 35.4 0 64 28.7 64 64 0 35.4-28.6 64-64 64z m0-640c-35.3 0-64-28.6-64-64s28.7-64 64-64c35.4 0 64 28.6 64 64s-28.6 64-64 64z m512 384c-35.3 0-64-28.6-64-64 0-35.4 28.7-64 64-64 35.4 0 64 28.6 64 64 0 35.4-28.6 64-64 64z"/></svg><svg viewBox="0 0 768 1024" id="git-pull-request" width="18" height="24" x="66" y="153"><path d="m704 722s0-306 0-402-96-192-192-192c-64 0-64 0-64 0v-128l-192 192 192 192v-128s32 0 64 0 64 32 64 64 0 402 0 402c-38 22-64 63-64 110 0 71 57 128 128 128s128-57 128-128c0-47-26-88-64-110z m-64 174c-35 0-64-29-64-64s29-64 64-64 64 29 64 64-29 64-64 64z m-512-832c-71 0-128 57-128 128 0 47 26 88 64 110v419c-38 22-64 63-64 110 0 71 57 128 128 128s128-57 128-128c0-47-26-88-64-110v-419c38-22 64-63 64-110 0-71-57-128-128-128z m0 832c-35 0-64-29-64-64s29-64 64-64 64 29 64 64-29 64-64 64z m0-640c-35 0-64-29-64-64s29-64 64-64 64 29 64 64-29 64-64 64z"/></svg><svg viewBox="0 0 1024 1024" id="globe" width="24" height="24" x="93" y="153"><path d="m512 128c-212.1 0-384 171.9-384 384s171.9 384 384 384c26 0 51.3-2.6 75.8-7.5-9.9-4.7-10.9-40.2-1.2-60.4 10.9-22.5 45-79.5 11.3-98.6s-24.4-27.7-45-49.9-12.2-25.4-13.5-31.1c-4.5-19.5 19.8-48.7 21-51.7s1.1-14.3 0.7-17.7-15.3-12.3-19.1-12.7-5.6 6-10.9 6.4-28.1-13.9-33-17.7-7.1-12.7-13.8-19.5-7.5-1.5-18-5.6-44.3-16.5-70.2-27-28.1-25.2-28.5-35.6-15.7-25.5-22.9-36.4c-7.2-10.9-8.6-25.9-11.2-22.5s13.5 42.8 10.9 43.9-8.3-10.9-15.8-20.6 7.9-4.5-16.1-51.8 7.5-71.3 9-96 20.3 9 10.5-6.7 0.8-48.8-6.7-60.8-50.3 13.5-50.3 13.5c1.1-11.6 37.5-31.5 63.8-49.9s42.2-4.1 63.3 2.7 22.5 4.5 15.4-2.3 3-10.1 19.5-7.5 21 22.5 46.1 20.6 2.7 4.9 6 11.3-3.7 5.6-20.2 16.9 0.4 11.2 29.6 32.6 20.3-14.3 17.3-30 21.3-3.4 21.3-3.4c18 12 14.7 0.7 27.8 4.8s48.7 34.2 48.7 34.2c-44.6 24.4-16.5 27-9 32.6s-15.3 16.5-15.3 16.5c-9.4-9.3-10.9 0.4-16.9 3.8s-0.4 12-0.4 12c-31 4.9-24 37.5-23.6 45.4s-19.9 19.8-25.1 31.1 13.5 35.6 3.7 37.1-19.5-36.7-72-22.5c-15.8 4.3-51 22.5-32.2 59.6s49.8-10.5 60.3-5.2-3 28.9-0.7 29.2 29.6 1.1 31.1 33 41.6 29.3 50.3 30 37.5-23.6 41.6-24.7 20.6-15 56.6 5.6 54.4 17.6 66.8 26.3 3.7 25.8 15.3 31.5 58.2-1.9 69.8 17.2-48 115.1-66.8 125.6-27.3 34.5-46.1 49.9-45 34.4-69.7 49.1c-22 13.1-25.9 36.4-35.7 43.8 171.9-38.2 300.4-191.5 300.4-374.9 0-212.1-171.9-384-384-384z m90 360.4c-5.2 1.5-16.1 11.2-42.7-4.5s-45-12.8-47.3-15.4c0 0-2.2-6.4 9.4-7.5 23.8-2.3 54 22.1 60.7 22.5s10.2-6.7 22.2-2.9c12 3.9 3 6.3-2.3 7.8z m-125.6-322.1c-2.6-2 2.1-4.1 5-7.9 1.6-2.2 0.4-5.8 2.5-7.9 5.6-5.6 33.4-13.5 27.9 1.9-5.4 15.4-31.3 16.9-35.4 13.9z m67.1 48.7c-9.4-0.4-31.4-2.7-27.4-6.7 15.9-15.8-6-20.3-19.5-21.4s-19.1-8.6-12.3-9.4 33.7 0.4 38.2 4.1 28.9 13.5 30.4 20.7 0 13.1-9.4 12.7z m81.4-2.6c-7.5 6-45.3-21.6-52.5-27.8-31.5-27-48.4-18-55-22.5-6.6-4.5-4.3-10.5 5.9-19.5s38.6 3 55.1 4.9 35.6 14.6 36 29.8c0.4 15.1 18 29.1 10.5 35.1z"/></svg><svg viewBox="0 0 1024 1024" id="graph" width="24" height="24" x="123" y="153"><path d="m704 256h-192v640h192v-640z m256 192h-192v448h192v-448z m-896 512v-128h64v-64h-64v-128h64v-64h-64v-128h64v-64h-64v-128h64v-64h-64v-128h64v-64h-128v1024h1024v-64h-960z m384-384h-192v320h192v-320z"/></svg><svg viewBox="0 0 768.199 1024" id="heart" width="18" height="24" x="156" y="153"><path d="m384 864c399-314 384-425 384-512s-72-192-192-192-192 128-192 128-72-128-192-128-192 105-192 192-15 198 384 512z"/></svg><svg viewBox="0 0 896 1024" id="history" width="21" height="24" x="185" y="153"><path d="m448 64c-90.9 0-175.3 27.5-245.9 74.1l-74.1-74.1v256h256l-88-88c45.4-24.7 96.7-40 152-40 176.8 0 320 143.2 320 320 0 176.8-143.2 320-320 320-176.8 0-320-143.2-320-320 0-45.6 9.8-88.8 27-128h-91v-99.4c-39.7 66.9-64 144-64 227.4 0 247.4 200.6 448 448 448 247.4 0 448-200.6 448-448 0-247.4-200.6-448-448-448z m-1 767l65-63v-192h128l64-64-64-64h-128l-64-64-128 128 64 64v192l63 63z"/></svg><svg viewBox="0 0 1024 1024" id="home" width="24" height="24" x="213" y="153"><path d="m192 576l64 384h192v-320h128v320h192l64-384-320-320-320 320z m640-192v-256h-128l0.3 128.3-192.3-192.3-512 512h128l384-384 384 384h128l-192-192z"/></svg><svg viewBox="0 0 639.875 1024" id="horizontal-rule" width="15" height="24" x="248" y="153"><path d="m63.9 448h128v128h64v-383.9h-64v191.9h-128v-191.9h-63.9v383.9h63.9v-128z m576 128v-128h-64v128h64z m0-192v-127.9h-64v127.9h64z m-192 0v-127.9h128v-64h-192v383.9h64v-128h128v-64h-128z m-447.9 448h639.9v-128h-639.9v128z"/></svg><svg viewBox="0 0 768 1024" id="hourglass" width="18" height="24" x="276" y="153"><path d="m571 512c118-85 197-240 197-384 0-71-172-128-384-128s-384 57-384 128c0 144 80 299 197 384-118 85-197 240-197 384 0 71 172 128 384 128s384-57 384-128c0-144-80-299-197-384z m-187-448c141 0 256 29 256 64s-115 64-256 64-256-29-256-64 115-64 256-64z m-64 706c-154 7-238 40-253 82 16-114 75-189 141-251 73-68 112-60 112-103v273z m-105-352c-70-55-122-130-142-215 70 32 183 53 311 53s241-21 311-53c-20 85-72 160-142 215-24-17-70-34-169-34s-145 17-169 34z m233 352v-273c0 43 39 35 112 103 66 62 125 138 141 251-14-41-99-75-253-82z"/></svg><svg viewBox="0 0 1024 1024" id="hubot" width="24" height="24" x="303" y="153"><path d="m512 64c-283 0-512 229-512 512 0 0 0 192 0 256s64 128 128 128 704 0 768 0 128-64 128-128 0-256 0-256c0-283-229-512-512-512z m96 768h-192c-18 0-32-14-32-32s14-32 32-32h192c18 0 32 14 32 32s-14 32-32 32z m288-128c0 32-32 64-64 64s-128 0-128 0c0-32-32-64-64-64s-224 0-256 0-64 32-64 64c0 0-96 0-128 0s-64-32-64-64 0-360 0-360c78-129 220-216 384-216s306 87 384 216c0 0 0 328 0 360z m-128-384c-32 0-480 0-512 0s-64 32-64 64 0 96 0 128 32 64 64 64 480 0 512 0 64-32 64-64 0-96 0-128-32-64-64-64z m0 128l-64 64h-128l-64-64-64 64h-128l-64-64v-64h64l64 64 64-64h128l64 64 64-64h64v64z"/></svg><svg viewBox="0 0 768 1024" id="inbox" width="18" height="24" x="336" y="153"><path d="m704 192h-640l-64 384v256h768v-256l-64-384z m-128 384l-64 128h-256l-64-128h-113l49-320h512l49 320h-113z"/></svg><svg viewBox="0 0 896 1024" id="info" width="21" height="24" x="365" y="153"><path d="m448 384c35 0 64-29 64-64s-29-64-64-64-64 29-64 64 29 64 64 64z m0-320c-247 0-448 201-448 448s201 448 448 448 448-201 448-448-201-448-448-448z m0 768c-177 0-320-143-320-320s143-320 320-320 320 143 320 320-143 320-320 320z m64-320c0-32-32-64-64-64s-32 0-64 0-64 32-64 64h64s0 160 0 192 32 64 64 64 32 0 64 0 64-32 64-64h-64s0-160 0-192z"/></svg><svg viewBox="0 0 1024 1024" id="issue-closed" width="24" height="24" x="393" y="153"><path d="m704 316l-96 96 160 164 256-256-96-96-158.7 158.8-65.3-66.8z m-192 516c-176.8 0-320-143.2-320-320 0-176.8 143.2-320 320-320 88.4 0 168.4 35.8 226.3 93.8l90.5-90.5c-81-81.2-193-131.3-316.8-131.3-247.4 0-448 200.6-448 448 0 247.4 200.6 448 448 448 247.4 0 448-200.6 448-448l-200.2 200.3c8.9-11-75 119.7-247.8 119.7z m64-576h-128v320h128v-320z m-128 512h128v-128h-128v128z"/></svg><svg viewBox="0 0 896 1024" id="issue-opened" width="21" height="24" x="5" y="183"><path d="m448 64c-247.4 0-448 200.6-448 448 0 247.4 200.6 448 448 448 247.4 0 448-200.6 448-448 0-247.4-200.6-448-448-448z m0 768c-176.8 0-320-143.2-320-320 0-176.8 143.2-320 320-320 176.8 0 320 143.2 320 320 0 176.8-143.2 320-320 320z m-64-64h128v-128h-128v128z m0-192h128v-320h-128v320z"/></svg><svg viewBox="0 0 896 1024" id="issue-reopened" width="21" height="24" x="35" y="183"><path d="m639.1 767.3c-53.3 40.1-119.1 64.7-191.1 64.7-176.8 0-320-143.2-320-320 0-45.6 9.8-88.8 27-128h-91v-99.5c-39.7 66.9-64 144.1-64 227.5 0 247.4 200.6 448 448 448 107.4 0 204.5-39.3 281.8-102.2l38.2 38.2v-192h-192l63.1 63.3z m-255.1 0.7h128v-128h-128v128z m128-512h-128v320h128v-320z m384 256c0-247.4-200.6-448-448-448-107.4 0-204.5 39.3-281.7 102.3l-38.3-38.3v192h192l-63.2-63.2c53.5-40.1 119.2-64.8 191.2-64.8 176.8 0 320 143.2 320 320 0 45.6-9.7 88.8-27 128h91v99.5c39.7-66.9 64-144 64-227.5z"/></svg><svg viewBox="0 0 896 1024" id="jersey" width="21" height="24" x="65" y="183"><path d="m704 0h-192c0 32-33 64-97 64s-95-32-95-64h-192c0 128-2 384-128 384 0 0-1 544-1 576s32 64 64 64 672 0 704 0 64-32 64-64 0-576 0-576c-126 0-128-256-128-384z m-609 960c-16 0-31-10-31-32 0-32 0-480 0-480 119-64 128-192 128-384h64c0 96 32 191 160 192s160-96 160-192h64c0 186 32 276 64 339v557s-593 0-609 0z m385-576l-32 32v320l32 32h128l32-32v-320l-32-32h-128z m96 320h-64v-256h64v256z m-352-320l-32 32v320l32 32h128l32-32v-320l-32-32h-128z m96 320h-64v-256h64v256z"/></svg><svg viewBox="0 0 768 1024" id="jump-down" width="18" height="24" x="96" y="183"><path d="m767.8 192h-767.5l383.7 383.8 383.8-383.8z m-767.8 512v128h768v-128h-768z"/></svg><svg viewBox="0 0 640 1024" id="jump-left" width="15" height="24" x="128" y="183"><path d="m256.3 512l383.7 383.8v-767.5l-383.7 383.7z m-256.3 384h128v-768h-128v768z"/></svg><svg viewBox="0 0 640 1024" id="jump-right" width="15" height="24" x="158" y="183"><path d="m0 895.8l383.8-383.8-383.8-383.8v767.6z m512-767.8v768h128v-768h-128z"/></svg><svg viewBox="0 0 768 1024" id="jump-up" width="18" height="24" x="186" y="183"><path d="m0.2 832h767.5l-383.7-383.7-383.8 383.7z m-0.2-640v128h768v-128h-768z"/></svg><svg viewBox="0 0 896.9 1024" id="key" width="21" height="24" x="214" y="183"><path d="m640.9 63.9c-141.4 0-256 114.6-256 256 0 19.6 2.2 38.6 6.4 56.9l-391.3 391.2v64l64 64h128l64-64v-64h64v-64h64v-64h128l70.8-70.8c18.7 4.3 38.1 6.6 58.1 6.6 141.4 0 256-114.6 256-256s-114.7-255.9-256-255.9z m-256.9 448.1l-320 320v-64l320-320v64z m320-192c-35.3 0-64-28.7-64-64 0-35.3 28.7-64 64-64s64 28.7 64 64c0 35.3-28.7 64-64 64z"/></svg><svg viewBox="0 0 1024 1024" id="keyboard" width="24" height="24" x="243" y="183"><path d="m640 576h64v-128h-64v128z m128-320h-64v128h64v-128z m-128 0h-64v128h64v-128z m-128 320h64v-128h-64v128z m-128 192h320v-128h-320v128z m384-192h128v-320h-64v192h-64v128z m-512 192h64v-128h-64v128z m512 0h128v-128h-128v128z m-256-512h-64v128h64v-128z m-320 192h-64v128h64v-128z m0 192h-64v128h64v-128z m-192-512v768h1024v-768h-1024z m960 704h-896v-640h896v640z m-576-256h64v-128h-64v128z m-128-320h-128v128h128v-128z m128 0h-64v128h64v-128z m-128 320h64v-128h-64v128z"/></svg><svg viewBox="0 0 1024 1024" id="law" width="24" height="24" x="273" y="183"><path d="m514 192c34-1 61-28 62-62 1-37-29-67-66-66-34 1-61 28-62 62-1 37 29 67 66 66z m464 384h-18l-127-246c18-2 36-9 52-16 24-11 29-43 11-62l-1-1c-11-11-28-15-43-8-14 6-34 13-53 13-56 0-81-64-287-64s-231 64-287 64c-20 0-39-6-53-13-15-6-32-3-43 8l-1 1c-18 19-13 50 11 62 16 8 34 14 52 16l-127 246h-18c-8 0-14 7-13 15 11 64 92 113 191 113s180-49 191-113c1-8-5-15-13-15h-18l-127-245c83-7 127-49 191-49v486c-35 0-64 29-64 64h-71c-28 0-57 29-57 64h512c0-35-29-64-71-64h-57c0-35-29-64-64-64v-486c64 0 108 42 191 49l-127 245h-18c-8 0-14 7-13 15 11 64 92 113 191 113s180-49 191-113c1-8-5-15-13-15z m-658 0h-192l96-180 96 180z m384 0l96-180 96 180h-192z"/></svg><svg viewBox="0 0 1024 1024" id="light-bulb" width="24" height="24" x="303" y="183"><path d="m512 64c-176.7 0-320 143.3-320 320 0 104.7 50.3 197.6 128 256v192c0 35.3 28.7 64 64 64 0 35.3 28.7 64 64 64h128c35.3 0 64-28.7 64-64 35.3 0 64-28.7 64-64v-192c77.7-58.4 128-151.3 128-256 0-176.7-143.3-320-320-320z m128 736c0 17.7-14.3 32-32 32h-192c-17.7 0-32-14.3-32-32v-32h256v32z m64-246.7c-33.2 33-64 42.4-64 124v26.7h-64v-128l128-128v-64l-64-64-64 64-64-64-64 64-64-64-64 64v64l128 128v128h-64v-26.7c0-81.6-30.8-91-64-124-39.8-45.1-64-104.4-64-169.3 0-141.4 114.6-256 256-256s256 114.6 256 256c0 64.9-24.2 124.2-64 169.3z m-192 22.7l-128-128v-64l64 64 64-64 64 64 64-64v64l-128 128z"/></svg><svg viewBox="0 0 1024 1024" id="link" width="24" height="24" x="333" y="183"><path d="m768 256h-138c48 32 93 89 107 128h30c65 0 128 64 128 128s-65 128-128 128h-192c-63 0-128-64-128-128 0-23 7-45 18-64h-137c-5 21-8 42-8 64 0 128 127 256 255 256s65 0 193 0 256-128 256-256-128-256-256-256z m-481 384h-30c-65 0-128-64-128-128s65-128 128-128h192c63 0 128 64 128 128 0 23-7 45-18 64h137c5-21 8-42 8-64 0-128-127-256-255-256s-65 0-193 0-256 128-256 256 128 256 256 256h138c-48-32-93-89-107-128z"/></svg><svg viewBox="0 0 768 1024" id="link-external" width="18" height="24" x="366" y="183"><path d="m640 768h-512v-510.1l128-1.9v-128h-256v768h768v-320h-128v192z m-256-640l128 128-192 192 128 128 192-192 128 128v-384h-384z"/></svg><svg viewBox="0 0 768 1024" id="list-ordered" width="18" height="24" x="396" y="183"><path d="m320 576h448v-128h-448v128z m0 256h448v-128h-448v128z m0-640v128h448v-128h-448z m-241 256h78v-256h-36l-85 23v50l43-2v185z m110 206c0-36-12-78-96-78-33 0-64 6-83 16l1 66c21-10 42-15 67-15s32 11 32 28c0 26-30 58-110 112v50h192v-67l-91 2c49-30 87-66 87-113l1-1z"/></svg><svg viewBox="0 0 768 1024" id="list-unordered" width="18" height="24" x="6" y="213"><path d="m0 576h128v-128h-128v128z m0-256h128v-128h-128v128z m0 512h128v-128h-128v128z m256-256h512v-128h-512v128z m0-256h512v-128h-512v128z m0 512h512v-128h-512v128z"/></svg><svg viewBox="0 0 640 1024" id="location" width="15" height="24" x="38" y="213"><path d="m320 0c-177 0-320 143-320 320s160 416 320 704c160-288 320-527 320-704s-143-320-320-320z m0 448c-71 0-128-57-128-128s57-128 128-128 128 57 128 128-57 128-128 128z"/></svg><svg viewBox="0 0 768 1024" id="lock" width="18" height="24" x="66" y="213"><path d="m704 448c-32 0-64 0-64 0s0-64 0-192-128-256-256-256-256 128-256 256 0 192 0 192-32 0-64 0-64 32-64 64 0 416 0 448 32 64 64 64 608 0 640 0 64-32 64-64 0-416 0-448-32-64-64-64z m-192 128h-384v64h384v64h-384v64h384v64h-384v64h384v64h-448v-448h448v64z m0-128h-256s0-128 0-192 64-128 128-128 128 64 128 128 0 192 0 192z"/></svg><svg viewBox="0 0 2856.857 1024" id="logo-github" width="24" height="9" x="93" y="221"><path d="m552.7 332.1h-241.1c-6.2 0-11.3 5.1-11.3 11.3v117.9c0 6.3 5.1 11.3 11.3 11.3h94.1v146.5c0 0-21.2 7.1-79.5 7.1-68.9 0-165.2-25.3-165.2-236.8 0-211.6 100.2-239.5 194.3-239.5 81.5 0 116.5 14.3 138.9 21.2 7 2.2 13.4-4.8 13.4-11.1l26.9-113.9c0-2.9-1-6.4-4.2-8.8-9.1-6.3-64.4-37.3-204.1-37.3-161.1 0-326.2 68.5-326.2 397.8 0 329.2 189.1 378.2 348.4 378.2 131.9 0 212-56.3 212-56.3 3.3-1.8 3.6-6.4 3.6-8.5v-367.8c0-6.2-5.1-11.3-11.3-11.3z m1219.7-304h-135.7c-6.3 0-11.3 5.1-11.3 11.3v262.4h-211.6v-262.4c0-6.2-5.1-11.3-11.2-11.3h-135.8c-6.1 0-11.1 5.1-11.1 11.3v710.5c0 6.3 5 11.3 11.1 11.3h135.8c6.2 0 11.2-5 11.2-11.3v-303.8h211.6l-0.5 303.9c0 6.3 5.1 11.2 11.1 11.2h135.9c6.3 0 11.1-5 11.1-11.2l0.5-710.6c0.1-6.2-5-11.3-11.1-11.3z m-1057.5 16.1c-48.3 0-87.5 39.6-87.5 88.4 0 48.9 39.2 88.5 87.5 88.5s87.6-39.6 87.6-88.5c0-48.8-39.2-88.4-87.6-88.4z m78 227.9c0-6.2-5.1-11.3-11.2-11.3h-135.4c-6.3 0-11.7 6.4-11.7 12.7 0 0 0 394.6 0 469.8 0 13.8 8.5 17.9 19.7 17.9 0 0 57.7 0 121.9 0 13.3 0 16.9-6.5 16.9-18.2-0.1-25.2-0.1-123.8-0.1-142.9-0.1-18.2-0.1-328-0.1-328z m1505.1-10.3h-134.7c-6.2 0-11.1 5.1-11.1 11.4v348.3c0 0-34.3 25.2-82.9 25.2-48.6 0-61.6-22-61.6-69.7 0-47.6 0-303.9 0-303.9 0-6.2-5-11.3-11.1-11.3h-136.6c-6.3 0-11.2 5.1-11.2 11.3 0 0 0 185.6 0 326.9 0 141.2 78.7 175.9 187 175.9 88.8 0 160.6-49.2 160.6-49.2s3.3 25.8 5 28.9c1.5 3.1 5.5 6.1 9.9 6.1h86.6c6.1 0 11.2-5 11.2-11.3l0.3-477.3c-0.2-6.2-5.3-11.3-11.4-11.3z m368.9-16c-76.5 0-128.6 34.2-128.6 34.2v-240.6c0-6.2-5-11.3-11.1-11.3h-136.3c-6.1 0-11.1 5.1-11.1 11.3l-0.4 710.6c0 6.3 5.1 11.2 11.3 11.2 0 0 94.7 0 94.8 0 4.2 0 7.4-2.2 9.8-5.9 2.4-3.9 5.8-32.8 5.8-32.8s55.5 52.7 161 52.7c123.8 0 194.8-62.8 194.8-281.9 0-218.8-113.4-247.5-190-247.5z m-53.1 400.4c-46.7-1.4-78.3-22.6-78.3-22.6v-225.1c0 0 31.3-19.2 69.6-22.6 48.6-4.3 95.5 10.3 95.5 126.2-0.3 122-21.4 146.1-86.8 144.1z m-1428.7-2.5c-5.9 0-21.2 2.3-36.8 2.3-49.9 0-67-23.2-67-53.3 0-30.2 0-199.8 0-199.8h101.9c6.3 0 11.2-5.1 11.2-11.4v-109.5c0.1-6.3-4.9-11.3-11.2-11.3h-101.9l-0.1-134.5c0-5.1-2.7-7.7-8.6-7.7h-138.7c-5.4 0-8.4 2.4-8.4 7.6v139c0 0-69.6 16.8-74.2 18.2-4.7 1.4-8.1 5.7-8.1 10.8v87.5c0 6.2 5.1 11.3 11.2 11.3h71.1c0 0 0 91.3 0 210.2 0 156.1 109.6 171.5 183.5 171.5 33.7 0 74-11 80.8-13.4 4.1-1.4 6.4-5.6 6.4-10.1l0.1-96.1c0-6.3-5.3-11.4-11.2-11.3z"/></svg><svg viewBox="0 0 896 1024" id="mail" width="21" height="24" x="125" y="213"><path d="m0 192v640h896v-640h-896z m768 64l-320 264-320-264h640z m-704 64l252 191.6-252 192.4v-384z m64 448l254-206.2 66 50.2 65.9-50.1 254.1 206.1h-640z m704-64l-252.4-192.1 252.4-191.9v384z"/></svg><svg viewBox="0 0 896 1024" id="mail-read" width="21" height="24" x="155" y="213"><path d="m576 384h-320v64h320v-64z m-192-128h-128v64h128v-64z m384-27.5v-100.5h-140.8l-179.2-128-179.2 128h-140.8v100.5l-128 91.5v640h896v-640l-128-91.5z m-576-36.5h512v244.8l-256 211.2-256-211.2v-244.8z m-128 256l252 191.6-252 192.4v-384z m64 448l254-206.2 66 50.2 65.9-50.1 254.1 206.1h-640z m704-64l-252.4-192.1 252.4-191.9v384z"/></svg><svg viewBox="0 0 768 1024" id="mail-reply" width="18" height="24" x="186" y="213"><path d="m384 160l-384 288 384 288v-192c111 0 329 61 384 280 0-291-196-451-384-472v-192z"/></svg><svg viewBox="0 0 1024 1024" id="mark-github" width="24" height="24" x="213" y="213"><path d="m512 0c-282.7 0-512 229.3-512 512 0 226.3 146.7 418.1 350.2 485.8 25.5 4.7 34.9-11.1 34.9-24.6 0-12.2-0.5-52.6-0.7-95.3-128.7 23.4-161.7-31.6-172.5-60.4-5.5-14.8-30.4-60.2-52.4-72.3-18-9.8-43.3-33.2-0.9-33.7 40.4-0.5 69.3 37.3 78.5 52.8 45.9 77.7 119.8 55.6 149 42.5 4.6-33 17.9-55.7 32.5-68.4-113.7-13-233.3-56.9-233.3-253.1 0-55.9 20-101.5 52.7-137.4-5.2-13-22.8-65.1 5.1-135.6 0 0 42.9-13.7 140.8 52.5 40.8-11.4 84.6-17 128.1-17.2 43.5 0.2 87.3 5.9 128.2 17.3 97.7-66.3 140.7-52.5 140.7-52.5 28 70.5 10.3 122.6 5.1 135.5 32.8 35.9 52.6 81.5 52.6 137.4 0 196.7-119.7 240-233.8 252.7 18.4 15.9 34.8 47 34.8 94.7 0 68.5-0.7 123.7-0.7 140.5 0 13.7 9.3 29.6 35.2 24.6 203.3-67.8 349.9-259.7 349.9-485.8 0-282.7-229.3-512-512-512z"/></svg><svg viewBox="0 0 1024 1024" id="markdown" width="24" height="24" x="243" y="213"><path d="m950.2 192h-876.4c-40.7 0-73.8 33.1-73.8 73.8v492.4c0 40.7 33.1 73.8 73.8 73.8h876.4c40.7 0 73.8-33.1 73.8-73.8v-492.4c0-40.7-33.1-73.8-73.8-73.8z m-374.2 511.9l-128 0.1v-192l-96 123.1-96-123.1v192h-128v-384h128l96 128 96-128 128-0.1v384z m191.1 32l-159.1-223.9h96v-192h128v192h96l-160.9 223.9z"/></svg><svg viewBox="0 0 1024 1024" id="megaphone" width="24" height="24" x="273" y="213"><path d="m832 32c-130 0-124 130-704 128-70.7 0-128 114.6-128 256s57.3 256 128 256c22.8 0 43.2 0.5 64.2 0.9l63.8 287.1 192 32 64-96-45.1-203.1c242.5 36.2 266.9 107.1 365.1 107.1 106 0 192-172 192-384 0-212-86-384-192-384z m-635 450.9c-39.2-1.4-82.2-2.2-127.6-2.6-3.4-19.7-5.4-41.4-5.4-64.3 0-88.4 28.7-192 64-192 39 0.1 75-0.4 109-1.4-27.3 47-45 115.7-45 193.4 0 23.3 2.1 45.4 5 66.9z m64.3 3c-3.2-22.2-5.3-45.5-5.3-69.9 0-79.5 18.4-149.5 46.9-196.2 155.2-8.3 251.9-28.5 319-50.2-28.3 66.9-45.9 152.1-45.9 246.4 0 40 3.9 78 9.5 114.3-72.2-18.7-172.7-35.7-324.2-44.4z m570.7 218.1c-12.1 0-23.7-5.1-34.8-12.1-15.3-67.3-83.4-418.4 117.4-494.2 27.5 52.8 45.4 130.5 45.4 218.3 0 159-57.4 288-128 288z"/></svg><svg viewBox="0 0 832 1024" id="mention" width="20" height="24" x="305" y="213"><path d="m466.7 99.1c-228-28-435.6 134.2-463.6 362.2-28 228 134.2 435.6 362.2 463.6 71.4 8.8 145.1-0.9 213.3-29.9l0-0.1c24.4-10.3 35.8-38.5 25.4-62.9-10.3-24.4-38.5-35.8-62.9-25.4l0-0.1c-52.5 22.4-109.1 29.8-164.1 23.1-175.4-21.5-300.2-181.2-278.6-356.6 21.5-175.4 181.2-300.2 356.6-278.6 175.4 21.5 300.2 181.2 278.6 356.6-4.3 35.1-21.5 55.7-61.6 55.7-42.5 0-64-45.9-64-81.2v-125.5c0-26.5-21.5-48-48-48-9.7 0-18.7 2.9-26.3 7.8-25.6-20.2-57.4-33.8-94.3-38.4-105.2-12.9-201 62-214 167.2-12.9 105.2 62 201 167.2 214 57.4 7 116.2-14.7 157.9-53.2 24.9 28.2 59.8 47.7 100.1 52.6 87.7 10.8 167.5-51.6 178.3-139.3 28-228-134.2-435.6-362.2-463.6z m44.6 424.6c-6.5 52.6-54.4 90-107 83.6-52.6-6.5-90-54.4-83.6-107 6.5-52.6 54.4-90 107-83.6 52.6 6.5 90 54.4 83.6 107z"/></svg><svg viewBox="0 0 768 1024" id="microscope" width="18" height="24" x="336" y="213"><path d="m617 896c86.3-18.7 151-100 151-192 0-58.4-26.6-110.1-67.9-145.4 2.4-15.2 3.9-30.7 3.9-46.6 0-104.8-49.9-197.9-128-256l64-64v-64l64-64-64-64-64 64h-64l-256 256-128 64v128l64 64h128l64-128 96-96c55.5 33.4 96 90.4 96 160-106.1 0-192 85.9-192 192h-384v64h192c19.1 14.3 42.1 22.1 64 32v96h-128l-128 128h768l-128-128h-23z m-105-192c0-35.4 28.6-64 64-64s64 28.6 64 64c0 35.3-28.6 64-64 64s-64-28.7-64-64z"/></svg><svg viewBox="0 0 832 1024" id="milestone" width="20" height="24" x="365" y="213"><path d="m704 192h-704v256h704l128-128-128-128z m-256 192h-128v-128h128v128z m0-384h-128v128h128v-128z m-128 1024h128v-512h-128v512z"/></svg><svg viewBox="0 0 1024 1024" id="mirror" width="24" height="24" x="393" y="213"><path d="m320 320l-192 192 192 192v-128h384v128l192-192-192-192v128h-384v-128z m192-320l-512 320v704l512-256 512 256v-704l-512-320z m448 896l-384-192v-64h-128v64l-384 192v-512l384-256v256h128v-256l384 256v512z"/></svg><svg viewBox="0 0 1024 1024" id="mortar-board" width="24" height="24" x="3" y="243"><path d="m501 588l-245-76s0 96 0 160 115 96 256 96 256-32 256-96 0-160 0-160l-245 76c-7 2-15 2-23 0h1z m18-409c-4-1-9-1-13 0l-489 152c-21 7-21 36 0 43l111 35v113c-19 11-32 32-32 55 0 12 3 23 9 32-5 9-9 20-9 32v165c0 35 128 35 128 0v-165c0-12-3-23-9-32 5-9 9-20 9-32 0-24-13-44-32-55v-93l313 98c4 1 9 1 13 0l489-152c21-7 21-36 0-43l-488-153z m-6 205c-35 0-64-14-64-32s29-32 64-32 64 14 64 32-29 32-64 32z"/></svg><svg viewBox="0 0 640 1024" id="move-down" width="15" height="24" x="38" y="243"><path d="m640 320h-192v-320h-256v320h-192l320 384 320-384z m-640 704h640v-192h-640v192z"/></svg><svg viewBox="0 0 1024 1024" id="move-left" width="24" height="24" x="63" y="243"><path d="m0 832h192v-640h-192v640z m704-448v-192l-384 320 384 320v-192h320v-256h-320z"/></svg><svg viewBox="0 0 1024 1024" id="move-right" width="24" height="24" x="93" y="243"><path d="m832 192v640h192v-640h-192z m-512 192h-320v256h320v192l384-320-384-320v192z"/></svg><svg viewBox="0 0 640 1024" id="move-up" width="15" height="24" x="128" y="243"><path d="m0 704h192v320h256v-320h192l-320-384-320 384z m0-704v192h640v-192h-640z"/></svg><svg viewBox="0 0 896 1024" id="mute" width="21" height="24" x="155" y="243"><path d="m128 384h-128v256h128l256 192h64v-640h-64l-256 192z m736 32l-64-64-96 96-96-96-63 63.5 95 96.5-96 96 64 64 96-96 96 96 64-64-96-96 96-96z"/></svg><svg viewBox="0 0 1024 1024" id="no-newline" width="24" height="24" x="183" y="243"><path d="m896 320v128h-128v-128l-192 192 192 192v-128h192c0 0 64-0.4 64-64s0-192 0-192h-128z m-672-32c-123.7 0-224 100.3-224 224 0 123.8 100.3 224 224 224s224-100.2 224-224c0-123.7-100.3-224-224-224z m-128 224c0-70.7 57.3-128 128-128 18.8 0 36.4 4.2 52.5 11.5l-169 169c-7.3-16.1-11.5-33.7-11.5-52.5z m128 128c-18.7 0-36.4-4.2-52.5-11.5l169-169c7.3 16.1 11.5 33.8 11.5 52.5 0 70.6-57.3 128-128 128z"/></svg><svg viewBox="0 0 1024 1024" id="octoface" width="24" height="24" x="213" y="243"><path d="m940.8 277.7c8.3-20.2 35.4-101.8-8.5-211.9 0 0-67.4-21.3-219.9 82.9-63.9-17.6-132.5-20.2-200.4-20.2-67.9 0-136.4 2.6-200.5 20.3-152.5-104.3-219.8-83-219.8-83-43.9 110.2-16.8 191.7-8.5 211.9-51.7 55.9-83.2 127.2-83.2 214.6 0 329.3 213.3 403.7 510.8 403.7 297.8 0 513.2-74.4 513.2-403.7 0-87.4-31.5-158.7-83.2-214.6z m-428.8 555.3c-211.4 0-382.8-9.9-382.8-214.7 0-48.9 24.1-94.6 65.4-132.3 68.7-63 185.2-29.7 317.4-29.7 132.3 0 248.6-33.3 317.4 29.6 41.4 37.8 65.5 83.3 65.5 132.3 0 204.9-171.5 214.8-382.9 214.8z m-160.8-320.6c-42.5 0-76.9 51.1-76.9 114.2s34.4 114.3 76.9 114.3c42.3 0 76.8-51.1 76.8-114.3s-34.5-114.2-76.8-114.2z m321.7 0c-42.4 0-76.9 51.1-76.9 114.2s34.5 114.3 76.9 114.3 76.8-51.2 76.8-114.3c0.1-63.1-34.4-114.2-76.8-114.2z"/></svg><svg viewBox="0 0 896 1024" id="organization" width="21" height="24" x="245" y="243"><path d="m768 384h-64-128-64-64-64-64-128-64c-70.7 0-128 57.3-128 128v64c0 47.3 25.8 88.1 64 110.3v209.7h256v128h256v-128h256v-209.7c38.1-22.2 64-63 64-110.3v-64c0-70.7-57.4-128-128-128z m-512 448h-128v-256h-64v-64c0-35.3 28.7-64 64-64h81.7c-11 18.9-17.7 40.6-17.7 64v128c0 47.3 25.8 88.1 64 110.3v81.7z m320-128v-128h-64v384h-128v-384h-64v128c-35.3 0-64-28.6-64-64v-128c0-35.3 28.7-64 64-64h256c35.4 0 64 28.7 64 64v128c0 35.4-28.6 64-64 64z m256-128h-64v256h-128v-81.7c38.1-22.2 64-63 64-110.3v-128c0-23.4-6.7-45.1-17.7-64h81.7c35.4 0 64 28.7 64 64v64z m-528.3-258.6c35.2 40.5 86.5 66.6 144.3 66.6 57.9 0 109.1-26.1 144.3-66.6 21.8 39.5 63.4 66.6 111.7 66.6 70.6 0 128-57.3 128-128s-57.4-128-128-128c-25.6 0-49.4 7.7-69.4 20.7-19.7-85.1-95.5-148.7-186.6-148.7s-166.9 63.6-186.6 148.7c-20.1-13-43.8-20.7-69.4-20.7-70.7 0-128 57.3-128 128s57.3 128 128 128c48.3 0 89.8-27.1 111.7-66.6z m400.3-125.4c35.4 0 64 28.6 64 64s-28.6 64-64 64c-35.3 0-64-28.6-64-64s28.7-64 64-64z m-256-128c70.6 0 128 57.3 128 128s-57.4 128-128 128c-70.7 0-128-57.3-128-128s57.3-128 128-128z m-256 256c-35.3 0-64-28.6-64-64s28.7-64 64-64c35.4 0 64 28.6 64 64s-28.6 64-64 64z"/></svg><svg viewBox="0 0 1024 1024" id="package" width="24" height="24" x="273" y="243"><path d="m480 64l-480 128v576l480 128 480-128v-576l-480-128z m-416.1 656.9l-0.4-432.9 384.5 102.5 0 432.9-384.1-102.5z m-0.4-496.9l160.3-42.7 416.2 111v0.1l-160 42.7-416.5-111.1z m832.6 496.9l-384.1 102.5 0-432.9 128-34.1v156l128-34.1v-156l128.5-34.3-0.4 432.9z m-128.1-462.6v-0.2l-416.3-111 128.3-34.2 416.5 111.1-128.5 34.3z"/></svg><svg viewBox="0 0 768 1024" id="paintcan" width="18" height="24" x="306" y="243"><path d="m384 0c-212.1 0-384 171.9-384 384v64c0 35.3 28.7 64 64 64v320c0 70.7 143.3 128 320 128s320-57.3 320-128v-320c35.3 0 64-28.7 64-64v-64c0-212.1-171.9-384-384-384z m192 640v32c0 17.7-14.3 32-32 32s-32-14.3-32-32v-32c0-17.7-14.3-32-32-32s-32 14.3-32 32v160c0 17.7-14.3 32-32 32s-32-14.3-32-32v-128c0-17.7-14.3-32-32-32s-32 14.3-32 32v32c0 35.3-28.7 64-64 64s-64-28.7-64-64v-64c-35.3 0-64-28.7-64-64v-115.2c58.4 31.1 151.3 51.2 256 51.2s197.6-20.1 256-51.2v115.2c0 35.3-28.7 64-64 64z m-192-192c-107.4 0-199.4-26.5-237.4-64 38-37.5 130-64 237.4-64s199.4 26.5 237.4 64c-38 37.5-130 64-237.4 64z m0-192c-176.6 0-319.8 57.2-320 127.9 0 0 0 0 0 0 0.1-176.7 143.3-319.9 320-319.9 176.7 0 320 143.3 320 320 0-70.7-143.3-128-320-128z"/></svg><svg viewBox="0 0 896 1024" id="pencil" width="21" height="24" x="335" y="243"><path d="m704 64l-128 128 192 192 128-128-192-192z m-704 704l0.7 192.6 191.3-0.6 512-512-192-192-512 512z m192 128h-128v-128h64v64h64v64z"/></svg><svg viewBox="0 0 512 1024" id="person" width="12" height="24" x="369" y="243"><path d="m448 192c0-106-85.9-192-192-192s-192 86-192 192c0 106.1 85.9 192 192 192s192-85.9 192-192z m-192 128c-70.7 0-128-57.3-128-128s57.3-128 128-128c70.6 0 128 57.3 128 128s-57.4 128-128 128z m128 64h-128-128c-70.7 0-128 57.3-128 128v128c0 70.6 57.3 128 128 128v256h256v-256c70.6 0 128-57.4 128-128v-128c0-70.7-57.4-128-128-128z m64 256c0 35.4-28.6 64-64 64v-128h-64v384h-128v-384h-64v128c-35.3 0-64-28.6-64-64v-128c0-35.3 28.7-64 64-64h256c35.4 0 64 28.7 64 64v128z"/></svg><svg viewBox="0 0 519.657 1024" id="pin" width="12" height="24" x="399" y="243"><path d="m196 704l64 320 64-320c-20 2-43 3-64 3s-44-1-64-3z m254-299c-33-17-62-59-62-85v-64c0-22 12-39 23-52 15-13 24-29 24-45 0-53-61-95-175-95s-175 42-175 95c0 16 9 32 24 45 11 13 23 30 23 52v64c0 26-29 68-62 85-38 19-70 54-70 88 0 74 101 148 260 148s260-73 260-148c0-33-31-68-70-88z"/></svg><svg viewBox="0 0 768 1024" id="playback-fast-forward" width="18" height="24" x="6" y="273"><path d="m0 768l384-256-384-256v512z m768-256l-384-256v256 256l384-256z"/></svg><svg viewBox="0 0 512 1024" id="playback-pause" width="12" height="24" x="39" y="273"><path d="m0 832h192v-640h-192v640z m320-640v640h192v-640h-192z"/></svg><svg viewBox="0 0 512 1024" id="playback-play" width="12" height="24" x="69" y="273"><path d="m0 192l512 320-512 320v-640z"/></svg><svg viewBox="0 0 768 1024" id="playback-rewind" width="18" height="24" x="96" y="273"><path d="m384 512l384 256v-512l-384 256z m-384 0l384 256v-256-256l-384 256z"/></svg><svg viewBox="0 0 1024 1024" id="plug" width="24" height="24" x="123" y="273"><path d="m1003.4 204.7l-0.9-0.9c-24.8-24.8-64.9-24.8-89.6 0l-45.7 45.7-90.5-90.5 45.7-45.8c24.7-24.7 24.7-64.8 0-89.6l-0.9-0.9c-24.8-24.7-64.9-24.7-89.6 0l-48 48c-62.1-41.1-146.7-34.4-201.4 20.4l-24.9 24.9c-109 109-121.9 277.7-38.8 400.9l-4.2 4.1c-62.4 62.4-62.5 163.5-0.3 226 12.5 12.5 12.7 33.3 0.2 45.7-12.5 12.3-32.7 12.3-45.1-0.2l-89.5-89.4c-62.6-62.6-164.6-63.8-227.3-1.1-62.5 62.4-62.5 163.8 0 226.3l8.7 8.8c24.8 24.7 64.9 24.7 89.6 0l1-1c24.7-24.7 24.7-64.8 0-89.6l-8.3-8.3c-12.4-12.3-13.1-32.4-1.1-45 12.4-13.2 33.1-13.4 45.8-0.7l89.4 89.4c62.9 62.9 165.5 63.8 228.1 0.5 61.7-62.5 61.6-163.2-0.5-225.4-12.5-12.6-12.8-32.9-0.2-45.5l4.2-4.1c123.2 83.1 291.8 70.1 400.9-38.9l24.9-24.9c54.7-54.7 61.5-139.2 20.3-201.4l48-47.9c24.7-24.8 24.7-64.9 0-89.6z m-113.6 293.7c-37.5 37.5-98.3 37.5-135.8 0l-226.2-226.3c-37.5-37.5-37.5-98.3 0-135.8 29.5-29.5 73.5-35.8 109.2-18.7l-41.8 41.8c-24.8 24.8-24.8 64.9 0 89.6l0.9 0.9c24.7 24.8 64.9 24.8 89.6 0l45.7-45.7 90.5 90.5-45.7 45.7c-24.7 24.8-24.7 64.9 0 89.6l0.9 0.9c24.8 24.8 64.9 24.8 89.6 0l41.9-41.8c17 35.7 10.8 79.7-18.8 109.3z"/></svg><svg viewBox="0 0 640 1024" id="plus" width="15" height="24" x="158" y="273"><path d="m384 448v-256h-128v256h-256v128h256v256h128v-256h256v-128h-256z"/></svg><svg viewBox="0 0 768 1024" id="podium" width="18" height="24" x="186" y="273"><path d="m320 0c-32 0-64 32-64 64s0 64 0 64h-64l-192 192v128h192l64 384-128 64v64h512v-64l-128-64 64-384h192v-128l-192-192h-256v-64s14 0 32 0 32-17 32-32-16-32-32-32 0 0-32 0z m0 832l-53-320h118l-1 320h-64z m-224-512l128-128h32v64h64v-64h224l128 128h-576z"/></svg><svg viewBox="0 0 511.825 1024" id="primitive-dot" width="12" height="24" x="219" y="273"><path d="m-0.1 512c0-141.5 114.5-256 256-256 141.5 0 256 114.5 256 256s-114.5 256-256 256c-141.5 0-256-114.5-256-256z"/></svg><svg viewBox="0 0 512 1024" id="primitive-square" width="12" height="24" x="249" y="273"><path d="m512 768h-512v-512h512v512z"/></svg><svg viewBox="0 0 896 1024" id="pulse" width="21" height="24" x="275" y="273"><path d="m736 511.9l-172.8-166.3-140.8 198.4-70.4-441.6-199.6 409.5h-152.4v128.1h230.4l57.6-115.2 57.6 345.6 230.4-326.4 102.4 96h217.6v-128.1h-160z"/></svg><svg viewBox="0 0 1024 1024" id="puzzle" width="24" height="24" x="303" y="273"><path d="m755.8 575.1c-14-9.9-28.6-16.5-43.5-19.9-8.9-1.7-18.1-2.3-27.6-1.8-9 0.5-17.6 1.7-25.7 3.5-6.1 1.7-12.2 3.9-18.3 6.6-18.2 8.1-33.9 18.2-46.8 30.4-12.2 12.9-22.3 28.6-30.4 46.8-2.7 6.1-4.9 12.2-6.6 18.3-1.8 8.1-3 16.7-3.5 25.7-0.5 9.5 0.1 18.7 1.8 27.6 3.4 14.9 10 29.5 20 43.4 3.8 5.5 8 10.4 12.5 14.9 20.1 20 45.8 30.7 75.4 34.1 9 1 18.2 1.7 26.6 4.5 5.1 1.7 9.1 4.1 12 7 6.7 6.6 7.7 16.1 2.5 27.3-3.1 6.8-7.7 13.4-12.9 18.8l-2.8 2.9c-3.9 3.9-6.4 6.4-7.1 7-3.1 3.2-6.1 6.1-9 9.1l-3 3c-10.5 10.5-21.1 21.1-31.6 31.6-22.8 22.8-45.6 45.6-68.4 68.4-7.5 7.5-15 15-22.5 22.5-3.5 3.4-7.1 6.3-10.8 8.8-1.8 1.2-3.5 2.2-5.2 3.1-19.6 9.9-41.4 5.9-59.2-11.9-5.4-5.4-10.6-10.6-15.9-15.8-30.2-30.3-60.4-60.5-90.7-90.7-8.6-8.6-17.2-17.1-25.7-25.6-6.1-6.1-12.7-11.9-19.6-17.1-5.7-4.3-11.6-7.5-17.4-9.7-21.2-7.3-41.4-2-54.7 13.2-3.8 4.8-7 10.5-9.4 17-3.4 9.2-4.6 19.5-5.9 29.3-4.9 37.6-25.8 68.5-56 82.7-7.5 3.6-15.5 6.3-23.9 7.8-7.9 1.4-15.9 1.7-23.8 1-26.6-1.3-49.5-13.1-68.5-32.6-1.7-1.6-2.1-2-2.5-2.5-19.5-19-31.3-41.9-32.6-68.5-0.7-7.9-0.4-15.9 1-23.8 1.5-8.4 4.2-16.4 7.8-23.9 14.2-30.2 45.1-51.1 82.7-56 9.8-1.3 20.1-2.5 29.3-5.9 7-2.5 13-6 18-10.2 14.5-13.2 19.6-32.6 12.8-52.4-2.8-7.3-6-13.2-10.3-18.9-5.2-6.9-11-13.4-17.1-19.6-8.5-8.5-17-17-25.5-25.6-26.9-27-53.9-53.9-80.8-80.8l-10-10c-5.2-5.2-10.4-10.4-15.3-15.3-18.3-18.4-22.3-40.2-12.4-59.8 0.9-1.7 1.9-3.3 3.1-5 2.5-3.9 5.4-7.5 8.8-10.9 7.5-7.5 15-15 22.5-22.5 22.8-22.8 45.6-45.7 68.4-68.4 10.5-10.6 21-21.2 31.6-31.7l3-2.9c2.9-3 5.9-6 8.9-8.9 0.8-0.8 3.3-3.3 7.2-7.3l2.9-2.7c5.4-5.3 12-9.9 18.8-13 11.2-5.1 20.7-4.2 27.3 2.5 2.9 2.9 5.3 7 7 12.1 2.8 8.4 3.4 17.6 4.5 26.5 3.4 29.6 14.1 55.4 34.1 75.4 4.5 4.5 9.4 8.7 14.9 12.6 13.9 9.9 28.5 16.6 43.4 19.9 8.9 1.7 18.1 2.3 27.6 1.8 9-0.5 17.6-1.7 25.7-3.5 6.1-1.7 12.2-3.9 18.3-6.6 18.2-8 33.9-18.1 46.8-30.3 12.3-12.9 22.4-28.7 30.4-46.8 2.7-6.1 4.9-12.3 6.6-18.4 1.8-8.1 3-16.7 3.5-25.7 0.5-9.5-0.1-18.7-1.8-27.5-3.4-15-10-29.5-19.9-43.5-3.9-5.4-8.1-10.4-12.6-14.9-20.1-20-45.8-30.7-75.4-34.1-8.9-1-18.1-1.7-26.6-4.5-5.1-1.7-9.1-4-12-7-6.7-6.6-7.7-16.1-2.5-27.2 3.1-6.9 7.7-13.5 12.9-18.9l2.8-2.8c3.9-3.9 6.4-6.4 7.1-7.1 3.1-3.1 6.1-6.1 9-9.1l3-2.9c10.5-10.6 21.1-21.2 31.6-31.7 22.8-22.8 45.6-45.6 68.4-68.3 7.5-7.5 15-15 22.5-22.5 3.5-3.5 7.1-6.4 10.8-8.8 1.8-1.2 3.5-2.3 5.2-3.2 19.6-9.9 41.4-5.9 59.2 11.9 5.4 5.4 10.6 10.6 15.9 15.8 30.2 30.3 60.5 60.6 90.7 90.8 8.6 8.5 17.2 17.1 25.7 25.6 6.1 6.1 12.7 11.8 19.6 17 5.7 4.4 11.6 7.6 17.4 9.8 21.2 7.3 41.5 2 54.7-13.3 3.8-4.8 7-10.5 9.4-16.9 3.4-9.3 4.6-19.5 5.9-29.4 4.9-37.5 25.8-68.4 56-82.7 7.5-3.6 15.5-6.2 23.9-7.7 7.9-1.4 15.9-1.7 23.8-1.1 26.6 1.4 49.5 13.1 68.5 32.6 1.7 1.7 2.1 2.1 2.6 2.5 19.4 19 31.2 41.9 32.5 68.5 0.7 7.9 0.4 15.9-1 23.9-1.5 8.4-4.1 16.4-7.8 23.9-14.2 30.1-45.1 51-82.6 55.9-9.9 1.3-20.1 2.5-29.4 5.9-6.9 2.6-13 6.1-18 10.3-14.5 13.1-19.6 32.6-12.8 52.3 2.8 7.3 6 13.2 10.3 18.9 5.2 6.9 11 13.5 17.1 19.6 8.5 8.5 17 17.1 25.5 25.6 30.3 30.3 60.6 60.6 90.8 90.8 5.2 5.2 10.5 10.5 15.3 15.3 18.4 18.4 22.3 40.2 12.4 59.8-0.9 1.7-1.9 3.4-3.1 5.1-2.4 3.8-5.4 7.4-8.8 10.9-7.5 7.5-15 15-22.5 22.5-22.8 22.8-45.6 45.6-68.4 68.4-10.5 10.5-21 21.1-31.6 31.6l-2.9 3c-3 2.9-6 5.9-9 8.9-0.8 0.8-3.3 3.3-7.2 7.2l-2.9 2.8c-5.4 5.2-12 9.8-18.8 12.9-11.2 5.2-20.7 4.2-27.3-2.5-2.9-2.9-5.3-6.9-7-12-2.8-8.4-3.4-17.7-4.5-26.6-3.4-29.6-14-55.3-34.1-75.4-4.5-4.5-9.4-8.7-14.8-12.6z"/></svg><svg viewBox="0 0 1024 1024" id="question" width="24" height="24" x="333" y="273"><path d="m448 768h128v-128h-128v128z m64-512c-96 0-192 96-192 192h128c0-32 32-64 64-64s64 32 64 64c0 64-128 64-128 128h128c64-22 128-64 128-160s-96-160-192-160z m0-256c-283 0-512 229-512 512s229 512 512 512 512-229 512-512-229-512-512-512z m0 896c-212 0-384-172-384-384s172-384 384-384 384 172 384 384-172 384-384 384z"/></svg><svg viewBox="0 0 640 1024" id="quote" width="15" height="24" x="368" y="273"><path d="m0 512v256h256v-256h-128c0 0 0-128 128-128v-128c0 0-256 0-256 256z m640-128v-128c0 0-256 0-256 256v256h256v-256h-128c0 0 0-128 128-128z"/></svg><svg viewBox="0 0 1024 1024" id="radio-tower" width="24" height="24" x="393" y="273"><path d="m306.8 390.7c15.9-16.3 15.9-42.7 0-59-20.5-21.1-30.6-48.4-30.7-76.1 0.1-27.8 10.2-55.1 30.7-76.2 15.9-16.3 15.9-42.8 0-59.1-7.9-8.2-18.2-12.3-28.7-12.3-10.3 0-20.8 4.1-28.7 12.3-36.3 37.3-54.6 86.4-54.6 135.3 0 48.8 18.3 97.9 54.6 135.1 15.9 16.3 41.6 16.3 57.4 0z m-157.7-357.6c-8.1-8.3-18.7-12.4-29.3-12.4-10.6 0-21.2 4.1-29.2 12.4-59.8 61.4-89.8 142-89.8 222.5 0 80.3 30 161.1 89.7 222.4 16.2 16.6 42.3 16.6 58.5 0 16.1-16.6 16.1-43.5 0-60.1-43.7-44.9-65.4-103.4-65.4-162.3s21.7-117.5 65.4-162.4c16.1-16.6 16.1-43.6 0.1-60.1z m363.9 326.7c57.4 0 104-46.5 104-103.9 0-57.4-46.6-104-104-104-57.4 0-103.9 46.6-103.9 104 0 57.4 46.5 103.9 103.9 103.9z m420.5-326c-16.1-16.7-42.3-16.7-58.4 0-16.2 16.6-16.2 43.5 0 60 43.6 45 65.4 103.5 65.4 162.4 0 58.9-21.8 117.4-65.5 162.3-16.1 16.6-16.1 43.6 0.1 60.1 8 8.3 18.6 12.4 29.2 12.4 10.6 0 21.2-4.1 29.2-12.4 59.8-61.3 89.8-142.1 89.7-222.5 0.1-80.2-29.9-161-89.7-222.3z m-420.2 409.1l0 0c-26.5 0-53.1-6.5-77.1-19.5l-201.1 536.2h95.2l54.8-64h255.9l54 64h95.2l-201.1-536c-23.7 12.7-49.7 19.3-75.8 19.3z m-0.6 30.6l64.3 230.2h-127.9l63.6-230.2z m-127.6 358.1l64-63.9h127.9l64 63.9h-255.9z m332.1-710.6c-15.9 16.3-15.9 42.8 0 59.1 20.5 21.1 30.6 48.5 30.7 76.1-0.1 27.8-10.2 55.1-30.7 76.2-15.9 16.3-15.9 42.8 0 59.1 7.9 8.1 18.2 12.2 28.7 12.2 10.3 0 20.8-4.1 28.7-12.2 36.3-37.3 54.7-86.5 54.5-135.3 0.2-48.8-18.1-97.9-54.5-135.2-15.8-16.3-41.5-16.3-57.4 0z"/></svg><svg viewBox="0 0 768 1024" id="repo" width="18" height="24" x="6" y="303"><path d="m320 256h-64v64h64v-64z m0-128h-64v64h64v-64z m384-128c-32 0-608 0-640 0s-64 32-64 64 0 736 0 768 32 64 64 64 128 0 128 0v128l96-96 96 96v-128s288 0 320 0 64-32 64-64 0-736 0-768-32-64-64-64z m0 800c0 16-15 32-32 32s-288 0-288 0v-64h-192v64s-79 0-96 0-32-17-32-32 0-96 0-96h640s0 80 0 96z m0-160h-512v-576h513l-1 576z m-384-128h-64v64h64v-64z m0-128h-64v64h64v-64z"/></svg><svg viewBox="0 0 1024 1024" id="repo-clone" width="24" height="24" x="33" y="303"><path d="m320 384h-64v64h64v-64z m-128-320h256v-64s-352 0-384 0-64 32-64 64 0 736 0 768 32 64 64 64 128 0 128 0v128l96-96 96 96v-128s286 0 320 0 64-32 64-64 0-192 0-192h-576v-576z m512 640s0 79 0 96-14 32-32 32-288 0-288 0v-64h-192v64s-80 0-96 0-32-16-32-32 0-96 0-96h640z m-384-448h-64v64h64v-64z m-64 320h64v-64h-64v64z m704-576c-32 0-288 0-320 0s-64 32-64 64 0 352 0 384 32 64 64 64 64 0 64 0v64l32-32 32 32v-64s160 0 192 0 64-32 64-64 0-352 0-384-32-64-64-64z m-256 448s-15 0-32 0-32-15-32-32 0-32 0-32h64v64z m256-32c0 16-15 32-32 32s-160 0-160 0v-64h192s0 16 0 32z m0-96h-256v-256h224s32 0 32 32 0 224 0 224z m-640-192h-64v64h64v-64z"/></svg><svg viewBox="0 0 767.896 1024" id="repo-force-push" width="18" height="24" x="66" y="303"><path d="m768 64c0-32-32-64-64-64s-608 0-640 0-64 32-64 64 0 768 0 768 0-32 0 0 32 64 64 64 128 0 128 0v128l128-128v-128h-128v64s-79 0-96 0-32-15-32-32 0-96 0-96h256v-64h-128v-576h512v576h-128v64h128s0 80 0 96-15 32-32 32-96 0-96 0v64s96 0 128 0 64-32 64-64 0-736 0-768z m-272 320h144l-192-256-192 256h144l-144 192h128v448h128v-448h128l-144-192z"/></svg><svg viewBox="0 0 768 1024" id="repo-forked" width="18" height="24" x="96" y="303"><path d="m768 128c0-71-57-128-128-128s-128 57-128 128c0 47 26 89 64 111v106l-192 212-192-212v-106c38-22 64-63 64-111 0-71-57-128-128-128s-128 57-128 128c0 47 26 89 64 111v156l256 282v109c-38 22-64 63-64 111 0 71 57 128 128 128s128-57 128-128c0-47-26-89-64-111v-109l256-282v-156c38-22 64-63 64-111z m-640-63c34 0 62 28 62 62s-28 62-62 62-62-28-62-62 28-62 62-62z m256 891c-34 0-62-28-62-62s28-62 62-62 62 28 62 62-28 62-62 62z m256-891c34 0 62 28 62 62s-28 62-62 62-62-28-62-62 28-62 62-62z"/></svg><svg viewBox="0 0 1024 1024" id="repo-pull" width="24" height="24" x="123" y="303"><path d="m1024 320l-192-192v128h-384v128h384v128l192-192z m-320 320h-512v-576h512v128h64s0-96 0-128-32-64-64-64-608 0-640 0-64 32-64 64 0 736 0 768 32 64 64 64 128 0 128 0v128l96-96 96 96v-128s288 0 320 0 64-32 64-64 0-384 0-384h-64v192z m0 160c0 15-15 32-32 32s-288 0-288 0v-64h-192v64s-79 0-96 0-32-16-32-32 0-96 0-96h640s0 81 0 96z m-384-544h-64v64h64v-64z m0-128h-64v64h64v-64z m0 256h-64v64h64v-64z m-64 192h64v-64h-64v64z"/></svg><svg viewBox="0 0 768 1024" id="repo-push" width="18" height="24" x="156" y="303"><path d="m448 320l-192 256h128v448h128v-448h128l-192-256z m-192 0h64v-64h-64v64z m64-192h-64v64h64v-64z m384-128c-32 0-608 0-640 0s-64 32-64 64 0 736 0 768 32 64 64 64 128 0 128 0v128l128-128v-128h-128v64s-79 0-96 0-32-14-32-32 0-96 0-96h256v-64h-128v-576h513l-1 576h-128v64h128s0 79 0 96-15 32-32 32-96 0-96 0v64s96 0 128 0 64-32 64-64 0-736 0-768-32-64-64-64z"/></svg><svg viewBox="0 0 1024 1024" id="rocket" width="24" height="24" x="183" y="303"><path d="m716.7 124.1c-71.9 41.6-148 96.1-218.4 166.5-45 45-81.2 88.8-110.4 129.8l-178.4 33-209.5 209.6 186.9 5.8 131.5-131.5c-46.4 96.2-50.5 160-50.5 160l58.8 58.8c0 0 65.9-6.3 162.8-53.2l-134.4 134.2 5.9 186.9 209.6-209.5 33.1-179.3c41.4-29 85.1-65 129.7-109.5 70.4-70.5 124.8-146.6 166.5-218.5-45.9-9.3-88.1-28.5-121.4-61.7-33.2-33.3-52.5-75.5-61.8-121.4z m69.5-37.3c5 45 19.9 81.3 44.7 106 24.8 25 61 39.9 106.2 44.9 66-133.4 86.9-237.7 86.9-237.7s-104.4 20.9-237.8 86.8z"/></svg><svg viewBox="0 0 768 1024" id="rss" width="18" height="24" x="216" y="303"><path d="m128 640c-70.7 0-128 57.4-128 128s57.3 128 128 128 128-57.4 128-128-57.3-128-128-128z m0-256c0 0-64 2-64 64s64 64 64 64c141.4 0 256 114.6 256 256 0 0 0 64 64 64s64-64 64-64c0-212-172-384-384-384z m0-256c0 0-64 0-64 64s64 64 64 64c282.8 0 512 229.3 512 512 0 0 0 64 64 64s64-64 64-64c0-353.4-286.5-640-640-640z"/></svg><svg viewBox="0 0 1024 1024" id="ruby" width="24" height="24" x="243" y="303"><path d="m768 128h-512l-256 256 512 512 512-512-256-256z m-640 256l192-192h384l192 192-384 384-384-384z m576-128h-192v448l320-320-128-128z"/></svg><svg viewBox="0 0 895.875 1024" id="screen-full" width="21" height="24" x="275" y="303"><path d="m128 768h639.9v-512h-639.9v512z m127.9-384h384v256h-384v-256z m-191.9-191.9h191.9v-64h-255.9v255.9h64v-191.9z m0 447.9h-64v255.9h255.9v-63.9h-191.9v-192z m575.9-511.9v64h192v191.9h64v-255.9h-256z m192 703.9h-192v63.9h256v-255.9h-64v192z"/></svg><svg viewBox="0 0 896 1024" id="screen-normal" width="21" height="24" x="305" y="303"><path d="m127.9 191.9h-127.9v64h191.9v-191.9h-64v127.9z m-127.9 640.2h127.9v127.9h64v-191.9h-191.9v64z m768.1-640.2v-127.9h-64v191.9h191.9v-64h-127.9z m-64 768.1h64v-127.9h127.9v-64h-191.9v191.9z m-512-256h511.9v-384h-511.9v384z m127.9-256h256v128h-256v-128z"/></svg><svg viewBox="0 0 973.125 1024" id="search" width="23" height="24" x="334" y="303"><path d="m960 832l-249.1-249.1c35.5-58.1 57.1-125.7 57.1-198.9 0-212-172-384-384-384-212 0-384 172-384 384 0 212 172 384 384 384 73.2 0 140.8-21.6 198.9-57l249.1 249c17.5 17.5 46.5 17.4 64 0l64-64c17.5-17.5 17.5-46.5 0-64z m-576-192c-141.4 0-256-114.6-256-256s114.6-256 256-256 256 114.6 256 256-114.6 256-256 256z"/></svg><svg viewBox="0 0 768 1024" id="server" width="18" height="24" x="366" y="303"><path d="m704 384h-640c-35 0-64 32-64 64v128c0 32 32 64 64 64h640c32 0 64-32 64-64v-128c0-32-32-64-64-64z m-576 192h-64v-128h64v128z m128 0h-64v-128h64v128z m128 0h-64v-128h64v128z m128 0h-64v-128h64v128z m192 128h-640c-35 0-64 32-64 64v128c0 32 32 64 64 64h640c32 0 64-32 64-64v-128c0-32-32-64-64-64z m-576 192h-64v-128h64v128z m128 0h-64v-128h64v128z m128 0h-64v-128h64v128z m128 0h-64v-128h64v128z m192-832h-640c-35 0-64 32-64 64v128c0 32 32 64 64 64h640c32 0 64-32 64-64v-128c0-32-32-64-64-64z m-576 192h-64v-128h64v128z m128 0h-64v-128h64v128z m128 0h-64v-128h64v128z m128 0h-64v-128h64v128z m192-64h-64v-64h64v64z"/></svg><svg viewBox="0 0 896 1024" id="settings" width="21" height="24" x="395" y="303"><path d="m64 896h128v-192h-128v192z m128-768h-128v320h128v-320z m320 0h-128v128h128v-128z m-512 512h256v-128h-256v128z m384 256h128v-384h-128v384z m-64-448h256v-128h-256v128z m512-320h-128v384h128v-384z m-192 448v128h256v-128h-256z m64 320h128v-128h-128v128z"/></svg><svg viewBox="0 0 896 1024" id="sign-in" width="21" height="24" x="5" y="333"><path d="m640 576l0-128 256 0 0-128-256 0 0-128-192 144 0-144-256-128 512 0 0 192 64 0 0-256-704 0 0 832 384 192 0-192 320 0 0-320-64 0 0 256-256 0 0-336z"/></svg><svg viewBox="0 0 1024 1024" id="sign-out" width="24" height="24" x="33" y="333"><path d="m640 768h-256v-576l-256-128h512v192h64v-256h-704v832l384 192v-192h320v-320h-64v256z m384-384l-256-192v128h-256v128h256v128l256-192z"/></svg><svg viewBox="0 0 1024 1024" id="split" width="24" height="24" x="63" y="333"><path d="m448 256l-256-256-192 192 311 300c15-81 43-136 133-230l5-6z m128-256l133 133-197 197c-99 99-128 162-128 309v384h256v-384c0-52 19-94 53-128l197-197 133 133v-448h-448z"/></svg><svg viewBox="0 0 1024 1024" id="squirrel" width="24" height="24" x="93" y="333"><path d="m768 64c-141.4 0-256 83.8-256 186.9 0 123.9 32 194.1 0 389.1 0-288-177-405.8-256-405.8 3.3-32.2-31-42.2-31-42.2s-14 7.1-19.3 21.6c-17.2-20.1-36.2-17.6-36.2-17.6l-8.5 37.1c0 0-117 40.9-118.6 206.3 13.6 21.6 98.9 38.7 159.5 27.7 57.1 3 43 50.7 30.2 63.5-54 54-104.1-18.6-168.1-18.6s-64 64 0 64 64 64 192 64c-198 77 0 256 0 256h-64c-64 0-64 64-64 64s256 0 384 0c192 0 320-64 320-222.2 0-54.3-27.7-114.6-64-162.2-70.9-93 14.5-171.2 64-127.6s192 64 192-128c0-141.4-114.6-256-256-256z m-608 320c-17.7 0-32-14.3-32-32 0-17.7 14.3-32 32-32 17.7 0 32 14.3 32 32 0 17.7-14.3 32-32 32z"/></svg><svg viewBox="0 0 896 1024" id="star" width="21" height="24" x="125" y="333"><path d="m896 384l-313.5-40.8-134.5-279.2-134.5 279.2-313.5 40.8 230.5 208.9-59.5 303 277-148.8 277.1 148.8-59.6-303 230.5-208.9z"/></svg><svg viewBox="0 0 640 1024" id="steps" width="15" height="24" x="158" y="333"><path d="m136 64c-75.1 0-136 100.3-136 224 0 68.8 17 141.8 34 254.5 13.3 88.3 45.7 161.5 102 161.5s94.1-48.8 94.1-138c0-30.3-25-78.7-26.1-120-2-74.5 49.9-104.2 49.9-173 0-123.7-42.8-209-117.9-209z m367 256c-75.1 0-118 85.3-118 209 0 68.8 52 98.5 50 173-1.1 41.3-26.1 89.7-26.1 120 0 89.2 37.7 138 94.1 138s88.7-73.2 102-161.5c17-112.7 34-185.7 34-254.5 0-123.7-60.9-224-136-224z"/></svg><svg viewBox="0 0 1024 1024" id="stop" width="24" height="24" x="183" y="333"><path d="m704 0h-384l-320 320v384l320 320h384l320-320v-384l-320-320z m192 640l-256 256h-256l-256-256v-256l256-256h256l256 256v256z m-448-64h128v-320h-128v320z m0 192h128v-128h-128v128z"/></svg><svg viewBox="0 0 768.051 1024" id="sync" width="18" height="24" x="216" y="333"><path d="m655.5 473.5c11.8 81.7-13.1 167.8-76.9 230.6-94.1 92.9-239.5 104.3-346.3 34.5l74.8-73-275.1-38.3 38.4 268.7 84-80.5c150.9 111.3 364.9 100.8 502.1-34.6 79.5-78.4 115.7-182.5 111.2-285.3l-112.2-22.1z m-466-153.4c94.1-93 239.4-104.5 346.3-34.6l-75 73 275.2 38.4-38.4-268.9-84 80.7c-150.9-111.4-364.9-100.7-502 34.6-79.5 78.4-115.7 182.5-111.3 285.2l112.3 22.1c-11.9-81.7 13.1-167.7 76.9-230.5z"/></svg><svg viewBox="0 0 896 1024" id="tag" width="21" height="24" x="245" y="333"><path d="m384 64h-256l-128 128v256l512 512 384-384-512-512z m-320 352v-192l96-96h192l448 448-288 288-448-448z m384-96l-192 192 256 256 192-192-256-256z m-96 192l96-96 160 160-96 96-160-160z m-32-224c0-53-43-96-96-96s-96 43-96 96 43 96 96 96 96-43 96-96z m-96 32c-17.7 0-32-14.3-32-32s14.3-32 32-32 32 14.3 32 32-14.3 32-32 32z"/></svg><svg viewBox="0 0 929.875 1024" id="telescope" width="22" height="24" x="274" y="333"><path d="m76 423c32-8 229-59 229-59-1 6-2 19-2 19 0 71 49 128 128 128s128-59 128-128c0-11-8-22-19-32l49 3s7-2 31-8c-51 14-108-31-126-99s8-135 60-149c-24 6-31 8-31 8l-168 110c-34 9-55 46-46 80 2 9 7 17 12 23-7 12-12 26-15 40-27-1-51-19-59-46-9-34 11-69 45-78l-245 65c-34 9-54 43-45 77s41 54 73 46z m419 153h-128v64l-320 320h128l192-128v128h128v-128l192 128h128l-320-320v-64z m429-448c-18-68-70-110-122-96-69 18-98 28-186 51-51 14-79 80-61 148s74 115 125 102c87-23 117-33 186-51 51-14 76-85 58-154z m-70 90c-17 5-42-17-51-51s-4-66 13-70 42 17 51 51 4 66-13 70z"/></svg><svg viewBox="0 0 896 1024" id="terminal" width="21" height="24" x="305" y="333"><path d="m831 127h-768c-35.4 0-64 28.7-64 64v640c0 35.4 28.6 64 64 64h768c35.4 0 64-28.6 64-64v-640c0-35.4-28.6-64-64-64z m-704 448l128-128-128-128 64-64 192 192-192 192-64-64z m512 64h-256v-64h256v64z"/></svg><svg viewBox="0 0 768 1024" id="three-bars" width="18" height="24" x="336" y="333"><path d="m0 192v128h768v-128h-768z m0 384h768v-128h-768v128z m0 256h768v-128h-768v128z"/></svg><svg viewBox="0 0 1024 1024" id="thumbsdown" width="24" height="24" x="363" y="333"><path d="m833 574c0 38-31 68-68 68h-111c-5 0-109-4-128 8-19 11-21 101-8 139 12 34 22 100-16 150-23 30-57 25-78 17-23-8-14-50-10-86 4-35-14-93-47-123s-29-58-45-86-41-52-62-86-68-41-132-39v-353s93 0 114-2c31-3 72-13 112-26 41-13 128-26 140-26 89-3 174 18 208 24 34 7 60 41 54 77-2 11-6 21-12 29 6 2 11 5 16 9 22 12 36 34 36 60 0 21-9 39-24 52 4 1 8 3 12 5 27 9 47 35 47 65 0 27-16 51-40 62 2 1 4 2 6 4 15 9 26 23 31 40 2 6 3 11 3 18 0 1 0 1 0 2z"/></svg><svg viewBox="0 0 1024 1024" id="thumbsup" width="24" height="24" x="393" y="333"><path d="m833 451c0-38-31-68-68-68h-111c-5 0-109 4-128-8-19-11-21-101-8-139 12-34 22-100-16-150-23-30-57-25-78-17-23 8-14 50-10 86 4 35-14 93-47 123s-29 58-45 86-41 52-62 86-68 41-132 39v353s93 0 114 2c31 3 72 13 112 26 41 13 128 26 140 26 89 3 174-18 208-24s60-41 54-77c-2-11-6-21-12-29 6-2 11-5 16-9 22-12 36-34 36-60 0-21-9-39-24-52 4-1 8-3 12-5 27-9 47-35 47-65 0-27-16-51-40-62 2-1 4-2 6-4 15-9 26-23 31-40 2-6 3-11 3-18 0-1 0-1 0-2z"/></svg><svg viewBox="0 0 1024 1024" id="tools" width="24" height="24" x="3" y="363"><path d="m286.5 465c16.9 16.8 81.8 85.3 81.8 85.3l35.9-37.1-56.3-58.2 108.2-115c0 0-48.9-47.6-27.5-28.6 20.4-75.9 1.8-160.6-55.8-220.3-57.2-59.2-138.4-78.6-211.4-58.2l123.7 127.7-32.6 125.3-121 33.5-123.6-127.8c-19.7 75.5-1 159.4 56.3 218.6 60.1 62.1 146.6 80.3 222.3 54.8z m412.3 124.2l-149.1 147.3 245.9 254.8c20.1 20.9 46.5 31.2 72.9 31.2 26.2 0 52.6-10.3 72.8-31.2 40.3-41.6 40.3-109 0-150.6l-242.5-251.5z m324.9-427.4l-156.6-161.8-461.7 477.3 56.4 58.2-276.4 285.7-63.1 33.7-89.2 145.6 22.7 23.5 140.8-92.2 32.7-65.3 276.3-285.6 56.4 58.3 461.7-477.4z"/></svg><svg viewBox="0 0 768 1024" id="trashcan" width="18" height="24" x="36" y="363"><path d="m704 128h-256c0 0 0-24.1 0-32 0-17.7-14.3-32-32-32s-32 14.3-32 32c0 17.7 0 32 0 32h-256c-35.3 0-64 28.7-64 64v64c0 35.3 28.7 64 64 64v576c0 35.3 28.7 64 64 64h448c35.3 0 64-28.7 64-64v-576c35.3 0 64-28.7 64-64v-64c0-35.3-28.7-64-64-64z m-64 736c0 17.7-14.3 32-32 32h-384c-17.7 0-32-14.3-32-32v-544h64v480c0 17.7 14.3 32 32 32s32-14.3 32-32l0.4-480h63.6v480c0 17.7 14.3 32 32 32s32-14.3 32-32l0.4-480h64l-0.4 480c0 17.7 14.3 32 32 32s32-14.3 32-32v-480h64v544z m64-624c0 8.8-7.2 16-16 16h-544c-8.8 0-16-7.2-16-16v-32c0-8.8 7.2-16 16-16h544c8.8 0 16 7.2 16 16v32z"/></svg><svg viewBox="0 0 767.5 1024" id="triangle-down" width="18" height="24" x="66" y="363"><path d="m0 384l383.8 383.8 383.7-383.8h-767.5z"/></svg><svg viewBox="0 0 383.75 1024" id="triangle-left" width="9" height="24" x="101" y="363"><path d="m0 511.9l383.8 383.7v-767.5l-383.8 383.8z"/></svg><svg viewBox="0 0 383.875 1024" id="triangle-right" width="9" height="24" x="131" y="363"><path d="m0.1 128.3l383.7 383.7-383.7 383.8v-767.5z"/></svg><svg viewBox="0 0 767.5 1024" id="triangle-up" width="18" height="24" x="156" y="363"><path d="m383.8 256l-383.8 383.8h767.5l-383.7-383.8z"/></svg><svg viewBox="0 0 896 1024" id="unfold" width="21" height="24" x="185" y="363"><path d="m384 384h128v-192h128l-192-192-192 192h128v192z m192-128v64h224l-128 128h-448l-128-128h224v-64h-320v64l160 160-160 160v64h320v-64h-224l128-128h448l128 128h-224v64h320v-64l-160-160 160-160v-64h-320z m-64 320h-128v192h-128l192 192 192-192h-128v-192z"/></svg><svg viewBox="0 0 896 1024" id="unmute" width="21" height="24" x="215" y="363"><path d="m128 384h-128v256h128l256 192h64v-640h-64l-256 192z m410.5 37.5c-12.5-12.5-32.7-12.5-45.2 0-12.5 12.5-12.5 32.7 0 45.2 24.9 25 24.9 65.6 0 90.6-12.5 12.5-12.5 32.7 0 45.2 12.5 12.5 32.7 12.5 45.2 0 50-50 50-131 0-181z m90.5-90.5c-12.5-12.5-32.7-12.5-45.2 0-12.5 12.5-12.5 32.7 0 45.2 74.9 75 74.9 196.6 0 271.6-12.5 12.5-12.5 32.7 0 45.2 12.5 12.5 32.7 12.5 45.2 0 100-100 100-262 0-362z m90.5-90.5c-12.5-12.5-32.7-12.5-45.2 0-12.5 12.5-12.5 32.7 0 45.2 124.9 125 124.9 327.6 0 452.6-12.5 12.5-12.5 32.7 0 45.2 12.5 12.5 32.7 12.5 45.2 0 150-149.9 150-393.1 0-543z"/></svg><svg viewBox="0 0 896 1024" id="versions" width="21" height="24" x="245" y="363"><path d="m0 704h128v-64h-64v-256h64v-64h-128v384z m384-512v640h512v-640h-512z m384 512h-256v-384h256v384z m-576 64h128v-64h-64v-384h64v-64h-128v512z"/></svg><svg viewBox="0 0 640 1024" id="x" width="15" height="24" x="278" y="363"><path d="m640 320l-128-128-192 192-192-192-128 128 192 192-192 192 128 128 192-192 192 192 128-128-192-192 192-192z"/></svg><svg viewBox="0 0 640 1024" id="zap" width="15" height="24" x="308" y="363"><path d="m640 448h-256l192-448-576 576h256l-192 448 576-576z"/></svg></svg>