<svg xmlns="http://www.w3.org/2000/svg" xmlns:xlink="http://www.w3.org/1999/xlink" width="150" height="150"><defs><symbol id="error" viewBox="0 0 36 36"><path d="M18 3C9.72 3 3 9.72 3 18s6.72 15 15 15c8.28 0 15-6.72 15-15S26.28 3 18 3zm1 22h-2v-2h2v2zm0-5h-2v-9h2v9z"/></symbol><symbol id="warning" viewBox="0 0 36 36"><path d="M1 32h34L18 3 1 32zm18-5h-2v-2h2v2zm0-5h-2v-7h2v7z"/></symbol><symbol id="apps" viewBox="0 0 36 36"><path d="M6 12h6V6H6v6zm9 18h6v-6h-6v6zm-9 0h6v-6H6v6zm0-9h6v-6H6v6zm9 0h6v-6h-6v6zm9-15v6h6V6h-6zm-9 6h6V6h-6v6zm9 9h6v-6h-6v6zm0 9h6v-6h-6v6z"/></symbol><symbol id="arrow-back" viewBox="0 0 36 36"><path d="M30 16.5H11.74l8.38-8.38L18 6 6 18l12 12 2.12-2.12-8.38-8.38H30v-3z"/></symbol><symbol id="arrow-drop-down" viewBox="0 0 36 36"><path d="M10.5 15l7.5 7.5 7.5-7.5z"/></symbol><symbol id="arrow-drop-up" viewBox="0 0 36 36"><path d="M10.5 21l7.5-7.5 7.5 7.5z"/></symbol><symbol id="arrow-forward" viewBox="0 0 36 36"><path d="M18 6l-2.12 2.12 8.38 8.38H6v3h18.26l-8.38 8.38L18 30l12-12z"/></symbol><symbol id="cancel" viewBox="0 0 36 36"><path d="M18 3C9.71 3 3 9.71 3 18s6.71 15 15 15 15-6.71 15-15S26.29 3 18 3zm7.5 20.38l-2.12 2.12L18 20.12l-5.38 5.38-2.12-2.12L15.88 18l-5.38-5.38 2.12-2.12L18 15.88l5.38-5.38 2.12 2.12L20.12 18l5.38 5.38z"/></symbol><symbol id="check" viewBox="0 0 36 36"><path d="M13.5 24.26L7.24 18l-2.12 2.12 8.38 8.38 18-18-2.12-2.12z"/></symbol><symbol id="chevron-left" viewBox="0 0 36 36"><path d="M23.12 11.12L21 9l-9 9 9 9 2.12-2.12L16.24 18z"/></symbol><symbol id="chevron-right" viewBox="0 0 36 36"><path d="M15 9l-2.12 2.12L19.76 18l-6.88 6.88L15 27l9-9z"/></symbol><symbol id="close" viewBox="0 0 36 36"><path d="M28.5 9.62L26.38 7.5 18 15.88 9.62 7.5 7.5 9.62 15.88 18 7.5 26.38l2.12 2.12L18 20.12l8.38 8.38 2.12-2.12L20.12 18z"/></symbol><symbol id="expand-less" viewBox="0 0 36 36"><path d="M18 12l-9 9 2.12 2.12L18 16.24l6.88 6.88L27 21z"/></symbol><symbol id="expand-more" viewBox="0 0 36 36"><path d="M24.88 12.88L18 19.76l-6.88-6.88L9 15l9 9 9-9z"/></symbol><symbol id="fullscreen" viewBox="0 0 36 36"><path d="M10 21H7v8h8v-3h-5v-5zm-3-6h3v-5h5V7H7v8zm19 11h-5v3h8v-8h-3v5zM21 7v3h5v5h3V7h-8z"/></symbol><symbol id="fullscreen-exit" viewBox="0 0 36 36"><path d="M7 24h5v5h3v-8H7v3zm5-12H7v3h8V7h-3v5zm9 17h3v-5h5v-3h-8v8zm3-17V7h-3v8h8v-3h-5z"/></symbol><symbol id="menu" viewBox="0 0 36 36"><path d="M4 27h28v-3H4v3zm0-8h28v-3H4v3zM4 8v3h28V8H4z"/></symbol><symbol id="more-horiz" viewBox="0 0 36 36"><path d="M9 15c-1.66 0-3 1.34-3 3s1.34 3 3 3 3-1.34 3-3-1.34-3-3-3zm18 0c-1.66 0-3 1.34-3 3s1.34 3 3 3 3-1.34 3-3-1.34-3-3-3zm-9 0c-1.66 0-3 1.34-3 3s1.34 3 3 3 3-1.34 3-3-1.34-3-3-3z"/></symbol><symbol id="more-vert" viewBox="0 0 36 36"><path d="M18 12c1.66 0 3-1.34 3-3s-1.34-3-3-3-3 1.34-3 3 1.34 3 3 3zm0 3c-1.66 0-3 1.34-3 3s1.34 3 3 3 3-1.34 3-3-1.34-3-3-3zm0 9c-1.66 0-3 1.34-3 3s1.34 3 3 3 3-1.34 3-3-1.34-3-3-3z"/></symbol><symbol id="refresh" viewBox="0 0 36 36"><path d="M26.47 9.53C24.3 7.35 21.32 6 18 6 11.37 6 6 11.37 6 18s5.37 12 12 12c5.94 0 10.85-4.33 11.81-10h-3.04c-.91 4.01-4.49 7-8.77 7-4.97 0-9-4.03-9-9s4.03-9 9-9c2.49 0 4.71 1.03 6.34 2.66L20 16h10V6l-3.53 3.53z"/></symbol><symbol id="unfold-less" viewBox="0 0 36 36"><path d="M11.12 27.88L13.24 30 18 25.24 22.76 30l2.12-2.12L18 21l-6.88 6.88zM24.88 8.12L22.76 6 18 10.76 13.24 6l-2.12 2.12L18 15l6.88-6.88z"/></symbol><symbol id="unfold-more" viewBox="0 0 36 36"><path d="M18 9.24L22.76 14l2.12-2.12L18 5l-6.88 6.88L13.24 14 18 9.24zm0 17.52L13.24 22l-2.12 2.12L18 31l6.88-6.88L22.76 22 18 26.76z"/></symbol></defs><g><use xlink:href="#error" width="24" height="24" x="3" y="3"/><use xlink:href="#warning" width="24" height="24" x="33" y="3"/><use xlink:href="#apps" width="24" height="24" x="63" y="3"/><use xlink:href="#arrow-back" width="24" height="24" x="93" y="3"/><use xlink:href="#arrow-drop-down" width="24" height="24" x="123" y="3"/><use xlink:href="#arrow-drop-up" width="24" height="24" x="3" y="33"/><use xlink:href="#arrow-forward" width="24" height="24" x="33" y="33"/><use xlink:href="#cancel" width="24" height="24" x="63" y="33"/><use xlink:href="#check" width="24" height="24" x="93" y="33"/><use xlink:href="#chevron-left" width="24" height="24" x="123" y="33"/><use xlink:href="#chevron-right" width="24" height="24" x="3" y="63"/><use xlink:href="#close" width="24" height="24" x="33" y="63"/><use xlink:href="#expand-less" width="24" height="24" x="63" y="63"/><use xlink:href="#expand-more" width="24" height="24" x="93" y="63"/><use xlink:href="#fullscreen" width="24" height="24" x="123" y="63"/><use xlink:href="#fullscreen-exit" width="24" height="24" x="3" y="93"/><use xlink:href="#menu" width="24" height="24" x="33" y="93"/><use xlink:href="#more-horiz" width="24" height="24" x="63" y="93"/><use xlink:href="#more-vert" width="24" height="24" x="93" y="93"/><use xlink:href="#refresh" width="24" height="24" x="123" y="93"/><use xlink:href="#unfold-less" width="24" height="24" x="3" y="123"/><use xlink:href="#unfold-more" width="24" height="24" x="33" y="123"/></g></svg>