<svg xmlns="http://www.w3.org/2000/svg" width="216" height="216"><svg viewBox="0 0 486.037 1000" id="facebook" width="12" height="24" x="9" y="3"><path d="m124 1000v-469h-124v-169h124v-144c0-113 73-218 242-218 68 0 119 7 119 7l-4 158s-52-1-108-1c-61 0-71 28-71 75v123h183l-8 169h-175v469h-179"/></svg><svg viewBox="0 0 1000 1000" id="facebook-rect" width="24" height="24" x="33" y="3"><path d="m183 0c-101 0-183 81-183 183v635c0 101 81 183 183 183h344v-391h-103v-141h103v-120c0-94 61-181 202-181 57 0 99 5 99 5l-3 131s-43 0-90 0c-51 0-59 23-59 62v103h153l-7 141h-146v391h142c101 0 183-81 183-183v-635c0-101-81-183-183-183h-635z"/></svg><svg viewBox="0 0 749 1000" id="twitter" width="18" height="24" x="66" y="3"><path d="m749 875c0 34-12 64-37 88-25 25-54 37-89 37h-248c-103 0-192-37-265-110s-110-161-110-264v-501c0-35 12-65 37-89 24-24 54-36 89-36 34 0 64 12 88 37 24 24 37 54 37 88v181h353c32 0 60 11 82 34 23 23 34 50 34 82s-11 59-34 82-50 34-82 34h-354v88c0 34 12 64 36 88s53 36 88 36h248c34 0 64 12 89 37s37 54 37 88"/></svg><svg viewBox="0 0 1231 1000" id="twitter-bird" width="24" height="19" x="93" y="5"><path d="m1231 118q-51 76-126 130 1 14 1 33 0 101-30 203t-90 194q-61 93-145 164-84 72-202 114-118 43-252 43-210 0-387-113 31 3 60 3 176 0 314-108-82-2-147-50-65-49-89-125 24 5 48 5 34 0 66-9-87-18-145-87-58-70-58-161v-3q54 30 114 32-52-35-82-90t-30-120q0-68 34-127 95 117 230 186 135 70 290 78-7-28-7-57 0-105 74-179t179-74q109 0 184 80 86-17 160-61-29 91-111 140 76-9 145-40z"/></svg><svg viewBox="0 0 1158.764 1000" id="vimeo" width="24" height="21" x="123" y="5"><path d="m1158 231q-8 169-236 462-236 306-400 306-101 0-171-187l-93-343q-52-187-112-187-13 0-91 55l-55-70q86-75 169-151 114-99 171-104 135-13 166 184 34 213 47 265 39 177 86 177 36 0 109-114t78-174q10-99-78-99-42 0-86 18 86-278 327-270 179 5 169 231z"/></svg><svg viewBox="0 0 1000 1000" id="vimeo-rect" width="24" height="24" x="153" y="3"><path d="m193 0c-107 0-193 86-193 193v614c0 107 86 193 193 193h614c107 0 193-86 193-193v-614c0-107-86-193-193-193h-614z m517 197c3 0 6 0 9 0 74 2 108 50 104 143-3 69-52 165-146 285-97 126-180 189-247 189-42 0-77-38-106-115l-58-212c-21-77-44-115-69-115-5 0-24 11-56 34l-34-43c35-31 70-62 104-93 47-41 82-62 106-64 56-5 90 33 103 114 14 88 24 142 29 164 16 73 34 109 53 109 15 0 37-24 67-71s46-83 48-107c4-41-12-61-48-61-17 0-35 4-53 11 34-111 98-166 193-167z"/></svg><svg viewBox="0 0 616.059 1000" id="tumblr" width="15" height="24" x="188" y="3"><path d="m346 0v253h237v157h-237v256c0 58 3 95 9 112 6 16 18 30 34 39 22 13 47 20 76 20 51 0 101-16 151-49v158c-43 20-81 34-116 42s-72 12-112 12c-46 0-86-6-121-17-35-12-65-28-90-49s-42-44-52-68-14-59-14-105v-351h-111v-142c39-13 73-31 101-55s50-52 67-86c17-33 29-76 35-127h142"/></svg><svg viewBox="0 0 1000 1000" id="tumblr-rect" width="24" height="24" x="3" y="33"><path d="m193 0c-107 0-193 86-193 193v614c0 107 86 193 193 193h614c107 0 193-86 193-193v-614c0-107-86-193-193-193h-614z m242 141h99v176h165v109h-165v179c0 40 2 66 6 78 4 11 12 21 24 27 15 9 33 14 53 14 35 0 70-11 105-34v110c-30 14-57 24-81 30s-50 8-78 8c-32 0-60-4-85-12-24-8-45-20-63-34-17-15-29-31-36-48s-10-41-10-73v-245h-77v-99c27-9 51-22 70-38 20-17 35-37 47-60s20-53 24-89z"/></svg><svg viewBox="0 0 1001 1000" id="googleplus-rect" width="24" height="24" x="33" y="33"><path d="m92 0c-51 0-92 26-92 92v79c4-4 8-7 12-11 83-69 174-80 250-81h307l-82 66h-89c36 31 89 86 89 185 0 108-57 159-118 207-19 19-41 39-41 72 0 32 22 50 38 63l52 41c64 54 147 116 147 217 0 27-3 51-12 72h354c51 0 92-28 92-79v-581h-184v186h-79v-186h-184v-77h184v-184h79v184h184v-171c0-66-41-92-92-92h-816z m908 263v77h1v-77h-1z m-813-135c-38 0-78 19-102 48-25 31-29 70-29 108 0 98 51 242 176 242 36 0 74-9 97-36 27-31 38-72 38-93 0-105-61-268-181-268z m-187 398v258c66-53 180-43 235-47-20-26-44-54-44-99 0-25 7-39 15-57-16 1-32 3-47 3-66 0-120-25-160-58z m251 252c-13 0-92 3-153 23-21 8-69 26-99 67v53c0 51 41 79 92 79h377c2-7 6-12 6-26-1-74-80-115-190-194-12-2-19-2-33-2z"/></svg><svg viewBox="0 0 924 1000" id="github-text" width="22" height="24" x="64" y="33"><path d="m527 0c-21 0-39 8-54 24s-22 35-22 58c0 22 7 41 22 57s33 24 54 24c20 0 38-8 53-24s22-35 22-57c0-23-7-42-22-58s-33-24-53-24z m164 156c2 12 3 29 3 49v43h-54v106c15-2 28-3 37-3l16 1v2h-1v196c0 61 8 106 23 134 20 38 57 57 110 57 38 0 70-7 97-22v-109c-18 12-39 19-61 19-32 0-48-24-48-73v-203h47c9 0 18 0 28 1s17 1 20 1v-106h-95v-45c0-17 1-33 3-47h-127z m-501 86c-50 0-92 16-128 49-37 35-56 79-56 131 0 35 10 68 31 98 18 28 39 47 62 55v2c-23 10-35 36-35 77 0 31 12 55 37 70v2c-68 23-102 64-102 126 0 53 23 92 68 117 36 20 81 30 137 30 135 0 202-56 202-169 0-71-52-114-156-130-24-4-42-12-55-26-9-9-14-19-14-28 0-27 15-43 44-47 44-7 81-27 109-62s42-75 42-122c0-15-3-30-9-47 19-4 34-8 44-12v-113c-46 17-86 26-121 26-31-17-64-26-99-26z m274 5c1 13 2 37 2 71v340c0 35-1 60-2 74h124c-1-17-2-44-2-81v-336c0-32 1-55 2-69h-124z m-270 95c22 0 39 8 51 25 10 15 15 34 15 55 0 51-22 77-67 77-46 0-69-25-69-75 0-54 23-81 69-81z m8 445c61 0 92 19 92 56 0 39-28 59-84 59-64 0-96-19-96-57 0-39 30-58 89-58z"/></svg><svg viewBox="0 0 1228 1000" id="github" width="24" height="20" x="93" y="35"><path d="m1079-1c-33 0-110 11-239 97-70-18-145-26-220-26-82 0-165 10-243 32-185-126-266-100-266-100-53 133-20 232-10 256-63 68-101 154-101 260 0 80 9 151 31 214 1 5 1 4 3 8 5 13 10 25 16 37 2 4 4 8 4 8 62 116 185 191 404 215h331c233-23 345-98 397-216l3-8c5-12 9-24 21-66 12-41 17-113 17-193 0-115-43-207-113-276 12-39 29-127-16-239 0 0-6-2-19-2z m-261 421c54 0 100 9 135 45 43 46 69 101 69 160 0 277-178 284-397 284-220 0-397-38-397-284 0-59 25-114 68-159 71-76 192-36 330-36 70 0 137-11 194-11z m-409 81c-46 0-83 62-83 138s37 138 83 138 83-62 83-138-37-138-83-138z m444 0c-46 0-83 62-83 138s37 138 83 138 83-62 83-138-37-138-83-138z"/></svg><svg viewBox="0 0 999.978 1000" id="skype" width="24" height="24" x="123" y="33"><path d="m958 572c4-24 6-48 6-72 0-256-208-464-464-464-25 0-49 2-72 6-43-26-93-42-147-42-155 0-280 126-280 280 0 54 15 104 42 147-4 24-6 48-6 72 0 256 208 464 464 464 25 0 49-2 72-6 43 26 93 42 147 42 155 0 280-126 280-280 0-54-15-104-42-147z m-238 139c-20 28-48 50-86 66s-82 24-134 24c-62 0-113-11-153-33-29-16-52-37-70-63s-27-52-27-77c0-15 6-28 17-38 11-11 25-16 42-16 14 0 26 4 35 12 10 8 18 20 24 36 8 18 16 34 25 46s22 22 38 30 38 12 65 12c37 0 67-8 90-24s34-35 34-59c0-19-6-34-18-45-12-12-28-21-48-27s-47-13-80-20c-45-10-82-21-113-34-30-13-55-31-73-54s-27-51-27-85c0-32 9-61 28-86s46-44 82-58c36-13 78-20 126-20 38 0 72 4 100 13s51 21 70 35c19 15 32 30 41 47 9 16 13 32 13 48 0 15-6 28-17 39-11 12-25 17-41 17-15 0-26-3-34-11-8-7-16-18-25-34-11-22-25-38-40-50s-40-18-75-18c-32 0-58 7-78 20s-29 28-29 46c0 11 3 21 10 29s16 15 27 21c12 6 24 11 36 14s32 8 60 15c35 8 67 16 96 25s53 20 73 34c20 13 36 30 48 51 11 20 17 45 17 75 0 35-10 67-29 96z"/></svg><svg viewBox="0 0 981 1000" id="icq" width="24" height="24" x="153" y="33"><path d="m355 27c-31-7-56-4-83 10-30 18-47 47-54 86-7 41 0 80 21 120l10 14-34-11c-42-10-82-4-121 17-41 21-66 51-83 92-16 39-14 78 6 113 8 16 21 28 32 37 17 17 38 27 63 31l10 3-21 18c-20 17-31 38-38 59-7 25-4 51 10 75 7 11 14 21 25 28 11 10 25 17 42 18 31 7 63 7 99-4l-25 42-7 18c-14 45-10 85 11 125 10 16 21 30 32 42 17 16 38 25 63 32 42 11 85 10 125-11 39-21 65-55 78-97l1-8c27 30 52 49 80 56 28 8 56 7 82-10 24-14 41-38 49-68 7-31 7-62 0-97 14 10 28 17 45 21 45 14 85 13 124-8 38-21 63-55 76-99 11-42 8-83-13-123l-7-11c-11-17-23-34-39-45-14-10-31-17-47-24 44-21 75-51 89-89 10-31 7-56-7-82v-3c-17-28-39-47-75-56-21-4-45-4-66-3l-47 10 16-35c14-45 10-89-14-130l-4-7c-21-35-52-56-94-68-44-11-85-7-124 14s-68 54-80 96v3l-1 10-6-10-14-25c-23-35-51-56-86-66z m360 85c7 14 11 31 11 49l-4 31c-6 16-13 30-21 42l-127 155c-13-10-27-17-41-24l-14-159-1-56 1-14c7-28 27-49 52-63s54-17 80-7c30 7 51 23 63 47z m-437 28c1-25 11-42 28-52 8-7 21-7 32-1 25 7 47 25 63 61 7 14 14 28 17 45l28 166-21 7-125-137-7-14c-11-25-18-49-15-75z m-76 165l38 16 124 90c-11 14-18 28-23 42l-203 25-14-3c-25-4-42-16-54-37-11-21-11-42-3-63 10-27 28-48 55-59 25-14 51-18 79-11z m134 230l10 28 4 10c-21 18-37 35-54 51l-42 35-11 7c-27 13-49 17-73 14-21-1-38-8-45-21l-4-16 3-13c7-21 25-42 58-58 17-7 31-14 42-17l113-21z m440-228c25-11 49-14 75-11 24 3 41 14 49 31l6 18-3 14c-10 25-31 45-66 61-14 7-30 10-47 13l-173 21-3-10-3-4 6-7 142-118 17-7z m-360 134c17-16 39-25 66-25 25 0 49 10 65 25 20 20 28 41 28 66s-8 49-28 66c-18 18-39 28-65 28-27 0-49-10-66-28-18-17-28-41-28-66s10-47 28-66z m32 204c3 48 7 99 14 154v56l-1 14c-10 25-27 47-52 58-25 14-52 17-78 10-28-7-49-24-61-47-7-14-13-31-13-48l7-32c3-14 10-28 21-39l118-141c14 7 28 14 44 15z m109-18l59 61 37 45 7 14c13 24 20 47 17 73-3 25-11 44-28 51-10 7-21 7-32 6-27-7-48-28-63-62l-17-47-21-123 24-8 18-10z m63-87l159-14 56-1 14 1c21 7 41 20 52 41 14 16 21 37 21 61l-4 28c-7 28-24 49-48 61-25 14-51 17-79 7-17-4-28-11-38-23l-148-123 10-21 4-17z"/></svg><svg viewBox="0 0 580.641 1000" id="yandex" width="14" height="24" x="188" y="33"><path d="m456 544h-68c-107 0-210-64-210-224 0-167 97-235 196-235h83v459z m107-544h-184c-181 0-335 113-335 333 0 132 74 229 207 277l-247 368c-8 12 0 21 13 21h115c10 0 16-3 19-9l225-361h81v361c0 4 5 9 11 9h100c10 0 13-4 13-11v-976c0-9-6-13-18-13"/></svg><svg viewBox="0 0 1000 1000" id="yandex-rect" width="24" height="24" x="3" y="63"><path d="m177 0c-98 0-177 79-177 177v646c0 98 79 177 177 177h475l348-500-348-500h-475z m266 183h113c7 0 11 3 11 9v622c0 4-2 7-8 7h-61c-4 0-7-3-7-6v-230h-50l-138 230c-2 4-6 6-12 6h-70c-8 0-13-6-8-14l152-235c-81-31-127-93-127-177 0-140 94-213 205-213z m-3 54c-60 0-120 43-120 150 0 102 63 143 129 143h42v-292h-51z"/></svg><svg viewBox="0 0 1000 1000" id="vkontakte-rect" width="24" height="24" x="33" y="63"><path d="m196 0c-108 0-196 88-196 196v608c0 108 88 196 196 196h608c108 0 196-88 196-196v-608c0-108-88-196-196-196h-608z m112 226h197c41 0 72 1 93 5 21 3 41 10 59 20 20 11 35 25 45 43s15 39 15 62c0 27-7 51-21 73-14 21-32 37-56 47v3c34 7 62 22 83 44s31 53 31 91c0 28-5 52-16 73s-25 38-42 52c-21 16-44 28-69 35s-57 11-96 11h-224v-558z m140 102v118h18c24 0 41 0 50-1 10-1 20-3 30-8 11-5 19-13 23-22s6-20 6-32c0-9-2-18-7-28-5-9-12-16-22-21-9-4-20-6-33-7-13 0-31-1-56-1h-10z m0 214v140h8c37 0 62 0 76-1s28-4 43-10c13-6 22-14 28-24 6-11 9-23 9-36 0-17-3-31-10-40-7-10-18-17-32-22-8-3-20-5-35-6-15 0-35-1-60-1h-26z"/></svg><svg viewBox="0 0 579 1000" id="odnoklassniki" width="14" height="24" x="68" y="63"><path d="m290 0c-142 0-258 116-258 258s116 258 258 258 258-116 258-258-116-258-258-258z m0 151c59 0 107 48 107 107s-48 107-107 107-107-48-107-107 48-107 107-107z m-213 374c-26 0-51 12-65 35-22 35-12 82 24 104 47 29 97 50 150 62l-144 144c-30 30-30 77 0 107 15 15 34 22 53 22s39-7 53-22l142-142 142 142c30 30 77 30 107 0s30-77 0-107l-144-144c53-12 103-33 150-62 35-22 46-69 24-104s-69-46-104-24c-106 66-242 66-347 0-12-8-26-11-39-12z"/></svg><svg viewBox="0 0 1000 1000" id="odnoklassniki-rect" width="24" height="24" x="93" y="63"><path d="m141 0c-78 0-141 63-141 141v719c0 78 63 141 141 141h719c78 0 141-63 141-141v-719c0-78-63-141-141-141h-719z m382 102c113 0 206 92 206 206 0 113-92 206-206 206-113 0-206-92-206-206 0-113 92-206 206-206z m-2 121c-46 1-83 39-83 85 0 47 38 85 85 85s85-38 85-85-38-85-85-85c-1 0-1 0-2 0z m-168 298c11 0 22 3 32 9 84 53 193 53 277 0 28-18 65-9 83 19s9 65-19 83c-37 23-78 40-119 49l115 115c24 24 24 62 0 85-24 24-62 24-85 0l-113-113-113 113c-12 12-27 18-43 18-15 0-31-6-43-18-24-24-24-62 0-85l115-115c-42-10-82-26-120-49-28-18-37-55-19-83 11-18 30-28 49-28 1 0 1 0 2 0z"/></svg><svg viewBox="0 0 957 1000" id="friendfeed" width="23" height="24" x="124" y="63"><path d="m717 0c-47 0-98 8-150 36-58-21-120-39-206-32-194 18-268 116-279 255-41 5-79 15-82 123-3 122 36 142 76 156l3 358c6 42-2 89 94 100l144 3c53 7 89-27 109-103 7 62 34 96 85 97h167c38-10 79-13 85-82l3-373 44 3c36-5 72-11 97-70v-112c-7-46-20-40-32-50 34-8 70-11 82-94l-3-91c1-57-31-90-110-111-37-5-80-14-127-13z m-333 87c23 0 55 3 121 25l2 108c-35-12-65-26-89-23-75-4-82 35-87 75v77l193 2c5-102-23-232 146-254 74-10 141 0 192 22l-2 114c-26-21-62-28-100-33-104-15-80 79-85 147h139v102h-139l2 461-154-4v-457l-199 4v453h-154l4-453h-75l-2-114 81 4-2-31c4-74-3-203 157-223 20 1 32-1 50-1z"/></svg><svg viewBox="0 0 999 1000" id="friendfeed-rect" width="24" height="24" x="153" y="63"><path d="m196 0c-108 0-196 88-196 196v608c0 108 88 196 196 196h608c108 0 196-88 196-196v-608c0-108-88-196-196-196h-608z m478 138c35 0 66 6 93 10 58 15 82 39 81 81l2 67c-9 61-35 63-60 69 9 7 18 3 24 37v82c-18 43-45 48-71 52l-32-2-2 273c-4 50-35 53-62 60h-122c-37-1-57-26-62-71-14 56-41 80-80 75l-105-2c-70-8-65-42-69-73l-2-262c-30-10-58-24-56-114 2-79 30-87 60-90 8-102 62-174 204-187 63-5 108 8 150 24 38-20 75-26 110-26z m-244 64c-13 0-22 2-37 1-117 15-112 108-115 163l2 23-59-3 2 84h55l-3 331h112v-331l146-3v334l112 3-2-337h102v-74h-102c4-50-14-119 62-108 27 3 54 9 73 24l2-84c-37-16-87-23-141-16-123 16-103 111-107 186l-141-2v-56c4-29 9-57 64-55 18-2 40 8 65 17l-2-79c-49-16-72-18-89-18z"/></svg><svg viewBox="0 0 991 1000" id="blogger" width="24" height="24" x="183" y="63"><path d="m550 0l-301 1c-127 18-236 96-246 231-3 12-2 25-2 36-1 59-1 122 0 183 0 96-3 173-1 244 1 209 124 306 348 302 55-1 119-1 192 1 72 0 128 5 178-2 221-31 264-179 273-299v-137c-6-139-108-178-194-181 9-35 12-82 3-146-10-124-98-221-250-233z m-252 187h245c135 18 129 164 0 185h-245c-135-18-129-164 0-185z m-56 404l450 2c136 18 136 183 5 203l-450-2c-139-17-137-183-5-203z"/></svg><svg viewBox="0 0 1000 1000" id="blogger-rect" width="24" height="24" x="3" y="93"><path d="m196 0c-108 0-196 88-196 196v608c0 108 88 196 196 196h608c108 0 196-88 196-196v-608c0-108-88-196-196-196h-608z m338 187c94 8 149 68 155 146 5 40 4 70-2 91 54 2 116 26 120 113v86c-6 75-32 168-169 187-31 4-65 1-110 1-45-1-84-1-119 0-139 3-215-59-216-189-1-44 1-93 1-153-1-38-1-78 0-114 0-7-1-15 1-23 6-84 74-134 153-145l187-1z m-156 117c-80 13-84 104 0 116h152c80-13 84-104 0-116h-152z m-35 253c-82 13-84 117 3 127l279 1c82-13 81-116-3-127l-279-1z"/></svg><svg viewBox="0 0 993 1000" id="deviantart" width="24" height="24" x="33" y="93"><path d="m360 293l5 339h-206c23-98 69-177 203-197l-1-44c-294 38-356 200-360 315h473v-283c142-4 320 2 369 208l-210-2v-144c-38-11-70-11-106-9l-2 230h469c5-229-199-333-520-329v-84h-113z"/></svg><svg viewBox="0 0 667 1000" id="jabber" width="16" height="24" x="67" y="93"><path d="m225 0c-4 0-9 0-13 1-18 2-37 2-55 5-35 5-68 16-101 29-12 5-24 10-35 16-4 2-11 4-14 7-2 2-2 6-2 8-1 7-1 13-2 20-2 25-4 51-1 76 1 8 4 23 14 24 15 2 27-17 35-27 18-24 38-47 67-58 34-13 73-16 109-18 101-7 212 12 286 86 11 11 21 22 29 34 33 48 51 103 59 161 4 27 7 54 1 81-11 47-39 87-71 122-22 24-47 45-73 65-14 11-31 20-44 32-16 14-29 31-39 49-27 49-34 108-26 163 2 11 3 23 6 34 1 3 1 9 3 12 4 5 15 8 21 8s11-5 12-10c3-10 1-21 0-31-3-20-6-41-5-61 2-38 16-73 43-101s63-44 94-68c61-47 116-111 138-187 8-27 10-56 7-84-4-35-17-71-29-104-37-102-101-198-202-245-40-18-82-27-126-33-20-3-41-5-61-5-7 0-15-1-22-1z m-53 422c-10 0-20 3-29 8-13 8-20 21-24 35-8 28-4 60 1 87 2 9 4 18 6 27 1 3 1 8 3 10 4 5 12 6 18 5 16-3 12-29 12-41-1-26-9-52-2-78 3-11 9-24 21-28 10-4 20 1 24 11 7 16 5 35 9 51 1 6 3 11 5 17 1 2 2 5 4 4 5 0 13-9 17-12 13-10 26-22 40-29 7-4 18-10 25-3 2 2 3 3 4 5 8 13 0 23-5 35-7 16-14 32-24 46-9 12-20 23-27 36-4 9-7 18-5 28 1 8 8 13 16 11 6-1 10-7 13-11 6-8 12-17 18-26 12-16 25-32 35-49 12-21 18-45 18-69 0-20-7-50-30-54-4-1-9 0-14 0-5 1-11 3-16 5-13 6-24 16-34 27-6 7-11 15-19 21 0-15-3-30-11-43-11-16-31-25-50-25z m-115 236c-1 0-2 0-3 0-20 3-25 19-22 36 5 23 23 40 40 54 46 35 104 54 162 52 22-1 47-5 67-14 11-5 23-23 8-31-2-1-5-2-7-2-7-1-14 2-20 3-11 3-22 6-33 8-34 5-70-2-98-22-23-16-41-37-58-59-10-12-19-26-36-25z m-21 111c-3 0-6 0-8 1-5 1-11 0-15 4-9 7 1 20 6 26 14 17 32 32 50 45 50 35 107 56 168 60 18 1 35 0 53-3 6-1 14-2 20-4 17-8 12-39-3-46-6-3-17 1-24 2-16 2-32 2-48 2-42-1-87-14-124-35-14-8-28-18-40-29-8-7-15-18-25-21-2-1-5-1-8-1z m3 95s-1 0-1 0c-7 1-13 5-17 10-3 4-6 7-8 12-10 25 17 49 36 61 21 13 44 23 67 32 53 19 115 31 169 14 16-5 32-14 44-26 7-7 11-17-1-22-7-3-16 4-23 7-16 6-32 11-48 13-22 3-42-2-63-7-18-5-36-9-54-16-15-6-30-12-43-21-4-3-9-5-12-9-10-12-18-25-29-37-5-5-11-10-18-10z"/></svg><svg viewBox="0 0 995 1000" id="lastfm" width="24" height="24" x="93" y="93"><path d="m439 716l-36-99s-59 66-148 66c-79 0-134-68-134-178 0-140 71-190 140-190 100 0 132 65 160 148l36 114c36 111 105 199 302 199 141 0 237-43 237-157 0-92-52-140-150-163l-73-16c-50-11-65-32-65-66 0-39 31-62 81-62 55 0 84 21 89 70l114-14c-9-103-80-145-196-145-103 0-203 39-203 163 0 77 38 127 132 149l78 18c58 14 77 38 77 71 0 42-41 59-119 59-115 0-163-60-190-144l-38-114c-48-148-124-203-276-203-168 0-256 106-256 286 0 173 89 267 248 267 129 0 190-60 190-60z"/></svg><svg viewBox="0 0 1000 1000" id="lastfm-rect" width="24" height="24" x="123" y="93"><path d="m196 0c-108 0-196 88-196 196v608c0 108 88 196 196 196h608c108 0 196-88 196-196v-608c0-108-88-196-196-196h-608z m89 253c135 0 204 49 246 181l34 102c24 74 67 128 170 128 69 0 106-15 106-53 0-30-17-51-69-63l-69-16c-84-20-118-64-118-133 0-111 90-146 181-146 104 0 167 38 175 129l-102 12c-4-44-31-62-79-62-45 0-72 20-72 55 0 31 13 49 58 59l65 14c88 20 134 63 134 146 0 102-85 140-212 140-176 0-237-79-270-178l-33-102c-24-74-53-132-142-132-62 0-125 45-125 170 0 98 50 159 120 159 79 0 132-59 132-59l33 89s-55 54-170 54c-142 0-222-83-222-238 0-161 79-255 229-255z"/></svg><svg viewBox="0 0 1046 1000" id="linkedin" width="24" height="23" x="153" y="94"><path d="m237 1000v-675h-224v675h224z m-112-767c78 0 127-52 127-117-1-66-49-117-125-117-77 0-127 50-127 117 0 65 49 117 124 117h1z m236 767h224v-377c0-20 1-40 7-55 16-40 53-82 115-82 81 0 114 62 114 153v361h224v-387c0-207-111-304-258-304-121 0-174 68-204 114h1v-98h-224c3 63 0 675 0 675z"/></svg><svg viewBox="0 0 1000 1000" id="linkedin-rect" width="24" height="24" x="183" y="93"><path d="m196 0c-108 0-196 88-196 196v608c0 108 88 196 196 196h608c108 0 196-88 196-196v-608c0-108-88-196-196-196h-608z m49 165c52 0 83 34 84 78 0 44-33 78-85 78h-1c-51 0-83-35-83-78 0-45 34-78 85-78z m445 208c99 0 174 65 174 204v260h-151v-243c0-61-22-103-76-103-42 0-67 28-77 55-4 10-5 23-5 37v254h-151s2-412 0-454h151v64c20-31 56-75 136-75z m-522 11h151v454h-151v-454z"/></svg><svg viewBox="0 0 922.943 1000" id="picasa" width="22" height="24" x="4" y="123"><path d="m474-5c-56 0-106 11-157 22l377 343-5-301c-82-49-152-64-215-64z m-235 56c-263 184-243 367-236 551l416-382-179-169z m520 55l3 559 143-5c66-262-19-422-146-553z m-569 413l-169 164c66 151 119 194 171 236l-3-400z m88 205l-3 244c363 90 500-58 603-242l-600-3z"/></svg><svg viewBox="0 0 995 1000" id="wordpress" width="24" height="24" x="33" y="123"><path d="m502 0c-196 0-380 116-465 300l238 1v26c-73-9-67 29-56 70l156 391 115-269-53-126c-19-34-20-71-98-68l1-24 349 1v27c-41 2-90-10-64 73l141 371 77-216c25-91 1-178-29-263-17-57-9-105 66-124-114-117-249-168-379-168z m475 342l-226 590c62-54 127-74 205-224 52-125 47-240 21-366z m-963 10c-22 174-20 225 35 367 71 136 127 165 205 218l-240-585z m498 221l-168 405c118 34 223 29 319-8l-152-397z"/></svg><svg viewBox="0 0 1000 1000" id="instagram" width="24" height="24" x="63" y="123"><path d="m749 1h-499c-137 0-249 111-249 248v501c0 137 112 248 249 248h499c137 0 249-111 249-248v-501c0-137-112-248-249-248z m157 749c0 86-70 156-157 156h-499c-87 0-157-70-157-156v-324h197c-14 30-22 64-22 100 0 130 106 236 237 236s237-106 237-236c0-36-8-70-22-100h187v324z m-499-223c0-54 44-98 98-98s98 44 98 98-44 98-98 98-98-44-98-98z m499-192h-264c-39-27-86-44-137-44s-98 16-137 44h-274v-85c0-86 70-156 157-156h499c87 0 157 70 157 156v85z m-100-186h-86c-15 0-28 12-28 28v85c0 15 12 28 28 28h86c15 0 28-12 28-28v-85c0-15-12-28-28-28z"/></svg><svg viewBox="0 0 1000 1000" id="instagram-filled" width="24" height="24" x="93" y="123"><path d="m604 511c0-54-44-98-98-98s-98 44-98 98 44 98 98 98 98-44 98-98z m146-510h-500c-138 0-250 112-250 249v69h367c39-27 86-44 137-44s98 16 137 44h357v-69c0-137-112-249-250-249z m101 236c0 15-12 28-28 28h-86c-15 0-28-12-28-28v-85c0-15 12-28 28-28h86c15 0 28 12 28 28v85z m-109 274c0 130-106 236-237 236s-237-106-237-236c0-36 8-70 23-100h-290v340c0 137 112 249 250 249h500c138 0 250-112 250-249v-340h-280c14 30 23 64 23 100z"/></svg><svg viewBox="0 0 500 1000" id="diigo" width="12" height="24" x="129" y="123"><path d="m251 393c112-2 173-61 231-117v672h-113c-1-27-2-54-2-82v-188c1-71 2-142 2-212-16 4-34 13-54 18-61 16-140 8-187-19 0 33 0 67 1 100v352c0 11 0 21-1 32h-113v-674c58 61 122 121 236 119z m177-196c40 0 73-33 73-74s-32-74-73-74c-40 0-73 33-73 74s33 74 73 74z m-355 0c40 0 73-33 73-74s-32-74-73-74c-40 0-73 33-73 74s33 74 73 74z"/></svg><svg viewBox="0 0 704 1000" id="box" width="17" height="24" x="157" y="123"><path d="m351 295c-76 0-146 24-203 65v-285c0-41-33-74-74-74s-74 33-74 74v545c-1 9 0 63 3 78 24 171 171 303 349 303 195 0 353-158 353-353s-158-353-353-353z m0 556c-112 0-203-91-203-203s91-203 203-203 203 91 203 203-91 203-203 203z"/></svg><svg viewBox="0 0 1000 1000" id="box-rect" width="24" height="24" x="183" y="123"><path d="m193 0h614c107 0 193 86 193 193v614c0 107-86 193-193 193h-614c-107 0-193-86-193-193v-614c0-107 86-193 193-193z m307 356c-53 0-102 17-142 45v-200c0-29-23-52-52-52s-52 23-52 52v382c-1 6 0 44 2 55 17 120 120 212 244 212 136 0 247-111 247-247s-111-247-247-247z m0 389c-79 0-142-64-142-142 0-79 64-142 142-142s142 64 142 142c0 79-64 142-142 142z"/></svg><svg viewBox="0 0 998 1000" id="tudou" width="24" height="24" x="3" y="153"><path d="m499 0c-14 0-28 1-43 2-227 18-421 193-452 425-39 296 173 550 440 571 212 17 348-71 440-181 81-97 130-239 108-394-21-145-125-285-247-355-69-40-150-67-247-67z m2 96c50 0 102 9 156 29 137 74 246 183 247 371 1 215-151 391-367 409-235 20-490-174-440-475 31-185 198-335 404-334z m183 246c-66 1-132 42-128 123 61-40 171-47 255-15-3-72-65-108-127-107z m-374 1c-61 0-120 34-124 107 37-4 77-26 112-19-14 32-29 63-35 104-42-44-96 35-42 62-39 8-25 75 15 70 14-6 23-16 35-23 28 65 104-25 42-50 61-27-11-97-39-62 18-36 19-92 58-100 36-8 71 26 108 35 8-80-62-122-131-122z m-44 238c4 0 10 4 16 15-29 30-30-14-16-15z"/></svg><svg viewBox="0 0 1000 1000" id="youku" width="24" height="24" x="33" y="153"><path d="m450 140c-15 0-31 4-44 13-29 20-45 82-65 126-21 48-40 97-61 133-57-64-95-206-163-258-22-17-70-16-92 0-59 44 0 122 24 163 52 90 109 186 153 269-28 75-172 287 20 275 47-30 66-93 92-150 52-116 96-216 150-336 22-50 76-124 65-180-6-31-42-54-79-54z m466 46c-28 0-56 13-68 39-20 23-42 44-65 65-11 14-24 26-37 37-16 17-29 37-51 48v-133c0-72-135-72-136 0v377c6 27 18 48 48 51h41c28-5 44-22 48-51v-82c0-28-5-76 14-48 28 27 67 56 102 88 34 31 66 81 102 88 73 16 105-54 78-105-29-54-111-88-146-136 24-55 154-88 143-184-4-38-38-56-71-56z"/></svg><svg viewBox="0 0 986 1000" id="win8" width="24" height="24" x="63" y="153"><path d="m986 0l-549 80v398h549v-478z m-587 86l-398 58v334h398v-392z m-398 431v338l398 59v-397h-398z m437 0v403l549 81v-484h-549z"/></svg><svg viewBox="0 0 1000 1000" id="amex" width="24" height="24" x="93" y="153"><path d="m47 186c-26 0-47 21-47 47v535c0 26 21 47 47 47h907c26 0 47-21 47-47v-535c0-26-21-47-47-47h-907z m-9 132h73l9 19v-19h85l19 42 18-42h271c12 0 23 2 32 10v-10h74v10c13-7 29-10 47-10h108l10 19v-19h80l11 19v-19h78v164h-78l-15-25v25h-98l-11-26h-24l-11 26h-51c-20 0-35-5-45-10v10h-121v-37c0-5-1-6-4-6h-5v43h-234v-20l-8 20h-49l-8-20v20h-94l-11-26h-24l-11 26h-48v-86l34-78z m-34 141h30l11-26h58l11 26h57v-92l41 92h25l40-92v92h29v-118h-47l-34 80-37-80h-46v111l-48-111h-42l-50 118z m322-118v118h93v-24h-65v-23h64v-24h-64v-21h65v-25h-93z m113 0v118h28v-43h30c10 0 16 1 20 5 5 6 4 16 4 23v15h28v-23c0-11-1-16-5-22-2-3-8-8-14-10 7-3 20-13 20-31 0-13-5-21-14-26s-20-6-34-6h-64z m128 0v118h29v-118h-29z m99 0c-19 0-33 4-42 14-12 13-15 29-15 46 0 21 5 35 15 45s27 13 41 13h33l11-26h58l11 26h57v-88l53 88h40v-118h-29v82l-49-82h-43v111l-47-111h-42l-39 92h-13c-7 0-15-1-19-6-5-6-8-15-8-28 0-12 3-22 8-27 6-5 11-7 22-7h27v-25h-27z m-593 19l19 47h-38l19-47z m664 0l19 47h-39l19-47z m-271 5h35c5 0 10 0 13 2 4 2 6 5 6 10s-2 9-6 11-8 2-14 2h-34v-26z m-266 154h151l22 25 23-25h101c12 0 31 1 39 10v-10h90c8 0 27 2 38 10v-10h137v10c7-7 21-10 33-10h76v10c8-6 19-10 35-10h52v23h-56c-29 0-40 18-40 35 0 37 33 35 59 36 5 0 8 1 10 3s3 4 3 8c0 3-1 6-3 8s-6 3-11 3h-54v25h54c18 0 31-5 38-15v31c-11 5-26 8-41 8h-72v-11c-8 7-24 11-38 11h-228v-38c0-5 0-5-5-5h-4v43h-75v-44c-13 5-27 6-39 6h-9v39h-91l-22-25-24 25h-148v-164z m25 24v118h111l36-39 34 39h54v-39h35c24 0 49-7 49-39 0-33-25-39-47-39h-89l-36 39-34-39h-112z m331 0v118h28v-43h30c10 0 16 1 21 5 5 5 5 16 5 23v15h28v-23c0-10-1-16-5-21-2-3-7-8-14-10 7-3 20-13 20-31 0-13-6-21-14-26-9-5-19-6-34-6h-64z m128 0v118h93v-24h-65v-23h64v-24h-64v-21h65v-24h-93z m146 0c-29 0-40 18-40 35 0 37 33 36 59 36 5 0 8 1 10 3s3 4 3 8c0 3-1 6-3 8s-6 3-11 3h-54v25h54c28 0 44-12 44-37 0-12-3-19-8-25-6-6-17-9-32-9h-15c-5 0-8 0-11-1-4-1-6-4-6-9 0-4 1-7 4-8 3-2 6-2 11-2h51v-25h-56z m-399 13v94l-43-48 43-46z m-180 12h70l31 34-32 35h-69v-23h61v-24h-61v-21z m207 0h37c10 0 17 4 17 15 0 10-7 16-17 16h-36v-30z m125 0h35c5 0 10 0 13 2 4 2 6 5 6 10s-2 9-6 11-8 2-14 2h-34v-26z m360 1h51v34c-1-1-1-2-3-3-6-6-16-9-32-10h-15c-5 0-8 0-11-1-4-1-6-4-6-9 0-4 1-7 4-9s6-2 11-2z"/></svg><svg viewBox="0 0 1000 1000" id="discover" width="24" height="24" x="123" y="153"><path d="m46 186c-26 0-47 21-47 47v535c0 26 21 47 47 47h907c26 0 47-21 47-47v-535c0-26-21-47-47-47h-907z m480 177c1 0 1 0 2 0 44 0 79 35 79 79s-35 79-79 79-79-35-79-79c0-43 34-78 77-79z m-250 3c16 0 30 5 42 16l-15 19c-7-8-14-12-23-12-12 0-21 7-21 16 0 8 5 12 22 18 32 12 41 22 41 45 0 28-20 47-49 47-21 0-37-8-50-27l18-17c6 12 17 19 30 19 12 0 22-9 22-20 0-6-3-11-8-15-3-2-8-4-19-8-26-9-35-20-35-39 0-23 19-41 45-41z m131 0c12 0 22 3 34 9v33c-12-11-22-16-35-16-26 0-47 22-47 49 0 29 20 49 48 49 13 0 23-4 34-16v33c-13 6-23 8-35 8-42 0-75-32-75-74 0-41 34-75 76-75z m-353 2h41c46 0 77 29 77 71 0 21-10 41-26 54-14 11-30 16-51 16h-41v-142z m131 0h27v142h-27v-142z m409 0h30l38 96 39-96h30l-62 147h-15l-61-147z m149 0h79v24h-51v32h49v24h-49v38h51v24h-79v-142z m99 0h41c32 0 51 15 51 42 0 22-12 36-33 40l45 60h-34l-39-57h-4v57h-28v-142z m28 22v43h8c18 0 27-8 27-22s-9-21-27-21h-9z m-788 2v94h8c18 0 30-3 39-11 10-9 16-22 16-36s-6-27-16-35c-9-8-20-12-39-12h-8z m904 134s0 152 0 232c0 7-3 18-11 27s-20 14-28 14c-7 0-724 0-724 0 492-85 763-273 763-273z"/></svg><svg viewBox="0 0 1000 1000" id="visa" width="24" height="24" x="153" y="153"><path d="m40 186c-22 0-40 18-40 40v548c0 22 18 40 40 40h920c22 0 40-18 40-40v-548c0-22-18-40-40-40h-920z m557 187c24 0 44 5 56 10l-9 53-6-3c-12-5-26-10-47-9-25 0-36 11-36 21 0 12 13 19 35 31 36 18 53 39 53 67 0 51-43 84-109 84-28 0-55-6-70-13l9-55 8 4c21 9 34 13 59 13 18 0 37-8 38-24 0-11-8-19-33-31-24-12-55-32-55-67 0-48 44-81 106-81z m-509 8h101c14 1 25 5 28 20l22 113 7 34 62-166h67l-99 243h-67l-53-196c31 17 58 36 74 63-4-8-9-18-16-27-8-11-25-25-32-31-25-21-58-38-95-47l1-5z m313 0h65l-41 243h-65l41-243z m368 0h49l52 243h-59s-6-28-8-36c-9 0-74 0-82 0-2 7-13 37-13 37h-67l95-223c7-16 18-20 33-20z m5 65c-3 9-9 24-8 23 0 0-20 53-25 67h53c-3-12-15-70-15-70l-4-21z"/></svg><svg viewBox="0 0 1000 1000" id="mastercard" width="24" height="24" x="183" y="153"><path d="m47 195c-26 0-47 21-47 47v535c0 26 21 47 47 47h907c26 0 47-21 47-47v-535c0-26-21-47-47-47h-907z m281 76c57 0 110 20 151 53-35 31-60 72-73 118h20c12-38 33-72 61-99 28 27 50 61 61 99h20c-13-46-39-86-73-117 41-34 94-54 151-54 132 0 240 107 240 240 0 132-107 240-240 240-58 0-112-21-153-55 37-32 65-76 77-125h-20c-11 41-34 78-64 107-30-29-53-66-64-107h-19c13 49 40 91 76 123-41 34-95 55-153 55-132 0-240-107-240-238s107-238 240-238z m300 168c-29 0-57 25-57 72 0 31 15 52 45 52 8 0 22-3 22-3l4-27s-12 6-21 6c-18 0-25-14-25-28 0-30 15-46 32-46 13 0 23 7 23 7l4-27s-15-6-28-6z m242 2h-25l-5 33s-9-13-24-13c-23 0-42 27-42 58 0 20 10 40 31 40 15 0 23-10 23-10l-1 9h24l19-117z m-717 0l-20 117h24l15-89 2 89h17l32-89-14 89h26l20-117h-40l-25 72-1-72h-36z m251 8c-1 1-15 81-15 91 0 15 8 21 20 21 8 0 15-2 18-3 0 0 1 0 1 0l3-21c-2 0-4 1-6 1-9 0-10-5-9-8l7-43h13l3-23h-12l3-14h-25z m290 12c-17 0-30 6-30 6l-4 22s11-4 27-4c9 0 16 1 16 9 0 5-1 6-1 6s-7-1-11-1c-21 0-43 9-43 37 0 22 15 27 24 27 17 0 25-11 25-12l-1 10h22l10-69c0-29-25-30-34-30z m-404 0c-17 0-30 6-30 6l-4 22s11-4 27-4c9 0 16 1 16 9 0 5-1 6-1 6s-7-1-11-1c-21 0-44 9-44 37 0 22 15 27 24 27 17 0 25-11 25-12l-1 10h22l10-69c0-29-25-30-34-30z m76 0c-18 0-36 7-36 32 0 28 31 25 31 37 0 8-9 9-15 9-11 0-22-4-22-4l-3 22c1 0 7 3 27 3 6 0 37 1 37-31 0-31-29-25-29-37 0-6 5-8 13-8 3 0 17 1 17 1l3-22s-9-2-23-2z m113 0c-25 0-44 27-44 58 0 35 23 44 43 44 18 0 26-4 26-4l4-24s-14 6-27 6c-27 0-22-20-22-20h51s3-16 3-23c0-16-8-36-36-36z m91 1c-11 0-20 15-20 15l2-14h-24l-16 96h26c7-41 9-75 26-69 3-16 6-22 9-29 0 0-2 0-5 0z m210 0c-11 0-20 15-20 15l2-14h-24l-16 96h26c7-41 9-75 26-69 3-16 6-22 9-29 0 0-2 0-5 0z m-302 21c14 0 12 16 12 17h-28c0-2 3-17 16-17z m339 2c9 0 14 6 14 21 0 13-7 31-20 31-9 0-13-7-13-19 0-19 9-32 20-32z m-125 33c4 0 4 0 5 1 0 4-3 24-17 24-8 0-10-6-10-10 0-7 4-15 22-15z m-404 0c4 0 5 0 5 1 0 4-3 24-17 24-8 0-10-6-10-10 0-7 4-15 22-15z"/></svg><svg viewBox="0 0 577 1000" id="houzz" width="14" height="24" x="8" y="183"><path d="m289 0v333l-289 167v-333l289-167m-289 500v333l289-167-289-167m289 167v333l289-167v-333l-289 167m0-333l289 167v-333l-289 167"/></svg><svg viewBox="0 0 1000 1000" id="bandcamp" width="24" height="24" x="33" y="183"><path d="m0 792h694l306-583h-667z"/></svg><svg viewBox="0 0 988 1000" id="codepen" width="24" height="24" x="63" y="183"><path d="m988 344c0-1 0-1 0-2s0-2-1-4c0-1 0-1-1-2 0-1-1-2-1-3s-1-1-1-2-1-2-1-3-1-1-1-2c-1-1-1-2-2-3 0-1-1-1-1-2-1-1-1-2-2-2-1-1-1-1-2-2s-2-1-2-2c-1 0-1-1-2-1 0 0 0 0-1-1l-452-301c-14-10-33-10-47 0l-452 301s0 0-1 1c-1 0-1 1-2 1-1 1-2 1-2 2-1 1-1 1-2 2s-1 2-2 2c-1 1-1 1-1 2-1 1-1 2-2 3 0 1-1 1-1 2-1 1-1 2-1 3s-1 1-1 2-1 2-1 3 0 1-1 2c0 1-1 2-1 4 0 1 0 1 0 2 0 2 0 4 0 6v301c0 2 0 4 0 6 0 1 0 1 0 2s0 2 1 4c0 1 0 1 1 2 0 1 1 2 1 3s1 1 1 2 1 2 1 3 1 1 1 2c1 1 1 2 2 3 0 1 1 1 1 2 1 1 1 2 2 2 1 1 1 1 2 2s2 1 2 2c1 0 1 1 2 1 0 0 0 0 1 1l452 301c7 5 15 7 24 7 8 0 16-2 24-7l452-301s0 0 1-1c1 0 1-1 2-1 1-1 2-1 2-2 1-1 1-1 2-2s1-2 2-2c0-1 1-1 1-2 1-1 1-2 2-3 0-1 1-1 1-2 1-1 1-2 1-3s1-1 1-2 1-2 1-3 0-1 1-2c0-1 1-2 1-4 0-1 0-1 0-2 0-2 0-4 0-6v-301c0-2 0-4 0-6z m-451-216l333 222-149 99-184-123v-198z m-85 0v198l-184 123-149-99 333-222z m-367 301l106 71-106 71v-142z m367 443l-333-222 149-99 184 123v198z m42-272l-150-100 150-100 150 100-150 100z m42 272v-198l184-123 149 99-333 222z m367-301l-106-71 106-71v142z"/></svg></svg>