<svg xmlns="http://www.w3.org/2000/svg" width="210" height="210"><svg viewBox="0 0 1000 1000" id="windy-rain-inv" width="24" height="24" x="3" y="3"><path d="m0 532q0-13 9-21t22-9h250q14 0 22 9t9 21q0 13-9 23t-22 10h-250q-13 0-22-10t-9-23z m0-125q0-13 9-21t22-9h125q14 0 22 9t9 21q0 13-9 23t-22 10h-125q-13 0-22-10t-9-23z m62-125q0-13 9-21t22-9h125q14 0 22 9t9 21q0 13-9 23t-22 10h-125q-13 0-22-10t-9-23z m209 50q0-78 54-134t132-60q74-76 179-76t179 76q78 3 132 60t54 134q0 82-57 139t-139 57q-18 0-33-2-62 39-136 39t-136-39q-16 2-35 2-80 0-137-57t-57-139z m166 418q0-35 62-125l16 23q18 27 31 55 16 32 16 47 0 25-19 44t-44 19-44-19-19-44z m250 125q0-35 62-125l16 23q18 27 31 55 16 32 16 47 0 25-19 44t-44 19-44-19-19-44z"/></svg><svg viewBox="0 0 1000 1000" id="snow-inv" width="24" height="24" x="33" y="3"><path d="m0 344q0-90 64-154t154-64q18 0 31 2 43-61 109-94 67-33 141-33t141 33q66 33 109 94 14-2 31-2 90 0 154 64t64 154-64 154-154 64q-41 0-78-14-88 76-203 76t-203-76q-37 14-78 14-90 0-154-64t-64-154z m347 544q4-15 16-20l35-21q-3-19 0-37l-35-20q-12-8-16-21t3-27q7-13 20-17t27 4l35 21q14-14 31-20v-41q0-14 11-24t24-11 24 11 11 24v41q18 6 31 20l35-21q14-8 27-4t20 17q7 13 3 27t-16 21l-35 20q3 19 0 37l35 21q12 6 16 20t-3 26q-7 12-21 16t-27-4l-35-20q-14 12-31 18v41q0 15-10 25t-25 10-25-10-10-25v-41q-17-6-31-18l-35 20q-14 7-27 4t-21-16q-7-12-3-26z m117-61q0 15 11 24t24 10 23-10q12-10 12-24t-11-24-24-10-24 10-11 24z"/></svg><svg viewBox="0 0 1000 1000" id="snow-heavy-inv" width="24" height="24" x="63" y="3"><path d="m0 344q0-90 64-154t154-64q18 0 31 2 43-61 109-94 67-33 141-33t141 33q66 33 109 94 14-2 31-2 90 0 154 64t64 154-64 154-154 64q-41 0-78-14-88 76-203 76t-203-76q-37 14-78 14-90 0-154-64t-64-154z m60 392q-5-20 15-25l23-6q0-12 6-21l-18-18q-14-14 0-28 14-15 29-1l18 18q9-3 21-6l6-23q6-20 25-14t14 25l-6 23q5 3 8 6 4 4 8 10l23-8q20-3 25 16 6 20-16 25l-23 6q0 12-6 21l18 18q16 14 1 28-15 15-30 1l-16-18q-11 3-21 6l-8 23q-4 20-24 15t-15-26l6-23q-7-3-16-16l-23 8q-20 3-24-16z m84-12q15 14 29 0t-1-27q-14-16-28-1-15 15 0 28z m204 163q4-15 16-20l35-21q-3-19 0-37l-35-20q-12-8-16-21t3-27q7-13 20-17t27 4l35 21q14-14 31-20v-41q0-14 11-24t24-11 24 11 11 24v41q18 6 31 20l35-21q14-8 27-4t20 17q7 13 3 27t-16 21l-35 20q3 19 0 37l35 21q12 6 16 20t-3 26q-7 12-21 16t-27-4l-35-20q-14 12-31 18v41q0 15-10 25t-25 10-25-10-10-25v-41q-17-6-31-18l-35 20q-14 7-27 4t-21-16q-7-12-3-26z m117-61q0 15 11 24t24 10 23-10q12-10 12-24t-11-24-24-10-24 10-11 24z m277-81q6-20 25-14l23 6q3-5 8-10 3-3 8-6l-6-23q-6-20 14-25t25 14l6 23q12 2 21 6l18-18q15-14 29 1t0 28l-18 18q6 10 6 21l23 6q20 6 15 25t-24 16l-23-8q-8 12-16 16l6 23q6 21-15 26-20 5-24-15l-8-23q-12-2-21-6l-16 18q-16 14-30-1-15-14 1-28l18-18q-6-9-6-21l-23-6q-21-6-16-25z m85 41q15 14 29 0t-1-27q-14-16-28-1-15 15 0 28z"/></svg><svg viewBox="0 0 1000 1000" id="hail-inv" width="24" height="24" x="93" y="3"><path d="m0 344q0-90 64-154t154-64q18 0 31 2 43-61 109-94 67-33 141-33t141 33q66 33 109 94 14-2 31-2 90 0 154 64t64 154-64 154-154 64q-41 0-78-14-88 76-203 76t-203-76q-37 14-78 14-90 0-154-64t-64-154z m125 344q0-25 19-44t44-19 43 20q20 18 20 43t-19 44-44 19-44-19-19-44z m125 250q0-25 19-44t44-19 43 20q20 18 20 43t-19 44-44 19-44-19-19-44z m187-187q0-25 19-44t44-19 43 20q20 18 20 43t-19 44-44 19-44-19-19-44z m187 187q0-25 19-44t44-19 43 20q20 18 20 43t-19 44-44 19-44-19-19-44z m125-250q0-25 19-44t44-19 43 20q20 18 20 43t-19 44-44 19-44-19-19-44z"/></svg><svg viewBox="0 0 1000 1000" id="clouds-inv" width="24" height="24" x="123" y="3"><path d="m2 616q0-91 64-155t154-64q15 0 31 4 0-1 1-3t1-3q-2-16-2-29 0-70 51-122 50-52 123-52 8 0 14 2 72-90 187-90t187 90q5-2 14-2 73 0 123 52 51 52 51 122 0 68-47 117 47 61 47 133 0 92-64 155t-154 63q-41 0-78-14-88 76-203 76t-203-76q-37 14-78 14-90 0-154-63t-64-154z"/></svg><svg viewBox="0 0 1000 1000" id="clouds-flash-inv" width="24" height="24" x="153" y="3"><path d="m0 514q0-90 64-154t154-64q18 0 31 2 1-4 4-4-4-19-4-29 0-72 51-123t123-51h14q72-90 187-90t187 90h14q72 0 123 51t51 123q0 66-47 117 47 59 47 133 0 90-64 154t-154 64q-41 0-78-14-81 72-193 74l-10 20 62 62-187 125 62-125-62-62 45-29q-72-20-123-64-37 14-78 14-90 0-154-64t-64-154z"/></svg><svg viewBox="0 0 1000 1000" id="temperature" width="24" height="24" x="183" y="3"><path d="m375 813q0-72 62-107v-574q0-29 19-49 18-20 44-20t44 20q19 20 19 49v574q62 35 62 107 0 51-37 88t-89 37q-52 0-88-37-36-38-36-88z"/></svg><svg viewBox="0 0 1000 1000" id="compass" width="24" height="24" x="3" y="33"><path d="m0 500q0-207 146-353t353-146 353 146 146 353-146 353-353 146-353-146-146-353z m125 0q0 154 110 264t264 110 264-109q111-111 111-265t-110-264-264-110-264 110-110 264z m187 187l125-250 250-125-125 250z"/></svg><svg viewBox="0 0 1000 1000" id="na" width="24" height="24" x="33" y="33"><path d="m102 670v-344h62l80 117 64 102h2v-219h68v344h-62l-86-129-59-88h-2v217h-68z m301 21l127-383h51l-127 383h-51z m185-21l121-344h70l119 344h-74l-21-70h-119l-23 70h-72z m113-127h84l-14-45-27-90h-2l-27 88z"/></svg><svg viewBox="0 0 1000 1000" id="celcius" width="24" height="24" x="63" y="33"><path d="m283 426q-13-28 0-58t41-40q29-12 59 0t42 41q6 12 6 27t-6 29q-12 27-42 39t-60 0-41-39z m37-29q0 14 10 23t24 10 24-10 10-23-10-23-24-10-24 10-10 23z m166 170v-129q0-51 40-81t91-30q69 0 105 33l-33 53q-27-23-70-23-26 0-45 15t-19 47v100q0 32 19 47t45 15q39 0 72-23l31 53q-43 35-103 35-53 0-93-30t-40-81z"/></svg><svg viewBox="0 0 1000 1000" id="fahrenheit" width="24" height="24" x="93" y="33"><path d="m276 389q2-19 15-36t32-23q30-12 60 0t41 39q12 28 0 57t-41 41q-14 6-30 6t-30-6q-28-12-41-40-7-19-5-38z m42 10q0 14 10 23t24 10 24-10 10-23-10-23-24-10-24 10-10 23z m168 277v-346h238v62h-170v80h144v62h-144v141h-68z"/></svg><svg viewBox="0 0 1000 1000" id="clouds-flash-alt" width="24" height="24" x="123" y="33"><path d="m0 514q0-90 64-154t154-64q18 0 31 2 1-4 4-4-4-19-4-29 0-72 51-123t123-51h14q72-90 187-90t187 90h14q72 0 123 51t51 123q0 66-47 117 47 59 47 133 0 90-64 154t-154 64q-40 0-78-16-40 36-92 57l-35-35 12-23q63-26 103-74 41 29 90 29 64 0 110-46t46-110q0-52-33-96-23-29-56-45t-67-16l-25 2q-18 3-33 10-33-62-92-100-58-37-131-37-103 0-178 76-24 24-41 55-1 3-4 6-27-12-59-12-64 0-110 46t-46 110 46 110 110 46q49 0 90-29 21 25 51 45l-57 37-6-4q-37 14-78 14-90 0-154-64t-64-154z m318-285q82-59 182-59 73 0 141 33 66 33 109 94 14-2 31-2 70 0 129 41 27-32 27-72 0-47-32-79t-79-32q-22 0-43 8-21-45-64-71t-94-26-94 26-64 71q-20-8-43-8-37 0-65 21t-40 55z m57 771l62-187-62-62 187-125-62 125 62 62z"/></svg><svg viewBox="0 0 1000 1000" id="sun-inv" width="24" height="24" x="153" y="33"><path d="m94 500q0-14 9-22t22-9h62q14 0 22 9t9 22-9 22-22 9h-62q-14 0-22-9t-9-22z m119 287q-21-21 0-45l45-43q21-21 43 0t0 43l-43 45q-23 21-45 0z m0-529q-21-23 0-45t45 0l43 45q21 21 0 43t-43 0z m68 242q0-90 64-154t154-64 154 64 64 154-64 154-154 64-154-64-64-154z m187 375v-62q0-14 9-22t22-9 22 9 9 22v62q0 14-9 22t-22 9-22-9-9-22z m0-687v-62q0-14 9-22t22-9 22 9 9 22v62q0 14-9 22t-22 9-22-9-9-22z m229 511q22-21 44 0l45 43q21 23 0 45t-45 0l-43-45q-24-21-1-43z m0-398q-23-21 1-43l43-45q23-21 45 0t0 45l-45 43q-21 21-44 0z m83 199q0-14 9-22t22-9h62q14 0 22 9t9 22-9 22-22 9h-62q-14 0-22-9t-9-22z"/></svg><svg viewBox="0 0 1000 1000" id="moon-inv" width="24" height="24" x="183" y="33"><path d="m287 493q0-91 64-155 36-33 82-51-21 60-8 121 14 63 59 107t107 59q61 14 121-8-18 46-51 82-64 64-155 64t-155-64-64-155z"/></svg><svg viewBox="0 0 1000 1000" id="cloud-sun-inv" width="24" height="24" x="3" y="63"><path d="m0 719q0-88 61-151t149-67q-23-45-23-94 0-90 64-154t154-64q89 0 153 62 63 61 65 152 76 33 125 100 14-2 31-2 90 0 154 64t64 154-64 154-154 64q-41 0-78-14-88 76-203 76t-203-76q-37 14-78 14-90 0-154-64t-64-154z m0-312q0-14 9-22t22-9h62q14 0 22 9t9 22-9 22-22 9h-62q-14 0-22-9t-9-22z m119-242q-21-23 0-45t45 0l43 45q21 21 0 43t-43 0z m131 242q0 38 20 72 92-103 230-103 27 0 61 6-10-57-53-94t-102-37q-64 0-110 46t-46 110z m125-312v-62q0-14 9-22t22-9 22 9 9 22v62q0 14-9 22t-22 9-22-9-9-22z m230 113q-21-21 0-43l43-45q23-21 45 0t0 45l-45 43q-21 21-43 0z m82 199q0-14 9-22t22-9h62q14 0 22 9t9 22-9 22-22 9h-62q-14 0-22-9t-9-22z"/></svg><svg viewBox="0 0 1000 1000" id="cloud-moon-inv" width="24" height="24" x="33" y="63"><path d="m0 719q0-90 64-154t154-64q18 0 31 2 78-107 211-125-18-61-1-127t63-113q39-39 94-59 19-8 33 7t8 32q-20 52-8 104t50 91q39 39 91 51 53 12 105-8 18-6 32 8 15 14 7 33-20 55-59 94-8 8-27 21 66 21 108 78t42 129q0 90-64 154t-154 64q-41 0-78-14-88 76-203 76t-203-76q-37 14-78 14-90 0-154-64t-64-154z m517-445q-12 55 8 103 134 9 219 117 65-16 103-64-111 6-191-73-80-80-72-190-7 5-16 14-39 39-51 94z"/></svg><svg viewBox="0 0 1000 1000" id="cloud-inv" width="24" height="24" x="63" y="63"><path d="m0 532q0-90 64-154t154-64q18 0 31 2 43-61 109-94 67-33 141-33t141 33q66 33 109 94 14-2 31-2 90 0 154 64t64 154-64 154-154 64q-41 0-78-14-88 76-203 76t-203-76q-37 14-78 14-90 0-154-64t-64-154z"/></svg><svg viewBox="0 0 1000 1000" id="cloud-flash-inv" width="24" height="24" x="93" y="63"><path d="m0 344q0-90 64-154t154-64q18 0 31 2 43-61 109-94 67-33 141-33t141 33q66 33 109 94 14-2 31-2 90 0 154 64t64 154-64 154-154 64q-41 0-78-14-76 66-182 74l-21 64 62 62-187 187 62-187-62-62 68-68q-84-16-146-70-37 14-78 14-90 0-154-64t-64-154z"/></svg><svg viewBox="0 0 1000 1000" id="drizzle-inv" width="24" height="24" x="123" y="63"><path d="m0 407q0-90 64-154t154-64q18 0 31 2 43-61 109-94 67-33 141-33t141 33q66 33 109 94 14-2 31-2 90 0 154 64t64 154-64 154-154 64q-41 0-78-14-88 76-203 76t-203-76q-37 14-78 14-90 0-154-64t-64-154z m437 468q0-35 62-125l16 23q18 27 31 55 16 32 16 47 0 25-19 44t-44 19-44-19-19-44z"/></svg><svg viewBox="0 0 1000 1000" id="rain-inv" width="24" height="24" x="153" y="63"><path d="m0 344q0-90 64-154t154-64q18 0 31 2 43-61 109-94 67-33 141-33t141 33q66 33 109 94 14-2 31-2 90 0 154 64t64 154-64 154-154 64q-41 0-78-14-88 76-203 76t-203-76q-37 14-78 14-90 0-154-64t-64-154z m187 406q0-35 62-125l16 23q18 27 31 55 16 32 16 47 0 25-19 44t-44 19-44-19-19-44z m252 187q0-35 62-125l16 23q18 27 31 55 16 32 16 47 0 25-19 44t-44 19-44-19-19-44z m248-62q0-35 62-125l16 23q18 27 31 55 16 32 16 47 0 25-19 44t-44 19-44-19-19-44z"/></svg><svg viewBox="0 0 1000 1000" id="windy-inv" width="24" height="24" x="183" y="63"><path d="m0 719q0-14 9-22t22-9h250q14 0 22 9t9 22-9 22-22 9h-250q-14 0-22-9t-9-22z m0-125q0-14 9-22t22-9h125q14 0 22 9t9 22-9 22-22 9h-125q-14 0-22-9t-9-22z m62-125q0-14 9-22t22-9h125q14 0 22 9t9 22-9 22-22 9h-125q-14 0-22-9t-9-22z m209 51q0-78 54-135t132-61q74-76 179-76t179 76q78 3 132 61 54 57 54 135 0 80-57 137t-139 57q-18 0-33-2-62 41-136 41t-136-41q-16 2-35 2-80 0-137-57t-57-137z"/></svg><svg viewBox="0 0 1000 1000" id="sunrise" width="24" height="24" x="3" y="93"><path d="m213 352q-11-12-11-23t11-22 22-11 23 11l43 45q11 11 11 21t-11 21-21 11l-21-11z m68 305q0-14 9-22t22-9h375q14 0 22 9t9 22-9 22-22 9h-375q-14 0-22-9t-9-22z m4-94q12-81 72-134 61-54 142-54t142 54q61 53 72 134h-62q-9-55-53-90-43-35-100-35t-100 35q-43 35-53 90h-62z m59 219q0-14 9-22t22-9h250q14 0 22 9t9 22-9 22-22 9h-250q-14 0-22-9t-9-22z m125-500v-62q0-14 9-22t22-9 22 9 9 22v62q0 14-9 22t-22 9-22-9-9-22z m230 113q-11-11-11-21t11-21l43-45q12-11 23-11t22 11 11 22-11 23l-45 43q-11 11-21 11z"/></svg><svg viewBox="0 0 1000 1000" id="sun" width="24" height="24" x="33" y="93"><path d="m94 500q0-14 9-22t22-9h62q14 0 22 9t9 22-9 22-22 9h-62q-14 0-22-9t-9-22z m119 287q-11-11-11-22t11-23l45-43q11-12 22-12l21 11q11 11 11 22t-11 22l-43 45q-12 11-23 11t-22-11z m0-529q-11-12-11-23t11-22 22-11 23 11l43 45q11 11 11 21t-11 21-21 11l-21-11z m68 242q0-90 64-154t154-64 154 64 64 154-64 154-154 64-154-64-64-154z m62 0q0 64 46 110t110 46 109-45q47-47 47-111t-46-110-110-46-110 46-46 110z m125 375v-62q0-14 9-22t22-9 22 9 9 22v62q0 14-9 22t-22 9-22-9-9-22z m0-687v-62q0-14 9-22t22-9 22 9 9 22v62q0 14-9 22t-22 9-22-9-9-22z m230 554q-11-11-11-21t11-21 21-11l21 11 45 43q11 12 11 23t-11 22-22 11-23-11z m0-441q-11-11-11-21t11-21l43-45q12-11 23-11t22 11 11 22-11 23l-45 43q-11 11-21 11z m82 199q0-14 9-22t22-9h62q14 0 22 9t9 22-9 22-22 9h-62q-14 0-22-9t-9-22z"/></svg><svg viewBox="0 0 1000 1000" id="moon" width="24" height="24" x="63" y="93"><path d="m256 494q0-103 74-178 39-39 94-59 5-2 10-2 12 0 21 10t10 22q0 5-2 11-11 30-10 61 0 21 4 42 12 53 50 91t91 50q21 5 42 4 31 0 61-10 6-2 11-2 12 0 22 10t10 21q0 5-2 10-20 55-59 94-74 74-178 74t-177-73-73-177z m62-1q0 78 55 134 54 54 131 54 6 0 13 0 85-5 136-71-10 0-20 0-99 0-171-72t-72-171q0-10 0-20-10 6-18 14-55 55-55 132z"/></svg><svg viewBox="0 0 1000 1000" id="eclipse" width="24" height="24" x="93" y="93"><path d="m123 530q0-14 9-22t22-9h62q14 0 22 9t9 22-9 22-22 9h-62q-14 0-22-9t-9-22z m119 287q-11-11-11-22t11-23l45-43q11-12 22-12l21 11q11 11 11 22t-11 22l-43 45q-12 11-23 11t-22-11z m0-529q-11-12-11-23t11-22 22-11 23 11l43 45q11 11 11 21t-11 21-21 11l-21-11z m68 242q0-90 64-154t154-64q29 0 62 10 34-10 62-10 90 0 154 64t64 154-64 154-154 64q-29 0-62-10-34 10-62 10-90 0-154-64t-64-154z m62 0q0 56 36 100 36 43 89 53-62-62-62-152t62-152q-53 10-89 53t-36 100z m125 375v-62q0-14 9-22t22-9 22 9 9 22v62q0 14-9 22t-22 9-22-9-9-22z m0-687v-62q0-14 9-22t22-9 22 9 9 22v62q0 14-9 22t-22 9-22-9-9-22z"/></svg><svg viewBox="0 0 1000 1000" id="mist" width="24" height="24" x="123" y="93"><path d="m61 592q0-14 11-22t26-9h168q-10-31-14-62h-98q-14 0-22-9t-9-22 9-22 22-9h98q3-31 14-62h-174q-14 0-22-9t-9-22 9-22 22-9h203q39-56 101-91 61-34 134-34 108 0 186 72 79 73 91 178h160q14 0 22 9t9 22-9 22-22 9h-160q-3 31-14 62h43q16 0 26 9t11 22-11 22-26 9h-72q-39 56-101 91-61 34-134 34t-134-34q-62-35-101-91h-197q-16 0-26-9t-11-22z m254-94q4 33 18 62h394q14-29 18-62h-429z m0-62h429q-12-81-72-134-61-54-142-54-87 0-152 62h152q14 0 22 9t9 22-9 22-22 9h-197q-14 29-18 62z m62 187q65 62 152 62t152-62h-305z"/></svg><svg viewBox="0 0 1000 1000" id="wind" width="24" height="24" x="153" y="93"><path d="m123 656q0-14 12-22t29-9h490q39 0 66 27t27 66-27 66-66 27-66-27-27-66q0-16 6-31h-402q-18 0-29-9t-12-22z m0-125q0-14 9-22t22-9h599q-6-15-6-31 0-39 27-66t66-27 66 27 27 66-27 66-66 27h-687q-14 0-22-9t-9-22z m0-125q0-14 9-22t22-9h287q-6-16-6-31 0-39 27-66t66-27 66 27 27 66-27 66-66 27h-375q-14 0-22-9t-9-22z"/></svg><svg viewBox="0 0 1000 1000" id="snowflake" width="24" height="24" x="183" y="93"><path d="m224 610q6-25 28-39l64-37q-4-17-4-34t4-35l-64-35q-22-14-28-39-2-9-2-17 0-16 8-31 12-22 38-28 8-2 17-2 16 0 30 8l64 37q28-21 59-33v-74q0-25 19-44t44-19 44 19 19 44v74q31 12 59 33l64-37q13-7 28-7 9 0 19 2 25 6 38 28 8 14 8 30 0 8-2 17-6 25-28 39l-64 37q4 17 4 33t-4 33l64 37q22 14 28 39 2 9 2 17 0 16-8 30-13 22-38 28-10 2-19 2-15 0-28-7l-64-37q-26 21-59 33v74q0 25-19 44t-44 19-44-19-19-44v-74q-31-12-59-33l-64 37q-13 7-28 7-9 0-19-2-25-6-38-28-8-14-8-30 0-8 2-17z m214-109q0 25 18 45 20 18 45 18t44-19 19-44-19-44-44-19-44 19-19 44z"/></svg><svg viewBox="0 0 1000 1000" id="cloud-sun" width="24" height="24" x="3" y="123"><path d="m0 719q0-88 61-151t149-67q-23-45-23-94 0-90 64-154t154-64q89 0 153 62 63 61 65 152 76 33 125 100 14-2 31-2 90 0 154 64t64 154-64 154-154 64q-41 0-78-14-88 76-203 76t-203-76q-37 14-78 14-90 0-154-64t-64-154z m0-312q0-14 9-22t22-9h62q14 0 22 9t9 22-9 22-22 9h-62q-14 0-22-9t-9-22z m62 312q0 64 46 110t110 46q49 0 90-29 76 92 191 92t191-92q41 29 90 29 64 0 110-46t46-110-46-110-110-46q-31 0-59 12-37-70-107-107-28-16-59-21-28-8-57-8-115 0-191 90-19 23-31 47-1 0-16-4-23-8-43-8-64 0-110 46t-46 110z m57-554q-11-12-11-23t11-22 22-11 23 11l43 45q11 11 11 21t-11 21-21 11l-21-11z m131 242q0 38 20 72 92-103 230-103 27 0 61 6-10-57-53-94t-102-37q-64 0-110 46t-46 110z m125-312v-62q0-14 9-22t22-9 22 9 9 22v62q0 14-9 22t-22 9-22-9-9-22z m230 113q-11-11-11-21t11-21l43-45q12-11 23-11t22 11 11 22-11 23l-45 43q-11 11-21 11z m82 199q0-14 9-22t22-9h62q14 0 22 9t9 22-9 22-22 9h-62q-14 0-22-9t-9-22z"/></svg><svg viewBox="0 0 1000 1000" id="cloud-moon" width="24" height="24" x="33" y="123"><path d="m2 719q0-90 64-154t154-64q18 0 31 2 78-107 211-125-9-31-9-64 0-31 8-63 17-66 63-113 39-39 94-59 7-3 13-3 11 0 20 10 10 10 10 22 0 5-2 10-12 33-12 65 0 20 4 39 12 52 50 91 39 39 91 51 20 4 40 4 33 0 66-12 5-2 10-2 12 0 22 10 10 9 10 20 0 6-3 13-20 55-59 94-8 8-27 21 66 21 108 78t42 129q0 90-64 154t-154 64q-41 0-78-14-88 76-203 76t-203-76q-37 14-78 14-90 0-154-64t-64-154z m62 0q0 64 46 110t110 46q49 0 90-29 76 92 191 92t191-92q41 29 90 29 64 0 110-46t46-110-46-110-110-46q-31 0-59 12-2-2-5-7t-3-7q-26-40-59-68-38-29-84-43-35-12-72-12-14 0-14 2-69 2-123 39t-86 96q-27-12-59-12-64 0-110 46t-46 110z m455-445q-4 20-4 41 0 33 12 63 134 9 219 117 65-16 103-64-8 0-15 0-102 0-176-74-73-73-73-171 0-10 0-20-7 5-16 14-39 39-51 94z"/></svg><svg viewBox="0 0 1000 1000" id="fog-sun" width="24" height="24" x="63" y="123"><path d="m94 842q0-14 9-22t22-9h750q14 0 22 9t9 22-9 22-22 9h-750q-14 0-22-9t-9-22z m0-125q0-14 9-22t22-9h750q14 0 22 9t9 22-9 22-22 9h-750q-14 0-22-9t-9-22z m0-125q0-14 9-22t22-9h750q14 0 22 9t9 22-9 22-22 9h-750q-14 0-22-9t-9-22z m0-125q0-14 9-22t22-9h62q14 0 22 9t9 22-9 22-22 9h-62q-14 0-22-9t-9-22z m119-242q-11-12-11-23t11-22 22-11 23 11l43 45q11 11 11 21t-11 21-21 11l-21-11z m68 242q0-90 64-154t154-64 154 64 64 154q0 9-4 31h-62q4-17 4-31 0-64-46-110t-110-46-110 46-46 110q0 15 4 31h-62q-4-22-4-31z m187-312v-62q0-14 9-22t22-9 22 9 9 22v62q0 14-9 22t-22 9-22-9-9-22z m230 113q-11-11-11-21t11-21l43-45q12-11 23-11t22 11 11 22-11 23l-45 43q-11 11-21 11z m82 199q0-14 9-22t22-9h62q14 0 22 9t9 22-9 22-22 9h-62q-14 0-22-9t-9-22z"/></svg><svg viewBox="0 0 1000 1000" id="fog-moon" width="24" height="24" x="93" y="123"><path d="m94 842q0-14 9-22t22-9h750q14 0 22 9t9 22-9 22-22 9h-750q-14 0-22-9t-9-22z m0-125q0-14 9-22t22-9h750q14 0 22 9t9 22-9 22-22 9h-750q-14 0-22-9t-9-22z m0-125q0-14 9-22t22-9h750q14 0 22 9t9 22-9 22-22 9h-750q-14 0-22-9t-9-22z m188-254q9-88 71-150 39-39 94-59 6-2 11-2 12 0 22 10t10 21q0 5-2 10-12 33-12 66 0 20 4 40 12 52 51 91 39 38 91 50 20 4 39 4l65-12q5-2 10-2 12 0 21 10t10 22q0 5-2 11-10 28-23 51h-82q16-14 18-18-10 0-20 0-99 0-171-73-74-75-74-176 0-7 0-15-7 5-16 14-55 55-55 133t55 133l2 2h-80q-40-61-40-133 0-14 1-27z"/></svg><svg viewBox="0 0 1000 1000" id="fog-cloud" width="24" height="24" x="123" y="123"><path d="m0 844q0-14 9-22t22-9h937q14 0 22 9t9 22-9 22-22 9h-937q-14 0-22-9t-9-22z m0-125q0-14 9-22t22-9h937q14 0 22 9t9 22-9 22-22 9h-937q-14 0-22-9t-9-22z m0-125q0-14 9-22t22-9h937q14 0 22 9t9 22-9 22-22 9h-937q-14 0-22-9t-9-22z m0-125q0-90 64-154t154-64q18 0 31 2 43-61 109-94 67-33 141-33t141 33q66 33 109 94 14-2 31-2 90 0 154 64t64 154q0 9-4 31h-62q4-17 4-31 0-64-46-110t-110-46q-31 0-59 12-33-62-92-100-58-37-131-37t-131 37q-59 38-92 100-27-12-59-12-64 0-110 46t-46 110q0 15 4 31h-62q-4-22-4-31z"/></svg><svg viewBox="0 0 1000 1000" id="fog" width="24" height="24" x="153" y="123"><path d="m187 656q0-14 9-22t22-9h562q14 0 22 9t9 22-9 22-22 9h-562q-14 0-22-9t-9-22z m0-125q0-14 9-22t22-9h562q14 0 22 9t9 22-9 22-22 9h-562q-14 0-22-9t-9-22z m0-125q0-14 9-22t22-9h562q14 0 22 9t9 22-9 22-22 9h-562q-14 0-22-9t-9-22z m0-125q0-14 9-22t22-9h562q14 0 22 9t9 22-9 22-22 9h-562q-14 0-22-9t-9-22z"/></svg><svg viewBox="0 0 1000 1000" id="cloud" width="24" height="24" x="183" y="123"><path d="m0 532q0-90 64-154t154-64q18 0 31 2 43-61 109-94 67-33 141-33t141 33q66 33 109 94 14-2 31-2 90 0 154 64t64 154-64 154-154 64q-41 0-78-14-88 76-203 76t-203-76q-37 14-78 14-90 0-154-64t-64-154z m62 0q0 64 46 110t110 46q49 0 90-29 76 92 191 92t191-92q41 29 90 29 64 0 110-46t46-110-46-110-110-46q-31 0-59 12-33-62-92-100-58-37-131-37t-131 37q-59 38-92 100-27-12-59-12-64 0-110 46t-46 110z"/></svg><svg viewBox="0 0 1000 1000" id="cloud-flash" width="24" height="24" x="3" y="153"><path d="m0 344q0-90 64-154t154-64q18 0 31 2 43-61 109-94 67-33 141-33t141 33q66 33 109 94 14-2 31-2 90 0 154 64t64 154-64 154-154 64q-41 0-78-14-76 66-182 74l-21 64 62 62-187 187 62-187-62-62 68-68q-84-16-146-70-37 14-78 14-90 0-154-64t-64-154z m62 0q0 64 46 110t110 46q49 0 90-29 76 92 191 92l43-6q89-15 148-86 41 29 90 29 64 0 110-46t46-110-46-110-110-46q-31 0-59 12-33-62-92-100-58-37-131-37t-131 37q-59 38-92 100-27-12-59-12-64 0-110 46t-46 110z"/></svg><svg viewBox="0 0 1000 1000" id="cloud-flash-alt" width="24" height="24" x="33" y="153"><path d="m0 344q0-90 64-154t154-64q18 0 31 2 43-61 109-94 67-33 141-33t141 33q66 33 109 94 14-2 31-2 90 0 154 64t64 154-64 154-154 64q-41 0-78-14-46 41-111 61l25-78q45-26 74-61 41 29 90 29 64 0 110-46t46-110-46-110-110-46q-31 0-59 12-33-62-92-100-58-37-131-37t-131 37q-59 38-92 100-27-12-59-12-64 0-110 46t-46 110 46 110 110 46q49 0 90-29 44 55 117 78l-49 49q-48-20-80-49-37 14-78 14-90 0-154-64t-64-154z m375 593l62-187-62-62 187-187-62 187 62 62z"/></svg><svg viewBox="0 0 1000 1000" id="drizzle" width="24" height="24" x="63" y="153"><path d="m0 407q0-90 64-154t154-64q18 0 31 2 43-61 109-94 67-33 141-33t141 33q66 33 109 94 14-2 31-2 90 0 154 64t64 154-64 154-154 64q-41 0-78-14-88 76-203 76t-203-76q-37 14-78 14-90 0-154-64t-64-154z m62 0q0 64 46 110t110 46q49 0 90-29 76 92 191 92t191-92q41 29 90 29 64 0 110-46t46-110-46-110-110-46q-31 0-59 12-33-62-92-100-58-37-131-37t-131 37q-59 38-92 100-27-12-59-12-64 0-110 46t-46 110z m375 468q0-35 62-125l16 23q18 27 31 55 16 32 16 47 0 25-19 44t-44 19-44-19-19-44z"/></svg><svg viewBox="0 0 1000 1000" id="rain" width="24" height="24" x="93" y="153"><path d="m0 344q0-90 64-154t154-64q18 0 31 2 43-61 109-94 67-33 141-33t141 33q66 33 109 94 14-2 31-2 90 0 154 64t64 154-64 154-154 64q-41 0-78-14-88 76-203 76t-203-76q-37 14-78 14-90 0-154-64t-64-154z m62 0q0 64 46 110t110 46q49 0 90-29 76 92 191 92t191-92q41 29 90 29 64 0 110-46t46-110-46-110-110-46q-31 0-59 12-33-62-92-100-58-37-131-37t-131 37q-59 38-92 100-27-12-59-12-64 0-110 46t-46 110z m125 406q0-35 62-125l16 23q18 27 31 55 16 32 16 47 0 25-19 44t-44 19-44-19-19-44z m252 187q0-35 62-125l16 23q18 27 31 55 16 32 16 47 0 25-19 44t-44 19-44-19-19-44z m248-62q0-35 62-125l16 23q18 27 31 55 16 32 16 47 0 25-19 44t-44 19-44-19-19-44z"/></svg><svg viewBox="0 0 1000 1000" id="windy" width="24" height="24" x="123" y="153"><path d="m0 719q0-14 9-22t22-9h250q14 0 22 9t9 22-9 22-22 9h-250q-14 0-22-9t-9-22z m0-125q0-14 9-22t22-9h125q14 0 22 9t9 22-9 22-22 9h-125q-14 0-22-9t-9-22z m62-125q0-14 9-22t22-9h125q14 0 22 9t9 22-9 22-22 9h-125q-14 0-22-9t-9-22z m209 51q0-78 54-135t132-61q74-76 179-76t179 76q78 3 132 61 54 57 54 135 0 80-57 137t-139 57q-18 0-33-2-62 41-136 41t-136-41q-16 2-35 2-80 0-137-57t-57-137z m62 0q0 55 38 93t93 38q26 0 47-8 55 47 124 47t122-47q23 8 47 8 55 0 94-38t39-93-39-94-94-39q-9 0-18 2-56-78-151-78t-151 78q-8-2-20-2-55 0-93 39t-38 94z"/></svg><svg viewBox="0 0 1000 1000" id="windy-rain" width="24" height="24" x="153" y="153"><path d="m0 532q0-13 9-21t22-9h250q14 0 22 9t9 21q0 13-9 23t-22 10h-250q-13 0-22-10t-9-23z m0-125q0-13 9-21t22-9h125q14 0 22 9t9 21q0 13-9 23t-22 10h-125q-13 0-22-10t-9-23z m62-125q0-13 9-21t22-9h125q14 0 22 9t9 21q0 13-9 23t-22 10h-125q-13 0-22-10t-9-23z m209 50q0-78 54-134t132-60q74-76 179-76t179 76q78 3 132 60t54 134q0 82-57 139t-139 57q-18 0-33-2-62 39-136 39t-136-39q-16 2-35 2-80 0-137-57t-57-139z m62 0q0 55 38 94t93 39q26 0 47-8 55 45 124 45t122-45q23 8 47 8 55 0 94-39t39-94-39-93-94-38h-18q-57-76-151-76t-151 76h-20q-55 0-93 38t-38 93z m103 418q0-35 62-125l16 23q18 27 31 55 16 32 16 47 0 25-19 44t-44 19-44-19-19-44z m250 125q0-35 62-125l16 23q18 27 31 55 16 32 16 47 0 25-19 44t-44 19-44-19-19-44z"/></svg><svg viewBox="0 0 1000 1000" id="snow" width="24" height="24" x="183" y="153"><path d="m0 344q0-90 64-154t154-64q18 0 31 2 43-61 109-94 67-33 141-33t141 33q66 33 109 94 14-2 31-2 90 0 154 64t64 154-64 154-154 64q-41 0-78-14-88 76-203 76t-203-76q-37 14-78 14-90 0-154-64t-64-154z m62 0q0 64 46 110t110 46q49 0 90-29 76 92 191 92t191-92q41 29 90 29 64 0 110-46t46-110-46-110-110-46q-31 0-59 12-33-62-92-100-58-37-131-37t-131 37q-59 38-92 100-27-12-59-12-64 0-110 46t-46 110z m285 544q4-15 16-20l35-21q-2-9-2-19t2-19l-35-20q-12-8-16-21-1-5-1-9 0-8 4-17 7-13 20-17t27 4l35 21q14-14 31-20v-41q0-14 11-24t24-11 24 11 11 24v41q18 6 31 20l35-21q14-8 27-4t20 17q4 8 4 17 0 4-1 9-4 14-16 21l-35 20q2 9 2 19t-2 19l35 21q12 6 16 20 1 5 1 10 0 9-4 16-7 12-21 16t-27-4l-35-20q-14 12-31 18v41q0 15-10 25t-25 10-25-10-10-25v-41q-17-6-31-18l-35 20q-14 7-27 4t-21-16q-4-7-4-16 0-5 1-10z m117-61q0 15 11 24t24 10 23-10q12-10 12-24t-11-24-24-10-24 10-11 24z"/></svg><svg viewBox="0 0 1000 1000" id="snow-alt" width="24" height="24" x="3" y="183"><path d="m0 344q0-90 64-154t154-64q18 0 31 2 43-61 109-94 67-33 141-33t141 33q66 33 109 94 14-2 31-2 90 0 154 64t64 154-64 154-154 64q-34 0-66-12-4-16-12-27-9-19-31-33 1-1 6-5t9-8 5-6q41 29 90 29 64 0 110-46t46-110-46-110-110-46q-31 0-59 12-33-62-92-100-58-37-131-37t-131 37q-59 38-92 100-27-12-59-12-64 0-110 46t-46 110 46 110 110 46q49 0 90-29 0 2 20 20-22 15-31 33-8 12-12 27-33 12-66 12-90 0-154-64t-64-154z m347 356q4-15 16-20l35-21q-2-9-2-19t2-19l-35-20q-12-8-16-21-1-5-1-9 0-8 4-17 7-13 20-17t27 4l35 21q14-14 31-20v-41q0-14 11-24t24-11 24 11 11 24v41q18 6 31 20l35-21q14-8 27-4t20 17q4 8 4 17 0 4-1 9-4 14-16 21l-35 20q2 9 2 19t-2 19l35 21q12 6 16 20 1 5 1 10 0 9-4 16-7 12-21 16t-27-4l-35-20q-14 12-31 18v41q0 15-10 25t-25 10-25-10-10-25v-41q-17-6-31-18l-35 20q-14 7-27 4t-21-16q-4-7-4-16 0-5 1-10z m117-61q0 15 11 24t24 10 23-10q12-10 12-24t-11-24-24-10-24 10-11 24z"/></svg><svg viewBox="0 0 1000 1000" id="snow-heavy" width="24" height="24" x="33" y="183"><path d="m0 344q0-90 64-154t154-64q18 0 31 2 43-61 109-94 67-33 141-33t141 33q66 33 109 94 14-2 31-2 90 0 154 64t64 154-64 154-154 64q-41 0-78-14-88 76-203 76t-203-76q-37 14-78 14-90 0-154-64t-64-154z m60 392q-1-4-1-7 0-14 16-18l23-6q0-12 6-21l-18-18q-7-7-7-14t7-14q7-8 15-8 7 0 14 7l18 18q9-3 21-6l6-23q4-15 17-15 4 0 8 1 15 4 15 17 0 4-1 8l-6 23q5 3 8 6 4 4 8 10l23-8q3 0 6 0 15 0 20 16 1 4 1 8 0 13-17 18l-23 6q0 12-6 21l18 18q8 7 8 15 0 7-7 14-8 8-16 8-7 0-15-7l-16-18q-11 3-21 6l-8 23q-3 16-17 16-3 0-8-1-16-4-16-18 0-4 1-9l6-23q-7-3-16-16l-23 8q-3 0-5 0-15 0-19-16z m3-392q0 64 46 110t110 46q49 0 90-29 76 92 191 92t191-92q41 29 90 29 64 0 110-46t46-110-46-110-110-46q-31 0-59 12-33-62-92-100-58-37-131-37t-131 37q-59 38-92 100-27-12-59-12-64 0-110 46t-46 110z m81 381q7 7 15 7l15-7q7-7 7-13 0-7-8-14-7-8-15-8l-14 7q-7 7-7 14t7 14z m204 163q4-15 16-20l35-21q-2-9-2-19t2-19l-35-20q-12-8-16-21-1-5-1-9 0-8 4-17 7-13 20-17t27 4l35 21q14-14 31-20v-41q0-14 11-24t24-11 24 11 11 24v41q18 6 31 20l35-21q14-8 27-4t20 17q7 13 3 27t-16 21l-35 20q2 9 2 19t-2 19l35 21q12 6 16 20t-3 26q-7 12-21 16t-27-4l-35-20q-14 12-31 18v41q0 15-10 25t-25 10-25-10-10-25v-41q-17-6-31-18l-35 20q-14 7-27 4t-21-16q-4-7-4-16 0-5 1-10z m117-61q0 15 11 24t24 10 23-10q12-10 12-24t-11-24-24-10-24 10-11 24z m277-81q4-15 17-15 4 0 8 1l23 6q3-5 8-10 3-3 8-6l-6-23q-1-4-1-8 0-13 15-17 4-1 8-1 13 0 17 15l6 23q12 2 21 6l18-18q7-7 14-7 8 0 15 8 7 7 7 14t-7 14l-18 18q6 10 6 21l23 6q16 5 16 18 0 3-1 7-4 16-19 16-2 0-5 0l-23-8q-8 12-16 16l6 23q1 5 1 9 0 14-16 18-4 1-8 1-13 0-17-16l-8-23q-12-2-21-6l-16 18q-7 7-15 7t-16-8q-7-7-7-14t8-15l18-18q-6-9-6-21l-23-6q-17-4-17-18 0-3 1-8z m85 41q7 7 15 7l15-7q7-7 7-13 0-7-8-14-7-8-15-8l-14 7q-7 7-7 14t7 14z"/></svg><svg viewBox="0 0 1000 1000" id="hail" width="24" height="24" x="63" y="183"><path d="m0 344q0-90 64-154t154-64q18 0 31 2 43-61 109-94 67-33 141-33t141 33q66 33 109 94 14-2 31-2 90 0 154 64t64 154-64 154-154 64q-41 0-78-14-88 76-203 76t-203-76q-37 14-78 14-90 0-154-64t-64-154z m62 0q0 64 46 110t110 46q28 0 55-10l35-14 29 25q70 61 162 61t162-61l29-25 35 14q26 10 55 10 64 0 110-46t46-110-46-110-110-46q-13 0-21 2l-37 6-23-31q-74-102-199-102t-199 102l-23 31-37-6q-8-2-21-2-64 0-110 46t-46 110z m62 344q0-25 19-44t44-19 43 20q20 18 20 43t-19 44-44 19-44-19-19-44z m125 250q0-25 19-44t44-19 43 20q20 18 20 43t-19 44-44 19-44-19-19-44z m187-187q0-25 19-44t44-19 43 20q20 18 20 43t-19 44-44 19-44-19-19-44z m187 187q0-25 19-44t44-19 43 20q20 18 20 43t-19 44-44 19-44-19-19-44z m125-250q0-25 19-44t44-19 43 20q20 18 20 43t-19 44-44 19-44-19-19-44z"/></svg><svg viewBox="0 0 1000 1000" id="clouds" width="24" height="24" x="93" y="183"><path d="m0 719q0-90 64-154t154-64q18 0 31 2 1-4 4-4-4-19-4-29 0-72 51-123t123-51h14q72-90 187-90t187 90h14q72 0 123 51t51 123q0 66-47 117 47 61 47 133 0 90-64 154t-154 64q-41 0-78-14-88 76-203 76t-203-76q-37 14-78 14-90 0-154-64t-64-154z m62 0q0 64 46 110t110 46q49 0 90-29 76 92 191 92t191-92q41 29 90 29 64 0 110-46t46-110q0-52-33-96-23-29-56-45t-67-16l-25 2q-18 3-33 10-33-62-92-100-58-37-131-37-103 0-178 76-24 26-41 55 0 6-4 6-27-12-59-12-64 0-110 46t-46 110z m256-285q82-59 182-59 73 0 141 33 66 33 109 94 14-2 31-2 71 0 129 43 27-33 27-74 0-47-32-79t-79-32q-22 0-43 8-21-43-64-70t-94-27-94 27q-43 27-64 70-20-8-43-8-37 0-65 21t-40 55z"/></svg><svg viewBox="0 0 1000 1000" id="clouds-flash" width="24" height="24" x="123" y="183"><path d="m0 514q0-90 64-154t154-64q18 0 31 2 1-4 4-4-4-19-4-29 0-72 51-123t123-51h14q72-90 187-90t187 90h14q72 0 123 51t51 123q0 66-47 117 47 59 47 133 0 90-64 154t-154 64q-41 0-78-14-81 72-193 74l-10 20 62 62-187 125 62-125-62-62 45-29q-72-20-123-64-37 14-78 14-90 0-154-64t-64-154z m62 0q0 64 46 110t110 46q49 0 90-29 74 89 187 92l47-6q89-15 148-86 41 29 90 29 64 0 110-46t46-110q0-52-33-96-23-29-56-45t-67-16l-25 2q-18 3-33 10-33-62-92-100-58-37-131-37-103 0-178 76-24 24-41 55-1 3-4 6-27-12-59-12-64 0-110 46t-46 110z m256-285q82-59 182-59 73 0 141 33 66 33 109 94 14-2 31-2 70 0 129 41 27-32 27-72 0-47-32-79t-79-32q-22 0-43 8-21-45-64-71t-94-26-94 26-64 71q-20-8-43-8-37 0-65 21t-40 55z"/></svg></svg>