<svg xmlns="http://www.w3.org/2000/svg" xmlns:xlink="http://www.w3.org/1999/xlink" width="330" height="330"><defs><symbol id="airfield" viewBox="0 0 18 18"><path d="M5.324 3c-.212 0-.383.17-.383.382s.172.383.384.383h3.058L8 6v.94L3 8.47V10h5v3.412l-2 .823V15h7v-.765l-2-.823V10h5V8.47l-5-1.53V6l-.382-2.235h3.058c.212 0 .383-.17.383-.383 0-.21-.172-.382-.384-.382z"/></symbol><symbol id="airport" viewBox="0 0 18 18"><path d="M16.5 10v1L11 10v3l2 1.222V15H7v-.778L9 13v-3l-5.5 1v-1L9 7V4c0-.778.222-2 1-2s1 1.222 1 2v3z"/></symbol><symbol id="alcohol-shop" viewBox="0 0 18 18"><g><path d="M6.5 2l-.5.5v3L4 8v8h6V8L8 5.5v-3L7.5 2h-1zM11 8v3s0 1 1 1h1v3l-1.5.5-.5.5h5l-.5-.5L14 15v-3h1c1 0 1-1 1-1V8h-5z" overflow="visible"/></g></symbol><symbol id="america-football" viewBox="0 0 18 18"><g><path d="M9.5 4C4.71 4 3 8.5 3 8.5S4.71 13 9.5 13 16 8.5 16 8.5 14.29 4 9.5 4zM7.25 7c.139 0 .25.112.25.25V8h1.75v-.75c0-.139.112-.25.25-.25.139 0 .25.112.25.25V8h1.75v-.75c0-.139.112-.25.25-.25.139 0 .284.116.25.25V8h.563c.246 0 .437.223.437.5s-.19.5-.438.5H12v.75c0 .139-.112.25-.25.25-.139 0-.216-.116-.25-.25V9H9.75v.75c0 .139-.112.25-.25.25-.139 0-.25-.112-.25-.25V9H7.5v.75c0 .139-.112.25-.25.25C7.11 10 7 9.888 7 9.75V9h-.563C6.19 9 6 8.777 6 8.5s.19-.5.438-.5H7v-.75c0-.139.112-.25.25-.25z" overflow="visible"/></g></symbol><symbol id="art-gallery" viewBox="0 0 18 18"><g><path d="M8.5 3C4.61 3 2 6.444 2 8c0 1.5 1 2.5 2.5 2.5 1.556 0 3 .333 3 1.5 0 1.556 1.444 2.5 3 2.5C15 14.5 17 11.722 17 9c0-5.5-4.634-6-8.5-6zM7 4.5c.552 0 1 .448 1 1s-.448 1-1 1-1-.448-1-1 .448-1 1-1zm3 0c.552 0 1 .448 1 1s-.448 1-1 1-1-.448-1-1 .448-1 1-1zM13 6c.545 0 .97.455.97 1 0 .545-.425.97-.97.97-.545 0-1-.425-1-.97 0-.545.455-1 1-1zM5 7c.552 0 1 .448 1 1s-.448 1-1 1-1-.448-1-1 .448-1 1-1zm5.25 3.5c.69 0 1.25.56 1.25 1.25S10.94 13 10.25 13 9 12.44 9 11.75s.56-1.25 1.25-1.25z" overflow="visible"/></g></symbol><symbol id="bakery" viewBox="0 0 18 18"><g><path d="M9 6c-1 0-1.5.5-1.5 1.5l1 4 .5.5h1l.5-.5 1-4c0-1-.5-1.5-1.5-1.5zM6.5 7.5l-2 1L6 12h1l.5-.5zm6 0l-1 4 .5.5h1l1.5-3.5zM4 9.5l-.5.5-.5 1.5V13h.5L5 12zm11 0L14 12l1 1h1v-1.5l-.5-1.5z" overflow="visible"/></g></symbol><symbol id="bank" viewBox="0 0 18 18"><g><g><path d="M3.722 5c-.4 0-.722.322-.722.722v6.556c0 .4.322.722.722.722h11.556c.4 0 .722-.322.722-.722V5.722c0-.4-.322-.722-.722-.722zM3.5 6.5h12V8h-12zm.5 4h2V12H4zm6 .778h5V12h-5z" overflow="visible"/></g></g></symbol><symbol id="bar" viewBox="0 0 18 18"><g><path d="M4 3c-.406 0-1 .047-1 .25 0 .204.372.586.5.75L9 10v4l-2.812 1.188c-.407.135-.688.312-.688.812h8c0-.5-.406-.677-.812-.812L10 14v-4l5.5-6c.128-.164.5-.546.5-.75 0-.203-.594-.25-1-.25z" overflow="visible"/></g></symbol><symbol id="baseball" viewBox="0 0 18 18"><g><path d="M5 2s-1 0-1.5.5S3 4 3 4c2.5 3.5 7.08 6.142 8 7l2.594 2.406L13 14v1h1l1-1 1-1v-1h-1l-.594.594L12 10C9.638 7.467 8.5 4.5 5 2zm1.75 9c-.69 0-1.25.56-1.25 1.25s.56 1.25 1.25 1.25S8 12.94 8 12.25 7.44 11 6.75 11z" overflow="visible"/></g></symbol><symbol id="basketball" viewBox="0 0 18 18"><g><path d="M6 2L3 4v7c0 .5.5 1 1 1h2.5l2 3h2l2-3H15c.5 0 1-.5 1-1V4.5L13 2H6zm0 3h7v5H6V5zm1 1v3h5V6H7zm.5 6H9v1h1v-1h1.5l-.688 1H10v1H9v-1h-.813L7.5 12z" overflow="visible"/></g></symbol><symbol id="beer" viewBox="0 0 18 18"><g><path d="M4 2l1.5 13c.058.5.5 1 1 1h6c.5 0 .942-.5 1-1L15 2zm2 2h7l-.4 3H6.4z" overflow="visible"/></g></symbol><symbol id="bicycle" viewBox="0 0 18 18"><g transform="translate(-108 -1386.362)"><path d="M120 1389.362v1l1 .5v1.5h-5v-1h1v-.5l-1-.5h-2v1h1v1l-1.25 2.125c-.245-.065-.484-.125-.75-.125-1.657 0-3 1.343-3 3s1.343 3 3 3 3-1.343 3-3h1l2.5-4h1.5l.53 1.063c-1.427.23-2.53 1.444-2.53 2.937 0 1.657 1.343 3 3 3s3-1.343 3-3c0-1.44-1.023-2.646-2.375-2.937l-.625-1.563v-2.5l-.5-.5-1.5-.5zm-4.5 4h3l-2 3h-.688c-.212-.59-.587-1.115-1.093-1.47l.78-1.53zm-2.5 2.25c.967 0 1.75.784 1.75 1.75 0 .967-.783 1.75-1.75 1.75s-1.75-.783-1.75-1.75c0-.966.783-1.75 1.75-1.75zm9 0c.967 0 1.75.784 1.75 1.75 0 .967-.783 1.75-1.75 1.75s-1.75-.783-1.75-1.75c0-.966.783-1.75 1.75-1.75z" overflow="visible"/></g></symbol><symbol id="building" viewBox="0 0 18 18"><g><path d="M10 3H9L3 8v1h1v6h11V9h1V8z" overflow="visible"/></g></symbol><symbol id="bus" viewBox="0 0 18 18"><g><path d="M6.5 2v1H5c-.5 0-1 .5-1 1v10h1v1h2v-1h5v1h2v-1h1V4c0-.5-.5-1-1-1h-1.5V2h-6zM6 4h7v4H6V4zm.75 6.5c.414 0 .75.336.75.75s-.336.75-.75.75-.75-.336-.75-.75.336-.75.75-.75zm5.5 0c.414 0 .75.336.75.75s-.336.75-.75.75-.75-.336-.75-.75.336-.75.75-.75z" overflow="visible"/></g></symbol><symbol id="cafe" viewBox="0 0 18 18"><g><path d="M5 3c-.5 0-1 .5-1 1v6c0 .5.5 1 1 1h7c.4 0 1-.5 1-1v-.444h.36c.362 0 .362-.36.362-.36v-.363h.445C14.89 8.833 16 8.5 16 7.39V5.5c0-.5-.25-1-.75-1H13V4c0-.5-.5-1-1-1zm8 2.222h1.89c.36 0 .36.278.36.278v1.89c0 .57-.722.605-1.083.61H13zM3 12l2 2h7l2-2z" overflow="visible"/></g></symbol><symbol id="camera" viewBox="-402.5 403.5 18 18"><path d="M-393.5 405.5c-.552 0-1 .447-1 1v1h-1v-1h-3v1h-1v8c0 .553.448 1 1 1h11c.552 0 1-.447 1-1v-7c0-.553-.447-1-1-1h-2v-1c0-.553-.448-1-1-1zm1.5 3.5c1.657 0 3 1.343 3 3s-1.343 3-3 3-3-1.343-3-3 1.343-3 3-3z"/><path d="M-390.5 412c0 .828-.672 1.5-1.5 1.5s-1.5-.672-1.5-1.5.672-1.5 1.5-1.5 1.5.672 1.5 1.5z"/></symbol><symbol id="campsite" viewBox="0 0 18 18"><g><g font-family="Sans"><path d="M9.5 4c-.36 0-.524.173-.632.36L5 12.5H3.5c-.5 0-.5.778-.5.778S3 14 3.5 14h12c.5 0 .5-.722.5-.722s0-.778-.5-.778H14l-3.868-8.14C10.024 4.174 9.862 4 9.5 4zm0 3l2.5 5.5H7z" style="text-indent:0;text-align:start;line-height:normal;text-transform:none;block-progression:tb;-inkscape-font-specification:Sans" overflow="visible"/></g></g></symbol><symbol id="car" viewBox="-402.5 403.5 18 18"><g><path d="M-396.5 406.5l-3 4.5v5.5h2v1h2v-1h5v1h2v-1h2v-5.313l-3-4.687zm1 2h5l1.5 2h-8zm-1 4l1 1-1 1-1-1zm7 0l1 1-1 1-1-1z" overflow="visible"/></g></symbol><symbol id="cemetery" viewBox="0 0 18 18"><g><path d="M9.5 2C6.89 2 6 3.875 6 6.5V13c-.435 0-1 .688-1 1.125V15h9v-.875c0-.438-.565-1.125-1-1.125V6.5C13 3.875 12.11 2 9.5 2z" overflow="visible"/></g></symbol><symbol id="chemist" viewBox="0 0 18 18"><path d="M6 2v1h1v3l-4 9h13l-4-9V3h1V2H7zm3 1h1v3l2 5H7l2-5z" fill-rule="evenodd"/></symbol><symbol id="cinema" viewBox="0 0 18 18"><g><path d="M14.235 1.65l-1.72.5.836 2.27L15 3.944zm-2.772.788l-2.246.645.86 2.27 2.247-.645zM8.19 3.37l-1.984.573.86 2.27L9.05 5.64zm-3.012.86L3 5l1 2 2.015-.5zM4 7v7c0 .5.5 1 1 1h10c.5 0 1-.5 1-1V7zm2 2h8v2H6z" overflow="visible"/></g></symbol><symbol id="circle" viewBox="0 0 18 18"><g><path d="M3 8.5C3 12.09 5.91 15 9.5 15S16 12.09 16 8.5 13.09 2 9.5 2 3 4.91 3 8.5z" overflow="visible"/></g></symbol><symbol id="circle-stroked" viewBox="0 0 18 18"><g><path d="M9.5 2C13.09 2 16 4.91 16 8.5S13.09 15 9.5 15 3 12.09 3 8.5 5.91 2 9.5 2zm0 1.444c-2.792 0-5.056 2.264-5.056 5.056 0 2.792 2.264 5.056 5.056 5.056 2.792 0 5.056-2.264 5.056-5.056 0-2.792-2.264-5.056-5.056-5.056z" overflow="visible"/></g></symbol><symbol id="city" viewBox="0 0 18 18"><g><path d="M4 2v2H3v10h6V4H8V2H4zm7 2v3h-1v9h6V7h-1V4h-1v3h-2V4h-1zM4 5h1v1H4V5zm3 0h1v1H7V5zM4 7h1v1H4V7zm3 0h1v1H7V7zm4 1h1v1h-1V8zm3 0h1v1h-1V8zM4 9h1v1H4V9zm3 0h1v1H7V9zm4 1h1v1h-1v-1zm3 0h1v1h-1v-1zM4 11h1v1H4v-1zm3 0h1v1H7v-1zm4 1h1v1h-1v-1zm3 0h1v1h-1v-1zm-3 2h1v1h-1v-1zm3 0h1v1h-1v-1z" overflow="visible"/></g></symbol><symbol id="clothing-store" viewBox="0 0 18 18"><path d="M7 2L5 3 2 7l2 2 1-1h1v7h7V8h1l1 1 2-2-3-4-2-1c0 .773-.256 1.468-.656 2-.458.608-1.108 1-1.844 1s-1.386-.392-1.844-1C7.256 3.468 7 2.773 7 2z"/></symbol><symbol id="college" viewBox="0 0 18 18"><g><path d="M9.5 4L3 7.5 9.5 11 14 8.656v3.563c0 1.78 1.5 1.53 1.5 1.53V13s-.78 0-.78-.78V8.25L16 7.5zM6 10.5v1.438c0 .358.513.818 1 1.062l2.5 1 2.5-1c.487-.244 1-.704 1-1.063V10.5L9.5 12z" overflow="visible"/></g></symbol><symbol id="commercial" viewBox="0 0 18 18"><g><path d="M4.78 2L4 2.78V16h4v-3h3v3h4V2.78L14.22 2H4.78zM6 4h2v1H6V4zm5 0h2v1h-2V4zM6 6h2v1H6V6zm5 0h2v1h-2V6zM6 8h2v1H6V8zm5 0h2v1h-2V8zm-5 2h2v1H6v-1zm5 0h2v1h-2v-1z" overflow="visible"/></g></symbol><symbol id="cricket" viewBox="0 0 18 18"><g><path d="M5.438 1.97s-.813 0-1.625.81C3 3.595 3 4.407 3 4.407l8.125 8.125 1.22-.405 2.436 2.437c.258.257.426.407.75.407.103 0 .218 0 .345-.126.127-.127.125-.242.125-.344 0-.325-.177-.52-.406-.75l-2.438-2.438.406-1.218L5.438 1.97zM7.75 12c-.69 0-1.25.56-1.25 1.25s.56 1.25 1.25 1.25S9 13.94 9 13.25 8.44 12 7.75 12z" overflow="visible"/></g></symbol><symbol id="cross" viewBox="0 0 18 18"><g><g font-family="Sans"><path d="M4.083 2C3.543 2 3 2.542 3 3.083c0 .27.088.53.305.745L7.977 8.5l-4.672 4.672c-.217.216-.305.475-.305.745C3 14.457 3.542 15 4.083 15c.27 0 .542-.067.78-.305L9.5 10.057l4.638 4.638c.237.238.508.305.78.305.54 0 1.082-.542 1.082-1.083 0-.27-.088-.53-.305-.745L11.023 8.5l4.672-4.672c.217-.216.305-.475.305-.745C16 2.543 15.458 2 14.917 2c-.27 0-.542.067-.78.305L9.5 6.943 4.862 2.305C4.625 2.067 4.354 2 4.082 2z" style="text-indent:0;text-align:start;line-height:normal;text-transform:none;block-progression:tb;-inkscape-font-specification:Sans" overflow="visible"/></g></g></symbol><symbol id="dam" viewBox="0 0 18 18"><g><path d="M3 2v12h5L5 2zm6.5 6.5l-1.22.625.345 1.312L9.5 10l2 1 2.5-.844L16 11V9.5l-2-1-2.5 1zm0 3l-.562.28.343 1.345L9.5 13l2 1 2.5-.844L16 14v-1.5l-2-1-2.5 1z" overflow="visible"/></g></symbol><symbol id="danger" viewBox="0 0 18 18"><g><path d="M8.5 2L7 2.5 6 4v2.5l1.5 1V9l2 1 2-1V7.5l1.5-1V4l-1-1.5-1.5-.5zM8 4.5h.5L9 5v.5l-.5.5H8l-.5-.5V5zm2.5 0h.5l.5.5v.5L11 6h-.5l-.5-.5V5zM4 9.5v1l3.875 1.75L4 14v1h1l10-4.5v-1h-1l-4.5 2.03L5 9.5zm8.22 3.25l-1.595.72L14 15h1v-1z" overflow="visible"/></g></symbol><symbol id="disability" viewBox="0 0 18 18"><g><path d="M8.5 1c-1.105 0-2 .895-2 2s.895 2 2 2 2-.895 2-2-.895-2-2-2zM8 6L7 7v4l1 1h4.375L15 15h1v-1l-2.5-3.125-.5-.375h-2L10 7 9 6H8zM6 7.5c-1.748.618-3 2.54-3 4.5 0 2.485 2.015 4.5 4.5 4.5 2.232 0 4.083-1.37 4.438-3.5H10.5c-.404 1.298-1.382 2-2.813 2-1.76 0-3.187-1.427-3.187-3.188C4.5 10.675 5.103 9.564 6 9V7.5z" overflow="visible"/></g></symbol><symbol id="dog-park" viewBox="0 0 18 18"><path d="M12.5 4L14 3h1l-1 1.5L17 6l-.5 1H14l-.5 1-2-2zM13 8.5l-2-2-1 .5H6L4.5 6 6 4H5L3.5 6l1.125 2.125-.475 1.2.1.675L2 14h1l2.5-3-.5 3h1l1-4 3.5 1-1 3H11l1-3 .5 3H14l-1-3z"/></symbol><symbol id="embassy" viewBox="0 0 18 18"><g><path d="M8 2L5 3.5V16h1V8l2-1 3.5 2L14 8V3l-2.5 1z" overflow="visible"/></g></symbol><symbol id="emergency-telephone" viewBox="0 0 18 18"><g><path d="M6 1.5L2.5 5H6zm5.5.5L3 10.5V13l1.312 1.312 3-3L6.5 10.5l5-5 .813.813 3-3L14 2zm4.187 1.688l-3 3L13 7h1l2-2V4zm-8 8l-3 3L5 15h1l2-2v-1z" overflow="visible"/></g></symbol><symbol id="entrance" viewBox="0 0 18 18"><path style="text-indent:0;text-align:start;line-height:normal;text-transform:none;block-progression:tb;-inkscape-font-specification:Sans" d="M4.813 2c-.46.087-.82.533-.813 1v3h2V4h7v9H6v-2H4v3c0 .524.476 1 1 1h9c.524 0 1-.476 1-1V3c0-.524-.476-1-1-1H5c-.062-.01-.125-.01-.188 0z" overflow="visible" font-family="Sans"/><path d="M7 5v2H2v3h5v2l5-3.5L7 5z"/></symbol><symbol id="farm" viewBox="0 0 18 18"><g><path d="M13 6v8h4V6l-1-2h-2zM3.5 6L1 9h1v5h6v-2h1v2h2V9h1l-2-3zm5 2L10 9v1H7V9z" overflow="visible"/></g></symbol><symbol id="fast-food" viewBox="0 0 18 18"><g><path d="M7.5 4C5.447 4 4 4.79 4 6.5V8h11V6.5C15 4.79 13.553 4 11.5 4h-4zm0 1.125c.207 0 .375.168.375.375s-.168.375-.375.375-.375-.168-.375-.375.168-.375.375-.375zm4 0c.207 0 .375.168.375.375s-.168.375-.375.375-.375-.168-.375-.375.168-.375.375-.375zm-6 1c.207 0 .375.168.375.375s-.168.375-.375.375-.375-.168-.375-.375.168-.375.375-.375zm4 0c.207 0 .375.168.375.375s-.168.375-.375.375-.375-.168-.375-.375.168-.375.375-.375zm4 0c.207 0 .375.168.375.375s-.168.375-.375.375-.375-.168-.375-.375.168-.375.375-.375zM4 9c-.342 0-.5.158-.5.5 0 .342.158.5.5.5h11c.342 0 .5-.158.5-.5 0-.342-.158-.5-.5-.5H4zm0 2v.625C4 12.31 4.69 13 5.375 13h8.25C14.31 13 15 12.31 15 11.625V11H4z" overflow="visible"/></g></symbol><symbol id="ferry" viewBox="0 0 18 18"><g transform="translate(-108 -1338.362)"><path d="M116 1339.362c-.5 0-1 .5-1 1h-1.176c-.457 0-.853.544-.853 1l.03 3.5-2 1 2 3.5v1.5l2.5 1 2-1 2 1 2.5-1v-1.5l2-3.5-2-1v-3.5c0-.456-.367-1-.824-1H120c0-.5-.5-1-1-1zm-2 2h7v3.044l-3.5-2.044-3.5 2.044zm-1 11l-2 1v1.5l2-1 2.5 1 2-1 2 1 2.5-.853 2 .852v-1.5l-2-1-2.5 1-2-1-2 1z" overflow="visible"/></g></symbol><symbol id="fire-station" viewBox="0 0 18 18"><g><path d="M9.5 2L7 6 5.5 4C4.96 4.947 3 7.063 3 9.5 3 13.09 5.91 16 9.5 16S16 13.09 16 9.5c0-2.438-1.96-4.553-2.5-5.5L12 6zm0 6.5s2.5 2.37 2.5 4.25c0 .813-.875 1.75-2.5 1.75S7 13.562 7 12.75C7 10.933 9.5 8.5 9.5 8.5z" overflow="visible"/></g></symbol><symbol id="fuel" viewBox="0 0 18 18"><g><path d="M6 2c-.5 0-1 .5-1 1v11c0 .5.5 1 1 1h6c.5 0 1-.5 1-1v-3h.25c.137 0 .25.096.25.25V12c0 .5.5 1 1 1h.5c.5 0 1-.407 1-1V8.5c0-1-1-1-1-2V5h-1l-1-1V3c0-.5-.5-1-1-1zm0 1.5h6V6H6zM13 7h1c0 1 1 1 1 2v2.75c0 .25-.25.25-.25.25s-.25 0-.25-.25V11c0-.59-.5-1-1-1H13z" overflow="visible"/></g></symbol><symbol id="garden" viewBox="0 0 18 18"><path d="M6 2v2.5C6 6.15 7.375 7.05 9 7v6.5C8.187 11.875 6.5 10 4 11c0 0 1.5 4 5.5 4s5.5-4 5.5-4c-2.5-1-4.188.875-5 2.5V7c1.625.05 3-.85 3-2.5V2l-2 2-1.5-2L8 4z" overflow="visible"/></symbol><symbol id="gift" viewBox="-402.5 403.5 18 18"><g><path d="M-397.5 414.5v2c0 .553.448 1 1 1h2.5v-3h-3.5zM-393 414.5v3h2.5c.552 0 1-.447 1-1v-2h-3.5z"/><g><path d="M-394 410.5h-2.5c-.552 0-1 .447-1 1v2h3.5v-3zM-390.5 410.5h-2.5v3h3.5v-2c0-.553-.448-1-1-1z"/></g><path d="M-391.417 406.665c-1.074 0-1.855.643-2.126 1.585-.27-.942-.942-1.585-2.04-1.585-.707 0-1.416.497-1.416 1.417s.434 1.418 1.353 1.418h4.241c.92 0 1.406-.485 1.406-1.406s-.71-1.43-1.417-1.43zm0 .708c.708 0 .708.68.708.71 0 .03.037.708-.707.708h-1.417c.075-.507.27-1.417 1.417-1.417zm-2.748 1.418h-1.417c-.745 0-.708-.677-.708-.708 0-.03-.036-.71.708-.71 1.147 0 1.34.91 1.417 1.42z"/></g></symbol><symbol id="golf" viewBox="0 0 18 18"><g><path d="M7.382 2C7.122 2 7 2 7 2.382v10.276c-1.53.047-2 1.077-2 1.842 0 .382.5.5.5.5h8s.5-.118.5-.5c0-1.912-.853-3.5-2-3.5-1.202 0-1.515 2.303-2.706 2.47-.522.075-1.026-.263-1.53-.525V6.588l5.354-2.294-4.97-2.13C7.86 2.04 7.574 2 7.382 2z" overflow="visible"/></g></symbol><symbol id="grocery" viewBox="0 0 18 18"><g><path d="M14.5 3.5c-1 0-1.5.5-1.5 1.5H3l1.06 6h9.175v1h-8.41c-.766 0-.766.74 0 .765h8.411c.383 0 .765-.383.765-.765V5c0-.5.238-.735.765-.735H16V3.5zM12 12.706c-.633 0-1.147.514-1.147 1.147S11.367 15 12 15c.634 0 1.147-.514 1.147-1.147s-.513-1.147-1.147-1.147zm-6 0c-.634 0-1.147.514-1.147 1.147S5.366 15 6 15s1.147-.514 1.147-1.147S6.634 12.706 6 12.706z" overflow="visible"/></g></symbol><symbol id="hairdresser" viewBox="0 0 18 18"><g><path d="M4 3c-1.105 0-2 .895-2 2s.895 2 2 2c.365 0 .705-.11 1-.28L7.5 8.5 5 10.28c-.295-.17-.635-.28-1-.28-1.105 0-2 .895-2 2s.895 2 2 2 2-.895 2-2c0-.183-.016-.363-.063-.53L17 3.5 16 3h-2.594L12 4 7.906 6.937 5.936 5.53C5.985 5.364 6 5.184 6 5c0-1.105-.895-2-2-2zm7.47 6.53L9.31 11.063 12 13l1.406 1H16l1-.5z" overflow="visible"/></g></symbol><symbol id="harbor" viewBox="0 0 18 18"><g transform="translate(-108 -1362.4)"><path d="M121 1364.362l-1 .5-.5.5-.5 1v1l.094.406-6.344 6.344c-.75-.75-.75-2.75.25-3.75l1 1v-4l-1.5 1.5c-1 1-1.5 1.5-1.5 3v5.5h5.5c1 0 2-.5 3-1.5l.5-.5 1-1h-4l1 1c-1 1-3 1-3.75.25l6.344-6.344.406.095h1l1-.5.5-.5.5-1v-1l-.5-1-.5-.5-1-.5h-1zm0 1.5h1l.5.5v1l-.5.5h-1l-.5-.5v-1l.5-.5z" overflow="visible"/></g></symbol><symbol id="heart" viewBox="0 0 18 18"><g><path d="M15.44 9.67c-1.158 2.384-4.387 5.826-5.94 7.33-1.554-1.504-4.783-4.946-5.942-7.33C1.182 4.786 7.005 1.198 9.5 6.998c2.506-5.81 8.317-2.212 5.94 2.674z" overflow="visible"/></g></symbol><symbol id="heliport" viewBox="0 0 18 18"><g><path d="M10.194 13h5.028c.39 0 .778-.39.778-.778V9.89c0-.78-.374-1.153-.778-1.557l-.778-.777c-.26-.26-.777-.556-1.555-.556H11V5h3.222c.43 0 .778-.125.778-.556 0-.43-.29-.444-.722-.444H6.944c-.43 0-.833.014-.833.444s.35.51.78.556H10v2H5.892c-.27-.464-.76-.778-1.336-.778C3.696 6.222 3 6.92 3 7.778c0 .86.696 1.555 1.556 1.555.448 0 .834-.206 1.118-.51l2.77 2.62c.81.767 1.362 1.557 1.75 1.557zM4.556 7c.43 0 .777.348.777.778 0 .43-.348.778-.777.778-.43 0-.778-.35-.778-.778 0-.43.348-.778.778-.778z" overflow="visible"/></g></symbol><symbol id="hospital" viewBox="0 0 18 18"><g><path d="M8 2c-.554 0-1 .446-1 1v3H4c-.554 0-1 .446-1 1v3c0 .554.474 1.175 1 1h3v3c0 .554.446 1 1 1h3c.554 0 1-.446 1-1v-3h3c.554 0 1-.446 1-1V7c0-.554-.446-1-1-1h-3V3c0-.554-.446-1-1-1z" overflow="visible"/></g></symbol><symbol id="ice-cream" viewBox="-402.5 403.5 18 18"><path d="M-392.78 411.5c.48-.53.78-1.228.78-2 0-1.656-1.343-3-3-3s-3 1.344-3 3c0 .772.3 1.47.78 2h4.44z"/><path d="M-391.554 411.5h1.774c.48-.53.78-1.228.78-2 0-1.656-1.343-3-3-3-.117 0-.387-.013-.5 0 .817.733 1.5 1.82 1.5 3 0 .706-.197 1.393-.554 2zM-390 412.5h-7s2.44 5.9 2.5 6c.128.344.5 1 1 1s.87-.656 1-1c.06-.1 2.5-6 2.5-6z"/></symbol><symbol id="industrial" viewBox="0 0 18 18"><g><path d="M12 3v4h-2V4.53L7 7V4.53L3.824 7C3.464 7.28 3 7.412 3 8.235v5.942c0 .456.367.823.824.823h11.352c.457 0 .824-.367.824-.823V7.824c0-.457-.367-.824-.824-.824H14V3l-1-1z" overflow="visible"/></g></symbol><symbol id="land-use" viewBox="0 0 18 18"><g><path d="M4 2L2 5h1v3h5V5h1L7 2zm11 0v2h-3l-1 1v3h5V2zM3 10v6h1v-2h1v2h3v-6zm10.5-1L11 13h1.5L11 15h2v1h1v-1h2l-1.5-2H16zM4 12h1v1H4zm2 0h1v1H6zm0 2h1v1H6z" overflow="visible"/></g></symbol><symbol id="laundry" viewBox="-402.5 403.5 18 18"><path d="M-393.344 405.5l-3.156 3h-2v11h11v-13.22l-.78-.78h-5.064zm.844 1l1 1-1 1-1-1 1-1zm3 0l1 1-1 1-1-1 1-1zm-3.5 4c1.933 0 3.5 1.567 3.5 3.5s-1.567 3.5-3.5 3.5-3.5-1.567-3.5-3.5 1.567-3.5 3.5-3.5zm-2 3.5c0 1.105.895 2 2 2s2-.895 2-2h-4z"/></symbol><symbol id="library" viewBox="0 0 18 18"><g><path d="M3 4.353V12c2 2.5 5 1.47 5 3h1V8.118C9 5.823 6 6.5 3 4.353zm13 0c-3 2.147-6 1.47-6 3.765V15h1c0-1.53 3-.5 5-3z" overflow="visible"/></g></symbol><symbol id="lighthouse" viewBox="0 0 18 18"><g><path d="M9.5 1L7 3v3H6v1l1 1-1 8h7l-1-8 1-1V6h-1V3zm0 2l1 1v2h-2V4z" overflow="visible"/></g></symbol><symbol id="lodging" viewBox="0 0 18 18"><g><path d="M4.5 3.75c-.828 0-1.5.672-1.5 1.5s.672 1.5 1.5 1.5S6 6.078 6 5.25s-.672-1.5-1.5-1.5zM7 5c0 2-1 3-2.5 3h-1c-.5 0-.5.5-.5.5s0 .5.5.5H16V7.25C16 6.5 16 5 12.25 5zm-3.25 5c-.375 0-.75.375-.75.75v1.5c0 .375.375.75.75.75s.75-.375.75-.75V11h10v1.25c0 .375.375.75.75.75s.75-.375.75-.75v-1.5c0-.375-.375-.75-.75-.75z" overflow="visible"/></g></symbol><symbol id="logging" viewBox="0 0 18 18"><g><path d="M13.5 1.5L7.75 7.25l1 1L14 3l.5.5-5.25 5.25 1 1L16 4V2.5l-1-1zM5.25 5.75L3 8v.5h.5l1-1 1 1L3 11v1.5L5.5 15H7l3.75-3.75z" overflow="visible"/></g></symbol><symbol id="london-underground" viewBox="0 0 18 18"><path d="M9.5 3C6.524 3 4.067 5.16 3.594 8H2.5c-.277 0-.5.223-.5.5v1c0 .277.223.5.5.5h1.094c.473 2.84 2.93 5 5.906 5 2.976 0 5.433-2.16 5.906-5H16.5c.277 0 .5-.223.5-.5v-1c0-.277-.223-.5-.5-.5h-1.094c-.473-2.84-2.93-5-5.906-5zm0 2c1.863 0 3.4 1.276 3.844 3H5.656C6.1 6.276 7.636 5 9.5 5zm-3.844 5h7.688c-.445 1.724-1.98 3-3.844 3-1.863 0-3.4-1.276-3.844-3z" overflow="visible"/></symbol><symbol id="marker" viewBox="0 0 18 18"><path d="M9.5 1.962c-2.332 0-4.5 2-4.5 4.5 0 2.528 3.417 7.056 4.5 8.5 1.083-1.444 4.5-5.972 4.5-8.5 0-2.5-2.168-4.5-4.5-4.5z" overflow="visible"/></symbol><symbol id="marker-stroked" viewBox="0 0 18 18"><g><path d="M9.5 2C7.168 2 5 4 5 6.5c0 2.528 3.417 7.056 4.5 8.5 1.083-1.444 4.5-5.972 4.5-8.5C14 4 11.832 2 9.5 2zm0 1.5c1.5 0 3 1.25 3 3 0 2-2.25 5-3 6-.75-1-3-4-3-6 0-1.75 1.5-3 3-3z" overflow="visible"/></g></symbol><symbol id="minefield" viewBox="0 0 18 18"><g><path d="M9.5 2l-2 5.5-4.5-3 1.406 5.25C4.784 10.977 5.24 11 6.062 11H7.5v-1h4v1H13c.824 0 1.22-.37 1.625-1.25L16 4.5l-4.5 3zm-1 9v1.03c-2.003.153-3.5.756-3.5 1.47 0 .828 2.015 1.5 4.5 1.5.446 0 .877-.022 1.284-.062C12.644 14.754 14 14.18 14 13.5c0-.714-1.498-1.317-3.5-1.47V11z" overflow="visible"/></g></symbol><symbol id="mobilephone" viewBox="0 0 18 18"><g transform="translate(0 -1034.4)"><path d="M6 1037.362c-.5 0-1 .598-1 1v11c0 .402.5 1 1 1h7c.5 0 1-.598 1-1v-11c0-.402-.5-1-1-1z"/><rect width="2" height="3" x="6" y="1035.362" ry="0"/></g></symbol><symbol id="monument" viewBox="0 0 18 18"><g><path d="M9.444 2S8 3.722 8 4.5V12H7c-.43 0-1 .514-1 .945V14.5H5c-.5 0-1 .5-1 1v.5h11v-.5c0-.5-.5-1-1-1h-1V13c0-.5-.5-1-1-1h-1V4.5C11 3.722 9.444 2 9.444 2z" overflow="visible"/></g></symbol><symbol id="museum" viewBox="0 0 18 18"><g><path d="M9.5 3L5 6h9zM6 7c-.5 0-1 .5-1 .945V13l-1 1.5c0 .36.234.5.5.5h10c.256 0 .5-.14.5-.5L14 13V7.944C14 7.5 13.5 7 13 7zm2 1.5c.5 0 .5 0 1 1l.5 1 .5-1c.5-1 .5-1 1-1s1 .5 1 1V13c0 .36-.14.5-.5.5s-.5-.14-.5-.5v-2.89L10 12c-.265.5-.735.5-1 0l-1-1.89V13c0 .36-.14.5-.5.5S7 13.36 7 13V9.5c0-.5.5-1 1-1z" overflow="visible"/></g></symbol><symbol id="music" viewBox="0 0 18 18"><path d="M7.5 3l-.75.75v7.5H6c-1.243 0-2.25 1.007-2.25 2.25S4.757 15.75 6 15.75s2.25-1.007 2.25-2.25V7h5.25v4.25h-.75c-1.243 0-2.25 1.007-2.25 2.25s1.007 2.25 2.25 2.25S15 14.743 15 13.5V3.75L14.25 3H7.5z"/></symbol><symbol id="oil-well" viewBox="0 0 18 18"><g><path d="M8 2c-.382 0-.664.368-.78.75L3 16h2l.906-2.72L9.5 11.25l3.594 2.03L14 16h2L11.78 2.75C11.665 2.368 11.383 2 11 2zm0 5h3l.5 1.47-2 1.28-2-1.28zm-.875 2.656L8.5 10.5l-2.062 1.188zm4.75 0l.688 2.032L10.5 10.5z" overflow="visible"/></g></symbol><symbol id="park" viewBox="0 0 18 18"><g><path d="M9.5 2l-4 4H8L5 9h2.5L5 12h4v3h1v-3h4l-2.5-3H14l-3-3h2.5z" overflow="visible"/></g></symbol><symbol id="park2" viewBox="0 0 18 18"><g><path d="M14 9c0-1-1-2-1.5-2 .307-.344.61-1.003.61-1.5 0-1.074-1.11-2-2.11-2 0-1-.5-1.5-1.5-1.5S8 2.5 8 3.5c-1 0-2.11.927-2.11 2 0 .498.303 1.156.61 1.5C6 7 5 8 5 9s.5 2.056 2.056 2.056h.388L7.5 12 9 13.5V16h1v-2.5l1.5-1.5.055-.944.56-.012C13.5 11 14 10 14 9zm-5.5 2h2v.5l-1 1-1-1z" overflow="visible"/></g></symbol><symbol id="parking" viewBox="0 0 18 18"><g><g font-size="25.21" font-weight="bold" letter-spacing="0" word-spacing="0" font-family="Helvetica Neue"><path style="text-indent:0;text-align:start;line-height:125%;text-transform:none;block-progression:tb;-inkscape-font-specification:Helvetica Neue Bold" d="M7 4v10h2.125v-3.563h.906c1.24 0 2.206-.273 2.876-.843.675-.57 1-1.393 1-2.47 0-1.033-.304-1.823-.937-2.343-.63-.523-1.57-.78-2.783-.78zm2.125 1.75h.97c.578 0 .98.107 1.25.344.272.237.405.597.405 1.093 0 .493-.145.866-.47 1.125-.322.256-.816.407-1.467.407h-.688z" overflow="visible"/></g></g></symbol><symbol id="parking-garage" viewBox="0 0 18 18"><g><g font-size="25.21" font-weight="bold" letter-spacing="0" word-spacing="0" font-family="Helvetica Neue"><path style="text-indent:0;text-align:start;line-height:125%;text-transform:none;block-progression:tb;-inkscape-font-specification:Helvetica Neue Bold" d="M7.5.962l-5.4 1.5v1.5l5.4-1.5 5.4 1.5v-1.5L7.5.962zm-2.455 4v10h2.087V11.4h.89c1.217 0 2.165-.274 2.822-.844.663-.57.982-1.393.982-2.47 0-1.033-.298-1.823-.92-2.343-.618-.524-1.54-.78-2.73-.78h-3.13zm2.087 1.75h.95c.57 0 .964.107 1.228.344.27.237.4.597.4 1.094 0 .492-.143.865-.46 1.125-.32.255-.803.406-1.443.406h-.675V6.713z" overflow="visible"/></g></g></symbol><symbol id="pharmacy" viewBox="0 0 18 18"><g><path d="M9.5 3C7.567 3 6 3.672 6 4.5V7c0 .828 1.567 1.5 3.5 1.5S13 7.828 13 7V4.5C13 3.672 11.433 3 9.5 3zM6 8.5V15s1 1 3.5 1 3.5-1 3.5-1V8.5c0 .828-1.567 1.5-3.5 1.5S6 9.328 6 8.5zM8 11c.453.092.965.156 1.5.156s1.047-.064 1.5-.156v3c-.453.092-.965.156-1.5.156S8.453 14.092 8 14z" overflow="visible"/></g></symbol><symbol id="pitch" viewBox="0 0 18 18"><g><path d="M9.343 2c-.756 0-1.368.613-1.368 1.368 0 .756.612 1.37 1.368 1.37.756 0 1.37-.614 1.37-1.37 0-.755-.614-1.368-1.37-1.368zM5.41 4.737l.34 1.368c.172.685.58.685 1.092.685h1.133c.406.684.215 1.796.342 2.842h-.62c-.684 0-1.775.684-1.09 2.052l1.026 2.053c.684 1.368 1.71.342 1.368-.342l-1.025-2.053c-.17-.342.18-.342.342-.342h1.688s.81 1.693 1.764 2.925C12.12 14.38 12.51 15 13 15c.342 0 .928-.53.304-1.273-1.168-1.395-1.908-2.832-1.908-3.517 0-.795-.14-2.47-.342-3.42h1.026c.334.67.92 1.71.92 1.71.378.655 1 .606 1 0 0-.083-.01-.262-.096-.463l-.97-2.274c-.062-.148-.172-.342-.683-.342H6.95l-.513-1.71c-.205-.684-1.197-.684-1.197 0 0 .343.12.758.17 1.027z" overflow="visible"/></g></symbol><symbol id="place-of-worship" viewBox="0 0 18 18"><path d="M9.5 3.5L8 5v1.5l-2 2V15h7V8.5l-2-2V5zM3 9.5V15h1.5V9.5zm11.5 0V15H16V9.5z" overflow="visible"/></symbol><symbol id="playground" viewBox="0 0 18 18"><g><path d="M10.75 2c-.693 0-1.25.558-1.25 1.25 0 .693.557 1.25 1.25 1.25.692 0 1.25-.557 1.25-1.25C12 2.558 11.442 2 10.75 2zm-4.5 2C5.558 4 5 4.558 5 5.25c0 .693.558 1.25 1.25 1.25S7.5 5.943 7.5 5.25C7.5 4.558 6.942 4 6.25 4zm5.25 1l-.97 3.72-3.342.905L5.53 6.97 4.5 7l-.906 3.563L2 11v2l3.094-.844-1 1.713c-.197.342-.063.833.28 1.03.344.196.835.062 1.032-.28l1.72-2.995 1.624-.438L7 15h5l-1.875-4.156 1.313-.344 2.28 2.28c.28.28.787.278 1.065 0 .278-.28.277-.784-.002-1.06l-1.686-1.69L17 9V7l-2.75.72L12.562 5z" overflow="visible"/></g></symbol><symbol id="police" viewBox="0 0 18 18"><g><path d="M8 2.5L7 3v1h5V3l-1-.5zM7 5c-.033.163 0 .327 0 .5C7 6.88 8.12 8 9.5 8S12 6.88 12 5.5V5zm0 4c-1.083 0-1.986 1.792-2 2.875V16h1.53L11 9zm5.5 0l-4.47 7H14v-4.125C14 10.792 13.583 9 12.5 9z" overflow="visible"/></g></symbol><symbol id="polling-place" viewBox="0 0 18 18"><g><path d="M5 3c-.5 0-1 .5-1 1v9c0 .5.5 1 1 1h9c.5 0 1-.53 1-1v-3h-2v2H6V5h5V3z" overflow="visible"/><path style="text-indent:0;text-align:start;line-height:normal;text-transform:none;block-progression:tb;-inkscape-font-specification:Sans" d="M9.938 8.513l-1.22-1.22C8.352 6.92 7.683 6.92 7.3 7.28 6.9 7.646 6.902 8.324 7.28 8.7l2.012 2.01c.4.41 1.152.38 1.5-.06l4.99-6.012c.522-.63.038-1.63-.782-1.638-.405 0-.592.143-.755.302-.03.03-4.308 5.21-4.308 5.21z" overflow="visible" font-family="Sans"/></g></symbol><symbol id="post" viewBox="0 0 18 18"><g><path d="M4 4c-.813 0-.594.338-.188.672L9.5 9l5.688-4.328C15.605 4.354 15.812 4 15 4zM3 5.5V12c0 .5.5 1 1 1h11c.5 0 1-.5 1-1V5.5l-6.5 5z" overflow="visible"/></g></symbol><symbol id="prison" viewBox="0 0 18 18"><g><path d="M5 4c-.5 0-.5.5-.5.5v10s0 .5.5.5h.5c.5 0 .5-.5.5-.5V13h1.5v1.5s0 .5.5.5h.5c.5 0 .5-.5.5-.5V13h1.5v1.5s0 .5.5.5h.5c.5 0 .5-.5.5-.5V13h1.5v1.5s0 .5.5.5h.5c.5 0 .5-.5.5-.5v-10s0-.5-.5-.5H14c-.5 0-.5.5-.5.5v2H12v-2s0-.5-.5-.5H11c-.5 0-.5.5-.5.5v2H9v-2S9 4 8.5 4H8c-.5 0-.5.5-.5.5v2H6v-2S6 4 5.5 4H5zm1 4h1.5v3.5H6zm3 0h1.5v3.5H9zm3 0h1.5v3.5H12z" overflow="visible"/></g></symbol><symbol id="rail" viewBox="0 0 18 18"><path d="M6.938 2L4 5v6c0 .554.446 1 1 1h9c.554 0 1-.446 1-1V5l-2.938-3H6.939zM8 3h3v1H8V3zM6 5h7v3H6V5zm0 4h1.5v1.5H6V9zm5.5 0H13v1.5h-1.5V9zM8 13H5v1H4v1h4zM11 13h3v1h1v1h-4z"/></symbol><symbol id="rail-above" viewBox="0 0 18 18"><g><path d="M6 2L4 3.5V11c0 .5.5 1 1 1h9c.5 0 1-.5 1-1V3.5L13 2zm1.5 1h4L13 4v2H6V4zm-.75 5.5c.414 0 .75.336.75.75s-.336.75-.75.75S6 9.664 6 9.25s.336-.75.75-.75zm5.5 0c.414 0 .75.336.75.75s-.336.75-.75.75-.75-.336-.75-.75.336-.75.75-.75zM8.5 13L5 15h9l-3.5-2z" overflow="visible"/></g></symbol><symbol id="rail-light" viewBox="0 0 18 18"><path d="M9.5 2C7.015 2 5 3.96 5 6.375v4.97c0 .36.304.655.688.655h7.625c.383 0 .687-.296.687-.656v-4.97C14 3.96 11.985 2 9.5 2zm-.594 1.563c.03-.007.063.005.094 0V8H6.5V6.5c0-1.45 1.04-2.658 2.406-2.938zm1.094 0c1.413.243 2.5 1.455 2.5 2.937V8H10V3.562zM6.5 9.5H8V11H6.5V9.5zm4.5 0h1.5V11H11V9.5zM9 13H6v1H5v1h4zM10 13h3v1h1v1h-4z"/></symbol><symbol id="rail-metro" viewBox="0 0 18 18"><path d="M8 2v1h-.5C6.67 3 6 3.67 6 4.5v6c0 .83.67 1.5 1.5 1.5h4c.83 0 1.5-.67 1.5-1.5v-6c0-.83-.67-1.5-1.5-1.5H11V2H8zm0 2h3c.554 0 1 .446 1 1v2H7V5c0-.554.446-1 1-1zM7 9h1.5v1.5H7V9zm3.5 0H12v1.5h-1.5V9zM9 13H6v1H5v1h4zM10 13h3v1h1v1h-4z"/></symbol><symbol id="rail-underground" viewBox="0 0 18 18"><g><path d="M5 2l3.5 2h2L14 2zm1 3L4 6.5V14c0 .5.5 1 1 1h9c.5 0 1-.5 1-1V6.5L13 5zm1.5 1h4L13 7v2H6V7zm-.75 5.5c.414 0 .75.336.75.75s-.336.75-.75.75-.75-.336-.75-.75.336-.75.75-.75zm5.5 0c.414 0 .75.336.75.75s-.336.75-.75.75-.75-.336-.75-.75.336-.75.75-.75z" overflow="visible"/></g></symbol><symbol id="religious-christian" viewBox="0 0 18 18"><g><path d="M9 1c-.74 0-1 .76-1 1.5V5H4v2h4v9h2V7h4V5h-4V2.5C10 1.76 9.74 1 9 1z" overflow="visible"/></g></symbol><symbol id="religious-jewish" viewBox="0 0 18 18"><path d="M9.5 1L7 4H3l2.5 4.5L3 13h4l2.5 3 2.5-3h4l-2.5-4.5L16 4h-4L9.5 1z"/></symbol><symbol id="religious-muslim" viewBox="0 0 18 18"><g><path d="M10 3C6.61 3 4 5.61 4 9s2.61 6 6 6c1.896 0 3.874-.65 5-2-.736.48-2.057 1-3 1-2.593 0-4.528-2.546-4.528-5.14C7.472 6.27 9.407 4 12 4c.943 0 2.264.52 3 1-1.126-1.35-3.104-2-5-2zm3.61 2.61L12.89 8H10l2.528 1.222L11 12l2.61-1.694L16 12l-1.306-2.778L17 8h-2.667z" overflow="visible"/></g></symbol><symbol id="restaurant" viewBox="0 0 18 18"><g><path d="M6 2H5v4.5c0 .778 1 .722 1 1.5v7c0 .39.5 1 1 1s1-.5 1-1V8c0-.778 1-.722 1-1.5V2H8v3h-.5V2h-1v3H6zm8 0c-.778 0-2.008.516-2.5 1.5-.39.778-.5 2.5-.5 3.5v3c0 .5.61 1 1 1v4c0 .5.5 1 1 1s1-.5 1-1z" overflow="visible"/></g></symbol><symbol id="roadblock" viewBox="0 0 18 18"><g><path d="M9.5 2C5.91 2 3 4.91 3 8.5S5.91 15 9.5 15 16 12.09 16 8.5 13.09 2 9.5 2zM6 8h7v2H6z" overflow="visible"/></g></symbol><symbol id="rocket" viewBox="0 0 18 18"><path d="M15 3c-1.155-.047-3.49.49-6 3-2.153 2.152-3 5-3 5 0 .717 1.282 2 2 2 0 0 2.847-.847 5-3 2.234-2.234 2.68-4.496 3-6V3zm-2.232 3.232c.488.488.488 1.28 0 1.768s-1.28.488-1.768 0-.488-1.28 0-1.768 1.28-.488 1.768 0zM5 7l-1.5 3h2.25L7 7zm7 5l-3 1.25v2.25l3-1.5z"/></symbol><symbol id="school" viewBox="0 0 18 18"><g><path d="M10.75 2c-.69 0-1.25.56-1.25 1.25s.56 1.25 1.25 1.25S12 3.94 12 3.25 11.44 2 10.75 2zM5.062 3c-.69 0-1.25.56-1.25 1.25s.56 1.25 1.25 1.25 1.25-.56 1.25-1.25S5.752 3 5.063 3zm6.688 2c-.28 0-.74.1-1.125.375l-2.438 1.75c-.66.47-.054 1.283.563.875l1.594-1.063S10.78 7.295 11 8l-.03 1.844-1.626 4.344c-.188.5.166.817.53.812.24 0 .477-.16.595-.438L12.5 10s.375 2 1.875 2H16.5c.5 0 .5-.5.5-.5s0-.5-.5-.5h-2s-.5 0-.5-1c0-.704-.78-2.498-1-3v-.5l2.5 1.375c.68.453 1.284-.35.625-.844L13.5 5.5c-.517-.29-1.082-.5-1.75-.5zM4.625 6c-.375 0-.552.177-.75.375L2.28 7.97c-.204.204-.28.388-.28.655 0 .375.558.567.875.25L4.25 7.5c.315 0 .75.04.75.5v2.125l-1.125 3c-.312.83.858 1.087 1.125.375l1.125-3s.375.5 1.125.5h2.188c.75 0 .75-1 0-1H7.5S7 10 7 9.5v-.75C7 7.25 6.5 6 5.75 6H4.625z" overflow="visible"/></g></symbol><symbol id="scooter" viewBox="0 0 18 18"><g><path d="M12 2l-.5.5.5.5h1l1 2-3 3c-.604.65-1.35 1-2 1H8V6h.5c.49 0 1-.51 1-1s-.5-1-1-1H4c-.49 0-1 .51-1 1s.51 1 1 1h.5v.5H4c-.44 0-1 .56-1 1V11h6c1.438 0 2.01-.01 2.938-.906.633-.68.998-1.094 1.53-1.094H17v-.438c0-.44-.835-.62-1-1.062L15 5c.49 0 1-.51 1-1V3c0-.49-.51-1-1-1zm3 8c-1.105 0-2 .895-2 2s.895 2 2 2 2-.895 2-2-.895-2-2-2zM4 12c0 1.105.895 2 2 2s2-.895 2-2H6z" overflow="visible"/></g></symbol><symbol id="shop" viewBox="0 0 18 18"><g><path d="M8.265 2C7.5 2 6.65 2.75 6.5 3.5L6 6H5c-.382 0-1 .618-1 1l-1 8.235c0 .383.5.765 1 .765h11c.5 0 1-.382 1-.765L15 7c0-.382-.618-1-1-1h-1l-.5-2.5c-.15-.75-1-1.5-1.765-1.5zm0 .765h2.47c.383 0 .925.36 1 .735l.5 2.5h-5.47l.5-2.5c.075-.375.617-.735 1-.735z" overflow="visible"/></g></symbol><symbol id="skiing" viewBox="0 0 18 18"><g><path d="M8 3c-1 0-1.5.5-1.5 1.5 0 .395.136.657.22 1l.78 2-2.813 1.97L2 8v1l11 6h1l1-1-.5-.5-.5-.5v1h-1l-7-3.813 2.47-1.656c.244-.167.6-.24.53-.53l-.53-1.47L11 8l.625 1.97c.057.21.205.41.406.5l1.69.717c1.182.52 1.346-.61.592-.937l-1.374-.594L12 7V5L9.5 3.594C8.92 3.26 8.5 3 8 3zm6.5 1.5c-.814 0-1.5.686-1.5 1.5s.686 1.5 1.5 1.5S16 6.814 16 6s-.686-1.5-1.5-1.5z" overflow="visible"/></g></symbol><symbol id="slaughterhouse" viewBox="0 0 18 18"><g><path d="M2.684 4l.684.79L2 6.5V7l2.053.184C4.053 8.21 5.678 8.568 6 10.5V14h.5l1-3 1 3H9v-3c2.053 0 1.632-.5 3-.5 0 0-.08 1.208-.08 1.79 0 .58-.34 1.71-.34 1.71h.683l1.026-2.737L14.315 14H15v-3l-.5-1 .5-1V6l-1-1H5.5l-.763-1z" overflow="visible"/></g></symbol><symbol id="soccer" viewBox="0 0 18 18"><g><path d="M9.5 2C5.92 2 3 4.92 3 8.5S5.92 15 9.5 15 16 12.08 16 8.5 13.08 2 9.5 2zm0 1.147c2.04 0 3.803 1.127 4.708 2.796-.854.566-1.638.862-1.65 1.41-.006.382 0 .49 0 .765 0 .382.2.874.766 1.147l1.338.645c-.153.567-.4 1.08-.717 1.553l-1.004-.67c-.572-.38-1.146-.636-1.528-.38l-1.147.763c-.53.354-.475.765-.383 1.147l.36 1.482c-.244.033-.49.047-.742.047-.53 0-1.047-.074-1.53-.215v-1.314c0-.765-.382-1.147-.764-1.53-.382-.382-.765-.764-1.53-.764H4.362c-.142-.484-.215-1-.215-1.53 0-2.966 2.388-5.354 5.353-5.354zM7.206 5.824l-.382 1.53c-.11.433-.398.88 0 1.146l1.147.765c.765.51 1.103.213 1.53 0l.765-.383c.57-.285.764-.382.764-1.147v-1.53c0-.38.005-.61-.765-.764l-1.912-.38c-.8-.16-.952-.02-1.147.764z" overflow="visible"/></g></symbol><symbol id="square" viewBox="0 0 18 18"><g><g transform="translate(48 -1122.4)"><rect width="13" height="13" x="-45" y="1124.362" rx="1" ry="1" overflow="visible"/></g></g></symbol><symbol id="square-stroked" viewBox="0 0 18 18"><g><path d="M4 2c-.554 0-1 .446-1 1v11c0 .554.446 1 1 1h11c.554 0 1-.446 1-1V3c0-.554-.446-1-1-1H4zm1.438 2h8.125c.25 0 .437.188.437.438v8.125c0 .25-.188.437-.438.437H5.438c-.25 0-.438-.188-.438-.438V4.438c0-.25.188-.438.438-.438z" overflow="visible"/></g></symbol><symbol id="star" viewBox="0 0 18 18"><g><path d="M9.5 2l-2 4H3l3.5 4-1.694 5L9.5 12.11 14.194 15 12.5 10 16 6h-4.5z" overflow="visible"/></g></symbol><symbol id="star-stroked" viewBox="0 0 18 18"><g><path d="M9.5 2l-2 4H3l3.5 4-1.688 5L9.5 12.125 14.188 15 12.5 10 16 6h-4.5zm0 2.5l1 2.5h3L11 10l1.156 2.5-2.656-2-2.656 2L8 10 5.5 7h3z" overflow="visible"/></g></symbol><symbol id="suitcase" viewBox="-402.5 403.5 18 18"><path d="M-387.5 408.5h-3v-1c0-.553-.448-1-1-1h-3c-.552 0-1 .447-1 1v1h-3c-.552 0-1 .447-1 1v7c0 .553.448 1 1 1h11c.552 0 1-.447 1-1v-7c0-.553-.448-1-1-1zm-7-1h3v1h-3zm-2 9h-1v-7h1zm8 0h-1v-7h1z"/></symbol><symbol id="swimming" viewBox="0 0 18 18"><g><path d="M11.75 3.625c-.114 0-.313.048-.406.094L8.47 5.124c-.386.182-.536.752-.283 1.094l.876 1.187-3.72 2.156 2 .812L9.5 9.5l2.156.875.844-.875-2.594-3.47 2.188-1.124c.435-.217.42-.59.375-.812-.044-.21-.323-.47-.72-.47zM13.5 6c-.828 0-1.5.672-1.5 1.5S12.672 9 13.5 9 15 8.328 15 7.5 14.328 6 13.5 6zm-4 4.5l-2 1-2.5-.938-2 .938V13l2-1 2.5 1 2-1.063 2 1.063 2-1.063L16 13v-1.5l-2.5-1-2 1-2-1z" overflow="visible"/></g></symbol><symbol id="telephone" viewBox="0 0 18 18"><g><path d="M10.5 2L2 10.5V13l1.312 1.312 3-3L5.5 10.5l5-5 .812.812 3-3L13 2h-2.5zm4.187 1.687l-3 3L12 7h1l2-2V4l-.313-.313zm-8 8l-3 3L4 15h1l2-2v-1l-.313-.313z" overflow="visible"/></g></symbol><symbol id="tennis" viewBox="0 0 18 18"><g><path d="M7.5 2C4.966 2 3 3.966 3 6.5s2.142 4.498 4.676 4.5H11l4 4h1v-1l-4-4V6.676C12 4.142 10.034 2 7.5 2zM11 7.706V10H8.5zM4.147 11C3.514 11 3 11.513 3 12.147c0 .633.514 1.147 1.147 1.147.634 0 1.147-.514 1.147-1.147S4.78 11 4.147 11z" overflow="visible"/></g></symbol><symbol id="theatre" viewBox="0 0 18 18"><g><path d="M3.78 2c-.388 0-.78.392-.78.78v5.5c0 1.725.764 3.783 3.875 3.783.28 0-.12-.028.125-.063v-2H4.5S5.055 8 7 8V6.345c0-.713.11-1.454.5-1.844.39-.39.888-1.308 2.5-.5l1 .5V2.782c0-.39-.392-.78-.78-.78C9.496 2 8 3 7 3S4.503 2 3.78 2zM5 4c.552 0 1 .448 1 1s-.448 1-1 1-1-.448-1-1 .448-1 1-1zm3.78 1c-.365 0-.78.392-.78.78V11c0 1.724.89 4 4 4s4-2.276 4-4V5.78c0-.388-.415-.78-.78-.78C14.496 5 13 6 12 6S9.503 5 8.78 5zM10 7c.552 0 1 .448 1 1s-.448 1-1 1-1-.448-1-1 .448-1 1-1zm4 0c.552 0 1 .448 1 1s-.448 1-1 1-1-.448-1-1 .448-1 1-1zm-4.5 4h5s-.556 2-2.5 2-2.5-2-2.5-2z" overflow="visible"/></g></symbol><symbol id="toilets" viewBox="0 0 18 18"><g><path d="M6 1c-1.105 0-2 .895-2 2s.895 2 2 2 2-.895 2-2-.895-2-2-2zm7 0c-1.105 0-2 .895-2 2s.895 2 2 2 2-.895 2-2-.895-2-2-2zM5.5 6L4 7.5V10l-1.5 2.5.5.5h2v3h2v-3h2l.5-.5L8 10V7.5L6.5 6zM11 6l-1 1 2 4.5V16h2v-4.5L16 7l-1-1z" overflow="visible"/></g></symbol><symbol id="town" viewBox="0 0 18 18"><g><path d="M6 3L3 5v7h2v-2h2v2h2V5zm4 4v7h2v-2h2v2h2V7l-3-2zM4 6h1v1H4zm3 0h1v1H7zm4 2h1v1h-1zm3 0h1v1h-1zM4 8h1v1H4zm3 0h1v1H7zm4 2h1v1h-1zm3 0h1v1h-1z" overflow="visible"/></g></symbol><symbol id="town-hall" viewBox="0 0 18 18"><g><path d="M9.5 2L4 5h11zM5 6c-.5 0-1 .493-1 .938V12l-1 2.5c0 .36.234.5.5.5h12c.256 0 .5-.14.5-.5L15 12V6.937C15 6.494 14.5 6 14 6zm1.5 1l.5.5V12H6V7.5zm3 0l.5.5V12H9V7.5zm3 0l.5.5V12h-1V7.5z" overflow="visible"/></g></symbol><symbol id="triangle" viewBox="0 0 18 18"><g><g font-family="Sans"><path d="M9.5 3c-.36 0-.524.173-.632.36L3.09 13.918c-.063.11-.09.236-.09.36 0 .542.36.723.722.723h11.556c.36 0 .722-.18.722-.722 0-.125-.027-.25-.09-.36L10.132 3.36C10.024 3.174 9.862 3 9.5 3z" style="text-indent:0;text-align:start;line-height:normal;text-transform:none;block-progression:tb;-inkscape-font-specification:Sans" overflow="visible"/></g></g></symbol><symbol id="triangle-stroked" viewBox="0 0 18 18"><g><g font-family="Sans"><path style="text-indent:0;text-align:start;line-height:normal;text-transform:none;block-progression:tb;-inkscape-font-specification:Sans" d="M9.5 3c-.36 0-.517.187-.625.375l-5.78 10.53c-.065.113-.095.252-.095.376 0 .543.358.72.72.72h11.56c.362 0 .72-.177.72-.72 0-.123-.03-.262-.094-.374l-5.78-10.53C10.015 3.185 9.86 3 9.5 3zm0 2l4.5 8.5H5L9.5 5z" overflow="visible"/></g></g></symbol><symbol id="village" viewBox="0 0 18 18"><g><path d="M6.5 4.5L3 7v1h1v4h2v-2h1v2h2V8h1V7L6.5 4.5zm6 2l-3 2.156V10h.5v4h2v-2h1v2h2v-4h1V9l-3.5-2.5z" overflow="visible"/></g></symbol><symbol id="warehouse" viewBox="0 0 18 18"><g><path d="M10 3H9L3 8v1h1v6h11V9h1V8zM7 9.5h5v.5H7zm0 2h5v.5H7zm0 2h5v.5H7z" overflow="visible"/></g></symbol><symbol id="waste-basket" viewBox="0 0 18 18"><g><path d="M7.518 2c-.204 0-.268.164-.268.368V4H4.737C4.33 4 4 4.092 4 4.5c0 .408.33.5.737.5h9.526c.408 0 .737-.092.737-.5 0-.408-.33-.5-.737-.5H11.75V2.368c0-.204-.164-.368-.368-.368zM8 2.737h3V4H8zM4.737 6c-.408 0-.788.334-.72.737l1.404 8.526c.067.403.33.737.738.737h6.63c.41 0 .67-.334.738-.737l1.458-8.526c.07-.402-.313-.737-.72-.737z" overflow="visible"/></g></symbol><symbol id="water" viewBox="0 0 18 18"><g><path d="M9.5 15C7.168 15 5 13 5 10.5 5 7.972 8.417 3.444 9.5 2c1.083 1.444 4.5 5.972 4.5 8.5C14 13 11.832 15 9.5 15z" overflow="visible"/></g></symbol><symbol id="wetland" viewBox="0 0 18 18"><g><path d="M13 3c-1 0-2.79 1.803-3.094 3.406L8.97 11.28 9.5 11l2 1 .906-.375c.14-.75.462-2.47.594-3.125.153-.762.8-1.5 1.5-1.5h1l-1-1H13l-1 1V6c0-1 1.006-2 1.906-2H15l-1-1h-1zM4.5 6l-1 1h1c.7 0 1.347.738 1.5 1.5.133.662.458 2.426.594 3.156L7.47 12l.843-.406L7.5 8c-.09-.4-.202-.685-.5-1L6 6H4.5zm.5 6l-2 1v1.5l2-1 2.5 1 2-1 2 1 2.5-.844 2 .844V13l-2-1-2.5 1-2-1-2 1L5 12z" overflow="visible"/></g></symbol><symbol id="zoo" viewBox="0 0 18 18"><g><g><path d="M13 2c-1.333 2-1.523 3.67-3 5-1.41 1.27-4 .834-4 2.667v.666c0 .667.667 1.3.667 2V13c0 1-.334 1-.667 2h.667L8 13v2h1v-4h1v4h1v-3l1 3h.667l-1.02-4.187c.392-.24.353-.684.353-1.146v-2L13.5 4l1.5.5V4l-.333-.333z" overflow="visible"/></g></g></symbol></defs><g><use xlink:href="#airfield" width="24" height="24" x="3" y="3"/><use xlink:href="#airport" width="24" height="24" x="33" y="3"/><use xlink:href="#alcohol-shop" width="24" height="24" x="63" y="3"/><use xlink:href="#america-football" width="24" height="24" x="93" y="3"/><use xlink:href="#art-gallery" width="24" height="24" x="123" y="3"/><use xlink:href="#bakery" width="24" height="24" x="153" y="3"/><use xlink:href="#bank" width="24" height="24" x="183" y="3"/><use xlink:href="#bar" width="24" height="24" x="213" y="3"/><use xlink:href="#baseball" width="24" height="24" x="243" y="3"/><use xlink:href="#basketball" width="24" height="24" x="273" y="3"/><use xlink:href="#beer" width="24" height="24" x="303" y="3"/><use xlink:href="#bicycle" width="24" height="24" x="3" y="33"/><use xlink:href="#building" width="24" height="24" x="33" y="33"/><use xlink:href="#bus" width="24" height="24" x="63" y="33"/><use xlink:href="#cafe" width="24" height="24" x="93" y="33"/><use xlink:href="#camera" width="24" height="24" x="123" y="33"/><use xlink:href="#campsite" width="24" height="24" x="153" y="33"/><use xlink:href="#car" width="24" height="24" x="183" y="33"/><use xlink:href="#cemetery" width="24" height="24" x="213" y="33"/><use xlink:href="#chemist" width="24" height="24" x="243" y="33"/><use xlink:href="#cinema" width="24" height="24" x="273" y="33"/><use xlink:href="#circle" width="24" height="24" x="303" y="33"/><use xlink:href="#circle-stroked" width="24" height="24" x="3" y="63"/><use xlink:href="#city" width="24" height="24" x="33" y="63"/><use xlink:href="#clothing-store" width="24" height="24" x="63" y="63"/><use xlink:href="#college" width="24" height="24" x="93" y="63"/><use xlink:href="#commercial" width="24" height="24" x="123" y="63"/><use xlink:href="#cricket" width="24" height="24" x="153" y="63"/><use xlink:href="#cross" width="24" height="24" x="183" y="63"/><use xlink:href="#dam" width="24" height="24" x="213" y="63"/><use xlink:href="#danger" width="24" height="24" x="243" y="63"/><use xlink:href="#disability" width="24" height="24" x="273" y="63"/><use xlink:href="#dog-park" width="24" height="24" x="303" y="63"/><use xlink:href="#embassy" width="24" height="24" x="3" y="93"/><use xlink:href="#emergency-telephone" width="24" height="24" x="33" y="93"/><use xlink:href="#entrance" width="24" height="24" x="63" y="93"/><use xlink:href="#farm" width="24" height="24" x="93" y="93"/><use xlink:href="#fast-food" width="24" height="24" x="123" y="93"/><use xlink:href="#ferry" width="24" height="24" x="153" y="93"/><use xlink:href="#fire-station" width="24" height="24" x="183" y="93"/><use xlink:href="#fuel" width="24" height="24" x="213" y="93"/><use xlink:href="#garden" width="24" height="24" x="243" y="93"/><use xlink:href="#gift" width="24" height="24" x="273" y="93"/><use xlink:href="#golf" width="24" height="24" x="303" y="93"/><use xlink:href="#grocery" width="24" height="24" x="3" y="123"/><use xlink:href="#hairdresser" width="24" height="24" x="33" y="123"/><use xlink:href="#harbor" width="24" height="24" x="63" y="123"/><use xlink:href="#heart" width="24" height="24" x="93" y="123"/><use xlink:href="#heliport" width="24" height="24" x="123" y="123"/><use xlink:href="#hospital" width="24" height="24" x="153" y="123"/><use xlink:href="#ice-cream" width="24" height="24" x="183" y="123"/><use xlink:href="#industrial" width="24" height="24" x="213" y="123"/><use xlink:href="#land-use" width="24" height="24" x="243" y="123"/><use xlink:href="#laundry" width="24" height="24" x="273" y="123"/><use xlink:href="#library" width="24" height="24" x="303" y="123"/><use xlink:href="#lighthouse" width="24" height="24" x="3" y="153"/><use xlink:href="#lodging" width="24" height="24" x="33" y="153"/><use xlink:href="#logging" width="24" height="24" x="63" y="153"/><use xlink:href="#london-underground" width="24" height="24" x="93" y="153"/><use xlink:href="#marker" width="24" height="24" x="123" y="153"/><use xlink:href="#marker-stroked" width="24" height="24" x="153" y="153"/><use xlink:href="#minefield" width="24" height="24" x="183" y="153"/><use xlink:href="#mobilephone" width="24" height="24" x="213" y="153"/><use xlink:href="#monument" width="24" height="24" x="243" y="153"/><use xlink:href="#museum" width="24" height="24" x="273" y="153"/><use xlink:href="#music" width="24" height="24" x="303" y="153"/><use xlink:href="#oil-well" width="24" height="24" x="3" y="183"/><use xlink:href="#park" width="24" height="24" x="33" y="183"/><use xlink:href="#park2" width="24" height="24" x="63" y="183"/><use xlink:href="#parking" width="24" height="24" x="93" y="183"/><use xlink:href="#parking-garage" width="24" height="24" x="123" y="183"/><use xlink:href="#pharmacy" width="24" height="24" x="153" y="183"/><use xlink:href="#pitch" width="24" height="24" x="183" y="183"/><use xlink:href="#place-of-worship" width="24" height="24" x="213" y="183"/><use xlink:href="#playground" width="24" height="24" x="243" y="183"/><use xlink:href="#police" width="24" height="24" x="273" y="183"/><use xlink:href="#polling-place" width="24" height="24" x="303" y="183"/><use xlink:href="#post" width="24" height="24" x="3" y="213"/><use xlink:href="#prison" width="24" height="24" x="33" y="213"/><use xlink:href="#rail" width="24" height="24" x="63" y="213"/><use xlink:href="#rail-above" width="24" height="24" x="93" y="213"/><use xlink:href="#rail-light" width="24" height="24" x="123" y="213"/><use xlink:href="#rail-metro" width="24" height="24" x="153" y="213"/><use xlink:href="#rail-underground" width="24" height="24" x="183" y="213"/><use xlink:href="#religious-christian" width="24" height="24" x="213" y="213"/><use xlink:href="#religious-jewish" width="24" height="24" x="243" y="213"/><use xlink:href="#religious-muslim" width="24" height="24" x="273" y="213"/><use xlink:href="#restaurant" width="24" height="24" x="303" y="213"/><use xlink:href="#roadblock" width="24" height="24" x="3" y="243"/><use xlink:href="#rocket" width="24" height="24" x="33" y="243"/><use xlink:href="#school" width="24" height="24" x="63" y="243"/><use xlink:href="#scooter" width="24" height="24" x="93" y="243"/><use xlink:href="#shop" width="24" height="24" x="123" y="243"/><use xlink:href="#skiing" width="24" height="24" x="153" y="243"/><use xlink:href="#slaughterhouse" width="24" height="24" x="183" y="243"/><use xlink:href="#soccer" width="24" height="24" x="213" y="243"/><use xlink:href="#square" width="24" height="24" x="243" y="243"/><use xlink:href="#square-stroked" width="24" height="24" x="273" y="243"/><use xlink:href="#star" width="24" height="24" x="303" y="243"/><use xlink:href="#star-stroked" width="24" height="24" x="3" y="273"/><use xlink:href="#suitcase" width="24" height="24" x="33" y="273"/><use xlink:href="#swimming" width="24" height="24" x="63" y="273"/><use xlink:href="#telephone" width="24" height="24" x="93" y="273"/><use xlink:href="#tennis" width="24" height="24" x="123" y="273"/><use xlink:href="#theatre" width="24" height="24" x="153" y="273"/><use xlink:href="#toilets" width="24" height="24" x="183" y="273"/><use xlink:href="#town" width="24" height="24" x="213" y="273"/><use xlink:href="#town-hall" width="24" height="24" x="243" y="273"/><use xlink:href="#triangle" width="24" height="24" x="273" y="273"/><use xlink:href="#triangle-stroked" width="24" height="24" x="303" y="273"/><use xlink:href="#village" width="24" height="24" x="3" y="303"/><use xlink:href="#warehouse" width="24" height="24" x="33" y="303"/><use xlink:href="#waste-basket" width="24" height="24" x="63" y="303"/><use xlink:href="#water" width="24" height="24" x="93" y="303"/><use xlink:href="#wetland" width="24" height="24" x="123" y="303"/><use xlink:href="#zoo" width="24" height="24" x="153" y="303"/></g></svg>