<svg xmlns="http://www.w3.org/2000/svg" xmlns:xlink="http://www.w3.org/1999/xlink" width="330" height="330"><defs><symbol id="airfield" viewBox="0 0 12 12"><path d="M4.25 1.5c-.139 0-.25.112-.25.25 0 .139.112.25.25.25h2L6 3v1L2 5v1h4v2l-1 .5V9h3v-.5L7 8V6h4V5L7 4V3l-.25-1h2C8.89 2 9 1.888 9 1.75c0-.139-.112-.25-.25-.25z"/></symbol><symbol id="airport" viewBox="0 0 12 12"><path d="M10 6.43V7l-3-.5v2l1 1.056V10H5v-.444L6 8.5v-2L3 7v-.57L6 5V3c0-.444.056-1 .5-1s.5.556.5 1v2z"/></symbol><symbol id="alcohol-shop" viewBox="0 0 12 12"><g><path d="M4 1v2L2 5v5.406l.594.594h4.03L7 10.5V5L5 3V1H4zm4 4v2l1 1v2l-1 1h3l-1-1V8l1-1V5H8z" overflow="visible"/></g></symbol><symbol id="america-football" viewBox="0 0 12 12"><g><path d="M6.5 3C3.25 3 2 6 2 6s1.25 3 4.5 3S11 6 11 6 9.75 3 6.5 3zm-1 2.5H9c.139 0 .25.112.25.25 0 .139-.112.25-.25.25H4.25C4.11 6 4 5.888 4 5.75c0-.139.112-.25.25-.25H5z" overflow="visible"/></g></symbol><symbol id="art-gallery" viewBox="0 0 12 12"><g><path d="M6 2C3.5 2 2 3.5 2 5c0 1 .5 2 2 2 1 0 1 .25 1 1 0 1.5 1.5 2 2.5 2C10 10 11 7.75 11 6c0-3.5-2.515-4-5-4zm-.625 1C5.72 3 6 3.28 6 3.625s-.28.625-.625.625-.625-.28-.625-.625S5.03 3 5.375 3zm2 0C7.72 3 8 3.28 8 3.625s-.28.625-.625.625-.625-.28-.625-.625S7.03 3 7.375 3zm-3.75.75c.345 0 .625.28.625.625S3.97 5 3.625 5 3 4.72 3 4.375s.28-.625.625-.625zm5.75.25c.345 0 .625.28.625.625s-.28.625-.625.625-.625-.28-.625-.625S9.03 4 9.375 4zM7 6.5c.552 0 1 .448 1 1s-.448 1-1 1-1-.448-1-1 .448-1 1-1z" overflow="visible"/></g></symbol><symbol id="bakery" viewBox="0 0 12 12"><g><path d="M6 3.5L5 4l1 4h1l1-4-1-.5zm-2 1l-.5.5L2 7.5V8l.5.5H3L4 8h1zm5 0L8 8h1l1 .5h.5L11 8V7L9.5 5z" overflow="visible"/></g></symbol><symbol id="bank" viewBox="0 0 12 12"><g><g><path d="M2.5 3c-.277 0-.5.223-.5.5v5c0 .277.223.5.5.5h8c.277 0 .5-.223.5-.5v-5c0-.277-.223-.5-.5-.5zm0 1h8v1h-8zm0 3H4v1H2.5zm4.5.5h3V8H7z" overflow="visible"/></g></g></symbol><symbol id="bar" viewBox="0 0 12 12"><g><path d="M2.5 2c-.28 0-.5 0-.5.14 0 .142.193.31.28.423L6 7v2.5c-1 .5-2.5 1-2.5 1.5h6c0-.5-1.5-1-2.5-1.5V7l3.72-4.437c.087-.114.28-.28.28-.422C11 2 10.78 2 10.5 2z" overflow="visible"/></g></symbol><symbol id="baseball" viewBox="0 0 12 12"><g><path d="M2 1.5V3c1.5 2 4.587 3.587 6.5 5.5l1 1v1h1l.5-.5V9h-1L9 8C7.216 6.216 5.5 3 3.5 1.5zM4 7c-.552 0-1 .448-1 1s.448 1 1 1 1-.448 1-1-.448-1-1-1z" overflow="visible"/></g></symbol><symbol id="basketball" viewBox="0 0 12 12"><g><path d="M4 1L2 3v4.5c0 .25.25.5.5.5H4l1 1 1 1h1l1-1 1-1h1.5c.25 0 .5-.25.5-.5V3L9 1H4zm0 2h5v3H4V3zm.688.688v1.624h3.625V3.688H4.687zM5 7h1v1h1V7h1v1L7 9H6L5 8V7z" overflow="visible"/></g></symbol><symbol id="beer" viewBox="0 0 12 12"><g><path d="M3 1l1 8.5c.036.286.214.5.5.5h4c.286 0 .45-.216.5-.5L10 1zm1.5 1h4l-.25 2h-3.5z" overflow="visible"/></g></symbol><symbol id="bicycle" viewBox="0 0 12 12"><g><path d="M7 2v1h1v1H6V3H5v1l-.5.5L4 5H3L2 7l1 2h2l1-2 1.5-2h1L7 7l1 2h2l1-2-1-2h-.5L9 4V3L8 2H7zM5 5h1v1H5v2H3V6h2zm3 1h2v2H8V7z" overflow="visible"/></g></symbol><symbol id="building" viewBox="0 0 12 12"><path d="M7 2H6L2 5.308V6h1v4h7V6h1v-.692z" overflow="visible"/></symbol><symbol id="bus" viewBox="0 0 12 12"><g><path d="M5 1v1H3v7h1v1h1V9h3v1h1V9h1V2H8V1zM4 3h5v3H4zm.5 4c.277 0 .5.223.5.5s-.223.5-.5.5-.5-.223-.5-.5.223-.5.5-.5zm4 0c.277 0 .5.223.5.5s-.223.5-.5.5-.5-.223-.5-.5.223-.5.5-.5z" overflow="visible"/></g></symbol><symbol id="cafe" viewBox="0 0 12 12"><g><path d="M3.5 2c-.277 0-.5.223-.5.5V7c0 .277.223.5.5.5h5c.277 0 .5-.223.5-.5v-.5h.25c.25 0 .25-.25.25-.25V6h.5c.5 0 1-.5 1-1V3.5c0-.25-.25-.5-.5-.5H9v-.5c0-.277-.223-.5-.5-.5zM9 3.5h1.25c.25 0 .25.25.25.25V5c0 .25-.25.5-.5.5H9zM2 8l2 1h4l2-1z" overflow="visible"/></g></symbol><symbol id="camera" viewBox="-402.5 403.5 12 12"><g><path d="M-396.5 409.985l.5.515 1-.015.5-.5v-.97l-.5-.5-1-.015-.5.515"/><path d="M-393.5 406.5v-1h-3v1h-1.5v-1h-1.5v1h-1v6h9v-6zm0 4l-1 1h-2l-1-1v-2l1-1h2l1 1z"/></g></symbol><symbol id="campsite" viewBox="0 0 12 12"><g><g font-family="Sans"><path d="M6.53 2c-.25 0-.362.12-.436.25L3.234 8H2.5c-.293 0-.5.223-.5.5s.207.5.5.5H10.47c.292 0 .53-.223.53-.5s-.238-.5-.53-.5h-.642l-2.86-5.75C6.895 2.12 6.782 2 6.532 2zm0 2.5L8.03 8h-3z" style="text-indent:0;text-align:start;line-height:normal;text-transform:none;block-progression:tb;-inkscape-font-specification:Sans" overflow="visible"/></g></g></symbol><symbol id="car" viewBox="-402.5 403.5 12 12"><path d="M-398.5 405.5l-1 3-1 1v3h1v1h1v-1h5v1h1v-1h1v-3l-1-1-1-3zm1 1h3l.667 2h-4.334zm-1.5 4c.276 0 .5.224.5.5s-.224.5-.5.5-.5-.224-.5-.5.224-.5.5-.5zm6 0c.276 0 .5.224.5.5s-.224.5-.5.5-.5-.224-.5-.5.224-.5.5-.5z" overflow="visible"/></symbol><symbol id="cemetery" viewBox="0 0 12 12"><g><path d="M6.5 2C4.635 2 4 3.286 4 4.786V8.5c-.5 0-1 .5-1 1v.5h7v-.5c0-.5-.5-1-1-1V5c0-1.714-.635-3-2.5-3z" overflow="visible"/></g></symbol><symbol id="chemist" viewBox="0 0 12 12"><path d="M4 1v1h1v2l-3 6h9L8 4V2h1V1H4zm2 1h1v2l1.5 3h-4L6 4V2z" fill-rule="evenodd"/></symbol><symbol id="cinema" viewBox="0 0 12 12"><g><path d="M9.5 1.5l-7 2L3 5l7-2-.5-1.5zM3 5v4.5c0 .308.192.5.5.5h6c.308 0 .5-.192.5-.5V5H3zm1 1h5v1H4V6z" overflow="visible"/></g></symbol><symbol id="circle" viewBox="0 0 12 12"><g><path d="M2 5.5C2 7.985 4.015 10 6.5 10S11 7.985 11 5.5 8.985 1 6.5 1 2 3.015 2 5.5z" overflow="visible"/></g></symbol><symbol id="circle-stroked" viewBox="0 0 12 12"><g><path d="M6.5 1C8.985 1 11 3.015 11 5.5S8.985 10 6.5 10 2 7.985 2 5.5 4.015 1 6.5 1zm0 1C4.567 2 3 3.567 3 5.5S4.567 9 6.5 9 10 7.433 10 5.5 8.433 2 6.5 2z" overflow="visible"/></g></symbol><symbol id="city" viewBox="0 0 12 12"><g><path d="M3 1v1H2v8h4V2H5V1H3zm5 1v2H7v7h4V4h-1V2h-.5v2h-1V2H8zM3 3h2v.5H3V3zm0 2h2v.5H3V5zm5 0h2v.5H8V5zM3 7h2v.5H3V7zm5 0h2v.5H8V7zm0 2h2v.5H8V9z" overflow="visible"/></g></symbol><symbol id="clothing-store" viewBox="0 0 12 12"><g><path d="M4 1L3 2 2 4v1h2v5h5V5h2V4l-1-2-1-1H8v.75C8 2.25 7.5 3 6.5 3S5 2.25 5 1.75V1z"/></g></symbol><symbol id="college" viewBox="0 0 12 12"><g><path d="M6.5 2L2 4.5 6.5 7 9 5.5v1.25L6.5 8 4 6.75V8l2.5 1.5L9 8c0 .5 1 .5 1 .5V8s-.5-.03-.5-.5v-2l1.5-1z" overflow="visible"/></g></symbol><symbol id="commercial" viewBox="0 0 12 12"><g><path d="M3.5 1l-.5.5V11h3V9h1v2h3V1.5L9.5 1zM4 3h2v1H4zm3 0h2v1H7zM4 5h2v1H4zm3 0h2v1H7zM4 7h2v1H4zm3 0h2v1H7z" overflow="visible"/></g></symbol><symbol id="cricket" viewBox="0 0 12 12"><g><path d="M4 1.25S3.5 1.5 3 2s-.75 1-.75 1l5 5H8.5l2 2h.5v-.5l-2-2V6.25l-5-5zM3 6.5c-.552 0-1 .448-1 1s.448 1 1 1 1-.448 1-1-.448-1-1-1z" overflow="visible"/></g></symbol><symbol id="cross" viewBox="0 0 12 12"><g><g font-family="Sans"><path d="M2.5 1c-.25 0-.5.25-.5.5 0 .124.04.244.14.344L5.798 5.5 2.14 9.156c-.1.1-.14.22-.14.344 0 .25.25.5.5.5.125 0 .25-.03.36-.14L6.5 6.22l3.64 3.64c.11.11.235.14.36.14.25 0 .5-.25.5-.5 0-.124-.04-.244-.14-.344L7.202 5.5l3.656-3.656c.1-.1.14-.22.14-.344 0-.25-.25-.5-.5-.5-.125 0-.25.03-.36.14L6.5 4.78 2.86 1.14C2.75 1.03 2.624 1 2.5 1z" style="text-indent:0;text-align:start;line-height:normal;text-transform:none;block-progression:tb;-inkscape-font-specification:Sans" overflow="visible"/></g></g></symbol><symbol id="dam" viewBox="0 0 12 12"><g><path d="M2 1v9h4L3 1zm4.5 5.5l-.594.188.282.906L6.5 7.5 8 8l1.5-.5L11 8V6.97L9.5 6.5 8 6.97zm0 2l.375 1.125L8 10l1.5-.5 1.5.5V8.97L9.5 8.5 8 8.97z" overflow="visible"/></g></symbol><symbol id="danger" viewBox="0 0 12 12"><g><path d="M5.5 1L4 2.5v2l1 1V6l1.5 1L8 6v-.5l1-1v-2L7.5 1zM5 3h1v.5H5zm2 0h1v.5H7zM2 6v1l.56.28L5 8.5 2 10v1h.5L8 8.5 11 7V6h-.5l-3 1.5L7 8H6l-.5-.5-3-1.5zm7 3l-1.5.5 3 1.5h.5v-1z" overflow="visible"/></g></symbol><symbol id="disability" viewBox="0 0 12 12"><g><path d="M5.5 1C4.672 1 4 1.672 4 2.5S4.672 4 5.5 4 7 3.328 7 2.5 6.328 1 5.5 1zM5 4.5V8h3.25L10 10h1v-.5L9 7H7.344L6.5 4.5H5zM4 5c-1.166.412-2 1.694-2 3 0 1.657 1.343 3 3 3 1.368 0 2.514-.77 2.875-2h-1.03c-.325.642-.903 1-1.72 1C3.95 10 3 9.05 3 7.875c0-.76.402-1.5 1-1.875V5z" overflow="visible"/></g></symbol><symbol id="dog-park" viewBox="0 0 12 12"><path d="M4 3L3 4v3l-1 3h1l.725-1.45L4 8v2h1V8h1.5L6 10h1l.5-1.5H8V10h1V7L6 5H4V4l1-1zM9 6h1l1-1V4h-1L9 3V2H8l-.5 1.5L7 5z"/></symbol><symbol id="embassy" viewBox="0 0 12 12"><g><path d="M5.5 2L3 3v8h1V6l1.5-.5L8 7l2-1V2.5l-2 1z" overflow="visible"/></g></symbol><symbol id="emergency-telephone" viewBox="0 0 12 12"><path d="M4 1.5L1.5 4H4V1.5zm3.5.5L2 7.5v2l1 1h1l1-1v-1l-1-1L7.5 4l1 1h1l1-1V3l-1-1h-2z" overflow="visible"/></symbol><symbol id="entrance" viewBox="0 0 12 12"><path d="M3 1v3h1V2h5v7H4V7H3v3h7V1H3z"/><path style="text-indent:0;text-align:start;line-height:normal;text-transform:none;block-progression:tb;-inkscape-font-specification:Sans" d="M5 3v2H1v1h4v2h1V7h1V6h1V5H7V4H6V3H5z" overflow="visible" font-family="Sans"/></symbol><symbol id="farm" viewBox="0 0 12 12"><g><path d="M10 2L9 3v6h2V3zM3.5 4l-2 2H2v3h3V7h1v2h2V6h.5l-2-2zm2 1l1 1h-2z" overflow="visible"/></g></symbol><symbol id="fast-food" viewBox="0 0 12 12"><g><path d="M5.5 3c-1.42 0-3.15.872-3.053 2.053V6.25H10.5V5.053C10.5 3.868 8.92 3 7.5 3zM2 7v1h9V7zm.5 1.75c0 .474.526 1.25 1 1.25h6c.474 0 1-.776 1-1.25z" overflow="visible"/></g></symbol><symbol id="ferry" viewBox="0 0 12 12"><g><path d="M3.5 1c-.277 0-.5.223-.5.5V5l-1 .5 1 2v1L5 9l1.5-.5L8 9l2-.5v-1l1-2-1-.47V1.5c0-.277-.223-.5-.5-.5h-5zM4 2h5v2.562L6.5 3 4 4.5zm-.5 7.5L2 9.967v1.03l.156-.06L3.5 10.5 5 11l1.5-.5L8 11l1.5-.5 1.5.5V9.97L9.5 9.5 8 9.97 6.5 9.5 5 9.97z" overflow="visible"/></g></symbol><symbol id="fire-station" viewBox="0 0 12 12"><g><path d="M6.5 1L5 4 3.5 2.5C3.17 3.083 2 4.5 2 6c0 2.21 2.29 4 4.5 4S11 8.21 11 6c0-1.5-1.17-2.917-1.5-3.5L8 4zm0 4.5S8 6.842 8 8c0 .5-.5 1-1.5 1S5 8.5 5 8c0-1.118 1.5-2.5 1.5-2.5z" overflow="visible"/></g></symbol><symbol id="fuel" viewBox="0 0 12 12"><g><path d="M4.5 1c-.277 0-.5.223-.5.5v8c0 .25.25.5.5.5h4c.25 0 .5-.25.5-.5V9h1.25c.5 0 .75-.25.75-.75V5.5c0-.5-1-1-1-1.5V3L9 2v-.5c0-.277-.223-.5-.5-.5h-4zM5 2h3v2H5V2zm4 1.5h.5v.75c0 .5 1 1 1 1.5v2.5c0 .25-.25.25-.25.25H9.5V7H9V3.5z" overflow="visible"/></g></symbol><symbol id="garden" viewBox="0 0 12 12"><g><g><path d="M4 1v2c0 .867.935 1.754 2 1.97V9c-.5-1-1.5-2-3-1 0 0 1 2 3.5 2S10 8 10 8C8.5 7 7.5 8 7 9V4.97C8.065 4.753 9 3.866 9 3V1L7.437 2.25 6.5 1l-.938 1.25L4 1z" overflow="visible"/></g></g></symbol><symbol id="gift" viewBox="-402.5 403.5 12 12"><g><path d="M-399 408.498c-.276 0-.5.224-.5.5v1.496l2.5.006v-1.996l-2-.006zM-394 408.498c.276 0 .5.224.5.5v1.496l-2.5.006v-1.996l2-.006zM-399 413.5c-.276 0-.5-.224-.5-.5v-1.506l2.5.006v2.006l-2-.006zM-394 413.5c.276 0 .5-.224.5-.5v-1.506l-2.5.006v2.006l2-.006zM-394.97 405.502c-.733 0-1.26.505-1.53 1-.272-.495-.798-1.002-1.53-1.002-.46 0-.97.405-.97.986 0 .636.362 1.016.97 1.016l1.828.002h1.233c.607 0 .97-.38.97-1.016 0-.58-.51-.986-.97-.986zm-3.06 1.5c-.245 0-.47-.062-.47-.516 0-.324.3-.486.47-.486.66 0 1.034.613 1.18 1l-1.18.002zm3.06.002h-1.18c.147-.388.52-1.002 1.18-1.002.17 0 .47.162.47.486 0 .453-.225.516-.47.516z"/></g></symbol><symbol id="golf" viewBox="0 0 12 12"><g><path d="M5 1c-.195 0-.5.214-.5.5v7.75c-1.143.035-1.5.893-1.5 1.464 0 .286.286.286.286.286h6.428S10 11 10 10.714c0-1.428-.643-2.57-1.5-2.57-.898 0-1.182 1.588-2.07 1.713-.392.055-1.054-.197-1.43-.393V4.5L9 3z" overflow="visible"/></g></symbol><symbol id="grocery" viewBox="0 0 12 12"><g><path d="M10.5 2c-.292 0-.55.082-.734.266-.184.184-.266.442-.266.734H2l1 4h6.5v1H3.367c-.5 0-.5.5 0 .5H9.5c.25 0 .5-.25.5-.5V3s.043-.324.11-.39c.065-.067.182-.11.39-.11h.5V2h-.5zM8.75 8.5c-.414 0-.75.336-.75.75s.336.75.75.75.75-.336.75-.75-.336-.75-.75-.75zm-4.5 0c-.414 0-.75.336-.75.75s.336.75.75.75.75-.336.75-.75-.336-.75-.75-.75z" overflow="visible"/></g></symbol><symbol id="hairdresser" viewBox="0 0 12 12"><g><path d="M3 2c-.552 0-1 .448-1 1s.448 1 1 1c.178 0 .324-.075.47-.156l.53.468v2.282l-.563.53C3.303 7.057 3.163 7 3 7c-.552 0-1 .448-1 1s.448 1 1 1 1-.448 1-1c0-.08-.044-.143-.063-.22L11 2H8.5L5.437 4.437l-1.5-1.218C3.958 3.142 4 3.08 4 3c0-.552-.448-1-1-1zm4.438 4.094l-1.25 1.03L8.5 9H11z" overflow="visible"/></g></symbol><symbol id="harbor" viewBox="0 0 12 12"><g><path d="M8 1L7 2v1.938L3.594 7.344C3.248 6.89 3 6.5 3 6V5l1 .5V3L2 4.5V10h5.5L9 8H6.5L7 9H6c-.5 0-.89-.248-1.344-.594L8.063 5H10l1-1V2l-1-1zm.5 1h1l.5.5v1l-.5.5-1 .015L8 3.5v-1z" overflow="visible"/></g></symbol><symbol id="heart" viewBox="0 0 12 12"><path d="M10 2l1 2v1l-1 2.644-3.5 3.386L3 7.644 2 5V4l1-2h2l1.5 2L8 2z"/></symbol><symbol id="heliport" viewBox="0 0 12 12"><g><path d="M6.625 9H10.5c.25 0 .5-.25.5-.5V7c0-.5-.24-.74-.5-1l-.5-.5c-.167-.167-.5-.5-1-.5H8V4h2.5c.277 0 .5-.223.5-.5s-.223-.5-.5-.5h-6c-.277 0-.5.223-.5.5s.223.5.5.5H7v1H3.86c-.174-.298-.49-.5-.86-.5-.552 0-1 .448-1 1s.448 1 1 1c.29 0 .536-.133.72-.328L5.5 8c.5.513.875 1 1.125 1zM3 5c.276 0 .5.224.5.5S3.276 6 3 6s-.5-.224-.5-.5.224-.5.5-.5z" overflow="visible"/></g></symbol><symbol id="hospital" viewBox="0 0 12 12"><path d="M2 5c0-.554.446-1 1-1h2V2c0-.554.446-1 1-1h1c.554 0 1 .446 1 1v2h2c.554 0 1 .446 1 1v1c0 .554-.446 1-1 1H8v2c0 .554-.446 1-1 1H6c-.554 0-1-.446-1-1V7H3c-.554 0-1-.446-1-1z" overflow="visible"/></symbol><symbol id="ice-cream" viewBox="-402.5 403.5 12 12"><g><path d="M-399.452 407.426c.005.024.016.046.02.07.03.114.067.228.116.333.006.012.014.022.02.035.057.115.123.227.2.33 0 0 .002 0 .003.003.084.11.18.21.283.302h2.62c.42-.366.69-.9.69-1.5 0-.738-.405-1.377-1-1.723-.136-.08-.282-.14-.434-.186-.022-.006-.045-.015-.068-.02-.16-.043-.325-.07-.5-.07-1.103 0-2 .896-2 2 .002.146.02.29.05.426zM-394.75 407c0 .554-.167 1.068-.45 1.5h1.01c.42-.366.69-.9.69-1.5 0-1.104-.896-2-2-2-.037 0-.07.013-.106.015.525.5.856 1.204.856 1.985z"/></g><path d="M-398.5 409.5c1 2.5 1.5 4.5 2 4.5s1-2 2-4.5h-4z"/></symbol><symbol id="industrial" viewBox="0 0 12 12"><g><path d="M9 1v4H8V3L5 5V3L2 5V9.43c0 .315.255.57.57.57h7.86c.315 0 .57-.255.57-.57V5.57c0-.317-.255-.572-.57-.572H10V1z" overflow="visible"/></g></symbol><symbol id="land-use" viewBox="0 0 12 12"><g><path d="M3 1L1 3h1v2h3V3h1L4 1zm6 0v1H7.688L7 2.75V5h3V1zM3 7H2v4h1v-1h1v1h1V7H4zm5.5-1l-2 2.5h1l-1 1.5H8v1h1v-1h1.5l-1-1.5h1z" overflow="visible"/></g></symbol><symbol id="laundry" viewBox="-402.5 403.5 12 12"><path d="M-396.5 404.5l-2 2h-1v7h7v-9h-1zm0 1h1v1h-1zm2 0h1v1h-1zm-2 2h1l2 2v1l-2 2h-1l-2-2v-1zm-1 2v1h1v1h1v-1h1v-1z"/></symbol><symbol id="library" viewBox="0 0 12 12"><g><path d="M2 2v6c1.5 1.5 3.75 1 3.75 2h.5V4.5C6.25 3 3.5 3 2 2zm9 0C9.5 3 6.75 3 6.75 4.5V10h.5c0-1 2.25-.5 3.75-2z" overflow="visible"/></g></symbol><symbol id="lighthouse" viewBox="0 0 12 12"><g><path d="M6 1L5 2v2H4v1l1 1v1l-1 4h5L8 7V6l1-1V4H8V2L7 1zm0 1h1v2H6z" overflow="visible"/></g></symbol><symbol id="lodging" viewBox="0 0 12 12"><g><path d="M3 2c-.552 0-1 .448-1 1s.448 1 1 1 1-.448 1-1-.448-1-1-1zm2 1c0 1-.5 2-2 2h-.75C2.124 5 2 5 2 5.25v.5c0 .25.194.25.25.25H11V4.5C11 4 11 3 8.5 3zM2.5 7c-.25 0-.5.25-.5.5v1c0 .25.25.5.5.5s.5-.25.5-.5V8h7v.5c0 .25.25.5.5.5s.5-.25.5-.5v-1c0-.25-.25-.5-.5-.5z" overflow="visible"/></g></symbol><symbol id="logging" viewBox="0 0 12 12"><g><path d="M9.5 1.5l-4 4L7 7l4-4V2l-.5-.5zm-6 3L2 6v.5h.5L3 6l.5.5L2 8v1.5L3.5 11H5l2.5-2.5z" overflow="visible"/></g></symbol><symbol id="london-underground" viewBox="0 0 12 12"><g><path d="M6.5 2C4.735 2 3.27 3.3 3.03 5H2v1h1.03c.24 1.7 1.705 3 3.47 3 1.765 0 3.23-1.3 3.47-3H11V5H9.97C9.73 3.3 8.264 2 6.5 2zm0 1.5c.932 0 1.716.637 1.938 1.5H4.562c.222-.863 1.006-1.5 1.938-1.5zM4.562 6h3.875c-.22.863-1.005 1.5-1.937 1.5-.932 0-1.716-.637-1.938-1.5z" overflow="visible"/></g></symbol><symbol id="marker" viewBox="0 0 12 12"><g><path d="M6.5 1C4.886 1 3 2 3 4.5 3 6.25 5.75 10 6.5 11c.75-1 3.5-4.75 3.5-6.5C10 2 8.114 1 6.5 1z" overflow="visible"/></g></symbol><symbol id="marker-stroked" viewBox="0 0 12 12"><g><path d="M6.5 1C4.886 1 3 2 3 4.5 3 6.25 5.75 10 6.5 11c.75-1 3.5-4.75 3.5-6.5C10 2 8.114 1 6.5 1zm0 1C7.756 2 9 3 9 4.5c0 1.36-1.917 4.222-2.5 5-.583-.778-2.5-3.64-2.5-5C4 3 5.244 2 6.5 2z" overflow="visible"/></g></symbol><symbol id="minefield" viewBox="0 0 12 12"><g><path d="M6.25 1L4.5 5l-3-2.5.813 4.094C2.587 7.487 2.9 8 3.5 8H5V7h2.5v1h1.406c.6 0 .892-.265 1.188-.906L11 2.5 7.5 5zM5.5 7.5v1.062c-1.145.12-2 .982-2 1.438v1l2.75.006L9 11v-1c0-.456-.855-1.317-2-1.438V7.5z" overflow="visible"/></g></symbol><symbol id="mobilephone" viewBox="0 0 12 12"><g transform="translate(0 -1040.4)"><rect width="5.023" height="8" x="4" y="-1050.362" ry="0" transform="scale(1 -1)" fill-opacity=".941"/><rect width="1" height="1" x="5" y="1041.362" ry="0" fill-opacity=".941"/></g></symbol><symbol id="monument" viewBox="0 0 12 12"><g><path d="M6.5 1S5 2.5 5 3v4h-.5c-.277 0-.464.225-.5.5V9h-.5c-.277 0-.5.223-.5.5v.5h7v-.5c0-.277-.223-.5-.5-.5H9V7.5c0-.277-.223-.5-.5-.5H8V3c0-.5-1.5-2-1.5-2z" overflow="visible"/></g></symbol><symbol id="museum" viewBox="0 0 12 12"><g><path d="M6.5 1L3 3h7zm-3 3c-.277 0-.5.223-.5.5V9l-1 1h9l-1-1V4.5c0-.277-.223-.5-.5-.5zm1 1h.75c.25 0 .5.5.5.5L6.5 7l.75-1.5c.134-.27.25-.5.5-.5h.75c.277 0 .5.223.5.5V8c0 .25-.25.5-.5.5S8 8.25 8 8V6l-.75 1.5c-.12.24-.25.5-.75.5s-.63-.26-.75-.5L5 6v2c0 .25-.25.5-.5.5S4 8.25 4 8V5.5c0-.277.223-.5.5-.5z" overflow="visible"/></g></symbol><symbol id="music" viewBox="0 0 12 12"><path d="M5 2v5.5h-.5C3.672 7.5 3 8.172 3 9s.672 1.5 1.5 1.5S6 9.828 6 9V5h3v2.5h-.5C7.672 7.5 7 8.172 7 9s.672 1.5 1.5 1.5S10 9.828 10 9V2H5z"/></symbol><symbol id="oil-well" viewBox="0 0 12 12"><g><path d="M5 1l-3 9h1.5L4 8.47 6.5 7 9 8.47 9.5 10H11L8 1zm.5 3h2L8 5.53 7.28 6H7v.188l-.5.312-.5-.312V6h-.28L5 5.53zm-.78 2.375L5 6.5l.5.25L5 7l-.594.313L4.5 7v-.5h.187zm3.56 0l.032.125H8.5V7l.094.313L8 7l-.5-.25.5-.25z" overflow="visible"/></g></symbol><symbol id="park" viewBox="0 0 12 12"><g><path d="M6.5 1l-3 3h1.72L3 6h2L3 8h3v2h1V8h3L8 6h2L7.78 4H9.5z" overflow="visible"/></g></symbol><symbol id="park2" viewBox="0 0 12 12"><g><path d="M5.844 1C5.28 1.047 5 1.75 5 2.5c-1-.5-1.5-.25-1.5.75s1 1.25 1 1.25S3 4.254 3 5.75C3 6.44 3.81 7 4.5 7v1H6v3h1V8h1.5V7c1 0 1.5-.598 1.5-1.25C10 4.254 8.5 4.5 8.5 4.5s1-.25 1-1.25S8.5 2 8 2.5C8 1.5 7.5 1 6.5 1c-.25 0-.47-.016-.656 0zM5.5 7h2L7 8H6z" overflow="visible"/></g></symbol><symbol id="parking" viewBox="0 0 12 12"><g><g style="text-indent:0;text-align:center;line-height:125%;text-transform:none;block-progression:tb;-inkscape-font-specification:Open Sans Bold" font-size="9.333" font-weight="bold" text-anchor="middle" overflow="visible" font-family="Open Sans"><path d="M6.316 5.806h.465c.436 0 .76-.085.977-.255.215-.172.323-.423.323-.75 0-.332-.09-.577-.273-.735-.18-.158-.462-.237-.848-.237h-.644v1.978m3.19-1.057c0 .716-.224 1.264-.674 1.644-.447.38-1.083.57-1.91.57h-.606v2.37H4.904V2.67h2.128c.808 0 1.422.175 1.84.525.423.346.634.864.635 1.554"/></g></g></symbol><symbol id="parking-garage" viewBox="0 0 12 12"><g><path style="text-indent:0;text-align:start;line-height:125%;text-transform:none;block-progression:tb;-inkscape-font-specification:Helvetica Neue Bold" d="M6.5 1L3 2v1l3.5-1L10 3V2L6.5 1zM4.906 3.656v6.688h1.407V7.97h.625c.826 0 1.46-.184 1.906-.564.45-.38.656-.94.656-1.656 0-.69-.203-1.216-.625-1.563-.42-.35-1.036-.53-1.844-.53H4.907zm1.407 1.156h.656c.385 0 .663.092.843.25.182.158.28.42.28.75s-.127.577-.343.75c-.216.17-.534.25-.97.25h-.468v-2z" font-size="25.21" font-weight="bold" letter-spacing="0" word-spacing="0" overflow="visible" font-family="Helvetica Neue"/></g></symbol><symbol id="pharmacy" viewBox="0 0 12 12"><path d="M6.5 1.5c-1.38 0-2.5.448-2.5 1V4c0 .552 1.12 1 2.5 1S9 4.552 9 4V2.5c0-.552-1.12-1-2.5-1zM4 5v5c0 .552 1.12 1 2.5 1S9 10.552 9 10V5c0 .552-1.12 1-2.5 1S4 5.552 4 5zm1 2s.5.25 1.5.25S8 7 8 7v2s-.5.25-1.5.25S5 9 5 9V7z" overflow="visible"/></symbol><symbol id="pitch" viewBox="0 0 12 12"><g><path d="M6 1c-.552 0-1 .448-1 1s.448 1 1 1 1-.448 1-1-.448-1-1-1zM3.406 2.22c-.218 0-.406.132-.406.405s.085.63.125.844l.28 1c.15.542.468.53.876.53h.907c.325.547.212 1.165.313 2H5c-.547 0-1.453.313-.906 1.406l.812 1.656c.197.393.395.436.594.438.355 0 .65-.357.5-.72l-.625-1.5C5.257 8 5.527 8 5.655 8H7s.457 1.203 1.22 2.188c.28.363.577.812.967.812.274 0 .75-.374.25-.97C8.505 8.918 8 7.548 8 7c0-.636-.182-1.242-.344-2h.813c.265.535.717 1.375.717 1.375.303.523.813.484.813 0 0-.067.006-.214-.063-.375l-.75-1.72c-.05-.117-.123-.28-.53-.28H4.374L3.97 2.625c-.083-.273-.345-.406-.564-.406z" overflow="visible"/></g></symbol><symbol id="place-of-worship" viewBox="0 0 12 12"><path d="M6.5 2L5 2.94V4L4 5v5h5V5L8 4v-.96zM2 6v4h1V6zm8 0v4h1V6z" overflow="visible"/></symbol><symbol id="playground" viewBox="0 0 12 12"><g><path d="M8 1c-.554 0-1 .446-1 1s.446 1 1 1 1-.446 1-1-.446-1-1-1zM5 2c-.554 0-1 .446-1 1s.446 1 1 1 1-.446 1-1-.446-1-1-1zm3 2l-.47 2.875-2.124.25L5 5H4l-.97 2.375L2 7.5V9c1.417-.157 2.833-.31 4.25-.47L5 11h3L6.75 8.47C8.167 8.31 9.583 8.156 11 8V6.5l-1.094.125L9 4z" overflow="visible"/></g></symbol><symbol id="police" viewBox="0 0 12 12"><g><path d="M5 2h3V1H5zm0 .75c0 .967.534 1.75 1.5 1.75S8 3.717 8 2.75V2.5H5zM4 5c-.5 0-1 1.5-1 2v3h1.594L8 5zm5 0l-3.406 5H10V7c0-.5-.5-2-1-2z" overflow="visible"/></g></symbol><symbol id="polling-place" viewBox="0 0 12 12"><g><path d="M2.5 2c-.277 0-.5.223-.5.5v7c0 .277.223.5.5.5h7c.277 0 .5-.223.5-.5V7H9v2H3V3h4V2H2.5z" overflow="visible"/><path style="text-indent:0;text-align:start;line-height:normal;text-transform:none;block-progression:tb;-inkscape-font-specification:Sans" d="M9.5 2l-3 4-1-1H4v1l2 2h1l4-5V2z" overflow="visible" font-family="Sans"/></g></symbol><symbol id="post" viewBox="0 0 12 12"><g><path d="M1.994 3l4.5 3 4.5-3zm0 1v4.5c0 .25.3.5.5.5h8c.2 0 .555-.256.5-.5V4l-4.5 3.5z" overflow="visible"/></g></symbol><symbol id="prison" viewBox="0 0 12 12"><g><path d="M3.5 1.5c-.277 0-.5.223-.5.5v7c0 .277.223.5.5.5S4 9.277 4 9V8h1v1c0 .277.223.5.5.5S6 9.246 6 9V8h1v1c0 .277.223.5.5.5S8 9.246 8 9V8h1v1c0 .277.223.5.5.5s.5-.223.5-.5V2c0-.277-.223-.5-.5-.5S9 1.723 9 2v1H8V2c0-.277-.223-.5-.5-.5S7 1.723 7 2v1H6V2c0-.277-.223-.5-.5-.5S5 1.747 5 2v1H4V2c0-.277-.223-.5-.5-.5zM4 4h1v3H4zm2 0h1v3H6zm2 0h1v3H8z" overflow="visible"/></g></symbol><symbol id="rail" viewBox="0 0 12 12"><path d="M4.75 1L3 2.5V8h7V2.5L8 1zM5 2h3v1H5zM4 4h5v1H4zm0 2h1v1H4zm4 0h1v1H8zM4 8.5V9H3v1h3V8.5zM9 8.5H7V10h3V9H9z"/></symbol><symbol id="rail-above" viewBox="0 0 12 12"><g><path d="M4.5 1L3 2v5.5c0 .25.25.5.5.5h6c.25 0 .5-.25.5-.5V2L8.5 1h-4zM5 2h3l1 .5V4H4V2.5L5 2zm-.5 4c.277 0 .5.223.5.5s-.223.5-.5.5-.5-.223-.5-.5.223-.5.5-.5zm4 0c.277 0 .5.223.5.5s-.223.5-.5.5-.5-.223-.5-.5.223-.5.5-.5zM6 9l-3 2h7L7 9H6z" overflow="visible"/></g></symbol><symbol id="rail-light" viewBox="0 0 12 12"><path d="M5.5 1L4 2 3 4v4h7V4L9 2 7.5 1h-2zm0 1H6v3H4l.5-1.5 1-1.5zM7 2h.5l1 1.5L9 5H7V2zM4 6h1v1H4V6zm4 0h1v1H8V6zM4 8.5V9H3v1h3V8.5zM9 8.5H7V10h3V9H9z"/></symbol><symbol id="rail-metro" viewBox="0 0 12 12"><path d="M5 1L4 2v6h5V2L8 1H5zm1 1h1l1 1v1H5V3l1-1zM5 6h1v1H5V6zm2 0h1v1H7V6zM4 8.5V9H3v1h3V8.5zM9 8.5H6.978L7 9v1h3V9H9z"/></symbol><symbol id="rail-underground" viewBox="0 0 12 12"><g><path d="M3 1l3 2h1l3-2zm1.5 3L3 5v5.5c0 .25.25.5.5.5h6c.25 0 .5-.25.5-.5V5L8.5 4zM5 5h3l1 .5V7H4V5.5zm-.5 4c.277 0 .5.223.5.5s-.223.5-.5.5-.5-.223-.5-.5.223-.5.5-.5zm4 0c.277 0 .5.223.5.5s-.223.5-.5.5-.5-.223-.5-.5.223-.5.5-.5z" overflow="visible"/></g></symbol><symbol id="religious-christian" viewBox="0 0 12 12"><g><path d="M6.25 1c-.462 0-.745.372-.75.833V4h-3v1.5h3V11H7V5.5h3V4H7V1.834C7 1.372 6.712 1 6.25 1z" overflow="visible"/></g></symbol><symbol id="religious-jewish" viewBox="0 0 12 12"><path d="M6.5 1L5 3H2l2 2.5L2 8h3l1.5 2L8 8h3L9 5.5 11 3H8z"/></symbol><symbol id="religious-muslim" viewBox="0 0 12 12"><g><path d="M6 2C3.79 2 2 3.79 2 6s1.79 4 4 4c.715 0 1.388-.203 1.97-.53-.153.02-.313.03-.47.03C5.567 9.5 4 7.933 4 6s1.567-3.5 3.5-3.5c.157 0 .317.01.47.03C7.31 2.158 6.753 2 6 2zm3 1.5L8 5H7l1 1.5L7.5 8 9 7l1.5 1-.5-1.5L11 5h-1z" overflow="visible"/></g></symbol><symbol id="restaurant" viewBox="0 0 12 12"><g><path d="M3.5 1H3v3c0 .5 1 .5 1 1v6h1V5c0-.5 1-.5 1-1V1h-.5v2h-.75V1h-.5v2H3.5zM10 1c-.5 0-1.434.118-1.75.75C8 2.25 8 3 8 4v2.5h1V11h1z" overflow="visible"/></g></symbol><symbol id="roadblock" viewBox="0 0 12 12"><g><path d="M6.5 1C4.015 1 2 3.015 2 5.5S4.015 10 6.5 10 11 7.985 11 5.5 8.985 1 6.5 1zM4 5h5v1H4V5z" overflow="visible"/></g></symbol><symbol id="rocket" viewBox="0 0 12 12"><path d="M11 2h-1c-2.09.244-6 3.2-6 6l1 1c2.553 0 5.51-3.904 6-6zM8 4h1v1H8zM3 5L2 7h1.5l1.25-2zm5 3.25L6 9.5V11l2-1z"/></symbol><symbol id="school" viewBox="0 0 12 12"><g><path d="M7 1.5c-.552 0-1 .448-1 1s.448 1 1 1 1-.448 1-1-.448-1-1-1zm-4 1c-.552 0-1 .448-1 1s.448 1 1 1 1-.448 1-1-.448-1-1-1zM7.5 4H7L5 5v1l2-1V7.563L6 11h1l1-3.5S8.25 9 9.25 9H11v-.75H9.5c-.534 0-.5-.8-.5-1.25 0-.75-.5-2-.5-2l1.5.938c.453.302.846-.233.406-.563L8.75 4.25C8.448 4.035 8.352 4 8 4zM2.75 5c-.25 0-.368.118-.5.25L1.187 6.313C1.05 6.45 1 6.573 1 6.75c0 .25.382.368.594.156L2.5 6H3v1L2 9.75c-.202.556.572.724.75.25l.505-1.3H6V8H4.5V6c0-.5-.5-1-1-1z" overflow="visible"/></g></symbol><symbol id="scooter" viewBox="0 0 12 12"><g><path d="M8 2v1h1v2L8 6H5V4H3L2 5v2h6l.5-.5H11v-1L10 2zm1 5L8 8v1l1 1h1l1-1V8l-1-1zm-6.5.5L2 8v1l1 1h1l1-1V8l-.5-.5z" overflow="visible"/></g></symbol><symbol id="shop" viewBox="0 0 12 12"><g><path d="M5.172 1.5c-.5 0-.926.506-1 1L4 4H3c-.25 0-.5.25-.5.5l-.5 5c0 .25.25.5.5.5h8c.25 0 .5-.25.5-.5l-.5-5c0-.25-.25-.5-.5-.5H9l-.172-1.5c-.057-.497-.5-1-1-1zm0 .5h2.656c.25 0 .468.22.5.5L8.5 4h-4l.172-1.5c.028-.248.25-.5.5-.5z" overflow="visible"/></g></symbol><symbol id="skiing" viewBox="0 0 12 12"><g><path d="M6 2c-.5 0-1 1-1 1.5v2l-1.625.78L2 5.5V6l7 4v-.5L4.312 6.812 6 6.188V4h1l1 1.5V7l1 1h1V7H9V5.5L8.5 3 7 2H6zm4.5 1.5c-.552 0-1 .448-1 1s.448 1 1 1c.187 0 .35-.067.5-.156V3.656c-.15-.09-.313-.156-.5-.156z" overflow="visible"/></g></symbol><symbol id="slaughterhouse" viewBox="0 0 12 12"><g><path d="M3 2l.5 1H2v1h1l1 1v4h.5L5 7l1 2h.5V7c.947 0 1.526-.5 2-.5v1c0 .403.03 1.5.03 1.5H9l1-2 .5 2h.5V4l-1-1H5l-.375-1z" overflow="visible"/></g></symbol><symbol id="soccer" viewBox="0 0 12 12"><g><path d="M6.5 1C4.02 1 2 3.02 2 5.5S4.02 10 6.5 10 11 7.98 11 5.5 8.98 1 6.5 1zm0 .794c1.41 0 2.633.78 3.26 1.936-.592.392-1.135.597-1.142.976-.005.265 0 .34 0 .53 0 .264.138.605.53.793l.926.446c-.107.392-.277.747-.497 1.075l-.695-.462c-.397-.265-.794-.44-1.058-.265l-.795.53c-.368.245-.33.53-.265.794l.248 1.026c-.168.023-.339.033-.513.033-.367 0-.725-.05-1.06-.15v-.91c0-.53-.264-.793-.528-1.058-.265-.265-.53-.53-1.06-.53h-.91c-.097-.334-.148-.69-.148-1.058 0-2.053 1.653-3.706 3.706-3.706zM4.912 3.647l-.265 1.06c-.075.3-.275.61 0 .793l.794.53c.53.352.764.147 1.06 0l.53-.265c.394-.198.53-.265.53-.794V3.913c0-.265.003-.423-.53-.53l-1.324-.264c-.555-.11-.66-.013-.794.53z" overflow="visible"/></g></symbol><symbol id="square" viewBox="0 0 12 12"><g><path d="M2.563 1h7.874c.312 0 .563.25.563.563v7.875c0 .31-.25.562-.563.562H2.564C2.25 10 2 9.75 2 9.437V1.564C2 1.25 2.25 1 2.563 1z" overflow="visible"/></g></symbol><symbol id="square-stroked" viewBox="0 0 12 12"><g><path d="M2.5 1c-.277 0-.5.223-.5.5v8c0 .277.223.5.5.5h8c.277 0 .5-.223.5-.5v-8c0-.277-.223-.5-.5-.5zM3 2h7v7H3z" overflow="visible"/></g></symbol><symbol id="star" viewBox="0 0 12 12"><g><path d="M6.5 1L5.25 4H2l2.5 2.5L3.25 10 6.5 8l3.25 2L8.5 6.5 11 4H7.75z" overflow="visible"/></g></symbol><symbol id="star-stroked" viewBox="0 0 12 12"><g><path d="M6.5 1L5.25 4H2l2.5 2.5L3.25 10 6.5 8l3.25 2L8.5 6.5 11 4H7.75L6.5 1zm0 2l1 2H9L7.5 6.5 8 8 6.5 7 5 8l.5-1.5L4 5h1.5L6 4l.5-1z" overflow="visible"/></g></symbol><symbol id="suitcase" viewBox="-402.5 403.5 12 12"><path d="M-393.5 406.5V405l-.5-.5h-4l-.5.5v1.5h-1.5l-.5.5v5l.5.5h8l.5-.5v-5l-.5-.5zm-4-1h3v1h-3zm-1 2h1v4h-1m5 0h-1v-4h1z"/></symbol><symbol id="swimming" viewBox="0 0 12 12"><g><path d="M8.5 2l-.5.304-2.22 1.29c-.265.126-.362.513-.186.75l.61.828L4 7l1 .234 1.5-.468 1.5.468L9 7 6.78 4.22l2.236-1.392L9 2zm1 2.047c-.552 0-1 .448-1 1s.448 1 1 1 1-.448 1-1-.448-1-1-1zM3.5 8L2 8.47V9.5l.156-.047L3.5 9l1.5.5L6.5 9l1.5.5L9.5 9l1.5.5V8.47L9.5 8 8 8.47 6.5 8 5 8.47 3.5 8z" overflow="visible"/></g></symbol><symbol id="telephone" viewBox="0 0 12 12"><path d="M7.5 2L2 7.5v2l1 1h1l1-1v-1l-1-1L7.5 4l1 1h1l1-1V3l-1-1z" overflow="visible"/></symbol><symbol id="tennis" viewBox="0 0 12 12"><g><path d="M2 4c0 1.657 1.343 3 3 3h2.5l3 3h.5v-.5l-3-3V4c0-1.657-1.343-3-3-3S2 2.343 2 4zm5 .5V6H5.5zm-4.25 3c-.414 0-.75.336-.75.75s.336.75.75.75.75-.336.75-.75-.336-.75-.75-.75z" overflow="visible"/></g></symbol><symbol id="theatre" viewBox="0 0 12 12"><g><path d="M2.5 2c-.25 0-.5.25-.5.5v3C2 6.608 2.5 8 4.5 8c.18 0 .343-.01.5-.03V6.5H3s.25-1 1.5-1c.25 0 .348.037.5.094V4.5c0-.458.202-.81.453-1.062.25-.25.59-.438 1.047-.438H7v-.5c0-.25-.264-.5-.5-.5-.5 0-1 .5-2 .5-.867 0-1.5-.5-2-.5zm1 2c.276 0 .5.224.5.5s-.224.5-.5.5-.5-.224-.5-.5.224-.5.5-.5zm3 0c-.236 0-.5.25-.5.5v3c0 1.108.5 2.5 2.5 2.5S11 8.608 11 7.5v-3c0-.25-.264-.5-.5-.5-.5 0-1.255.5-2 .5-.745 0-1.5-.5-2-.5zm1 2c.276 0 .5.224.5.5s-.224.5-.5.5-.5-.224-.5-.5.224-.5.5-.5zm2 0c.276 0 .5.224.5.5s-.224.5-.5.5-.5-.224-.5-.5.224-.5.5-.5zM7 8h3s-.25 1-1.5 1S7 8 7 8z" overflow="visible"/></g></symbol><symbol id="toilets" viewBox="0 0 12 12"><g><path d="M4 1c-.69 0-1.25.56-1.25 1.25S3.31 3.5 4 3.5s1.25-.56 1.25-1.25S4.69 1 4 1zm5 0c-.69 0-1.25.56-1.25 1.25S8.31 3.5 9 3.5s1.25-.56 1.25-1.25S9.69 1 9 1zM3 4v1.5L1.5 8H3v2h2V8h1.5L5 5.5V4H3zm4 0l1 3.5V10h2V7.5L11 4H7z" overflow="visible"/></g></symbol><symbol id="town" viewBox="0 0 12 12"><g><path d="M4 2.5L2 4v5h1.5V8h1v1H6V4zm-1 2h2V5H3zM7 5v5h1.5V9h1v1H11V5L9 3.5zm1 .5h2V6H8zm-5 1h2V7H3zm5 1h2V8H8z" overflow="visible"/></g></symbol><symbol id="town-hall" viewBox="0 0 12 12"><g><path d="M6.5 1L3 3h7zm-3 3c-.277 0-.5.223-.5.5V9l-1 1h9l-1-1V4.5c0-.277-.223-.5-.5-.5zM4 5.5l.5-.5.5.5V8H4zm2 0l.5-.5.5.5V8H6zm2 0l.5-.5.5.5V8H8z" overflow="visible"/></g></symbol><symbol id="triangle" viewBox="0 0 12 12"><g><g font-family="Sans"><path d="M6.5 2c-.25 0-.363.12-.438.25l-4 7C2.018 9.327 2 9.414 2 9.5c0 .375.25.5.5.5h8c.25 0 .5-.125.5-.5 0-.086-.018-.173-.063-.25l-4-7C6.864 2.12 6.75 2 6.5 2z" style="text-indent:0;text-align:start;line-height:normal;text-transform:none;block-progression:tb;-inkscape-font-specification:Sans" overflow="visible"/></g></g></symbol><symbol id="triangle-stroked" viewBox="0 0 12 12"><g><g font-family="Sans"><path style="text-indent:0;text-align:start;line-height:normal;text-transform:none;block-progression:tb;-inkscape-font-specification:Sans" d="M6.5 2c-.25 0-.363.12-.438.25l-4 7C2.018 9.327 2 9.414 2 9.5c0 .375.25.5.5.5h8c.25 0 .5-.125.5-.5 0-.086-.018-.173-.063-.25l-4-7C6.864 2.12 6.75 2 6.5 2zm0 1.5l3 5.5h-6l3-5.5z" overflow="visible"/></g></g></symbol><symbol id="village" viewBox="0 0 12 12"><g><path d="M4.5 2.5L2 5h1v3h1V6.5h1V8h1V5h1L4.5 2.5zm4 2l-2 2V7H7v3h1V8.5h1V10h1V7h1L8.5 4.5z" overflow="visible"/></g></symbol><symbol id="warehouse" viewBox="0 0 12 12"><g><path d="M7 2H6L2 5.313V6h1v4h2v-.5h3v.5h2V6h1v-.687zM5 6.5h3V7H5zm0 1h3V8H5zm0 1h3V9H5z" overflow="visible"/></g></symbol><symbol id="waste-basket" viewBox="0 0 12 12"><g><path d="M4.5 1v2H3v1h7V3H8.5V1zM5 2h3v1H5.01zM3 4.5L4 11H9l1-6.5z" overflow="visible"/></g></symbol><symbol id="water" viewBox="0 0 12 12"><g><path d="M6.5 11C4.886 11 3 10 3 7.5 3 5.75 5.75 2 6.5 1 7.25 2 10 5.75 10 7.5 10 10 8.114 11 6.5 11z" overflow="visible"/></g></symbol><symbol id="wetland" viewBox="0 0 12 12"><g><path d="M9 2L7.5 3.5 6.5 6v1.5L8 8l.53-.188C8.67 7.09 8.947 6.27 9 6h2l-1-1H9L8 6l.5-2 1-1h1l-1-1H9zM4 5L3 6h2v2l1-.344V6L5 5H4zm-.5 3.5L2 8.97V10l1.5-.5L5 10l1.5-.5L8 10l1.5-.5 1.5.5V8.97L9.5 8.5 8 9l-1.5-.5L5 9l-1.5-.5z" overflow="visible"/></g></symbol><symbol id="zoo" viewBox="0 0 12 12"><path d="M8.5 1c-1 1.5-.892 3.003-2 4-1.058.953-3.5.626-3.5 2v.5c0 .5.5.976.5 1.5v.5c0 .75-.25.75-.5 1.5h.5l1-1.5V11H5V8h1v3h.5V8.5h1L8 11h.5L8 7V5.5L9 2h1V1z" overflow="visible"/></symbol></defs><g><use xlink:href="#airfield" width="24" height="24" x="3" y="3"/><use xlink:href="#airport" width="24" height="24" x="33" y="3"/><use xlink:href="#alcohol-shop" width="24" height="24" x="63" y="3"/><use xlink:href="#america-football" width="24" height="24" x="93" y="3"/><use xlink:href="#art-gallery" width="24" height="24" x="123" y="3"/><use xlink:href="#bakery" width="24" height="24" x="153" y="3"/><use xlink:href="#bank" width="24" height="24" x="183" y="3"/><use xlink:href="#bar" width="24" height="24" x="213" y="3"/><use xlink:href="#baseball" width="24" height="24" x="243" y="3"/><use xlink:href="#basketball" width="24" height="24" x="273" y="3"/><use xlink:href="#beer" width="24" height="24" x="303" y="3"/><use xlink:href="#bicycle" width="24" height="24" x="3" y="33"/><use xlink:href="#building" width="24" height="24" x="33" y="33"/><use xlink:href="#bus" width="24" height="24" x="63" y="33"/><use xlink:href="#cafe" width="24" height="24" x="93" y="33"/><use xlink:href="#camera" width="24" height="24" x="123" y="33"/><use xlink:href="#campsite" width="24" height="24" x="153" y="33"/><use xlink:href="#car" width="24" height="24" x="183" y="33"/><use xlink:href="#cemetery" width="24" height="24" x="213" y="33"/><use xlink:href="#chemist" width="24" height="24" x="243" y="33"/><use xlink:href="#cinema" width="24" height="24" x="273" y="33"/><use xlink:href="#circle" width="24" height="24" x="303" y="33"/><use xlink:href="#circle-stroked" width="24" height="24" x="3" y="63"/><use xlink:href="#city" width="24" height="24" x="33" y="63"/><use xlink:href="#clothing-store" width="24" height="24" x="63" y="63"/><use xlink:href="#college" width="24" height="24" x="93" y="63"/><use xlink:href="#commercial" width="24" height="24" x="123" y="63"/><use xlink:href="#cricket" width="24" height="24" x="153" y="63"/><use xlink:href="#cross" width="24" height="24" x="183" y="63"/><use xlink:href="#dam" width="24" height="24" x="213" y="63"/><use xlink:href="#danger" width="24" height="24" x="243" y="63"/><use xlink:href="#disability" width="24" height="24" x="273" y="63"/><use xlink:href="#dog-park" width="24" height="24" x="303" y="63"/><use xlink:href="#embassy" width="24" height="24" x="3" y="93"/><use xlink:href="#emergency-telephone" width="24" height="24" x="33" y="93"/><use xlink:href="#entrance" width="24" height="24" x="63" y="93"/><use xlink:href="#farm" width="24" height="24" x="93" y="93"/><use xlink:href="#fast-food" width="24" height="24" x="123" y="93"/><use xlink:href="#ferry" width="24" height="24" x="153" y="93"/><use xlink:href="#fire-station" width="24" height="24" x="183" y="93"/><use xlink:href="#fuel" width="24" height="24" x="213" y="93"/><use xlink:href="#garden" width="24" height="24" x="243" y="93"/><use xlink:href="#gift" width="24" height="24" x="273" y="93"/><use xlink:href="#golf" width="24" height="24" x="303" y="93"/><use xlink:href="#grocery" width="24" height="24" x="3" y="123"/><use xlink:href="#hairdresser" width="24" height="24" x="33" y="123"/><use xlink:href="#harbor" width="24" height="24" x="63" y="123"/><use xlink:href="#heart" width="24" height="24" x="93" y="123"/><use xlink:href="#heliport" width="24" height="24" x="123" y="123"/><use xlink:href="#hospital" width="24" height="24" x="153" y="123"/><use xlink:href="#ice-cream" width="24" height="24" x="183" y="123"/><use xlink:href="#industrial" width="24" height="24" x="213" y="123"/><use xlink:href="#land-use" width="24" height="24" x="243" y="123"/><use xlink:href="#laundry" width="24" height="24" x="273" y="123"/><use xlink:href="#library" width="24" height="24" x="303" y="123"/><use xlink:href="#lighthouse" width="24" height="24" x="3" y="153"/><use xlink:href="#lodging" width="24" height="24" x="33" y="153"/><use xlink:href="#logging" width="24" height="24" x="63" y="153"/><use xlink:href="#london-underground" width="24" height="24" x="93" y="153"/><use xlink:href="#marker" width="24" height="24" x="123" y="153"/><use xlink:href="#marker-stroked" width="24" height="24" x="153" y="153"/><use xlink:href="#minefield" width="24" height="24" x="183" y="153"/><use xlink:href="#mobilephone" width="24" height="24" x="213" y="153"/><use xlink:href="#monument" width="24" height="24" x="243" y="153"/><use xlink:href="#museum" width="24" height="24" x="273" y="153"/><use xlink:href="#music" width="24" height="24" x="303" y="153"/><use xlink:href="#oil-well" width="24" height="24" x="3" y="183"/><use xlink:href="#park" width="24" height="24" x="33" y="183"/><use xlink:href="#park2" width="24" height="24" x="63" y="183"/><use xlink:href="#parking" width="24" height="24" x="93" y="183"/><use xlink:href="#parking-garage" width="24" height="24" x="123" y="183"/><use xlink:href="#pharmacy" width="24" height="24" x="153" y="183"/><use xlink:href="#pitch" width="24" height="24" x="183" y="183"/><use xlink:href="#place-of-worship" width="24" height="24" x="213" y="183"/><use xlink:href="#playground" width="24" height="24" x="243" y="183"/><use xlink:href="#police" width="24" height="24" x="273" y="183"/><use xlink:href="#polling-place" width="24" height="24" x="303" y="183"/><use xlink:href="#post" width="24" height="24" x="3" y="213"/><use xlink:href="#prison" width="24" height="24" x="33" y="213"/><use xlink:href="#rail" width="24" height="24" x="63" y="213"/><use xlink:href="#rail-above" width="24" height="24" x="93" y="213"/><use xlink:href="#rail-light" width="24" height="24" x="123" y="213"/><use xlink:href="#rail-metro" width="24" height="24" x="153" y="213"/><use xlink:href="#rail-underground" width="24" height="24" x="183" y="213"/><use xlink:href="#religious-christian" width="24" height="24" x="213" y="213"/><use xlink:href="#religious-jewish" width="24" height="24" x="243" y="213"/><use xlink:href="#religious-muslim" width="24" height="24" x="273" y="213"/><use xlink:href="#restaurant" width="24" height="24" x="303" y="213"/><use xlink:href="#roadblock" width="24" height="24" x="3" y="243"/><use xlink:href="#rocket" width="24" height="24" x="33" y="243"/><use xlink:href="#school" width="24" height="24" x="63" y="243"/><use xlink:href="#scooter" width="24" height="24" x="93" y="243"/><use xlink:href="#shop" width="24" height="24" x="123" y="243"/><use xlink:href="#skiing" width="24" height="24" x="153" y="243"/><use xlink:href="#slaughterhouse" width="24" height="24" x="183" y="243"/><use xlink:href="#soccer" width="24" height="24" x="213" y="243"/><use xlink:href="#square" width="24" height="24" x="243" y="243"/><use xlink:href="#square-stroked" width="24" height="24" x="273" y="243"/><use xlink:href="#star" width="24" height="24" x="303" y="243"/><use xlink:href="#star-stroked" width="24" height="24" x="3" y="273"/><use xlink:href="#suitcase" width="24" height="24" x="33" y="273"/><use xlink:href="#swimming" width="24" height="24" x="63" y="273"/><use xlink:href="#telephone" width="24" height="24" x="93" y="273"/><use xlink:href="#tennis" width="24" height="24" x="123" y="273"/><use xlink:href="#theatre" width="24" height="24" x="153" y="273"/><use xlink:href="#toilets" width="24" height="24" x="183" y="273"/><use xlink:href="#town" width="24" height="24" x="213" y="273"/><use xlink:href="#town-hall" width="24" height="24" x="243" y="273"/><use xlink:href="#triangle" width="24" height="24" x="273" y="273"/><use xlink:href="#triangle-stroked" width="24" height="24" x="303" y="273"/><use xlink:href="#village" width="24" height="24" x="3" y="303"/><use xlink:href="#warehouse" width="24" height="24" x="33" y="303"/><use xlink:href="#waste-basket" width="24" height="24" x="63" y="303"/><use xlink:href="#water" width="24" height="24" x="93" y="303"/><use xlink:href="#wetland" width="24" height="24" x="123" y="303"/><use xlink:href="#zoo" width="24" height="24" x="153" y="303"/></g></svg>